<?xml version="1.0" encoding="utf-8"?>
<!-- Generator: Adobe Illustrator 25.2.3, SVG Export Plug-In . SVG Version: 6.00 Build 0)  -->
<svg version="1.1" id="Layer_1" xmlns="http://www.w3.org/2000/svg" xmlns:xlink="http://www.w3.org/1999/xlink" x="0px" y="0px"
	 viewBox="0 0 299.4 299.2" style="enable-background:new 0 0 299.4 299.2;" xml:space="preserve">
<style type="text/css">
	.st0{fill:#F9FAFB;}
	.st1{fill:#38698C;}
	.st2{fill:#FCFDFD;}
	.st3{fill:#38698D;}
</style>
<g id="Layer_2_1_">
	<g id="Layer_1-2">
		<path class="st0" d="M131.2,4.4c-0.2,2.4-1.3,4.1-3.9,4.3c-2.7,0.2-4.5-1.2-4.8-3.9c-0.2-2.5,1.3-4.1,3.8-4.3
			C129.1,0.2,130.7,1.6,131.2,4.4z"/>
		<path class="st1" d="M149.2,299.2C66.8,299.1-0.1,231.7,0,149C0.1,67,67.7-0.2,149.9,0c82.8,0.2,149.6,67.5,149.4,150.5
			C299.2,232.5,231.7,299.4,149.2,299.2z M31.3,220c0.2,0.5,0.3,0.9,0.6,1.4c27.2,46.6,85.1,73.6,138.2,64.8
			c77-12.9,127.2-81.5,115.6-158.3C274.7,54.1,203.4,1.6,129.9,13C50.7,25.3-1,99,14.7,177.6c2.9,14.5,7.6,28.5,16.1,40.9L31.3,220z
			"/>
		<path class="st2" d="M69.1,177.4c-0.2-0.5-0.4-1-0.6-1.4l-0.1,0.1c0.8-0.4,1,0.2,1.2,0.8C69.4,177,69.3,177.2,69.1,177.4z"/>
		<path class="st3" d="M31.9,219.4c-0.2-0.6-0.3-1.2-1.2-0.8c0.2-10.9,3.5-21.3,5.4-31.9c3.3-17.7,7-35.2,10.6-52.8
			c1.2-5.9,2.6-6.8,8.6-5.8c13.1,2.2,26.3,4.3,39.4,6.5c5.5,0.9,6.7,2.4,5.7,7.7c-0.9,4.5,0.9,5.6,5,5.6c10.5-0.3,20.9-1.3,31.3-2.5
			c14.1-1.6,28.2-1.9,41.9,2.9c1.9,0.7,2.8,0.5,2.7-1.7c-0.1-2.8,1.8-4,4-5.1c12.7-5.9,25.3-11.8,38-17.7c3.6-1.7,6-0.8,7.8,2.7
			c12.2,24.6,24.5,49.1,36.7,73.7c1.9,3.8,0.8,6.4-3,8c-13.5,5.8-26.9,11.5-40.4,17.2c-2.9,1.3-5.5,1.2-7.4-1.8
			c-0.6-1-1.1-2.2-2.6-1.4c-1.1,0.6-0.9,1.6-0.9,2.6c-0.7,10.8-2.5,13.1-13.1,16.1c-1.4,0.4-1.6,1.1-2,2.4c-2,7.1-5.7,9.5-13.3,8.9
			c-1.2-0.1-2.3-0.8-3.4,0.9c-5.7,8.4-12.9,10.3-22.1,5.6c-2-1-3.5-0.8-5.5-0.2c-7.7,2.4-15.2,1.8-21.9-3
			c-14.2-10.2-28.2-20.7-42.2-31.1c-2-1.5-3.8-3.5-5.5,0.4c-0.7,1.5-2.6,2.1-4.4,1.9c-15.6-2.2-31.3-4.4-46.9-6.7
			C32.8,219.7,32.3,219.6,31.9,219.4z M106.3,157.7c-3.5,1-8.5-1.6-9.6,4.6c-2.6,14.6-5.3,29.1-8.1,43.7c-0.6,3.2,0.2,5.2,2.9,7.2
			c15.3,11,30.4,22.1,45.7,33.1c1.7,1.2,3.5,3.3,5.6,0.9c2.3-2.6-0.1-4.2-1.9-5.7c-2.6-2.2-4.7-4.9-1.9-8c3-3.4,5.8-1.4,8.5,1.1
			c5.5,5.1,11,10.2,17.6,13.9c2.4,1.4,5.6,4,7.5,1.4c1.8-2.4-1.3-5.1-3.4-7c-6.5-5.7-13-11.4-19.6-17.1c-2.5-2.1-4.3-4.7-1.8-7.7
			c2.6-3.2,5.5-2,8.2,0.4c6.9,6.1,13.7,12.1,20.7,18.1c1.8,1.5,3.7,2.9,5.7,4c1.8,1,3.9,1.6,5.5-0.3s0.4-3.8-0.9-5.4
			c-1.1-1.3-2.3-2.4-3.5-3.5c-7.2-6.7-14.5-13.3-21.7-19.9c-2.5-2.3-4.7-4.9-1.9-8.1c3-3.5,5.9-1.4,8.5,1
			c8.1,7.4,16.2,14.8,24.4,22.1c1.7,1.5,3.6,2.9,5.6,4.1c2,1.2,3.8,0.4,5.3-1.3s1.8-3.6,0.5-5.5c-1-1.3-2.2-2.5-3.4-3.6
			c-10.5-9.9-21.3-19.7-31.2-30.2c-11.4-12.1-15.9-12.5-28.6-1.5c-4,3.5-8.7,6.2-13.8,7.7c-10.4,3-17-1.8-17.5-12.6
			c-0.5-7.2,0.7-14.4,3.4-21c1.5-3.4,0.1-5.1-3.4-5.1C108.6,157.7,107.4,157.7,106.3,157.7L106.3,157.7z M73,215.9
			c3.7,0.6,4.4-1.7,5-4.7c3.7-20.8,7.4-41.6,11.3-62.4c0.6-3.4-0.3-4.9-3.8-5.5c-8.5-1.4-17-3-25.5-4.5c-3.1-0.6-4.6,0.5-5.2,3.6
			c-4.2,21.6-8.4,43.1-12.7,64.6c-0.6,2.9,0.3,4.4,3.4,4.8C54.6,213.2,63.8,214.6,73,215.9z M222.2,135.4c-0.5,0.1-1.1,0.3-1.6,0.5
			c-8.3,3.8-16.6,7.7-24.9,11.6c-2.6,1.2-2.6,3-1.5,5.3c9.4,19.5,18.8,39,28.2,58.4c1.4,2.9,3.1,3.5,6,2.3
			c8.3-3.5,16.6-6.9,24.9-10.3c2.8-1.1,3.8-2.9,2.3-5.9c-9.9-19.8-19.8-39.5-29.7-59.4C225.2,136.6,224.4,135.4,222.2,135.4z
			 M149.2,154c-2.2,0-4.3-0.2-6.5,0c-15.7,1.4-19.3,4.1-22.6,17.2c-0.7,2.6-1.1,5.2-1.2,7.9c-0.4,8.3,1.8,9.6,9.2,6.2
			c4.9-2.3,8.6-6.2,12.8-9.4c8.9-6.8,26.8-4.8,33.8,4.7c8.6,11.6,19.9,20.9,30.7,30.6c1.6,1.5,3.7,2.6,5.4,1.4
			c1.9-1.5-0.4-3.2-1-4.6c-6.4-13.3-13.2-26.5-19.3-39.9c-2.6-5.8-7-8.7-12.6-10.2C168.5,155,158.9,153.8,149.2,154L149.2,154z"/>
		<path class="st3" d="M98.8,85c0.2-27.2,22.3-49.1,49.4-49.1c27.1,0.1,49.4,22.3,49.3,49.3c-0.1,27.3-22.2,49.4-49.5,49.3
			C120.8,134.4,98.7,112.3,98.8,85L98.8,85z M148.7,46.2c-21.5-0.4-39.3,16.8-39.6,38.4c0,0,0,0,0,0c-0.3,21.5,17.5,39.5,39.1,39.7
			c21,0.2,39-17.3,39.4-38.4c0.3-21.7-17.1-39.5-38.8-39.8C148.8,46.3,148.7,46.3,148.7,46.2z"/>
		<path class="st3" d="M49.2,196c-0.3-7.7,5.7-14.3,13.4-14.6c7.7-0.3,14.3,5.7,14.6,13.4c0,0.9,0,1.7-0.1,2.6
			c-0.3,7.6-6.7,13.5-14.4,13.2c-0.1,0-0.1,0-0.2,0C54.7,210.2,48.8,203.7,49.2,196z M67.5,197c-0.3-2.4-1.5-4.1-4-4.3
			c-2.3-0.3-4.4,1.3-4.7,3.6s1.3,4.4,3.6,4.7c0.1,0,0.2,0,0.4,0C65.5,201.4,66.9,199.5,67.5,197z"/>
		<path class="st3" d="M247.6,193.6c-0.1,7.7-6.4,13.9-14.1,13.9c-7.7-0.1-13.9-6.4-13.9-14.1l0,0c0.1-7.7,6.4-13.9,14.1-13.9
			C241.4,179.6,247.7,185.9,247.6,193.6z M238.1,193.4c-0.5-2.8-2.1-4.2-4.8-3.9c-2.5,0.2-4,1.8-3.8,4.3c0.2,2.7,2,4.1,4.8,3.9
			C236.7,197.4,237.9,195.7,238.1,193.4z"/>
		<path class="st1" d="M145.7,93.3c4.9,7.1,9.4,13.5,13.7,20c1.1,1.7,4.1,3.2,2.2,5.8c-1.3,1.8-8.1,0.1-9.7-2.1
			c-4.9-6.9-9.7-13.9-14.6-20.8c-0.5-0.7-1.1-1.3-1.5-2c-2.9-5-1.1-8.4,4.6-8.7c4.9-0.2,9.2-1.4,11.2-7.6c-2.9,0-5.6,0.5-8-0.1
			c-3-0.8-8.7,3.5-8.6-3.6c0.2-6.9,5.8-2.4,8.8-3.4c2-0.6,4.3-0.1,7.1-0.1c-2.6-5.1-6.9-5.3-11.1-5s-5.1-1.3-5-5.2
			c0.1-3.3,1.4-3.9,4.2-3.8c8.2,0.1,16.3,0.2,24.5,0c3,0,4.1,0.9,4.1,4s-1.7,3.3-4.1,3.5c-1.6,0.1-4.7-1.6-4.7,1.5
			c0,2.5,0.9,5.8,5.1,5c2.8-0.5,3.7,0.9,3.7,3.7c0.1,3-1.2,3.8-3.9,3.6c-1.6-0.1-3.4-0.4-3.9,2C158.2,87.3,153.7,91.9,145.7,93.3z"
			/>
	</g>
</g>
</svg>
