<?xml version="1.0" standalone="no"?>
<!DOCTYPE svg PUBLIC "-//W3C//DTD SVG 20010904//EN"
 "http://www.w3.org/TR/2001/REC-SVG-20010904/DTD/svg10.dtd">
<svg version="1.0" xmlns="http://www.w3.org/2000/svg"
 width="400.000000pt" height="800.000000pt" viewBox="0 0 400.000000 800.000000"
 preserveAspectRatio="xMidYMid meet">

<g transform="translate(0.000000,800.000000) scale(0.100000,-0.100000)"
fill="#000000" stroke="none">
<path d="M708 6626 c-12 -6 -25 -22 -29 -36 -12 -44 -9 -134 6 -160 24 -43 18
-75 -20 -109 -20 -17 -41 -31 -47 -31 -6 0 1 -9 15 -20 30 -24 47 -26 47 -4 0
8 5 12 11 9 6 -4 13 3 16 15 4 14 12 20 23 17 10 -3 28 7 45 24 27 29 27 29 4
29 -17 0 -20 3 -12 11 7 7 8 21 2 42 -5 18 -9 44 -9 58 0 15 -7 29 -15 33 -43
16 3 56 64 56 27 0 29 -3 36 -52 6 -41 9 -49 15 -33 18 43 11 90 -19 125 -24
29 -36 35 -70 36 -23 0 -51 -4 -63 -10z m32 -170 c0 -11 -19 -15 -25 -6 -3 5
1 10 9 10 9 0 16 -2 16 -4z"/>
<path d="M1773 6525 c-1 -40 1 -50 6 -31 9 41 31 46 31 7 0 -17 5 -31 11 -31
6 0 9 14 7 33 -2 24 -8 33 -25 35 -13 2 -23 12 -26 25 -2 12 -4 -5 -4 -38z"/>
<path d="M1103 6520 c0 -30 2 -45 4 -32 6 30 53 32 53 2 0 -11 5 -20 10 -20 6
0 10 23 10 50 0 28 -4 50 -10 50 -5 0 -10 -9 -10 -20 0 -30 -47 -28 -53 3 -2
12 -4 -3 -4 -33z"/>
<path d="M1270 6520 c0 -27 5 -50 10 -50 6 0 10 9 10 20 0 30 47 28 53 -2 2
-13 4 2 4 32 0 30 -2 45 -4 33 -6 -31 -53 -33 -53 -3 0 11 -4 20 -10 20 -5 0
-10 -22 -10 -50z"/>
<path d="M1200 6505 c0 -19 5 -35 10 -35 6 0 10 16 10 35 0 19 -4 35 -10 35
-5 0 -10 -16 -10 -35z"/>
<path d="M1383 6505 c0 -22 2 -30 4 -17 2 12 2 30 0 40 -3 9 -5 -1 -4 -23z"/>
<path d="M1411 6503 c1 -37 2 -37 8 -8 3 17 13 30 21 30 8 0 18 -13 21 -30 l7
-30 1 33 c1 43 31 45 31 2 0 -16 5 -30 11 -30 6 0 9 14 7 33 -3 31 -4 32 -55
35 l-53 3 1 -38z"/>
<path d="M1540 6531 c0 -5 9 -7 20 -4 11 3 20 1 20 -5 0 -6 -10 -12 -22 -14
-35 -5 -28 -32 9 -36 26 -3 31 0 28 15 -2 10 -4 26 -4 36 -1 11 -9 17 -26 17
-14 0 -25 -4 -25 -9z m40 -41 c0 -5 -7 -10 -15 -10 -8 0 -15 5 -15 10 0 6 7
10 15 10 8 0 15 -4 15 -10z"/>
<path d="M1622 6503 c1 -37 1 -37 5 -5 6 42 33 44 33 2 0 -16 5 -30 10 -30 11
0 13 30 4 54 -3 9 -17 16 -30 16 -21 0 -24 -4 -22 -37z"/>
<path d="M1697 6533 c-9 -9 12 -33 29 -33 8 0 14 -5 14 -11 0 -7 -10 -9 -26
-5 -17 5 -23 3 -19 -4 9 -15 55 -12 55 4 0 7 -10 21 -22 30 l-23 17 23 -5 c12
-2 22 0 22 5 0 10 -43 12 -53 2z"/>
<path d="M1852 6508 c-2 -36 0 -38 28 -38 28 0 30 3 30 35 0 19 -4 35 -10 35
-5 0 -10 -13 -10 -30 0 -42 -27 -40 -33 3 -4 31 -4 31 -5 -5z"/>
<path d="M785 6490 c-8 -12 20 -24 35 -15 6 3 8 11 5 16 -8 12 -32 12 -40 -1z"/>
<path d="M1102 6350 c0 -19 2 -27 5 -17 2 9 2 25 0 35 -3 9 -5 1 -5 -18z"/>
<path d="M1362 6350 c0 -19 2 -27 5 -17 2 9 2 25 0 35 -3 9 -5 1 -5 -18z"/>
<path d="M1692 6355 c0 -16 2 -22 5 -12 2 9 2 23 0 30 -3 6 -5 -1 -5 -18z"/>
<path d="M1161 6344 c0 -11 3 -14 6 -6 3 7 2 16 -1 19 -3 4 -6 -2 -5 -13z"/>
<path d="M1191 6344 c0 -11 3 -14 6 -6 3 7 2 16 -1 19 -3 4 -6 -2 -5 -13z"/>
<path d="M1211 6344 c0 -11 3 -14 6 -6 3 7 2 16 -1 19 -3 4 -6 -2 -5 -13z"/>
<path d="M1241 6346 c-9 -10 -9 -16 -1 -21 6 -4 14 -4 17 -1 4 3 0 6 -8 6 -12
0 -12 2 1 10 8 5 12 12 9 15 -4 3 -12 -1 -18 -9z"/>
<path d="M1302 6340 c0 -14 2 -19 5 -12 2 6 2 18 0 25 -3 6 -5 1 -5 -13z"/>
<path d="M1320 6348 c0 -4 6 -8 13 -8 8 0 7 -4 -3 -11 -12 -8 -12 -10 -1 -7
19 5 23 35 5 35 -8 0 -14 -4 -14 -9z"/>
<path d="M1401 6348 c-1 -22 18 -33 32 -19 9 9 8 11 -5 6 -11 -4 -18 0 -21 12
-4 15 -5 16 -6 1z"/>
<path d="M1542 6335 c0 -16 2 -22 5 -12 2 9 2 23 0 30 -3 6 -5 -1 -5 -18z"/>
<path d="M1562 6340 c0 -14 2 -19 5 -12 2 6 2 18 0 25 -3 6 -5 1 -5 -13z"/>
<path d="M1591 6344 c0 -11 3 -14 6 -6 3 7 2 16 -1 19 -3 4 -6 -2 -5 -13z"/>
<path d="M1611 6344 c0 -11 3 -14 6 -6 3 7 2 16 -1 19 -3 4 -6 -2 -5 -13z"/>
<path d="M1642 6347 c-9 -11 -10 -17 -2 -22 15 -9 23 -1 18 21 -3 15 -4 16
-16 1z"/>
<path d="M1733 6346 c1 -11 9 -21 17 -23 10 -3 11 -2 4 4 -6 4 -14 15 -17 23
-5 11 -6 9 -4 -4z"/>
<path d="M1801 6348 c-1 -21 -17 -24 -24 -5 -4 9 -6 9 -6 0 -1 -17 19 -27 31
-15 6 6 8 16 5 24 -4 9 -6 7 -6 -4z"/>
<path d="M1822 6340 c0 -14 2 -19 5 -12 2 6 2 18 0 25 -3 6 -5 1 -5 -13z"/>
<path d="M1872 6340 c0 -14 2 -19 5 -12 2 6 2 18 0 25 -3 6 -5 1 -5 -13z"/>
<path d="M1466 6329 c3 -5 12 -9 21 -9 19 0 9 13 -12 16 -8 1 -13 -2 -9 -7z"/>
<path d="M840 6275 c0 -40 3 -41 48 -17 l33 18 -36 17 c-20 9 -38 17 -40 17
-3 0 -5 -16 -5 -35z"/>
<path d="M732 6257 c-7 -8 -9 -17 -5 -20 10 -11 51 -8 58 3 4 6 11 7 17 4 6
-4 9 -1 6 7 -6 19 -62 23 -76 6z"/>
<path d="M537 6033 c-4 -3 -7 -30 -7 -60 l0 -53 33 0 c42 0 57 15 57 56 0 44
-57 83 -83 57z m51 -25 c22 -22 8 -78 -20 -78 -4 0 -8 20 -8 45 0 46 7 54 28
33z"/>
<path d="M676 6032 c-2 -4 -13 -31 -24 -60 -16 -42 -17 -52 -6 -52 8 0 14 5
14 10 0 6 11 10 25 10 14 0 25 -4 25 -10 0 -5 7 -10 16 -10 11 0 14 5 9 18 -4
9 -14 36 -22 60 -14 40 -26 51 -37 34z m24 -64 c0 -5 -6 -8 -14 -8 -9 0 -12 7
-9 21 4 16 8 17 14 7 5 -7 9 -16 9 -20z"/>
<path d="M778 6029 c-26 -15 -22 -48 6 -59 32 -12 41 -29 20 -37 -10 -4 -19
-2 -22 5 -2 7 -10 12 -18 12 -20 0 -6 -27 18 -34 55 -14 79 43 28 64 -16 7
-30 16 -30 21 0 15 21 21 36 8 8 -6 18 -9 22 -5 4 4 -2 14 -12 22 -23 16 -25
17 -48 3z"/>
<path d="M860 5980 c0 -33 4 -60 10 -60 6 0 10 11 10 25 0 20 5 25 25 25 20 0
25 -5 25 -25 0 -16 6 -25 15 -25 13 0 15 11 13 57 -2 34 -8 58 -15 61 -8 2
-13 -6 -13 -22 0 -21 -5 -26 -25 -26 -20 0 -25 5 -25 25 0 14 -4 25 -10 25 -6
0 -10 -27 -10 -60z"/>
<path d="M980 5980 l0 -60 40 0 c43 0 44 2 40 65 -2 45 -12 55 -52 55 -27 0
-28 -1 -28 -60z m60 25 c0 -8 -9 -15 -20 -15 -11 0 -20 7 -20 15 0 8 9 15 20
15 11 0 20 -7 20 -15z m-2 -52 c-2 -10 -10 -18 -18 -18 -8 0 -16 8 -18 18 -2
12 3 17 18 17 15 0 20 -5 18 -17z"/>
<path d="M1105 6026 c-25 -18 -24 -84 1 -103 40 -29 79 -2 77 53 -2 55 -39 79
-78 50z m50 -51 c0 -33 -3 -40 -20 -40 -15 0 -21 8 -23 28 -5 39 5 59 25 55
14 -2 18 -13 18 -43z"/>
<path d="M1225 6003 c-23 -55 -29 -83 -16 -83 6 0 11 5 11 10 0 14 43 13 58
-2 6 -6 14 -9 17 -6 8 7 -36 118 -46 118 -5 0 -16 -17 -24 -37z m35 -29 c0 -8
-4 -14 -10 -14 -5 0 -10 9 -10 21 0 11 5 17 10 14 6 -3 10 -13 10 -21z"/>
<path d="M1317 6033 c-4 -3 -7 -30 -7 -60 0 -40 4 -53 15 -53 8 0 15 9 15 20
0 26 14 25 33 -2 18 -28 33 -18 18 11 -7 13 -8 22 -1 26 17 10 11 44 -9 55
-22 11 -54 13 -64 3z m58 -33 c0 -8 -8 -16 -17 -18 -13 -2 -18 3 -18 18 0 15
5 20 18 18 9 -2 17 -10 17 -18z"/>
<path d="M1427 6033 c-4 -3 -7 -30 -7 -60 l0 -53 33 0 c42 0 57 15 57 56 0 44
-57 83 -83 57z m51 -25 c22 -22 8 -78 -20 -78 -4 0 -8 20 -8 45 0 46 7 54 28
33z"/>
<path d="M2293 5163 c-78 -4 -83 -5 -82 -26 1 -17 2 -18 6 -4 4 14 17 17 84
17 46 0 79 4 79 10 0 6 -1 9 -2 8 -2 -1 -40 -4 -85 -5z"/>
<path d="M2423 5090 c0 -47 2 -66 4 -42 2 23 2 61 0 85 -2 23 -4 4 -4 -43z"/>
<path d="M2210 5058 c0 -12 1 -19 3 -17 1 2 9 12 16 22 12 14 11 17 -3 17 -10
0 -16 -8 -16 -22z"/>
<path d="M2280 5058 c0 -12 1 -19 3 -17 1 2 9 12 16 22 12 14 11 17 -3 17 -10
0 -16 -8 -16 -22z"/>
<path d="M2351 5058 c0 -16 2 -18 6 -8 3 8 11 18 17 22 7 5 4 8 -6 8 -12 0
-18 -7 -17 -22z"/>
<path d="M2210 4993 c0 -10 4 -14 8 -8 4 6 11 13 16 18 5 4 2 7 -7 7 -10 0
-17 -8 -17 -17z"/>
<path d="M2280 4993 c0 -10 4 -14 8 -8 4 6 11 13 16 18 5 4 2 7 -7 7 -10 0
-17 -8 -17 -17z"/>
<path d="M2352 4958 l1 -53 4 45 c3 24 10 48 16 52 8 5 6 8 -5 8 -15 0 -18 -8
-16 -52z"/>
<path d="M941 4985 c0 -12 -6 -26 -13 -33 -9 -9 -9 -12 0 -12 16 0 25 23 19
47 -4 16 -5 15 -6 -2z"/>
<path d="M2445 4960 c-10 -11 -15 -23 -12 -27 4 -3 7 -1 7 6 0 6 10 15 22 20
12 4 17 11 11 14 -6 4 -18 -2 -28 -13z"/>
<path d="M2210 4923 c0 -10 4 -14 8 -8 4 6 11 13 16 18 5 4 2 7 -7 7 -10 0
-17 -8 -17 -17z"/>
<path d="M2280 4923 c0 -10 4 -14 8 -8 4 6 11 13 16 18 5 4 2 7 -7 7 -10 0
-17 -8 -17 -17z"/>
<path d="M2570 4881 c0 -24 -42 -69 -72 -75 -12 -3 -32 -7 -43 -9 -11 -3 -1
-5 23 -6 36 -1 49 4 73 28 17 17 29 40 29 55 0 14 -2 26 -5 26 -3 0 -5 -8 -5
-19z"/>
<path d="M900 4880 c-9 -6 -10 -10 -3 -10 6 0 15 5 18 10 8 12 4 12 -15 0z"/>
<path d="M830 4870 c0 -5 -12 -16 -27 -24 -19 -10 -22 -15 -11 -16 18 0 48 25
48 41 0 5 -2 9 -5 9 -3 0 -5 -4 -5 -10z"/>
<path d="M2480 4865 c-8 -9 -8 -15 -2 -15 12 0 26 19 19 26 -2 2 -10 -2 -17
-11z"/>
<path d="M2203 4864 c8 -8 145 -9 153 -1 4 4 -30 7 -76 7 -46 0 -81 -3 -77 -6z"/>
<path d="M720 4830 l-35 -7 38 -2 c20 0 37 4 37 9 0 6 -1 9 -2 9 -2 -1 -19 -5
-38 -9z"/>
<path d="M750 4113 c0 -5 24 -7 52 -5 89 5 97 9 21 11 -40 0 -73 -2 -73 -6z"/>
<path d="M730 4055 c-7 -8 -23 -15 -36 -15 -17 0 -24 -6 -23 -17 0 -11 3 -13
6 -5 2 6 12 12 22 12 21 0 58 26 50 34 -3 4 -12 0 -19 -9z"/>
<path d="M808 4033 c6 -2 18 -2 25 0 6 3 1 5 -13 5 -14 0 -19 -2 -12 -5z"/>
<path d="M673 3960 c0 -25 2 -35 4 -22 2 12 2 32 0 45 -2 12 -4 2 -4 -23z"/>
<path d="M2334 3966 c-40 -18 -72 -59 -85 -112 -10 -38 -15 -43 -43 -47 -31
-4 -31 -4 5 -5 35 -2 35 -1 53 57 15 50 23 61 59 81 28 16 58 24 91 24 31 0
42 3 30 7 -30 12 -76 9 -110 -5z"/>
<path d="M889 3893 c-13 -15 -12 -15 9 -4 23 12 28 21 13 21 -5 0 -15 -7 -22
-17z"/>
<path d="M672 3850 c0 -14 2 -19 5 -12 2 6 2 18 0 25 -3 6 -5 1 -5 -13z"/>
<path d="M2640 3836 c0 -20 -6 -25 -32 -29 -32 -4 -32 -4 5 -5 35 -2 37 0 37
28 0 17 -2 30 -5 30 -3 0 -5 -11 -5 -24z"/>
<path d="M958 3818 c-15 -16 -21 -28 -14 -28 16 0 49 36 45 47 -2 4 -16 -4
-31 -19z"/>
<path d="M738 3823 c18 -2 45 -2 60 0 15 2 0 4 -33 4 -33 0 -45 -2 -27 -4z"/>
<path d="M2410 3805 c-8 -9 -8 -15 -2 -15 12 0 26 19 19 26 -2 2 -10 -2 -17
-11z"/>
<path d="M728 3783 c23 -2 59 -2 80 0 20 2 1 4 -43 4 -44 0 -61 -2 -37 -4z"/>
<path d="M868 3203 c7 -3 16 -2 19 1 4 3 -2 6 -13 5 -11 0 -14 -3 -6 -6z"/>
<path d="M825 3180 c-3 -5 -2 -10 4 -10 5 0 13 5 16 10 3 6 2 10 -4 10 -5 0
-13 -4 -16 -10z"/>
<path d="M915 3080 c-3 -5 -2 -10 4 -10 5 0 13 5 16 10 3 6 2 10 -4 10 -5 0
-13 -4 -16 -10z"/>
<path d="M1041 3077 c-3 -53 -62 -103 -131 -110 -35 -4 -35 -4 5 -5 24 -1 52
6 72 18 36 21 67 72 60 98 -4 15 -5 14 -6 -1z"/>
<path d="M840 3045 c-7 -9 -10 -18 -7 -21 3 -3 10 4 17 15 13 25 8 27 -10 6z"/>
<path d="M772 2980 c0 -14 2 -19 5 -12 2 6 2 18 0 25 -3 6 -5 1 -5 -13z"/>
<path d="M718 2863 c28 -2 76 -2 105 0 28 2 5 3 -53 3 -58 0 -81 -1 -52 -3z"/>
<path d="M933 2540 c2 -26 7 -36 22 -38 18 -4 19 -3 3 10 -9 7 -19 24 -21 38
-3 16 -5 13 -4 -10z"/>
<path d="M1160 2538 c0 -23 3 -29 9 -19 8 12 4 51 -5 51 -2 0 -4 -15 -4 -32z"/>
<path d="M1207 2551 c-2 -10 -1 -25 4 -32 6 -10 9 -4 9 19 0 36 -5 42 -13 13z"/>
<path d="M1306 2533 c10 -40 14 -41 14 -5 0 18 -5 32 -10 32 -6 0 -8 -11 -4
-27z"/>
<path d="M983 2534 c-10 -26 14 -41 34 -21 13 12 14 20 6 28 -8 8 -11 6 -10
-6 1 -10 -4 -20 -12 -23 -10 -3 -12 1 -8 17 6 24 -1 29 -10 5z"/>
<path d="M1061 2530 c-1 -20 -3 -22 -11 -10 -8 13 -10 12 -10 -2 0 -10 6 -18
14 -18 20 0 25 11 15 35 -7 18 -8 18 -8 -5z"/>
<path d="M1092 2525 c0 -16 2 -22 5 -12 2 9 2 23 0 30 -3 6 -5 -1 -5 -18z"/>
<path d="M1118 2525 c2 -14 6 -25 8 -25 2 0 4 11 4 25 0 14 -4 25 -9 25 -4 0
-6 -11 -3 -25z"/>
<path d="M1232 2525 c0 -16 2 -22 5 -12 2 9 2 23 0 30 -3 6 -5 -1 -5 -18z"/>
<path d="M1256 2543 c-3 -3 2 -12 12 -20 16 -14 16 -14 -3 -8 -16 5 -18 4 -7
-6 9 -10 15 -10 23 -2 9 9 8 16 -3 27 -9 8 -18 12 -22 9z"/>
<path d="M1333 2534 c-10 -26 14 -41 34 -21 13 12 14 20 6 28 -8 8 -11 6 -10
-6 1 -10 -4 -20 -12 -23 -10 -3 -12 1 -8 17 6 24 -1 29 -10 5z"/>
<path d="M1392 2530 c0 -14 2 -19 5 -12 2 6 2 18 0 25 -3 6 -5 1 -5 -13z"/>
<path d="M1420 2529 c7 -11 9 -28 5 -37 -4 -11 -3 -14 4 -7 5 6 13 24 16 40 5
23 4 26 -4 15 -7 -10 -11 -11 -11 -2 0 6 -5 12 -10 12 -7 0 -7 -7 0 -21z"/>
<path d="M940 2195 c-16 -19 -3 -55 21 -55 10 0 19 4 19 9 0 5 -8 8 -17 7 -12
-1 -18 6 -18 19 0 13 6 20 17 19 10 -1 15 2 12 7 -8 13 -20 11 -34 -6z"/>
<path d="M996 2184 c-9 -24 -7 -27 7 -15 8 6 17 8 20 4 4 -3 7 -2 7 4 0 18
-28 23 -34 7z"/>
<path d="M1100 2172 c0 -18 4 -32 8 -32 9 0 8 47 -1 57 -4 3 -7 -8 -7 -25z"/>
<path d="M1058 2181 c11 -7 10 -9 -3 -15 -19 -7 -11 -26 11 -26 8 0 14 10 14
25 0 17 -5 25 -17 25 -14 0 -15 -2 -5 -9z"/>
<path d="M2900 2036 c0 -20 56 -83 66 -74 4 4 -5 17 -19 29 -15 11 -27 27 -27
34 0 8 -4 17 -10 20 -5 3 -10 -1 -10 -9z"/>
<path d="M3111 2004 c-16 -16 -36 -24 -58 -24 -30 0 -33 -3 -33 -30 0 -19 -5
-30 -14 -30 -21 0 -30 -20 -17 -33 15 -15 14 -74 -1 -80 -8 -3 -6 -6 5 -6 13
-1 17 7 17 41 0 50 8 47 12 -5 1 -20 7 -37 13 -37 6 0 9 16 7 41 -3 22 1 46 7
52 6 6 11 23 11 38 0 20 7 30 30 39 16 7 36 23 45 36 20 30 7 29 -24 -2z m-68
-54 c3 -11 1 -20 -4 -20 -5 0 -9 9 -9 20 0 11 2 20 4 20 2 0 6 -9 9 -20z"/>
<path d="M583 1858 c-32 -36 -39 -53 -20 -45 13 5 17 0 17 -22 0 -20 6 -30 20
-34 11 -3 20 -1 20 4 0 5 -4 9 -10 9 -5 0 -10 20 -10 45 0 42 2 45 26 45 14 0
23 4 19 10 -11 17 -41 11 -62 -12z"/>
<path d="M685 1870 c-3 -6 4 -10 18 -10 21 0 25 -6 34 -52 8 -42 11 -46 12
-21 1 25 4 31 17 26 14 -5 15 -3 5 15 -25 46 -70 68 -86 42z"/>
<path d="M930 1810 c0 -16 4 -30 8 -30 5 0 7 14 4 30 -2 17 -6 30 -8 30 -2 0
-4 -13 -4 -30z"/>
<path d="M1160 1831 c0 -6 9 -15 20 -21 12 -6 18 -16 14 -23 -4 -7 -1 -6 7 2
11 11 11 14 1 18 -7 3 -19 11 -27 20 -8 8 -15 10 -15 4z"/>
<path d="M1220 1812 c0 -18 4 -32 8 -32 9 0 8 47 -1 57 -4 3 -7 -8 -7 -25z"/>
<path d="M1300 1817 c0 -14 4 -28 8 -31 9 -5 8 41 -1 51 -4 3 -7 -5 -7 -20z"/>
<path d="M984 1815 c-7 -18 3 -35 21 -35 18 0 26 15 19 34 -8 20 -33 21 -40 1z
m34 -13 c2 -7 -3 -12 -12 -12 -9 0 -16 7 -16 16 0 17 22 14 28 -4z"/>
<path d="M1050 1820 c10 -6 11 -10 3 -10 -7 0 -13 -8 -13 -17 0 -15 2 -16 10
-3 6 10 10 11 10 3 0 -7 4 -13 9 -13 4 0 6 11 3 25 -2 15 -11 25 -21 25 -14 0
-14 -2 -1 -10z"/>
<path d="M1092 1805 c0 -16 2 -22 5 -12 2 9 2 23 0 30 -3 6 -5 -1 -5 -18z"/>
<path d="M1118 1803 c5 -21 7 -23 10 -9 2 10 0 22 -6 28 -6 6 -7 0 -4 -19z"/>
<path d="M1268 1822 c11 -7 11 -10 -2 -15 -23 -9 -20 -27 5 -27 15 0 20 5 17
22 -2 12 -10 23 -18 25 -12 4 -12 3 -2 -5z"/>
<path d="M1330 1811 c0 -11 4 -22 9 -25 4 -3 6 6 3 19 -5 30 -12 33 -12 6z"/>
<path d="M1362 1805 c0 -16 2 -22 5 -12 2 9 2 23 0 30 -3 6 -5 -1 -5 -18z"/>
<path d="M1386 1822 c-3 -4 4 -16 14 -25 19 -16 20 -16 16 5 -3 23 -21 35 -30
20z"/>
<path d="M715 1760 c3 -5 8 -10 11 -10 2 0 4 5 4 10 0 6 -5 10 -11 10 -5 0 -7
-4 -4 -10z"/>
</g>
</svg>
