<?xml version="1.0" standalone="no"?>
<!DOCTYPE svg PUBLIC "-//W3C//DTD SVG 20010904//EN"
 "http://www.w3.org/TR/2001/REC-SVG-20010904/DTD/svg10.dtd">
<svg version="1.0" xmlns="http://www.w3.org/2000/svg"
 width="630.000000pt" height="768.000000pt" viewBox="0 0 630.000000 768.000000"
 preserveAspectRatio="xMidYMid meet">
<g transform="translate(0.000000,768.000000) scale(0.100000,-0.100000)"
fill="#040d1b" class="small" stroke="none">
<path style="#fff" d="M0 3840 l0 -3840 3150 0 3150 0 0 3840 0 3840 -3150 0 -3150 0 0
-3840z m3434 2574 c138 -41 370 -112 516 -156 146 -44 311 -94 368 -110 l102
-31 0 -554 0 -554 -132 71 c-73 38 -186 98 -250 133 l-118 62 -2 240 -3 239
-75 18 c-41 9 -135 29 -207 44 -73 16 -133 31 -133 35 0 8 298 93 321 92 10
-1 77 -19 148 -39 l131 -38 0 -248 0 -248 70 -35 c38 -19 72 -35 75 -35 9 0 5
689 -4 694 -15 10 -519 146 -538 146 -10 0 -221 -63 -468 -140 -248 -77 -456
-140 -463 -140 -15 0 -202 101 -202 109 0 3 139 46 308 95 541 157 515 149
496 159 -9 5 -61 27 -115 48 l-98 38 -516 -161 c-283 -89 -515 -164 -515 -167
0 -4 515 -264 1145 -579 l1145 -572 0 -69 c0 -149 -77 -352 -190 -502 -27 -36
-93 -108 -148 -160 -176 -169 -366 -294 -689 -456 -168 -83 -219 -104 -241
-100 -41 8 -259 110 -387 180 -400 219 -649 454 -793 747 l-57 115 -3 363 c-1
199 0 362 3 362 2 0 111 -61 240 -136 l235 -136 0 -178 0 -177 41 -64 c121
-187 384 -376 829 -597 l214 -106 105 55 c361 187 583 408 655 648 29 98 34
93 -131 158 -8 3 -13 -4 -13 -20 0 -45 -41 -158 -83 -229 -72 -121 -229 -265
-407 -373 l-60 -37 -63 36 c-112 63 -111 57 -22 105 254 137 401 298 449 492
9 36 16 83 16 105 l0 39 -903 434 c-496 239 -915 441 -930 448 l-28 14 3 -97
3 -97 475 -231 c262 -127 577 -280 700 -340 124 -60 285 -138 358 -174 l134
-65 -63 -63 c-35 -35 -69 -64 -75 -64 -7 0 -353 169 -770 375 -417 207 -793
392 -836 412 l-78 37 0 317 c0 175 3 320 8 322 4 3 111 35 237 72 257 74 357
103 690 201 282 82 318 92 329 93 5 1 122 -33 260 -75z m-1584 -3359 c71 -17
170 -54 170 -64 0 -3 -17 -48 -37 -99 -43 -105 -30 -100 -153 -56 -139 49
-280 32 -304 -39 -8 -21 -6 -31 10 -48 24 -27 45 -35 169 -65 172 -42 220 -62
274 -110 63 -57 85 -110 79 -196 -7 -121 -78 -210 -205 -259 -73 -28 -249 -37
-361 -19 -78 12 -188 49 -229 75 l-22 15 41 92 c22 51 42 95 44 97 2 2 34 -10
71 -26 86 -39 159 -56 243 -56 88 0 135 16 150 53 24 58 -12 85 -168 121 -211
49 -293 93 -340 179 -21 39 -23 55 -20 126 3 65 9 90 31 126 44 75 115 124
220 153 70 19 255 19 337 0z m1201 -466 c112 -254 206 -465 207 -470 2 -5 -58
-9 -136 -9 l-140 0 -35 88 -35 87 -203 0 -203 0 -35 -87 -34 -88 -139 0 c-77
0 -137 4 -134 8 2 4 93 208 201 452 108 245 201 453 206 463 9 15 26 17 142
17 l133 0 205 -461z m649 96 l0 -365 225 0 225 0 0 -105 0 -105 -360 0 -360 0
0 470 0 470 135 0 135 0 0 -365z m1320 260 l0 -105 -145 0 -145 0 0 -365 0
-365 -135 0 -135 0 0 365 0 365 -145 0 -145 0 0 105 0 105 425 0 425 0 0 -105z
m-2454 -1225 c80 -39 95 -141 28 -200 -29 -25 -43 -30 -89 -30 -63 0 -107 29
-125 85 -21 63 20 135 86 155 44 13 54 12 100 -10z m-1149 -5 c27 -19 34 -48
18 -78 -10 -20 -9 -27 6 -46 26 -32 24 -56 -7 -80 -22 -17 -41 -21 -110 -21
l-84 0 0 120 0 120 78 0 c52 0 84 -5 99 -15z m133 -68 c0 -51 5 -89 13 -100
20 -27 60 -31 88 -8 21 17 24 28 28 105 3 78 5 86 23 86 19 0 20 -6 16 -94 -3
-84 -6 -97 -27 -120 -20 -22 -33 -26 -78 -26 -44 0 -58 5 -78 25 -23 22 -25
32 -25 120 0 88 1 95 20 95 18 0 20 -7 20 -83z m278 28 c18 -30 35 -55 37 -55
2 0 19 25 37 55 24 41 39 55 55 55 22 0 21 -3 -19 -67 -29 -48 -44 -83 -48
-118 -4 -42 -8 -50 -27 -53 -21 -3 -23 1 -23 40 0 24 -8 56 -18 73 -10 17 -31
51 -46 78 l-28 47 24 0 c18 0 31 -13 56 -55z m378 -19 c32 -41 62 -75 67 -75
4 -1 7 33 7 74 0 68 2 75 20 75 19 0 20 -7 20 -120 0 -150 -8 -153 -100 -39
l-65 82 -3 -82 c-3 -73 -5 -81 -22 -81 -19 0 -20 7 -20 120 0 110 2 120 18
120 11 0 43 -30 78 -74z m523 -8 c14 -42 29 -80 33 -83 3 -4 19 32 34 79 24
74 31 86 50 86 20 0 27 -12 50 -85 16 -47 31 -85 34 -85 3 0 18 38 34 85 22
68 31 85 47 85 10 0 19 -3 19 -7 0 -4 -17 -58 -37 -120 -35 -106 -39 -114 -62
-111 -20 3 -28 16 -53 83 -16 44 -31 81 -33 83 -2 2 -16 -35 -31 -82 -26 -79
-30 -86 -54 -86 -24 0 -28 7 -57 98 -50 154 -48 144 -22 140 18 -2 27 -17 48
-80z m604 70 c55 -29 63 -84 18 -129 -25 -24 -37 -29 -80 -29 l-51 0 0 -36 c0
-31 -3 -35 -22 -32 -22 3 -23 8 -26 107 -1 58 0 111 2 118 7 17 128 18 159 1z
m252 -100 c28 -62 52 -116 53 -120 2 -4 -8 -8 -22 -8 -19 0 -27 6 -32 25 -6
24 -10 25 -74 25 -64 0 -68 -1 -74 -25 -5 -18 -13 -25 -31 -25 -24 0 -24 0 -9
36 8 20 33 74 54 120 32 70 43 84 62 84 20 0 30 -16 73 -112z m119 62 c15 -27
31 -52 36 -55 5 -3 24 19 42 50 20 33 40 55 50 55 25 0 23 -6 -27 -90 -32 -53
-45 -86 -45 -112 0 -31 -4 -38 -20 -38 -17 0 -20 7 -20 43 0 23 -8 56 -18 72
-10 17 -31 51 -46 78 l-28 47 24 0 c19 0 31 -11 52 -50z m326 -50 l0 -99 62
-3 c50 -2 63 -6 66 -20 3 -16 -6 -18 -82 -18 l-86 0 0 120 c0 113 1 120 20
120 19 0 20 -7 20 -100z m341 -10 c26 -58 48 -111 48 -117 1 -23 -36 -13 -47
12 -11 23 -17 25 -75 25 -58 0 -65 -2 -75 -25 -12 -25 -59 -38 -49 -12 3 6 26
61 53 120 44 98 51 108 73 105 20 -3 32 -20 72 -108z m256 93 c3 -8 -11 -13
-39 -15 l-43 -3 -3 -102 c-2 -94 -4 -103 -22 -103 -18 0 -20 9 -22 103 l-3
102 -37 3 c-25 2 -38 8 -38 18 0 12 17 14 102 12 67 -2 103 -7 105 -15z m213
2 c0 -12 -14 -15 -65 -15 -60 0 -65 -2 -71 -24 -9 -38 2 -46 62 -46 47 0 54
-3 54 -20 0 -16 -8 -19 -57 -22 -54 -3 -58 -5 -58 -28 0 -24 3 -25 68 -28 59
-3 67 -5 67 -22 0 -18 -7 -20 -90 -20 l-90 0 0 120 0 120 90 0 c73 0 90 -3 90
-15z m213 4 c26 -12 47 -47 47 -79 0 -10 -11 -32 -25 -48 l-24 -29 25 -36 25
-37 -25 0 c-17 0 -31 10 -46 35 -18 29 -28 35 -56 35 -32 0 -34 -2 -34 -36 0
-31 -3 -35 -22 -32 -22 3 -23 8 -26 107 -1 58 0 111 2 118 7 16 124 18 159 2z"/>
<path d="M2060 4812 l0 -197 45 -79 c107 -188 267 -359 480 -511 177 -127 490
-295 548 -295 78 0 177 48 177 85 0 9 -19 23 -42 32 -83 32 -394 192 -480 246
-206 130 -365 274 -461 418 -88 133 -91 144 -97 309 l-5 144 -75 23 c-41 13
-78 23 -82 23 -5 0 -8 -89 -8 -198z"/>
<path d="M2647 2638 c-31 -78 -55 -143 -53 -145 2 -2 55 -2 119 -1 l115 3 -57
142 c-31 79 -59 143 -62 143 -3 0 -31 -64 -62 -142z"/>
<path d="M2449 1671 c-80 -81 33 -199 116 -121 37 35 35 90 -6 124 -40 34 -74
33 -110 -3z"/>
<path d="M1290 1664 l0 -35 46 3 c88 6 81 68 -8 68 -37 0 -38 -1 -38 -36z"/>
<path d="M1290 1555 c0 -35 0 -35 43 -35 50 0 81 18 75 46 -3 16 -13 20 -61
22 l-57 3 0 -36z"/>
<path d="M3227 1693 c-4 -3 -7 -26 -7 -50 l0 -43 43 0 c50 0 67 13 67 51 0 21
-7 29 -31 38 -36 13 -63 14 -72 4z"/>
<path d="M3498 1655 c-9 -16 -19 -40 -22 -52 -7 -21 -4 -23 33 -23 46 0 48 6
22 65 l-18 40 -15 -30z"/>
<path d="M4272 1630 l-21 -50 45 0 c42 0 45 1 38 23 -8 26 -33 77 -38 77 -2 0
-13 -22 -24 -50z"/>
<path d="M4947 1693 c-4 -3 -7 -26 -7 -50 l0 -43 43 0 c50 0 67 13 67 51 0 21
-7 29 -31 38 -36 13 -63 14 -72 4z"/>
</g>
</svg>
