<svg width="500" height="500" viewBox="0 0 500 500" fill="none" xmlns="http://www.w3.org/2000/svg">
<g clip-path="url(#clip0_102_114)">
<path d="M66.4001 500.7H500V-0.700195H299.5C251.6 7.9998 186.4 9.39981 176.2 40.9998C154.1 109.4 217.1 147.3 176.2 188.2C135.3 229.1 28.4001 284.8 81.2001 352.8C134 420.9 94.4001 419.4 81.2001 439.2C70.6001 455.2 58.8001 478.3 66.4001 500.7Z" fill="#F1F1F1"/>
<path d="M407.6 463.1C403.7 463.1 400.3 460 400.1 456C399.8 451.9 403 448.3 407.1 448C407.3 448 416.3 447.3 428.1 442.4C443.9 435.9 457.2 425.5 467.5 411.4C470 408 474.7 407.3 478 409.8C481.4 412.3 482.1 417 479.6 420.3C450.7 460 409.8 463 408 463.1C407.9 463.1 407.7 463.1 407.6 463.1Z" fill="#74818E"/>
<path d="M115.8 327.6C115.8 323.7 118.9 320.3 122.9 320.1C127 319.8 130.6 323 130.9 327.1C130.9 327.3 131.6 336.3 136.5 348.1C143 363.9 153.4 377.2 167.5 387.5C170.9 390 171.6 394.7 169.1 398C166.6 401.4 161.9 402.1 158.6 399.6C119 370.7 116.1 329.8 116 328C115.8 327.9 115.8 327.7 115.8 327.6Z" fill="#74818E"/>
<path d="M339.7 31.0002C342.6 33.6002 343 38.1002 340.6 41.3002C338 44.5002 333.3 45.1002 330.1 42.5002C329.9 42.4002 322.8 36.9002 310.8 32.6002C294.7 26.8002 277.9 25.7002 260.8 29.3002C256.7 30.1002 252.8 27.5002 251.9 23.5002C251.1 19.4002 253.7 15.5002 257.7 14.6002C305.7 4.60018 338.1 29.7002 339.4 30.8002C339.5 30.8002 339.6 30.9002 339.7 31.0002Z" fill="#74818E"/>
<path d="M154.2 321.3L197.5 298.6L213.8 341.5L170.9 356.7L154.2 321.3Z" fill="#FDA080"/>
<path d="M168.1 319.4C168.1 319.4 181.7 316.6 187.5 319.4C193.3 322.2 198.3 339.4 198.3 339.4L226.9 341.4L201 292.9L174.2 305.6L168.1 319.4Z" fill="#F4907C"/>
<path d="M177.6 158.6C155.6 168.2 145.7 193.9 155.3 215.8L228.8 383.2C238.4 405.2 264.1 415.1 286 405.5L500 311.5V17L177.6 158.6Z" fill="#D4D2D1"/>
<path opacity="0.4" d="M480.307 294.228C482.153 286.378 477.286 278.518 469.436 276.673C461.586 274.827 453.727 279.694 451.881 287.544C450.035 295.393 454.902 303.253 462.752 305.099C470.602 306.944 478.462 302.077 480.307 294.228Z" fill="#808080"/>
<path opacity="0.4" d="M422.67 101.691C424.515 93.8418 419.648 85.9821 411.798 84.1364C403.949 82.2907 396.089 87.1579 394.243 95.0076C392.398 102.857 397.265 110.717 405.114 112.563C412.964 114.408 420.824 109.541 422.67 101.691Z" fill="#808080"/>
<path opacity="0.4" d="M215.275 211.491C217.134 203.645 212.282 195.777 204.436 193.918C196.59 192.059 188.723 196.911 186.863 204.757C185.004 212.603 189.857 220.47 197.702 222.33C205.548 224.189 213.416 219.336 215.275 211.491Z" fill="#808080"/>
<g opacity="0.4">
<path opacity="0.4" d="M301.9 301.1L288 315.3L229.5 366.1L220.4 364L228.9 383.3C229.7 385.1 230.6 386.8 231.6 388.4C238.5 386.5 247.2 383.8 250.9 380.8C257.6 375.5 288.3 332.4 288.3 332.4C288.3 332.4 297.4 326.8 298.6 323.7C299.8 320.7 302.1 307.3 303 305.1C303.9 303 301.9 301.1 301.9 301.1Z" fill="#808080"/>
<path opacity="0.4" d="M248.9 293.3C252 293 254.4 288.6 254.4 288.6L259.3 286.4L259.9 281.5L251.8 278.1L206.1 265L177.7 258.8L176.3 263.6L184.6 282.5L232.3 291.9C232.2 291.9 245.8 293.6 248.9 293.3Z" fill="#808080"/>
</g>
<path opacity="0.4" d="M389.3 257.3L392.5 286.9L409.3 314.1L435 340.2L328.8 386.6L322.5 335.4L316.4 308.1L299.5 279.2L387.7 240.8C387.7 240.8 388.3 241.8 388.4 242.7C388.5 243.6 389.3 257.3 389.3 257.3Z" fill="#808080"/>
<path d="M388 259L312.5 291.6C311 292.3 310.3 294 310.9 295.5L332.4 345.3C333.1 346.8 334.8 347.5 336.3 346.9L411.8 314.3C413.3 313.6 414 311.9 413.4 310.4L392 260.6C391.3 259.1 389.6 258.4 388 259Z" fill="#E5E5E5"/>
<path d="M381.1 264.5L321.3 290.3C320.1 290.8 319.5 292.3 320 293.5L332.9 323.4C333.4 324.6 334.9 325.2 336.1 324.7L395.9 298.9C397.1 298.4 397.7 296.9 397.2 295.7L384.3 265.8C383.8 264.5 382.3 264 381.1 264.5Z" fill="#666666"/>
<path d="M372.1 312L362 316.4C360.7 317 360.1 318.4 360.7 319.7L364.3 328.1C364.9 329.4 366.3 330 367.6 329.4L377.7 325C379 324.4 379.6 323 379 321.7L375.4 313.3C374.9 312 373.4 311.4 372.1 312Z" fill="#CBCBCB"/>
<path d="M385.3 240.5L343.1 258.7L300.9 276.9C299.5 277.5 299.1 279.3 300.2 280.4L310.5 291.3C311 291.8 311.7 291.9 312.3 291.7L350.3 275.3L388.3 258.9C388.9 258.6 389.3 258 389.3 257.3L388.4 242.3C388.3 240.8 386.7 239.8 385.3 240.5Z" fill="white"/>
<path d="M389.3 257.3L388.4 242.4C387.8 241.9 386.9 241.7 386 242.1L343.8 260.3L301.6 278.5C300.7 278.9 300.2 279.7 300.2 280.5L310.4 291.4C310.9 291.9 311.6 292 312.2 291.8L350.2 275.4L388.2 259C389 258.6 389.3 258 389.3 257.3Z" fill="#808080"/>
<path d="M385.6 258.2L385.3 245.9C384.8 245.5 384 245.4 383.2 245.7L344.8 262.3L306.3 279C305.5 279.3 305 280 305 280.7L313.7 289.3C314.1 289.7 314.7 289.8 315.3 289.5L350 274.5L384.7 259.5C385.2 259.3 385.6 258.8 385.6 258.2Z" fill="#A5B4C2"/>
<path d="M348.2 348.3L344.8 331.9C344.8 331.9 348 321.5 347.8 319.5C347.6 317.5 344 305 344 305C344 305 341.6 304.7 341.1 306C340.6 307.3 341.1 313.4 341.1 313.4C341.1 313.4 339.3 311.5 338.8 310.3C338.4 309.4 337.6 300.9 337.2 296.8C337.1 295.6 336.1 294.6 334.8 294.6C333.6 294.6 332.6 295.5 332.4 296.7L331.8 301.5L327.7 302.3L325.8 306.7L321.5 315.8L324.2 326.1L330.2 334.1L331.5 348.3H348.2V348.3Z" fill="#EAC9B8"/>
<path d="M405.7 323.7L394.4 311.3C394.4 311.3 384.1 307.8 382.6 306.4C381.1 305 373.1 294.9 373.1 294.9C373.1 294.9 374.3 292.8 375.6 293.2C376.9 293.6 381.6 297.5 381.6 297.5C381.6 297.5 381.1 294.9 380.5 293.9C380 293.1 373.6 287.4 370.5 284.7C369.6 283.9 369.4 282.5 370.1 281.5C370.8 280.5 372.1 280.2 373.2 280.8L377.5 283.1L380.5 280.3L385.2 281.4L395.1 283.3L401.9 291.5L404.8 301L415.5 310.3L405.7 323.7Z" fill="#EAC9B8"/>
<path d="M283.876 259.668L214.45 284.395L232.165 334.132L301.59 309.406L283.876 259.668Z" fill="white"/>
<path d="M282.206 260.338L214.476 284.461L230.882 330.525L298.612 306.402L282.206 260.338Z" fill="#C4CCD7"/>
<path d="M280.176 255.988L210.75 280.714L228.465 330.452L297.89 305.726L280.176 255.988Z" fill="white"/>
<path d="M223.1 265L231.8 268.7C231.8 268.7 241.7 266.6 245 267.9C248.3 269.2 258.1 275.4 259.1 276.1C260.1 276.8 261.7 280.3 261.7 281C261.7 281.7 259.6 284.9 257.3 285.1C255 285.3 244.6 285.6 244.6 285.6C244.6 285.6 247.3 287.9 247.7 288.5C248.1 289.1 248.2 290.9 247.9 291.2C247.5 291.5 239.5 288.1 237.2 287.3C234.9 286.6 231.4 283.5 230.8 282.9C230.2 282.3 228.1 279.9 228.1 279.9L218.5 276L223.1 265Z" fill="#FAD1B1"/>
<path d="M277.9 335.4L283.9 328.2C283.9 328.2 293.7 325.5 296 322.9C298.3 320.3 297.6 316.1 298.2 315C298.8 313.9 297.9 306.6 298.4 306C300.2 304.1 302.7 302.2 304.2 300.6C306.8 297.7 304.9 296.4 303.6 296.9C301.5 297.8 287.5 307.3 287.5 307.3C287.5 307.3 288.8 304 288.9 303.3C289 302.5 288.3 300.9 287.8 300.8C287.3 300.7 281.8 307.4 280 309.1C278.3 310.8 276.6 315.1 276.3 315.9C276 316.7 275.2 319.8 275.2 319.8L268.5 327.6L277.9 335.4Z" fill="#FAD1B1"/>
<path d="M329 157.3L274 175.6C270.7 176.7 268.9 180.2 270 183.5L281 216.5C282.1 219.8 285.6 221.6 288.9 220.5L343.9 202.2C347.2 201.1 349 197.6 347.9 194.3L336.9 161.3C335.8 158 332.2 156.2 329 157.3Z" fill="#647889"/>
<path d="M344.4 203.7L289.4 222C285.3 223.4 280.8 221.1 279.5 217L268.5 184C267.1 179.9 269.4 175.4 273.5 174.1L328.5 155.8C332.6 154.4 337.1 156.7 338.4 160.8L349.4 193.8C350.7 197.9 348.5 202.3 344.4 203.7ZM276.9 176.3C274.5 177.1 273.1 179.8 273.9 182.2L284.9 215.2C285.7 217.6 288.4 219 290.8 218.2L343.3 200.7C345.7 199.9 347.1 197.2 346.3 194.8L335.3 161.8C334.5 159.4 331.8 158 329.4 158.8L276.9 176.3Z" fill="#F8FBFC"/>
<path d="M278.9 198.9C279.2 199.9 278.7 201 277.7 201.4C276.7 201.7 275.6 201.2 275.2 200.2C274.9 199.2 275.4 198.1 276.4 197.7C277.5 197.3 278.6 197.9 278.9 198.9Z" fill="#D4D2D1"/>
<path opacity="0.4" d="M228.4 136.3L280.2 210.8L303.6 204.9L297 189.3L283.5 185.5L267.6 156.9L349.1 127.2L350.3 114.3L339.6 87.5L228.4 136.3Z" fill="#808080"/>
<path d="M300.7 196.6L290 191.7C289.5 191.5 288.8 191.6 288.5 192.1L288.4 192.2C287.9 192.9 288.2 193.8 288.9 194.1L299.8 198.9C300.4 199.2 301.1 198.9 301.4 198.3C301.7 197.7 301.4 196.9 300.7 196.6Z" fill="#FDF5EA"/>
<path d="M277.6 127.2C277.6 127.2 274.4 128.5 271.5 128.9C268.5 129.3 264.8 127.6 262.3 128C259.8 128.4 253.5 132.8 253.5 132.8L251.1 138.6L249.6 148.2L260.4 152.6C260.4 152.6 263.2 153.8 267.7 151.4C272.2 149 280.3 142 280.3 142L285.7 139.2L277.6 127.2Z" fill="#EAC9B8"/>
<path d="M285.1 181.5L292.4 184.1C292.4 184.1 296.2 188.2 297 189.3C297.7 190.4 297 193.8 297 193.8C297 193.8 299.6 196.4 299.4 198.8C299.3 201.2 295.4 204.5 290.6 204.6C285.8 204.7 280.7 205.3 279.5 204.6C278.4 203.9 273 193 273 193L265.3 182.4L280.2 175.2L285.1 181.5Z" fill="#EAC9B8"/>
<path d="M129.9 333.9C129.9 333.9 127.5 308.8 133.2 301C138.9 293.2 169.7 239 172.3 236.9C174.9 234.7 229.5 264.8 229.5 264.8C229.5 264.8 223.4 279.2 222.7 279.4C222.1 279.7 181.6 265 181.6 265L174.5 287.6L185 283.6L194.4 305C194.4 305 183.3 312 164.3 321.3C145.4 330.6 129.9 333.9 129.9 333.9Z" fill="#80C1D8"/>
<path d="M150.9 374.9C150.6 375.5 178.1 395.7 188.6 392.1C199.2 388.5 240.4 378.2 246 374.3C251.6 370.3 282.5 333.6 282.5 333.6L272.7 321.7L240.1 351.2L217.6 358.2L207 334C207.1 333.9 161.5 347.7 150.9 374.9Z" fill="#80C1D8"/>
<path d="M326.8 343L351.1 339.8L360.3 373L422.4 345.7L400.8 324.4L415.6 306.4L463.4 345.6C463.4 345.6 477.4 386.9 477 391.5C476.6 396.1 460.1 430.8 434.9 442.5C409.8 454.2 375.7 439.1 371.2 438C366.7 436.9 339.8 402.8 339.3 401.7C338.8 400.5 326.8 343 326.8 343Z" fill="#F39475"/>
<path d="M351.8 111.1C348.7 94.6001 347.3 57.7001 344.2 52.4001C340.2 45.5001 330.9 35.9001 316.2 30.2001C316.2 30.2001 253.4 24.8001 239 33.6001C224.6 42.5001 219.4 120.2 219.4 123.8C219.4 127.3 267.8 188.9 267.8 188.9L283.1 176.9L252.1 125.9L321 95.6001L322.2 104.2L274.1 126.4L283.6 143.5L345.2 122.2C349.9 120.6 352.7 115.9 351.8 111.1Z" fill="#E74A5F"/>
<path d="M275.1 183.1L269.3 184.4L219.8 124.9L267.8 188.9L275.1 183.1Z" fill="#C9364F"/>
<path d="M351.8 114.3C351.7 114.5 348.8 118.5 344.3 120.2C339.8 121.9 286.5 138.2 286.5 138.2L280.2 137.4L283.6 143.5L345.2 122.2C348.9 121 351.3 117.8 351.8 114.3Z" fill="#C9364F"/>
<path d="M252.1 125.9L262 52.9002C262 52.9002 290.4 50.0002 298.3 52.9002C306.2 55.8002 318.1 61.1002 318.1 61.1002L321 95.6002L252.1 125.9Z" fill="#C9364F"/>
<path d="M243.6 38.8999C243.6 38.8999 258.6 57.2999 258.9 75.3999C259.2 93.4999 265.1 85.8999 265.1 85.8999L262 52.8999C261.9 52.8999 254.2 42.2999 243.6 38.8999Z" fill="#C9364F"/>
<path d="M318.7 68.8C318.7 68.8 315.4 49.4 324.8 40C324.8 40 312.9 45.2 309.3 58.8C305.8 72.4 318.7 68.8 318.7 68.8Z" fill="#C9364F"/>
<path d="M305.5 55.1C306 54.9 305.1 68.3 305.1 68.3L300.7 75.1C300.7 75.1 290.5 82.4 288.6 83.3C286.7 84.2 275.5 84.4 275.5 84.4C275.5 84.4 272.2 86 270.6 85.3C269 84.6 267.4 79 267.4 79C267.4 79 261.2 75.7 261.4 62.9C261.6 50.1 277.9 44.5 277.9 44.5L305.5 55.1Z" fill="#EAC9B8"/>
<path d="M265.7 31.3002C265.7 31.3002 261.9 29.7002 259.7 32.6002C257.5 35.5002 261.2 40.9002 261.2 40.9002L265.7 31.3002Z" fill="#EAC9B8"/>
<path d="M316.2 55.7002C316.2 55.7002 319 56.5002 319 58.9002C319 61.3002 313.6 67.1002 309.8 66.6002C306 66.1002 316.2 55.7002 316.2 55.7002Z" fill="#EAC9B8"/>
<path d="M259.6 58.8001C259.6 58.8001 257.5 35.6001 265 24.6001C272.6 13.6001 280.8 11.7001 280.8 11.7001C280.8 11.7001 288.6 6.60007 298.5 10.1001C308.4 13.6001 317 22.8001 320.2 32.4001C323.4 42.0001 318.8 56.1001 313.4 62.9001C308.1 69.7001 300.7 75.1001 300.7 75.1001C300.7 75.1001 303.8 66.1001 300.2 65.6001C300.2 65.6001 285.9 76.5001 276.3 75.9001C266.7 75.3001 264.9 73.4001 264.9 73.4001C264.9 73.4001 276.6 70.6001 281.5 66.6001C281.5 66.6001 267.8 70.7001 261.6 70.5001L266.2 64.7001L263 66.2001C263 66.2001 259.8 63.3001 259.6 58.8001Z" fill="#393F4B"/>
<path d="M183.3 350.3C183.3 350.3 184.6 355.5 182.3 359.1C180 362.7 175.6 363.5 172.7 367.5C169.8 371.6 164.1 379.6 156 379.8C147.9 380 141.9 371.5 137.2 369.7C132.5 367.9 120.5 371.3 116.7 363.7C112.9 356.2 121.8 343.5 116 337.1C110.2 330.6 111 322.9 114.3 319.1C119.7 313.1 126.8 312.5 135.1 317.2C143.4 321.9 148.1 318.4 151.8 317.1C155.6 315.8 161.9 315.4 164.3 316.4C166.7 317.5 168.3 321.7 168.3 321.7L183.3 350.3Z" fill="#11114E"/>
<path d="M185 283.6L174.5 287.6L168.1 303.9C168.1 303.9 178.3 302.5 180.6 303.9C181.7 304.6 183.7 307.3 185.5 310.1C191.2 306.9 194.3 304.9 194.3 304.9L185 283.6Z" fill="#63ADC1"/>
<path d="M207.1 333.9C207.1 333.9 204.3 334.7 199.9 336.4C201.8 340.8 204.6 348.2 204 352.6C203.1 359.2 194.4 364.2 194.4 364.2L217.7 358.1L207.1 333.9Z" fill="#63ADC1"/>
<path d="M390 400.9C390 400.9 385.8 389.6 390.1 383C395 375.3 408.6 370.2 417.2 373.5C429.8 378.3 428.9 382.4 428.9 382.4L390 400.9Z" fill="#FAD1B1"/>
<path d="M434.9 383.4C434.9 383.4 425.8 373.6 412.3 375.8C398.8 378 395.8 380.8 395.8 380.8L399.3 380.7L393 385.5C393 385.5 385.6 397.7 385.8 406.3C386 414.9 390.1 420.5 390.1 420.5C390.1 420.5 391.7 429 395.7 432.6C399.7 436.2 409.3 440.1 416.6 439.3C423.9 438.6 430.2 434.7 430.2 434.7C430.2 434.7 436.4 434.3 441 428.8C445.6 423.3 445.3 417.4 445.3 417.4C445.3 417.4 449.7 412 449.9 408.8C450.1 405.6 447.7 397.5 447.7 397.5C447.7 397.5 444.5 383.9 434.9 383.4Z" fill="#6F251E"/>
<path d="M360.3 373L364.1 388.5L374.4 400.8C374.4 400.8 377.2 383.5 390.7 372.3C404.2 361.1 427.7 364 431.1 364.1C434.5 364.3 447.7 379.6 447.7 379.6L440.5 360.4L422.4 345.5L360.3 373Z" fill="#E28166"/>
<path d="M472.9 401.6C472.9 401.6 447.5 434.3 424 440.8C403.4 446.5 378.4 440 372.6 438.3C380.3 440.9 411.6 453.4 435.1 442.4C452.9 434.1 466.4 414.1 472.9 401.6Z" fill="#E28166"/>
<path d="M294.9 193.8L282.9 188.3C282.3 188 281.6 188.2 281.2 188.7L281.1 188.9C280.6 189.6 280.8 190.7 281.7 191L293.8 196.3C294.5 196.6 295.3 196.3 295.6 195.7C295.9 195.1 295.6 194.2 294.9 193.8Z" fill="#FDF5EA"/>
<path d="M451.4 178.7H377.7V231.5H451.4V178.7Z" fill="white"/>
<path d="M449.6 178.7H377.7V227.6H449.6V178.7Z" fill="#C4CCD7"/>
<path d="M449.2 174H375.5V226.8H449.2V174Z" fill="white"/>
<path d="M456.341 119.565L383.503 130.805L391.555 182.987L464.393 171.748L456.341 119.565Z" fill="white"/>
<path d="M454.555 119.876L383.496 130.841L390.953 179.169L462.012 168.204L454.555 119.876Z" fill="#C4CCD7"/>
<path d="M453.443 115.269L380.605 126.508L388.657 178.691L461.495 167.451L453.443 115.269Z" fill="white"/>
<path d="M184.2 214.3C184.8 215.3 186.2 215.7 187.2 215L194.8 210.3L192.5 206.5L184.9 211.2C183.9 211.9 183.5 213.2 184.2 214.3Z" fill="#F16A44"/>
<path d="M211.551 212.927C216.862 207.616 216.862 199.005 211.551 193.694C206.24 188.383 197.629 188.383 192.318 193.694C187.007 199.005 187.007 207.616 192.318 212.927C197.629 218.238 206.24 218.238 211.551 212.927Z" fill="#F16A44"/>
<path d="M189.4 201C189.6 199.7 189.9 198.5 190.5 197.3C191.1 196.1 191.8 195 192.7 194.1C194.5 192.2 196.9 190.9 199.5 190.4C199.8 190.3 200.2 190.3 200.5 190.3C200.8 190.2 201.2 190.3 201.5 190.2C201.7 190.2 201.8 190.2 202 190.2H202.5C202.8 190.2 203.2 190.2 203.5 190.3C204.8 190.5 206.1 190.8 207.3 191.4C208.5 192 209.6 192.7 210.5 193.6C211.4 194.5 212.2 195.5 212.9 196.7C211.4 194.6 209.4 192.9 207.1 191.9C204.8 190.9 202.2 190.7 199.8 191.1C197.3 191.6 195 192.8 193.2 194.5C191.3 196.2 190 198.5 189.4 201Z" fill="#F8FBFC"/>
<path d="M201.9 214.3C207.975 214.3 212.9 209.375 212.9 203.3C212.9 197.225 207.975 192.3 201.9 192.3C195.825 192.3 190.9 197.225 190.9 203.3C190.9 209.375 195.825 214.3 201.9 214.3Z" fill="#93603D"/>
<path d="M191.4 206.4C192.7 210.9 196.9 214.3 201.9 214.3C207.5 214.3 212.1 210.2 212.8 204.8C211.5 200.3 207.3 196.9 202.3 196.9C196.7 196.9 192.1 201 191.4 206.4Z" fill="#A4704C"/>
<g opacity="0.5">
<path opacity="0.5" d="M209.6 198.4C209.5 198.3 209.4 198.3 209.4 198.3C209.3 198.4 209.3 198.5 209.3 198.5C210.2 199.9 210.7 201.5 210.7 203.2C210.7 208 206.8 211.9 202 211.9C201.5 211.9 201.1 211.9 200.6 211.8C200.5 211.8 200.4 211.8 200.4 211.9C200.4 212 200.4 212.1 200.5 212.1C201 212.2 201.5 212.2 201.9 212.2C206.9 212.2 211 208.1 211 203.1C211 201.5 210.5 199.9 209.6 198.4Z" fill="#F8FBFC"/>
<path opacity="0.5" d="M196.8 196.2C196.9 196.1 196.9 196 196.8 196C196.7 195.9 196.6 195.9 196.6 196C194.2 197.7 192.8 200.4 192.8 203.3C192.8 205.5 193.6 207.7 195.1 209.4L195.2 209.5H195.3C195.4 209.4 195.4 209.3 195.3 209.3C193.9 207.7 193.1 205.6 193.1 203.5C193.2 200.5 194.6 197.8 196.8 196.2Z" fill="#F8FBFC"/>
<path opacity="0.5" d="M201.9 197.6C202.2 197.6 202.5 197.6 202.7 197.7C202.8 197.7 202.9 197.6 202.9 197.6C202.9 197.5 202.8 197.4 202.8 197.4C202.5 197.4 202.2 197.3 201.9 197.3C198.6 197.3 195.9 200 195.9 203.3C195.9 203.6 195.9 203.9 196 204.2C196 204.3 196.1 204.3 196.2 204.3C196.3 204.3 196.4 204.2 196.3 204.1C196.3 203.8 196.2 203.6 196.2 203.3C196.3 200.2 198.8 197.6 201.9 197.6Z" fill="#F8FBFC"/>
<path opacity="0.5" d="M206.3 207.3C206.4 207.2 206.4 207.1 206.3 207.1C206.2 207 206.1 207 206.1 207.1C205 208.2 203.5 208.9 202 208.9C200.4 208.9 198.9 208.2 197.9 207.1C197.8 207 197.7 207 197.7 207.1C197.6 207.2 197.6 207.3 197.7 207.3C198.8 208.5 200.4 209.2 202.1 209.2C203.6 209.2 205.2 208.5 206.3 207.3Z" fill="#F8FBFC"/>
<path opacity="0.5" d="M204.5 198.2C206.4 199.2 207.6 201.1 207.6 203.2C207.6 203.3 207.6 203.5 207.6 203.6C207.6 203.7 207.7 203.8 207.8 203.8C207.9 203.8 208 203.7 208 203.6C208 203.4 208 203.3 208 203.1C208 200.8 206.7 198.8 204.7 197.8C204.6 197.8 204.5 197.8 204.5 197.9C204.4 198.1 204.4 198.2 204.5 198.2Z" fill="#F8FBFC"/>
<path opacity="0.5" d="M201.9 207.9C203.5 207.9 205 207.1 205.9 205.7C205.9 205.6 205.9 205.5 205.8 205.5C205.7 205.4 205.6 205.5 205.6 205.6C204.8 206.9 203.4 207.7 201.9 207.7C201.8 207.7 201.7 207.8 201.7 207.9C201.7 208 201.8 207.9 201.9 207.9Z" fill="#F8FBFC"/>
<path opacity="0.5" d="M205 200.2C205.1 200.3 205.2 200.3 205.2 200.2C205.3 200.1 205.3 200 205.2 200C204.3 199.1 203.2 198.6 201.9 198.6C200.3 198.6 198.7 199.5 197.9 200.9C197.9 201 197.9 201.1 198 201.1H198.1C198.2 201.1 198.2 201.1 198.3 201C199.1 199.7 200.5 198.9 202 198.9C203.1 199 204.2 199.4 205 200.2Z" fill="#F8FBFC"/>
</g>
<path d="M422.5 79.4001C421.6 78.5001 420.2 78.5001 419.4 79.4001L413 85.8001L416.1 88.9001L422.5 82.5001C423.4 81.6001 423.4 80.2001 422.5 79.4001Z" fill="#F16A44"/>
<path d="M420.615 97.6925C422.347 90.3834 417.826 83.0542 410.517 81.3221C403.208 79.5901 395.879 84.1111 394.147 91.4201C392.415 98.7292 396.936 106.058 404.245 107.79C411.554 109.523 418.883 105.001 420.615 97.6925Z" fill="#F16A44"/>
<path d="M394.8 92.4001C395 91.1001 395.3 89.9001 395.9 88.7001C396.5 87.5001 397.2 86.4001 398.1 85.5001C399.9 83.6001 402.3 82.3001 404.9 81.8001C405.2 81.7001 405.6 81.7001 405.9 81.7001C406.2 81.6001 406.6 81.7001 406.9 81.6001C407.1 81.6001 407.2 81.6001 407.4 81.6001H407.9C408.2 81.6001 408.6 81.6001 408.9 81.7001C410.2 81.9001 411.5 82.2001 412.7 82.8001C413.9 83.4001 415 84.1001 415.9 85.0001C416.8 85.9001 417.6 86.9001 418.3 88.1001C416.8 86.0001 414.8 84.3001 412.5 83.3001C410.2 82.3001 407.6 82.1001 405.2 82.5001C402.7 83.0001 400.4 84.2001 398.6 85.9001C396.7 87.6001 395.4 89.9001 394.8 92.4001Z" fill="#F8FBFC"/>
<path d="M407.4 105.6C413.476 105.6 418.4 100.675 418.4 94.6001C418.4 88.525 413.476 83.6001 407.4 83.6001C401.325 83.6001 396.4 88.525 396.4 94.6001C396.4 100.675 401.325 105.6 407.4 105.6Z" fill="#93603D"/>
<path d="M396.8 97.6997C398.1 102.2 402.3 105.6 407.3 105.6C412.9 105.6 417.5 101.5 418.2 96.0997C416.9 91.5997 412.7 88.1997 407.7 88.1997C402.2 88.1997 397.6 92.3997 396.8 97.6997Z" fill="#A4704C"/>
<g opacity="0.5">
<path opacity="0.5" d="M415 89.8002C414.9 89.7002 414.8 89.7002 414.8 89.7002C414.7 89.8002 414.7 89.9002 414.7 89.9002C415.6 91.3002 416.1 92.9002 416.1 94.6002C416.1 99.4002 412.2 103.3 407.4 103.3C406.9 103.3 406.5 103.3 406 103.2C405.9 103.2 405.8 103.2 405.8 103.3C405.8 103.4 405.8 103.5 405.9 103.5C406.4 103.6 406.9 103.6 407.3 103.6C412.3 103.6 416.4 99.5002 416.4 94.5002C416.4 92.9002 415.9 91.2002 415 89.8002Z" fill="#F8FBFC"/>
<path opacity="0.5" d="M402.3 87.5001C402.4 87.4001 402.4 87.3001 402.3 87.3001C402.2 87.2001 402.1 87.2001 402.1 87.3001C399.7 89.0001 398.3 91.7001 398.3 94.6001C398.3 96.8001 399.1 99.0001 400.6 100.7L400.7 100.8H400.8C400.9 100.7 400.9 100.6 400.8 100.6C399.4 99.0001 398.6 96.9001 398.6 94.8001C398.7 91.8001 400 89.2001 402.3 87.5001Z" fill="#F8FBFC"/>
<path opacity="0.5" d="M407.4 89.0002C407.7 89.0002 408 89.0002 408.2 89.1002C408.3 89.1002 408.4 89.0002 408.4 89.0002C408.4 88.9002 408.3 88.8002 408.3 88.8002C408 88.8002 407.7 88.7002 407.4 88.7002C404.1 88.7002 401.4 91.4002 401.4 94.7002C401.4 95.0002 401.4 95.3002 401.5 95.6002C401.5 95.7002 401.6 95.7002 401.7 95.7002C401.8 95.7002 401.9 95.6002 401.8 95.5002C401.8 95.2002 401.7 95.0002 401.7 94.7002C401.7 91.5002 404.3 89.0002 407.4 89.0002Z" fill="#F8FBFC"/>
<path opacity="0.5" d="M411.7 98.7003C411.8 98.6003 411.8 98.5003 411.7 98.5003C411.6 98.4003 411.5 98.4003 411.5 98.5003C410.4 99.6003 408.9 100.3 407.4 100.3C405.8 100.3 404.3 99.6003 403.3 98.5003C403.2 98.4003 403.1 98.4003 403.1 98.5003C403 98.6003 403 98.7003 403.1 98.7003C404.2 99.9003 405.8 100.6 407.5 100.6C409 100.6 410.6 99.9003 411.7 98.7003Z" fill="#F8FBFC"/>
<path opacity="0.5" d="M409.9 89.6002C411.8 90.6002 413 92.5002 413 94.6002C413 94.7002 413 94.9002 413 95.0002C413 95.1002 413.1 95.2002 413.2 95.2002C413.3 95.2002 413.4 95.1002 413.4 95.0002C413.4 94.8002 413.4 94.7002 413.4 94.5002C413.4 92.2002 412.1 90.2002 410.1 89.2002C410 89.2002 409.9 89.2002 409.9 89.3002C409.8 89.4002 409.8 89.5002 409.9 89.6002Z" fill="#F8FBFC"/>
<path opacity="0.5" d="M407.4 99.2003C409 99.2003 410.5 98.4003 411.4 97.0003C411.4 96.9003 411.4 96.8003 411.3 96.8003C411.2 96.8003 411.1 96.8003 411.1 96.9003C410.3 98.2003 408.9 99.0003 407.4 99.0003C407.3 99.0003 407.2 99.1003 407.2 99.2003C407.2 99.2003 407.3 99.2003 407.4 99.2003Z" fill="#F8FBFC"/>
<path opacity="0.5" d="M410.4 91.6C410.5 91.7 410.6 91.7 410.6 91.6C410.7 91.5 410.7 91.4 410.6 91.4C409.7 90.5 408.6 90 407.3 90C405.7 90 404.1 90.9 403.3 92.3C403.3 92.4 403.3 92.5 403.4 92.5H403.5C403.6 92.5 403.6 92.5 403.7 92.4C404.5 91.1 405.9 90.3 407.4 90.3C408.5 90.3 409.6 90.8 410.4 91.6Z" fill="#F8FBFC"/>
</g>
<path d="M476.2 303.5C477.2 302.8 477.5 301.5 476.9 300.5L472.1 292.9L468.4 295.3L473.2 302.9C473.8 303.8 475.2 304.1 476.2 303.5Z" fill="#F16A44"/>
<path d="M478.229 287.85C479.961 280.541 475.44 273.211 468.131 271.479C460.822 269.747 453.493 274.268 451.761 281.577C450.029 288.886 454.55 296.216 461.859 297.948C469.168 299.68 476.497 295.159 478.229 287.85Z" fill="#F16A44"/>
<path d="M452.5 282.5C452.7 281.2 453 280 453.6 278.8C454.2 277.6 454.9 276.5 455.8 275.6C457.6 273.7 460 272.4 462.6 271.9C462.9 271.8 463.3 271.8 463.6 271.8C463.9 271.7 464.3 271.8 464.6 271.7C464.8 271.7 464.9 271.7 465.1 271.7H465.6C465.9 271.7 466.3 271.7 466.6 271.8C467.9 272 469.2 272.3 470.4 272.9C471.6 273.5 472.7 274.2 473.6 275.1C474.5 276 475.3 277 476 278.2C474.5 276.1 472.5 274.4 470.2 273.4C467.9 272.4 465.3 272.2 462.9 272.6C460.4 273.1 458.1 274.3 456.3 276C454.4 277.7 453.1 280 452.5 282.5Z" fill="#F8FBFC"/>
<path d="M465 295.7C471.075 295.7 476 290.775 476 284.7C476 278.625 471.075 273.7 465 273.7C458.925 273.7 454 278.625 454 284.7C454 290.775 458.925 295.7 465 295.7Z" fill="#93603D"/>
<path d="M454.5 287.9C455.8 292.4 460 295.8 465 295.8C470.6 295.8 475.2 291.7 475.9 286.3C474.6 281.8 470.4 278.4 465.4 278.4C459.8 278.4 455.2 282.5 454.5 287.9Z" fill="#A4704C"/>
<g opacity="0.5">
<path opacity="0.5" d="M472.701 279.9C472.601 279.8 472.5 279.8 472.5 279.8C472.4 279.9 472.4 280 472.4 280C473.3 281.4 473.8 283 473.8 284.7C473.8 289.5 469.9 293.4 465.1 293.4C464.6 293.4 464.201 293.4 463.701 293.3C463.601 293.3 463.5 293.3 463.5 293.4C463.5 293.5 463.5 293.6 463.6 293.6C464.1 293.7 464.6 293.7 465 293.7C470 293.7 474.1 289.6 474.1 284.6C474.1 283 473.601 281.3 472.701 279.9Z" fill="#F8FBFC"/>
<path opacity="0.5" d="M459.9 277.7C460 277.6 460 277.5 459.9 277.5C459.8 277.4 459.7 277.4 459.7 277.5C457.3 279.2 455.9 281.9 455.9 284.8C455.9 287 456.7 289.2 458.2 290.9L458.3 291H458.4C458.5 290.9 458.5 290.8 458.4 290.8C457 289.2 456.2 287.1 456.2 285C456.3 281.9 457.6 279.3 459.9 277.7Z" fill="#F8FBFC"/>
<path opacity="0.5" d="M465 279.1C465.3 279.1 465.6 279.1 465.8 279.2C465.9 279.2 466 279.1 466 279.1C466 279 465.9 278.9 465.9 278.9C465.6 278.9 465.3 278.8 465 278.8C461.7 278.8 459 281.5 459 284.8C459 285.1 459 285.4 459.1 285.7C459.1 285.8 459.2 285.8 459.3 285.8C459.4 285.8 459.5 285.7 459.4 285.6C459.4 285.3 459.3 285.1 459.3 284.8C459.4 281.6 461.9 279.1 465 279.1Z" fill="#F8FBFC"/>
<path opacity="0.5" d="M469.401 288.8C469.501 288.7 469.501 288.6 469.401 288.6C469.301 288.5 469.201 288.5 469.201 288.6C468.101 289.7 466.601 290.4 465.101 290.4C463.501 290.4 462.001 289.7 461.001 288.6C460.901 288.5 460.801 288.5 460.801 288.6C460.701 288.7 460.701 288.8 460.801 288.8C461.901 290 463.501 290.7 465.201 290.7C466.701 290.7 468.201 290 469.401 288.8Z" fill="#F8FBFC"/>
<path opacity="0.5" d="M467.5 279.7C469.4 280.7 470.601 282.6 470.601 284.7C470.601 284.8 470.601 285 470.601 285.1C470.601 285.2 470.7 285.3 470.8 285.3C470.9 285.3 471 285.2 471 285.1C471 284.9 471 284.8 471 284.6C471 282.3 469.701 280.3 467.701 279.3C467.601 279.3 467.5 279.3 467.5 279.4C467.4 279.6 467.5 279.7 467.5 279.7Z" fill="#F8FBFC"/>
<path opacity="0.5" d="M465 289.4C466.6 289.4 468.1 288.601 469 287.201C469 287.101 469 287 468.9 287C468.8 287 468.7 287 468.7 287.1C467.9 288.4 466.5 289.201 465 289.201C464.9 289.201 464.8 289.3 464.8 289.4C464.8 289.3 464.9 289.4 465 289.4Z" fill="#F8FBFC"/>
<path opacity="0.5" d="M468 281.7C468.1 281.8 468.2 281.8 468.2 281.7C468.3 281.6 468.3 281.5 468.2 281.5C467.3 280.6 466.2 280.1 464.9 280.1C463.3 280.1 461.7 281 460.9 282.4C460.9 282.5 460.9 282.6 461 282.6H461.1C461.2 282.6 461.2 282.6 461.3 282.5C462.1 281.2 463.5 280.4 465 280.4C466.1 280.4 467.2 280.9 468 281.7Z" fill="#F8FBFC"/>
</g>
<path d="M190.2 333.9C189.9 333.2 188.1 332.9 186.3 332.8C179.5 320.3 162.4 319.8 162.4 319.8C162.4 319.8 161 325.2 168.3 334.1C175.6 343 175.5 360.6 175.5 360.6C175.5 360.6 179.3 358.5 183.2 354.3C186.4 350.7 189.6 345.5 188.3 338.6C189.5 336.8 190.5 334.7 190.2 333.9Z" fill="#FAD1B1"/>
<path d="M355 345.5L353.3 339.3C352.9 337.7 351.4 336.7 349.8 336.9L328.5 339.6C326.6 339.8 325.3 341.7 325.7 343.6L327.3 350.2C327.7 351.8 329.3 352.9 330.9 352.7L352.4 349.5C354.2 349.3 355.5 347.4 355 345.5Z" fill="#F9E1DF"/>
<path d="M393.7 321L398.7 325C400 326 401.8 325.9 403 324.8L418.7 310.1C420.1 308.8 420.1 306.5 418.6 305.3L413.4 300.8C412.1 299.7 410.2 299.8 409 300.9L393.5 316.1C392.1 317.5 392.2 319.8 393.7 321Z" fill="#F9E1DF"/>
</g>
<defs>
<clipPath id="clip0_102_114">
<rect width="500" height="500" fill="white"/>
</clipPath>
</defs>
</svg>
