<svg width="70" height="65" viewBox="0 0 70 65" fill="none" xmlns="http://www.w3.org/2000/svg">
<path d="M0.755859 60.6462V64.6483H1.68463C1.63593 64.2272 1.63593 63.8018 1.68463 63.3807C1.77282 62.9104 2.78183 61.6954 2.75132 60.6528L0.755859 60.6462Z" fill="#EBEBEB"/>
<path d="M8.18555 60.6462V64.6483H9.11431C9.06561 64.2272 9.06561 63.8018 9.11431 63.3807C9.2025 62.9104 10.2115 61.6954 10.181 60.6528L8.18555 60.6462Z" fill="#E0E0E0"/>
<path d="M15.4583 60.6462V64.6483H14.5279C14.5757 64.2271 14.5757 63.802 14.5279 63.3807C14.4381 62.9104 13.4307 61.6954 13.4596 60.6528L15.4583 60.6462Z" fill="#EBEBEB"/>
<path d="M21.8869 60.6462V64.6483H20.9581C21.0059 64.2271 21.0059 63.802 20.9581 63.3807C20.8698 62.9104 19.8609 61.6954 19.8913 60.6528L21.8869 60.6462Z" fill="#E0E0E0"/>
<path d="M22.375 40.9126H0.123047V60.774H22.375V40.9126Z" fill="#F5F5F5"/>
<path d="M16.3809 40.9126L16.5461 60.774H22.3754V40.9126H16.3809Z" fill="#E0E0E0"/>
<path d="M15.411 42.3745H1.125V47.4287H15.411V42.3745Z" fill="#EBEBEB"/>
<path d="M15.411 48.4348H1.125V53.489H15.411V48.4348Z" fill="#EBEBEB"/>
<path d="M15.411 54.4968H1.125V59.551H15.411V54.4968Z" fill="#EBEBEB"/>
<path d="M6.60033 35.2061L5.98438 40.8901H13.8796L14.534 35.2061H6.60033Z" fill="#E0E0E0"/>
<path d="M6.92601 35.6143L6.32617 40.5872H13.4514L14.0273 35.6143H6.92601Z" fill="white"/>
<path d="M8.12486 36.4514L7.75586 39.7518H12.2521L12.4832 36.4514H8.12486Z" fill="#EBEBEB"/>
<path d="M14.2511 37.6536L15.8824 40.9125L13.8789 40.8902L14.2511 37.6536Z" fill="#EBEBEB"/>
<path d="M8.79 45.1647C8.79035 45.2675 8.75984 45.3682 8.70262 45.454C8.6454 45.5396 8.56389 45.6065 8.46833 45.6461C8.37277 45.6857 8.26754 45.6962 8.16599 45.6763C8.06445 45.6564 7.97119 45.6071 7.89785 45.5344C7.82451 45.4617 7.77454 45.3692 7.75428 45.2683C7.73402 45.1674 7.74426 45.0628 7.78375 44.9677C7.82324 44.8727 7.89037 44.7914 7.97637 44.7343C8.06237 44.677 8.16357 44.6465 8.26708 44.6465C8.40546 44.6465 8.53833 44.7011 8.6363 44.7982C8.73428 44.8954 8.78954 45.0271 8.79 45.1647Z" fill="#E0E0E0"/>
<path d="M8.79 51.2873C8.79 51.3901 8.75938 51.4906 8.70193 51.5761C8.64448 51.6616 8.56273 51.7282 8.46718 51.7675C8.37162 51.8069 8.2665 51.8172 8.16507 51.7972C8.06364 51.777 7.97038 51.7276 7.89727 51.6549C7.82417 51.5821 7.77431 51.4896 7.75417 51.3887C7.73402 51.2879 7.74438 51.1834 7.78398 51.0885C7.82359 50.9935 7.8906 50.9122 7.9766 50.8551C8.0626 50.798 8.16369 50.7676 8.26708 50.7676C8.33581 50.7674 8.40385 50.7806 8.46741 50.8067C8.53096 50.8327 8.58875 50.871 8.63734 50.9193C8.68593 50.9676 8.72438 51.0251 8.75063 51.0882C8.77688 51.1514 8.79023 51.219 8.79 51.2873Z" fill="#E0E0E0"/>
<path d="M8.79 57.4082C8.79 57.5111 8.75938 57.6116 8.70193 57.697C8.64448 57.7825 8.56273 57.8491 8.46717 57.8885C8.37162 57.9278 8.2665 57.9381 8.16507 57.918C8.06364 57.898 7.97038 57.8484 7.89727 57.7758C7.82417 57.7031 7.77431 57.6104 7.75417 57.5096C7.73402 57.4088 7.74438 57.3043 7.78398 57.2093C7.82359 57.1143 7.8906 57.0332 7.9766 56.9761C8.0626 56.919 8.16369 56.8884 8.26708 56.8884C8.40581 56.8884 8.53879 56.9432 8.63688 57.0407C8.73497 57.1381 8.79 57.2704 8.79 57.4082Z" fill="#E0E0E0"/>
<path d="M15.3877 8.62558L2.77148 8.50439L3.12275 24.8471L15.739 24.8933L15.3877 8.62558Z" fill="#E0E0E0"/>
<path d="M14.5734 9.35436L3.5293 9.07056L3.84856 23.8922L14.8894 24.0277L14.5734 9.35436Z" fill="#FAFAFA"/>
<path d="M12.6905 11.5691L5.36133 11.4478L5.58595 21.8084L12.9071 21.6521L12.6905 11.5691Z" fill="#EBEBEB"/>
<path d="M5.58595 21.8084L12.7931 16.33L5.36133 11.4478L5.58595 21.8084Z" fill="#F5F5F5"/>
<path d="M69.6772 0.106769L58.6074 0L58.917 14.3383L69.9836 14.3783L69.6772 0.106769Z" fill="#E0E0E0"/>
<path d="M68.9621 0.747946L59.2734 0.497559L59.554 13.5L69.2394 13.6179L68.9621 0.747946Z" fill="#FAFAFA"/>
<path d="M67.3084 2.68989L60.8809 2.58301L61.0766 11.6711L67.4993 11.5356L67.3084 2.68989Z" fill="#EBEBEB"/>
<path d="M61.0766 11.6711L67.3998 6.86557L60.8809 2.58301L61.0766 11.6711Z" fill="#F5F5F5"/>
<path d="M57.2783 54.0137C57.2318 54.154 58.8824 60.3912 58.8824 60.3912L60.015 60.1569L58.4574 54.0137H57.2783Z" fill="#EBEBEB"/>
<path d="M66.0539 53.1223L63.7891 60.3911H65.1109L67.2812 53.6388L66.0539 53.1223Z" fill="#F5F5F5"/>
<path d="M68.1306 51.9968L65.5352 60.3914H66.8567L69.3575 52.5134L68.1306 51.9968Z" fill="#EBEBEB"/>
<path d="M58.0801 59.8762L59.4017 64.4251H66.0539L67.2809 59.8762H58.0801Z" fill="#E0E0E0"/>
<path d="M61.5119 59.8764C61.506 59.8607 61.5014 59.8448 61.4975 59.8286L61.4622 59.6899C61.4317 59.5623 61.39 59.3822 61.3354 59.1526L60.8782 57.166L59.385 50.5411L59.4249 50.5747H58.2603L58.3004 50.5236C58.8924 53.1305 59.4234 55.4663 59.8036 57.1532C59.9897 57.9935 60.1405 58.6711 60.2464 59.1462C60.2945 59.3774 60.3346 59.5576 60.3619 59.6867C60.373 59.7457 60.3827 59.792 60.3891 59.827C60.3917 59.8433 60.3917 59.8601 60.3891 59.8764C60.3834 59.8607 60.3784 59.8448 60.3745 59.8286C60.365 59.7936 60.3537 59.7473 60.3393 59.6899C60.3072 59.5623 60.2639 59.3822 60.2077 59.1526C60.097 58.6743 59.9383 58.003 59.7409 57.166C59.3511 55.4791 58.8138 53.1464 58.2138 50.5411L58.2012 50.4917H59.4522L59.4603 50.5236C60.0361 53.1305 60.5542 55.4663 60.928 57.1532C61.1092 57.9935 61.2569 58.6711 61.3596 59.1462C61.4077 59.3774 61.4444 59.5576 61.4717 59.6867L61.499 59.827C61.5059 59.8427 61.5103 59.8594 61.5119 59.8764Z" fill="#E0E0E0"/>
<path d="M57.3347 38.2943C57.2934 38.2592 57.2568 38.219 57.226 38.1746C57.1601 38.0943 57.0689 37.9763 56.9568 37.8274C56.7342 37.5296 56.4368 37.1108 56.1274 36.6361C55.818 36.1616 55.5552 35.7188 55.3739 35.3947C55.2823 35.2334 55.212 35.1014 55.165 35.0086C55.1361 34.9623 55.1141 34.9121 55.0996 34.8596C55.1359 34.8998 55.1671 34.9443 55.1924 34.992L55.4251 35.3661C55.6185 35.6817 55.8884 36.1173 56.198 36.5903C56.5076 37.0633 56.7948 37.4875 57.0055 37.792C57.1262 37.952 57.2361 38.1198 57.3347 38.2943Z" fill="#263238"/>
<path d="M60.8333 38.2462C60.6499 38.2898 60.4637 38.3204 60.2761 38.3375C59.9299 38.382 59.4599 38.4401 58.9255 38.4966C58.3912 38.5532 57.9172 38.6029 57.5709 38.633C57.3845 38.6584 57.1965 38.6694 57.0084 38.6658C57.1916 38.6216 57.3778 38.5911 57.5656 38.5745C57.9101 38.5299 58.3817 38.4719 58.916 38.4154C59.4504 38.3588 59.9227 38.3089 60.2691 38.2789C60.456 38.2535 60.6446 38.2426 60.8333 38.2462Z" fill="#263238"/>
<path d="M62.083 34.3031C61.9412 34.344 61.7961 34.3718 61.6493 34.3858C61.3811 34.4252 61.0086 34.4735 60.5975 34.5229C60.1864 34.5723 59.8123 34.6061 59.5418 34.6373C59.3959 34.659 59.2484 34.6666 59.1011 34.6598C59.2428 34.6194 59.3879 34.5922 59.5347 34.5788C59.803 34.5394 60.1763 34.4815 60.5882 34.4401C61.0001 34.3989 61.3718 34.3566 61.6423 34.3272C61.7882 34.3056 61.9356 34.2975 62.083 34.3031Z" fill="#263238"/>
<path d="M59.1715 34.8882C59.0536 34.7819 58.9469 34.6639 58.8529 34.5361C58.6666 34.3093 58.4252 33.9889 58.1647 33.6202C57.9041 33.2514 57.6974 32.9072 57.5526 32.6524C57.4656 32.5197 57.393 32.3782 57.3359 32.2302C57.434 32.3543 57.523 32.4852 57.6023 32.622C57.7609 32.8685 57.9795 33.2058 58.2339 33.5724C58.4883 33.9391 58.7261 34.2623 58.8985 34.4989C58.9992 34.6216 59.0905 34.7518 59.1715 34.8882Z" fill="#263238"/>
<path d="M61.0993 30.6542C61.0777 30.6618 60.7714 29.9038 60.416 28.9615C60.0607 28.0192 59.7847 27.2483 59.8097 27.2395C59.8348 27.2308 60.1377 27.9899 60.4946 28.9324C60.8514 29.8748 61.1212 30.6451 61.0993 30.6542Z" fill="#263238"/>
<path d="M63.9976 29.5788C63.8625 29.6564 63.721 29.7225 63.5748 29.7765L62.5438 30.2208C62.1395 30.3945 61.7726 30.5494 61.5028 30.653C61.3601 30.716 61.211 30.7638 61.0582 30.7954C61.1942 30.7196 61.3355 30.6536 61.4809 30.5978L62.5096 30.1452C62.9138 29.9715 63.2818 29.8215 63.553 29.7214C63.6963 29.6598 63.8453 29.612 63.9976 29.5788Z" fill="#263238"/>
<path d="M65.409 22.3184C65.4044 22.3362 65.3973 22.3533 65.3878 22.3692L65.3185 22.5131C65.2523 22.6428 65.1596 22.8277 65.0427 23.0613C64.7979 23.5422 64.4499 24.2309 64.0201 25.0782L60.6743 31.7445C59.3725 34.3413 58.1814 36.704 57.3052 38.4002C56.8688 39.2486 56.5069 39.9326 56.2597 40.4053C56.1365 40.6368 56.0394 40.818 55.9702 40.9459C55.9369 41.0051 55.9128 41.0508 55.8931 41.0873L55.8644 41.1326C55.8691 41.1153 55.8761 41.0987 55.8855 41.0833C55.9021 41.0465 55.9261 40.9992 55.9547 40.9395C56.0211 40.8082 56.1136 40.625 56.2307 40.3896C56.4756 39.9087 56.8233 39.2217 57.2533 38.3743L60.5988 31.7114C61.9012 29.1064 63.0899 26.7532 63.9675 25.0571C64.4039 24.2088 64.766 23.5231 65.0132 23.0521C65.1363 22.8205 65.2335 22.6377 65.3028 22.5099C65.336 22.4522 65.3601 22.4049 65.3796 22.37L65.409 22.3184Z" fill="#263238"/>
<path d="M65.491 21.9582C65.4561 21.9392 65.4194 21.9239 65.3814 21.9121C65.2702 21.8754 65.152 21.8638 65.0357 21.8781C64.8462 21.9073 64.6659 21.9783 64.5076 22.0859C64.2918 22.2377 64.0997 22.4203 63.9376 22.628C63.5605 23.0943 63.2343 23.7581 62.8534 24.5319C62.4139 25.415 62.0194 26.3196 61.6714 27.2422C61.6157 27.325 61.5451 27.3969 61.4632 27.4542C61.4208 27.4857 61.3721 27.5076 61.3205 27.5186C61.2688 27.5296 61.2154 27.5293 61.1639 27.5178C61.0642 27.4819 60.9772 27.4175 60.9138 27.3329C60.8458 27.2573 60.783 27.1774 60.7205 27.0959C60.5974 26.9307 60.4644 26.7731 60.3224 26.6238C60.1865 26.4649 59.9945 26.364 59.7859 26.3419C59.6797 26.3494 59.5762 26.3791 59.4822 26.4288C59.3881 26.4787 59.3057 26.5477 59.24 26.6314C59.1074 26.8131 59.0243 27.0258 58.9988 27.249C58.9258 27.7002 59.0117 28.1721 59.0434 28.6546C59.075 29.1371 59.1262 29.6342 59.1683 30.1402C59.1909 30.3941 59.2117 30.6495 59.2339 30.9082L59.2667 31.2994C59.2818 31.3687 59.2818 31.4404 59.2668 31.5097C59.2517 31.579 59.2219 31.6443 59.1794 31.7012C59.1523 31.7308 59.1168 31.7514 59.0776 31.7604C59.0385 31.7694 58.9975 31.7664 58.9602 31.7518C58.8934 31.7251 58.8323 31.686 58.7803 31.6364L58.486 31.3638C58.2856 31.1792 58.0754 31.0055 57.8562 30.8433C57.6374 30.6757 57.3933 30.5434 57.1329 30.4516C57.004 30.4077 56.8665 30.3942 56.7313 30.4121C56.5964 30.4323 56.4726 30.4983 56.3809 30.5989C56.2037 30.8195 56.1003 31.0898 56.0854 31.3716C56.0567 31.6605 56.0558 31.9513 56.0828 32.2402C56.1388 32.8342 56.2434 33.4225 56.3958 33.9992C56.442 34.1475 56.4735 34.2999 56.4898 34.4543C56.493 34.4979 56.4873 34.5417 56.4728 34.583C56.4585 34.6244 56.4357 34.6623 56.4059 34.6945C56.39 34.7096 56.373 34.7235 56.355 34.7359C56.3353 34.7504 56.313 34.7607 56.2892 34.7664C56.2399 34.7688 56.1915 34.7527 56.1538 34.721C56.0299 34.6234 55.9165 34.5135 55.8151 34.3928L55.5063 34.0417C55.3046 33.8044 55.0816 33.5861 54.8398 33.3895C54.7194 33.2923 54.5845 33.2141 54.44 33.1578C54.3716 33.129 54.2978 33.1151 54.2236 33.1169C54.1492 33.1188 54.0762 33.1362 54.0092 33.1683C53.8771 33.2453 53.7782 33.368 53.7313 33.513C53.6776 33.6608 53.6425 33.8146 53.6271 33.9709C53.5961 34.2921 53.6037 34.6159 53.6502 34.9351C53.7436 35.5839 53.9144 36.2191 54.1589 36.8272C54.4006 37.4499 54.6876 38.0541 55.0174 38.6351C55.182 38.9296 55.3627 39.2149 55.5586 39.4898C55.7455 39.7744 55.9357 40.0576 56.1254 40.3472L56.1244 40.3567L56.0878 40.3371L57.1161 40.2906C57.456 40.2838 57.7954 40.2594 58.1328 40.2174C58.7978 40.1357 59.4562 40.0069 60.1032 39.8323C60.7408 39.6663 61.3567 39.426 61.938 39.1164C62.2233 38.9664 62.4889 38.7819 62.7291 38.5673C62.8475 38.4622 62.952 38.3426 63.0404 38.2115C63.1296 38.0879 63.1702 37.9361 63.1543 37.785C63.141 37.7121 63.1121 37.6428 63.0698 37.582C63.0273 37.5212 62.9723 37.4701 62.9084 37.4322C62.7767 37.3511 62.6338 37.2895 62.4842 37.2494C62.1815 37.1729 61.8724 37.1237 61.5607 37.1025L61.0953 37.0567C60.9347 37.0473 60.7756 37.0214 60.6203 36.9797C60.5719 36.9686 60.5299 36.9391 60.5031 36.8976C60.4936 36.8748 60.4889 36.8503 60.4893 36.8257C60.4891 36.8039 60.4913 36.782 60.4959 36.7606C60.5052 36.7181 60.5227 36.6777 60.5477 36.6419C60.5726 36.6062 60.6043 36.5756 60.641 36.552C60.7756 36.4739 60.9175 36.4089 61.0646 36.358C61.6225 36.1385 62.1613 35.8734 62.6755 35.5656C62.9244 35.4164 63.1576 35.2427 63.3717 35.0472C63.5908 34.8685 63.7482 34.6261 63.8217 34.3539C63.8487 34.2205 63.8286 34.0821 63.7649 33.9619C63.6999 33.8426 63.6078 33.7401 63.4957 33.663C63.2687 33.5077 63.0182 33.3895 62.7538 33.3127C62.4927 33.233 62.2274 33.1679 61.9591 33.1175L61.5613 33.04C61.49 33.0288 61.4219 33.003 61.3613 32.9642C61.3275 32.9424 61.3012 32.9109 61.2857 32.874C61.2702 32.8369 61.2663 32.7961 61.2745 32.7569C61.2961 32.6895 61.3316 32.6274 61.3789 32.5746C61.426 32.5219 61.4838 32.4794 61.5485 32.4504L61.891 32.2467L62.5516 31.8418L63.8281 31.0614C64.239 30.8021 64.6708 30.5912 64.9936 30.2638C65.1572 30.112 65.2786 29.9206 65.3459 29.7085C65.375 29.6061 65.382 29.4989 65.3667 29.3937C65.3512 29.2886 65.3137 29.1879 65.2564 29.0984C65.1946 29.015 65.1099 28.951 65.0127 28.9142C64.9156 28.8747 64.814 28.8475 64.7103 28.8331C64.5055 28.8076 64.2993 28.7948 64.0928 28.7949C63.9908 28.7849 63.8873 28.7891 63.7869 28.7808C63.6814 28.7784 63.579 28.7454 63.4921 28.6861C63.4512 28.6522 63.4182 28.6098 63.3952 28.5619C63.3723 28.514 63.3601 28.4617 63.3593 28.4085C63.3575 28.3087 63.3736 28.2093 63.4067 28.1151C63.9499 27.299 64.4515 26.4563 64.9095 25.5901C65.3086 24.8276 65.6534 24.1721 65.8116 23.5945C65.8858 23.3429 65.9231 23.0819 65.9221 22.8198C65.9206 22.6292 65.8751 22.4415 65.7893 22.2713C65.7376 22.1671 65.6618 22.0768 65.5682 22.0074C65.5363 21.9835 65.5024 21.9624 65.4667 21.9445C65.5041 21.9587 65.5396 21.9778 65.572 22.0014C65.6686 22.0699 65.7478 22.16 65.8029 22.2646C65.8905 22.4363 65.938 22.6257 65.9416 22.8185C65.9462 23.0832 65.9113 23.3472 65.8382 23.6019C65.683 24.1815 65.3432 24.8359 64.9458 25.5985C64.4944 26.4757 63.9986 27.3298 63.4604 28.1572C63.4293 28.2443 63.4146 28.3363 63.4169 28.4286C63.4166 28.474 63.4261 28.5188 63.4447 28.5602C63.4633 28.6015 63.4905 28.6385 63.5245 28.6685C63.6033 28.7205 63.6953 28.749 63.7899 28.7506C63.8886 28.7603 63.99 28.7607 64.0929 28.7628C64.302 28.7624 64.5109 28.7749 64.7183 28.8002C64.826 28.8152 64.9313 28.8432 65.0318 28.8839C65.1385 28.9238 65.2318 28.9923 65.3015 29.082C65.3619 29.1778 65.4017 29.2852 65.4181 29.3971C65.4345 29.5092 65.4272 29.6235 65.3966 29.7327C65.3273 29.9555 65.2004 30.1565 65.0286 30.3153C64.6969 30.6514 64.2616 30.8653 63.8537 31.1265L62.5787 31.9087L61.9198 32.312L61.5851 32.518C61.5291 32.5479 61.4772 32.5848 61.4308 32.628C61.3877 32.6695 61.3569 32.7218 61.3414 32.7795C61.336 32.8056 61.3385 32.8327 61.3491 32.8572C61.3596 32.8818 61.3772 32.9025 61.3999 32.9167C61.4535 32.9494 61.5132 32.971 61.5753 32.9805L61.9731 33.058C62.2437 33.1079 62.5112 33.1734 62.7742 33.2537C63.0479 33.3323 63.3072 33.4536 63.5426 33.613C63.6623 33.6983 63.761 33.8094 63.8316 33.9381C63.9019 34.0725 63.9249 34.2265 63.8968 34.3758C63.8198 34.6637 63.6549 34.9209 63.4248 35.1118C63.2047 35.3104 62.9658 35.4871 62.7114 35.6397C62.1938 35.9507 61.6514 36.2191 61.0899 36.4422C60.9482 36.4902 60.8114 36.5519 60.6817 36.6266C60.6533 36.6442 60.6286 36.6674 60.6092 36.6946C60.59 36.7219 60.5762 36.7528 60.5691 36.7855C60.5659 36.8012 60.5643 36.8171 60.5643 36.8331C60.563 36.8457 60.5599 36.8759 60.5713 36.8754C60.5899 36.8957 60.6143 36.9098 60.6413 36.9159C60.7883 36.9548 60.939 36.9792 61.091 36.989L61.5563 37.0347C61.8731 37.0543 62.187 37.104 62.4941 37.183C62.6524 37.2238 62.8033 37.2889 62.9414 37.3761C63.0146 37.4203 63.0775 37.4795 63.1258 37.5497C63.1742 37.6199 63.207 37.6997 63.2221 37.7837C63.2413 37.954 63.1965 38.1256 63.0961 38.2651C63.0045 38.4019 62.8956 38.5265 62.7721 38.6356C62.5273 38.8552 62.2562 39.044 61.9653 39.1976C61.3785 39.5118 60.7563 39.7547 60.1118 39.9213C59.4597 40.0982 58.7957 40.228 58.125 40.3097C57.7866 40.3518 57.4462 40.3762 57.1052 40.3826L56.0751 40.4305L56.0512 40.4281L56.0387 40.4077L56.0308 40.4069L55.4641 39.5495C55.2684 39.2741 55.0872 38.9888 54.9212 38.6945C54.5888 38.1093 54.2996 37.5006 54.056 36.8732C53.8107 36.2586 53.6395 35.6169 53.5461 34.9617C53.4974 34.6379 53.4891 34.3091 53.5212 33.9829C53.538 33.8192 53.5747 33.658 53.6308 33.5031C53.6853 33.3405 53.7977 33.2032 53.9468 33.1173C54.0239 33.0798 54.108 33.0589 54.1938 33.0563C54.2796 33.0537 54.3648 33.0693 54.444 33.1021C54.5956 33.1614 54.737 33.2434 54.8637 33.3454C55.1095 33.5448 55.336 33.7667 55.5401 34.0082L55.8491 34.3592C55.947 34.4748 56.0559 34.5806 56.1745 34.6749C56.1956 34.6935 56.2221 34.705 56.2501 34.708C56.2501 34.708 56.2754 34.6961 56.2873 34.6892L56.326 34.6577C56.348 34.6328 56.3647 34.6038 56.375 34.5723C56.3854 34.5408 56.3892 34.5076 56.3863 34.4745C56.3708 34.3261 56.3404 34.1798 56.2954 34.0375C56.1425 33.4565 56.0377 32.8639 55.982 32.2657C55.9547 31.972 55.9559 31.6762 55.9861 31.3827C56.0035 31.0846 56.1145 30.7993 56.3036 30.5673C56.4066 30.4558 56.5446 30.3822 56.6949 30.3589C56.8414 30.3396 56.9902 30.3542 57.1299 30.4017C57.3972 30.4931 57.6483 30.6259 57.8739 30.7954C58.0959 30.9583 58.3081 31.1338 58.5097 31.3212L58.804 31.5938C58.8475 31.6368 58.8985 31.6716 58.9545 31.6968C58.9794 31.7068 59.0068 31.709 59.0331 31.7029C59.0593 31.6969 59.083 31.683 59.1011 31.6631C59.1373 31.6189 59.1611 31.5659 59.1698 31.5095C59.1778 31.4466 59.1772 31.3829 59.168 31.3201C59.1571 31.1893 59.1477 31.06 59.1366 30.9307C59.1145 30.672 59.0938 30.415 59.0727 30.1629C59.0323 29.6555 58.9906 29.1608 58.9509 28.6776C58.9113 28.1943 58.8351 27.7218 58.9096 27.2562C58.9378 27.0246 59.0255 26.8041 59.1643 26.6159C59.2355 26.5253 59.3252 26.4507 59.4274 26.3971C59.5298 26.3436 59.6422 26.3124 59.7575 26.3054C59.8712 26.3072 59.9822 26.3409 60.0776 26.4027C60.1706 26.4594 60.2561 26.5277 60.3322 26.6056C60.4761 26.7568 60.6105 26.9167 60.7345 27.0845C60.795 27.1652 60.8579 27.2435 60.9232 27.3195C60.9812 27.3942 61.059 27.4513 61.1479 27.4842C61.1926 27.4937 61.2387 27.4935 61.2832 27.4838C61.3278 27.4741 61.3698 27.4549 61.4064 27.4278C61.4822 27.3747 61.5478 27.3083 61.6 27.232C61.9513 26.3082 62.3502 25.4029 62.795 24.5197C63.1789 23.7478 63.5102 23.0829 63.8937 22.6172C64.0586 22.4086 64.254 22.2257 64.4733 22.0746C64.6344 21.9665 64.8182 21.8968 65.0106 21.8708C65.1285 21.8551 65.2487 21.867 65.3612 21.9053C65.4072 21.9154 65.4511 21.9333 65.491 21.9582Z" fill="#263238"/>
<path d="M55.4372 49.0615C52.659 46.8214 52.2657 43.0048 52.625 39.624C52.686 39.0598 52.6653 38.4586 52.9714 37.9812C53.2775 37.5037 53.936 37.2106 54.4277 37.4847C54.836 37.7122 54.9838 38.2149 55.1911 38.6348C55.4685 39.1961 55.8998 39.6682 56.4352 39.9968C56.7842 40.2098 57.225 40.3562 57.596 40.185C58.1068 39.9505 58.2129 39.2811 58.2498 38.7184L58.4562 35.5715C58.493 35.0072 58.5332 34.4333 58.748 33.9125C58.9629 33.3918 59.3925 32.9226 59.9366 32.8094C60.4806 32.6961 61.1293 33.0551 61.2031 33.6102C61.2077 33.8445 61.1964 34.0789 61.169 34.3117C61.1683 34.546 61.259 34.8125 61.4769 34.8929C61.6948 34.9732 61.9359 34.832 62.1191 34.6794C62.7446 34.1534 63.1925 33.4499 63.6164 32.748C64.0403 32.0461 64.4515 31.3265 65.0273 30.7447C65.6032 30.1626 66.3696 29.7232 67.1845 29.7351C67.9993 29.7469 68.8254 30.3057 68.9739 31.1114C69.1223 31.917 68.5988 32.692 68.0452 33.2978C67.2235 34.1987 66.2746 34.9763 65.2283 35.6066C65.0243 35.6974 64.8551 35.8513 64.7459 36.0453C64.5957 36.4116 64.9266 36.8096 65.2903 36.9604C65.702 37.129 66.164 37.1223 66.6017 37.2017C67.0394 37.2811 67.5039 37.512 67.6406 37.9381C67.8314 38.5302 67.3037 39.0979 66.799 39.46C65.7931 40.1824 64.67 40.7282 63.4787 41.0737C63.0501 41.1953 62.6023 41.2961 62.2454 41.5629C61.8886 41.8298 61.6498 42.3218 61.825 42.7321C62.0003 43.1424 62.5116 43.3081 62.9463 43.2582C63.3812 43.2084 63.7957 43.0008 64.2227 42.8744C65.0254 42.6375 66.0227 42.7631 66.4666 43.4659C66.7621 43.9291 66.7476 44.5429 66.5439 45.0605C66.3171 45.5631 65.9912 46.0154 65.5857 46.3908C64.2472 47.7756 62.5626 48.7821 60.7043 49.3076C58.8549 49.8014 57.1738 49.8509 55.4243 49.0711" fill="#0776F1"/>
<path d="M54.8195 51.8227C55.0913 50.2627 55.5125 48.7322 56.0774 47.2519C56.7765 45.446 57.5789 43.6813 58.481 41.9666L59.1826 40.6133C59.4149 40.1692 59.6439 39.7298 59.8954 39.3127C60.3793 38.5144 60.9067 37.743 61.4754 37.002C62.0148 36.2908 62.5508 35.6353 63.0578 35.0261C63.5648 34.4168 64.051 33.8601 64.5143 33.3703C65.242 32.5938 66.0304 31.8758 66.872 31.2229C67.1693 30.9925 67.4055 30.8211 67.5679 30.7067L67.7528 30.5781C67.7731 30.5628 67.7946 30.549 67.817 30.5368C67.8001 30.5558 67.7807 30.5723 67.7591 30.586L67.5808 30.7242C67.42 30.8433 67.19 31.0197 66.8974 31.2565C66.0677 31.9192 65.2893 32.6429 64.5687 33.4216C64.1101 33.913 63.6289 34.4728 63.1203 35.082C62.6117 35.6913 62.082 36.3546 61.5474 37.0611C60.9819 37.7996 60.4581 38.569 59.9786 39.3655C59.7288 39.7811 59.4948 40.2172 59.2706 40.6614L58.5691 42.0146C57.6694 43.726 56.8659 45.4856 56.1623 47.2855C55.5957 48.7595 55.1686 50.2828 54.8868 51.8357" fill="#263238"/>
<path d="M60.3675 39.1578C60.345 39.0782 60.3318 38.9963 60.328 38.9138C60.3109 38.7542 60.2907 38.5278 60.2707 38.2439C60.2322 37.6794 60.204 36.8949 60.176 36.0322C60.148 35.1696 60.1086 34.3866 60.0605 33.8221C60.0372 33.5413 60.0171 33.3133 59.9999 33.1554C59.9858 33.0738 59.9812 32.9908 59.9861 32.9082C60.012 32.9866 60.0301 33.0673 60.04 33.1491C60.0684 33.3086 60.1015 33.5336 60.1343 33.8159C60.2016 34.3789 60.2523 35.1619 60.2882 36.0278C60.3243 36.8936 60.3365 37.651 60.3524 38.241C60.3629 38.5073 60.3703 38.7305 60.3777 38.9107C60.3823 38.9932 60.3789 39.076 60.3675 39.1578Z" fill="#263238"/>
<path d="M67.3183 38.2714C67.2212 38.2861 67.1228 38.2912 67.0247 38.2865C66.8371 38.286 66.5659 38.2852 66.2226 38.3066C65.552 38.3318 64.6183 38.3961 63.6058 38.5145C62.5932 38.6329 61.6689 38.7787 61.0076 38.9043C60.6769 38.9641 60.4105 39.0207 60.2258 39.0616C60.1312 39.0863 60.0345 39.1025 59.9369 39.1102C60.0273 39.0727 60.1207 39.043 60.2163 39.0217C60.3977 38.9712 60.6626 38.905 60.9932 38.8341C61.6514 38.6908 62.571 38.5323 63.5932 38.4124C64.4656 38.3091 65.3426 38.2503 66.2211 38.2364C66.558 38.2373 66.8306 38.2381 67.0231 38.2483C67.122 38.2473 67.2209 38.255 67.3183 38.2714Z" fill="#263238"/>
<path d="M56.8315 46.1472C56.8124 46.1194 56.798 46.0886 56.7884 46.0561L56.6816 45.785C56.5909 45.5503 56.4684 45.2054 56.3237 44.7793C56.0327 43.9255 55.6671 42.7334 55.2812 41.4137C54.8952 40.0941 54.5425 38.8988 54.2691 38.0402C54.1356 37.6221 54.0243 37.2791 53.9432 37.0237L53.8559 36.7477C53.8435 36.716 53.8354 36.6826 53.832 36.6487C53.8501 36.6771 53.8647 36.7078 53.8751 36.7398C53.9037 36.8132 53.9387 36.8994 53.9802 37.0111C54.0709 37.2457 54.1934 37.5905 54.3397 38.0166C54.6308 38.8705 54.9963 40.0626 55.3806 41.3838C55.765 42.7052 56.121 43.897 56.3943 44.7556C56.5279 45.1737 56.6375 45.5168 56.7121 45.7721L56.7995 46.0483C56.8147 46.0796 56.8256 46.113 56.8315 46.1472Z" fill="#263238"/>
<path d="M66.1393 44.0993C66.1082 44.1158 66.0745 44.1269 66.0397 44.1325L65.7525 44.2067L64.6931 44.4669C63.7974 44.6859 62.5662 45.003 61.2049 45.3564C59.8436 45.7098 58.6076 46.0156 57.7071 46.2172C57.2576 46.3181 56.8932 46.3967 56.6396 46.4454L56.3477 46.5005C56.314 46.5087 56.2795 46.5124 56.2449 46.5113C56.2761 46.4966 56.3089 46.4859 56.3428 46.4797L56.6317 46.4056L57.6911 46.1454C58.5853 45.9263 59.8181 45.6077 61.1794 45.2543C62.5407 44.9009 63.7768 44.595 64.6756 44.3934C65.125 44.2926 65.491 44.2155 65.7431 44.1667L66.035 44.1118C66.0692 44.1037 66.1042 44.0994 66.1393 44.0993Z" fill="#263238"/>
<path d="M56.0806 5.04785H17.1797V58.0299H56.0806V5.04785Z" fill="#455A64"/>
<path d="M54.5422 54.8795H47.3382H20.4199V7.18921H54.5422V48.9467V54.8795Z" fill="#E0E0E0"/>
<path d="M54.0033 53.9944H46.8635H20.1875V6.55933H54.0033V48.0936V53.9944Z" fill="#EBEBEB"/>
<path d="M50.3696 50.3035L46.4749 53.4556H19.5566V6.67896H53.6789V47.6361L50.3696 50.3035Z" fill="#FAFAFA"/>
<path d="M50.3703 50.2987C50.3703 50.2987 50.4393 50.2396 50.5788 50.1265L51.2028 49.6194L53.6715 47.6217V47.6312C53.6715 40.9029 53.6587 25.9473 53.6474 6.67408L53.6843 6.7123H19.8588H19.5621L19.6038 6.67087C19.6038 24.2573 19.6038 40.4803 19.5943 53.4476L19.5621 53.4141L46.4804 53.4332H46.4707L49.3966 51.0751L50.1297 50.4868C50.2901 50.356 50.375 50.2923 50.375 50.2923L50.1345 50.4916L49.4014 51.0959L46.4852 53.4651L19.5573 53.4875H19.5237V53.4539C19.5237 40.4867 19.5237 24.2636 19.5156 6.67728V6.63574H19.8541H53.6795H53.718V6.67248C53.7068 25.9521 53.6972 40.9013 53.6939 47.6296L51.2156 49.6178L50.5884 50.1392L50.3703 50.2987Z" fill="#263238"/>
<path d="M32.0142 3.4104H41.3419C41.9439 3.4104 42.5212 3.6482 42.9468 4.07127C43.3726 4.49434 43.6117 5.06813 43.6117 5.66652V8.16822H29.6465V5.76219C29.6469 5.13828 29.8965 4.54023 30.3405 4.09919C30.7844 3.65816 31.3865 3.4104 32.0142 3.4104Z" fill="#0776F1"/>
<path d="M33.0687 3.41055L32.5586 0.843506H40.5998L40.1523 3.41055H33.0687Z" fill="#0776F1"/>
<path d="M28.8725 19.8455H23.125V14.1311H28.8725V19.8455ZM23.2854 19.686H28.7121V14.2905H23.2854V19.686Z" fill="#0776F1"/>
<path d="M48.9606 41.0406C48.0463 41.0588 44.4937 41.0728 40.2525 41.0728C35.3183 41.0728 31.3145 41.0537 31.3145 41.0314C31.3145 41.0091 35.315 40.99 40.2525 40.99C44.4962 40.99 48.0468 41.0029 48.9606 41.0218" fill="#263238"/>
<path d="M48.3208 42.236C46.8829 42.25 43.8099 42.2591 40.2525 42.2591C35.3183 42.2591 31.3145 42.2416 31.3145 42.2177C31.3145 42.1938 35.315 42.1763 40.2525 42.1763C43.8118 42.1763 46.8832 42.1862 48.3207 42.2001" fill="#263238"/>
<path d="M46.7226 43.4337C45.0948 43.4417 42.7976 43.4469 40.2525 43.4469C35.3183 43.4469 31.3145 43.4277 31.3145 43.4053C31.3145 43.383 35.315 43.364 40.2525 43.364C42.7987 43.364 45.0952 43.3691 46.7226 43.3771" fill="#263238"/>
<path d="M43.7409 44.6313C42.6691 44.6334 41.4901 44.6346 40.2525 44.6346C35.3183 44.6346 31.3145 44.6155 31.3145 44.5932C31.3145 44.5709 35.315 44.5518 40.2525 44.5518C41.4905 44.5518 42.6694 44.5528 43.741 44.5546" fill="#263238"/>
<path d="M49.1889 32.7919C49.1889 32.8142 45.1866 32.8333 40.2525 32.8333C35.3183 32.8333 31.3145 32.8142 31.3145 32.7919C31.3145 32.7696 35.315 32.7505 40.2525 32.7505C45.1899 32.7505 49.1889 32.768 49.1889 32.7919Z" fill="#263238"/>
<path d="M49.1889 33.9782C49.1889 34.0021 45.1866 34.0196 40.2525 34.0196C35.3183 34.0196 31.3145 34.0021 31.3145 33.9782C31.3145 33.9543 35.315 33.9368 40.2525 33.9368C45.1899 33.9368 49.1889 33.9559 49.1889 33.9782Z" fill="#263238"/>
<path d="M49.1889 35.1658C49.1889 35.1881 45.1866 35.2074 40.2525 35.2074C35.3183 35.2074 31.3145 35.1881 31.3145 35.1658C31.3145 35.1435 35.315 35.1245 40.2525 35.1245C45.1899 35.1245 49.1889 35.1435 49.1889 35.1658Z" fill="#263238"/>
<path d="M49.1889 36.3537C49.1889 36.376 45.1866 36.3951 40.2525 36.3951C35.3183 36.3951 31.3145 36.376 31.3145 36.3537C31.3145 36.3314 35.315 36.3123 40.2525 36.3123C44.8477 36.3123 48.63 36.326 49.1322 36.3485" fill="#263238"/>
<path d="M49.1889 23.1794C49.1889 23.2017 45.1866 23.2208 40.2525 23.2208C35.3183 23.2208 31.3145 23.2017 31.3145 23.1794C31.3145 23.1571 35.315 23.1379 40.2525 23.1379C45.1899 23.1379 49.1889 23.1554 49.1889 23.1794Z" fill="#263238"/>
<path d="M49.1889 24.3654C49.1889 24.3893 45.1866 24.4068 40.2525 24.4068C35.3183 24.4068 31.3145 24.3893 31.3145 24.3654C31.3145 24.3415 35.315 24.324 40.2525 24.324C45.1899 24.324 49.1889 24.3431 49.1889 24.3654Z" fill="#263238"/>
<path d="M49.1889 25.5533C49.1889 25.5756 45.1866 25.5948 40.2525 25.5948C35.3183 25.5948 31.3145 25.5756 31.3145 25.5533C31.3145 25.531 35.315 25.512 40.2525 25.512C45.1899 25.512 49.1889 25.531 49.1889 25.5533Z" fill="#263238"/>
<path d="M49.1889 26.7411C49.1889 26.7634 45.1866 26.7825 40.2525 26.7825C35.3183 26.7825 31.3145 26.7634 31.3145 26.7411C31.3145 26.7188 35.315 26.6997 40.2525 26.6997C45.1899 26.6997 49.1889 26.7156 49.1889 26.7411Z" fill="#263238"/>
<path d="M49.1889 15.5121C49.1889 15.5344 45.1866 15.5536 40.2525 15.5536C35.3183 15.5536 31.3145 15.5344 31.3145 15.5121C31.3145 15.4898 35.315 15.4707 40.2525 15.4707C45.1899 15.4707 49.1889 15.4882 49.1889 15.5121Z" fill="#263238"/>
<path d="M49.1889 16.6982C49.1889 16.7221 45.1866 16.7396 40.2525 16.7396C35.3183 16.7396 31.3145 16.7221 31.3145 16.6982C31.3145 16.6742 35.315 16.6567 40.2525 16.6567C45.1899 16.6567 49.1889 16.6758 49.1889 16.6982Z" fill="#263238"/>
<path d="M49.1889 17.886C49.1889 17.9084 45.1866 17.9276 40.2525 17.9276C35.3183 17.9276 31.3145 17.9084 31.3145 17.886C31.3145 17.8637 35.315 17.8447 40.2525 17.8447C45.1899 17.8447 49.1889 17.8637 49.1889 17.886Z" fill="#263238"/>
<path d="M49.1889 19.0739C49.1889 19.0962 45.1866 19.1153 40.2525 19.1153C35.3183 19.1153 31.3145 19.0962 31.3145 19.0739C31.3145 19.0516 35.315 19.0325 40.2525 19.0325C45.1899 19.0325 49.1889 19.0484 49.1889 19.0739Z" fill="#263238"/>
<path d="M28.8725 28.6513H23.125V22.937H28.8725V28.6513ZM23.2854 28.4919H28.7121V23.0964H23.2854V28.4919Z" fill="#0776F1"/>
<path d="M24.2676 25.9123L25.0311 25.0976L26.3032 26.1085L29.2146 23.2991L29.9123 24.1171L26.247 27.7108L24.2676 25.9123Z" fill="#0776F1"/>
<path d="M28.8725 37.1736H23.125V31.4592H28.8725V37.1736ZM23.2854 37.0142H28.7121V31.6188H23.2854V37.0142Z" fill="#0776F1"/>
<path d="M24.2676 34.4343L25.0311 33.6195L26.3032 34.6303L29.2146 31.821L29.9123 32.6389L26.247 36.2328L24.2676 34.4343Z" fill="#0776F1"/>
<path d="M28.8725 45.4023H23.125V39.688H28.8725V45.4023ZM23.2854 45.2429H28.7121V39.8474H23.2854V45.2429Z" fill="#0776F1"/>
<path d="M24.2676 42.6629L25.0311 41.8483L26.3032 42.8591L29.2146 40.0498L29.9123 40.8661L26.247 44.4597L24.2676 42.6629Z" fill="#0776F1"/>
<path d="M47.5453 45.7117L43.8047 53.4126H46.4753L47.5453 45.7117Z" fill="#E0E0E0"/>
<path d="M46.4746 53.4558L47.5445 45.7549L53.6786 47.6362L46.4746 53.4558Z" fill="#FAFAFA"/>
<path d="M46.4746 53.4556L48.5374 51.7671L53.6529 47.6041L53.6673 47.6743L51.298 46.9505L47.5397 45.7913L47.5894 45.7594C47.2687 47.9916 46.9943 49.9129 46.8002 51.2745C46.6061 52.5994 46.5067 53.2834 46.4794 53.4556C46.4788 53.4439 46.4788 53.4323 46.4794 53.4205L46.4938 53.3153C46.5067 53.2148 46.5243 53.0745 46.5484 52.896C46.5981 52.5214 46.6687 51.984 46.7585 51.3016C46.9446 49.9288 47.2044 47.998 47.5077 45.7419V45.6973L47.551 45.71L51.319 46.8643L53.6866 47.5914L53.7604 47.6137L53.7011 47.6616C51.6301 49.3214 49.8192 50.7722 48.523 51.807L47.0103 53.014L46.6061 53.3328L46.5035 53.4142L46.4746 53.4556Z" fill="#263238"/>
<g opacity="0.3">
<path d="M40.0423 0.843506L39.5996 3.41055H40.1514L40.599 0.843506H39.8948" fill="black"/>
</g>
<path d="M16.4888 27.9165C16.6822 27.931 16.8765 27.9066 17.0602 27.8447C17.2439 27.7829 17.4133 27.685 17.558 27.5567C17.7028 27.4284 17.82 27.2726 17.9028 27.0982C17.9857 26.9239 18.0322 26.7347 18.0399 26.5421C18.0703 25.7608 18.0976 24.9716 18.0976 24.9716C18.0976 24.9716 19.2878 24.8616 19.3809 23.6961C19.474 22.5305 19.4275 19.8233 19.4275 19.8233C18.7749 19.496 18.0464 19.348 17.3171 19.3946C16.5878 19.4412 15.8843 19.6805 15.2793 20.088L15.3515 24.2079V26.4257C15.3531 27.1623 15.7428 27.8606 16.4888 27.9165Z" fill="#FFBE9D"/>
<path d="M18.2008 22.2612C18.1139 22.1369 17.9831 22.0499 17.8343 22.0174C17.6857 21.9849 17.5301 22.0093 17.3988 22.0857C17.2655 22.1778 17.1694 22.3139 17.1276 22.4699C17.086 22.6259 17.1013 22.7915 17.1711 22.9371C17.2317 23.0453 17.3144 23.1397 17.4139 23.2144C17.5132 23.289 17.6272 23.3424 17.7484 23.3708C17.856 23.3941 17.9513 23.4554 18.0166 23.5435C18.0817 23.6315 18.1125 23.7402 18.103 23.8492C18.0537 24.1569 17.9089 24.4416 17.6891 24.6639C17.3258 25.0314 16.8421 25.2576 16.3256 25.3016C15.8236 25.3607 15.2493 25.257 14.9574 24.8473C14.7441 24.5491 14.7296 24.1585 14.7215 23.7933C14.7034 22.9303 14.6852 22.0672 14.6671 21.204C14.6482 20.893 14.6681 20.5808 14.7263 20.2745C14.7878 19.9657 14.9642 19.6911 15.2205 19.506C15.5075 19.3178 15.8701 19.3019 16.1958 19.1983C16.6047 19.066 16.9513 18.7981 17.333 18.6035C17.7148 18.409 18.1816 18.2926 18.565 18.4839C18.8409 18.621 19.0254 18.8937 19.2917 19.0453C19.6734 19.2604 20.1915 19.2047 20.376 19.7691C20.4409 19.962 20.4409 20.1707 20.376 20.3638C20.1177 21.1211 19.1746 21.4273 18.4944 21.1004C18.4816 21.2279 18.6082 21.5133 18.4719 21.9183C18.4286 22.0491 18.4141 22.2451 18.2105 22.2499" fill="#263238"/>
<path d="M14.9503 19.8456C15.1372 19.4753 15.2649 19.0784 15.3288 18.6689C15.3591 18.4638 15.3414 18.2547 15.2771 18.0575C15.2129 17.8604 15.1037 17.6806 14.9583 17.5321C14.7436 17.3468 14.4661 17.2493 14.1819 17.2595C13.912 17.2747 13.6533 17.3726 13.4415 17.5395C13.2295 17.7065 13.0747 17.9345 12.9981 18.1922C12.932 18.4521 12.9423 18.7253 13.0276 18.9796C13.1128 19.234 13.2696 19.4586 13.4793 19.6272C13.6938 19.7908 13.9479 19.8954 14.2162 19.9301C14.4843 19.9648 14.757 19.9285 15.0064 19.8248" fill="#263238"/>
<path d="M15.1812 19.423C15.1726 19.5662 15.1106 19.701 15.0074 19.8012C14.9042 19.9014 14.7672 19.9598 14.623 19.9651C14.623 19.9412 14.7962 19.895 14.9438 19.742C15.0914 19.5888 15.1588 19.4166 15.1812 19.423Z" fill="#0776F1"/>
<path d="M14.7943 19.7101C14.7024 19.8059 14.5938 19.8841 14.4736 19.9412C14.3451 20.014 14.201 20.055 14.0533 20.0608C13.9595 20.0659 13.8659 20.0485 13.7802 20.0102C13.6945 19.9719 13.6193 19.9139 13.5608 19.8408C13.5091 19.7639 13.4746 19.6768 13.4596 19.5855C13.4446 19.4941 13.4497 19.4006 13.4742 19.3115C13.5114 19.1698 13.5788 19.0377 13.6715 18.924C13.7483 18.8162 13.8426 18.7219 13.9506 18.645C13.8792 18.7552 13.8021 18.8616 13.7197 18.9638C13.6391 19.075 13.5813 19.2006 13.5496 19.3338C13.5296 19.4123 13.5263 19.4941 13.5397 19.574C13.5533 19.6539 13.5834 19.7301 13.6281 19.7977C13.6795 19.86 13.7445 19.9097 13.8182 19.9428C13.8919 19.976 13.9724 19.9918 14.0533 19.9891C14.1903 19.9869 14.3251 19.9542 14.4479 19.8934C14.6564 19.7865 14.7864 19.6973 14.7943 19.7101Z" fill="#263238"/>
<path d="M12.7912 21.0318C12.8154 21.0723 12.8343 21.1157 12.8474 21.161C12.889 21.2805 12.9479 21.3932 13.0223 21.4958C13.0717 21.57 13.141 21.6289 13.2223 21.6661C13.3037 21.7033 13.3938 21.7172 13.4826 21.7063C13.589 21.6764 13.6857 21.6198 13.7635 21.5418C13.8415 21.4639 13.8976 21.3673 13.927 21.2615C13.9846 21.0384 14.0247 20.8114 14.0472 20.5822C14.0699 20.3857 14.1477 20.1995 14.2718 20.0449C14.3607 19.9432 14.4818 19.8746 14.6151 19.8504C14.6633 19.8387 14.714 19.8431 14.7595 19.8632C14.7595 19.8632 14.7066 19.8632 14.6215 19.8823C14.501 19.9154 14.3943 19.9857 14.3167 20.0831C14.2075 20.233 14.1405 20.4091 14.1226 20.5934C14.1042 20.828 14.0649 21.0606 14.0055 21.2885C13.9725 21.4082 13.9079 21.5168 13.8185 21.6034C13.7292 21.69 13.6182 21.7514 13.4971 21.7812C13.3862 21.7988 13.2728 21.7774 13.1762 21.7206C13.0961 21.6723 13.0272 21.6076 12.9742 21.5309C12.9006 21.4212 12.8464 21.2999 12.8137 21.1721C12.7972 21.1272 12.7896 21.0796 12.7912 21.0318Z" fill="#263238"/>
<path d="M12.2127 30.8677C12.2127 30.8677 11.6111 35.2396 12.2127 35.7945C12.8142 36.3492 13.39 36.1643 13.39 36.1643L14.5337 35.2077L14.7583 30.8613L12.2127 30.8677Z" fill="#FFBE9D"/>
<path d="M24.6367 18.5957L25.4003 17.7809L26.6724 18.7917L29.5837 15.9824L30.2814 16.8004L26.6162 20.3942L24.6367 18.5957Z" fill="#0776F1"/>
<path d="M28.2243 18.8171L27.1175 19.5234C27.0678 19.0882 26.7341 18.6577 26.7501 18.8762C26.7661 19.0945 26.7501 20.2281 26.7501 20.2281L24.7787 24.3561C24.5108 25.0099 23.967 25.4212 23.5612 25.5184L21.7148 26.0637L22.4351 28.4857L25.0016 27.6405C25.3293 27.5327 25.6269 27.35 25.8706 27.1072C26.1144 26.8643 26.2974 26.5682 26.4053 26.2422L28.1697 20.8978C28.2869 20.5536 28.3812 20.2021 28.4521 19.8456C28.529 19.3976 28.2243 18.8171 28.2243 18.8171Z" fill="#FFBE9D"/>
<path d="M19.1559 63.966L19.127 62.7432L16.8203 62.7799L16.8412 64.5704L16.9855 64.5784C17.6272 64.6023 20.2274 64.6596 20.6509 64.5258C21.1224 64.3742 19.1559 63.966 19.1559 63.966Z" fill="#0776F1"/>
<g opacity="0.5">
<path d="M17.6776 64.54C17.6386 64.3491 17.5308 64.179 17.3743 64.0618C17.2203 63.9426 17.0265 63.8856 16.832 63.9022L16.8418 64.54H17.6776Z" fill="white"/>
</g>
<g opacity="0.4">
<path d="M20.1095 64.2004C20.1095 64.2004 20.7992 64.3855 20.7159 64.5003C20.6324 64.6151 17.9985 64.6597 16.834 64.5704V64.5194L19.9074 64.4987C19.9074 64.4987 19.9827 64.2085 20.1095 64.2004Z" fill="white"/>
</g>
<path d="M19.9168 64.5336C19.9335 64.4642 19.9588 64.3973 19.9922 64.3342C20.0326 64.2761 20.0794 64.2226 20.1318 64.1748C20.0635 64.2066 20.0065 64.2582 19.9682 64.3228C19.9298 64.3873 19.9119 64.4619 19.9168 64.5367V64.5336Z" fill="#263238"/>
<path d="M19.2316 64.2003C19.2316 64.2003 19.27 64.1653 19.3038 64.1126C19.3374 64.06 19.3567 64.0122 19.3503 64.009C19.3438 64.0059 19.3117 64.0441 19.2797 64.0967C19.2476 64.1494 19.2251 64.1972 19.2316 64.2003Z" fill="#263238"/>
<path d="M19.0439 64.1062C19.0439 64.1062 19.0841 64.0871 19.1241 64.0504C19.1642 64.0137 19.1899 63.9803 19.185 63.9755C19.1802 63.9707 19.1433 63.9946 19.1049 64.0297C19.0663 64.0647 19.0374 64.0999 19.0439 64.1062Z" fill="#263238"/>
<path d="M18.9219 63.891C18.9603 63.9049 19.0015 63.9092 19.0422 63.9037C19.0828 63.9084 19.124 63.9035 19.1625 63.8894C19.1236 63.8772 19.0827 63.8728 19.0422 63.8766C19.0014 63.8721 18.9603 63.8771 18.9219 63.891Z" fill="#263238"/>
<path d="M18.877 63.7395C18.9174 63.7642 18.9641 63.7769 19.0117 63.7762C19.0592 63.783 19.1078 63.7758 19.1512 63.7554C19.1054 63.7511 19.0591 63.7511 19.0133 63.7554C18.9684 63.746 18.9228 63.7406 18.877 63.7395Z" fill="#263238"/>
<path d="M19.3086 63.9996C19.3574 64.0085 19.4074 64.0085 19.4562 63.9996C19.5107 63.9924 19.5644 63.9801 19.6166 63.963C19.6478 63.9532 19.6778 63.9404 19.7064 63.9246C19.7155 63.9199 19.7234 63.9133 19.7298 63.9054C19.7361 63.8974 19.7407 63.8882 19.7433 63.8784C19.7452 63.8673 19.7439 63.856 19.7397 63.8455C19.7355 63.8351 19.7284 63.8261 19.7193 63.8195C19.6621 63.7931 19.5976 63.7872 19.5366 63.8025C19.4755 63.8179 19.4217 63.8537 19.384 63.9039C19.3624 63.9337 19.3466 63.9672 19.3375 64.0028C19.3346 64.0159 19.3346 64.0294 19.3375 64.0426C19.3528 63.9975 19.375 63.9551 19.4032 63.9166C19.4363 63.8776 19.4796 63.8483 19.5284 63.8322C19.5866 63.812 19.6507 63.8154 19.7064 63.8418C19.7288 63.8593 19.7209 63.8864 19.6952 63.9023C19.6686 63.9172 19.6406 63.9294 19.6117 63.939C19.5595 63.957 19.5058 63.9709 19.4514 63.9805C19.3632 63.9948 19.3086 63.9948 19.3086 63.9996Z" fill="#263238"/>
<path d="M19.3455 64.0107C19.3635 63.9799 19.3692 63.9434 19.3615 63.9086C19.3555 63.8702 19.3406 63.8337 19.3182 63.8019C19.3055 63.7802 19.2876 63.7622 19.2659 63.7493C19.2443 63.7365 19.2199 63.7293 19.1946 63.7285C19.1872 63.73 19.18 63.733 19.1737 63.7372C19.1674 63.7416 19.1619 63.7471 19.1578 63.7533C19.1535 63.7598 19.1508 63.767 19.1494 63.7744C19.148 63.782 19.1481 63.7896 19.1497 63.7971C19.1533 63.8204 19.1621 63.8428 19.1754 63.8624C19.1949 63.8951 19.2193 63.9247 19.2476 63.9501C19.2705 63.9766 19.2998 63.9969 19.3326 64.0091C19.3326 64.0091 19.3038 63.9836 19.262 63.9374C19.238 63.9101 19.2165 63.8807 19.1979 63.8497C19.177 63.8194 19.1626 63.7635 19.1979 63.7556C19.2332 63.7476 19.2733 63.7875 19.2957 63.8162C19.3173 63.8447 19.3325 63.8772 19.3406 63.9118C19.3451 63.9446 19.3467 63.9777 19.3455 64.0107Z" fill="#263238"/>
<path d="M16.8457 63.8895C16.8457 63.8895 16.9116 63.8895 17.0158 63.8895C17.1518 63.9023 17.2814 63.9531 17.3895 64.0361C17.4977 64.1189 17.58 64.2307 17.627 64.3582C17.6638 64.4555 17.6687 64.5175 17.6735 64.5175C17.6766 64.5023 17.6766 64.4865 17.6735 64.4713C17.6682 64.4296 17.6591 64.3886 17.6462 64.3486C17.6017 64.2154 17.518 64.0984 17.4058 64.0132C17.2937 63.9279 17.1584 63.878 17.0174 63.8701C16.9752 63.8656 16.9327 63.8656 16.8906 63.8701C16.8746 63.8736 16.8593 63.8801 16.8457 63.8895Z" fill="#263238"/>
<path d="M17.0701 62.9329C17.0557 63.0892 17.0514 63.2463 17.0572 63.4032C17.0521 63.5628 17.0569 63.7226 17.0717 63.8816C17.0863 63.7226 17.0906 63.5627 17.0845 63.4032C17.0884 63.2463 17.0835 63.0893 17.0701 62.9329Z" fill="#263238"/>
<path d="M17.9629 64.3121C18.0742 64.3348 18.1879 64.3439 18.3014 64.3392C18.4146 64.3439 18.528 64.3332 18.6383 64.3073C18.6383 64.2993 18.4779 64.3073 18.3014 64.3073C18.1249 64.3073 17.9645 64.3041 17.9629 64.3121Z" fill="#263238"/>
<path d="M17.3379 64.1095C17.3379 64.1095 17.3474 64.1381 17.3731 64.162C17.3988 64.1859 17.4212 64.2004 17.4261 64.1956C17.4309 64.1908 17.4164 64.1652 17.3923 64.1429C17.3683 64.1206 17.3442 64.1031 17.3379 64.1095Z" fill="#263238"/>
<path d="M17.0919 64.0106C17.0919 64.0106 17.1256 64.0106 17.1592 64.0282C17.1929 64.0458 17.217 64.0569 17.2234 64.0522C17.2298 64.0474 17.2105 64.0154 17.1673 64.0027C17.124 63.9899 17.0902 64.0106 17.0919 64.0106Z" fill="#263238"/>
<path d="M16.9199 63.9739C16.9199 63.9739 16.9296 63.9932 16.9488 63.9996C16.968 64.006 16.9857 64.0076 16.9889 63.9996C16.9921 63.9916 16.9777 63.9803 16.9584 63.9739C16.9391 63.9675 16.9215 63.9659 16.9199 63.9739Z" fill="#263238"/>
<path d="M11.0128 63.5753L11.7956 62.6298L10.0214 61.1614L8.86328 62.5326L8.96598 62.6314C9.43272 63.0634 11.3721 64.795 11.7796 64.9672C12.2368 65.1602 11.0128 63.5753 11.0128 63.5753Z" fill="#0776F1"/>
<g opacity="0.5">
<path d="M9.52249 63.0539C9.62058 62.8835 9.65213 62.6831 9.61079 62.4911C9.57142 62.3012 9.46135 62.1332 9.3027 62.0208L8.88086 62.5102L9.52249 63.0539Z" fill="white"/>
</g>
<g opacity="0.4">
<path d="M11.5887 64.3758C11.5887 64.3758 11.9897 64.9642 11.8518 64.9961C11.7138 65.028 9.68302 63.3507 8.86328 62.5327L8.89863 62.4961L11.2421 64.4731C11.2421 64.4731 11.4811 64.2946 11.5887 64.3758Z" fill="white"/>
</g>
<path d="M8.87109 62.4722L8.89838 62.5008L8.98185 62.5789L9.29305 62.8595C9.55613 63.0939 9.92501 63.4144 10.3405 63.7588C10.756 64.1032 11.1425 64.4077 11.4184 64.6246L11.7521 64.8781L11.8436 64.945L11.8772 64.9673L11.8468 64.9402L11.7585 64.8685L11.4377 64.6086C11.1603 64.3886 10.7801 64.0825 10.3646 63.7381C9.94907 63.3937 9.57858 63.0764 9.31228 62.8452L8.99141 62.5709L8.90483 62.4961L8.87109 62.4722Z" fill="#263238"/>
<path d="M10.916 63.8018C10.916 63.8098 10.9689 63.8018 11.0283 63.7811C11.0877 63.7603 11.1358 63.7412 11.1326 63.7332C11.1294 63.7253 11.0796 63.7332 11.0202 63.7541C10.9824 63.7623 10.9469 63.7787 10.916 63.8018Z" fill="#263238"/>
<path d="M10.8359 63.6072C10.8359 63.6072 10.8792 63.6199 10.9338 63.6183C10.9884 63.6167 11.03 63.6088 11.03 63.6008C11.03 63.5928 10.9851 63.5881 10.9322 63.5896C10.8991 63.5881 10.8662 63.5941 10.8359 63.6072Z" fill="#263238"/>
<path d="M10.8848 63.3729C10.8848 63.3729 10.9168 63.4177 10.9681 63.4607C10.997 63.4898 11.0314 63.513 11.0692 63.5292C11.0692 63.5292 11.0372 63.483 10.9859 63.44C10.9345 63.3968 10.8912 63.3602 10.8848 63.3729Z" fill="#263238"/>
<path d="M10.9512 63.223C10.9687 63.2667 10.9953 63.3063 11.0293 63.3389C11.0633 63.3717 11.104 63.3968 11.1485 63.4128C11.1174 63.3793 11.0841 63.3479 11.049 63.3187C10.9961 63.2677 10.9656 63.2134 10.9512 63.223Z" fill="#263238"/>
<path d="M11.1054 63.6918C11.1372 63.7299 11.1757 63.7617 11.2192 63.7859C11.2647 63.8152 11.3131 63.8397 11.3636 63.8592C11.3934 63.8726 11.4246 63.8828 11.4566 63.8896C11.4768 63.8929 11.4976 63.8883 11.5144 63.8768C11.5233 63.87 11.53 63.8608 11.5337 63.8503C11.5373 63.8399 11.5379 63.8286 11.5353 63.8178C11.5105 63.7595 11.466 63.7116 11.4094 63.6824C11.3529 63.6534 11.2879 63.6448 11.2257 63.6584C11.1891 63.6655 11.1545 63.6807 11.1246 63.703C11.1133 63.7101 11.1035 63.7194 11.0957 63.7301C11.1368 63.7052 11.1818 63.6875 11.2289 63.6775C11.2798 63.6687 11.3321 63.6749 11.3796 63.695C11.4368 63.717 11.483 63.7606 11.508 63.8162C11.508 63.8449 11.4904 63.8608 11.4599 63.856C11.4303 63.8494 11.4014 63.8404 11.3733 63.8289C11.3239 63.8107 11.2761 63.7883 11.2305 63.762C11.1519 63.7317 11.1086 63.6918 11.1054 63.6918Z" fill="#263238"/>
<path d="M11.1278 63.7284C11.1278 63.7284 11.1695 63.7157 11.2079 63.6615C11.2287 63.6286 11.2418 63.5915 11.2465 63.5531C11.2502 63.5281 11.2478 63.5027 11.2397 63.4789C11.2316 63.4551 11.2181 63.4335 11.2 63.4159C11.1862 63.4086 11.1698 63.407 11.1549 63.4114C11.1399 63.4159 11.1272 63.4262 11.1197 63.4398C11.1075 63.4597 11.0999 63.482 11.0973 63.5053C11.0926 63.5428 11.0926 63.5808 11.0973 63.6184C11.0973 63.6536 11.1062 63.688 11.123 63.7189C11.123 63.7189 11.123 63.679 11.123 63.6184C11.1225 63.582 11.1258 63.5458 11.1326 63.5099C11.1326 63.4733 11.1614 63.4223 11.1952 63.4398C11.2288 63.4574 11.2304 63.5131 11.2304 63.5499C11.2275 63.5851 11.2173 63.6193 11.2 63.6504C11.1789 63.679 11.1547 63.7052 11.1278 63.7284Z" fill="#263238"/>
<path d="M9.3125 62.0208C9.3125 62.0208 9.36707 62.0574 9.43926 62.1323C9.53321 62.231 9.59814 62.3534 9.62693 62.4863C9.65352 62.6195 9.64235 62.7575 9.5948 62.8849C9.55796 62.9838 9.51778 63.0364 9.52262 63.0443C9.5347 63.0338 9.54495 63.0214 9.55313 63.0077C9.57707 62.9733 9.59688 62.9364 9.61242 62.8977C9.66791 62.7679 9.68253 62.6244 9.65421 62.4863C9.62531 62.3484 9.55531 62.2224 9.45365 62.1243C9.42337 62.0949 9.38998 62.0687 9.35418 62.0462C9.34209 62.0352 9.32793 62.0265 9.3125 62.0208Z" fill="#263238"/>
<path d="M10.1114 61.439C9.99738 61.5488 9.8902 61.6654 9.79049 61.7882C9.68457 61.9051 9.5851 62.0275 9.49219 62.1549C9.60686 62.0463 9.71405 61.9302 9.81306 61.8073C9.91875 61.6897 10.0183 61.5668 10.1114 61.439Z" fill="#263238"/>
<path d="M9.88477 63.0652C9.95338 63.1546 10.0331 63.2351 10.1222 63.3044C10.2054 63.3813 10.2988 63.4468 10.3996 63.4988C10.3996 63.4988 10.2825 63.4032 10.1414 63.2837C10.0002 63.1641 9.89121 63.054 9.88477 63.0652Z" fill="#263238"/>
<path d="M9.53811 62.7767C9.53811 62.7767 9.52694 62.8085 9.51727 62.8452C9.5076 62.8818 9.49321 62.909 9.49965 62.9138C9.5061 62.9186 9.53178 62.8947 9.54456 62.8516C9.55734 62.8085 9.54617 62.7751 9.53811 62.7767Z" fill="#263238"/>
<path d="M9.5425 62.5056C9.53444 62.5056 9.53121 62.5342 9.53444 62.5678C9.53766 62.6012 9.5456 62.6283 9.55366 62.6283C9.56172 62.6283 9.56495 62.5996 9.55366 62.5662C9.5425 62.5326 9.55056 62.5056 9.5425 62.5056Z" fill="#263238"/>
<path d="M9.41602 62.2759C9.41602 62.2838 9.43697 62.303 9.45458 62.3332C9.4722 62.3635 9.48014 62.3939 9.4882 62.3939C9.49626 62.3939 9.50109 62.3571 9.47864 62.3189C9.45619 62.2806 9.41924 62.2695 9.41602 62.2759Z" fill="#263238"/>
<path d="M9.3125 62.1309C9.3125 62.1309 9.3125 62.1532 9.3125 62.1707C9.3125 62.1882 9.33656 62.1996 9.34301 62.1964C9.34945 62.1932 9.34301 62.174 9.34301 62.1565C9.34301 62.139 9.31895 62.1277 9.3125 62.1309Z" fill="#263238"/>
<path d="M15.815 37.9564C15.815 37.9564 15.0466 41.1867 15.2648 41.8261C15.4829 42.4654 16.8897 42.8337 16.8897 42.8337L16.8416 51.681L9.05859 61.2475L11.9299 63.5818C11.9299 63.5818 20.3577 54.0009 21.1004 52.2615C21.8431 50.5219 20.6192 37.8081 20.6192 37.8081L15.815 37.9564Z" fill="#263238"/>
<path d="M19.7897 36.6396L20.1698 63.5086L16.2125 63.5325L14.2251 41.6444C13.8048 41.2458 13.2129 40.5634 13.2948 39.0408L13.391 37.2726L19.7897 36.6396Z" fill="#263238"/>
<path d="M15.6191 53.1766C15.6249 53.1625 15.6325 53.1491 15.6416 53.1368C15.6624 53.1081 15.6865 53.0715 15.717 53.0268L16.0106 52.6138L17.0853 51.1343V51.155C16.9986 50.2222 16.8944 49.0918 16.7821 47.8721C16.6377 46.2777 16.5222 44.8268 16.4533 43.776C16.418 43.2515 16.3956 42.8273 16.3827 42.534C16.3827 42.3937 16.373 42.2806 16.3715 42.1944C16.3666 42.1553 16.3666 42.1156 16.3715 42.0764C16.3792 42.1153 16.3841 42.1548 16.3859 42.1944C16.3859 42.279 16.4019 42.3921 16.4132 42.5324C16.4373 42.8338 16.4693 43.2547 16.5111 43.7728C16.5944 44.8204 16.7196 46.2665 16.8639 47.8642C16.9714 49.0886 17.0805 50.2174 17.1527 51.155V51.1661V51.1757L16.0539 52.6362L15.7443 53.0395L15.6608 53.1432C15.6272 53.1687 15.6191 53.1782 15.6191 53.1766Z" fill="#455A64"/>
<path d="M16.8304 42.0763C16.4764 42.0576 16.1249 42.0042 15.7813 41.9169C15.4319 41.8581 15.0889 41.7652 14.7578 41.6394C15.1085 41.6841 15.4561 41.7496 15.7989 41.8355C16.1471 41.8962 16.4916 41.9765 16.8304 42.0763Z" fill="#455A64"/>
<path d="M19.5418 51.2553C19.2002 51.1144 18.8407 51.0212 18.4735 50.9779C18.1034 50.9632 17.7332 50.9991 17.373 51.0847C17.4671 51.0258 17.5716 50.9851 17.681 50.9652C17.9426 50.8974 18.2137 50.8737 18.4831 50.8951C18.7508 50.9164 19.0131 50.9816 19.2595 51.0879C19.3629 51.1265 19.4585 51.1832 19.5418 51.2553Z" fill="#455A64"/>
<path d="M20.9383 52.496C20.9559 52.5103 19.8427 53.9962 18.4504 55.8139C17.058 57.6315 15.9143 59.0968 15.8967 59.0841C15.8791 59.0712 16.9923 57.5837 18.3846 55.7645C19.777 53.9453 20.9207 52.4815 20.9383 52.496Z" fill="#455A64"/>
<path d="M20.4033 38.6341C20.3577 38.7505 20.2805 38.852 20.1803 38.9276C20.0658 39.0273 19.9316 39.1024 19.7863 39.1483C19.641 39.1941 19.4879 39.2095 19.3363 39.1936C19.1848 39.1777 19.0382 39.1309 18.9057 39.0561C18.7733 38.9811 18.6578 38.8798 18.5666 38.7585C18.4818 38.6653 18.4261 38.5495 18.4062 38.4253C18.468 38.5273 18.5354 38.6258 18.6083 38.7202C18.7917 38.9412 19.055 39.0816 19.3415 39.1115C19.628 39.1412 19.9148 39.058 20.1402 38.8797C20.2322 38.8025 20.32 38.7205 20.4033 38.6341Z" fill="#455A64"/>
<path d="M14.9922 24.8089C14.3401 24.1931 13.9557 23.3485 13.9206 22.4551C13.8856 21.5618 14.2028 20.6901 14.8046 20.0256" fill="#263238"/>
<path d="M12.7683 27.3154C12.7683 27.3154 11.9085 28.2817 11.7305 31.9759C11.7305 31.9759 14.1799 32.4383 14.2248 32.306C14.2697 32.1736 12.7683 27.3154 12.7683 27.3154Z" fill="#0776F1"/>
<g opacity="0.3">
<path d="M12.7683 27.3154C12.7683 27.3154 11.9085 28.2817 11.7305 31.9759C11.7305 31.9759 14.1799 32.4383 14.2248 32.306C14.2697 32.1736 12.7683 27.3154 12.7683 27.3154Z" fill="black"/>
</g>
<path d="M13.1659 38.0761H20.6875L20.5655 36.9074C20.5655 36.9074 19.7057 32.4652 19.7122 32.4063L19.8469 32.1241C20.0227 31.7576 20.1166 31.3577 20.1225 30.9518C20.1283 30.5459 20.0458 30.1437 19.8806 29.7724L23.57 28.5207L22.6685 25.501C20.997 25.7801 18.4706 26.094 18.4706 26.094L18.0953 26.1244C18.0953 26.1244 15.4871 26.2598 15.4309 26.2662C14.3401 26.3985 13.0713 26.4815 12.6076 27.6422C12.3591 28.2624 12.5949 29.1935 13.0007 30.1534L13.9631 33.103C14.3481 34.7246 13.7337 34.6464 13.3953 36.2791C13.3408 36.5246 13.1611 37.8497 13.1659 38.0761Z" fill="#0776F1"/>
<g opacity="0.3">
<path d="M13.1659 38.0761H20.6875L20.5655 36.9074C20.5655 36.9074 19.7057 32.4652 19.7122 32.4063L19.8469 32.1241C20.0227 31.7576 20.1166 31.3577 20.1225 30.9518C20.1283 30.5459 20.0458 30.1437 19.8806 29.7724L23.57 28.5207L22.6685 25.501C20.997 25.7801 18.4706 26.094 18.4706 26.094L18.0953 26.1244C18.0953 26.1244 15.4871 26.2598 15.4309 26.2662C14.3401 26.3985 13.0713 26.4815 12.6076 27.6422C12.3591 28.2624 12.5949 29.1935 13.0007 30.1534L13.9631 33.103C14.3481 34.7246 13.7337 34.6464 13.3953 36.2791C13.3408 36.5246 13.1611 37.8497 13.1659 38.0761Z" fill="black"/>
</g>
<path d="M23.5291 28.5703C23.4782 28.5987 23.4244 28.6217 23.3687 28.6389C23.2628 28.6771 23.1072 28.7297 22.9147 28.7983C22.5297 28.9275 21.9939 29.098 21.4036 29.2861C20.8134 29.4742 20.2808 29.661 19.9119 29.814C19.7226 29.8906 19.5733 29.9574 19.469 30.002C19.4184 30.0298 19.3645 30.0515 19.3086 30.066C19.3552 30.0291 19.4059 29.9976 19.4595 29.9718C19.5605 29.9193 19.7065 29.8427 19.8925 29.7598C20.3789 29.5492 20.8763 29.3648 21.3828 29.2081C21.9747 29.0199 22.5057 28.8573 22.9019 28.7424C23.096 28.6851 23.2546 28.6405 23.3638 28.6101C23.417 28.5901 23.4726 28.5767 23.5291 28.5703Z" fill="#263238"/>
</svg>
