<svg width="90" height="89" viewBox="0 0 90 89" fill="none" xmlns="http://www.w3.org/2000/svg">
<path d="M45.0003 69.5739L43.4134 67.5988C38.6528 61.7276 23.1396 41.7874 23.1396 31.6143C23.1396 19.6826 32.9619 9.99658 45.0003 9.99658C57.0387 9.99658 66.8609 19.7097 66.8609 31.6143C66.8609 41.7603 51.3478 61.7276 46.5872 67.5988L45.0003 69.5739ZM45.0003 14.0279C35.2054 14.0279 27.2163 21.9283 27.2163 31.6143C27.2163 38.243 36.464 52.231 45.0003 63.0534C53.5366 52.231 62.7843 38.216 62.7843 31.6143C62.7843 21.9283 54.7952 14.0279 45.0003 14.0279Z" fill="#DEDEDE"/>
<path d="M62.8253 78.6922H27.2026C25.862 78.6922 24.7676 77.61 24.7676 76.2842C24.7676 74.9582 25.862 73.876 27.2026 73.876H62.7974C64.1383 73.876 65.2327 74.9582 65.2327 76.2842C65.2598 77.61 64.1657 78.6922 62.8253 78.6922Z" fill="#20C9A7"/>
<path d="M43.0303 35.7334H46.9975V41.6045H43.0303V35.7334Z" fill="#DEDEDE"/>
<path d="M37.0658 30.8026V41.598H41.033V34.7257C41.033 34.1846 41.4707 33.7517 42.0179 33.7517H47.9551C48.5023 33.7517 48.94 34.1846 48.94 34.7257V41.598H52.9346V30.8026C52.9346 30.2615 53.3723 29.8286 53.9195 29.8286H56.8197L45.0002 22.2529L33.1807 29.8286H36.0808C36.628 29.8286 37.0658 30.2615 37.0658 30.8026Z" fill="#20C9A7"/>
</svg>
