<svg width="169" height="168" viewBox="0 0 169 168" fill="none" xmlns="http://www.w3.org/2000/svg">
<path fill-rule="evenodd" clip-rule="evenodd" d="M59.0701 42.6711C68.8303 39.4965 78.7472 44.8491 88.641 47.4383C96.8016 49.5739 104.589 51.7839 111.612 56.4212C119.775 61.812 131.287 66.4981 132.242 76.2317C133.211 86.104 121.883 92.4214 115.931 100.423C111.518 106.354 107.221 111.752 101.954 116.948C94.5287 124.272 89.3007 136.486 78.894 136.955C68.6393 137.417 61.4914 126.893 54.9436 119.067C49.1845 112.183 47.0417 103.64 43.968 95.2072C40.2682 85.0565 32.1783 75.252 35.1746 64.8288C38.2404 54.1635 48.4806 46.1155 59.0701 42.6711Z" fill="#02C650" fill-opacity="0.09"/>
<path d="M58.2055 81.3748L59.4915 122.516C59.6281 126.885 63.2811 130.317 67.6505 130.18L109.393 128.876C111.989 128.794 114.46 129.992 116.004 132.081L128.422 148.873L127.779 128.301L126.246 79.2478C126.109 74.8782 122.456 71.447 118.087 71.5836L65.8697 73.2159C61.5004 73.3525 58.0689 77.0052 58.2055 81.3748Z" fill="#33658A"/>
<path d="M49.2786 58.1453C44.9406 58.0651 41.3591 61.5167 41.2788 65.8545L40.3778 114.554L39.9999 134.978L52.1108 118.156C53.6173 116.064 56.0542 114.844 58.6316 114.891L100.073 115.658C104.411 115.738 107.992 112.287 108.073 107.949L108.828 67.1043C108.909 62.7664 105.457 59.1847 101.119 59.1044L49.2786 58.1453Z" fill="#02C650"/>
<path d="M55.0204 100.687C55.0204 100.687 74.8835 101.055 86.3743 101.267" stroke="white" stroke-width="6.78" stroke-linejoin="round"/>
<path d="M55.2823 86.532C55.2823 86.532 67.5602 86.7592 78.3944 86.9596" stroke="white" stroke-width="6.78" stroke-linejoin="round"/>
<path d="M55.5441 72.377C55.5441 72.377 83.9502 72.9025 92.4739 73.0602" stroke="white" stroke-width="6.78" stroke-linejoin="round"/>
</svg>
