<svg width="9" height="17" viewBox="0 0 9 17" fill="none" xmlns="http://www.w3.org/2000/svg">
<path d="M0.268945 15.3177C-0.107889 15.7214 -0.0860689 16.3542 0.317682 16.7311C0.721432 17.1079 1.35422 17.0861 1.73106 16.6823L0.268945 15.3177ZM1.73105 0.317681C1.35422 -0.0860691 0.721432 -0.107889 0.317681 0.268945C-0.0860695 0.645779 -0.10789 1.27857 0.268944 1.68232L1.73105 0.317681ZM8 8.5L8.73105 9.18232C9.08965 8.79811 9.08965 8.20189 8.73105 7.81768L8 8.5ZM1.73106 16.6823L8.73105 9.18232L7.26894 7.81768L0.268945 15.3177L1.73106 16.6823ZM8.73105 7.81768L1.73105 0.317681L0.268944 1.68232L7.26894 9.18232L8.73105 7.81768Z" fill="#02C650"/>
</svg>
