<svg width="456" height="398" viewBox="0 0 456 398" fill="none" xmlns="http://www.w3.org/2000/svg">
<path d="M252.839 119.705C248.248 118.905 244.225 121.859 243.063 125.726C241.374 131.351 230.468 173.893 235.254 180.829C240.04 187.765 246.794 182.829 251.677 167.216C254.091 159.5 258.873 139.054 258.294 129.48C258.045 125.369 252.839 119.705 252.839 119.705Z" fill="#2E5EB1"/>
<path d="M230.385 189.223C228.636 188.618 228.008 186.199 228.982 183.82C229.956 181.44 232.163 180.001 233.912 180.606C235.66 181.211 236.289 183.63 235.315 186.01C234.342 188.389 232.134 189.827 230.385 189.223Z" fill="white"/>
<path d="M230.385 189.223C228.636 188.618 228.008 186.199 228.982 183.82C229.956 181.44 232.163 180.001 233.912 180.606C235.66 181.211 236.289 183.63 235.315 186.01C234.342 188.389 232.134 189.827 230.385 189.223Z" stroke="#2E5EB1" stroke-width="0.59" stroke-miterlimit="10"/>
<path d="M229.72 188.861L204.743 176.407L206.529 172.219L234.986 180.881L229.72 188.861Z" fill="white"/>
<path d="M229.72 188.861L204.743 176.407L206.529 172.219L234.986 180.881L229.72 188.861Z" stroke="#2E5EB1" stroke-width="0.59" stroke-miterlimit="10"/>
<path d="M204.537 176.887C203.583 176.541 203.259 175.21 203.812 173.914C204.365 172.617 205.587 171.846 206.541 172.192C207.494 172.538 207.819 173.869 207.266 175.165C206.713 176.462 205.49 177.232 204.537 176.887Z" fill="white"/>
<path d="M204.537 176.887C203.583 176.541 203.259 175.21 203.812 173.914C204.365 172.617 205.587 171.846 206.541 172.192C207.494 172.538 207.819 173.869 207.266 175.165C206.713 176.462 205.49 177.232 204.537 176.887Z" stroke="#2E5EB1" stroke-width="0.59" stroke-miterlimit="10"/>
<path d="M243.897 183.333C231.705 177.569 210.06 171.016 210.06 171.016L207.294 179.347C207.294 179.347 209.664 180.753 210.539 181.812C211.36 182.804 211.52 181.931 213.37 182.838C216.571 184.407 224.313 187.992 231.325 191.347C233.612 192.441 237.361 193.063 239.35 193.988L243.164 192.762L243.897 183.333Z" fill="#2E5EB1"/>
<path d="M208.394 173.516C207.876 172.478 206.748 171.959 205.661 172.151C205.661 172.15 205.658 172.141 205.658 172.141L205.578 172.166C205.447 172.194 205.318 172.235 205.19 172.285L196.128 175.071C196.128 175.071 190.891 180.119 189.955 182.475C189.795 182.879 190.996 183.777 191.049 183.942C191.049 183.942 196.118 180.911 198.405 180C199.277 179.653 200.332 179.329 201.331 179.056C201.22 179.207 201.141 179.314 201.141 179.314L199.91 179.475L198.569 180.416L198.296 181.14L199.056 181.303C199.056 181.303 203.315 179.678 203.514 179.532C203.634 179.445 204.275 178.787 204.848 178.148C205.391 177.9 207.393 176.978 207.441 176.836C207.442 176.835 207.439 176.826 207.44 176.823C208.555 176.138 208.99 174.71 208.394 173.516Z" fill="white"/>
<path d="M208.394 173.516C207.876 172.478 206.748 171.959 205.661 172.151C205.661 172.15 205.658 172.141 205.658 172.141L205.578 172.166C205.447 172.194 205.318 172.235 205.19 172.285L196.128 175.071C196.128 175.071 190.891 180.119 189.955 182.475C189.795 182.879 190.996 183.777 191.049 183.942C191.049 183.942 196.118 180.911 198.405 180C199.277 179.653 200.332 179.329 201.331 179.056C201.22 179.207 201.141 179.314 201.141 179.314L199.91 179.475L198.569 180.416L198.296 181.14L199.056 181.303C199.056 181.303 203.315 179.678 203.514 179.532C203.634 179.445 204.275 178.787 204.848 178.148C205.391 177.9 207.393 176.978 207.441 176.836C207.442 176.835 207.439 176.826 207.44 176.823C208.555 176.138 208.99 174.71 208.394 173.516Z" stroke="#2E5EB1" stroke-width="0.59" stroke-miterlimit="10"/>
<path d="M156.704 295.864H161.775L105.272 190.88H99.5908L156.704 295.864Z" fill="#252C38"/>
<path d="M158.027 295.864H163.098L106.595 190.88H100.914L158.027 295.864Z" fill="#252C38"/>
<path d="M198.734 218.683L255.038 223.775L254.899 195.302L197.384 198.666C196.827 205.277 197.997 212.13 198.734 218.683Z" fill="#0D162B"/>
<path d="M200.925 201.118L200.912 200.861L233.793 199.249L233.806 199.506L200.925 201.118Z" fill="#0A0B0F"/>
<path d="M198.946 218.409C193.472 219.148 188.434 215.311 187.695 209.837C186.955 204.363 190.794 199.325 196.268 198.585C201.742 197.845 206.78 201.684 207.52 207.158C208.259 212.633 204.421 217.67 198.946 218.409Z" fill="#0D162B"/>
<path d="M166.02 261.564L160.673 269.656L154.413 266.668L159.413 258.411L166.02 261.564Z" fill="white"/>
<path d="M166.02 261.564L160.673 269.656L154.413 266.668L159.413 258.411L166.02 261.564Z" stroke="#2E5EB1" stroke-width="0.59" stroke-miterlimit="10"/>
<path d="M155.591 263.594L162.993 267.907L160.787 272.531L159.496 271.915L158.52 273.366C158.52 273.366 156.198 274.415 154.525 273.326C152.51 272.014 151.924 269.792 151.924 269.792L152.903 268.485C152.903 268.485 152.674 268.518 152.641 268.289C152.608 268.061 155.591 263.594 155.591 263.594Z" fill="#CFE6FF"/>
<path d="M160.787 272.531L152.902 268.485L158.764 273.003L159.203 272.352L160.787 272.531Z" fill="#101F51"/>
<path d="M205.067 215.519L187.707 205.767L155.454 260.921L165.524 265.726L170.121 262.42L169.121 260.842L205.067 215.519Z" fill="#0D162B"/>
<path d="M205.637 214.324C203.258 219.309 197.287 221.423 192.302 219.043C187.316 216.663 185.203 210.694 187.582 205.708C189.962 200.722 195.932 198.61 200.917 200.989C205.903 203.368 208.016 209.338 205.637 214.324Z" fill="#0D162B"/>
<path d="M158.352 262.319L158.131 262.185L191.028 207.616L191.248 207.748L158.352 262.319Z" fill="#0A0B0F"/>
<path d="M132.185 266.722L131.484 267.555L147.507 276.184L149.04 276.051L149.14 277.558L154.129 281.045L155.552 279.354L151.223 275.712L144.885 270.38L132.185 266.722Z" fill="#141F36"/>
<path d="M158.397 274.382L158.15 276.267L155.552 279.355L154.5 279.808L149.622 276.457L149.601 275.686C149.601 275.686 148.585 275.5 148.25 275.302C147.915 275.104 132.187 266.723 132.187 266.723L133.665 265.033L146.242 267.84L152.911 269.264L158.397 274.382Z" fill="#143E6C"/>
<path d="M150.163 268.678L152.003 271.139L151.374 271.069L149.434 268.522L150.163 268.678Z" fill="#141F36"/>
<path d="M148.562 268.376L150.402 270.836L149.773 270.766L147.832 268.22L148.562 268.376Z" fill="#141F36"/>
<path d="M288.927 290.864H280.209C280.347 288.576 282.246 286.765 284.57 286.765C286.896 286.765 288.79 288.576 288.927 290.864Z" fill="#0D162B"/>
<path d="M287.957 292.112C287.957 293.984 286.441 295.501 284.569 295.501C282.697 295.501 281.181 293.984 281.181 292.112C281.181 290.241 282.697 288.723 284.569 288.723C286.441 288.723 287.957 290.241 287.957 292.112Z" fill="#0D162B"/>
<path d="M262.894 292.112C262.894 293.982 261.378 295.501 259.505 295.501C259.24 295.501 258.98 295.472 258.732 295.412H258.728C257.233 295.057 256.119 293.712 256.119 292.112C256.119 290.242 257.634 288.722 259.505 288.722C261.08 288.722 262.403 289.794 262.784 291.25C262.855 291.523 262.894 291.813 262.894 292.112Z" fill="#0D162B"/>
<path d="M260.049 279.204H250.242V227.265H260.049V279.204Z" fill="#383E52"/>
<path d="M260.9 282.498H249.188V267.464C249.188 266.932 249.62 266.499 250.153 266.499H259.935C260.468 266.499 260.9 266.932 260.9 267.464V282.498Z" fill="#0D162B"/>
<path d="M222.56 287.385H253.084V281.119L222.56 284.533V287.385Z" fill="#0D162B"/>
<path d="M287.741 287.385H257.216V281.119L287.741 284.533V287.385Z" fill="#0D162B"/>
<path d="M252.002 280.68V287.385L259.15 290.097L259.316 285.388L257.215 281.119L252.002 280.68Z" fill="#0D162B"/>
<path d="M259.15 290.097H262.854V285.388L259.316 281.795H253.084L259.316 285.388L259.15 290.097Z" fill="#1B2B44"/>
<path d="M260.049 237.07C257.342 234.362 252.95 234.362 250.242 237.07V227.264H260.049V237.07Z" fill="#252C38"/>
<path d="M263.01 233.525H247.284C244.58 233.525 242.389 231.334 242.389 228.63V226.409H267.905V228.63C267.905 231.334 265.713 233.525 263.01 233.525Z" fill="#383E52"/>
<path d="M229.568 290.864H220.85C220.987 288.576 222.885 286.765 225.211 286.765C227.536 286.765 229.43 288.576 229.568 290.864Z" fill="#0D162B"/>
<path d="M263.864 290.864H255.146C255.283 288.576 257.182 286.765 259.507 286.765C261.832 286.765 263.726 288.576 263.864 290.864Z" fill="#0D162B"/>
<path d="M259.702 286.587L259.266 286.776C259.266 286.776 261.035 288.453 260.049 290.864H263.864C263.864 290.864 264.363 287.12 259.702 286.587Z" fill="#1B2B44"/>
<path d="M262.894 292.112C262.894 293.982 261.378 295.501 259.505 295.501C259.24 295.501 258.979 295.472 258.731 295.412L259.081 295.408C261.323 295.463 262.245 292.927 260.751 291.25H262.783C262.855 291.523 262.894 291.813 262.894 292.112Z" fill="#1B2B44"/>
<path d="M108.392 295.864H103.32L152.756 190.88H158.437L108.392 295.864Z" fill="#252C38"/>
<path d="M109.857 295.864H104.785L154.221 190.88H159.902L109.857 295.864Z" fill="#252C38"/>
<path d="M295.427 220.855H209.754C208.917 220.855 208.232 221.54 208.232 222.378V227.666C208.232 228.503 208.917 229.189 209.754 229.189H295.427C296.264 229.189 296.949 228.503 296.949 227.666V222.378C296.949 221.54 296.264 220.855 295.427 220.855Z" fill="#0D162B"/>
<path d="M258.131 223.691C250.328 224.748 243.146 219.277 242.09 211.474C241.033 203.671 246.502 196.488 254.307 195.431C262.11 194.376 269.292 199.845 270.349 207.649C271.405 215.452 265.935 222.635 258.131 223.691Z" fill="#0D162B"/>
<path d="M267.653 220.917C273.842 221.506 278.728 212.957 284.934 213.152L281.297 193.81L237.915 189.351L232.311 211.255C241.873 223.087 256.339 219.843 267.653 220.917Z" fill="#141F36"/>
<path d="M279.278 111.711L277.574 122.882C277.05 127.305 273.158 130.437 269.145 130.125C264.735 129.781 261.206 125.359 262.079 120.517C262.647 116.793 263.215 113.069 263.784 109.346C264.605 105.302 268.318 102.554 272.191 102.901C276.407 103.278 279.721 107.224 279.278 111.711Z" fill="white"/>
<path d="M279.278 111.711L277.574 122.882C277.05 127.305 273.158 130.437 269.145 130.125C264.735 129.781 261.206 125.359 262.079 120.517C262.647 116.793 263.215 113.069 263.784 109.346C264.605 105.302 268.318 102.554 272.191 102.901C276.407 103.278 279.721 107.224 279.278 111.711Z" stroke="#2E5EB1" stroke-width="0.59" stroke-miterlimit="10"/>
<path d="M272.331 118.915C272.185 118.915 271.457 118.884 270.873 118.299C270.345 117.77 270.098 116.956 270.14 115.88L270.383 115.889C270.344 116.895 270.566 117.648 271.045 118.128C271.609 118.692 272.343 118.671 272.346 118.672L272.356 118.915C272.353 118.915 272.345 118.915 272.331 118.915Z" fill="#0A131D"/>
<path d="M279.278 111.711L278.559 116.421C277.274 116.813 275.913 116.913 274.575 116.708L270.118 116.028C268.749 115.819 267.445 115.298 266.319 114.511L265.948 114.251C264.906 113.524 264.059 112.603 263.445 111.563L263.783 109.346L279.278 111.711Z" fill="#101F51"/>
<path d="M219.885 213.311C218.882 213.311 219.017 211.761 220.009 211.761H220.186C219.259 207.965 215.984 205.019 211.876 204.702C210.633 204.607 209.427 204.759 208.31 205.12C204.83 206.243 202.197 209.377 201.898 213.249C201.503 218.364 205.329 222.832 210.445 223.227C215.56 223.622 220.027 219.795 220.422 214.68C220.459 214.217 220.459 213.76 220.428 213.311H219.885Z" fill="#141F36"/>
<path d="M271.992 199.945C264.688 199.381 258.308 204.846 257.743 212.15C257.179 219.455 262.644 225.834 269.949 226.398C277.253 226.962 283.633 221.498 284.197 214.193C284.761 206.888 279.297 200.509 271.992 199.945Z" fill="#141F36"/>
<path d="M272.458 226.352C272.718 219.775 270.268 212.96 270.92 206.403C271.138 204.216 271.299 202.026 271.422 199.836C270.605 199.917 269.813 199.94 269.003 199.867L208.621 205.027L210.06 223.189L268.522 226.41L272.458 226.352Z" fill="#141F36"/>
<path d="M268.201 219.018C260.881 218.915 253.464 218.943 246.29 218.972C236.164 219.01 225.692 219.051 215.449 218.722L215.457 218.466C225.696 218.794 236.165 218.755 246.289 218.715C253.464 218.689 260.882 218.66 268.203 218.762L268.201 219.018Z" fill="#0A0B0F"/>
<path d="M219.187 272.128L218.231 281.779L211.301 282.057L211.871 272.421L219.187 272.128Z" fill="white"/>
<path d="M219.187 272.128L218.231 281.779L211.301 282.057L211.871 272.421L219.187 272.128Z" stroke="#2E5EB1" stroke-width="0.59" stroke-miterlimit="10"/>
<path d="M210.909 278.788L219.469 279.15L219.673 284.268L218.246 284.326L218.059 286.064L210.557 285.981L210.812 284.368C210.812 284.368 210.626 284.504 210.49 284.316C210.354 284.129 210.909 278.788 210.909 278.788Z" fill="#CFE6FF"/>
<path d="M193.247 294.365L193.291 295.453L211.228 294.734L212.272 293.603L213.361 294.649L219.396 293.863L219.309 291.654L213.656 291.881L205.38 292.212L193.247 294.365Z" fill="#141F36"/>
<path d="M219.674 284.269L210.812 284.368L218.106 285.63L218.19 284.85L219.674 284.269Z" fill="#101F51"/>
<path d="M218.058 286.064L219.146 287.623L219.308 291.655L218.837 292.698L212.973 293.51L212.438 292.955C212.438 292.955 211.563 293.502 211.181 293.582C210.8 293.661 193.246 294.365 193.246 294.365L193.199 292.12L204.67 289.421L210.556 285.981L218.058 286.064Z" fill="#143E6C"/>
<path d="M208.132 287.398L211.149 287.976L210.637 288.348L207.488 287.775L208.132 287.398Z" fill="#141F36"/>
<path d="M206.745 288.254L209.762 288.833L209.25 289.205L206.102 288.631L206.745 288.254Z" fill="#141F36"/>
<path d="M221.233 215.748L221.281 220.894L220.871 277.137H208.16L203.084 220.465L202.71 215.496L221.233 215.748Z" fill="#141F36"/>
<path d="M212.635 205.46C207.516 205.109 203.083 208.974 202.732 214.093C202.647 215.337 202.81 216.54 203.18 217.655C204.334 221.125 207.49 223.73 211.364 223.997C212.287 224.059 213.186 223.984 214.044 223.791C213.928 223.563 213.818 223.333 213.694 223.11C213.206 222.235 214.617 221.584 215.102 222.453C215.26 222.736 215.402 223.026 215.546 223.315C218.703 222.008 221.019 219.003 221.268 215.363C221.619 210.245 217.754 205.81 212.635 205.46Z" fill="#141F36"/>
<path d="M216.473 277.143C215.749 261.64 216 245.808 216.241 230.497C216.31 226.175 216.38 221.705 216.428 217.298L216.685 217.301C216.637 221.709 216.566 226.178 216.498 230.501C216.256 245.808 216.005 261.635 216.729 277.131L216.473 277.143Z" fill="#0A0B0F"/>
<path d="M258.262 129.508C257.517 134.385 253.434 137.808 249.141 137.153C244.848 136.498 241.972 132.013 242.716 127.137C243.46 122.259 247.544 118.837 251.837 119.492C256.129 120.146 259.006 124.632 258.262 129.508Z" fill="#2E5EB1"/>
<path d="M246.018 178.045C245.457 181.715 242.385 184.29 239.155 183.797C235.925 183.304 233.76 179.93 234.321 176.26C234.88 172.591 237.953 170.015 241.183 170.509C244.413 171.002 246.577 174.376 246.018 178.045Z" fill="#2E5EB1"/>
<path d="M292.432 169.091C290.973 165 287.738 154.471 289.218 145.08L289.43 145.113C287.958 154.455 291.181 164.943 292.636 169.018L292.432 169.091Z" fill="#101F51"/>
<path d="M288.664 148.794C288.354 148.164 288.156 146.929 287.945 145.622C287.747 144.39 287.542 143.117 287.248 142.52L287.472 142.411C287.782 143.04 287.98 144.276 288.19 145.583C288.388 146.815 288.593 148.087 288.887 148.683L288.664 148.794Z" fill="#4F2D4D"/>
<path d="M238.502 193.949C236.287 193.17 235.506 190.098 236.756 187.085C238.006 184.072 240.815 182.26 243.031 183.038C245.246 183.816 246.028 186.89 244.777 189.903C243.527 192.916 240.718 194.726 238.502 193.949Z" fill="#2E5EB1"/>
<path d="M277.072 123.846L267.856 140.233L254.678 144.143L253.009 128.107L261.578 121.481L269.454 122.683L277.072 123.846Z" fill="#2E5EB1"/>
<path d="M277.072 123.845C277.072 123.845 269.385 133.432 264.779 131.702C260.172 129.97 261.578 121.48 261.578 121.48L249.318 119.569L246.377 140.688L242.896 157.446L237.655 179.205L236.838 180.521L234.757 185.773L234.072 190.007L234.763 191.211L235.453 192.167L244.914 194.823L258.788 195.342L270.66 198.015L282.11 198.902L285.161 194.611L288.774 163.446L296.694 127.793C295.687 127.025 294.114 124.503 292.848 124.5C287.544 124.483 282.306 124.866 277.072 123.845Z" fill="#2E5EB1"/>
<path d="M245.852 140.957L245.67 136.81L245.88 136.801L246.02 140.014C246.856 137.942 247.333 135.762 247.439 133.524L247.651 133.535C247.535 135.954 246.99 138.309 246.033 140.533L245.852 140.957Z" fill="#101F51"/>
<path d="M235.364 192.224L233.962 190.03L233.967 189.992C233.97 189.969 234.286 187.628 234.745 185.935C235.208 184.241 236.479 181.56 236.492 181.532L238.313 178.062L245.203 145.588L245.41 145.633L238.507 178.147L236.681 181.627C236.67 181.65 235.407 184.314 234.95 185.991C234.525 187.552 234.225 189.674 234.181 189.983L235.542 192.111L235.364 192.224Z" fill="#101F51"/>
<path d="M282.95 207.292C280.195 205.759 276.856 202.638 276.032 199.413L276.268 199.353C277.074 202.509 280.357 205.57 283.068 207.08L282.95 207.292Z" fill="#0A0B0F"/>
<path d="M282.689 124.484C282.689 124.484 266.753 139.664 263.904 144.998C262.456 147.708 261.225 151.988 260.364 155.542C260.198 156.227 259.192 156.109 259.19 155.404C259.182 151.73 259.002 147.234 258.302 144.143C256.851 137.736 256.013 120.238 256.013 120.238L269.569 120.935L282.689 124.484Z" fill="white"/>
<path d="M258.684 195.351C258.592 194.25 256.463 168.329 257.723 163.985C257.872 163.47 257.948 162.763 258.036 161.944C258.173 160.674 258.329 159.234 258.808 157.861C258.895 157.613 258.899 157.296 258.904 156.96C258.91 156.614 258.914 156.257 259.018 155.963C259.542 154.487 260.002 152.336 260.386 149.572C261.338 142.721 263.201 136.077 265.923 129.826L269.472 121.67L269.666 121.753L266.116 129.91C263.403 136.145 261.545 142.769 260.595 149.6C260.209 152.379 259.746 154.544 259.218 156.034C259.125 156.294 259.121 156.635 259.116 156.965C259.111 157.301 259.105 157.65 259.007 157.93C258.536 159.281 258.382 160.708 258.247 161.967C258.156 162.796 258.08 163.511 257.925 164.044C256.676 168.35 258.872 195.065 258.895 195.334L258.684 195.351Z" fill="#101F51"/>
<path d="M259.192 158.271L259.042 158.121C259.195 157.967 259.979 157.192 260.279 157.115C260.355 157.032 260.595 156.178 260.849 155.274C261.325 153.582 262.043 151.027 263.018 148.864C264.709 145.113 268.517 140.127 272.28 136.739C275.924 133.459 283.186 124.534 283.258 124.444L283.423 124.577C283.35 124.667 276.077 133.606 272.421 136.896C268.678 140.266 264.89 145.223 263.211 148.951C262.243 151.099 261.527 153.646 261.053 155.331C260.595 156.957 260.492 157.278 260.332 157.32C260.142 157.368 259.532 157.929 259.192 158.271Z" fill="#101F51"/>
<path d="M259.238 157.146C259.219 157.124 259.033 156.891 258.406 155.432C258.058 154.621 257.906 153.093 257.676 150.778C257.479 148.807 257.21 146.107 256.704 142.752C256.102 138.757 255.695 132.861 255.369 128.126C255.101 124.259 254.891 121.206 254.67 120.473L254.873 120.411C255.101 121.167 255.312 124.231 255.579 128.11C255.906 132.843 256.312 138.734 256.914 142.721C257.42 146.081 257.689 148.784 257.886 150.757C258.114 153.052 258.265 154.567 258.601 155.349C259.21 156.768 259.39 156.999 259.398 157.008L259.238 157.146Z" fill="#101F51"/>
<path d="M271.055 127.288L269.568 120.935L279.312 119.876L280.117 124.335L271.055 127.288Z" fill="#101F51"/>
<path d="M269.569 120.935L271.755 126.182L280.117 124.335L279.312 119.876L269.569 120.935Z" fill="white"/>
<path d="M266.675 126.62L269.987 120.999L261.005 117.082L258.907 121.098L266.675 126.62Z" fill="#101F51"/>
<path d="M269.989 120.998L266.338 125.356L258.907 121.098L261.006 117.082L269.989 120.998Z" fill="white"/>
<path d="M259.898 156.078H259.896C259.521 156.078 259.079 155.772 259.018 155.279C258.963 154.838 258.973 154.372 259.046 153.896C259.335 152.007 258.961 148.047 258.45 145.462C258.132 143.855 257.433 139.838 257.059 136.132C256.316 128.75 255.911 120.327 255.907 120.243L256.119 120.233C256.123 120.317 256.526 128.734 257.27 136.111C257.643 139.809 258.341 143.818 258.658 145.42C259.172 148.024 259.547 152.016 259.255 153.927C259.185 154.385 259.175 154.831 259.228 155.253C259.273 155.62 259.61 155.867 259.896 155.867H259.898C260.017 155.867 260.222 155.823 260.259 155.529C260.684 152.22 262.709 146.756 264.104 144.439C266.992 139.64 282.459 124.56 282.615 124.409L282.763 124.56C282.608 124.711 267.158 139.773 264.285 144.548C262.9 146.847 260.891 152.272 260.468 155.556C260.427 155.879 260.209 156.078 259.898 156.078Z" fill="#101F51"/>
<path d="M269.95 129.999C269.825 130.353 269.437 130.539 269.083 130.414C268.728 130.289 268.543 129.9 268.668 129.546C268.793 129.192 269.181 129.006 269.536 129.131C269.889 129.256 270.075 129.644 269.95 129.999Z" stroke="#101F51" stroke-width="0.292" stroke-miterlimit="10"/>
<path d="M268.472 134.185C268.347 134.539 267.959 134.726 267.605 134.6C267.251 134.475 267.066 134.086 267.19 133.732C267.315 133.378 267.703 133.192 268.057 133.317C268.412 133.443 268.598 133.831 268.472 134.185Z" stroke="#101F51" stroke-width="0.292" stroke-miterlimit="10"/>
<path d="M266.995 138.371C266.87 138.725 266.481 138.912 266.127 138.786C265.773 138.661 265.588 138.272 265.713 137.918C265.837 137.564 266.226 137.378 266.581 137.504C266.934 137.629 267.12 138.017 266.995 138.371Z" stroke="#101F51" stroke-width="0.292" stroke-miterlimit="10"/>
<path d="M239.36 193.574L238.805 192.071C238.352 191.222 238.015 190.308 237.811 189.374L238.015 189.314L238.998 191.985C239.044 192.07 239.091 192.155 239.138 192.239C239.18 190.44 239.498 188.67 240.09 186.966L240.29 187.035C239.669 188.826 239.35 190.692 239.345 192.585C239.48 192.802 239.623 193.013 239.773 193.218L239.603 193.343C239.516 193.223 239.431 193.102 239.348 192.979L239.36 193.574Z" fill="#101F51"/>
<path d="M272.465 197.795L272.392 197.597C273.287 197.268 274.146 196.83 274.942 196.297C275.409 195.704 276.01 195.215 276.687 194.885L277.275 194.6L276.807 195.056C276.281 195.571 275.704 196.039 275.089 196.453C275.019 196.543 274.954 196.634 274.891 196.727C276.683 195.906 278.254 194.563 279.338 192.92L279.514 193.036C278.345 194.808 276.623 196.237 274.664 197.058L274.378 197.178L274.53 196.908C274.561 196.855 274.592 196.803 274.624 196.751C273.94 197.168 273.214 197.52 272.465 197.795Z" fill="#101F51"/>
<path d="M250.968 194.339L250.774 194.197C249.539 193.293 248.393 192.26 247.366 191.127C247.466 192.269 248.207 193.362 249.243 193.854L249.152 194.045C247.939 193.469 247.132 192.18 247.144 190.836L247.146 190.56L247.328 190.767C248.342 191.916 249.477 192.964 250.706 193.884C250.376 190.759 250.304 187.588 250.492 184.453L250.703 184.465C250.511 187.668 250.591 190.91 250.942 194.101L250.968 194.339Z" fill="#101F51"/>
<path d="M266.831 195.452C266.78 195.452 266.727 195.451 266.677 195.447L266.693 195.236C267.262 195.282 267.861 195.046 268.25 194.624L268.404 194.768C268.008 195.197 267.417 195.452 266.831 195.452Z" fill="#101F51"/>
<path d="M280.697 197.708L280.562 197.545L282.488 195.962L282.622 196.126L280.697 197.708Z" fill="#101F51"/>
<path d="M185.606 186.25V186.33C185.678 186.464 185.716 186.618 185.716 186.771V187.197C185.716 187.324 185.675 187.437 185.612 187.535H263.734V186.25H185.606Z" fill="white"/>
<path d="M185.501 186.144V186.18C185.628 186.328 185.702 186.523 185.712 186.723V186.355H263.628V187.43H185.712V187.229C185.704 187.391 185.636 187.53 185.531 187.641H263.839V186.144H185.501Z" fill="#101F51"/>
<path d="M293.545 189.216C290.973 189.093 288.987 186.908 289.11 184.335C289.233 181.762 291.418 179.777 293.99 179.9C296.564 180.023 298.549 182.208 298.426 184.781C298.303 187.353 296.118 189.339 293.545 189.216Z" fill="white"/>
<path d="M293.545 189.216C290.973 189.093 288.987 186.908 289.11 184.335C289.233 181.762 291.418 179.777 293.99 179.9C296.564 180.023 298.549 182.208 298.426 184.781C298.303 187.353 296.118 189.339 293.545 189.216Z" stroke="#2E5EB1" stroke-width="0.59" stroke-miterlimit="10"/>
<path d="M265.289 185.235C263.879 185.168 262.79 183.971 262.857 182.561C262.925 181.15 264.122 180.062 265.532 180.129C266.942 180.197 268.03 181.395 267.963 182.805C267.896 184.215 266.699 185.303 265.289 185.235Z" fill="white"/>
<path d="M265.289 185.235C263.879 185.168 262.79 183.971 262.857 182.561C262.925 181.15 264.122 180.062 265.532 180.129C266.942 180.197 268.03 181.395 267.963 182.805C267.896 184.215 266.699 185.303 265.289 185.235Z" stroke="#2E5EB1" stroke-width="0.59" stroke-miterlimit="10"/>
<path d="M275.519 295.864H270.446L319.881 190.88H325.563L275.519 295.864Z" fill="#252C38"/>
<path d="M276.983 295.864H271.911L321.346 190.88H327.027L276.983 295.864Z" fill="#383E52"/>
<path d="M323.83 295.864H328.901L272.398 190.88H266.718L323.83 295.864Z" fill="#252C38"/>
<path d="M325.153 295.864H330.224L273.722 190.88H268.041L325.153 295.864Z" fill="#383E52"/>
<path d="M341.049 192.331H90.6885V187.613H341.049V192.331Z" fill="#2E5EB1"/>
<path d="M357.744 296.228H92.6777V295.501H357.744V296.228Z" fill="#5C81AA"/>
<path d="M184.789 185.941H160.581L164.281 170.679H188.488L184.789 185.941Z" fill="#101F51"/>
<path d="M183.818 185.941H159.609L163.31 170.679H187.518L183.818 185.941Z" fill="#4078C8"/>
<path d="M194.944 187.803H159.61V185.941H194.944V187.803Z" fill="#101F51"/>
<path d="M162.129 175.547H186.606L186.21 177.321H161.699L162.129 175.547Z" fill="#101F51"/>
<path d="M228.482 108.028H188.278C188.278 108.093 188.277 108.158 188.277 108.219C188.277 108.641 187.833 108.963 187.44 108.932C186.998 108.896 186.728 108.515 186.728 108.095V108.028H155.619V108.646C155.619 109.068 155.175 109.391 154.782 109.359C154.34 109.323 154.07 108.941 154.07 108.522V108.028H130.143C129.543 108.028 129.055 108.516 129.055 109.115V174.364C129.055 174.963 129.543 175.451 130.143 175.451H228.482C229.082 175.451 229.571 174.963 229.571 174.364V109.115C229.571 108.516 229.082 108.028 228.482 108.028Z" fill="white"/>
<path d="M228.483 107.922H188.28C188.28 107.995 188.279 108.065 188.279 108.134H228.483C229.025 108.134 229.465 108.574 229.465 109.115V174.364C229.465 174.905 229.025 175.346 228.483 175.346H130.143C129.602 175.346 129.161 174.905 129.161 174.364V109.115C129.161 108.574 129.602 108.134 130.143 108.134H186.732C186.732 108.121 186.729 108.108 186.729 108.095C186.729 108.037 186.728 107.98 186.728 107.922H130.143C129.484 107.922 128.949 108.457 128.949 109.115V174.364C128.949 175.023 129.484 175.557 130.143 175.557H228.483C229.142 175.557 229.676 175.023 229.676 174.364V109.115C229.676 108.457 229.142 107.922 228.483 107.922Z" fill="#101F51"/>
<path d="M226.721 175.557H130.132C129.478 175.557 128.949 175.028 128.949 174.375V109.105C128.949 108.452 129.478 107.922 130.132 107.922H226.721C227.374 107.922 227.904 108.452 227.904 109.105V174.375C227.904 175.028 227.374 175.557 226.721 175.557Z" fill="#5482CF"/>
<path d="M226.722 108.028C226.722 108.028 176.418 108.152 176.415 108.155C176.369 108.244 130.132 108.028 130.132 108.028C129.539 108.028 129.056 108.511 129.056 109.105V174.375C129.056 174.968 129.539 175.451 130.132 175.451H226.722C227.315 175.451 227.799 174.968 227.799 174.375V109.105C227.799 108.511 227.315 108.028 226.722 108.028Z" fill="#2E5EB1"/>
<path d="M226.721 107.922V108.134C227.257 108.134 227.693 108.57 227.693 109.105V174.375C227.693 174.91 227.257 175.346 226.721 175.346H130.132C129.596 175.346 129.161 174.91 129.161 174.375V109.105C129.161 108.57 129.596 108.134 130.132 108.134V107.922C129.479 107.922 128.949 108.452 128.949 109.105V174.375C128.949 175.028 129.479 175.557 130.132 175.557H226.721C227.374 175.557 227.904 175.028 227.904 174.375V109.105C227.904 108.452 227.374 107.922 226.721 107.922Z" fill="#101F51"/>
<path d="M147.501 175.663H130.539C129.604 175.663 128.844 174.902 128.844 173.968V137.185H129.054V173.968C129.054 174.786 129.721 175.451 130.539 175.451H147.501V175.663Z" fill="#101F51"/>
<path d="M219.453 175.652H189.945V175.443H219.453V175.652Z" fill="#101F51"/>
<path d="M159.715 187.802H159.503V185.942L162.027 175.523L162.232 175.573L159.711 185.967L159.715 187.802Z" fill="#101F51"/>
<path d="M184.16 191.406C181.847 191.406 180.085 190.67 178.922 189.216C176.901 186.688 176.69 182.119 178.295 175.637L178.323 175.523L178.529 175.574L178.501 175.687C176.911 182.102 177.108 186.609 179.087 189.083C180.246 190.532 182.031 191.245 184.39 191.192C190.706 191.059 194.806 189.107 197.519 187.814C199.153 187.035 200.337 186.473 201.276 186.628L201.24 186.837C200.36 186.691 199.209 187.242 197.609 188.005C194.88 189.305 190.756 191.27 184.394 191.403C184.315 191.405 184.238 191.406 184.16 191.406Z" fill="white"/>
<path d="M160.971 191.497C160.108 191.497 158.974 191.2 158.396 190.362C157.896 189.638 157.686 188.272 159.526 185.877L159.694 186.005C158.3 187.822 157.91 189.286 158.57 190.242C159.279 191.27 160.966 191.411 161.67 191.199C164.262 190.42 169.218 179.758 169.49 175.392L169.702 175.406C169.418 179.937 164.447 190.584 161.731 191.402C161.531 191.461 161.268 191.497 160.971 191.497Z" fill="white"/>
<path d="M179.313 176.434H177.335V175.4H179.313V176.434Z" fill="white"/>
<path d="M168.606 175.4H170.584V176.434H168.606V175.4Z" fill="white"/>
<path d="M290.276 161.113L290.064 160.327C290.045 160.257 288.175 153.321 287.253 149.24L287.464 149.192C288.201 152.45 289.541 157.534 290.059 159.478V157.362H290.276V161.113Z" fill="#101F51"/>
<path d="M285.812 169.798L284.236 169.097L284.231 169.032C284.228 168.991 283.973 164.889 284.332 160.558L284.547 160.576C284.215 164.593 284.412 168.411 284.443 168.953L285.9 169.601L285.812 169.798Z" fill="#101F51"/>
<path d="M285.7 171.122L284.251 169.087L284.427 168.963L285.876 170.997L285.7 171.122Z" fill="#101F51"/>
<path d="M228.599 292.112C228.599 293.984 227.081 295.501 225.211 295.501C223.339 295.501 221.822 293.984 221.822 292.112C221.822 290.241 223.339 288.723 225.211 288.723C227.081 288.723 228.599 290.241 228.599 292.112Z" fill="#0D162B"/>
<path d="M253.078 187.656L243.258 187.327L242.182 167.787L255.461 168.232L253.078 187.656Z" fill="#C5C5E4"/>
<path d="M242.437 172.433C243.901 173.058 247.195 172.323 249.573 172.672C251.779 172.604 254.893 172.851 254.893 172.851L254.287 177.787C254.287 177.787 254.028 180.471 250.473 180.339C250.473 180.339 244.305 180 242.777 178.62L242.437 172.433Z" fill="#141F36"/>
<path d="M255.775 168.94L241.488 168.461L241.535 167.066L255.822 167.545L255.775 168.94Z" fill="#CED3EE"/>
<path d="M255.456 168.207L244.597 167.843C244.422 167.837 244.285 167.691 244.291 167.515C244.297 167.34 244.444 167.203 244.619 167.209L255.477 167.573C255.652 167.579 255.789 167.726 255.783 167.901C255.777 168.076 255.631 168.213 255.456 168.207Z" fill="#DADFF1"/>
<path d="M247.233 167.257L242.615 167.102L242.647 166.135L247.265 166.29L247.233 167.257Z" fill="#DADFF1"/>
<path d="M252.61 172.648C253.01 172.661 253.323 172.996 253.31 173.396C253.296 173.795 252.961 174.109 252.562 174.095C252.162 174.082 251.849 173.747 251.862 173.347C251.876 172.948 252.211 172.635 252.61 172.648Z" fill="#152036"/>
<path d="M284.475 181.82L255.345 181.028C255.016 180.85 254.651 180.727 254.26 180.678C254.765 180.181 255.196 179.578 255.097 179.026C254.878 177.796 254.288 177.787 254.288 177.787C254.288 177.787 254.058 179.658 251.484 180.316L251.62 180.453C248.654 180.175 243.967 179.594 242.777 178.619C242.777 178.619 242.285 177.847 241.491 178.576C240.696 179.306 241.121 185.319 242.12 186.814C243.091 188.268 245.092 188.554 245.487 188.348C245.883 188.143 253.362 186.779 253.362 186.779L253.364 186.765C253.452 186.78 253.536 186.806 253.627 186.813C254.566 186.89 255.43 186.53 256.049 185.914L281.339 190.923L284.475 181.82Z" fill="white"/>
<path d="M284.475 181.82L255.345 181.028C255.016 180.85 254.651 180.727 254.26 180.678C254.765 180.181 255.196 179.578 255.097 179.026C254.878 177.796 254.288 177.787 254.288 177.787C254.288 177.787 254.058 179.658 251.484 180.316L251.62 180.453C248.654 180.175 243.967 179.594 242.777 178.619C242.777 178.619 242.285 177.847 241.491 178.576C240.696 179.306 241.121 185.319 242.12 186.814C243.091 188.268 245.092 188.554 245.487 188.348C245.883 188.143 253.362 186.779 253.362 186.779L253.364 186.765C253.452 186.78 253.536 186.806 253.627 186.813C254.566 186.89 255.43 186.53 256.049 185.914L281.339 190.923L284.475 181.82Z" stroke="#2E5EB1" stroke-width="0.59" stroke-miterlimit="10"/>
<path d="M297.258 182.127C278.638 179.335 258.649 178.988 258.649 178.988C259.184 181.998 258.882 185.099 257.778 187.95L257.528 188.594C257.528 188.594 262.695 188.668 264.334 189.503C265.87 190.286 265.669 189.388 268.511 189.843C273.425 190.631 273.872 191.347 284.6 192.99C288.099 193.526 293.286 193.251 296.315 193.692L300.72 191.583L297.258 182.127Z" fill="#2E5EB1"/>
<path d="M257.631 188.618L257.426 188.567C257.444 188.493 259.295 181.157 258.549 179.023L258.495 178.872L258.655 178.882C258.854 178.895 278.688 180.211 288.568 180.832L288.555 181.042C279.136 180.451 260.671 179.228 258.794 179.104C259.437 181.456 257.706 188.321 257.631 188.618Z" fill="#101F51"/>
<path d="M299.207 130.439C299.207 130.439 306.094 166.719 303.377 185.587L291.778 193.293C283.952 188.354 284.588 165.283 284.245 156.057C284.143 153.328 284.496 150.601 285.28 147.984L283.463 132.539L299.207 130.439Z" fill="#2E5EB1"/>
<path d="M299.018 135.423C297.484 139.593 292.869 141.731 288.711 140.201C284.552 138.671 282.425 134.05 283.959 129.881C285.494 125.712 290.109 123.573 294.267 125.103C298.424 126.634 300.553 131.255 299.018 135.423Z" fill="#2E5EB1"/>
<path d="M298.053 136.106C296.553 140.181 292.033 142.269 287.958 140.769C283.883 139.269 281.795 134.749 283.295 130.674C284.795 126.599 289.315 124.511 293.39 126.011C297.465 127.511 299.553 132.03 298.053 136.106Z" fill="#2E5EB1"/>
<path d="M341.049 192.331H252.882V187.614H341.049V192.331Z" fill="#1F457B"/>
<path d="M341.05 192.568H252.646V187.614C252.646 187.484 252.751 187.377 252.882 187.377C253.013 187.377 253.12 187.484 253.12 187.614V192.094H341.05C341.181 192.094 341.286 192.2 341.286 192.331C341.286 192.462 341.181 192.568 341.05 192.568Z" fill="#15063C"/>
<path d="M91.1202 192.266C91.1058 192.266 91.0913 192.263 91.0782 192.257C91.0276 192.234 91.0044 192.174 91.0276 192.123C92.1751 189.587 92.2794 188.934 94.7373 188.008C95.7198 187.638 96.7841 187.582 97.8136 187.528C98.3899 187.498 98.9865 187.466 99.5599 187.38C101.143 187.142 101.469 189.378 101.662 187.835C101.67 187.779 101.72 187.74 101.776 187.746C101.832 187.753 101.871 187.804 101.864 187.859C101.658 189.508 101.249 187.331 99.5903 187.58C99.0068 187.668 98.4058 187.7 97.8238 187.73C96.8102 187.785 95.7618 187.84 94.809 188.199C92.4234 189.097 92.3423 189.71 91.2122 192.206C91.1955 192.244 91.1586 192.266 91.1202 192.266Z" fill="#0D162B"/>
<path d="M94.7834 191.934C94.7646 191.934 94.7465 191.929 94.7291 191.918C94.6813 191.889 94.6676 191.826 94.6973 191.777C95.8513 189.94 94.8276 190.374 96.7223 189.851C97.489 189.639 98.2934 189.658 99.0738 189.674C99.6719 189.688 100.289 189.702 100.881 189.611C103.202 189.253 103.771 190.219 103.819 187.872C103.82 187.816 103.87 187.772 103.922 187.772C103.977 187.774 104.023 187.82 104.022 187.877C103.972 190.319 103.326 189.44 100.912 189.812C100.303 189.905 99.6748 189.891 99.0688 189.878C98.3049 189.861 97.5143 189.842 96.7751 190.046C94.9507 190.55 96.0012 190.083 94.8696 191.887C94.85 191.917 94.8167 191.934 94.7834 191.934Z" fill="#0D162B"/>
<path d="M114.434 192.037C113.305 192.037 112.143 191.731 111.085 191.135C109.524 190.258 108.384 188.862 107.936 187.291L106.83 188.066L106.797 187.916C106.664 187.3 106.533 187.85 107.062 187.507C107.109 187.477 107.172 187.489 107.203 187.536C107.233 187.583 107.22 187.646 107.173 187.677C106.765 187.942 106.932 187.232 106.973 187.717L108.059 186.958L108.095 187.1C108.499 188.674 109.624 190.081 111.183 190.959C112.742 191.836 114.529 192.067 116.084 191.594C117.082 191.291 118.006 190.739 118.901 190.204C119.976 189.562 121.088 188.898 122.338 188.657C123.592 188.415 124.877 188.619 126.121 188.817C126.456 188.87 126.791 188.923 127.126 188.968C129.154 189.239 130.221 190.203 131.228 189.401C131.893 188.871 132.932 190.315 132.871 189.424C132.824 188.741 132.517 188.197 132.004 187.893C131.956 187.865 131.94 187.802 131.968 187.754C131.997 187.707 132.058 187.69 132.107 187.719C132.679 188.058 133.023 188.658 133.074 189.41C133.141 190.38 132.081 188.983 131.355 189.561C130.302 190.399 129.185 189.45 127.099 189.169C126.763 189.124 126.426 189.07 126.09 189.017C124.863 188.823 123.596 188.622 122.376 188.856C121.161 189.091 120.065 189.745 119.005 190.379C118.1 190.919 117.164 191.478 116.143 191.788C115.595 191.956 115.019 192.037 114.434 192.037Z" fill="#0D162B"/>
<path d="M114.491 190.213C113.751 190.213 113.016 190.017 112.423 189.503L110.699 187.708C110.667 187.661 110.678 187.597 110.724 187.565C110.771 187.534 110.834 187.545 110.866 187.59L112.573 189.367C113.721 190.359 115.492 190.054 116.657 189.485C117.392 189.127 118.071 188.637 118.728 188.165C119.261 187.781 120.175 188.876 120.757 188.547C122.344 187.648 123.969 187.515 125.108 188.184C125.311 188.304 125.5 188.449 125.683 188.588C125.955 188.797 126.213 188.996 126.515 189.118C127.494 189.512 127.907 188.588 128.948 187.947L130.235 187.749C130.204 187.702 130.216 187.639 130.264 187.608C130.309 187.578 130.373 187.589 130.404 187.636L129.233 188.01L129.144 188.065C128.031 188.758 127.53 189.745 126.439 189.306C126.111 189.174 125.83 188.958 125.559 188.75C125.382 188.614 125.197 188.472 125.004 188.359C123.93 187.726 122.38 187.862 120.857 188.724C120.285 189.047 119.376 187.948 118.847 188.329C118.184 188.808 117.497 189.302 116.747 189.668C116.111 189.979 115.298 190.213 114.491 190.213Z" fill="#0D162B"/>
<path d="M110.716 192.034C110.7 192.034 110.682 192.03 110.666 192.021C108.084 190.547 106.71 190.796 105.79 187.97C105.773 187.916 105.802 187.859 105.855 187.842C105.908 187.825 105.966 187.854 105.984 187.908C106.887 190.686 108.228 190.396 110.767 191.845C110.815 191.872 110.832 192.749 110.805 192.798C110.786 192.832 110.751 192.034 110.716 192.034Z" fill="#0D162B"/>
<path d="M123.932 192.131C123.903 192.131 123.875 192.119 123.855 192.095C123.818 192.053 123.823 191.99 123.866 191.953C126.093 190.028 126.629 190.969 129.564 190.739C129.883 190.714 130.205 190.699 130.527 190.684C131.605 190.636 132.719 190.587 133.687 190.126C135.597 189.218 136.067 189.514 136.167 187.766C136.17 187.711 136.215 187.67 136.269 187.67H136.274C136.33 187.673 136.373 187.722 136.37 187.777C136.267 189.584 135.765 189.363 133.775 190.309C132.769 190.788 131.634 190.838 130.537 190.888C130.216 190.902 129.896 190.917 129.579 190.942C126.688 191.167 126.194 190.21 123.998 192.106C123.979 192.123 123.955 192.131 123.932 192.131Z" fill="#0D162B"/>
<path d="M98.3924 191.779C98.2628 191.779 98.1333 191.776 98.0037 191.77C97.9479 191.767 97.9045 191.72 97.9074 191.664C97.9095 191.609 97.9544 191.567 98.0087 191.567H98.0131C99.6964 191.644 101.598 192.597 103.027 191.699C103.909 191.146 104.786 191.613 104.923 190.943C105.051 190.313 104.849 189.632 104.653 188.974C104.402 188.128 102.784 190.42 103.252 189.665C103.282 189.616 103.345 189.602 103.392 189.632C103.44 189.661 103.455 189.724 103.425 189.771C103.004 190.45 104.598 188.076 104.848 188.916C105.051 189.598 105.26 190.303 105.122 190.985C104.974 191.711 104.065 191.288 103.136 191.871C101.781 192.722 99.9932 191.779 98.3924 191.779Z" fill="#0D162B"/>
<path d="M134.164 192.271C134.132 192.271 134.101 192.256 134.081 192.227C134.048 192.181 134.06 192.118 134.106 192.086C137.036 190.044 135.15 191.117 138.409 189.652L139.925 187.7C139.948 187.65 140.009 187.627 140.06 187.651C140.111 187.675 140.134 187.735 140.109 187.785L138.56 189.806L138.526 189.822C135.267 191.284 137.152 190.21 134.222 192.253C134.205 192.265 134.185 192.271 134.164 192.271Z" fill="#0D162B"/>
<path d="M147.347 191.741C147.225 191.741 147.102 191.736 146.98 191.726C145.478 191.604 144.057 190.597 143.442 189.222C142.828 187.848 141.487 189.376 142.396 188.175C142.43 188.131 142.493 188.121 142.537 188.156C142.582 188.19 142.591 188.254 142.558 188.298C141.692 189.441 143.043 187.832 143.628 189.14C144.214 190.45 145.567 191.408 146.997 191.524C147.98 191.606 148.965 191.322 149.916 191.048C150.222 190.962 150.538 190.871 150.85 190.793C152.748 190.321 154.764 190.282 156.681 190.682C156.984 190.746 157.287 190.82 157.592 190.894C158.547 191.128 159.536 191.371 160.509 191.245C161.511 191.116 162.397 190.583 162.878 189.819C163.402 188.986 163.622 189.611 163.092 188.875C162.528 188.091 161.44 187.421 160.661 187.892C160.614 187.921 160.551 187.907 160.522 187.858C160.493 187.811 160.509 187.748 160.556 187.719C161.419 187.194 162.633 187.89 163.258 188.757C163.835 189.558 163.617 189.027 163.05 189.927C162.537 190.741 161.597 191.31 160.535 191.447C159.525 191.575 158.518 191.331 157.544 191.092C157.242 191.018 156.94 190.943 156.639 190.881C154.753 190.488 152.768 190.525 150.898 190.99C150.59 191.066 150.277 191.157 149.973 191.244C149.12 191.489 148.241 191.741 147.347 191.741Z" fill="#0D162B"/>
<path d="M147.758 189.776C147.411 189.776 147.039 189.737 146.717 189.556C145.902 189.099 145.833 189.638 146.195 188.847C146.567 188.037 147.578 188.792 148.232 188.3C148.276 188.266 148.34 188.275 148.374 188.32C148.408 188.365 148.398 188.429 148.353 188.463C147.72 188.94 146.73 188.168 146.381 188.932C146.054 189.644 146.125 188.991 146.817 189.38C147.22 189.606 147.742 189.58 148.161 189.561L155.481 189.212C156.923 189.144 158.411 189.073 159.825 188.682L156.566 188.17C156.517 188.144 156.498 188.081 156.525 188.032C156.551 187.983 156.612 187.965 156.662 187.992L160.353 188.737L160.121 188.808C158.613 189.267 157.026 189.342 155.491 189.415L148.17 189.763C148.04 189.77 147.902 189.776 147.758 189.776Z" fill="#0D162B"/>
<path d="M157.592 191.751C157.549 191.751 157.509 191.725 157.496 191.682C157.478 191.628 157.506 191.571 157.56 191.554C159.445 190.926 162.396 192.749 163.91 191.255C165.303 189.878 166.463 189.844 165.28 188.044C165.25 187.997 165.263 187.934 165.309 187.903C165.356 187.873 165.42 187.887 165.45 187.933C166.693 189.822 165.504 189.967 164.053 191.4C162.505 192.927 159.53 191.112 157.624 191.746C157.613 191.75 157.602 191.751 157.592 191.751Z" fill="#0D162B"/>
<path d="M165.205 191.822C165.159 191.822 165.117 191.791 165.105 191.745C165.092 191.69 165.126 191.635 165.18 191.622C167.279 191.11 167.6 192.809 168.496 190.813C169.389 188.825 168.985 189.482 168.023 187.494C167.998 187.443 168.019 187.382 168.07 187.358C168.119 187.332 168.181 187.355 168.206 187.405C169.194 189.448 169.598 188.854 168.681 190.897C167.76 192.949 167.386 191.293 165.228 191.819C165.22 191.821 165.213 191.822 165.205 191.822Z" fill="#0D162B"/>
<path d="M188.336 192.103C187.337 192.103 186.34 191.898 185.441 191.674C185.2 191.614 184.959 191.551 184.718 191.488C183.557 191.186 182.359 190.874 181.154 190.874H181.109C180.028 190.881 178.947 191.143 177.901 191.396C176.772 191.67 175.601 191.953 174.423 191.921C172.993 191.88 171.836 191.298 171.33 190.361C171.015 189.776 171.052 188.968 171.425 188.351C171.721 187.86 172.179 187.579 172.68 187.579H172.694C172.749 187.58 172.795 187.625 172.794 187.682C172.794 187.738 172.748 187.782 172.693 187.782H172.691H172.681C172.251 187.782 171.858 188.026 171.599 188.456C171.262 189.013 171.226 189.74 171.509 190.264C171.98 191.137 173.072 191.68 174.429 191.717C175.582 191.747 176.737 191.469 177.853 191.199C178.91 190.942 180.003 190.677 181.108 190.67C182.347 190.66 183.582 190.982 184.769 191.292C185.01 191.355 185.25 191.417 185.49 191.477C186.899 191.828 188.397 192.099 189.828 191.715C191.134 191.363 192.488 190.227 192.549 188.74C192.579 188.003 192.254 188.904 191.578 188.443C191.085 188.105 190.54 188 190.052 188.139C190.212 188.275 190.309 188.488 190.336 188.766C190.432 189.729 189.59 189.708 188.834 190.194C188.141 190.639 187.248 190.487 186.465 190.281C184.507 189.765 182.611 189.018 180.828 188.061C179.498 190.311 176.616 191.518 174.08 190.872L174.029 190.859L174.01 190.809C173.733 190.057 173.789 189.172 174.165 188.381C174.541 187.591 175.237 187.94 175.995 187.68C176.048 187.665 176.105 187.691 176.123 187.744C176.141 187.797 176.113 187.855 176.06 187.874C175.354 188.114 174.701 187.727 174.349 188.469C174.004 189.193 173.945 189.999 174.182 190.688C176.653 191.289 179.447 190.088 180.701 187.875L180.75 187.788L180.838 187.835C182.633 188.808 184.543 189.564 186.516 190.084C187.257 190.28 188.098 190.426 188.724 190.023C189.417 189.579 190.223 189.674 190.134 188.786C190.104 188.483 189.985 188.29 189.781 188.211L189.551 188.121L189.776 188.024C190.377 187.76 191.074 187.852 191.694 188.274C192.424 188.774 192.785 187.944 192.752 188.749C192.687 190.335 191.258 191.539 189.88 191.911C189.375 192.047 188.856 192.103 188.336 192.103Z" fill="#0D162B"/>
<path d="M186.41 189.983C186.283 189.983 186.158 189.97 186.039 189.946C185.413 189.817 184.346 189.16 183.839 188.789C183.402 188.469 182.859 188.069 182.254 187.961C181.335 187.796 180.537 187.496 179.641 187.992C178.741 188.493 177.811 189.009 176.813 188.804L176.698 188.78L176.738 188.67C176.95 188.079 177.429 188.51 177.973 188.195C178.022 188.168 178.083 188.184 178.111 188.233C178.14 188.281 178.124 188.344 178.075 188.371C177.607 188.642 177.181 188.126 176.973 188.626C177.852 188.755 178.674 188.299 179.543 187.815C180.43 187.323 181.304 187.584 182.29 187.761C182.941 187.878 183.505 188.292 183.959 188.625C184.449 188.984 185.498 189.626 186.08 189.747C186.621 189.861 187.306 189.697 187.569 189.17C187.696 188.916 187.651 188.572 187.46 188.311C187.307 188.105 187.101 188.008 186.886 188.039C186.831 188.052 186.778 188.011 186.77 187.955C186.76 187.9 186.798 187.848 186.854 187.84C187.142 187.793 187.427 187.924 187.623 188.191C187.859 188.511 187.91 188.941 187.751 189.261C187.501 189.76 186.941 189.983 186.41 189.983Z" fill="#0D162B"/>
<path d="M191.922 191.72C191.879 191.72 191.839 191.692 191.825 191.649C191.338 190.116 192.967 191.659 194.408 190.995C195.991 190.264 197.774 190.204 199.5 190.146C201.106 190.093 202.926 190.03 204.5 189.262C205.876 188.59 207.121 189.638 206.9 187.866C206.893 187.81 206.932 187.759 206.989 187.752C207.043 187.747 207.095 187.785 207.102 187.84C207.336 189.711 206.027 188.742 204.589 189.444C202.976 190.232 201.052 190.298 199.507 190.349C197.801 190.407 196.038 190.467 194.493 191.179C193.113 191.817 191.584 190.217 192.019 191.587C192.036 191.641 192.006 191.699 191.953 191.715C191.943 191.718 191.932 191.72 191.922 191.72Z" fill="#0D162B"/>
<path d="M194.972 191.961C194.954 191.961 194.935 191.956 194.918 191.946C194.87 191.917 194.856 191.854 194.886 191.806C196.76 188.778 199.18 191.911 202.727 191.607C203.13 191.573 203.542 191.559 203.941 191.545C204.958 191.51 206.009 191.475 206.952 191.094C208.714 190.384 209.726 191.006 209.485 189.12C209.478 189.064 209.517 189.013 209.573 189.006C209.632 189 209.678 189.039 209.686 189.094C209.938 191.069 208.873 190.539 207.028 191.283C206.052 191.677 204.982 191.713 203.948 191.749C203.552 191.762 203.142 191.776 202.745 191.81C199.259 192.108 196.9 188.938 195.058 191.914C195.039 191.945 195.006 191.961 194.972 191.961Z" fill="#0D162B"/>
<path d="M208.561 191.948C208.514 191.948 208.472 191.915 208.461 191.868C208.449 191.813 208.484 191.759 208.539 191.747C210.94 191.217 209.893 192.594 212.032 191.376C213.124 190.755 214.487 189.871 215.339 188.551C216.198 187.218 218.236 188.863 217.59 187.701C217.562 187.651 217.58 187.589 217.629 187.562C217.677 187.535 217.74 187.553 217.767 187.602C218.45 188.829 216.41 187.266 215.51 188.661C214.634 190.018 213.245 190.92 212.132 191.553C209.976 192.78 211.004 191.411 208.582 191.945C208.575 191.947 208.568 191.948 208.561 191.948Z" fill="#0D162B"/>
<path d="M231.625 191.855C231.148 191.855 230.679 191.84 230.228 191.827L224.892 191.67C223.642 191.632 222.441 192.771 221.232 192.334C219.876 191.843 218.877 190.875 218.56 189.742C218.37 189.063 218.474 188.28 218.837 187.646C219.146 187.106 219.523 188.497 220.062 188.356C220.117 188.342 220.172 188.374 220.186 188.428C220.201 188.482 220.169 188.537 220.114 188.552C219.628 188.679 219.295 187.255 219.013 187.747C218.677 188.334 218.581 189.06 218.757 189.688C219.055 190.757 220.007 191.675 221.302 192.143C222.48 192.569 223.665 191.43 224.899 191.466L230.234 191.625C231.835 191.672 233.444 192.399 234.993 191.892C236.325 191.454 238.014 190.88 238.38 189.188C238.556 188.37 238.015 189.731 237.475 189.027C237.021 188.437 236.411 188.094 235.757 188.062C235.701 188.059 235.658 188.012 235.661 187.955C235.664 187.9 235.706 187.846 235.767 187.859C236.482 187.894 237.145 188.265 237.635 188.904C238.211 189.653 238.768 188.355 238.578 189.23C238.194 191.007 236.442 191.63 235.056 192.084C233.936 192.453 232.779 191.855 231.625 191.855Z" fill="#0D162B"/>
<path d="M225.818 191.876C225.179 191.876 224.543 191.794 223.919 191.604C222.637 191.213 221.752 191.581 221.334 190.56C220.843 189.366 221.265 188.425 222.276 187.851C222.325 187.824 222.387 187.84 222.414 187.89C222.442 187.938 222.425 188 222.376 188.028C221.452 188.553 221.069 189.38 221.521 190.482C221.911 191.433 222.773 191.043 223.978 191.409C226.328 192.125 228.979 192.428 231.173 191.477C232.217 191.024 233.291 190.506 233.946 189.592C234.573 188.715 234.986 188.752 234.128 188.051C234.084 188.015 234.078 187.951 234.114 187.908C234.149 187.863 234.213 187.858 234.256 187.893C235.202 188.666 234.793 188.758 234.111 189.71C233.426 190.667 232.324 191.2 231.254 191.664C229.602 192.379 227.652 191.875 225.818 191.876Z" fill="#0D162B"/>
<path d="M228.307 191.027C228.259 191.027 228.212 191.026 228.166 191.024C226.487 190.952 224.962 189.949 223.737 189.142L223.679 189.104L223.969 187.764C223.981 187.709 224.035 187.673 224.091 187.688C224.146 187.701 224.18 187.756 224.167 187.811L223.909 189.012C225.102 189.797 226.578 190.753 228.173 190.821C229.084 190.855 230.049 190.497 230.695 189.875C231.182 189.405 231.845 189.654 231.841 189.054C231.835 188.173 231.172 188.992 230.217 188.365C230.171 188.333 230.158 188.27 230.188 188.223C230.219 188.177 230.283 188.165 230.329 188.194C231.341 188.86 232.039 188.104 232.045 189.052C232.048 189.71 231.365 189.511 230.835 190.021C230.185 190.649 229.227 191.027 228.307 191.027Z" fill="#0D162B"/>
<path d="M227.788 189.041C227.705 189.041 227.622 189.033 227.543 189.018C226.717 188.859 225.986 190.291 225.398 189.581L225.375 189.553L225.364 187.79C225.364 187.735 225.409 187.689 225.466 187.689C225.522 187.689 225.567 187.734 225.568 187.79L225.578 189.479C226.133 190.148 226.833 188.674 227.582 188.818C228.007 188.899 228.519 188.719 228.824 188.376C229.041 188.132 229.521 188.935 229.437 188.665C229.419 188.611 229.45 188.555 229.504 188.538C229.558 188.52 229.614 188.551 229.63 188.604C229.738 188.944 229.243 188.211 228.976 188.512C228.682 188.842 228.22 189.041 227.788 189.041Z" fill="#0D162B"/>
<path d="M248.304 192.726C247.304 192.726 246.308 192.489 245.396 192.271C243.928 191.922 242.265 191.525 240.99 190.506C239.46 189.283 239.089 189.915 239.414 187.983C239.424 187.928 239.477 187.887 239.53 187.9C239.586 187.908 239.624 187.961 239.614 188.016C239.306 189.848 239.666 189.187 241.116 190.347C242.357 191.339 243.996 191.729 245.443 192.074C246.743 192.383 248.214 192.734 249.593 192.362C250.733 192.055 251.767 191.237 252.431 190.119C253.136 188.931 254.721 192.361 254.413 191.085C254.09 189.747 253.187 188.611 251.997 188.046C251.945 188.021 251.924 187.961 251.947 187.911C251.972 187.861 252.034 187.839 252.083 187.863C253.329 188.454 254.274 189.64 254.61 191.037C254.93 192.364 253.337 188.99 252.606 190.222C251.915 191.385 250.836 192.237 249.646 192.559C249.203 192.678 248.753 192.726 248.304 192.726Z" fill="#0D162B"/>
<path d="M246.529 190.833C245.454 190.833 244.388 190.327 243.595 189.435C242.785 188.525 242.18 189.006 242.331 187.916C242.337 187.861 242.391 187.821 242.445 187.83C242.5 187.837 242.539 187.889 242.531 187.944C242.389 188.976 242.976 188.434 243.746 189.3C244.501 190.148 245.512 190.63 246.529 190.63C246.552 190.63 246.574 190.63 246.597 190.629C247.637 190.607 248.655 190.081 249.388 189.183C250.123 188.286 250.709 189.039 250.524 188.014C250.514 187.96 250.55 187.906 250.606 187.897C250.659 187.888 250.713 187.923 250.724 187.979C250.92 189.061 250.317 188.368 249.546 189.312C248.774 190.256 247.7 190.809 246.601 190.833H246.529Z" fill="#0D162B"/>
<path d="M258.848 191.68C258.833 191.68 258.819 191.677 258.804 191.67C258.043 191.31 257.253 190.938 256.62 190.346C255.907 189.679 255.535 188.808 255.624 188.016C255.797 186.49 258.515 191.283 259.918 190.741C262.504 189.739 266.044 188.368 269.278 189.301C269.49 189.362 269.703 189.433 269.913 189.504C270.335 189.646 270.772 189.794 271.216 189.853C271.959 189.952 272.622 189.751 272.988 189.318C273.44 188.784 273.265 190.985 273.222 190.201C273.178 189.404 273.134 188.58 273.657 187.988C273.694 187.945 273.758 187.941 273.8 187.979C273.842 188.016 273.846 188.08 273.81 188.122C273.341 188.653 273.382 189.399 273.424 190.19C273.467 190.98 273.648 188.854 273.144 189.449C272.733 189.936 272.003 190.161 271.19 190.054C270.726 189.993 270.28 189.842 269.848 189.697C269.64 189.626 269.432 189.556 269.222 189.495C266.055 188.585 262.55 189.94 259.99 190.93C258.642 191.452 255.987 186.622 255.826 188.039C255.744 188.768 256.092 189.575 256.759 190.198C257.369 190.768 258.143 191.133 258.892 191.486C258.942 191.511 258.963 191.571 258.939 191.622C258.922 191.659 258.886 191.68 258.848 191.68Z" fill="#0D162B"/>
<path d="M254.839 191.699C254.833 191.699 254.826 191.699 254.821 191.698C254.765 191.688 254.729 191.635 254.739 191.58C255.062 189.747 256.83 190.042 257.801 189.518C258.44 189.174 259.119 188.89 259.776 188.616C260.533 188.302 261.316 187.975 262.032 187.556C262.773 187.123 264.962 190.028 265.093 188.142C265.098 188.086 265.133 188.042 265.202 188.047C265.259 188.051 265.301 188.1 265.296 188.156C265.201 189.552 263.759 186.78 262.134 187.732C261.407 188.157 260.618 188.487 259.855 188.804C259.202 189.076 258.528 189.358 257.898 189.697C256.959 190.204 255.246 189.868 254.939 191.615C254.929 191.664 254.887 191.699 254.839 191.699Z" fill="#0D162B"/>
<path d="M278.709 188.242C277.897 188.985 278.093 188.75 278.778 189.612C279.463 190.473 280.604 190.86 281.703 190.915C282.802 190.971 283.893 190.739 284.982 190.581C287.534 190.209 290.144 190.235 292.689 190.656C293.903 190.857 295.107 191.149 296.335 191.202C297.565 191.255 298.85 191.049 299.855 190.341C300.862 189.634 301.744 189.524 301.458 188.327C301.172 187.131 300.362 188.237 299.226 188.709C299.659 189.139 297.437 187.858 296.994 188.278C296.551 188.698 295.922 188.845 295.322 188.957C291.218 189.731 287.008 189.665 282.833 189.596C282.258 189.587 281.648 189.568 281.165 189.254C280.65 188.92 280.372 188.257 280.493 187.655C280.614 187.053 280.992 188.18 281.596 188.071C281.409 188.368 278.967 188.005 278.709 188.242Z" stroke="#0D162B" stroke-width="0.281" stroke-miterlimit="10" stroke-linecap="round"/>
<path d="M288.075 190.89C287.695 190.89 287.315 190.844 286.947 190.725C286.347 190.529 285.802 190.062 285.526 189.506C285.313 189.072 285.276 188.626 285.421 188.217C285.44 188.163 285.497 188.137 285.55 188.155C285.603 188.173 285.63 188.231 285.612 188.283C285.486 188.641 285.52 189.033 285.709 189.416C285.961 189.925 286.459 190.353 287.01 190.531C287.998 190.853 289.077 190.614 290.029 190.405C290.715 190.253 291.495 190.081 292.052 189.587C292.572 189.127 292.834 188.265 292.395 187.713C292.36 187.67 292.368 187.605 292.411 187.57C292.456 187.536 292.519 187.544 292.555 187.587C293.065 188.228 292.776 189.217 292.186 189.739C291.589 190.268 290.784 190.446 290.074 190.603C289.472 190.736 288.774 190.89 288.075 190.89Z" fill="#0D162B"/>
<path d="M285.965 191.693C283.957 191.667 282.663 192.439 280.698 192.024C279.644 191.801 278.536 191.51 277.569 190.897C276.512 190.226 275.998 190.244 275.843 189.211C275.663 188.021 276.182 189.724 277.197 189.335C277.248 189.317 277.307 189.341 277.328 189.394C277.348 189.446 277.322 189.505 277.27 189.525C276.341 189.881 275.877 188.081 276.044 189.181C276.191 190.156 276.671 190.086 277.679 190.726C278.618 191.321 279.704 191.607 280.739 191.825C282.692 192.238 283.972 191.465 285.967 191.489C286.024 191.49 286.068 191.536 286.067 191.592C286.066 191.648 286.021 191.693 285.965 191.693Z" fill="#0D162B"/>
<path d="M268.105 190.778C267.819 190.778 267.531 190.719 267.258 190.587C267.208 190.563 267.187 190.502 267.211 190.452C267.235 190.4 267.297 190.379 267.347 190.403C268.529 190.975 271.896 191.856 272.474 190.67C272.931 189.729 273.84 190.821 273.933 189.776C273.96 189.461 273.988 189.144 274.025 188.832C274.239 187.033 274.721 188.748 275.723 188.129C275.77 188.1 275.833 188.114 275.862 188.163C275.892 188.211 275.878 188.273 275.83 188.302C274.884 188.887 274.433 187.121 274.227 188.857C274.189 189.167 274.162 189.48 274.134 189.794C274.041 190.857 273.13 189.784 272.657 190.76C272.169 191.762 269.177 190.778 268.105 190.778Z" fill="#0D162B"/>
<path d="M301.983 191.888C301.93 191.888 301.885 191.846 301.881 191.793C301.74 189.717 302.66 191.616 303.431 189.858C304.021 188.519 304.598 189.076 305.7 188.438C306.652 187.888 307.843 187.874 308.801 187.861L314.391 187.793C315.014 187.787 315.875 187.774 316.5 188.228C317.053 188.628 317.302 189.278 317.541 189.906C317.624 190.122 317.709 190.344 317.805 190.551C318.068 191.118 318.452 189.916 318.824 190.416C319.224 190.956 321.403 187.938 321.675 188.568C322.015 189.354 321.998 190.358 321.634 191.065C321.384 191.549 320.997 191.858 320.514 191.961C320.461 191.974 320.406 191.938 320.395 191.883C320.382 191.827 320.418 191.774 320.472 191.762C320.893 191.673 321.233 191.4 321.453 190.972C321.791 190.316 321.806 189.383 321.489 188.649C321.226 188.041 319.055 191.067 318.661 190.538C318.283 190.03 317.893 191.222 317.62 190.636C317.522 190.424 317.436 190.197 317.352 189.978C317.112 189.35 316.885 188.757 316.381 188.392C315.854 188.011 315.171 187.984 314.393 187.997L308.803 188.065C307.822 188.077 306.708 188.091 305.802 188.614C304.753 189.221 304.192 188.633 303.617 189.941C302.855 191.677 301.946 189.753 302.084 191.779C302.088 191.835 302.046 191.883 301.99 191.887C301.987 191.887 301.985 191.888 301.983 191.888Z" fill="#0D162B"/>
<path d="M313.523 192.309C313.486 192.309 313.45 192.289 313.432 192.252C313.408 192.203 313.427 192.142 313.478 192.116C314.63 191.538 315.079 191.908 314.921 190.628C314.763 189.348 313.735 189.936 312.477 189.655C311.988 189.545 311.436 189.545 310.793 189.65C307.941 190.119 305.842 188.994 305.428 191.713C305.42 191.768 305.373 191.807 305.312 191.798C305.257 191.79 305.219 191.738 305.228 191.683C305.654 188.879 307.824 189.932 310.76 189.45C311.43 189.338 312.006 189.341 312.521 189.456C313.861 189.755 314.955 189.241 315.123 190.604C315.291 191.965 314.795 191.682 313.568 192.298C313.554 192.305 313.539 192.309 313.523 192.309Z" fill="#0D162B"/>
<path d="M309.32 191.953C309.277 191.953 309.238 191.925 309.223 191.882C308.945 191.013 308.751 191.898 309.164 191.312C309.422 190.946 309.85 190.694 310.309 190.636C310.691 190.586 311.049 190.683 311.312 190.906C311.687 191.223 311.994 190.035 311.864 190.42C311.728 190.82 311.429 191.07 311.067 191.087C311.064 191.088 311.063 191.088 311.062 191.088C311.007 191.088 310.963 191.045 310.96 190.991C310.957 190.935 311 190.887 311.056 190.885C311.333 190.872 311.563 190.673 311.671 190.355C311.777 190.045 311.481 191.315 311.181 191.061C310.962 190.875 310.66 190.796 310.335 190.837C309.937 190.888 309.552 191.114 309.33 191.428C308.953 191.963 309.157 191.012 309.417 191.819C309.434 191.874 309.405 191.931 309.351 191.948C309.341 191.951 309.331 191.953 309.32 191.953Z" fill="#0D162B"/>
<path d="M329.283 192.131C327.972 192.131 326.73 191.916 325.6 191.311C323.496 190.185 320.877 190.393 319.669 187.913C319.644 187.863 319.665 187.802 319.715 187.777C319.766 187.751 319.826 187.773 319.852 187.824C321.043 190.272 323.645 190.034 325.696 191.132C327.899 192.312 330.569 191.964 333.341 191.464L338.166 190.596C338.816 190.479 339.555 190.346 340.119 189.934C340.628 189.562 341.02 188.829 340.743 188.202C340.721 188.151 340.744 188.091 340.796 188.068C340.847 188.046 340.907 188.068 340.93 188.121C341.249 188.845 340.812 189.679 340.24 190.098C339.636 190.538 338.875 190.675 338.202 190.796L333.377 191.664C331.974 191.916 330.594 192.131 329.283 192.131Z" fill="#0D162B"/>
<path d="M333.784 190.276C332.824 190.276 331.816 190.092 330.831 189.883C329.48 189.599 327.948 189.276 326.799 188.307C325.698 187.378 323.742 188.894 324.621 187.627C324.653 187.58 324.717 187.569 324.763 187.601C324.808 187.633 324.821 187.696 324.788 187.743C323.974 188.917 325.896 187.281 326.93 188.152C328.04 189.087 329.545 189.405 330.872 189.686C332.774 190.087 334.757 190.398 336.279 189.435C336.968 188.521 337.175 189.164 337.389 188.04C337.4 187.985 337.452 187.949 337.509 187.96C337.564 187.97 337.599 188.023 337.589 188.079C337.367 189.238 337.144 188.631 336.43 189.572L336.405 189.597C335.619 190.1 334.724 190.276 333.784 190.276Z" fill="#0D162B"/>
<path d="M332.025 190.094C330.905 190.094 329.792 189.378 329.358 188.341C329.337 188.29 329.36 188.231 329.413 188.209C329.465 188.186 329.525 188.212 329.546 188.263C329.983 189.306 331.154 189.996 332.282 189.878C333.406 189.755 334.405 188.824 334.605 187.711C334.615 187.655 334.67 187.62 334.724 187.629C334.779 187.638 334.814 187.692 334.805 187.747C334.589 188.944 333.515 189.947 332.304 190.079C332.212 190.09 332.118 190.094 332.025 190.094Z" fill="#0D162B"/>
<path d="M281.951 92.5523C287.062 88.736 285.724 94.4961 285.672 96.6027C285.62 98.71 283.99 102.665 282.081 102.057C280.171 101.449 281.951 92.5523 281.951 92.5523Z" fill="white"/>
<path d="M281.951 92.5523C287.062 88.736 285.724 94.4961 285.672 96.6027C285.62 98.71 283.99 102.665 282.081 102.057C280.171 101.449 281.951 92.5523 281.951 92.5523Z" stroke="#2E5EB1" stroke-width="0.59" stroke-miterlimit="10"/>
<path d="M284.404 97.7537L284.202 97.6916C284.497 96.7468 285.216 94.1574 285.011 93.5396C284.906 93.2283 284.669 93.1403 284.489 93.1214C284.118 93.0837 283.683 93.2937 283.501 93.605L283.318 93.4976C283.543 93.115 284.058 92.8637 284.51 92.9116C284.853 92.9473 285.102 93.1471 285.211 93.4731C285.48 94.2816 284.448 97.6124 284.404 97.7537Z" fill="#101F51"/>
<path d="M283.244 97.6979L283.057 97.6011L283.542 96.6554L283.73 96.7521L283.244 97.6979Z" fill="#101F51"/>
<path d="M263.267 91.3714C258.677 86.9422 259.279 92.8242 259.065 94.9205C258.851 97.0175 259.969 101.146 261.94 100.784C263.911 100.422 263.267 91.3714 263.267 91.3714Z" fill="white"/>
<path d="M263.267 91.3714C258.677 86.9422 259.279 92.8242 259.065 94.9205C258.851 97.0175 259.969 101.146 261.94 100.784C263.911 100.422 263.267 91.3714 263.267 91.3714Z" stroke="#2E5EB1" stroke-width="0.59" stroke-miterlimit="10"/>
<path d="M260.128 96.2189C260.102 96.0729 259.498 92.6377 259.867 91.8694C260.016 91.5597 260.284 91.3928 260.633 91.4004C261.09 91.4101 261.566 91.7248 261.741 92.1323L261.547 92.2157C261.405 91.8852 261.002 91.6199 260.628 91.6123C260.448 91.6087 260.2 91.6662 260.058 91.9615C259.776 92.5491 260.164 95.2069 260.337 96.1823L260.128 96.2189Z" fill="#101F51"/>
<path d="M261.285 96.3098L260.923 95.3105L261.121 95.2384L261.483 96.2378L261.285 96.3098Z" fill="#101F51"/>
<path d="M287 76.0713C287.553 80.9764 283.62 94.8503 283.62 94.8503L273.324 94.1993L260.714 93.4014C260.714 93.4014 259.678 78.9704 261.955 73.7572C264.233 68.5448 287 76.0713 287 76.0713Z" fill="#101F51"/>
<path d="M262.912 78.987C262.372 79.0349 261.776 78.8768 261.26 78.53C259.795 77.5484 258.837 75.7929 258.877 74.162C258.912 72.7467 259.636 71.4055 260.918 70.3886C262.489 69.1395 264.658 68.571 266.443 68.9399C268.35 69.3336 270.191 71.1759 269.891 73.2899L269.682 73.259C269.965 71.2628 268.214 69.5215 266.401 69.1471C264.674 68.7912 262.574 69.3428 261.049 70.5543C259.818 71.5326 259.121 72.8153 259.089 74.1672C259.05 75.729 259.97 77.4116 261.377 78.3547C262.02 78.7861 262.79 78.9026 263.384 78.6603L263.464 78.8568C263.29 78.9273 263.105 78.9699 262.912 78.987Z" fill="#101F51"/>
<path d="M261.27 77.9804C259.716 76.7552 259.086 74.5207 259.775 72.6652C260.464 70.8097 262.4 69.5247 264.375 69.6122C265.48 69.6597 266.515 70.095 267.516 70.5166C268.289 70.8421 269.088 71.1791 269.912 71.3322L269.874 71.5412C269.028 71.3829 268.217 71.0411 267.434 70.7114C266.45 70.2971 265.434 69.8695 264.367 69.823C262.481 69.7414 260.631 70.9664 259.972 72.7386C259.315 74.5106 259.916 76.6459 261.4 77.8155L261.27 77.9804Z" fill="#101F51"/>
<path d="M285.721 85.3863L285.531 85.2948C286.942 82.3926 287.45 79.0383 286.962 75.8479L287.171 75.8163C287.666 79.0484 287.15 82.4461 285.721 85.3863Z" fill="#101F51"/>
<path d="M277.401 114.647C276.133 115.251 274.731 115.522 273.329 115.433L269.086 115.165C267.782 115.083 266.514 114.691 265.39 114.023L265.021 113.804C262.358 112.221 260.806 109.28 261.001 106.188L262.708 79.1869L271.759 78.5243L283.807 80.521L282.087 107.717C281.898 110.705 280.105 113.358 277.401 114.647Z" fill="white"/>
<path d="M277.401 114.647C276.133 115.251 274.731 115.522 273.329 115.433L269.086 115.165C267.782 115.083 266.514 114.691 265.39 114.023L265.021 113.804C262.358 112.221 260.806 109.28 261.001 106.188L262.708 79.1869L271.759 78.5243L283.807 80.521L282.087 107.717C281.898 110.705 280.105 113.358 277.401 114.647Z" stroke="#2E5EB1" stroke-width="0.59" stroke-miterlimit="10"/>
<path d="M273.425 103.046C272.292 103.146 271.26 102.904 270.655 102.713C270.268 102.591 270.047 102.187 270.152 101.794L271.116 98.178L271.32 98.2327L270.356 101.848C270.279 102.132 270.44 102.423 270.72 102.512C271.518 102.764 273.084 103.109 274.613 102.583L274.683 102.783C274.26 102.928 273.836 103.01 273.425 103.046Z" fill="#101F51"/>
<path d="M273.625 108.692C273.456 108.46 273.256 108.256 273.034 108.083C272.329 107.538 271.54 107.426 271.003 107.428L271.002 107.216C271.572 107.214 272.411 107.334 273.163 107.916C273.402 108.1 273.614 108.319 273.796 108.568L273.625 108.692Z" fill="#101F51"/>
<path d="M273.817 105.54C273.328 105.583 272.783 105.582 272.181 105.515L272.205 105.304C275.435 105.666 276.985 104.039 277 104.023L277.156 104.167C277.102 104.224 276.036 105.344 273.817 105.54Z" fill="#101F51"/>
<path d="M277.362 104.527C277.339 104.512 276.817 104.139 276.652 103.449L276.858 103.4C277.004 104.014 277.478 104.35 277.482 104.354L277.362 104.527Z" fill="#101F51"/>
<path d="M264.249 81.7745C263.722 84.3382 262.019 90.1032 262.034 89.8466C262.05 89.5901 262.708 79.1868 262.708 79.1868L264.249 81.7745Z" fill="#101F51"/>
<path d="M283.807 80.521C285.401 80.353 290.553 76.5395 287.52 70.26C284.487 63.9813 267.341 65.6006 270.193 74.4124C270.193 74.4124 271.842 69.5121 266.037 69.8758C260.229 70.2388 258.147 76.2459 262.709 79.1868L261.98 83.0113C261.98 83.0113 268.581 82.5765 271.342 79.3425C271.342 79.3425 280.687 83.3281 282.129 83.7913L283.094 91.794C283.688 91.4987 285.383 84.491 285.383 84.491L283.807 80.521Z" fill="#101F51"/>
<path d="M278.748 93.4321C278.669 93.4947 278.156 93.5784 277.603 93.6188C277.051 93.6592 276.666 93.6414 276.746 93.5787C276.826 93.516 277.339 93.4323 277.891 93.392C278.444 93.3515 278.827 93.3695 278.748 93.4321Z" fill="#0A131D"/>
<path d="M279.242 93.4007C279.214 93.4229 278.89 93.463 278.517 93.4904C278.145 93.5176 277.866 93.5217 277.894 93.4994C277.923 93.4771 278.247 93.4371 278.62 93.4098C278.992 93.3826 279.27 93.3784 279.242 93.4007Z" fill="white"/>
<path d="M265.681 92.8787C265.602 92.9413 265.985 92.9594 266.538 92.9189C267.09 92.8785 267.603 92.7949 267.683 92.7322C267.762 92.6696 267.378 92.6515 266.826 92.692C266.273 92.7324 265.761 92.816 265.681 92.8787Z" fill="#0A131D"/>
<path d="M268.35 92.6882C268.321 92.7105 267.997 92.7506 267.625 92.7778C267.253 92.805 266.973 92.8091 267.002 92.7868C267.03 92.7646 267.354 92.7245 267.727 92.6972C268.099 92.67 268.378 92.6659 268.35 92.6882Z" fill="white"/>
<path d="M279.605 91.4431L276.023 90.3727C275.745 90.2898 275.587 89.9956 275.67 89.7178C275.753 89.4401 276.047 89.281 276.325 89.364L279.907 90.4351C280.184 90.5182 280.343 90.813 280.259 91.09C280.177 91.3677 279.882 91.5261 279.605 91.4431Z" fill="#101F51"/>
<path d="M265.098 90.526L268.785 89.9153C269.071 89.8674 269.267 89.595 269.219 89.3092C269.171 89.0242 268.899 88.8288 268.614 88.8759L264.926 89.4873C264.64 89.5344 264.445 89.8069 264.493 90.0926C264.54 90.3785 264.813 90.5731 265.098 90.526Z" fill="#101F51"/>
<path d="M283.145 94.8198C282.989 97.275 280.874 99.1391 278.419 98.9836C275.964 98.8289 274.1 96.7124 274.255 94.258C274.411 91.8028 276.526 89.9387 278.982 90.0941C281.436 90.2489 283.3 92.3653 283.145 94.8198Z" stroke="#101F51" stroke-width="0.382" stroke-miterlimit="10"/>
<path d="M270.504 94.0203C270.348 96.4748 268.233 98.3396 265.777 98.1842C263.323 98.0294 261.458 95.913 261.614 93.4585C261.769 91.0033 263.885 89.1392 266.34 89.2946C268.794 89.4494 270.659 91.5658 270.504 94.0203Z" stroke="#101F51" stroke-width="0.382" stroke-miterlimit="10"/>
<path d="M274.181 94.3743C274.164 94.362 272.324 93.2167 270.569 94.1432L270.44 93.8988C272.335 92.8966 274.249 94.0899 274.329 94.1417L274.181 94.3743Z" fill="white"/>
<path d="M274.181 94.3743C274.164 94.362 272.324 93.2167 270.569 94.1432L270.44 93.8988C272.335 92.8966 274.249 94.0899 274.329 94.1417L274.181 94.3743Z" stroke="#101F51" stroke-miterlimit="10"/>
<path d="M275.035 92.1319L269.998 91.8141L270.015 91.5385L275.053 91.8571L275.035 92.1319Z" fill="#101F51"/>
<path d="M0 398C0 341.667 45.667 296 102 296H354C410.333 296 456 341.667 456 398H0Z" fill="#FFA733" fill-opacity="0.2"/>
</svg>
