<svg width="60" height="60" viewBox="0 0 60 60" fill="none" xmlns="http://www.w3.org/2000/svg">
<g clip-path="url(#clip0)">
<path d="M35.2734 33.7263V24.6094H33.5156C30.6077 24.6094 28.2422 22.2438 28.2422 19.3359V5.27344C28.2422 2.36555 30.6077 0 33.5156 0H54.6094C57.5173 0 59.8828 2.36555 59.8828 5.27344V19.3359C59.8828 22.2438 57.5173 24.6094 54.6094 24.6094H45.8169L35.2734 33.7263Z" fill="#DD99FF"/>
<path d="M54.6086 0H44.2969V25.9233L45.816 24.6094H54.6084C57.5163 24.6094 59.8819 22.2438 59.8819 19.3359V5.27344C59.882 2.36555 57.5164 0 54.6086 0Z" fill="#B973FF"/>
<path d="M24.7266 28.3594H19.4531C16.5349 28.3594 14.1797 26.004 14.1797 23.0859H10.6641V33.1054C10.6641 37.7108 13.9685 41.8944 18.5391 42.3866C18.8558 42.4218 19.1365 42.4218 19.4531 42.4218C23.9532 42.4218 27.7147 38.9766 28.207 34.582C28.2422 34.2655 28.2422 33.9492 28.2422 33.6327V31.8749C28.2422 29.9414 26.6604 28.3594 24.7266 28.3594Z" fill="#FFE6CC"/>
<path d="M28.2422 31.875V33.6328C28.2422 33.9493 28.2422 34.2656 28.207 34.5821C27.7148 38.9767 23.9532 42.4219 19.4531 42.4219V28.3594H24.7266C26.6604 28.3594 28.2422 29.9414 28.2422 31.875Z" fill="#FFCCB3"/>
<path d="M38.7891 60H31.7578C29.8161 60 28.2422 58.426 28.2422 56.4844V43.0398L30.867 44.5489C35.7679 47.3667 38.7891 52.5889 38.7891 58.2421V60Z" fill="#4DA6FF"/>
<path d="M7.14844 60.0001H0.117188V58.2423C0.117188 52.5891 3.1384 47.367 8.0393 44.5492L10.6641 43.04V56.4845C10.6641 58.4262 9.09012 60.0001 7.14844 60.0001Z" fill="#59C8FF"/>
<path d="M28.2422 31.875H19.4531C14.6054 31.875 10.6641 27.932 10.6641 23.0859V21.3281H19.4531C24.3008 21.3281 28.2422 25.2711 28.2422 30.1172V31.875Z" fill="#FFC24D"/>
<path d="M31.7579 60.0002H7.14844V42.4221H31.7579V60.0002Z" fill="#66538C"/>
<path d="M39.5387 17.0632L34.7803 12.3048L39.5387 7.54639L42.0243 10.0319L39.7515 12.3048L42.0243 14.5777L39.5387 17.0632Z" fill="#F3F5F9"/>
<path d="M49.056 17.0632L46.5703 14.5777L48.8432 12.3048L46.5703 10.0319L49.056 7.54639L53.8144 12.3048L49.056 17.0632Z" fill="#F3F5F9"/>
<path d="M39.5387 17.0632L34.7803 12.3048L39.5387 7.54639L42.0243 10.0319L39.7515 12.3048L42.0243 14.5777L39.5387 17.0632Z" fill="#F3F5F9"/>
<path d="M49.055 17.0632L46.5693 14.5777L48.8422 12.3048L46.5693 10.0319L49.055 7.54639L53.8134 12.3048L49.055 17.0632Z" fill="#D9E5FF"/>
<path d="M28.2422 31.875V30.1172C28.2422 25.2711 24.3008 21.3281 19.4531 21.3281V31.875H28.2422Z" fill="#FF9F40"/>
<path d="M19.4531 42.4219H31.7579V60H19.4531V42.4219Z" fill="#443D66"/>
</g>
<defs>
<clipPath id="clip0">
<rect width="60" height="60" fill="white"/>
</clipPath>
</defs>
</svg>
