<svg width="66" height="66" viewBox="0 0 66 66" fill="none" xmlns="http://www.w3.org/2000/svg">
<path d="M15.4688 58.7812H48.4688C50.1774 58.7812 51.5625 57.3962 51.5625 55.6875V14.4375C47.1325 10.0075 44.6487 7.52374 40.2188 3.09375H15.4688C13.7601 3.09375 12.375 4.47885 12.375 6.1875V55.6875C12.375 57.3962 13.7601 58.7812 15.4688 58.7812Z" fill="#B6BBFF"/>
<path d="M51.5625 14.4375H43.3125C41.6038 14.4375 40.2188 13.0524 40.2188 11.3438V3.09375L51.5625 14.4375Z" fill="#5861C7"/>
<path d="M34.0312 62.9062H8.25C7.11086 62.9062 6.1875 61.9829 6.1875 60.8438V36.0938C6.1875 34.9546 7.11086 34.0312 8.25 34.0312H34.0312C35.1704 34.0312 36.0938 34.9546 36.0938 36.0938V60.8438C36.0938 61.9829 35.1704 62.9062 34.0312 62.9062Z" fill="#E2AC57"/>
<path d="M28.875 62.9062H8.25C7.11086 62.9062 6.1875 61.9829 6.1875 60.8438V36.0938C6.1875 34.9546 7.11086 34.0312 8.25 34.0312H28.875C30.0141 34.0312 30.9375 34.9546 30.9375 36.0938V60.8438C30.9375 61.9829 30.0141 62.9062 28.875 62.9062Z" fill="#FFCD06"/>
<path d="M9.28125 42.2812H27.8438C28.4133 42.2812 28.875 41.8195 28.875 41.25V37.125C28.875 36.5555 28.4133 36.0938 27.8438 36.0938H9.28125C8.71174 36.0938 8.25 36.5555 8.25 37.125V41.25C8.25 41.8195 8.71174 42.2812 9.28125 42.2812Z" fill="#46508C"/>
<path d="M9.28125 60.8438H27.8438C28.4133 60.8438 28.875 60.382 28.875 59.8125V45.375C28.875 44.8055 28.4133 44.3438 27.8438 44.3438H9.28125C8.71174 44.3438 8.25 44.8055 8.25 45.375V59.8125C8.25 60.382 8.71174 60.8438 9.28125 60.8438Z" fill="#46508C"/>
<path d="M9.28125 60.8438H25.7812C26.3508 60.8438 26.8125 60.382 26.8125 59.8125V45.375C26.8125 44.8055 26.3508 44.3438 25.7812 44.3438H9.28125C8.71174 44.3438 8.25 44.8055 8.25 45.375V59.8125C8.25 60.382 8.71174 60.8438 9.28125 60.8438Z" fill="#5861C7"/>
<path d="M26.8125 51.9063H18.2187V44.3438H16.8438V51.9063H8.25V53.2812H16.8438V60.8438H18.2187V53.2812H26.8125V51.9063Z" fill="#46508C"/>
<path d="M24.0625 48.8984H20.9687C20.5417 48.8984 20.1953 48.5521 20.1953 48.125C20.1953 47.6979 20.5417 47.3516 20.9687 47.3516H24.0625C24.4896 47.3516 24.8359 47.6979 24.8359 48.125C24.8359 48.5521 24.4896 48.8984 24.0625 48.8984Z" fill="#B6BBFF"/>
<path d="M14.0938 56.4609H11C10.5729 56.4609 10.2266 56.1146 10.2266 55.6875C10.2266 55.2604 10.5729 54.9141 11 54.9141H14.0938C14.5208 54.9141 14.8672 55.2604 14.8672 55.6875C14.8672 56.1146 14.5208 56.4609 14.0938 56.4609Z" fill="#B6BBFF"/>
<path d="M14.0938 59.2109H11C10.5729 59.2109 10.2266 58.8646 10.2266 58.4375C10.2266 58.0104 10.5729 57.6641 11 57.6641H14.0938C14.5208 57.6641 14.8672 58.0104 14.8672 58.4375C14.8672 58.8646 14.5208 59.2109 14.0938 59.2109Z" fill="#B6BBFF"/>
<path d="M14.0938 47.3516H13.3203V46.5781C13.3203 46.1511 12.9739 45.8047 12.5469 45.8047C12.1198 45.8047 11.7734 46.1511 11.7734 46.5781V47.3516H11C10.5729 47.3516 10.2266 47.6979 10.2266 48.125C10.2266 48.5521 10.5729 48.8984 11 48.8984H11.7734V49.6719C11.7734 50.0989 12.1198 50.4453 12.5469 50.4453C12.9739 50.4453 13.3203 50.0989 13.3203 49.6719V48.8984H14.0938C14.5208 48.8984 14.8672 48.5521 14.8672 48.125C14.8672 47.6979 14.5208 47.3516 14.0938 47.3516Z" fill="#B6BBFF"/>
<path d="M23.6093 57.0627L24.4374 56.2346C24.7395 55.9326 24.7395 55.4429 24.4373 55.1408C24.1354 54.8388 23.6456 54.8388 23.3435 55.1408L22.5156 55.9688L21.6876 55.1408C21.3856 54.8388 20.8957 54.8388 20.5938 55.1408C20.2917 55.4429 20.2917 55.9326 20.5937 56.2346L21.4218 57.0627L20.5937 57.8908C20.2917 58.1928 20.2917 58.6825 20.5938 58.9845C20.7448 59.1355 20.9428 59.211 21.1406 59.211C21.3385 59.211 21.5365 59.1355 21.6876 58.9845L22.5156 58.1566L23.3435 58.9845C23.4946 59.1356 23.6925 59.211 23.8905 59.211C24.0883 59.211 24.2863 59.1355 24.4373 58.9845C24.7395 58.6825 24.7395 58.1928 24.4374 57.8908L23.6093 57.0627Z" fill="#B6BBFF"/>
<path d="M58.7812 42.2812H44.3438C43.7742 42.2812 43.3125 41.8195 43.3125 41.25V39.1875C43.3125 38.618 43.7742 38.1562 44.3438 38.1562H58.7812C59.3508 38.1562 59.8125 38.618 59.8125 39.1875V41.25C59.8125 41.8195 59.3508 42.2812 58.7812 42.2812Z" fill="#E2AC57"/>
<path d="M58.7812 38.1562H51.5625V42.2812H58.7812C59.3508 42.2812 59.8125 41.8195 59.8125 41.25V39.1875C59.8125 38.618 59.3508 38.1562 58.7812 38.1562Z" fill="#CF902D"/>
<path d="M56.7188 46.4062H42.2812C41.7117 46.4062 41.25 45.9445 41.25 45.375V43.3125C41.25 42.743 41.7117 42.2812 42.2812 42.2812H56.7188C57.2883 42.2812 57.75 42.743 57.75 43.3125V45.375C57.75 45.9445 57.2883 46.4062 56.7188 46.4062Z" fill="#FFCD06"/>
<path d="M56.7188 42.2812H49.5V46.4062H56.7188C57.2883 46.4062 57.75 45.9445 57.75 45.375V43.3125C57.75 42.743 57.2883 42.2812 56.7188 42.2812Z" fill="#E2AC57"/>
<path d="M58.7812 54.6562H44.3438C43.7742 54.6562 43.3125 54.1945 43.3125 53.625V51.5625C43.3125 50.993 43.7742 50.5312 44.3438 50.5312H58.7812C59.3508 50.5312 59.8125 50.993 59.8125 51.5625V53.625C59.8125 54.1945 59.3508 54.6562 58.7812 54.6562Z" fill="#FFCD06"/>
<path d="M58.7812 50.5312H51.5625V54.6562H58.7812C59.3508 54.6562 59.8125 54.1945 59.8125 53.625V51.5625C59.8125 50.993 59.3508 50.5312 58.7812 50.5312Z" fill="#E2AC57"/>
<path d="M58.7812 62.9062H44.3438C43.7742 62.9062 43.3125 62.4445 43.3125 61.875V59.8125C43.3125 59.243 43.7742 58.7812 44.3438 58.7812H58.7812C59.3508 58.7812 59.8125 59.243 59.8125 59.8125V61.875C59.8125 62.4445 59.3508 62.9062 58.7812 62.9062Z" fill="#FFCD06"/>
<path d="M58.7812 58.7812H51.5625V62.9062H58.7812C59.3508 62.9062 59.8125 62.4445 59.8125 61.875V59.8125C59.8125 59.243 59.3508 58.7812 58.7812 58.7812Z" fill="#E2AC57"/>
<path d="M56.7188 58.7812H42.2812C41.7117 58.7812 41.25 58.3195 41.25 57.75V55.6875C41.25 55.118 41.7117 54.6562 42.2812 54.6562H56.7188C57.2883 54.6562 57.75 55.118 57.75 55.6875V57.75C57.75 58.3195 57.2883 58.7812 56.7188 58.7812Z" fill="#E2AC57"/>
<path d="M56.7188 54.6562H49.5V58.7812H56.7188C57.2883 58.7812 57.75 58.3195 57.75 57.75V55.6875C57.75 55.118 57.2883 54.6562 56.7188 54.6562Z" fill="#CF902D"/>
<path d="M58.7812 50.5312H44.3438C43.7742 50.5312 43.3125 50.0695 43.3125 49.5V47.4375C43.3125 46.868 43.7742 46.4062 44.3438 46.4062H58.7812C59.3508 46.4062 59.8125 46.868 59.8125 47.4375V49.5C59.8125 50.0695 59.3508 50.5312 58.7812 50.5312Z" fill="#E2AC57"/>
<path d="M58.7812 46.4062H51.5625V50.5312H58.7812C59.3508 50.5312 59.8125 50.0695 59.8125 49.5V47.4375C59.8125 46.868 59.3508 46.4062 58.7812 46.4062Z" fill="#CF902D"/>
<path d="M41.7458 17.16H22.9358C21.2043 17.16 19.8008 18.0465 19.8008 19.14C19.8008 20.2336 21.2043 21.12 22.9358 21.12H41.7458C43.4773 21.12 44.8808 20.2336 44.8808 19.14C44.8808 18.0465 43.4773 17.16 41.7458 17.16Z" fill="#5861C7"/>
<path d="M41.7458 26.4H22.9358C21.2043 26.4 19.8008 27.2864 19.8008 28.38C19.8008 29.4736 21.2043 30.36 22.9358 30.36H41.7458C43.4773 30.36 44.8808 29.4736 44.8808 28.38C44.8808 27.2864 43.4773 26.4 41.7458 26.4Z" fill="#5861C7"/>
</svg>
