<svg width="55" height="55" viewBox="0 0 55 55" fill="none" xmlns="http://www.w3.org/2000/svg">
<circle cx="27.5" cy="27.5" r="27.5" fill="#33658A" fill-opacity="0.2"/>
<circle cx="27.5" cy="27.5" r="22.5" fill="#33658A"/>
<path d="M28.3623 16.2755L28.3627 16.2758L37.5879 23.3629C37.8343 23.5526 37.8974 23.8539 37.8175 24.1151C37.7376 24.3759 37.523 24.5738 37.2277 24.5738H35.73H35.58V24.7238V34.2652V34.4152H35.73H37.4693C37.4851 34.4152 37.5125 34.4321 37.5125 34.4693V35.7959C37.5125 35.8331 37.4851 35.85 37.4693 35.85H18.5306C18.5148 35.85 18.4873 35.8331 18.4873 35.7959V34.4693C18.4873 34.4321 18.5148 34.4152 18.5306 34.4152H20.2699H20.4199V34.2652V24.7238V24.5738H20.2699H18.7746C18.478 24.5738 18.2628 24.3752 18.1827 24.114C18.1024 23.8525 18.1658 23.5514 18.4116 23.3632L18.4118 23.363L27.6372 16.2758L27.6376 16.2755C27.7436 16.1935 27.8706 16.15 27.9999 16.15C28.1293 16.15 28.2563 16.1935 28.3623 16.2755ZM28.0913 17.8365L27.9999 17.7663L27.9086 17.8365L21.3597 22.8675L21.0096 23.1364H21.4511H34.5488H34.9903L34.6402 22.8675L28.0913 17.8365ZM22.0091 24.5738H21.8591V24.7238V34.2652V34.4152H22.0091H24.8354H24.9854V34.2652V24.7238V24.5738H24.8354H22.0091ZM26.5747 24.5738H26.4247V24.7238V34.2652V34.4152H26.5747H29.401H29.551V34.2652V24.7238V24.5738H29.401H26.5747ZM33.9908 34.4152H34.1408V34.2652V24.7238V24.5738H33.9908H31.1403H30.9903V24.7238V34.2652V34.4152H31.1403H33.9908Z" fill="white" stroke="#33658A" stroke-width="0.3"/>
</svg>
