<svg width="67" height="76" viewBox="0 0 67 76" fill="none" xmlns="http://www.w3.org/2000/svg">
<path d="M11.5312 70.0312H52.5312C54.6541 70.0312 56.375 68.3104 56.375 66.1875V14.9375C50.8711 9.43357 47.7852 6.34768 42.2812 0.84375H11.5312C9.40838 0.84375 7.6875 2.56463 7.6875 4.6875V66.1875C7.6875 68.3104 9.40838 70.0312 11.5312 70.0312Z" fill="#B6BBFF"/>
<path d="M56.375 14.9375H46.125C44.0021 14.9375 42.2812 13.2166 42.2812 11.0938V0.84375L56.375 14.9375Z" fill="#5861C7"/>
<path d="M34.5938 75.1562H2.5625C1.1472 75.1562 0 74.0091 0 72.5938V41.8438C0 40.4284 1.1472 39.2812 2.5625 39.2812H34.5938C36.0091 39.2812 37.1562 40.4284 37.1562 41.8438V72.5938C37.1562 74.0091 36.0091 75.1562 34.5938 75.1562Z" fill="#E2AC57"/>
<path d="M28.1875 75.1562H2.5625C1.1472 75.1562 0 74.0091 0 72.5938V41.8438C0 40.4284 1.1472 39.2812 2.5625 39.2812H28.1875C29.6028 39.2812 30.75 40.4284 30.75 41.8438V72.5938C30.75 74.0091 29.6028 75.1562 28.1875 75.1562Z" fill="#FFCD06"/>
<path d="M3.84375 49.5312H26.9062C27.6138 49.5312 28.1875 48.9576 28.1875 48.25V43.125C28.1875 42.4174 27.6138 41.8438 26.9062 41.8438H3.84375C3.13618 41.8438 2.5625 42.4174 2.5625 43.125V48.25C2.5625 48.9576 3.13618 49.5312 3.84375 49.5312Z" fill="#46508C"/>
<path d="M3.84375 72.5938H26.9062C27.6138 72.5938 28.1875 72.0201 28.1875 71.3125V53.375C28.1875 52.6674 27.6138 52.0938 26.9062 52.0938H3.84375C3.13618 52.0938 2.5625 52.6674 2.5625 53.375V71.3125C2.5625 72.0201 3.13618 72.5938 3.84375 72.5938Z" fill="#46508C"/>
<path d="M3.84375 72.5938H24.3438C25.0513 72.5938 25.625 72.0201 25.625 71.3125V53.375C25.625 52.6674 25.0513 52.0938 24.3438 52.0938H3.84375C3.13618 52.0938 2.5625 52.6674 2.5625 53.375V71.3125C2.5625 72.0201 3.13618 72.5938 3.84375 72.5938Z" fill="#5861C7"/>
<path d="M25.625 61.4896H14.9479V52.0938H13.2396V61.4896H2.5625V63.1979H13.2396V72.5938H14.9479V63.1979H25.625V61.4896Z" fill="#46508C"/>
<path d="M22.208 57.7526H18.3643C17.8337 57.7526 17.4033 57.3222 17.4033 56.7916C17.4033 56.261 17.8337 55.8307 18.3643 55.8307H22.208C22.7386 55.8307 23.1689 56.261 23.1689 56.7916C23.1689 57.3222 22.7386 57.7526 22.208 57.7526Z" fill="#B6BBFF"/>
<path d="M9.82324 67.1484H5.97949C5.44889 67.1484 5.01855 66.7181 5.01855 66.1875C5.01855 65.6569 5.44889 65.2266 5.97949 65.2266H9.82324C10.3538 65.2266 10.7842 65.6569 10.7842 66.1875C10.7842 66.7181 10.3538 67.1484 9.82324 67.1484Z" fill="#B6BBFF"/>
<path d="M9.82324 70.5651H5.97949C5.44889 70.5651 5.01855 70.1347 5.01855 69.6041C5.01855 69.0735 5.44889 68.6432 5.97949 68.6432H9.82324C10.3538 68.6432 10.7842 69.0735 10.7842 69.6041C10.7842 70.1347 10.3538 70.5651 9.82324 70.5651Z" fill="#B6BBFF"/>
<path d="M9.82324 55.8307H8.86231V54.8698C8.86231 54.3392 8.43197 53.9088 7.90137 53.9088C7.37077 53.9088 6.94043 54.3392 6.94043 54.8698V55.8307H5.97949C5.44889 55.8307 5.01855 56.261 5.01855 56.7916C5.01855 57.3222 5.44889 57.7526 5.97949 57.7526H6.94043V58.7135C6.94043 59.2441 7.37077 59.6744 7.90137 59.6744C8.43197 59.6744 8.86231 59.2441 8.86231 58.7135V57.7526H9.82324C10.3538 57.7526 10.7842 57.3222 10.7842 56.7916C10.7842 56.261 10.3538 55.8307 9.82324 55.8307Z" fill="#B6BBFF"/>
<path d="M21.6453 67.896L22.6741 66.8672C23.0494 66.4919 23.0494 65.8835 22.674 65.5082C22.2989 65.133 21.6903 65.133 21.3151 65.5082L20.2864 66.5369L19.2577 65.5082C18.8824 65.133 18.2738 65.133 17.8988 65.5082C17.5234 65.8835 17.5234 66.4919 17.8986 66.8672L18.9274 67.896L17.8986 68.9249C17.5234 69.3001 17.5234 69.9085 17.8988 70.2838C18.0863 70.4713 18.3323 70.5652 18.5781 70.5652C18.824 70.5652 19.07 70.4713 19.2577 70.2838L20.2864 69.2551L21.3151 70.2838C21.5028 70.4715 21.7486 70.5652 21.9946 70.5652C22.2404 70.5652 22.4864 70.4713 22.674 70.2838C23.0494 69.9085 23.0494 69.3001 22.6741 68.9249L21.6453 67.896Z" fill="#B6BBFF"/>
<path d="M65.3438 49.5312H47.4062C46.6987 49.5312 46.125 48.9576 46.125 48.25V45.6875C46.125 44.9799 46.6987 44.4062 47.4062 44.4062H65.3438C66.0513 44.4062 66.625 44.9799 66.625 45.6875V48.25C66.625 48.9576 66.0513 49.5312 65.3438 49.5312Z" fill="#E2AC57"/>
<path d="M65.3438 44.4062H56.375V49.5312H65.3438C66.0513 49.5312 66.625 48.9576 66.625 48.25V45.6875C66.625 44.9799 66.0513 44.4062 65.3438 44.4062Z" fill="#CF902D"/>
<path d="M62.7812 54.6562H44.8438C44.1362 54.6562 43.5625 54.0826 43.5625 53.375V50.8125C43.5625 50.1049 44.1362 49.5312 44.8438 49.5312H62.7812C63.4888 49.5312 64.0625 50.1049 64.0625 50.8125V53.375C64.0625 54.0826 63.4888 54.6562 62.7812 54.6562Z" fill="#FFCD06"/>
<path d="M62.7812 49.5312H53.8125V54.6562H62.7812C63.4888 54.6562 64.0625 54.0826 64.0625 53.375V50.8125C64.0625 50.1049 63.4888 49.5312 62.7812 49.5312Z" fill="#E2AC57"/>
<path d="M65.3438 64.9062H47.4062C46.6987 64.9062 46.125 64.3326 46.125 63.625V61.0625C46.125 60.3549 46.6987 59.7812 47.4062 59.7812H65.3438C66.0513 59.7812 66.625 60.3549 66.625 61.0625V63.625C66.625 64.3326 66.0513 64.9062 65.3438 64.9062Z" fill="#FFCD06"/>
<path d="M65.3438 59.7812H56.375V64.9062H65.3438C66.0513 64.9062 66.625 64.3326 66.625 63.625V61.0625C66.625 60.3549 66.0513 59.7812 65.3438 59.7812Z" fill="#E2AC57"/>
<path d="M65.3438 75.1562H47.4062C46.6987 75.1562 46.125 74.5826 46.125 73.875V71.3125C46.125 70.6049 46.6987 70.0312 47.4062 70.0312H65.3438C66.0513 70.0312 66.625 70.6049 66.625 71.3125V73.875C66.625 74.5826 66.0513 75.1562 65.3438 75.1562Z" fill="#FFCD06"/>
<path d="M65.3438 70.0312H56.375V75.1562H65.3438C66.0513 75.1562 66.625 74.5826 66.625 73.875V71.3125C66.625 70.6049 66.0513 70.0312 65.3438 70.0312Z" fill="#E2AC57"/>
<path d="M62.7812 70.0312H44.8438C44.1362 70.0312 43.5625 69.4576 43.5625 68.75V66.1875C43.5625 65.4799 44.1362 64.9062 44.8438 64.9062H62.7812C63.4888 64.9062 64.0625 65.4799 64.0625 66.1875V68.75C64.0625 69.4576 63.4888 70.0312 62.7812 70.0312Z" fill="#E2AC57"/>
<path d="M62.7812 64.9062H53.8125V70.0312H62.7812C63.4888 70.0312 64.0625 69.4576 64.0625 68.75V66.1875C64.0625 65.4799 63.4888 64.9062 62.7812 64.9062Z" fill="#CF902D"/>
<path d="M65.3438 59.7812H47.4062C46.6987 59.7812 46.125 59.2076 46.125 58.5V55.9375C46.125 55.2299 46.6987 54.6562 47.4062 54.6562H65.3438C66.0513 54.6562 66.625 55.2299 66.625 55.9375V58.5C66.625 59.2076 66.0513 59.7812 65.3438 59.7812Z" fill="#E2AC57"/>
<path d="M65.3438 54.6562H56.375V59.7812H65.3438C66.0513 59.7812 66.625 59.2076 66.625 58.5V55.9375C66.625 55.2299 66.0513 54.6562 65.3438 54.6562Z" fill="#CF902D"/>
<path d="M44.1781 18.3201H20.8081C18.6568 18.3201 16.9131 19.4214 16.9131 20.7801C16.9131 22.1388 18.6568 23.2401 20.8081 23.2401H44.1781C46.3293 23.2401 48.0731 22.1388 48.0731 20.7801C48.0731 19.4214 46.3293 18.3201 44.1781 18.3201Z" fill="#5861C7"/>
<path d="M44.1781 29.8H20.8081C18.6568 29.8 16.9131 30.9014 16.9131 32.2601C16.9131 33.6187 18.6568 34.7201 20.8081 34.7201H44.1781C46.3293 34.7201 48.0731 33.6187 48.0731 32.2601C48.0731 30.9014 46.3293 29.8 44.1781 29.8Z" fill="#5861C7"/>
</svg>
