<svg width="64" height="58" viewBox="0 0 64 58" fill="none" xmlns="http://www.w3.org/2000/svg">
<g clip-path="url(#clip0)">
<path d="M15.1249 11.0458L2.22852 19.8398L4.18864 24.9298L18.8749 34.0977V13.5938L15.1249 11.0458Z" fill="#C4CAD9"/>
<path d="M48.875 11.0458L45.125 13.5938V37.4962L59.6146 25.543L61.7714 19.8396L48.875 11.0458Z" fill="#B8BFCC"/>
<path d="M37.8148 0H26.1852L15.125 10.0234V47.8047C15.125 48.7439 15.9636 49.5039 17 49.5039H47C48.0364 49.5039 48.875 48.7439 48.875 47.8047V10.0234L37.8148 0Z" fill="#7ACC29"/>
<path d="M32 0V49.5039H47C48.0364 49.5039 48.875 48.7439 48.875 47.8047V10.0234L37.8148 0H32Z" fill="#71BF25"/>
<path d="M26.375 1.69922C26.375 1.11741 26.3089 0.549301 26.1852 0H17C15.9636 0 15.125 0.760004 15.125 1.69922V10.0234C15.7311 10.1354 16.358 10.1953 17 10.1953C22.1691 10.1953 26.375 6.38374 26.375 1.69922Z" fill="#63A621"/>
<path d="M47 0H37.8148C37.6911 0.549301 37.625 1.11741 37.625 1.69922C37.625 6.38374 41.8309 10.1953 47 10.1953C47.642 10.1953 48.2689 10.1354 48.875 10.0234V1.69922C48.875 0.760004 48.0364 0 47 0Z" fill="#5B991F"/>
<path d="M61.7714 19.8396C57.6106 23.1957 44.929 33.3227 40.7231 36.7148L40.6973 41.285L56.8541 54.6017L63.2981 55.317C63.7313 54.595 64 53.7807 64 52.9024V22.5918C64 21.04 63.329 20.8983 61.7714 19.8396Z" fill="#C9D0DF"/>
<path d="M23.2753 36.7145C19.0698 33.3225 6.38938 23.1953 2.22863 19.8397C1.1775 20.554 0 21.0715 0 22.2031C0 38.2152 0 36.9148 0 52.9023C0 53.7806 0.26875 54.5949 0.702 55.3169L7.1455 54.6015L23.3014 41.2849L23.2753 36.7145Z" fill="#D5DCEC"/>
<path d="M63.2879 55.3151C62.2753 57.0144 60.4003 58 58.3754 58H5.62539C3.60052 58 1.72552 57.0144 0.712891 55.3151C4.91289 51.8488 18.988 40.2488 23.2628 36.7144C26.3378 39.1953 25.0629 38.1418 30.7628 42.7637C31.1004 43.0357 31.5504 43.1715 32.0004 43.1715C32.4504 43.1715 32.9004 43.0357 33.238 42.7637C35.9754 40.5208 37.9255 38.9914 40.738 36.7144C45.6129 40.7246 58.4129 51.271 63.2879 55.3151Z" fill="#E6EEFF"/>
<path d="M63.2875 55.3151C62.2749 57.0143 60.3999 58 58.375 58H32V43.1714C32.45 43.1714 32.9 43.0356 33.2376 42.7636C35.975 40.5207 37.9251 38.9913 40.7376 36.7142C45.6125 40.7246 58.4125 51.271 63.2875 55.3151Z" fill="#DAE2F2"/>
<path d="M36.4955 16.026H33.2735C33.8015 16.398 34.1795 16.89 34.4075 17.502H36.4955V18.528H34.6415C34.6655 18.648 34.6775 18.828 34.6775 19.068C34.6775 20.016 34.4255 20.82 33.9215 21.48C33.4295 22.14 32.7275 22.62 31.8155 22.92L34.9115 27.6H32.9495L30.0875 23.244C29.9435 23.256 29.7275 23.262 29.4395 23.262H26.3255V21.714H29.3855C30.5615 21.714 31.4375 21.474 32.0135 20.994C32.5895 20.502 32.8775 19.848 32.8775 19.032C32.8775 18.912 32.8655 18.744 32.8415 18.528H24.9575V17.502H32.5175C31.9655 16.506 30.8735 16.014 29.2415 16.026H24.9575V15H36.4955V16.026Z" fill="black"/>
</g>
<defs>
<clipPath id="clip0">
<rect width="64" height="58" fill="white"/>
</clipPath>
</defs>
</svg>
