<svg width="60" height="60" viewBox="0 0 60 60" fill="none" xmlns="http://www.w3.org/2000/svg">
<path d="M55.3125 25.3125H52.4944C51.6684 25.3125 50.9353 24.7725 50.7047 23.9794C50.2603 22.4494 49.6519 20.9906 48.8981 19.6219C48.4988 18.8972 48.6338 17.9962 49.2188 17.4103L51.2128 15.4163C51.945 14.6841 51.945 13.4972 51.2128 12.765L47.235 8.78719C46.5028 8.055 45.3159 8.055 44.5837 8.78719L42.5897 10.7812C42.0047 11.3663 41.1037 11.5013 40.3781 11.1019C39.0094 10.3481 37.5506 9.73969 36.0206 9.29531C35.2275 9.06563 34.6875 8.3325 34.6875 7.50562V4.6875C34.6875 3.65156 33.8484 2.8125 32.8125 2.8125H27.1875C26.1516 2.8125 25.3125 3.65156 25.3125 4.6875V7.50562C25.3125 8.33156 24.7725 9.06469 23.9794 9.29531C22.4494 9.73969 20.9906 10.3481 19.6219 11.1019C18.8972 11.5013 17.9962 11.3663 17.4103 10.7812L15.4163 8.78719C14.6841 8.055 13.4972 8.055 12.765 8.78719L8.78719 12.765C8.055 13.4972 8.055 14.6841 8.78719 15.4163L10.7812 17.4103C11.3663 17.9953 11.5013 18.8962 11.1019 19.6219C10.3481 20.9906 9.73969 22.4494 9.29531 23.9794C9.06563 24.7725 8.3325 25.3125 7.50562 25.3125H4.6875C3.65156 25.3125 2.8125 26.1516 2.8125 27.1875V32.8125C2.8125 33.8484 3.65156 34.6875 4.6875 34.6875H7.50562C8.33156 34.6875 9.06469 35.2275 9.29531 36.0206C9.73969 37.5506 10.3481 39.0094 11.1019 40.3781C11.5013 41.1028 11.3663 42.0037 10.7812 42.5897L8.78719 44.5837C8.055 45.3159 8.055 46.5028 8.78719 47.235L12.765 51.2128C13.4972 51.945 14.6841 51.945 15.4163 51.2128L17.4103 49.2188C17.9953 48.6338 18.8962 48.4988 19.6219 48.8981C20.9906 49.6519 22.4494 50.2603 23.9794 50.7047C24.7725 50.9344 25.3125 51.6675 25.3125 52.4944V55.3125C25.3125 56.3484 26.1516 57.1875 27.1875 57.1875H32.8125C33.8484 57.1875 34.6875 56.3484 34.6875 55.3125V52.4944C34.6875 51.6684 35.2275 50.9353 36.0206 50.7047C37.5506 50.2603 39.0094 49.6519 40.3781 48.8981C41.1028 48.4988 42.0037 48.6338 42.5897 49.2188L44.5837 51.2128C45.3159 51.945 46.5028 51.945 47.235 51.2128L51.2128 47.235C51.945 46.5028 51.945 45.3159 51.2128 44.5837L49.2188 42.5897C48.6338 42.0047 48.4988 41.1037 48.8981 40.3781C49.6519 39.0094 50.2603 37.5506 50.7047 36.0206C50.9344 35.2275 51.6675 34.6875 52.4944 34.6875H55.3125C56.3484 34.6875 57.1875 33.8484 57.1875 32.8125V27.1875C57.1875 26.1516 56.3484 25.3125 55.3125 25.3125ZM30 45.9375C21.1978 45.9375 14.0625 38.8022 14.0625 30C14.0625 21.1978 21.1978 14.0625 30 14.0625C38.8022 14.0625 45.9375 21.1978 45.9375 30C45.9375 38.8022 38.8022 45.9375 30 45.9375Z" fill="#3449A3"/>
<path d="M9.29531 36.0206C9.67406 37.3266 10.1803 38.5772 10.7869 39.7678C11.3653 39.1828 11.4984 38.2875 11.1009 37.5656C10.3472 36.1969 9.73875 34.7381 9.29437 33.2081C9.06562 32.415 8.3325 31.875 7.50562 31.875H4.6875C3.65156 31.875 2.8125 31.0359 2.8125 30V32.8125C2.8125 33.8484 3.65156 34.6875 4.6875 34.6875H7.50562C8.3325 34.6875 9.06563 35.2275 9.29531 36.0206Z" fill="#2E4191"/>
<path d="M25.3127 49.6819C25.3127 48.856 24.7727 48.1229 23.9796 47.8922C22.4496 47.4479 20.9909 46.8394 19.6221 46.0857C18.8974 45.6863 17.9965 45.8213 17.4105 46.4063L15.4165 48.4004C14.6843 49.1325 13.4974 49.1325 12.7652 48.4004L8.86805 44.5032L8.78742 44.5838C8.05523 45.316 8.05523 46.5029 8.78742 47.235L12.7652 51.2129C13.4974 51.945 14.6843 51.945 15.4165 51.2129L17.4105 49.2188C17.9955 48.6338 18.8965 48.4988 19.6221 48.8982C20.9909 49.6519 22.4496 50.2604 23.9796 50.7047C24.7727 50.9344 25.3127 51.6675 25.3127 52.4944V49.6819Z" fill="#2E4191"/>
<path d="M55.3123 31.875H52.4942C51.6683 31.875 50.9351 32.415 50.7045 33.2081C50.2601 34.7381 49.6517 36.1969 48.898 37.5656C48.5005 38.2875 48.6336 39.1828 49.212 39.7678C49.8186 38.5772 50.3248 37.3266 50.7036 36.0206C50.9342 35.2275 51.6673 34.6875 52.4942 34.6875H55.3123C56.3483 34.6875 57.1873 33.8484 57.1873 32.8125V30C57.1873 31.0359 56.3483 31.875 55.3123 31.875Z" fill="#2E4191"/>
<path d="M51.1331 44.5039L47.2359 48.4011C46.5037 49.1333 45.3169 49.1333 44.5847 48.4011L42.5897 46.4061C42.0047 45.8211 41.1037 45.6861 40.3781 46.0855C39.0094 46.8392 37.5506 47.4477 36.0206 47.892C35.2275 48.1217 34.6875 48.8548 34.6875 49.6817V52.4942C34.6875 51.6683 35.2275 50.9352 36.0206 50.7045C37.5506 50.2602 39.0094 49.6517 40.3781 48.898C41.1028 48.4986 42.0038 48.6336 42.5897 49.2186L44.5837 51.2127C45.3159 51.9448 46.5028 51.9448 47.235 51.2127L51.2128 47.2348C51.945 46.5027 51.945 45.3158 51.2128 44.5836L51.1331 44.5039Z" fill="#2E4191"/>
<path d="M32.8125 54.375H27.1875C26.1516 54.375 25.3125 53.5359 25.3125 52.5V55.3125C25.3125 56.3484 26.1516 57.1875 27.1875 57.1875H32.8125C33.8484 57.1875 34.6875 56.3484 34.6875 55.3125V52.5C34.6875 53.5359 33.8484 54.375 32.8125 54.375Z" fill="#2E4191"/>
<path d="M56.6213 9.00375L51.5625 14.0625H45.9375V8.4375L50.9963 3.37875C50.0006 3.01875 48.9319 2.8125 47.8125 2.8125C42.6347 2.8125 38.4375 7.00969 38.4375 12.1875C38.4375 13.3069 38.6437 14.3756 39.0037 15.3713L15.3713 39.0037C14.3756 38.6437 13.3069 38.4375 12.1875 38.4375C7.00969 38.4375 2.8125 42.6347 2.8125 47.8125C2.8125 48.9319 3.01875 50.0006 3.37875 50.9963L8.4375 45.9375H14.0625V51.5625L9.00375 56.6213C9.99938 56.9813 11.0681 57.1875 12.1875 57.1875C17.3653 57.1875 21.5625 52.9903 21.5625 47.8125C21.5625 46.6931 21.3563 45.6244 20.9963 44.6287L44.6287 20.9963C45.6244 21.3563 46.6931 21.5625 47.8125 21.5625C52.9903 21.5625 57.1875 17.3653 57.1875 12.1875C57.1875 11.0681 56.9813 9.99938 56.6213 9.00375Z" fill="#FFD45A"/>
<path d="M47.8123 18.75C46.693 18.75 45.6242 18.5437 44.6286 18.1837L20.9961 41.8162C21.2595 42.5437 21.4377 43.3115 21.5164 44.1084L44.6295 20.9953C45.6242 21.3562 46.693 21.5625 47.8123 21.5625C52.9902 21.5625 57.1873 17.3653 57.1873 12.1875C57.1873 11.7075 57.1423 11.2396 57.0711 10.7803C56.3914 15.2896 52.5111 18.75 47.8123 18.75Z" fill="#FEBE07"/>
<path d="M12.1877 54.375C11.8867 54.375 11.5895 54.3571 11.2961 54.329L9.00391 56.6212C9.99953 56.9812 11.0683 57.1875 12.1877 57.1875C17.3655 57.1875 21.5627 52.9903 21.5627 47.8125C21.5627 47.3325 21.5177 46.8646 21.4464 46.4053C20.7667 50.9146 16.8864 54.375 12.1877 54.375Z" fill="#FEBE07"/>
<path d="M33.9709 35.5143C33.2593 34.8318 32.8121 33.8765 32.8121 32.8124V31.439C32.3912 31.7193 31.9524 31.9762 31.4771 32.1796C30.534 32.5837 29.4662 32.5837 28.523 32.1796C28.0477 31.9762 27.608 31.7193 27.188 31.439V32.8124C27.188 33.8765 26.7409 34.8318 26.0293 35.5143L29.9996 37.4999L33.9709 35.5143Z" fill="#FFE5CF"/>
<path d="M31.875 19.7334V19.6875L32.0766 20.6962C32.5069 22.8469 34.3697 24.4125 36.5625 24.4669V21.5625C36.5625 18.4556 34.0444 15.9375 30.9375 15.9375H29.0625C25.9556 15.9375 23.4375 18.4556 23.4375 21.5625V24.4678L27.2344 24.4266C29.805 24.3975 31.875 22.305 31.875 19.7334Z" fill="#633F0E"/>
<path d="M31.4775 32.1797C31.9528 31.9763 32.3925 31.7194 32.8125 31.4391C35.1206 29.9025 36.5625 27.3066 36.5625 24.4678C34.3697 24.4134 32.5069 22.8478 32.0766 20.6972L31.875 19.6875V19.7334C31.875 22.305 29.805 24.3975 27.2344 24.4256L23.4375 24.4678C23.4375 27.3066 24.8794 29.9025 27.1875 31.4391C27.6084 31.7194 28.0472 31.9763 28.5225 32.1797C29.4666 32.5838 30.5334 32.5838 31.4775 32.1797Z" fill="#FFE5CF"/>
<path d="M30.9375 15.9375H29.0625C25.9556 15.9375 23.4375 18.4556 23.4375 21.5625V23.3447C23.4375 20.2378 25.9556 17.7197 29.0625 17.7197H30.9375C34.0444 17.7197 36.5625 20.2378 36.5625 23.3447V21.5625C36.5625 18.4556 34.0444 15.9375 30.9375 15.9375Z" fill="#754B11"/>
<path d="M31.741 36.629L33.9713 35.5133C33.2597 34.8318 32.8125 33.8765 32.8125 32.8124V31.439C32.3916 31.7193 31.9529 31.9762 31.4775 32.1796C30.5344 32.5837 29.4666 32.5837 28.5235 32.1796C28.0482 31.9762 27.6085 31.7193 27.1885 31.439V32.5312L31.741 36.629Z" fill="#E8D0BC"/>
<path d="M26.0287 35.5144C25.3547 36.1603 24.4444 36.5625 23.4375 36.5625C22.3106 36.5625 21.3122 37.0697 20.625 37.8563C20.0484 38.5153 19.6875 39.3685 19.6875 40.3125V42.1875H30V37.5L26.0287 35.5144Z" fill="#8CBEFF"/>
<path d="M33.9713 35.5144C34.6453 36.1603 35.5556 36.5625 36.5625 36.5625C37.6894 36.5625 38.6878 37.0697 39.375 37.8563C39.9516 38.5153 40.3125 39.3685 40.3125 40.3125V42.1875H30V37.5L33.9713 35.5144Z" fill="#8CBEFF"/>
</svg>
