<svg width="596" height="518" viewBox="0 0 596 518" fill="none" xmlns="http://www.w3.org/2000/svg">
<path d="M0 518H596V6.10352e-05H0V518Z" fill="white"/>
<path d="M527.819 142.818C517.313 151.357 502.386 160.834 490.093 164.913L508.356 168.353L432.915 257.306L282.55 300.577L104.607 490.331L244.778 490.282L316.199 375.623L459.291 290.614L514.865 172.194L526.703 186.521C524.335 173.789 525.42 156.141 527.819 142.818Z" fill="#F7CC7F"/>
<path d="M80.5765 343.698C80.5765 343.698 72.4268 329.091 70.444 325.985C68.4613 322.883 63.2962 310.544 63.1115 310.057C62.9271 309.57 66.6686 303.732 65.8335 303.533C64.9982 303.331 64.074 306.61 63.183 306.219C62.292 305.827 59.6891 297.933 59.1812 298.327C58.2311 299.057 60.5843 303.222 60.0779 303.483C59.5713 303.745 58.0371 298.904 57.0425 299.047C56.0478 299.189 58.9341 303.483 58.6559 303.864C58.3777 304.242 55.3814 300.197 54.8393 301.059C54.5448 301.528 57.5942 304.592 57.0085 304.879C56.4229 305.167 53.7102 303.188 53.423 303.758C53.1357 304.328 55.9318 305.11 56.7679 306.648C57.6038 308.187 59.0276 308.85 59.6189 311.699C60.2105 314.548 61.094 324.854 64.123 329.997C67.1517 335.138 73.8126 346.521 73.8126 346.521L80.5765 343.698Z" fill="#F79C8D"/>
<path d="M78.3207 338.964C78.3207 338.964 87.3356 348.679 88.6758 352.595C90.0162 356.511 87.3695 362.11 83.7143 362.356C80.059 362.6 71.9248 345.112 71.9248 345.112L78.3207 338.964Z" fill="#355389"/>
<path d="M120.783 409.3C120.127 408.751 119.334 409 117.057 407.946C116.615 407.741 115.456 407.417 114.936 407.314C114.839 407.293 114.761 407.221 114.736 407.125C114.044 404.504 111.011 392.395 110.678 388.904C110.338 385.332 108.035 370.194 107.684 367.891C107.659 367.736 107.504 367.635 107.351 367.679L100.734 369.523C100.599 369.562 100.516 369.699 100.548 369.836C100.956 371.639 103.5 382.97 104.247 388.705C104.842 393.276 111.653 407.941 111.789 408.878L111.793 408.904C111.834 409.186 112.076 409.396 112.361 409.396C114.041 409.396 119.428 409.394 119.735 409.396C120.015 409.399 120.989 409.471 120.783 409.3Z" fill="#F48C7F"/>
<path d="M106.049 361.36C102.528 350.678 98.5908 351.134 98.5908 351.134L101.636 373.587C103.81 372.994 106.641 371.67 108.813 371.056C108.093 367.679 106.917 363.988 106.049 361.36Z" fill="#13375B"/>
<path d="M104.957 333.587C103.879 326.563 97.5238 321.512 90.8771 324.921C89.3823 325.685 87.3584 327.242 86.3259 328.568C83.5347 332.15 82.8209 336.573 79.9375 340.052C80.9966 340.855 82.2775 341.696 83.8028 342.507L85.5981 340.114L84.9801 343.1C89.4422 345.234 95.7441 346.995 104.363 346.946C105.446 342.067 105.532 337.332 104.957 333.587Z" fill="#F7CC7F"/>
<path d="M107.029 489.29C106.014 488.544 105.196 488.049 101.956 486.477C101.744 486.376 100.975 485.884 100.697 485.716C99.9937 485.286 99.2871 484.607 98.679 483.929C98.0982 483.281 97.8214 481.204 97.6908 479.549C98.0242 475.851 103.382 416.55 104.513 410.129C105.679 403.504 103.902 393.395 103.902 393.395L99.7658 391.836L91.9134 419.049L92.5325 439.767C92.5325 439.767 90.686 445.737 90.4528 449.306C90.2192 452.875 93.122 481.839 93.122 481.839H93.1223C93.1223 482.875 93.0816 483.81 92.9663 484.395C92.7534 485.478 91.5666 487.708 92.1108 488.728C92.6553 489.748 93.2777 490.002 93.2777 490.002L107.388 490.23C108.156 490.243 107.648 489.748 107.029 489.29Z" fill="#F48C7F"/>
<path d="M85.6132 391.269C85.6132 391.269 80.7136 398.66 79.547 404.778C78.3801 410.893 80.4031 429.691 78.1589 437.707C76.9441 442.048 72.3398 448.748 71.6397 454.356C70.9398 459.963 68.5043 476.145 68.5043 476.145H68.5046C68.1362 477.844 67.5589 479.948 66.8098 480.924C66.3511 481.522 65.5134 482.279 64.9635 483.359C64.1075 485.042 64.5807 487.547 65.2122 488.925C65.5362 489.632 65.1891 489.632 65.9273 489.86C68.1127 490.535 70.4376 489.396 71.368 487.298C71.8879 486.127 72.344 484.563 72.4354 482.595C72.5325 480.507 72.8592 478.847 73.2073 477.622L88.8691 439.204L100.208 406.05L103.112 388.974L85.6132 391.269Z" fill="#F79C8D"/>
<path d="M71.7926 486.195C68.4028 486.816 66.1473 484.827 64.9737 483.341C64.1122 485.027 63.6918 487.541 64.3256 488.925C64.8838 490.144 66.5149 490.108 67.7993 490.157C69.1574 490.207 70.2079 489.453 70.8817 488.267C71.1964 487.712 71.5209 487.023 71.7926 486.195Z" fill="#86B1F2"/>
<path d="M100.695 485.713C96.9634 486.674 94.2048 486.021 92.6618 485.397C92.2637 486.529 91.7361 487.945 92.0161 488.764C92.3585 489.764 92.8465 489.992 93.2773 490.002C96.6857 490.093 105.763 490.214 108.362 490.248C108.725 490.253 108.925 489.828 108.691 489.549C108.047 488.777 100.973 485.884 100.695 485.713Z" fill="#86B1F2"/>
<path d="M88.7909 439.279C89.0838 439.3 89.3786 439.318 89.6749 439.336L89.7207 439.339C90.0114 439.357 90.3033 439.373 90.5965 439.388L90.6496 439.391C90.9428 439.406 91.2373 439.422 91.5318 439.435H91.5771C91.8771 439.448 92.1775 439.461 92.4777 439.468C95.8224 439.58 99.9538 439.536 102.604 439.085C103.956 425.558 104.459 413.214 104.96 410.481C106.173 403.853 103.902 393.395 103.902 393.395L102.818 393.201L103.504 389.326L85.3063 391.621C85.3063 391.621 80.2112 399.013 78.9979 405.128C77.7847 411.245 79.8884 430.043 77.5547 438.06C77.5547 438.06 82.7498 438.87 88.7909 439.279Z" fill="#F7CC7F"/>
<path d="M89.5806 349.215C89.5806 349.215 83.0929 348.801 80.5266 351.606C77.96 354.408 86.2198 376.586 86.6866 380.155C87.1533 383.722 84.3075 393.211 84.3075 393.211C84.3075 393.211 99.5473 396.283 103.903 393.395C103.903 393.395 104.369 367.736 103.903 365.188C103.436 362.639 99.5473 352.274 98.6138 351.253C97.6806 350.236 89.5806 349.215 89.5806 349.215Z" fill="#355389"/>
<path d="M91.74 340.528C91.74 340.528 91.7063 340.72 91.646 341.046C91.3569 342.608 90.2429 347.793 89.4904 349.22C88.581 350.942 92.6035 356.436 96.4751 355.765C97.6277 355.565 95.5012 350.717 95.6032 350.204C95.7988 349.22 96.0643 347.878 96.3357 346.503C96.4888 345.729 96.644 344.941 96.7895 344.203C97.2037 342.1 97.5415 340.383 97.5415 340.383L91.74 340.528Z" fill="#F7A491"/>
<path d="M91.6456 341.046C91.706 340.72 91.7396 340.528 91.7396 340.528L97.5411 340.383C97.5411 340.383 97.2033 342.1 96.7892 344.203C96.6444 344.936 96.4903 345.718 96.338 346.49C95.4423 346.358 94.5062 345.923 93.5678 345.099C92.5447 344.201 91.8743 343.123 91.4697 341.971C91.5412 341.605 91.6008 341.287 91.6456 341.046Z" fill="#F47458"/>
<path d="M95.6443 327.311C95.6443 327.311 92.9098 326.995 91.1956 329.218C89.4815 331.44 87.6341 338.308 91.8921 342.046C96.1501 345.781 100.357 341.551 100.981 337.068C101.605 332.585 101.847 327.151 95.6443 327.311Z" fill="#F7A491"/>
<path d="M102.241 337.003C101.732 337.993 100.879 338.542 100.335 338.228C99.7911 337.915 99.7618 336.856 100.27 335.866C100.778 334.877 101.632 334.328 102.176 334.641C102.72 334.954 102.749 336.014 102.241 337.003Z" fill="#F7A491"/>
<path d="M95.9506 326.578C95.9506 326.578 92.2975 333.11 89.6842 333.413C87.0707 333.714 86.7275 337.187 86.7275 337.187C86.7275 337.187 87.6618 329.187 90.2491 327.643C92.8365 326.102 95.9506 326.578 95.9506 326.578Z" fill="#F7CC7F"/>
<path d="M90.3696 335.055C90.582 336.216 90.1546 337.28 89.4146 337.43C88.6749 337.583 87.9027 336.767 87.6903 335.607C87.4777 334.447 87.9051 333.382 88.6451 333.229C89.3848 333.077 90.1569 333.895 90.3696 335.055Z" fill="#F7A491"/>
<path d="M93.5884 339.269L97.5418 340.046C97.5418 340.046 97.1554 341.53 95.407 341.238C93.275 340.883 93.5884 339.269 93.5884 339.269Z" fill="white"/>
<path d="M419.257 490.73L420.878 490.424L413.874 453.276L412.253 453.584L419.257 490.73Z" fill="#3C8F7C"/>
<path d="M344.273 490.898H342.326L349.591 453.276L351.21 453.584L344.273 490.898Z" fill="#3C8F7C"/>
<path d="M401.193 490.898H399.245L406.511 453.276L408.129 453.584L401.193 490.898Z" fill="#3C8F7C"/>
<path d="M362.039 490.898L363.622 490.919L356.655 453.444L355.036 453.752L362.039 490.898Z" fill="#184655"/>
<path d="M390.094 371.74C398.748 372.667 409.948 373.644 421.192 392.724C433.479 413.576 427.012 444.724 417.311 453.38C407.614 462.035 375.936 472.722 349.306 456.721C349.306 456.721 333.229 447.026 341.481 430.935C354.179 406.172 352.386 401.007 358.064 391.302C363.741 381.598 371.724 369.774 390.094 371.74Z" fill="#086663"/>
<path d="M421.191 392.724C413.517 379.702 405.863 375.112 399.027 373.216C401.672 375.954 404.353 379.474 407.036 384.03C419.324 404.882 412.856 436.029 403.156 444.685C394.557 452.359 368.67 461.631 344.349 452.473C346.851 455.239 349.306 456.721 349.306 456.721C375.936 472.722 407.614 462.035 417.311 453.38C427.012 444.724 433.479 413.576 421.191 392.724Z" fill="#1FA19D"/>
<path d="M362.309 403.434L360.084 410.108L366.865 407.441L362.309 403.434Z" fill="#F79C8D"/>
<path d="M369.297 383.577C368.846 383.597 367.608 384.009 365.795 387.42C363.485 391.777 360.104 404.934 360.104 404.934L370.193 408.676L371.488 405.931L373.623 384.789C373.623 384.789 369.424 383.571 369.297 383.577Z" fill="#6394DB"/>
<path d="M382.634 381.681C379.748 381.686 372.61 382.525 369.297 383.579C369.297 383.579 366.865 404.426 371.488 420.266C372.524 423.812 370.634 434.967 370.634 434.967L400.527 434.574C400.527 434.574 396.986 407.609 398.32 403.253C399.654 398.899 399.688 383.719 399.688 383.719C399.688 383.719 399.48 383.688 392.969 382.566C389.933 382.043 385.714 381.678 382.634 381.681Z" fill="#86B1F2"/>
<path d="M386.118 473.659C386.118 473.659 385.458 481.266 384.24 483.374C383.025 485.48 384.305 489.062 384.37 489.554C384.432 490.043 386.929 490.748 390.897 490.326C394.865 489.904 394.8 488.992 394.482 487.516C394.161 486.042 392.05 484.146 391.92 482.742C391.793 481.338 393.138 476.283 393.138 476.283L386.118 473.659Z" fill="#F7A491"/>
<path d="M374.006 428.689C374.006 428.689 353.368 427.547 348.76 430.329C344.152 433.108 349.594 438.821 349.594 438.821C349.594 438.821 366.394 446.099 394.52 447.718C401.182 448.101 401.755 430.412 400.512 428.946C399.266 427.482 374.006 428.689 374.006 428.689Z" fill="#E5B05C"/>
<path d="M391.391 490.916C395.479 490.481 394.971 488.482 394.642 486.964C394.437 486.013 393.264 484.892 392.565 483.833C392.199 484.123 391.606 484.633 389.832 485.156C387.988 485.697 385.462 484.625 383.854 483.952C383.279 486.081 383.253 488.793 383.307 489.204C383.372 489.712 387.307 491.349 391.391 490.916Z" fill="#F47458"/>
<path d="M389.135 443.4C388.312 449.619 384.229 480.57 384.229 480.57L393.702 481.74C393.702 481.74 405.35 441.341 404.752 435.162C404.156 428.982 399.794 428.464 399.794 428.464C399.794 428.464 391.319 426.944 389.135 443.4Z" fill="#F7CC7F"/>
<path d="M400.011 386.037C397.217 384.991 395.849 410.09 395.473 420.419C390.524 420.893 381.896 420.422 379.746 420.261C378.736 420.186 376.407 419.337 375.402 419.204C374.371 419.07 373.439 419 372.934 419.088C372.747 419.122 367.588 421.225 367.147 421.686C366.598 422.256 365.119 423.698 365.368 424.322C365.619 424.947 368.214 422.584 368.214 422.584L369.484 421.875C367.904 423.413 364.891 425.439 365.324 426.177C365.749 426.894 368.466 424.84 370.403 423.439C368.743 424.934 366.678 427.609 367.152 428.029C367.58 428.402 369.929 425.304 372.436 424.413C373.366 424.081 374.294 424.998 375.024 425.107C375.563 425.19 376.392 425.361 376.92 425.213L379.637 424.444C380.562 424.53 380.585 425.073 381.52 425.273C382.605 425.503 384.385 425.744 385.765 426.081C393.722 428.018 396.375 428.917 398.812 428.917C406.189 428.912 406.619 388.505 400.011 386.037Z" fill="#F7A491"/>
<path d="M405.316 409.598C405.84 399.018 405.764 385.975 399.812 383.75C397.463 382.872 393.321 388.15 394.067 409.813C397.245 410.075 401.91 410.284 405.316 409.598Z" fill="#86B1F2"/>
<path d="M358.418 480.168C358.418 480.168 359.245 482.807 357.766 484.556C356.287 486.301 350.138 488.013 349.33 488.961C348.521 489.906 348.584 490.712 348.584 490.712L365.842 490.238L365.655 485.042L364.86 481.31L358.418 480.168Z" fill="#F7A491"/>
<path d="M356.693 485.426C356.693 485.426 361.128 487.213 363.27 486.153C365.412 485.097 365.347 484.804 365.966 485.198C366.588 485.591 366.808 490.898 366.808 490.898L347.4 491.03C346.05 490.999 345.366 490.007 346.465 489.16C347.216 488.578 348.086 488.189 348.581 487.904C350.099 487.039 356.693 485.426 356.693 485.426Z" fill="#F47458"/>
<path d="M359.074 433.563C357.74 430.766 354.707 427.122 349.368 429.316C344.276 431.409 342.908 436.552 344.514 441.818C346.123 447.083 356.699 478.039 357.066 482.294L365.51 482.349C365.51 482.349 363.974 457.839 363.599 451.914C363.236 446.213 361.382 438.404 359.074 433.563Z" fill="#F7CC7F"/>
<path d="M345.366 405.052H373.592C374.338 405.052 375.011 405.503 375.293 406.195L383.986 427.389H399.545C399.98 427.389 400.335 427.741 400.335 428.176C400.335 428.611 399.98 428.963 399.545 428.963H355.258C354.041 428.963 352.938 428.249 352.438 427.137L343.685 407.645C343.139 406.428 344.03 405.052 345.366 405.052Z" fill="#355389"/>
<path d="M360.563 417.394C360.752 418.347 361.584 418.984 362.418 418.816C363.252 418.65 363.772 417.744 363.583 416.79C363.392 415.837 362.56 415.203 361.726 415.369C360.892 415.534 360.371 416.443 360.563 417.394Z" fill="white"/>
<path d="M386.063 372.745L387.446 381.846C387.446 381.846 382.401 392.683 379.391 391.742C376.866 390.955 378.42 381.367 378.42 381.367C378.42 381.367 379.795 376.215 379.383 373.638C378.972 371.061 386.063 372.745 386.063 372.745Z" fill="#F7A491"/>
<path d="M379.207 377.575H386.18V372.745H379.207V377.575Z" fill="#F47458"/>
<path d="M379.207 377.575C379.303 376.956 379.381 376.319 379.425 375.708C379.425 375.705 379.425 375.705 379.425 375.705C379.425 375.695 379.425 375.684 379.427 375.674C379.427 375.672 379.427 375.669 379.427 375.666C379.427 375.661 379.427 375.656 379.427 375.651C379.427 375.648 379.43 375.643 379.43 375.64C379.43 375.638 379.43 375.635 379.43 375.633C379.43 375.63 379.43 375.625 379.43 375.622C379.43 375.62 379.43 375.617 379.43 375.615C379.43 375.609 379.43 375.607 379.432 375.602C379.432 375.599 379.432 375.599 379.432 375.599C379.476 374.892 379.474 374.224 379.388 373.672C379.388 373.669 379.388 373.669 379.388 373.669C379.386 373.664 379.386 373.659 379.386 373.657V373.654C379.383 373.649 379.383 373.644 379.383 373.638C379.37 373.566 379.365 373.493 379.365 373.426C379.368 372.481 380.533 372.206 381.89 372.206C383.789 372.206 386.063 372.745 386.063 372.745L386.18 373.499C385.97 374.004 385.716 374.436 385.41 374.768C383.825 376.472 381.349 377.497 379.207 377.575Z" fill="#F69A86"/>
<path d="M387.229 359.867C387.429 359.795 388.835 370.235 386.167 373.108C383.497 375.98 378.296 376.92 376.431 374.656C374.366 372.154 374.47 360.935 378.622 357.979C382.771 355.024 387.229 359.867 387.229 359.867Z" fill="#F7A491"/>
<path d="M380.202 352.395C383.409 353.051 385.486 355.011 386.25 355.845C387.706 356.019 389.687 356.822 391.731 360.207C394.246 364.369 392.389 368.979 389.462 371.243C386.535 373.504 386.576 376.117 386.576 376.117L386.113 374.765C385.773 373.742 385.634 372.657 385.748 371.582C385.815 370.937 385.955 370.24 386.222 369.668C386.924 368.158 384.709 367.153 384.087 365.897C383.608 364.928 383.585 362.714 382.834 361.116L381.932 359.893C381.932 359.893 379.855 358.277 377.824 358.733C375.794 359.189 376.084 351.556 380.202 352.395Z" fill="#F7CC7F"/>
<path d="M384.225 367.754C384.204 369.028 384.782 370.069 385.517 370.082C386.253 370.095 386.867 369.072 386.887 367.801C386.908 366.526 386.33 365.483 385.595 365.47C384.859 365.459 384.245 366.48 384.225 367.754Z" fill="#F7A491"/>
<path d="M380.619 371.284L376.596 371.077C376.596 371.077 376.609 372.61 378.376 372.753C380.531 372.926 380.619 371.284 380.619 371.284Z" fill="white"/>
<path d="M460.78 320.544C461.218 322.349 462.01 325.198 462.01 325.198C461.948 325.983 461.715 329.243 461.44 333.24L467.318 330.888C467.318 330.888 467.245 324.377 467.509 323.978C467.729 323.641 468.102 324.061 469.903 321.484C470.423 320.74 470.522 319.412 470.522 319.412C470.522 319.412 470.628 317.775 470.26 317.622C469.892 317.469 469.473 317.715 469.338 317.998C469.206 318.28 469.239 318.938 469.107 319.22C468.973 319.505 468.123 319.844 467.766 319.826C467.408 319.811 467.81 314.988 467.81 314.988C467.81 314.988 468.012 313.62 468.113 313.172C468.198 312.792 468.545 311.673 468.545 311.673C468.545 311.673 468.952 310.051 468.449 309.927C468.152 309.855 467.395 311.173 466.877 312.572C466.318 314.079 466.002 315.677 465.841 315.654C465.466 315.604 465.665 312.96 465.665 312.96C465.665 312.96 466.038 311.75 466.03 311.178C466.382 310.479 466.616 309.179 465.994 309.072C465.88 309.052 465.062 310.702 465.062 310.702C465.062 310.702 464.738 311.864 464.551 312.406C464.22 313.364 464.17 314.877 463.997 315.542C463.854 316.099 463.725 315.871 463.665 315.895C463.619 315.91 463.699 315.146 463.79 314.094C463.836 313.564 463.777 312.955 463.924 312.351C464.062 311.792 464.139 310.992 464.176 310.51C464.277 309.142 463.414 309.282 463.116 310.533C463.005 311.007 462.886 311.528 462.767 312.056C462.303 314.105 462.316 316.078 462.096 316.097C461.808 316.117 461.997 312.522 461.997 312.522C461.997 312.522 461.557 310.531 461.119 312.377C460.612 314.522 460.666 316.27 460.674 316.348C460.718 316.871 460.34 318.741 460.78 320.544Z" fill="#F8A492"/>
<path d="M523.144 315.794C522.703 317.596 521.913 320.448 521.913 320.448C521.975 321.23 522.206 324.491 522.483 328.49L516.606 326.138C516.606 326.138 516.676 319.624 516.414 319.225C516.192 318.889 515.821 319.311 514.018 316.734C513.5 315.988 513.402 314.659 513.402 314.659C513.402 314.659 513.296 313.025 513.664 312.872C514.029 312.719 514.451 312.963 514.583 313.245C514.718 313.53 514.681 314.188 514.816 314.47C514.948 314.752 515.798 315.094 516.158 315.076C516.515 315.058 516.111 310.235 516.111 310.235C516.111 310.235 515.912 308.871 515.811 308.422C515.725 308.042 515.378 306.923 515.378 306.923C515.378 306.923 514.969 305.299 515.474 305.175C515.769 305.102 516.528 306.42 517.046 307.819C517.606 309.326 517.922 310.924 518.082 310.904C518.458 310.852 518.258 308.21 518.258 308.21C518.258 308.21 517.883 306.998 517.893 306.428C517.541 305.726 517.305 304.429 517.927 304.32C518.044 304.302 518.862 305.952 518.862 305.952C518.862 305.952 519.183 307.112 519.372 307.656C519.701 308.614 519.753 310.124 519.924 310.792C520.069 311.347 520.199 311.119 520.258 311.142C520.305 311.16 520.224 310.396 520.131 309.344C520.087 308.814 520.147 308.202 519.999 307.599C519.862 307.039 519.782 306.242 519.748 305.757C519.647 304.39 520.507 304.53 520.805 305.781C520.919 306.257 521.038 306.775 521.157 307.304C521.618 309.352 521.605 311.328 521.828 311.344C522.113 311.365 521.924 307.77 521.924 307.77C521.924 307.77 522.364 305.781 522.802 307.627C523.309 309.769 523.258 311.517 523.25 311.595C523.203 312.118 523.581 313.988 523.144 315.794Z" fill="#F8A492"/>
<path d="M507.072 469.039C507.072 469.039 510.33 473.079 511.141 473.576C511.952 474.073 510.778 479.94 508.569 480.326C507.323 480.543 506.629 479.171 506.629 479.171L506.986 477.482L502.332 472.685L507.072 469.039Z" fill="#F7A491"/>
<path d="M490.287 470.038C490.287 470.038 493.004 474.459 493.745 475.055C494.486 475.653 492.571 481.323 490.331 481.421C489.067 481.478 488.554 480.03 488.554 480.03L489.126 478.399L485.122 473.048L490.287 470.038Z" fill="#F7A491"/>
<path d="M493.582 474.882C493.582 474.882 492.022 476.871 491.17 477.663C490.072 478.684 488.665 479.683 488.665 479.683C488.665 479.683 487.072 482.574 486.637 483.584C485.666 485.829 484.578 488.334 484.736 489.59C484.785 489.994 485.692 490.422 486.448 490.191C489.595 489.222 497.64 481.862 498.658 479.885C499.829 477.609 493.582 474.882 493.582 474.882Z" fill="#13375B"/>
<path d="M470.614 407.532C470.907 406.713 471.187 405.957 471.456 405.245C474.805 405.975 478.584 406.778 482.475 407.607L482.949 421.862C482.946 420.761 480.025 444.594 480.025 444.594C480.025 444.594 487.58 461.326 492.75 471.075C490.629 473.722 489.632 474.576 486.562 476.379C478.538 466.762 468.037 449.163 467.602 446.236C467.351 444.553 467.125 417.345 470.614 407.532Z" fill="#3C8F7C"/>
<path d="M500.487 411.652C499.464 422.76 497.192 443.991 497.382 445.7C497.951 447.829 508.066 467.477 509.887 470.336C508.442 472.514 506.204 474.866 503.797 475.516C503.323 475.646 486.632 451.893 485.721 450.01C484.692 447.878 482.978 436.252 482.949 421.862L482.475 407.606C488.953 408.989 494.911 410.344 500.487 411.652Z" fill="#50BFA5"/>
<path d="M479.209 361.025L486.837 362.072C486.837 362.072 492.94 362.183 493.696 362.183C494.452 362.183 499.254 390.044 500.643 400.512C502.029 410.984 500.954 412.836 500.954 412.836C500.954 412.836 491.284 415.011 484.13 414.377C476.689 413.719 468.32 409.702 468.32 409.702C468.32 409.702 474.679 389.583 475.94 383.299C477.199 377.019 479.209 361.025 479.209 361.025Z" fill="#355389"/>
<path d="M460.715 327.324C460.715 327.324 460.225 348.067 461.007 349.652C462.147 351.96 474.953 368.326 474.953 368.326C474.953 368.326 468.835 393.928 466.263 402.768C466.004 403.659 464.856 409.409 464.856 409.971C464.856 411.214 470.27 412.791 470.912 412.698C471.487 412.613 476.209 388.262 479.224 376.345C480.245 372.307 481.998 368.492 484.397 365.084L486.492 362.105L470.402 345.98C470.402 345.98 468.421 328.031 468.421 326.544C468.421 326.153 461.497 325.861 460.715 327.324Z" fill="#86B1F2"/>
<path d="M493.431 362.186L513.495 341.743C513.495 341.743 516.29 322.411 516.489 321.683C516.684 320.968 521.667 320.583 523.674 320.386C524.319 320.324 523.338 340.976 522.377 344.436C521.242 348.526 506.077 367.161 506.077 367.161C506.077 367.161 503.36 377.252 504.015 384.654C505.1 396.951 508.032 413.864 507.507 414.395C504.245 416.449 491.732 416.669 490.94 415.392C482.193 401.308 493.431 362.186 493.431 362.186Z" fill="#86B1F2"/>
<path d="M510.956 473.424C510.956 473.424 509.664 475.597 508.921 476.49C507.962 477.643 506.693 478.813 506.693 478.813C506.693 478.813 505.483 481.885 505.18 482.942C504.507 485.294 503.743 488.132 504.061 489.36C504.162 489.754 505.028 490.505 505.742 490.041C508.504 488.244 515.875 479.829 516.632 477.739C517.502 475.33 510.956 473.424 510.956 473.424Z" fill="#13375B"/>
<path d="M487.399 335.55C488.254 335.581 489.106 335.574 489.958 335.498C490.919 335.413 492.147 335.353 492.851 335.501C494.335 335.814 496.69 336.866 497.475 338.811C498.454 341.235 501.953 340.873 497.806 350.062C493.115 360.463 487.629 357.058 487.554 356.824C487.479 356.589 484.842 348.013 484.842 348.013C484.842 348.013 481.563 351.266 481.618 351.121C481.669 350.981 477.15 335.18 487.399 335.55Z" fill="#0E2E35"/>
<path d="M486.94 358.295L486.394 362.364C486.394 362.364 485.169 368.228 486.744 369.357C488.318 370.489 493.444 362.198 493.444 362.198L492.903 351.885L486.94 358.295Z" fill="#F7A491"/>
<path d="M493.077 355.229C491.777 358.746 488.676 360.906 486.477 361.745L486.941 358.295L492.903 351.885L493.077 355.229Z" fill="#F47458"/>
<path d="M491.121 340.225C488.186 338.541 484.438 339.994 483.335 343.152C482.856 344.524 482.327 346.262 481.921 348.197C480.939 352.849 482.478 357.85 484.591 358.251C486.705 358.655 493.123 356.746 494.607 350.16C495.522 346.094 494.198 341.989 491.121 340.225Z" fill="#F7A491"/>
<path d="M492.95 350.388C492.753 351.417 493.274 352.383 494.113 352.543C494.952 352.701 495.791 351.997 495.988 350.966C496.188 349.938 495.667 348.974 494.828 348.814C493.988 348.653 493.147 349.358 492.95 350.388Z" fill="#F7A491"/>
<path d="M494.828 348.813C494.828 348.813 492.204 348.505 491.896 346.627C491.59 344.75 489.663 340.22 485.099 340.075C480.535 339.927 489.924 338.062 490.248 338.184C490.572 338.308 494.462 339.746 494.462 339.746C494.462 339.746 496.527 343.336 496.532 343.646C496.537 343.96 496.289 347.234 496.289 347.234L494.828 348.813Z" fill="#0E2E35"/>
<path d="M488.013 353.59L483.335 352.779C483.335 352.779 483.13 354.579 485.176 354.996C487.673 355.504 488.013 353.59 488.013 353.59Z" fill="white"/>
<path d="M251.598 372.629C251.774 373.237 251.875 373.439 252.1 373.846C253.546 376.48 256.902 380.235 256.902 380.235L259.497 374.387C259.497 374.387 259.075 372.551 258.341 369.927C255.833 370.58 253.445 370.961 251.598 372.629Z" fill="#F8A492"/>
<path d="M266.48 367.557C266.48 367.557 252.002 373.791 251.534 373.672C251.232 373.594 245.594 364.159 245.534 355.286C245.506 351.188 249.763 346.257 254.512 347.233C256.903 347.723 256.866 348.389 260.404 353.53C263.939 358.668 266.48 367.557 266.48 367.557Z" fill="#13375B"/>
<path d="M278.84 479.339L278.496 485.037C278.369 485.76 277.872 487.542 277.872 488.2C277.872 490.665 289.579 486.107 286.955 485.014C286.72 484.916 285.474 484.167 285.396 483.328C285.277 482.035 284.971 479.42 284.971 479.42L278.84 479.339Z" fill="#F7A491"/>
<path d="M286.927 484.99C286.927 484.99 284.179 485.744 282.77 485.933C281.363 486.122 279.506 484.535 278.511 484.962C277.413 485.433 277.457 489.683 277.457 489.683C277.457 489.683 292.198 490.893 296.342 489.642C297.984 489.145 292.548 486.746 286.927 484.99Z" fill="#DD513A"/>
<path d="M254.89 479.339L254.545 485.037C254.418 485.76 253.921 487.542 253.921 488.2C253.921 490.665 265.628 486.107 263.004 485.014C262.768 484.916 261.155 483.608 261.077 482.768C260.955 481.476 261.02 479.42 261.02 479.42L254.89 479.339Z" fill="#F7A491"/>
<path d="M262.976 484.991C262.976 484.991 260.227 485.744 258.819 485.933C257.412 486.122 255.556 484.535 254.56 484.962C253.464 485.434 253.42 489.684 253.42 489.684C253.42 489.684 268.228 491.093 272.393 489.642C274.01 489.078 268.596 486.747 262.976 484.991Z" fill="#DD513A"/>
<path d="M258.469 375.78L268.781 361.336C268.825 361.209 268.918 360.95 269.06 360.554C269.581 359.122 270.661 356.14 271.601 353.172L271.612 353.141C271.907 352.103 272.534 350.295 273.142 348.544C273.816 346.599 274.652 344.185 274.681 343.773C274.655 343.703 274.606 343.576 274.541 343.408C274.163 342.426 273.653 340.09 273.471 339.075C273.357 338.427 273.241 336.853 274.01 336.853C275.22 336.853 274.645 338.425 275.202 339.406C275.406 338.749 275.821 337.448 276.041 336.133L276.243 333.061C276.282 332.83 276.036 331.137 276.883 331.137H276.924C277.686 331.194 277.67 332.994 277.986 336.039C278.087 335.69 278.185 335.268 278.261 334.879C278.253 334.669 278.406 333.755 278.52 333.271C278.367 332.421 278.455 331.082 279.359 331.209C279.812 331.274 279.776 333.141 279.776 333.141C279.771 333.398 279.745 335.374 279.758 335.762C279.851 335.102 280.214 332.274 280.923 332.274C281.511 332.274 281.558 333.035 281.545 333.636C281.537 333.993 281.169 337.055 281.149 337.412C281.426 336.949 281.755 334.247 282.027 334.247C283.174 334.247 282.76 338.086 282.34 339.085C282.299 339.189 282.257 339.388 282.208 339.621C282.066 340.305 281.825 341.45 281.226 342.476C280.506 343.708 279.512 345.666 279.361 345.967C279.25 346.578 278.903 348.78 278.47 351.546C278.284 352.732 278.082 354.03 277.869 355.374H277.857C277.818 355.664 277.603 356.589 276.787 360.062C275.67 364.814 275.556 365.019 275.507 365.107C275.023 365.964 263.903 381.064 263.429 381.704L263.152 382.084L258.469 375.78Z" fill="#F7A491"/>
<path d="M277.649 342.092C277.649 342.092 276.812 339.95 275.32 339.948C275.32 339.948 276.154 339.647 276.867 340.212C277.582 340.777 277.649 342.092 277.649 342.092Z" fill="#F47458"/>
<path d="M255.977 337.956L254.649 346.35C254.649 346.35 259.707 350.411 262.657 349.554C265.131 348.837 263.434 345.602 263.434 345.602C263.434 345.602 262.116 341.121 262.52 338.772C262.924 336.423 255.977 337.956 255.977 337.956Z" fill="#F7A491"/>
<path d="M256.93 340.494C258.198 341.093 260.704 341.908 262.655 342.108C262.468 340.932 262.362 339.689 262.52 338.772C262.706 337.687 261.326 337.43 259.787 337.469C257.773 337.64 255.977 337.956 255.977 337.956L255.722 339.57C256.105 339.974 256.508 340.295 256.93 340.494Z" fill="#FE875E"/>
<path d="M249.594 328.272C249.385 328.275 251.593 337.651 255.01 339.264C258.428 340.878 263.525 340.036 264.481 337.511C265.537 334.719 261.681 325.151 256.873 323.934C252.067 322.719 249.594 328.272 249.594 328.272Z" fill="#F7A491"/>
<path d="M253.548 319.658C250.818 321.23 249.565 323.566 249.144 324.522C247.863 325.131 246.312 326.444 245.569 329.987C244.653 334.343 247.906 337.702 251.355 338.713C254.804 339.723 255.337 342.004 255.337 342.004L255.727 339.549C255.727 339.549 254.96 337.41 253.807 336.34C252.653 335.27 254.353 333.711 254.503 332.437C254.618 331.458 253.896 329.557 254.053 327.949C254.053 327.949 255.969 325.045 257.858 324.328C261.079 323.105 257.05 317.638 253.548 319.658Z" fill="#13375B"/>
<path d="M255.001 334.071C255.447 335.154 255.265 336.229 254.593 336.472C253.921 336.716 253.014 336.034 252.568 334.952C252.121 333.869 252.304 332.794 252.975 332.551C253.647 332.308 254.554 332.989 255.001 334.071Z" fill="#F7A491"/>
<path d="M267.729 376.014L287.621 372.771C287.621 372.771 285.357 367.073 284.549 367.073C283.741 367.073 269.508 373.284 269.508 373.284L268.376 375.558L267.729 376.014Z" fill="#F8A492"/>
<path d="M257.541 389.65C257.541 389.65 255.557 399.241 256.366 406.514C257.175 413.786 257.238 439.624 257.238 439.624L254.152 480.961L261.473 481.121C261.473 481.121 270.156 439.803 269.995 440.862C269.832 441.924 272.904 411.771 272.904 411.771L262.554 388.741L257.541 389.65Z" fill="#184655"/>
<path d="M259.482 389.194C259.482 389.194 258.189 397.832 259.806 401.618C261.422 405.407 273.676 442.574 273.839 445.604C274 448.634 278.074 482.131 278.074 482.131L286.588 481.89L288.43 444.651L284.573 397.847L280.83 386.013L259.482 389.194Z" fill="#13375B"/>
<path d="M254.649 346.35C254.649 346.35 256.749 347.728 258.707 347.568C260.665 347.41 263.434 345.602 263.434 345.602L263.048 344.299C263.048 344.299 257.983 343.561 257.856 343.638C257.728 343.719 254.649 346.35 254.649 346.35Z" fill="#F7A491"/>
<path d="M277.025 366.79C277.025 366.79 284.549 373.89 287.945 372.68C291.341 371.465 292.747 367.324 284.459 361.261C277.043 355.835 277.025 366.79 277.025 366.79Z" fill="#F8A492"/>
<path d="M282.122 375.558C281.006 369.477 272.904 350.557 272.259 347.073C271.943 345.377 267.573 345.34 263.413 345.561C259.016 345.794 254.649 346.351 254.649 346.351C254.649 346.351 250.757 346.99 249.045 348.594C247.333 350.199 246.878 354.636 249.34 363.056C251.283 369.705 253.691 373.356 254.883 378.197C255.125 379.824 255.331 381.424 255.606 383.297C256.044 390.539 255.6 400.103 255.6 400.103C255.6 400.103 276.786 404.499 284.71 397.832C284.71 397.832 283.267 381.787 282.122 375.558Z" fill="#355389"/>
<path d="M287.525 362.483C287.525 362.483 279.211 369.344 278.726 369.344C278.413 369.344 266.863 360.849 264.198 353.869C262.724 350.01 265.814 345.695 269.347 345.708C271.795 345.718 272.883 346.348 277.734 350.44C282.585 354.529 287.525 362.483 287.525 362.483Z" fill="#466EB6"/>
<path d="M300.018 207.35C294.788 217.076 282.661 220.722 272.932 215.491C263.206 210.261 259.559 198.135 264.791 188.407C270.021 178.682 282.148 175.035 291.877 180.267C301.603 185.496 305.25 197.622 300.018 207.35ZM321.765 211.165C319.732 209.793 317.652 208.492 315.647 207.081C315.279 206.822 314.958 206.164 314.997 205.724C315.261 202.895 315.688 200.083 315.932 197.252C316.004 196.428 316.191 195.996 316.981 195.688C319.763 194.6 322.519 193.437 325.282 192.297C325.73 192.113 326.171 191.914 326.945 191.577C325.624 187.337 324.319 183.142 322.982 178.842C319.423 179.549 316.178 180.137 312.963 180.86C311.829 181.114 311.212 180.982 310.482 179.933C308.99 177.783 307.2 175.846 305.594 173.774C305.348 173.455 305.242 172.813 305.385 172.445C306.478 169.614 307.568 166.781 308.829 164.025C309.436 162.704 309.133 161.992 307.949 161.378C307.493 161.139 307.123 160.741 306.713 160.414C304.67 159.314 302.626 158.215 300.58 157.117C300.323 157.065 300.051 157.055 299.813 156.957C297.319 155.936 297.798 155.957 296.381 158.039C294.656 160.575 292.972 163.142 291.496 165.359C287.673 165.001 284.104 164.667 280.415 164.323C279.019 160.932 277.558 157.392 276.092 153.828C271.59 154.434 267.454 155.851 263.395 157.775C264.097 161.274 264.773 164.685 265.472 168.094C265.599 168.705 265.561 169.075 264.962 169.523C262.616 171.279 260.31 173.095 258.09 175.006C257.45 175.558 257.038 175.561 256.351 175.271C253.513 174.079 250.648 172.95 247.805 171.769C247.099 171.476 246.641 171.497 246.118 172.188C243.772 175.286 242.173 178.751 240.861 182.377C240.601 183.095 240.946 183.406 241.488 183.758C243.996 185.387 246.463 187.078 248.981 188.689C249.707 189.153 249.929 189.554 249.784 190.492C249.283 193.729 248.97 196.998 248.555 200.518C245.474 201.787 241.979 203.227 238.484 204.667C239.083 209.254 240.312 213.499 242.344 217.545C246.158 216.76 249.868 215.998 253.229 215.309C255.324 217.723 257.214 220.021 259.246 222.183C260.012 223.002 260.15 223.618 259.702 224.628C258.505 227.319 257.414 230.057 256.308 232.787C256.09 233.325 255.66 233.952 256.502 234.398C259.93 236.208 263.354 238.018 266.778 239.826C267.508 240.212 267.967 239.966 268.407 239.28C270.047 236.729 271.8 234.245 273.396 231.668C274.012 230.673 274.675 230.634 275.706 230.774C278.258 231.116 280.827 231.409 283.397 231.468C284.503 231.494 284.909 231.782 285.282 232.766C286.484 235.928 287.808 239.044 289.059 242.113C291.802 242.113 299.274 239.772 301.968 238.096C301.264 234.732 300.585 231.318 299.813 227.928C299.619 227.081 299.87 226.716 300.52 226.205C302.613 224.558 304.589 222.763 306.667 221.095C307.016 220.816 307.726 220.66 308.125 220.816C310.658 221.808 313.158 222.888 315.657 223.968C317.053 224.574 317.615 224.822 318.152 224.462L324.003 213.579C324.018 212.693 323.41 212.276 321.765 211.165Z" fill="#CAE1F9"/>
<path d="M194.121 272.455C197.039 287.042 187.578 301.235 172.989 304.151C158.4 307.07 144.207 297.609 141.289 283.022C138.371 268.433 147.833 254.242 162.422 251.323C177.011 248.407 191.203 257.866 194.121 272.455ZM219.976 257.754C216.687 258.073 213.409 258.51 210.116 258.764C209.515 258.811 208.613 258.404 208.279 257.912C206.125 254.75 204.152 251.463 201.977 248.314C201.344 247.399 201.167 246.791 201.722 245.791C203.678 242.274 205.539 238.702 207.432 235.149C207.739 234.571 208.026 233.986 208.54 232.973C203.529 229.702 198.574 226.467 193.494 223.152C190.406 226.938 187.544 230.334 184.825 233.843C183.866 235.081 183.112 235.475 181.452 235.009C178.06 234.058 174.538 233.582 171.092 232.81C170.564 232.691 169.903 232.116 169.734 231.608C168.441 227.733 167.138 223.856 166.084 219.912C165.578 218.021 164.654 217.542 162.896 217.92C162.221 218.065 161.492 217.967 160.788 217.98C157.722 218.591 154.656 219.205 151.59 219.818C151.279 219.987 150.986 220.209 150.655 220.313C147.19 221.393 147.706 221.002 148.023 224.379C148.408 228.495 148.862 232.603 149.231 236.172C144.957 239.08 140.962 241.8 136.837 244.607C132.479 242.287 127.925 239.862 123.341 237.42C119.188 241.911 116.109 246.933 113.547 252.414C117.279 255.444 120.909 258.409 124.561 261.344C125.216 261.872 125.495 262.289 125.257 263.268C124.327 267.104 123.494 270.971 122.83 274.858C122.638 275.98 122.213 276.337 121.251 276.627C117.281 277.821 113.338 279.111 109.373 280.323C108.388 280.626 107.931 281.041 107.981 282.206C108.205 287.436 109.518 292.406 111.268 297.296C111.614 298.264 112.239 298.29 113.104 298.192C117.106 297.731 121.119 297.368 125.117 296.881C126.269 296.741 126.842 296.967 127.496 298.062C129.757 301.857 132.238 305.519 134.828 309.528C132.718 313.491 130.325 317.985 127.932 322.478C132.49 326.726 137.41 330.077 142.993 332.535C146.28 328.448 149.478 324.472 152.374 320.872C156.623 321.582 160.556 322.344 164.522 322.846C166.021 323.038 166.691 323.561 167.092 324.996C168.16 328.813 169.377 332.592 170.573 336.376C170.809 337.122 170.902 338.145 172.158 337.884C177.267 336.822 182.378 335.765 187.487 334.7C188.573 334.475 188.84 333.825 188.709 332.735C188.221 328.676 187.911 324.597 187.354 320.549C187.14 318.987 187.795 318.381 188.986 317.637C191.928 315.806 194.849 313.905 197.566 311.761C198.737 310.836 199.405 310.79 200.638 311.489C204.599 313.742 208.649 315.84 212.58 317.953C215.428 315.599 221.177 306.754 222.537 302.706C218.915 299.816 215.283 296.855 211.571 293.999C210.642 293.284 210.591 292.688 210.826 291.603C211.586 288.096 212.098 284.537 212.823 281.02C212.945 280.43 213.549 279.66 214.097 279.479C217.579 278.334 221.102 277.311 224.623 276.288C226.591 275.716 227.388 275.493 227.637 274.659L224.372 258.339C223.626 257.407 222.637 257.495 219.976 257.754Z" fill="#9BC1F9"/>
<path d="M183.662 194.742C183.573 194.742 183.475 194.724 183.364 194.685C181.188 193.929 179.013 193.167 176.837 192.409C176.302 192.222 176.499 191.815 176.579 191.479C176.985 189.775 177.383 188.068 177.846 186.379C178.019 185.745 177.885 185.395 177.36 184.983C175.973 183.893 174.657 182.712 173.209 181.476C171.295 182.183 169.182 182.963 167.009 183.763C165.453 181.564 164.352 179.179 163.591 176.537C165.517 175.377 167.444 174.219 169.142 173.199C169.072 171.093 168.964 169.143 168.97 167.192C168.971 166.63 168.805 166.413 168.337 166.206C166.713 165.483 165.111 164.709 163.492 163.973C163.142 163.815 162.911 163.662 163 163.219C163.448 160.971 164.079 158.79 165.182 156.757C165.359 156.433 165.547 156.314 165.804 156.314C165.903 156.314 166.013 156.332 166.136 156.361C167.913 156.804 169.698 157.21 171.473 157.659C171.605 157.692 171.719 157.713 171.824 157.713C172.059 157.713 172.245 157.612 172.472 157.348C173.607 156.027 174.8 154.753 176.023 153.512C176.336 153.193 176.324 152.973 176.196 152.624C175.48 150.684 174.779 148.739 174.054 146.744C176.269 145.25 178.575 144.048 181.167 143.289C182.348 145.255 183.522 147.205 184.645 149.075C186.844 148.948 188.974 148.827 191.253 148.695C191.923 147.26 192.684 145.602 193.473 143.955C193.89 143.087 193.92 142.789 194.306 142.789C194.518 142.789 194.839 142.88 195.393 143.015C195.48 143.035 195.572 143.038 195.665 143.038C195.68 143.038 195.695 143.038 195.71 143.038C195.726 143.038 195.743 143.038 195.76 143.038C195.793 143.038 195.826 143.038 195.859 143.038C197.159 143.504 198.46 143.968 199.759 144.431C200.029 144.587 200.282 144.789 200.571 144.887C201.323 145.144 201.564 145.535 201.326 146.366C200.83 148.099 200.442 149.863 200.052 151.621C200.001 151.854 200.12 152.22 200.293 152.385C201.422 153.46 202.648 154.442 203.716 155.571C204.036 155.908 204.3 156.048 204.605 156.048C204.798 156.048 205.008 155.993 205.258 155.895C207.084 155.183 208.939 154.548 210.968 153.815C212.138 156.224 213.28 158.573 214.434 160.95C214.01 161.217 213.768 161.373 213.521 161.523C211.997 162.437 210.482 163.367 208.942 164.255C208.505 164.507 208.434 164.778 208.465 165.268C208.574 166.954 208.575 168.645 208.672 170.334C208.687 170.593 208.936 170.953 209.174 171.072C210.479 171.725 211.819 172.302 213.137 172.929C214.203 173.434 214.597 173.626 214.668 174.149L212.198 181.07C212.079 181.178 211.948 181.222 211.772 181.222C211.528 181.222 211.196 181.134 210.687 181.002C209.122 180.588 207.556 180.176 205.977 179.819C205.942 179.811 205.904 179.808 205.864 179.808C205.619 179.808 205.3 179.946 205.145 180.114C204.073 181.279 203.07 182.512 201.986 183.667C201.65 184.025 201.535 184.26 201.724 184.742C202.481 186.667 203.184 188.612 203.899 190.528C202.465 191.753 198.28 193.797 196.667 194.04C195.658 192.349 194.601 190.634 193.613 188.884C193.361 188.436 193.137 188.265 192.703 188.265C192.609 188.265 192.505 188.272 192.388 188.288C190.873 188.482 189.335 188.539 187.805 188.565C187.186 188.575 186.8 188.658 186.527 189.298C185.818 190.956 185.009 192.572 184.272 194.219C184.122 194.553 183.942 194.742 183.662 194.742ZM188.809 156.731C183.924 156.731 179.344 159.767 177.608 164.631C175.4 170.816 178.625 177.62 184.811 179.826C186.132 180.298 187.481 180.523 188.808 180.523C193.694 180.523 198.273 177.49 200.01 172.624C202.217 166.439 198.992 159.635 192.806 157.425C191.485 156.957 190.136 156.731 188.809 156.731Z" fill="#EBF3FE"/>
<path d="M192.2 487.824L188.286 487.808C188.803 470.73 189.258 444.791 188.395 443.338C188.397 443.34 188.452 443.431 188.655 443.532L191.832 442.703C192.345 442.962 192.655 443.118 192.762 450.38C192.817 454.117 192.796 459.279 192.7 465.721C192.535 476.687 192.204 487.712 192.2 487.824Z" fill="#355389"/>
<path d="M203.668 487.614H177.261C176.045 487.614 175.059 488.601 175.059 489.818C175.059 490.031 175.231 490.202 175.444 490.202H205.485C205.698 490.202 205.871 490.031 205.871 489.818C205.871 488.601 204.884 487.614 203.668 487.614Z" fill="#355389"/>
<path d="M191.773 485.444H188.538C187.581 485.444 186.806 486.218 186.806 487.176C186.806 488.132 187.581 488.909 188.538 488.909H191.773C192.73 488.909 193.506 488.132 193.506 487.176C193.506 486.218 192.73 485.444 191.773 485.444Z" fill="#355389"/>
<path d="M98.1466 490.152V412.3H96.584V490.152H98.1466Z" fill="#13375B"/>
<path d="M176.898 369.225C176.755 365.765 177.264 362.349 178.813 359.127C180.144 356.355 183.44 354.783 186.446 354.778C195.989 354.768 197.203 367.376 203.278 372.24C205.134 373.724 207.209 374.936 208.966 376.537C215.451 382.455 212.53 393.41 206.574 398.598C202.441 402.198 195.946 404.244 190.852 401.429C188.193 399.961 186.175 397.518 184.737 394.843C182.696 391.046 181.38 386.663 179.929 382.615C178.384 378.308 177.089 373.825 176.898 369.225Z" fill="#13375B"/>
<path d="M150.57 405.48L171.337 399.689C171.337 399.689 175.713 393.812 181.342 385.928C183.183 387.749 184.205 390.549 186.059 392.351L172.312 407.557C171.816 408.104 171.112 408.42 170.373 408.422L151.288 408.484L144.758 409.005V404.825L150.57 405.48Z" fill="#F48C7F"/>
<path d="M180.468 401.072C180.468 401.072 187.595 393.763 189.429 390.587C191.263 387.412 188.18 389.482 185.031 388.645C183.838 388.329 184.14 381.341 181.886 383.613C178.187 387.34 173.537 393.856 173.537 393.856L180.468 401.072Z" fill="#96D9C9"/>
<path d="M190.601 380.406C190.601 380.406 196.998 379.145 199.917 381.582C202.836 384.022 199.292 405.7 199.294 409.295C199.297 412.89 201.299 423.043 201.299 423.043C201.299 423.043 181.912 426.436 178.832 421.041C178.832 421.041 177.956 400.486 178.087 397.902C178.217 395.317 181.091 384.744 181.886 383.613C182.68 382.481 190.601 380.406 190.601 380.406Z" fill="#50BFA5"/>
<path d="M190.641 370.513C190.641 370.513 190.675 370.704 190.735 371.028C191.025 372.59 192.143 377.77 192.897 379.192C193.809 380.914 189.775 386.4 185.892 385.731C184.736 385.532 186.869 380.689 186.766 380.176C186.57 379.194 186.304 377.855 186.032 376.48C185.878 375.706 185.722 374.921 185.576 374.183C185.161 372.085 184.822 370.368 184.822 370.368L190.641 370.513Z" fill="#F7A491"/>
<path d="M190.735 371.028C190.675 370.704 190.641 370.512 190.641 370.512L184.822 370.367C184.822 370.367 185.161 372.085 185.576 374.182C185.722 374.915 185.876 375.698 186.029 376.467C186.928 376.337 187.866 375.9 188.808 375.079C189.833 374.182 190.506 373.105 190.912 371.955C190.84 371.587 190.78 371.271 190.735 371.028Z" fill="#F47458"/>
<path d="M186.725 357.314C186.725 357.314 189.468 356.998 191.187 359.215C192.906 361.434 194.759 368.298 190.488 372.027C186.218 375.757 181.998 371.535 181.372 367.057C180.746 362.579 180.503 357.151 186.725 357.314Z" fill="#F7A491"/>
<path d="M180.109 366.993C180.619 367.982 181.474 368.529 182.02 368.215C182.566 367.902 182.595 366.845 182.085 365.856C181.576 364.869 180.72 364.32 180.174 364.633C179.629 364.947 179.599 366.003 180.109 366.993Z" fill="#F7A491"/>
<path d="M186.418 356.581C186.418 356.581 190.082 363.105 192.704 363.406C195.325 363.709 195.669 367.177 195.669 367.177C195.669 367.177 194.732 359.187 192.137 357.646C189.542 356.105 186.418 356.581 186.418 356.581Z" fill="#13375B"/>
<path d="M192.017 365.048C191.803 366.205 192.232 367.267 192.974 367.42C193.717 367.573 194.491 366.757 194.704 365.597C194.917 364.439 194.488 363.377 193.746 363.224C193.004 363.071 192.23 363.887 192.017 365.048Z" fill="#F7A491"/>
<path d="M167.355 472.52C167.355 472.52 173.24 479.575 173.279 480.189C173.318 480.803 173.045 487.503 172.345 488.117C171.646 488.73 169.59 489.166 170.251 489.857C170.75 490.378 174.594 490.266 177.14 490.126C177.884 490.085 178.816 484.154 179.111 483.281C179.539 482.015 180.579 479.163 180.19 478.28C180.001 477.85 179.094 476.967 177.817 476.143C176.473 475.275 171.335 468.124 171.335 468.124L167.355 472.52Z" fill="#F48C7F"/>
<path d="M177.734 476.099C177.734 476.099 173.782 487.225 172.235 487.761C171.825 487.904 169.854 488.267 169.482 489.137C169.37 489.401 169.482 490.276 169.482 490.276H177.719C177.719 490.276 178.76 485.376 179.172 483.221C179.172 483.221 181.352 477.961 181.11 477.482C180.868 477.003 177.734 476.099 177.734 476.099Z" fill="#B75742"/>
<path d="M132.107 475.907C132.107 475.907 127.302 482.672 127.724 484.812C127.951 485.959 128.959 487.459 128.381 488.536C127.802 489.616 127.141 489.885 127.141 489.885L112.151 490.126C111.334 490.139 111.874 489.613 112.532 489.132C113.61 488.342 114.479 487.819 117.922 486.156C118.146 486.047 118.964 485.529 119.259 485.35C120.006 484.894 120.756 484.177 121.403 483.46C122.479 482.263 127.212 472.519 127.212 472.519L132.107 475.907Z" fill="#F7A491"/>
<path d="M119.26 485.348C123.225 486.363 126.156 485.674 127.795 485.014C128.218 486.21 128.778 487.71 128.481 488.575C128.117 489.634 127.599 489.873 127.141 489.885C123.52 489.979 113.876 490.108 111.115 490.144C110.73 490.15 110.517 489.699 110.765 489.404C111.45 488.588 118.965 485.529 119.26 485.348Z" fill="#B75742"/>
<path d="M149.489 434.172C149.489 434.172 155.44 440.963 156.957 442.038C158.475 443.115 173.04 469.935 173.04 469.935L167.851 473.721C167.851 473.721 154.834 457.492 148.721 448.811C143.552 441.471 145.456 441.937 142.416 437.466C140.742 435.008 141.122 431.68 143.329 429.686C143.603 429.437 143.901 429.178 144.226 428.909C148.725 425.159 179.567 420.94 179.567 420.94L199.294 422.869C199.294 422.869 183.176 434.172 182.575 434.472C181.973 434.773 160.317 437.933 159.866 437.933C159.415 437.933 149.489 434.172 149.489 434.172Z" fill="#134BAC"/>
<path d="M201.298 423.043C201.298 423.043 204.682 433.196 199.606 437.933C194.531 442.667 164.378 442.141 154.452 442.141C154.452 442.141 150.391 453.271 149.94 455.073C149.489 456.878 129.788 480.188 129.788 480.188L124.374 476.728C124.374 476.728 145.579 435.527 147.233 433.721C148.887 431.916 172.499 424.698 178.364 423.043C184.229 421.39 201.298 423.043 201.298 423.043Z" fill="#18315A"/>
<path d="M162.064 404.783L180.07 400.8C180.07 400.8 186.582 392.431 192.836 385.231C194.677 387.055 195.7 389.852 197.553 391.654L183.806 406.86C183.31 407.409 182.606 407.723 181.867 407.725L162.783 407.788L156.252 408.308V404.13L162.064 404.783Z" fill="#F7A491"/>
<path d="M191.962 400.375C191.962 400.375 199.089 393.066 200.923 389.893C202.757 386.718 201.397 381.398 198.248 380.561C195.099 379.727 185.031 393.159 185.031 393.159L191.962 400.375Z" fill="#96D9C9"/>
<path d="M125.072 384.286H154.769C155.555 384.286 156.262 384.763 156.561 385.488L165.704 407.788H182.076C182.534 407.788 182.905 408.161 182.905 408.617C182.905 409.075 182.534 409.445 182.076 409.445H135.48C134.199 409.445 133.038 408.694 132.513 407.524L123.306 387.016C122.731 385.734 123.668 384.286 125.072 384.286Z" fill="#B75742"/>
<path d="M141.061 397.272C141.262 398.275 142.135 398.943 143.013 398.769C143.89 398.593 144.438 397.64 144.238 396.638C144.037 395.636 143.163 394.965 142.286 395.141C141.409 395.317 140.86 396.27 141.061 397.272Z" fill="white"/>
<path d="M185.205 413.206H96.4835C95.4449 413.206 94.6025 412.364 94.6025 411.326C94.6025 410.287 95.4449 409.445 96.4835 409.445H185.205C186.244 409.445 187.086 410.287 187.086 411.326C187.086 412.364 186.244 413.206 185.205 413.206Z" fill="#184655"/>
<path d="M185.074 369.562L189.098 369.355C189.098 369.355 189.084 370.888 187.318 371.031C185.163 371.204 185.074 369.562 185.074 369.562Z" fill="white"/>
<path d="M172.487 443.183L174.304 435.62C175.574 430.331 180.259 426.482 185.695 426.262L208.709 425.332L209.419 422.988L185.602 423.952C179.137 424.214 173.567 428.79 172.056 435.079L170.125 443.115C170.779 443.144 171.576 443.167 172.487 443.183Z" fill="#355389"/>
<path d="M203.356 439.155C203.356 439.155 171.738 439.697 168.441 439.155C165.145 438.614 163.718 442.745 164.702 444.91C165.686 447.075 168.392 447.912 172.377 448.109C176.362 448.306 209.522 449.241 210.457 448.355C211.22 447.63 221.273 413.266 224.93 400.699C225.662 398.187 224.22 395.563 221.709 394.825C219.211 394.092 216.588 395.511 215.833 398.003L203.356 439.155Z" fill="#184655"/>
<path d="M185.213 490.152V412.3H183.65V490.152H185.213Z" fill="#13375B"/>
<path d="M184.823 417.34H96.584V418.176H184.823V417.34Z" fill="#13375B"/>
<path d="M420.148 37.6895C420.148 37.6895 431.612 45.1098 459.865 44.0997C459.865 44.0997 429.584 55.5372 417.741 57.3062L412.869 38.0599L420.148 37.6895Z" fill="#02C650"/>
<path d="M425.551 47.3813C425.551 47.3813 423.238 52.7996 417.742 57.3062L415.203 47.2751L415.366 42.424L425.551 47.3813Z" fill="#B75742"/>
<path d="M381.979 26.7109C381.979 26.7109 415.081 24.4757 420.23 26.3664L425.551 47.3817C425.551 47.3817 406.71 45.763 388.353 51.8857L381.979 26.7109Z" fill="#009E3F"/>
<path d="M362.037 260.966C362.037 260.966 360.444 263.569 360.587 264.341C360.732 265.11 362.648 273.271 363.705 273.81C364.762 274.351 367.438 274.245 366.837 275.304C366.384 276.104 361.602 277.169 358.411 277.793C357.478 277.974 354.471 270.937 353.834 269.953C352.909 268.523 350.734 265.325 350.938 264.113C351.037 263.522 351.881 262.147 353.2 260.727C354.588 259.236 355.572 256.446 355.572 256.446L362.037 260.966Z" fill="#F48C7F"/>
<path d="M385.198 260.222L384.66 266.073C384.732 266.956 384.709 269.191 384.903 269.963C385.639 272.861 397.349 264.195 394.096 263.654C393.8 263.605 392.733 262.887 392.397 261.924C391.879 260.437 392.63 258.22 392.63 258.22L385.198 260.222Z" fill="#F7A491"/>
<path d="M380.451 155.327C380.451 155.327 383.834 164.685 383.87 164.83C387.802 180.357 398.559 209.907 398.712 212.976C399.087 220.456 392.915 260.671 392.915 260.671L384.354 261.782L384.168 215.553L375.752 199.057L361.356 165.882L380.451 155.327Z" fill="#3C8F7C"/>
<path d="M354.72 170.878L355.445 180.373L360.661 218.897L353.686 259.601C353.686 259.601 357.32 264.349 360.879 264.242L377.215 220.127L381.101 167.988L377.832 157.449L354.72 170.878Z" fill="#50BFA5"/>
<path d="M353.29 260.65C353.29 260.65 361.651 273.16 363.731 273.338C364.283 273.387 366.831 273.217 367.562 274.177C367.782 274.467 368.248 275.915 368.248 275.915L357.758 278.933C357.758 278.933 354.922 272.432 353.74 269.899C353.74 269.899 349.402 264.079 349.55 263.413C349.7 262.748 353.29 260.65 353.29 260.65Z" fill="#13375B"/>
<path d="M384.382 271.447L384.704 266.003C384.704 266.003 388.182 266.537 389.697 265.918C391.213 265.296 394.054 263.633 394.054 263.633C400.848 264.11 406.241 263.812 405.725 265.708L384.382 271.447Z" fill="#13375B"/>
<path d="M400.618 123.748L405.143 127.218C406.013 126.547 407.919 123.717 409.155 122.836L405.021 118.327C404.682 118.078 404.498 117.666 404.539 117.247C404.568 116.952 404.609 116.669 404.653 116.553C404.78 116.195 404.897 115.77 405.026 115.413C405.153 115.058 404.301 114.341 403.853 114.214C403.405 114.087 403.254 115.804 403.06 116.314C402.475 117.855 401.77 122.075 401.633 122.774L400.618 123.748Z" fill="#F48C7F"/>
<path d="M405.632 126.778C404.361 125.423 402.568 124.662 401.237 123.253L381.16 137.076C381.16 137.076 365.637 118.723 357.209 125.226C360.897 131.437 365.345 137.389 367.634 140.225C372.789 146.607 380.66 149.653 382.196 148.946C383.927 148.153 405.179 127.324 405.632 126.778Z" fill="#13375B"/>
<path d="M317.818 80.8341C318.483 82.603 319.631 85.3873 319.631 85.3873C319.662 86.185 319.828 89.508 320.037 93.582L325.687 90.487C325.687 90.487 324.819 83.9162 325.036 83.481C325.22 83.1133 325.648 83.4914 327.153 80.6683C327.585 79.8525 327.52 78.4979 327.52 78.4979C327.52 78.4979 327.43 76.8325 327.041 76.7238C326.65 76.615 326.254 76.9128 326.155 77.2132C326.054 77.5163 326.171 78.1767 326.07 78.4798C325.969 78.7802 325.153 79.2283 324.79 79.2542C324.425 79.2801 324.244 74.3617 324.244 74.3617C324.244 74.3617 324.278 72.9553 324.324 72.4891C324.366 72.0954 324.581 70.9222 324.581 70.9222C324.581 70.9222 324.793 69.2335 324.27 69.1687C323.959 69.1325 323.355 70.5569 323.003 72.0332C322.622 73.6235 322.498 75.2759 322.335 75.2759C321.949 75.2708 321.827 72.5746 321.827 72.5746C321.827 72.5746 322.055 71.3055 321.977 70.7279C322.247 69.9794 322.327 68.6378 321.685 68.6041C321.566 68.5989 320.941 70.3653 320.941 70.3653C320.941 70.3653 320.757 71.58 320.633 72.1498C320.416 73.1599 320.55 74.6932 320.457 75.3873C320.379 75.9649 320.221 75.7525 320.164 75.781C320.12 75.8069 320.107 75.0221 320.071 73.9498C320.053 73.4085 319.918 72.7973 319.993 72.1705C320.063 71.5904 320.045 70.7719 320.022 70.2798C319.957 68.8864 319.105 69.1325 318.957 70.4327C318.9 70.9273 318.843 71.4661 318.786 72.0126C318.571 74.1415 318.825 76.1358 318.605 76.1772C318.318 76.2342 318.069 72.5798 318.069 72.5798C318.069 72.5798 317.38 70.6217 317.165 72.5409C316.914 74.7683 317.18 76.5295 317.196 76.6046C317.307 77.1278 317.155 79.0651 317.818 80.8341Z" fill="#F8A492"/>
<path d="M357.452 97.7387C357.452 97.7387 354.043 94.9182 352.083 99.0881C352.083 99.0881 350.083 98.2645 348.995 100.295C348.995 100.295 345.491 99.6864 345.281 104.843C345.281 104.843 343.501 104.727 343.522 106.822C343.543 108.92 344.76 110.171 344.76 110.171C344.76 110.171 343.872 111.023 344.545 112.872C345.118 114.442 346.488 114.527 346.488 114.527C346.488 114.527 347.177 117.21 348.459 117.886C349.741 118.565 351.303 117.977 351.303 117.977C351.303 117.977 351.909 119.401 353.272 119.104C354.637 118.806 356.186 117.285 357.799 117.689C359.415 118.093 363.347 116.985 363.347 116.985C363.347 116.985 367.603 114.439 365.699 110.002C365.699 110.002 367.808 107.583 365.427 105.27C365.427 105.27 366.453 101.082 363.179 99.0777C359.905 97.0756 357.452 97.7387 357.452 97.7387Z" fill="#F47458"/>
<path d="M367.093 126.721L360.159 123.157C360.159 123.157 354 124.053 353.236 124.147C352.472 124.24 351.034 152.934 350.912 163.683C350.791 174.431 352.104 176.174 352.104 176.174C352.104 176.174 362.141 177.187 369.292 175.672C376.729 174.097 384.693 169.016 384.693 169.016C384.693 169.016 375.809 149.464 373.765 143.271C371.724 137.078 367.093 126.721 367.093 126.721Z" fill="#F7CC7F"/>
<path d="M353.51 124.076L330.74 105.874C330.74 105.874 325.552 86.6846 325.262 85.9724C324.977 85.2731 319.895 85.4932 317.841 85.5398C317.183 85.5554 320.7 106.301 322.094 109.681C323.741 113.675 341.342 130.647 341.342 130.647C341.342 130.647 345.323 140.513 345.566 148.073C345.97 160.629 345.077 178.075 345.672 178.547C349.218 180.225 361.889 178.917 362.534 177.531C369.65 162.23 353.51 124.076 353.51 124.076Z" fill="#13375B"/>
<path d="M359.558 119.428L360.597 123.419C360.597 123.419 362.529 129.117 361.089 130.435C359.649 131.753 353.52 124.108 353.52 124.108L352.818 113.761L359.558 119.428Z" fill="#F7A491"/>
<path d="M353.046 117.112C354.774 120.461 358.136 122.243 360.439 122.812L359.558 119.427L352.818 113.76L353.046 117.112Z" fill="#F47458"/>
<path d="M343.585 107.785C343.774 109.352 344.818 110.515 345.916 110.381C347.014 110.248 347.752 108.871 347.563 107.306C347.374 105.739 346.328 104.576 345.23 104.711C344.131 104.843 343.396 106.221 343.585 107.785Z" fill="#F47458"/>
<path d="M348.814 100.971C348.923 101.87 350.096 102.468 351.433 102.307C352.77 102.144 353.764 101.284 353.655 100.383C353.547 99.4843 352.373 98.8861 351.037 99.0466C349.7 99.2098 348.706 100.07 348.814 100.971Z" fill="#F47458"/>
<path d="M355.155 102.517C358.219 101.028 361.887 102.74 362.775 105.98C363.161 107.387 363.57 109.166 363.845 111.132C364.503 115.861 362.609 120.769 360.457 121.031C358.305 121.29 351.985 118.943 350.956 112.24C350.319 108.101 351.938 104.079 355.155 102.517Z" fill="#F7A491"/>
<path d="M352.606 112.58C352.733 113.626 352.142 114.558 351.288 114.662C350.433 114.766 349.635 114.002 349.511 112.955C349.384 111.909 349.974 110.979 350.829 110.875C351.684 110.772 352.479 111.536 352.606 112.58Z" fill="#F7A491"/>
<path d="M364.192 99.0312C366.629 100.523 367.733 103.103 366.655 104.797C365.58 106.488 362.734 106.651 360.296 105.159C357.861 103.667 356.758 101.085 357.833 99.3938C358.91 97.7 361.757 97.5394 364.192 99.0312Z" fill="#F47458"/>
<path d="M358.556 101.178C358.649 101.942 357.799 102.675 356.66 102.813C355.52 102.95 354.52 102.442 354.427 101.678C354.334 100.912 355.183 100.179 356.323 100.041C357.463 99.904 358.462 100.412 358.556 101.178Z" fill="#F47458"/>
<path d="M365.41 106.325C365.529 107.309 364.837 108.2 363.863 108.319C362.892 108.435 362.006 107.734 361.887 106.749C361.768 105.765 362.459 104.874 363.433 104.755C364.405 104.638 365.29 105.34 365.41 106.325Z" fill="#F47458"/>
<path d="M372.874 130.989C372.874 130.989 382.499 153.74 385.923 161.758C386.294 162.626 388.156 168.298 388.223 168.863C388.376 170.119 383.1 172.375 382.44 172.359C381.849 172.346 374.099 148.319 369.598 136.646C368.069 132.691 365.834 129.049 362.995 125.9L360.806 124.095L360.597 123.419C360.597 123.419 370.372 124.289 372.874 130.989Z" fill="#13375B"/>
<path d="M421.072 177.485L419.347 177.92L380.111 22.9706L381.839 22.5329L421.072 177.485Z" fill="#13375B"/>
<path d="M409.999 120.813C409.937 120.469 409.826 120.119 409.686 119.77C409.525 119.397 409.264 118.946 409.088 118.814C408.974 118.728 408.891 118.456 408.782 118.182C408.748 118.094 408.704 118.008 408.647 117.931L408.645 117.925C408.481 117.7 408.277 117.514 408.051 117.353C407.839 117.203 407.653 117.001 407.414 116.662C407.228 116.397 406.987 116.172 406.697 116.03C406.412 115.892 406.192 115.887 406.091 116.063C405.617 116.877 403.249 119.472 404.208 120.725C405.011 121.777 406.057 122.87 406.272 123.364C406.57 124.046 407.611 123.999 408.233 123.763C409.404 123.315 410.323 122.577 409.999 120.813Z" fill="#F7A491"/>
<path d="M543.666 489.536H39.6299V491.323H543.666V489.536Z" fill="#184655"/>
<path d="M374.685 90.7563C374.778 90.544 375.102 90.5077 375.257 90.6683C375.506 90.9273 375.76 91.1811 376.011 91.4375C376.568 92.0047 376.573 92.0436 376.656 92.0306C376.855 91.9996 376.863 91.6395 376.853 91.5074C376.829 91.2122 376.733 90.9221 376.77 90.6243C376.845 90.0441 377.378 89.7462 377.858 90.1347C378.295 90.4922 378.715 90.8755 379.132 91.2614C379.163 90.6268 379.179 89.9923 379.22 89.3603C379.236 89.135 379.464 89.0366 379.64 89.1739C380.028 89.4795 381.183 90.3808 381.564 90.6786C381.663 90.7563 382.077 91.1681 382.199 91.093C382.305 91.0257 382.297 90.5828 382.308 90.4844C382.367 89.9431 382.396 89.7514 382.631 87.9902C382.66 87.7805 382.981 87.682 383.118 87.8452C384.473 89.4665 384.678 89.2982 384.802 89.7825C384.828 89.8913 384.74 89.9638 384.639 89.9534C384.377 89.9275 384.318 89.9042 383.641 89.249C383.465 89.0806 383.294 88.9071 383.129 88.731C382.885 90.8755 382.875 91.422 382.339 91.5826C381.966 91.6939 381.903 91.5774 379.725 89.8654C379.723 90.531 379.684 91.194 379.655 91.8597C379.645 92.1135 379.373 92.2327 379.179 92.0721C377.617 90.7874 377.63 90.6916 377.461 90.6139C377.456 90.6139 377.459 90.4973 377.433 90.6631C377.386 90.9454 377.653 91.5541 377.456 92.0643C377.283 92.5149 376.79 92.8594 376.314 92.6237C376.037 92.489 375.962 92.3518 375.128 91.5489C374.879 92.0643 374.571 92.5486 374.182 93.0278C374.014 93.235 373.876 93.3489 373.625 93.4396C373.418 93.5147 373.175 93.2946 373.242 93.0822C373.436 92.4761 373.98 92.3311 374.685 90.7563Z" fill="#F47458"/>
<path d="M367.507 82.8905C368.095 82.9915 368.66 83.0459 369.279 83.0433C369.396 83.0433 369.613 83.0691 369.691 82.95C369.872 82.6703 369.393 82.2326 369.181 81.1318C369.09 80.6527 368.854 79.6737 369.499 79.4794C369.828 79.3784 370.237 79.4561 370.577 79.4665C370.833 79.4716 371.092 79.4691 371.349 79.4691C370.89 77.6794 370.784 77.7778 370.968 77.3789C371.017 77.2753 371.178 77.2235 371.273 77.2883C371.633 77.5266 371.53 77.4774 372.131 79.7307C372.188 79.9353 372.04 80.1839 371.81 80.1787C371.46 80.1683 369.885 80.0414 369.691 80.0596L369.683 80.1813C369.693 80.9247 369.947 81.554 370.209 82.2352C370.421 82.792 370.408 83.5431 369.699 83.7011C369.315 83.7866 368.525 83.7296 367.919 83.6597C368.24 84.7501 368.567 85.8405 368.88 86.9334C368.942 87.1484 368.776 87.4489 368.525 87.4255C367.821 87.3634 367.116 87.3246 366.412 87.2909C366.606 87.9306 366.899 88.5392 367.279 89.0961C367.559 89.5027 366.984 90.0026 366.35 88.9252C365.974 88.3321 365.705 87.6845 365.539 86.9904C365.484 86.7625 365.637 86.4931 365.896 86.4983C366.596 86.5113 367.295 86.5553 367.992 86.6123C367.686 85.5219 367.393 84.4289 367.085 83.3385C367.01 83.0691 367.246 82.8464 367.507 82.8905Z" fill="#66CCB2"/>
<path d="M351.137 76.8117C350.933 76.8066 350.808 76.6719 350.78 76.4777C350.64 75.5168 350.586 74.5714 350.777 73.6105C350.878 73.1132 351.604 73.2997 351.536 73.7892C351.43 74.5533 351.36 75.3432 351.433 76.1177C352 76.1047 352.559 76.0399 353.114 75.9052C353.323 75.8534 353.598 75.9959 353.582 76.2446C353.546 76.861 353.336 79.1946 353.31 79.2153C353.316 79.2127 353.331 79.2101 353.37 79.2179C353.614 79.2671 354.45 79.0935 354.831 79.1168C355.256 79.1453 355.39 79.7203 355.414 80.07C355.458 80.7771 354.929 81.5566 355.175 82.2482C355.414 82.9138 356.463 82.1808 357.242 82.7247C357.846 83.1443 357.636 83.8488 357.39 84.9625C357.328 85.237 357.266 85.5038 356.994 85.6385C356.929 85.6722 356.831 85.6773 356.776 85.6152C356.481 85.2733 356.634 84.8718 356.833 83.854C356.856 83.7245 356.939 83.5043 356.849 83.3878C356.548 82.9993 355.662 83.5535 354.947 83.0873C354.391 82.7247 354.31 82.0125 354.401 81.409C354.473 80.9376 354.764 80.3549 354.611 79.8732C354.207 79.8939 353.797 79.9275 353.393 79.9172C352.953 79.9068 352.653 79.6737 352.632 79.2231C352.606 78.7232 352.691 78.2052 352.73 77.7053C352.756 77.3712 352.779 77.0371 352.811 76.703C352.256 76.791 351.699 76.8299 351.137 76.8117Z" fill="#07345A"/>
<path d="M380.378 101.305C382.064 103.468 380.477 104.514 379.769 103.887C379.466 103.621 379.453 103.154 379.808 102.926C379.971 102.823 380.23 102.986 380.163 103.185C380.109 103.349 380.295 103.393 380.373 103.219C380.474 102.983 380.308 102.693 380.207 102.486C379.966 102.007 379.661 101.378 379.067 101.284C378.184 101.145 377.223 102.03 377.708 103.382C378.41 105.333 381.57 105.309 382.142 103.268C382.453 102.157 382.007 100.948 381.109 100.243C380.932 100.106 381.147 99.8729 381.326 99.948C382.673 100.526 383.15 102.276 382.657 103.587C382.152 104.929 380.715 105.573 379.345 105.34C377.907 105.097 376.736 103.836 376.925 102.328C377.133 100.678 379.197 99.7952 380.378 101.305Z" fill="#3C8F7C"/>
<path d="M345.551 83.2454C345.786 83.5977 345.918 84.3151 345.442 84.5378C345.219 84.6414 344.952 84.5741 344.875 84.3177C344.799 84.0665 344.937 83.836 344.711 83.6391C344.52 83.4708 344.232 83.564 344.054 83.709C343.502 84.1571 343.644 85.1413 343.932 85.6955C344.385 86.5787 345.626 86.7575 346.245 85.8303C346.436 85.5402 346.486 85.1983 346.571 84.8667C346.618 84.6854 346.91 84.6026 347.004 84.7994C347.361 85.5531 346.859 86.4648 346.214 86.8922C345.54 87.3428 344.592 87.3039 343.927 86.8585C343.181 86.3612 342.826 85.3848 342.857 84.5119C342.919 82.6989 344.797 82.1058 345.551 83.2454Z" fill="#F7CC7F"/>
<path d="M259.963 336.272C259.963 336.272 260.766 337.578 262.354 336.79C264.288 335.827 263.517 334.374 263.517 334.374L259.963 336.272Z" fill="white"/>
<path d="M357.955 115.719C357.955 115.719 358.113 117.244 359.885 117.218C362.047 117.187 361.98 115.545 361.98 115.545L357.955 115.719Z" fill="white"/>
</svg>
