<svg width="55" height="55" viewBox="0 0 55 55" fill="none" xmlns="http://www.w3.org/2000/svg">
<circle cx="27.5" cy="27.5" r="27.5" fill="#33658A" fill-opacity="0.2"/>
<circle cx="27.5" cy="27.5" r="22.5" fill="#33658A"/>
<g clip-path="url(#clip0)">
<path d="M25.9167 30.5001H20.9167C20.6867 30.5001 20.5 30.3134 20.5 30.0834C20.5 29.8534 20.6867 29.6667 20.9167 29.6667H25.9167C26.1467 29.6667 26.3333 29.8534 26.3333 30.0834C26.3333 30.3134 26.1467 30.5001 25.9167 30.5001Z" fill="white"/>
<path d="M25.0833 33.0001H20.9167C20.6867 33.0001 20.5 32.8134 20.5 32.5834C20.5 32.3534 20.6867 32.1667 20.9167 32.1667H25.0833C25.3133 32.1667 25.5 32.3534 25.5 32.5834C25.5 32.8134 25.3133 33.0001 25.0833 33.0001Z" fill="white"/>
<path d="M25.0832 23.8333C24.164 23.8333 23.4165 23.0858 23.4165 22.1667C23.4165 21.2475 24.164 20.5 25.0832 20.5C26.0023 20.5 26.7498 21.2475 26.7498 22.1667C26.7498 23.0858 26.0023 23.8333 25.0832 23.8333ZM25.0832 21.3333C24.624 21.3333 24.2498 21.7075 24.2498 22.1667C24.2498 22.6258 24.624 23 25.0832 23C25.5423 23 25.9165 22.6258 25.9165 22.1667C25.9165 21.7075 25.5423 21.3333 25.0832 21.3333Z" fill="white"/>
<path d="M28 28.0001C27.77 28.0001 27.5833 27.8134 27.5833 27.5834V26.7501C27.5833 26.0609 27.0225 25.5001 26.3333 25.5001H23.8333C23.1442 25.5001 22.5833 26.0609 22.5833 26.7501V27.5834C22.5833 27.8134 22.3967 28.0001 22.1667 28.0001C21.9367 28.0001 21.75 27.8134 21.75 27.5834V26.7501C21.75 25.6017 22.685 24.6667 23.8333 24.6667H26.3333C27.4817 24.6667 28.4167 25.6017 28.4167 26.7501V27.5834C28.4167 27.8134 28.23 28.0001 28 28.0001Z" fill="white"/>
<path d="M25.9167 35.5H20.0833C18.935 35.5 18 34.565 18 33.4167V20.0833C18 18.935 18.935 18 20.0833 18H30.0833C31.2317 18 32.1667 18.935 32.1667 20.0833V25.1333C32.1667 25.3633 31.98 25.55 31.75 25.55C31.52 25.55 31.3333 25.3633 31.3333 25.1333V20.0833C31.3333 19.3942 30.7725 18.8333 30.0833 18.8333H20.0833C19.3942 18.8333 18.8333 19.3942 18.8333 20.0833V33.4167C18.8333 34.1058 19.3942 34.6667 20.0833 34.6667H25.9167C26.1467 34.6667 26.3333 34.8533 26.3333 35.0833C26.3333 35.3133 26.1467 35.5 25.9167 35.5Z" fill="white"/>
<path d="M32.5832 38.0001C29.5965 38.0001 27.1665 35.5701 27.1665 32.5834C27.1665 29.5968 29.5965 27.1667 32.5832 27.1667C35.5698 27.1667 37.9998 29.5968 37.9998 32.5834C37.9998 35.5701 35.5698 38.0001 32.5832 38.0001ZM32.5832 28.0001C30.0557 28.0001 27.9998 30.0559 27.9998 32.5834C27.9998 35.1109 30.0557 37.1668 32.5832 37.1668C35.1107 37.1668 37.1665 35.1109 37.1665 32.5834C37.1665 30.0559 35.1107 28.0001 32.5832 28.0001Z" fill="white"/>
<path d="M31.75 34.6667C31.64 34.6667 31.5334 34.6225 31.455 34.545L29.7884 32.8783C29.6259 32.7158 29.6259 32.4517 29.7884 32.2892C29.9509 32.1267 30.215 32.1267 30.3775 32.2892L31.7292 33.6408L34.3525 30.6425C34.5042 30.4683 34.7675 30.4508 34.9409 30.6033C35.1142 30.755 35.1317 31.0183 34.98 31.1917L32.0634 34.525C31.9875 34.6117 31.8784 34.6633 31.7634 34.6667C31.7592 34.6667 31.7542 34.6667 31.75 34.6667Z" fill="white"/>
</g>
<defs>
<clipPath id="clip0">
<rect width="20" height="20" fill="white" transform="translate(18 18)"/>
</clipPath>
</defs>
</svg>
