<svg width="554" height="332" viewBox="0 0 554 332" fill="none" xmlns="http://www.w3.org/2000/svg">
<g clip-path="url(#clip0)">
<g opacity="0.7">
<path d="M489.28 225.545C494.365 225.282 500.655 228.249 501.198 233.772C501.593 237.785 501.472 241.787 502.082 245.794C502.57 248.997 503.603 252.073 505.01 254.99C506.364 257.795 509.17 260.183 509.9 263.18C510.366 265.09 510.105 267.776 509.465 269.643C508.685 271.914 509.099 271.735 510.654 273.641C513.701 277.376 516.445 281.205 518.385 285.666C521.18 292.09 523.013 299.6 521.978 306.632C521.846 307.525 521.69 310.729 520.46 310.953C519.085 311.203 519.727 309.371 519.801 308.779C520.268 305.002 520.683 301.7 520.118 297.863C517.939 283.06 507.309 273.306 500.387 260.742C500.007 260.094 499.203 258.55 498.644 257.532C497.762 255.926 496.877 252.868 495.683 251.677C493.435 249.432 495.502 253.945 495.94 254.806C496.494 255.895 497.104 257.053 497.671 258.008C500.268 262.435 503.166 267.267 505.848 271.83C494.253 274.467 486.084 260.536 482.97 251.376C480.404 243.83 477.332 226.188 489.28 225.545Z" fill="#69A1AC"/>
</g>
<g opacity="0.7">
<path d="M557.468 211.538C548.964 212.212 543.504 217.816 540.962 225.656C539.593 229.88 539.436 234.22 538.675 238.562C537.531 245.093 535.067 250.044 530.251 254.697C528.76 256.138 527.661 257.618 526.88 259.201C525.328 260.782 523.979 262.571 522.987 264.758C521.721 267.551 521.362 270.901 522.824 273.685C523.218 274.433 524.198 275.936 525.215 276.619C521.408 284.718 519.315 293.588 519.551 302.445C519.694 307.793 519.956 313.141 520.26 318.482C520.342 319.916 520.81 322.283 521.512 319.879C522.155 317.679 521.348 314.227 521.274 311.928C520.912 300.733 520.602 290.554 525.215 280.095C525.7 278.998 526.213 277.912 526.747 276.833C526.778 276.815 526.806 276.792 526.836 276.771C526.856 276.786 526.875 276.803 526.895 276.818C526.929 276.757 526.977 276.685 527.031 276.605C527.184 276.446 527.317 276.247 527.445 276.025C527.853 275.458 528.318 274.792 528.32 274.428C528.32 274.425 528.319 274.421 528.319 274.418C531.175 269.761 534.446 265.36 537.788 261.046C537.762 261.077 541.412 256.115 540.848 258.859C540.577 260.182 537.892 262.702 536.807 264.103C534.408 267.22 531.592 271.169 529.252 274.988C528.937 275.168 528.492 276.057 528.17 276.718C527.993 277.053 527.827 277.39 527.664 277.685C535.957 280.422 542.408 274.908 546.807 268.496C546.812 268.488 546.817 268.482 546.822 268.474C548.161 266.702 549.533 264.943 551.246 263.543C554.104 261.205 557.166 260.793 560.535 259.643C569.725 256.507 573.632 244.611 574.872 235.784C576.273 225.826 569.424 210.557 557.468 211.538Z" fill="#89C5CC"/>
</g>
<g opacity="0.7">
<path d="M540.648 183.651C531.927 192.722 527.716 205.306 524.382 217.137C520.657 230.35 518.2 243.767 518.109 257.506C518.05 266.532 517.806 275.616 518.336 284.631C518.524 287.834 518.844 291.04 519.353 294.208C519.395 294.468 520.532 301.542 521.619 299.894C522.237 298.957 520.452 292.557 520.317 291.491C519.558 285.487 519.381 279.439 519.416 273.392C519.474 263.436 519.177 253.531 520.184 243.612C520.335 242.131 520.453 240.575 520.805 239.126C521.178 237.586 520.703 238.258 521.919 237.649C523.102 237.056 524.564 237.141 525.791 236.398C530.659 233.449 533.147 225.872 535.085 220.899C537.301 215.214 538.646 209.151 539.721 203.167C540.509 198.771 541.073 194.401 541.392 189.948C541.493 188.545 541.499 187.078 541.774 185.698C541.848 185.325 542.222 184.667 542.208 184.337C542.179 183.64 541.757 183.229 541.723 182.643C541.358 182.971 540.999 183.308 540.648 183.651Z" fill="#89C5CC"/>
</g>
<g opacity="0.7">
<path d="M493.077 304.534C493.077 319.538 505.255 331.701 520.277 331.701C535.3 331.701 547.479 319.538 547.479 304.534" fill="#89C5CC"/>
</g>
<g opacity="0.7">
<path d="M522.461 304.621H521.023C521.123 302.82 521.255 301.021 521.556 299.241C522.71 292.429 526.315 282.425 534.222 281.319C534.513 281.278 535.586 281.271 536.886 281.347C537.502 281.003 538.192 280.796 538.919 280.748C545.651 280.253 553.169 285.676 556.416 291.321C559.035 295.873 558.594 301.85 556.977 306.685C555.894 309.922 553.531 314.537 549.59 314.583C544.659 314.639 544.422 308.552 544.327 304.994C544.201 300.264 543.601 296.144 539.869 292.92C539 292.168 538.049 291.507 537.17 290.767C535.794 289.607 534.274 288.42 534.097 286.502C533.852 283.856 535.348 283.38 537.631 283.871C538.02 283.955 541.941 285.712 541.361 284.323C541.184 283.899 540.536 283.563 539.72 283.31C537.606 283.081 535.083 282.815 534.358 282.974C526.535 284.688 523.489 295.511 522.68 302.388C522.592 303.131 522.523 303.876 522.461 304.621Z" fill="#69A1AC"/>
</g>
<path d="M436.92 121.053C440.213 117.192 442.441 112.46 442.069 107.158C440.995 91.8811 419.705 95.2421 415.563 102.952C411.421 110.662 411.913 130.221 417.266 131.598C419.401 132.148 423.948 130.802 428.576 128.015L425.671 148.542H442.824L436.92 121.053Z" fill="#B28B67"/>
<path d="M425.339 94.0658C427.599 93.695 433.686 93.4416 434.809 93.4416C435.526 93.4416 436.304 93.6043 436.729 92.9469C437.077 92.408 436.949 91.4972 437.053 90.8719C437.174 90.146 437.345 89.4288 437.518 88.7139C438.011 86.6788 438.756 84.7432 439.799 82.9261C441.756 79.5164 444.623 76.8438 448.243 75.2901C452.24 73.5736 456.763 73.1808 461.062 73.5294C465.662 73.9023 469.828 75.4184 474.171 76.846C478.311 78.2061 482.648 78.7418 486.977 78.0778C491.339 77.4082 494.634 75.0466 498.314 72.8056C502.08 70.5115 506.384 69.0108 510.837 69.3561C514.994 69.6782 518.825 71.3924 522.262 73.6821C525.477 75.8246 528.131 78.402 529.629 82.0297C531.24 85.9318 531.24 90.2168 528.59 93.6652C524.748 98.664 517.617 99.9566 511.684 99.8282C508.252 99.754 504.882 99.1288 501.642 97.9911C497.321 96.4728 493.587 93.8998 489.545 91.8126C487.648 90.8332 485.688 90.0287 483.633 89.4488C481.638 88.8866 479.674 88.6287 477.868 89.8317C475.958 91.1043 474.245 92.356 472.06 93.1528C469.963 93.9175 467.743 94.3447 465.509 94.3269C461.164 94.2937 456.879 92.9414 452.659 92.035C449.217 91.2969 445.534 90.5599 442.025 91.2703C440.56 91.5669 438.421 92.1789 437.892 93.6984C446.794 95.3097 450.29 106.306 447.78 114.376C446.426 118.733 438.286 123.826 435.12 121.535C433.115 120.085 434.332 118.179 435.12 116.922C436.629 114.514 437.144 111.421 434.352 109.744C431.943 108.298 429.412 111.731 429.364 111.728C428.702 111.676 422.983 108.446 419.042 103.731C415.154 103.962 414.564 101.401 415.493 99.3069C416.421 97.2131 422.215 94.5782 425.339 94.0658Z" fill="#191847"/>
<path d="M449.848 332C419.273 332 394.448 308.445 394.448 279.433C394.448 250.422 419.273 226.867 449.848 226.867C480.423 226.867 505.248 250.422 505.248 279.433C505.248 308.445 480.423 332 449.848 332Z" fill="#C5CFD6"/>
<path d="M452.195 260.376C443.793 257.06 414.37 246.678 400.179 243.742C396.102 242.899 392.15 242.114 388.434 241.406C377.389 239.3 371.666 259.201 382.304 260.731C408.796 264.539 446.352 268.471 449.566 268.912C454.071 269.531 457.475 262.461 452.195 260.376ZM345.975 323.906C355.133 303.663 361.755 286.036 364.413 276.735C368.965 260.811 372.427 246.799 373.303 241.566C375.389 229.088 357.249 228.361 354.851 234.562C351.222 243.949 344.886 274.789 337.273 321.37L345.975 323.906Z" fill="#B28B67"/>
<path d="M381.655 235.928L427.101 212.821V207.791H421.696C377.729 218.981 355.262 226.152 354.295 229.305C354.285 229.339 354.275 229.372 354.266 229.407C354.244 229.435 354.222 229.464 354.201 229.494C345.488 241.463 340.27 299.896 338.557 304.271L355.253 306.759C361.64 283.104 382.075 266.625 381.532 238.293C381.678 237.462 381.716 236.674 381.655 235.928Z" fill="#1F28CF"/>
<path d="M423.323 249.652C427.481 248.821 431.312 248.078 434.588 247.504C455.753 243.797 461.924 232.48 458.275 207.791H419.279C412.909 209.62 379.805 223.486 362.629 230.861C351.261 235.742 354.844 253.338 361.282 257.918C361.317 258.199 361.432 258.389 361.638 258.474C396.269 272.81 423.665 265.288 432.817 267.692L437.05 254.354L423.323 249.652Z" fill="#2B44FF"/>
<path d="M449.328 258.256C451.595 258.471 453.206 258.812 454.157 259.276C455.315 259.839 456.91 260.854 458.943 262.322C458.288 263.664 452.395 275.729 441.266 298.515C437.695 297.94 436.281 296.579 437.023 294.431C437.765 292.284 438.363 290.492 438.818 289.055L439.53 268.578C439.544 268.184 439.875 267.876 440.269 267.89C440.276 267.891 440.283 267.889 440.29 267.89L443.442 268.087C445.234 266.637 446.416 265.327 446.989 264.154C447.454 263.201 447.713 261.698 447.763 259.644C447.782 258.855 448.436 258.232 449.225 258.25C449.26 258.251 449.293 258.253 449.328 258.256Z" fill="#E4E4E4"/>
<path d="M350.143 320.152C350.943 322.283 351.342 323.879 351.342 324.937C351.342 326.224 351.128 328.102 350.698 330.572C349.203 330.572 335.766 330.572 310.387 330.572C309.34 327.113 309.945 325.246 312.202 324.97C314.459 324.695 316.333 324.446 317.826 324.223L336.562 315.88C336.922 315.72 337.344 315.882 337.505 316.242C337.507 316.249 337.512 316.254 337.514 316.261L338.718 319.178C340.808 320.152 342.504 320.639 343.811 320.639C344.872 320.639 346.338 320.212 348.208 319.355C348.926 319.026 349.774 319.341 350.103 320.058C350.117 320.089 350.131 320.12 350.143 320.152Z" fill="#E4E4E4"/>
<path d="M487.486 191.373L472.84 194.274C487.569 221.69 495.468 236.22 496.537 237.865C498.941 241.566 496.697 248.349 495.869 251.922C501.069 253.13 499.018 245.314 505.597 246.946C511.602 248.436 516.695 252.258 522.294 247.102C522.983 246.468 523.488 244.487 521.14 243.471C515.292 240.939 506.651 236.199 505.25 234.359C503.34 231.849 497.418 217.52 487.486 191.373ZM382.788 188.244L356.891 176.884C352.355 172.369 347.974 168.937 343.749 166.589C342.486 166.187 340.328 166.065 342.63 169.425C344.932 172.785 347.203 176.422 346.283 177.599C345.364 178.777 342.698 177.477 341.645 179.392C340.943 180.668 345.437 182.195 355.124 183.972L374.518 198.824L382.788 188.244Z" fill="#B28B67"/>
<path d="M433.023 136.644L426.843 135.584C413.387 148.625 407.901 179.963 398.932 184.109C390.453 188.03 378.431 184.232 364.141 179.105L359.766 188.873C372.752 202.909 400.413 214.771 411.624 208.004C429.546 197.187 433.677 158.536 433.023 136.644Z" fill="#AD8F2E"/>
<path d="M459.976 214.215C435.195 214.215 416.967 214.215 405.292 214.215C402.794 214.215 403.265 210.611 403.626 208.793C407.794 187.806 424.068 165.182 424.068 135.308L439.841 132.838C452.888 153.795 457.399 179.598 459.976 214.215Z" fill="#DDE3E9"/>
<path d="M465.43 192.967C476.577 213.051 485.947 227.511 493.54 236.345L505.002 234.103C497.618 188.369 476.237 154.613 440.859 132.838H440.679H434.614C420.454 181.048 416.55 213.172 422.902 229.207H472.125C471.346 217.474 468.85 205.065 465.43 192.967Z" fill="#D5B038"/>
<path d="M172.079 70.3962C167.816 67.4875 164.375 63.4458 163.349 58.1611C160.395 42.9329 182.279 40.605 188.389 47.0556C194.5 53.5063 199.152 72.7702 194.234 75.5304C192.273 76.6311 187.435 76.5119 182.137 75.0074L190.394 94.3238L173.475 98.8478L172.079 70.3962Z" fill="#B28B67"/>
<path d="M177.949 56.0284C180.996 64.7933 183.909 68.8048 186.689 68.0616C190.858 66.9468 193.691 63.3793 195.52 62.8901C196.853 62.5337 196.999 64.2666 196.444 65.7283C195.986 66.9349 192.698 68.8581 193.119 70.4257C193.54 71.9932 196.019 70.0306 196.269 70.9598C196.682 72.4974 197.951 75.2579 195.257 75.9782C192.53 76.7074 184.448 77.8131 182.032 74.1626C180.473 71.8061 178.473 66.5944 176.036 58.5273C175.865 58.5523 175.694 58.5866 175.523 58.6323C173.186 59.2571 171.796 61.64 172.418 63.9539C172.733 65.129 173.507 66.06 174.498 66.6111C173.887 68.2415 173.172 69.9635 172.312 71.7752C166.836 70.2311 161.126 62.9517 163.623 53.8251C163.861 49.6174 166.196 46.78 169.351 44.9086C171.806 43.0246 174.641 42.128 177.247 42.1668C182.104 41.3004 186.727 41.6009 188.158 42.1318C189.353 46.5842 188.837 48.1387 181.367 50.0111C179.796 51.4559 178.833 53.4782 177.949 56.0284Z" fill="#191847"/>
<path d="M181.702 157.72L217.54 247.97L241.578 324.268H251.07L214.322 157.72H181.702Z" fill="#997659"/>
<path d="M174.485 157.72C174.104 189.435 168.539 232.134 167.649 234.11C167.056 235.428 146.591 252.187 106.256 284.389L112.793 291.35C160.385 263.741 185.283 248.095 187.486 244.413C190.79 238.89 201.544 188.061 210.179 157.72H174.485Z" fill="#B28B67"/>
<path d="M105.337 282.052C103.142 282.827 101.629 283.561 100.8 284.256C99.7922 285.101 98.4616 286.502 96.8087 288.46C97.7909 289.629 106.615 300.132 123.282 319.971C126.68 318.519 127.746 316.822 126.48 314.876C125.214 312.931 124.177 311.3 123.371 309.988L117.603 289.863C117.492 289.477 117.087 289.253 116.699 289.363C116.692 289.365 116.687 289.367 116.68 289.37L113.602 290.344C111.467 289.349 109.971 288.342 109.114 287.321C108.416 286.491 107.789 285.063 107.232 283.04C107.018 282.263 106.215 281.806 105.437 282.02C105.403 282.03 105.37 282.04 105.337 282.052Z" fill="#E4E4E4"/>
<path d="M237.691 320.817C236.875 322.995 236.466 324.625 236.466 325.707C236.466 327.021 236.685 328.94 237.124 331.464C238.652 331.464 252.379 331.464 278.307 331.464C279.378 327.93 278.76 326.023 276.455 325.741C274.149 325.459 272.232 325.204 270.707 324.977L251.566 316.454C251.198 316.29 250.766 316.456 250.602 316.823C250.598 316.83 250.596 316.836 250.594 316.842L249.363 319.824C247.228 320.818 245.494 321.315 244.16 321.315C243.075 321.315 241.577 320.877 239.667 320.003C238.933 319.668 238.067 319.988 237.731 320.721C237.717 320.753 237.703 320.785 237.691 320.817Z" fill="#E4E4E4"/>
<path d="M205.798 316.41L250.926 311.537L217.48 157.72H177.061L205.798 316.41Z" fill="#69A1AC"/>
<path d="M115.591 273.16L145.192 308.021C176.371 274.14 194.549 252.034 199.725 241.7C204.9 231.366 209.554 203.372 213.683 157.72H168.178C165.922 197.883 164.402 218.899 163.616 220.768C162.83 222.637 146.822 240.102 115.591 273.16Z" fill="#89C5CC"/>
<path d="M149.627 157.044L164.663 154.46C160.65 185.877 158.435 202.563 158.017 204.515C157.078 208.909 161.702 214.534 163.801 217.625C159.284 220.67 158.378 212.497 152.698 216.447C147.514 220.053 144.055 225.541 136.824 222.686C135.935 222.335 134.729 220.637 136.596 218.815C141.249 214.278 147.756 206.622 148.419 204.362C149.322 201.281 149.726 185.508 149.627 157.044ZM237.583 140.976L263.479 153.69C269.994 154.266 275.559 155.429 280.171 157.178C281.315 157.898 282.825 159.499 278.682 159.905C274.539 160.311 270.198 160.924 269.879 162.41C269.56 163.897 272.326 165.12 271.517 167.192C270.977 168.573 266.833 166.078 259.083 159.703L234.716 154.333L237.583 140.976Z" fill="#B28B67"/>
<path d="M181.271 86.8728L187.3 84.7181C213.866 100.47 230.064 136.863 261.899 152.048L256.576 161.633C206.461 164.227 186.101 119.944 181.271 86.8728Z" fill="#33658A"/>
<path d="M167.897 169.32C192.82 164.936 211.152 161.712 222.895 159.646C225.408 159.204 224.297 155.679 223.612 153.922C215.704 133.643 195.333 113.866 190.044 83.9503L173.743 84.2672C164.331 107.561 164.361 134.198 167.897 169.32Z" fill="#DDE3E9"/>
<path d="M157.569 108.385C155.149 108.132 153.052 106.916 151.281 104.739C143.644 95.3549 144.725 89.2583 150.589 86.286C156.452 83.3136 162.664 86.2198 172.536 84.4834C173.073 84.389 173.57 84.3365 174.029 84.3243L179.044 83.7331C201.78 129.249 211.374 160.596 207.823 177.776L164.538 185.39C163.025 191.788 161.455 197.223 159.829 201.695L148.034 203.77C140.615 168.273 143.793 136.478 157.569 108.385Z" fill="#0090A4"/>
<path d="M169.595 159.065C172.959 170.153 176.625 177.984 180.593 182.56L164.528 185.385C166.294 177.922 167.983 169.148 169.595 159.065Z" fill="black" fill-opacity="0.10196"/>
<g opacity="0.5">
<path d="M92.6863 145.809C94.5499 143.154 98.0102 136.411 100.634 135.463C102.324 134.852 101.831 141.173 101.852 142.378C101.933 147.041 101.479 151.674 100.918 156.298C99.906 164.637 96.5997 172.063 92.0647 179.16C89.7312 182.812 86.9934 186.508 83.2029 188.786C81.4578 189.836 79.3581 190.012 77.6352 190.916C75.6286 191.968 76.7211 191.117 75.817 193.207C74.5605 196.107 74.1594 199.849 73.5777 202.943C70.9096 217.149 64.4489 292.245 65.5691 306.695C65.6688 307.976 63.8805 308.282 63.7907 306.718C63.3165 298.428 67.4227 241.016 69.4936 222.24C71.5645 203.464 73.6597 186.879 75.7616 180.382C78.3111 172.502 82.9159 163.024 86.7496 155.675C88.5301 152.261 90.4703 148.964 92.6863 145.809Z" fill="#69A1AC"/>
</g>
<g opacity="0.5">
<path d="M106.522 237.894C111.373 234.338 116.625 241.05 112.235 244.608C109.809 246.574 107.271 245.876 105.843 244.237C104.916 245.366 104.048 246.545 103.214 247.542C100.673 250.58 98.2733 253.69 95.9786 256.873C91.212 263.485 87.1257 270.47 82.8543 277.328C78.6395 284.097 74.4579 290.899 70.6375 297.839C67.4011 303.719 63.0865 310.636 61.9785 317.081C63.6594 303.41 70.0392 290.271 77.6368 278.219C85.1723 266.267 93.8202 253.213 105.487 243.781C104.3 242.037 104.266 239.547 106.522 237.894Z" fill="#C1DEE2"/>
</g>
<g opacity="0.5">
<path d="M14.4746 204.554C17.1892 205.084 21.6256 211.217 23.8627 213.555C26.5219 216.331 28.934 219.292 31.2076 222.393C36.1039 229.068 40.4827 236.165 44.2056 243.566C50.2752 255.631 55.1371 268.017 58.6661 281.155C60.8267 289.198 62.225 297.534 63.0538 305.812C63.21 307.373 64.8498 319.408 62.4887 319.733C60.3646 320.025 61.0195 310.594 60.9175 309.311C59.7597 294.838 56.2905 280.756 51.4652 267.114C50.4137 264.143 49.4364 260.502 47.7556 257.828C46.5446 255.901 47.7467 256.574 45.6194 255.845C43.7923 255.218 41.7115 255.372 39.8412 254.605C35.777 252.941 32.5239 249.709 29.6719 246.459C24.1286 240.142 19.7354 233.309 17.4463 225.215C16.1765 220.727 15.0098 216.214 14.3616 211.587C14.1943 210.391 12.7262 204.212 14.4746 204.554Z" fill="#69A1AC"/>
</g>
<g opacity="0.5">
<path d="M25.1876 102.508C35.4122 120.219 43.8142 139.676 49.2401 159.381C52.5275 171.321 54.8266 183.572 57.1102 195.735C60.6469 214.568 63.992 233.4 64.9438 252.568C65.9011 271.846 67.7935 294.081 61.4735 312.65C64.6302 293.798 61.6253 273.733 61.0935 254.764C60.8386 245.708 60.1018 236.74 59.1345 227.738C58.196 219.005 56.6637 210.313 55.2366 201.649C54.5419 197.429 53.8117 193.216 53.0682 189.005C52.8466 187.749 52.7524 184.021 51.9547 183.162C51.1514 182.298 47.054 181.947 45.7676 181.313C43.1771 180.036 40.7406 178.223 38.5844 176.306C34.4505 172.633 30.8539 167.833 28.0152 163.102C21.4481 152.153 18.821 138.794 18.954 126.115C18.9795 123.653 22.9439 97.1454 21.3517 96.7802C21.4481 96.6685 21.5379 96.5523 21.6232 96.4316C22.8287 98.4469 24.012 100.475 25.1876 102.508Z" fill="#89C5CC"/>
</g>
<g opacity="0.5">
<path d="M135.549 166.386C135.706 166.16 136.733 164.579 136.216 164.68C137.268 164.474 134.768 166.424 137.391 165.228C136.146 166.403 136.864 167.928 136.881 169.509C136.907 172.077 136.478 174.623 135.994 177.135C135.23 181.106 134.089 184.966 132.435 188.66C128.83 196.709 122.708 204.459 115.441 209.491C111.853 211.976 108.336 212.821 104.244 213.965C101.659 214.688 101.454 216.023 100.083 218.528C97.2263 223.746 94.4208 228.944 91.9024 234.338C88.8941 240.779 85.9757 247.226 83.2212 253.78C73.9428 275.857 66.3896 298.728 62.424 322.398C62.3265 308.449 65.5574 294.084 69.6327 280.788C72.601 271.101 76.4657 261.763 80.5875 252.521C81.5858 250.282 83.0993 247.401 83.5237 244.929C83.8206 243.197 82.9132 241.531 82.4977 239.706C80.8767 232.6 80.9919 224.639 82.4157 217.496C83.9846 209.618 88.523 205.962 96.2003 204.846C99.008 204.438 102.576 204.587 105.151 203.392C107.955 202.09 109.113 197.811 110.707 195.063C114.991 187.683 120.081 180.606 125.926 174.388C127.545 172.666 129.285 171.076 131.131 169.605C132.296 168.676 134.755 167.531 135.549 166.386Z" fill="#89C5CC"/>
</g>
<g opacity="0.5">
<path d="M49.4649 307.333H76.7095C77.9349 307.333 78.9277 308.325 78.9277 309.549C78.9277 309.657 78.92 309.765 78.9044 309.872L76.7981 324.134C76.1566 328.482 72.4215 331.702 68.0217 331.702H58.1538C53.7539 331.702 50.0178 328.482 49.3762 324.134L47.271 309.872C47.0927 308.661 47.9292 307.535 49.1413 307.357C49.2488 307.341 49.3563 307.333 49.4649 307.333Z" fill="#C1DEE2"/>
</g>
<path d="M253.365 5.86433C236.054 5.86433 221.97 16.6222 221.97 29.8436C221.97 36.5389 225.682 42.9841 232.149 47.5215C232.784 47.9675 233.073 48.7609 232.874 49.5102C232.442 51.1181 230.971 55.5349 227.038 59.7955C231.847 58.1134 237.025 55.194 240.848 52.5679C241.302 52.2547 241.871 52.1617 242.403 52.3133C245.904 53.3127 249.594 53.8228 253.365 53.8228C270.677 53.8228 284.76 43.0649 284.76 29.8436C284.76 16.6222 270.677 5.86433 253.365 5.86433ZM220.123 64.8895C219.292 64.8895 218.565 64.3362 218.343 63.5361C218.122 62.7359 218.462 61.8871 219.174 61.4633C225.42 57.7227 228.009 52.2801 228.928 49.7348C222.139 44.5445 218.277 37.3623 218.277 29.8436C218.277 26.0477 219.23 22.3692 221.113 18.9086C222.908 15.6107 225.471 12.6559 228.725 10.125C235.326 4.99671 244.076 2.17139 253.365 2.17139C262.655 2.17139 271.404 4.99671 278.005 10.125C281.259 12.6515 283.823 15.6063 285.618 18.9086C287.502 22.3658 288.454 26.0433 288.454 29.8436C288.454 33.6439 287.502 37.3169 285.618 40.7775C283.823 44.0753 281.259 47.0312 278.005 49.5622C271.404 54.6905 262.655 57.5158 253.365 57.5158C249.549 57.5158 245.804 57.0388 242.225 56.0948C240.641 57.1495 237.679 59.0209 234.14 60.7805C228.645 63.5106 223.932 64.8939 220.127 64.8939C220.127 64.8939 223.928 64.8895 220.123 64.8895Z" fill="#0090A4"/>
<path d="M263.905 27.1134C263.905 27.8144 263.335 28.3835 262.633 28.3835H244.83C244.128 28.3835 243.559 27.8144 243.559 27.1134C243.559 26.4124 244.128 25.8433 244.83 25.8433H262.633C263.335 25.8433 263.905 26.4124 263.905 27.1134Z" fill="#0090A4"/>
<path d="M367.413 82.4468C367.413 82.4926 367.375 82.5298 367.33 82.5298H366.166C366.12 82.5298 366.083 82.4926 366.083 82.4468C366.083 82.401 366.12 82.3638 366.166 82.3638H367.33C367.375 82.3638 367.413 82.401 367.413 82.4468Z" fill="#191847"/>
</g>
<defs>
<clipPath id="clip0">
<rect width="554" height="332" fill="white"/>
</clipPath>
</defs>
</svg>
