<svg xmlns="http://www.w3.org/2000/svg" viewBox="0 0 299.37 299.23"><defs><style>.cls-1{fill:#f9fafb;}.cls-2{fill:#38698c;}.cls-3{fill:#fcfdfd;}.cls-4{fill:#38698d;}</style></defs><g id="Layer_2" data-name="Layer 2"><g id="Layer_1-2" data-name="Layer 1"><path class="cls-1" d="M131.21,4.4c-.17,2.39-1.34,4.09-3.86,4.29-2.71.23-4.51-1.21-4.75-3.92-.22-2.53,1.31-4.08,3.79-4.31C129.12.2,130.73,1.62,131.21,4.4Z"/><path class="cls-2" d="M149.22,299.23C66.85,299.1-.13,231.69,0,149,.13,67,67.7-.18,149.92,0c82.75.18,149.62,67.51,149.45,150.48C299.19,232.47,231.68,299.35,149.22,299.23ZM31.34,220a10.38,10.38,0,0,0,.57,1.37C59.14,267.92,117,295,170.15,286.13c77-12.86,127.19-81.49,115.65-158.32C274.73,54.11,203.43,1.59,129.92,13,50.66,25.31-1,99,14.7,177.65c2.9,14.54,7.63,28.49,16.08,40.92Z"/><path class="cls-3" d="M69.07,177.39c-.18-.49-.37-1-.56-1.45l-.07.07c.85-.42,1,.22,1.19.79C69.45,177,69.26,177.19,69.07,177.39Z"/><path class="cls-4" d="M31.89,219.43c-.19-.57-.34-1.2-1.19-.78.16-10.91,3.49-21.28,5.45-31.88,3.26-17.66,7-35.22,10.59-52.83,1.19-5.91,2.6-6.81,8.58-5.81,13.13,2.19,26.27,4.3,39.4,6.48,5.47.9,6.73,2.38,5.65,7.68-.92,4.49.95,5.65,5,5.55,10.49-.26,20.9-1.3,31.32-2.48,14.1-1.61,28.25-1.94,41.95,2.92,1.87.66,2.79.54,2.72-1.74-.09-2.76,1.76-4,4-5.07q19-8.78,38-17.69c3.6-1.69,6-.79,7.77,2.67q18.35,36.86,36.71,73.7c1.88,3.76.81,6.4-3,8q-20.19,8.63-40.37,17.25c-2.95,1.26-5.49,1.2-7.36-1.81-.6-1-1.1-2.18-2.65-1.44-1.15.55-.87,1.57-.93,2.56-.66,10.77-2.49,13.06-13.09,16.12-1.42.41-1.62,1.14-2,2.36-2,7.12-5.72,9.52-13.3,8.88-1.24-.1-2.29-.76-3.4.88-5.7,8.42-12.93,10.26-22.11,5.6-2-1-3.5-.82-5.54-.19-7.69,2.41-15.21,1.75-21.85-3-14.17-10.23-28.18-20.68-42.24-31.05-2-1.46-3.76-3.54-5.5.41-.67,1.53-2.6,2.09-4.36,1.85q-23.46-3.31-46.9-6.71A10.63,10.63,0,0,1,31.89,219.43Zm74.39-61.74c-3.52,1-8.46-1.61-9.56,4.64-2.57,14.57-5.29,29.12-8.06,43.66-.61,3.17.18,5.22,2.89,7.16,15.29,11,30.43,22.11,45.65,33.15,1.67,1.21,3.51,3.33,5.6.95,2.33-2.63-.11-4.18-1.85-5.66-2.63-2.25-4.73-4.86-1.89-8,3-3.36,5.83-1.36,8.54,1.12,5.51,5.07,11,10.17,17.56,13.94,2.35,1.35,5.61,4,7.5,1.42,1.75-2.38-1.27-5.08-3.42-7q-9.77-8.55-19.58-17.05c-2.48-2.15-4.32-4.67-1.83-7.69,2.63-3.19,5.52-2,8.21.41q10.28,9.12,20.66,18.1a34.56,34.56,0,0,0,5.71,4c1.78,1,3.86,1.61,5.47-.29s.4-3.8-.85-5.36a32.59,32.59,0,0,0-3.52-3.53q-10.83-10-21.71-19.92c-2.54-2.3-4.7-4.85-1.92-8.06,3-3.51,5.91-1.39,8.54,1,8.13,7.39,16.24,14.8,24.43,22.13a36.33,36.33,0,0,0,5.64,4.06c2,1.21,3.84.44,5.31-1.26s1.8-3.62.48-5.48a25.32,25.32,0,0,0-3.41-3.62c-10.54-9.93-21.28-19.66-31.18-30.24-11.35-12.14-15.91-12.5-28.63-1.47a36.53,36.53,0,0,1-13.84,7.68c-10.37,3-17-1.79-17.53-12.62a46,46,0,0,1,3.45-21c1.5-3.45.14-5.06-3.43-5.15C108.55,157.67,107.38,157.69,106.28,157.69ZM73,215.93c3.72.6,4.45-1.67,5-4.66q5.52-31.22,11.27-62.39c.63-3.4-.35-4.92-3.76-5.48-8.53-1.39-17-3-25.55-4.54-3.11-.58-4.64.52-5.24,3.63Q48.41,174.83,42,207.14c-.58,2.89.35,4.38,3.36,4.8C54.56,213.2,63.78,214.59,73,215.93Zm149.23-80.49a10.25,10.25,0,0,0-1.57.5c-8.3,3.84-16.59,7.72-24.89,11.56-2.62,1.21-2.63,3-1.53,5.33q14.13,29.21,28.17,58.44c1.38,2.88,3.1,3.49,6,2.28,8.27-3.5,16.59-6.87,24.89-10.31,2.78-1.15,3.83-2.88,2.32-5.88q-14.91-29.64-29.7-59.36C225.19,136.61,224.39,135.38,222.23,135.44Zm-73,18.55c-2.16,0-4.34-.16-6.48,0-15.73,1.38-19.33,4.09-22.63,17.18a41.05,41.05,0,0,0-1.21,7.86c-.43,8.27,1.75,9.65,9.23,6.2,4.92-2.28,8.6-6.23,12.81-9.45,8.9-6.83,26.79-4.79,33.79,4.71,8.58,11.64,19.93,20.92,30.68,30.61,1.61,1.46,3.68,2.63,5.36,1.35,1.95-1.49-.36-3.21-1-4.62-6.4-13.34-13.18-26.5-19.33-39.94-2.64-5.78-7-8.7-12.61-10.25A99.9,99.9,0,0,0,149.22,154Z"/><path class="cls-4" d="M98.75,85A49.36,49.36,0,0,1,148.2,35.94c27.11.07,49.41,22.34,49.35,49.26a49.4,49.4,0,1,1-98.8-.2ZM148.7,46.25a39,39,0,0,0-39.63,38.39c-.26,21.48,17.5,39.53,39.1,39.74,21,.2,39-17.33,39.41-38.37A39.27,39.27,0,0,0,148.7,46.25Z"/><path class="cls-4" d="M49.15,196A14,14,0,1,1,77,197.34a13.81,13.81,0,0,1-14.58,13.23A14,14,0,0,1,49.15,196ZM67.51,197c-.35-2.36-1.54-4.13-4-4.32a4.22,4.22,0,1,0-.74,8.4C65.51,201.35,66.89,199.53,67.51,197Z"/><path class="cls-4" d="M247.58,193.63a14,14,0,1,1-28-.27,14,14,0,0,1,28,.27Zm-9.5-.28c-.48-2.78-2.09-4.21-4.82-3.95-2.48.24-4,1.79-3.79,4.32.23,2.71,2,4.14,4.75,3.92C236.74,197.43,237.91,195.74,238.08,193.35Z"/><path class="cls-2" d="M145.74,93.29c4.89,7.11,9.42,13.49,13.68,20,1.11,1.71,4.1,3.24,2.18,5.85-1.31,1.78-8.13.1-9.71-2.14-4.89-6.93-9.74-13.89-14.62-20.84-.47-.68-1.05-1.3-1.46-2-2.9-5-1.06-8.42,4.56-8.69,4.89-.23,9.21-1.38,11.17-7.57-2.92,0-5.64.54-8-.13-3-.84-8.74,3.47-8.56-3.63.18-6.9,5.8-2.43,8.8-3.4,2-.63,4.28-.12,7.09-.12-2.58-5.1-6.86-5.35-11.09-5s-5.14-1.28-5-5.15c.1-3.26,1.41-3.87,4.25-3.83,8.16.13,16.32.15,24.48,0,3,0,4.09.86,4.09,4s-1.66,3.29-4.08,3.51c-1.61.14-4.68-1.57-4.66,1.53,0,2.54.86,5.79,5.05,5,2.84-.53,3.67.9,3.72,3.69.06,3-1.21,3.77-3.88,3.59-1.6-.1-3.37-.36-3.9,2C158.16,87.33,153.67,91.91,145.74,93.29Z"/></g></g></svg>