<svg width="169" height="168" viewBox="0 0 169 168" fill="none" xmlns="http://www.w3.org/2000/svg">
<path fill-rule="evenodd" clip-rule="evenodd" d="M59.0701 31.6711C68.8303 28.4965 78.7472 33.8491 88.641 36.4383C96.8016 38.5739 104.589 40.7839 111.612 45.4212C119.775 50.812 131.287 55.4981 132.242 65.2317C133.211 75.104 121.883 81.4214 115.931 89.4227C111.518 95.3543 107.221 100.752 101.954 105.948C94.5287 113.272 89.3007 125.486 78.894 125.955C68.6393 126.417 61.4914 115.893 54.9436 108.067C49.1845 101.183 47.0417 92.64 43.968 84.2072C40.2682 74.0565 32.1783 64.252 35.1746 53.8288C38.2404 43.1635 48.4806 35.1155 59.0701 31.6711Z" fill="#02C650" fill-opacity="0.09"/>
<path d="M73.2485 84.298L73.192 85.4053L72.7283 94.5565L85.663 106.327L90.1853 102.19L97.5203 95.4825L98.0908 84.2318L73.2485 84.298Z" fill="#F8CFB3"/>
<path d="M106.427 65.4068C105.921 65.7198 106.118 66.5645 105.648 66.82C104.513 67.439 104.484 65.9123 104.445 65.2363C104.297 62.664 105.655 60.2698 105.454 57.7388C105.174 54.2138 101.786 51.6588 98.5424 50.3045C95.5072 49.0368 91.4822 48.7953 88.1627 49.5463C87.9642 49.5913 87.7599 49.6265 87.5674 49.6783C84.2577 48.4138 79.9214 48.1795 76.5847 49.1908C73.2217 50.2105 69.5927 52.4085 68.9572 55.8875C68.5007 58.3848 69.6099 60.904 69.2019 63.4483C69.0944 64.117 68.9114 65.633 67.8444 64.9025C67.4027 64.6 67.6852 63.78 67.2129 63.4178C66.1679 62.6155 65.6569 63.8948 65.5754 64.6675C65.2842 67.4198 65.5562 70.4535 66.7412 73.022C67.4277 74.5095 68.4677 74.9763 69.4754 76.079C70.5917 77.2998 70.2812 79.5695 70.6462 81.0423C70.8937 82.0428 71.2997 82.965 71.8709 83.7805C73.0897 85.5228 75.3149 86.4205 76.7294 88.0193C78.0542 89.518 79.2744 91.0068 81.1487 92.0253C82.2787 92.639 83.8934 92.7305 85.3829 92.7378C85.5767 92.7563 85.7724 92.7738 85.9687 92.7888C87.2797 92.8905 88.6357 92.8885 89.6674 92.457C91.6352 91.6338 92.9994 90.2765 94.4702 88.919C96.0384 87.4713 98.3434 86.8038 99.7319 85.1935C100.382 84.4405 100.88 83.564 101.228 82.5935C101.74 81.165 101.661 78.8763 102.895 77.7743C104.009 76.7798 105.09 76.42 105.925 75.0098C107.363 72.574 107.94 69.5838 107.93 66.816C107.926 66.0398 107.547 64.7148 106.427 65.4068Z" fill="#F8CFB3"/>
<path d="M67.18 61.2765C67.5562 62.7455 67.5685 63.828 67.4365 65.2795C67.4192 65.4725 67.3872 65.7663 67.3775 66.0855L69.354 66.1858C69.3932 65.8003 69.393 65.4348 69.3917 65.2085C69.3862 64.1483 69.4705 63.3093 69.5835 62.2573C69.734 60.8468 69.6205 59.383 69.8427 57.9845C70.4272 54.3083 73.9502 51.8745 77.7312 51.7903C80.508 51.7285 83.2532 52.3985 86.025 52.5445C89.45 52.7255 91.0735 51.2655 93.8532 49.8348C94.5987 49.4508 94.1715 49.3755 94.9175 49.5933C95.4015 49.7345 95.9975 50.3895 96.4107 50.6538C98.9007 52.2493 103.439 53.935 104.022 57.0633C104.481 59.5225 104.235 62 104.039 64.4653C104.012 64.8135 103.596 66.68 103.613 67.924L105.156 68.002C105.726 66.535 106.489 64.542 106.69 63.767C107.501 60.663 107.416 59.2753 107.641 57.9475C108.44 53.2445 108.949 48.7248 106.021 44.5975C102.887 40.1778 98.0502 37.4408 95.3825 37.6225C95.23 37.633 93.4295 37.6925 93.6462 37.894C92.742 37.0528 91.0887 36.9125 89.9337 36.5935C83.7815 34.8943 75.729 38.103 71.0117 41.7268C66.0327 45.5525 66.4725 50.8213 66.759 55.8748C66.86 57.6368 66.7447 59.5755 67.18 61.2765Z" fill="#5F5C53"/>
<path d="M78.0729 133.956H102.47C102.075 131.062 101.621 128.175 101.025 125.305C99.7644 119.236 98.7009 114.426 94.2311 110.143C92.3251 108.316 88.5249 102.318 85.8104 102.856C83.5496 102.856 77.1566 111.991 76.5244 113.946C76.2856 114.683 76.1794 115.329 76.1601 115.937C76.1039 117.708 76.7844 119.158 77.0716 121.63C77.5471 125.714 77.8001 129.84 78.0729 133.956Z" fill="#B9D1DD"/>
<path d="M82.6579 130.098L84.3492 133.956H93.5544L94.3924 131.333C94.4189 131.249 94.4189 131.154 94.3924 131.06L89.1632 111.957C88.9932 111.335 89.0279 110.702 89.2607 110.172L90.5464 107.245C90.6014 107.065 90.5457 106.85 90.4044 106.699C89.7782 106.025 89.1497 105.349 88.5224 104.675C88.0957 104.216 87.5887 103.776 87.3174 103.197C87.1224 102.781 86.6029 101.843 86.1072 102.185C85.6754 102.483 85.5634 102.996 85.3012 103.415C85.0404 103.832 84.6092 104.174 84.2854 104.53C83.8149 105.045 83.3467 105.56 82.8789 106.073C82.7609 106.203 82.7389 106.409 82.8212 106.599L84.5569 109.766C84.8727 110.341 85.0039 110.986 84.9277 111.584L82.6174 129.823C82.6044 129.912 82.6189 130.008 82.6579 130.098Z" fill="#3C5771"/>
<path d="M121.319 133.956C128.402 133.956 133.913 127.787 133.113 120.75C132.969 119.488 132.835 118.421 132.724 117.719C132.126 113.952 131.341 110.035 128.959 107.057C126.338 103.781 125.229 102.135 121.075 101.548C116.493 100.9 102.447 98.0042 99.8117 96.641C98.3655 102.732 97.353 109.106 95.9245 115.218C95.8992 115.327 93.5022 125.434 91.5742 133.956H121.319Z" fill="#2E5A7B"/>
<path d="M98.0939 90.4695L86.5949 101.747C86.4249 101.913 86.1459 101.891 85.9474 101.696L72.8834 88.761L67.5282 98.4455L77.8547 116.105L85.9554 102.718C86.1259 102.436 86.5289 102.468 86.7447 102.781L97.2017 117.9L101.398 99.6065L98.0939 90.4695Z" fill="#E3F4FF"/>
<path d="M97.8281 133.956C101.424 125.259 105.661 118.425 109.147 113.595C106.939 112.442 104.73 111.291 102.522 110.139L109.825 106.847C109.4 105.59 108.435 103.625 107.145 100.958C105.216 96.9738 100.676 93.878 99.6644 93.478L95.5191 116.019L94.0636 121.623L91.2756 133.956H97.8281Z" fill="#84A2B9"/>
<path d="M86.3783 133.956C83.7795 125.763 80.1936 117.667 77.322 109.67L72.2971 95.6385C72.2971 95.6385 72.1638 95.68 71.9138 95.7472C71.0033 95.9892 68.583 97.5137 65.5445 98.3312C59.6165 99.9535 53.4775 102.567 47.4653 103.543C40.845 104.619 37.9515 112.005 36.673 120.167C35.5398 127.399 41.0718 133.956 48.392 133.956H86.3783Z" fill="#2E5A7B"/>
<path d="M63.4942 114.792C68.4177 120.794 73.415 126.196 78.0815 133.956H86.7767L81.5065 120.413L77.3245 109.667L71.55 91.9075C70.639 92.147 61.2252 102.107 61.0117 103.261L71.5432 107.497L63.4942 114.792Z" fill="#84A2B9"/>
<g opacity="0.0804876">
<path d="M45.1975 126.507V134.767H36.9375V126.507H45.1975Z" fill="#84A2B9"/>
</g>
<g opacity="0.0179876">
<path d="M61.275 126.507V134.767H53.015V126.507H61.275Z" fill="#84A2B9"/>
</g>
<g opacity="0.0179876">
<path d="M101.542 126.507V134.767H93.2825V126.507H101.542Z" fill="#84A2B9"/>
</g>
</svg>
