<svg width="85" height="85" viewBox="0 0 85 85" fill="none" xmlns="http://www.w3.org/2000/svg">
<g clip-path="url(#clip0_7436_62216)">
<path d="M85.0013 42.4997C85.0013 65.9719 65.9732 84.9993 42.5016 84.9993C19.0294 84.9993 0.00195312 65.9719 0.00195312 42.4997C0.00195312 19.0274 19.0294 0 42.5016 0C65.9732 0 85.0013 19.0274 85.0013 42.4997Z" fill="#8F95E6"/>
<path d="M42.5006 81.679C19.5848 81.679 0.908219 63.5413 0.0359953 40.8395C0.0145949 41.3907 0.000976562 41.9432 0.000976562 42.4996C0.000976562 65.9712 19.0284 84.9993 42.5006 84.9993C65.9722 84.9993 85.0003 65.9712 85.0003 42.4996C85.0003 41.9432 84.986 41.3907 84.9646 40.8395C84.0924 63.5413 65.4158 81.679 42.5006 81.679Z" fill="#6770E6"/>
<path d="M53.694 17.0308C53.2109 15.1632 51.1493 12.5154 43.3389 12.5154C31.2717 12.5154 29.5532 14.3026 26.3419 11.2164C23.6325 8.61272 22.0411 21.1442 25.6538 25.124C24.1292 30.7607 25.349 36.4065 25.349 36.4065H59.3009C59.3002 36.4065 62.1497 23.2187 53.694 17.0308Z" fill="#333399"/>
<path d="M26.3413 14.23C29.5533 17.3162 31.2711 15.5289 43.3383 15.5289C51.1494 15.5289 53.211 18.1761 53.6934 20.0444C58.1908 23.3348 59.4903 28.6052 59.7212 32.8191C59.9482 28.4599 59.3593 21.1767 53.6934 17.0315C53.211 15.1632 51.1494 12.516 43.3383 12.516C31.2711 12.516 29.5533 14.3026 26.3413 11.2165C24.5605 9.50508 23.2635 14.3318 23.6085 18.9724C23.8588 15.5413 24.9522 12.8948 26.3413 14.23Z" fill="#5861C7"/>
<path d="M28.7763 36.9991C28.7763 36.9991 27.3126 34.3182 24.3853 34.3182C21.458 34.3182 19.3841 47.1883 28.7763 45.0431V36.9991Z" fill="#FFE4D1"/>
<path d="M55.8711 36.9991C55.8711 36.9991 57.3348 34.3182 60.2621 34.3182C63.19 34.3182 65.2633 47.1883 55.8711 45.0431V36.9991Z" fill="#FFE4D1"/>
<path d="M42.3243 19.7533C19.8968 19.7533 24.1846 56.5358 42.3243 56.5358C60.4633 56.5358 64.7518 19.7533 42.3243 19.7533Z" fill="#FFEFE4"/>
<path d="M42.3245 17.7513C42.3245 17.7513 27.0693 15.599 27.0693 35.1725C27.0693 35.1725 28.9902 27.0825 33.3967 24.8763C35.4492 23.8485 36.2008 26.4522 42.3245 26.4522C48.4476 26.4522 49.1998 23.8485 51.2516 24.8763C55.6588 27.0825 57.579 35.1725 57.579 35.1725C57.579 15.599 42.3245 17.7513 42.3245 17.7513Z" fill="#333399"/>
<path d="M73.1839 71.9043C72.0938 69.2331 69.8792 67.0918 67.0187 66.1515L53.2369 61.6231C51.9367 61.1957 51.0534 59.9876 51.0411 58.6186L50.9918 53.0532C48.6884 55.1271 45.8207 56.4124 42.4674 56.4423C39.1147 56.4714 36.225 55.2367 33.8846 53.2043L33.9319 58.5745C33.9442 59.9642 33.0558 61.2022 31.7348 61.636L17.9582 66.1541C15.1042 67.0905 12.8915 69.2221 11.7969 71.8842C19.5334 79.9657 30.4287 84.9993 42.5004 84.9993C54.5611 84.9993 65.448 79.9741 73.1839 71.9043Z" fill="#5861C7"/>
<path d="M43.9855 84.9708C44.23 84.9624 44.4745 84.9546 44.7176 84.9423C44.8616 84.9351 45.0049 84.9235 45.1482 84.915C45.3713 84.9014 45.5944 84.8891 45.8168 84.8716C45.9673 84.8599 46.1164 84.8443 46.2669 84.8314C46.4809 84.8126 46.6949 84.7951 46.9082 84.773C47.0619 84.7574 47.215 84.738 47.368 84.7205C47.5762 84.6971 47.7837 84.6744 47.9906 84.6478C48.1462 84.6277 48.3012 84.6044 48.4556 84.5823C48.6592 84.5538 48.8628 84.5259 49.0658 84.4948C49.2208 84.4708 49.3745 84.4436 49.5288 84.4183C49.7305 84.3846 49.9322 84.3521 50.1326 84.3152C50.2863 84.2873 50.4386 84.2568 50.5923 84.2276C50.7921 84.1887 50.9912 84.1511 51.1896 84.1096C51.342 84.0785 51.4931 84.0441 51.6448 84.011C51.8426 83.9676 52.0411 83.9241 52.2382 83.8781C52.388 83.8431 52.5372 83.8055 52.6863 83.7691C52.8835 83.7205 53.0806 83.6719 53.2777 83.6206C53.425 83.5817 53.5715 83.5409 53.7181 83.5013C53.9146 83.4475 54.1111 83.3937 54.3069 83.3372C54.4509 83.2957 54.5942 83.2516 54.7382 83.2088C54.9347 83.1498 55.1311 83.0908 55.3263 83.0292C55.4671 82.9845 55.6071 82.9384 55.7472 82.8924C55.9437 82.8282 56.1395 82.7633 56.3347 82.6959C56.4722 82.6485 56.6084 82.5999 56.7452 82.5513C56.9417 82.4819 57.1376 82.4105 57.3328 82.3386C57.4664 82.2886 57.6 82.2374 57.7335 82.1862C57.9287 82.1109 58.1239 82.0351 58.3185 81.9572C58.4488 81.9047 58.5792 81.8509 58.7089 81.7977C58.9047 81.7167 59.0999 81.6343 59.2945 81.5506C59.4209 81.4968 59.5461 81.4417 59.6712 81.3859C59.8677 81.2997 60.0629 81.2115 60.2575 81.122C60.3794 81.0656 60.5013 81.0091 60.6219 80.9514C60.8191 80.8587 61.0156 80.764 61.2108 80.668C61.3275 80.611 61.4436 80.5533 61.5597 80.4949C61.7574 80.3957 61.9539 80.2945 62.1498 80.1927C62.262 80.1337 62.3742 80.0747 62.4857 80.015C62.6835 79.9093 62.88 79.8023 63.0758 79.694C63.1835 79.6343 63.2911 79.574 63.3988 79.5131C63.5959 79.4015 63.7931 79.288 63.9883 79.1726C64.0914 79.1123 64.1945 79.052 64.2976 78.9904C64.496 78.8717 64.6938 78.7504 64.8903 78.6285C64.9876 78.5682 65.0849 78.5073 65.1815 78.4463C65.3812 78.3198 65.5797 78.1914 65.7768 78.0617C65.8689 78.0014 65.961 77.9418 66.0524 77.8808C66.2528 77.7472 66.4519 77.611 66.6497 77.4742C66.7359 77.4139 66.8228 77.3549 66.9084 77.2946C67.1108 77.1526 67.3111 77.0079 67.5102 76.8627C67.59 76.805 67.6698 76.7473 67.7489 76.6889C67.9532 76.5378 68.1555 76.3841 68.3572 76.2291C68.4291 76.174 68.5018 76.1189 68.5738 76.0631C68.7806 75.9023 68.9849 75.7388 69.1885 75.5748C69.2534 75.5222 69.3195 75.4704 69.3844 75.4172C69.5945 75.2453 69.8027 75.0709 70.0095 74.8945C70.0653 74.8472 70.1217 74.8005 70.1768 74.7531C70.3921 74.5677 70.6048 74.3802 70.8162 74.1915C70.8623 74.15 70.909 74.1098 70.9544 74.0683C71.1755 73.8692 71.3934 73.6676 71.61 73.4639C71.645 73.4309 71.6807 73.3984 71.7157 73.366C71.9459 73.1481 72.1729 72.927 72.3986 72.7039C72.418 72.6838 72.4388 72.665 72.4589 72.6455C72.7021 72.403 72.9427 72.1585 73.1807 71.9101C73.182 71.9088 73.1833 71.9075 73.1839 71.9069C72.8752 71.1495 72.4725 70.4368 71.9939 69.7798C64.3514 77.1467 53.9554 81.679 42.5004 81.679C31.037 81.679 20.6345 77.1402 12.9914 69.7623C12.5115 70.4173 12.1075 71.1287 11.7969 71.8842C11.7988 71.8868 11.8021 71.8894 11.804 71.8913C12.0401 72.1378 12.2794 72.3816 12.5212 72.6228C12.5485 72.6501 12.577 72.6767 12.6042 72.7039C12.8221 72.9192 13.0413 73.1332 13.2638 73.344C13.3085 73.3861 13.3539 73.4276 13.3987 73.4691C13.6055 73.6637 13.8137 73.8569 14.0244 74.0476C14.0809 74.0988 14.1379 74.1481 14.195 74.1993C14.3954 74.379 14.5971 74.5573 14.8013 74.7324C14.8675 74.7901 14.9356 74.8459 15.0024 74.9023C15.1982 75.069 15.3954 75.235 15.5945 75.3977C15.6697 75.46 15.7468 75.5203 15.8221 75.5813C16.0153 75.7369 16.2086 75.8919 16.4044 76.0443C16.4868 76.1091 16.5704 76.1714 16.6534 76.2356C16.8441 76.3821 17.0361 76.5281 17.23 76.6714C17.3188 76.7375 17.4096 76.8024 17.4991 76.8679C17.6884 77.006 17.8784 77.1428 18.0698 77.2777C18.1657 77.3452 18.263 77.4113 18.3596 77.4781C18.547 77.6085 18.7364 77.7375 18.9264 77.8646C19.0276 77.932 19.1294 77.9982 19.2312 78.065C19.4186 78.1882 19.6067 78.3101 19.796 78.4307C19.903 78.4982 20.0107 78.565 20.1183 78.6318C20.3051 78.7479 20.4925 78.8626 20.6806 78.9755C20.7928 79.0423 20.9056 79.1084 21.0178 79.1746C21.2039 79.2842 21.392 79.3925 21.58 79.4995C21.6961 79.5656 21.8122 79.6298 21.9289 79.6947C22.1163 79.7984 22.3044 79.9015 22.4938 80.002C22.6131 80.0662 22.7337 80.1291 22.8537 80.192C23.0417 80.29 23.2298 80.3866 23.4192 80.4826C23.543 80.5448 23.6682 80.6071 23.7934 80.668C23.9808 80.7601 24.1695 80.8516 24.3582 80.9404C24.4866 81.0014 24.615 81.0617 24.744 81.1207C24.9321 81.2069 25.1202 81.2925 25.3095 81.3762C25.4418 81.4346 25.5741 81.4929 25.7071 81.55C25.8951 81.6311 26.0838 81.7102 26.2738 81.7886C26.4094 81.8451 26.5462 81.9008 26.683 81.9559C26.8711 82.0312 27.0598 82.1051 27.2492 82.1777C27.3886 82.2316 27.528 82.2847 27.6687 82.3373C27.8581 82.4073 28.0481 82.476 28.2381 82.5441C28.3801 82.5947 28.5228 82.6453 28.6655 82.6946C28.8555 82.7601 29.0461 82.823 29.2375 82.8859C29.3827 82.9332 29.528 82.9812 29.6739 83.0273C29.8645 83.0876 30.0559 83.1453 30.2472 83.203C30.3957 83.2477 30.5435 83.2925 30.6933 83.3359C30.8846 83.3911 31.0772 83.4436 31.2692 83.4968C31.4203 83.5376 31.5701 83.5798 31.7212 83.6193C31.9144 83.6693 32.1083 83.7173 32.3022 83.7652C32.4546 83.8029 32.607 83.8411 32.7601 83.8768C32.954 83.9222 33.1492 83.965 33.3444 84.0078C33.4994 84.0415 33.6537 84.0765 33.8093 84.1089C34.0045 84.1492 34.201 84.1868 34.3969 84.225C34.5532 84.2549 34.7094 84.286 34.8664 84.3145C35.0635 84.3508 35.262 84.3826 35.4604 84.4157C35.618 84.4423 35.7749 84.4695 35.9331 84.4942C36.1335 84.5253 36.3346 84.5525 36.5356 84.5811C36.6932 84.6031 36.8501 84.6271 37.0083 84.6472C37.212 84.6731 37.4175 84.6958 37.6231 84.7192C37.7794 84.7373 37.935 84.7568 38.092 84.773C38.3021 84.7944 38.5135 84.8119 38.7249 84.8307C38.8773 84.8443 39.0297 84.8593 39.1834 84.8716C39.4045 84.8891 39.6263 84.9008 39.8487 84.915C39.9927 84.9241 40.1373 84.9351 40.2819 84.9423C40.529 84.9552 40.7774 84.963 41.0251 84.9714C41.1464 84.9753 41.2664 84.9818 41.3876 84.9851C41.7573 84.9948 42.1282 85 42.5004 85C42.872 85 43.243 84.9948 43.6126 84.9857C43.7371 84.9818 43.861 84.9753 43.9855 84.9708Z" fill="#4E56B0"/>
<path d="M41.9938 73.6824C49.0604 73.6824 55.0881 69.2467 57.4532 63.0089L53.236 61.6231C51.9358 61.1957 51.0526 59.9869 51.0409 58.6186L50.9916 53.0532C48.6875 55.1271 45.8205 56.4124 42.4672 56.4422C39.1138 56.4714 36.2241 55.2367 33.8843 53.2043L33.9317 58.5745C33.944 59.9642 33.0556 61.2022 31.7346 61.636L26.6504 63.3033C29.0913 69.3855 35.0387 73.6824 41.9938 73.6824Z" fill="#FFE4D1"/>
<path d="M42.5016 3.32029C65.4168 3.32029 84.0934 21.458 84.9656 44.1598C84.987 43.6086 85.0013 43.0561 85.0013 42.4997C85.0013 19.0281 65.9732 0 42.5016 0C19.0294 0 0.00195312 19.0281 0.00195312 42.4997C0.00195312 43.0561 0.0155715 43.6086 0.0369718 44.1598C0.909196 21.458 19.5858 3.32029 42.5016 3.32029Z" fill="#9FA5FF"/>
<ellipse cx="73.4091" cy="16.7424" rx="6.4394" ry="6.43939" fill="#02C650"/>
</g>
<defs>
<clipPath id="clip0_7436_62216">
<rect width="85" height="85" fill="white"/>
</clipPath>
</defs>
</svg>
