<svg width="56" height="42" viewBox="0 0 56 42" fill="none" xmlns="http://www.w3.org/2000/svg">
<path d="M40.0702 0.490044L1.59767 12.4175C0.710671 12.6925 0.214671 13.633 0.49017 14.518L7.28217 36.326C7.55767 37.211 8.49967 37.7055 9.38667 37.4305L47.8597 25.503C48.7467 25.228 49.2427 24.2875 48.9667 23.4025L42.1752 1.59505C41.8992 0.710045 40.9567 0.215044 40.0702 0.490044Z" fill="#D1DDEF"/>
<path d="M42.7021 3.28857L1.01758 16.2121L2.13408 19.7986L43.8186 6.87507L42.7021 3.28857Z" fill="#486C8D"/>
<path d="M20.2263 28.967L9.63477 32.2505L10.1183 33.802L20.7093 30.5185L20.2263 28.967Z" fill="#BCBCBC"/>
<path d="M27.1853 23.9396L8.82031 29.6336L9.30331 31.1846L27.6683 25.4911L27.1853 23.9396Z" fill="#DFDFDF"/>
<path d="M21.8076 21.463H14.2246V25.612H21.8076V21.463Z" fill="#D1DDEF"/>
<path d="M47.5445 14.394H9.1225C8.0885 14.394 7.25 15.2335 7.25 16.2695V38.7315C7.25 39.7675 8.0885 40.607 9.1225 40.607H47.5445C48.5785 40.607 49.417 39.7675 49.417 38.7315V16.2695C49.417 15.2335 48.5785 14.394 47.5445 14.394Z" fill="#6C62FF"/>
<path d="M49.417 18.9816H7.25V23.7866H49.417V18.9816Z" fill="#6C62FF"/>
<path d="M49.417 18.9816H7.25V23.7866H49.417V18.9816Z" fill="black" fill-opacity="0.2"/>
<path d="M45.4195 27.3551H11.25V29.6851H45.4195V27.3551Z" fill="#D5D5E2"/>
<path d="M14.0847 38.86C15.9322 38.86 17.4292 37.3605 17.4292 35.5105C17.4292 33.6605 15.9322 32.161 14.0847 32.161C12.2377 32.161 10.7402 33.6605 10.7402 35.5105C10.7402 37.3605 12.2377 38.86 14.0847 38.86Z" fill="#6C62FF"/>
<path d="M14.0847 38.86C15.9322 38.86 17.4292 37.3605 17.4292 35.5105C17.4292 33.6605 15.9322 32.161 14.0847 32.161C12.2377 32.161 10.7402 33.6605 10.7402 35.5105C10.7402 37.3605 12.2377 38.86 14.0847 38.86Z" fill="black" fill-opacity="0.2"/>
</svg>
