<svg width="620" height="462" viewBox="0 0 620 462" fill="none" xmlns="http://www.w3.org/2000/svg">
<path d="M619.724 405.795H0V406.105H619.724V405.795Z" fill="#E6E6E6"/>
<path d="M552.608 416.517H509.971V416.826H552.608V416.517Z" fill="#E6E6E6"/>
<path d="M321.824 416.517H309.082V416.826H321.824V416.517Z" fill="#E6E6E6"/>
<path d="M497.019 422.615H473.023V422.925H497.019V422.615Z" fill="#E6E6E6"/>
<path d="M143.317 417.248H89.7852V417.558H143.317V417.248Z" fill="#E6E6E6"/>
<path d="M159.48 412.835H137.74V413.145H159.48V412.835Z" fill="#E6E6E6"/>
<path d="M395.805 425.961H279.693V426.271H395.805V425.961Z" fill="#E6E6E6"/>
<path d="M293.749 350.516H54.4242C52.5494 350.513 50.7524 349.766 49.4279 348.439C48.1033 347.112 47.3594 345.314 47.3594 343.439V7.01528C47.3757 5.15118 48.1268 3.36879 49.4496 2.05528C50.7724 0.741758 52.5601 0.0031933 54.4242 0H293.749C295.626 0 297.426 0.745637 298.754 2.07288C300.081 3.40012 300.827 5.20025 300.827 7.07725V343.439C300.827 345.316 300.081 347.116 298.754 348.443C297.426 349.77 295.626 350.516 293.749 350.516ZM54.4242 0.247891C52.6316 0.251174 50.9134 0.965611 49.647 2.23439C48.3805 3.50316 47.6692 5.2226 47.6692 7.01528V343.439C47.6692 345.231 48.3805 346.951 49.647 348.22C50.9134 349.488 52.6316 350.203 54.4242 350.206H293.749C295.543 350.203 297.263 349.489 298.531 348.22C299.799 346.952 300.513 345.233 300.517 343.439V7.01528C300.513 5.22146 299.799 3.50205 298.531 2.23363C297.263 0.965209 295.543 0.251167 293.749 0.247891H54.4242Z" fill="#E6E6E6"/>
<path d="M561.854 350.516H322.517C320.641 350.513 318.843 349.766 317.516 348.44C316.189 347.113 315.443 345.315 315.439 343.439V7.01528C315.459 5.15005 316.213 3.36768 317.538 2.0545C318.862 0.741325 320.651 0.00315847 322.517 0H561.854C563.716 0.0064507 565.501 0.746457 566.821 2.05963C568.141 3.3728 568.89 5.15332 568.907 7.01528V343.439C568.907 345.312 568.164 347.108 566.843 348.434C565.521 349.761 563.727 350.509 561.854 350.516ZM322.517 0.247891C320.723 0.251167 319.003 0.965209 317.735 2.23363C316.467 3.50205 315.753 5.22146 315.749 7.01528V343.439C315.753 345.233 316.467 346.952 317.735 348.22C319.003 349.489 320.723 350.203 322.517 350.206H561.854C563.648 350.203 565.367 349.489 566.636 348.22C567.904 346.952 568.618 345.233 568.622 343.439V7.01528C568.618 5.22146 567.904 3.50205 566.636 2.23363C565.367 0.965209 563.648 0.251167 561.854 0.247891H322.517Z" fill="#E6E6E6"/>
<path d="M253.194 405.795H358.324C348.024 366.951 354.197 325.12 376.817 286.275H271.687C249.054 325.12 242.931 366.951 253.194 405.795Z" fill="#FAFAFA"/>
<path d="M249.613 342.088H355.884C359.533 322.415 366.61 303.536 376.793 286.312H270.535C260.352 303.537 253.271 322.415 249.613 342.088Z" fill="#E6E6E6"/>
<path d="M92.8353 327.388L517.768 327.388C524.75 327.388 530.41 321.728 530.41 314.746V53.0486C530.41 46.0664 524.75 40.4063 517.768 40.4063L92.8353 40.4063C85.8531 40.4063 80.1929 46.0664 80.1929 53.0486L80.1929 314.746C80.1929 321.728 85.8531 327.388 92.8353 327.388Z" fill="#E6E6E6"/>
<path d="M98.7961 327.388L523.729 327.388C530.711 327.388 536.371 321.728 536.371 314.746V53.0486C536.371 46.0664 530.711 40.4063 523.729 40.4063L98.7961 40.4063C91.8139 40.4063 86.1537 46.0664 86.1537 53.0486L86.1537 314.746C86.1537 321.728 91.8139 327.388 98.7961 327.388Z" fill="#F5F5F5"/>
<path d="M86.1537 286.288L536.371 286.288V54.945L86.1537 54.945V286.288Z" fill="white"/>
<path d="M311.274 315.972C316.032 315.972 319.888 312.116 319.888 307.358C319.888 302.601 316.032 298.744 311.274 298.744C306.517 298.744 302.66 302.601 302.66 307.358C302.66 312.116 306.517 315.972 311.274 315.972Z" fill="#E6E6E6"/>
<path d="M272.679 397.479H392.694C394.9 397.479 397.016 398.355 398.575 399.914C400.135 401.474 401.011 403.589 401.011 405.795H264.387C264.387 403.594 265.26 401.482 266.814 399.923C268.368 398.364 270.477 397.485 272.679 397.479Z" fill="#F5F5F5"/>
<path d="M244.172 397.479H265.664C267.867 397.482 269.979 398.36 271.536 399.919C273.093 401.478 273.968 403.592 273.968 405.795H235.793C235.795 404.698 236.013 403.613 236.435 402.6C236.858 401.588 237.476 400.669 238.254 399.896C239.033 399.123 239.956 398.512 240.972 398.097C241.987 397.682 243.075 397.472 244.172 397.479Z" fill="#E6E6E6"/>
<path d="M352.623 21.8764C352.62 20.0201 351.881 18.2408 350.569 16.9283C349.256 15.6157 347.477 14.8768 345.62 14.8735H127.477C125.622 14.8801 123.845 15.62 122.533 16.9318C121.221 18.2437 120.481 20.0212 120.475 21.8764V44.4096H352.623V21.8764Z" fill="#E6E6E6"/>
<path d="M296.017 34.9399C298.94 34.9399 301.31 32.5704 301.31 29.6474C301.31 26.7245 298.94 24.355 296.017 24.355C293.094 24.355 290.725 26.7245 290.725 29.6474C290.725 32.5704 293.094 34.9399 296.017 34.9399Z" fill="white"/>
<path d="M314.771 34.9399C317.694 34.9399 320.063 32.5704 320.063 29.6474C320.063 26.7245 317.694 24.355 314.771 24.355C311.848 24.355 309.479 26.7245 309.479 29.6474C309.479 32.5704 311.848 34.9399 314.771 34.9399Z" fill="white"/>
<path d="M333.535 34.9399C336.458 34.9399 338.827 32.5704 338.827 29.6474C338.827 26.7245 336.458 24.355 333.535 24.355C330.612 24.355 328.242 26.7245 328.242 29.6474C328.242 32.5704 330.612 34.9399 333.535 34.9399Z" fill="white"/>
<path d="M127.54 196.18H345.683C347.537 196.177 349.315 195.44 350.627 194.13C351.939 192.82 352.679 191.044 352.686 189.19V44.4097H120.537V189.19C120.547 191.043 121.288 192.817 122.6 194.126C123.911 195.435 125.687 196.174 127.54 196.18Z" fill="#FAFAFA"/>
<path d="M368.24 45.302C368.234 43.45 367.495 41.6758 366.186 40.3662C364.876 39.0566 363.102 38.3181 361.25 38.3115H143.169C141.315 38.3148 139.537 39.0519 138.225 40.3618C136.913 41.6718 136.173 43.4479 136.166 45.302V67.8476H368.24V45.302Z" fill="#F5F5F5"/>
<path d="M311.634 58.3656C314.557 58.3656 316.927 55.9961 316.927 53.0732C316.927 50.1503 314.557 47.7808 311.634 47.7808C308.711 47.7808 306.342 50.1503 306.342 53.0732C306.342 55.9961 308.711 58.3656 311.634 58.3656Z" fill="#E6E6E6"/>
<path d="M330.4 58.3656C333.323 58.3656 335.692 55.9961 335.692 53.0732C335.692 50.1503 333.323 47.7808 330.4 47.7808C327.477 47.7808 325.107 50.1503 325.107 53.0732C325.107 55.9961 327.477 58.3656 330.4 58.3656Z" fill="#E6E6E6"/>
<path d="M354.481 53.0732C354.481 54.1199 354.171 55.1432 353.589 56.0135C353.008 56.8839 352.181 57.5622 351.214 57.9628C350.247 58.3634 349.183 58.4682 348.156 58.264C347.13 58.0597 346.187 57.5557 345.447 56.8155C344.706 56.0754 344.202 55.1323 343.998 54.1057C343.794 53.0791 343.899 52.0149 344.299 51.0479C344.7 50.0808 345.378 49.2542 346.249 48.6727C347.119 48.0912 348.142 47.7808 349.189 47.7808C350.593 47.7808 351.939 48.3384 352.931 49.3309C353.924 50.3234 354.481 51.6696 354.481 53.0732Z" fill="#E6E6E6"/>
<path d="M143.169 219.618H361.312C363.166 219.612 364.942 218.871 366.252 217.559C367.562 216.247 368.299 214.469 368.302 212.615V67.8477H136.166V212.615C136.169 214.472 136.908 216.251 138.221 217.563C139.533 218.876 141.313 219.615 143.169 219.618Z" fill="white"/>
<path d="M383.87 68.7397C383.867 66.8834 383.128 65.1041 381.815 63.7915C380.503 62.4789 378.723 61.7401 376.867 61.7368H158.786C156.93 61.7401 155.151 62.4789 153.838 63.7915C152.525 65.1041 151.786 66.8834 151.783 68.7397V91.2729H383.87V68.7397Z" fill="#FAFAFA"/>
<path d="M327.263 81.8036C330.186 81.8036 332.556 79.4341 332.556 76.5112C332.556 73.5883 330.186 71.2188 327.263 71.2188C324.34 71.2188 321.971 73.5883 321.971 76.5112C321.971 79.4341 324.34 81.8036 327.263 81.8036Z" fill="#F0F0F0"/>
<path d="M346.017 81.8036C348.94 81.8036 351.31 79.4341 351.31 76.5112C351.31 73.5883 348.94 71.2188 346.017 71.2188C343.094 71.2188 340.725 73.5883 340.725 76.5112C340.725 79.4341 343.094 81.8036 346.017 81.8036Z" fill="#F0F0F0"/>
<path d="M370.074 76.5112C370.077 77.5609 369.768 78.5878 369.187 79.4618C368.605 80.3358 367.777 81.0176 366.808 81.4211C365.839 81.8245 364.772 81.9313 363.742 81.728C362.713 81.5247 361.766 81.0205 361.023 80.2791C360.28 79.5377 359.773 78.5925 359.568 77.5631C359.362 76.5337 359.466 75.4664 359.867 74.4964C360.269 73.5263 360.949 72.6971 361.821 72.1136C362.694 71.5302 363.72 71.2188 364.77 71.2188C366.174 71.2187 367.522 71.7759 368.516 72.7681C369.511 73.7603 370.071 75.1064 370.074 76.5112Z" fill="#F0F0F0"/>
<path d="M158.786 243.056H376.929C378.784 243.049 380.562 242.309 381.874 240.998C383.186 239.686 383.925 237.908 383.932 236.053V91.2729H151.783V236.053C151.79 237.908 152.53 239.686 153.842 240.998C155.153 242.309 156.931 243.049 158.786 243.056Z" fill="#E6E6E6"/>
<path opacity="0.5" d="M442.483 152.948H362.551V272.307H481.922V152.948H442.483ZM403.006 153.877H441.541V192.424H402.969L403.006 153.877ZM441.541 231.901H402.969V193.354H441.504L441.541 231.901ZM363.53 153.877H402.064V192.424H363.493L363.53 153.877ZM363.53 193.354H402.064V231.901H363.493L363.53 193.354ZM402.027 271.439H363.493V232.892H402.027V271.439ZM441.504 271.439H402.969V232.892H441.504V271.439ZM480.98 271.439H442.483V232.892H481.017L480.98 271.439ZM480.98 231.963H442.483V193.354H481.017L480.98 231.963ZM442.483 192.424V153.877H481.017V192.424H442.483Z" fill="#E6E6E6"/>
<path d="M410.232 134.567L549.559 134.567V71.2063L410.232 71.2063V134.567Z" fill="#F5F5F5"/>
<path d="M549.559 95.9086V134.579H410.258V86.5508C433.374 86.5508 445.706 107.745 474.3 107.745C502.894 107.745 511.508 95.9086 549.559 95.9086Z" fill="white"/>
<path d="M549.559 114.389C518.25 114.389 507.913 100.544 490.326 100.544C472.738 100.544 464.099 115.083 442.185 115.083C419.355 115.083 410.232 103.655 410.232 103.655V134.641H549.559V114.389Z" fill="#E6E6E6"/>
<path d="M309.862 461.769C442.585 461.769 550.178 455.487 550.178 447.739C550.178 439.99 442.585 433.708 309.862 433.708C177.138 433.708 69.5449 439.99 69.5449 447.739C69.5449 455.487 177.138 461.769 309.862 461.769Z" fill="#F5F5F5"/>
<path d="M250.369 193.998C245.178 175.425 247.243 155.573 256.146 138.466C265.048 121.359 280.121 108.277 298.311 101.87L302.983 116.669C288.737 121.854 276.955 132.196 269.967 145.649C262.978 159.103 261.292 174.689 265.242 189.326L250.369 193.998Z" fill="#407BFF"/>
<path d="M288.284 240.75C282.442 237.734 277.024 233.958 272.171 229.521C262.965 221.081 255.979 210.502 251.832 198.721L266.631 194.048C270.09 203.633 275.917 212.188 283.569 218.917C291.221 225.646 300.451 230.331 310.4 232.536C320.348 234.742 330.693 234.395 340.472 231.53C350.251 228.665 359.147 223.373 366.332 216.147L377.772 226.633C366.33 238.252 351.462 245.893 335.354 248.434C319.246 250.975 302.748 248.282 288.284 240.75Z" fill="#407BFF"/>
<path opacity="0.7" d="M288.284 240.75C282.442 237.734 277.024 233.958 272.171 229.521C262.965 221.081 255.979 210.502 251.832 198.721L266.631 194.048C270.09 203.633 275.917 212.188 283.569 218.917C291.221 225.646 300.451 230.331 310.4 232.536C320.348 234.742 330.693 234.395 340.472 231.53C350.251 228.665 359.147 223.373 366.332 216.147L377.772 226.633C366.33 238.252 351.462 245.893 335.354 248.434C319.246 250.975 302.748 248.282 288.284 240.75Z" fill="white"/>
<path d="M369.741 212.491C378.045 202.647 382.988 190.408 383.848 177.558C384.709 164.708 381.442 151.919 374.523 141.057C367.605 130.194 357.398 121.825 345.39 117.17C333.382 112.516 320.2 111.819 307.768 115.182L303.096 100.308C322.088 94.9893 342.405 97.2629 359.752 106.649C377.098 116.035 390.116 131.797 396.054 150.605C399.915 162.925 400.582 176.023 397.994 188.671C395.405 201.319 389.646 213.102 381.255 222.915L369.741 212.491Z" fill="#407BFF"/>
<path opacity="0.3" d="M369.741 212.491C378.045 202.647 382.988 190.408 383.848 177.558C384.709 164.708 381.442 151.919 374.523 141.057C367.605 130.194 357.398 121.825 345.39 117.17C333.382 112.516 320.2 111.819 307.768 115.182L303.096 100.308C322.088 94.9893 342.405 97.2629 359.752 106.649C377.098 116.035 390.116 131.797 396.054 150.605C399.915 162.925 400.582 176.023 397.994 188.671C395.405 201.319 389.646 213.102 381.255 222.915L369.741 212.491Z" fill="black"/>
<path d="M337.688 155.179C335.937 153.427 333.857 152.037 331.569 151.088C329.28 150.139 326.827 149.651 324.35 149.65C321.872 149.65 319.419 150.137 317.13 151.085C314.841 152.032 312.761 153.421 311.009 155.173C309.257 156.924 307.867 159.003 306.918 161.292C305.97 163.581 305.481 166.034 305.48 168.511C305.48 170.988 305.967 173.442 306.915 175.731C307.862 178.02 309.251 180.1 311.003 181.852L324.339 195.188L337.688 181.852C341.224 178.314 343.211 173.517 343.211 168.515C343.211 163.514 341.224 158.716 337.688 155.179Z" fill="#407BFF"/>
<path opacity="0.3" d="M337.688 155.179C335.937 153.427 333.857 152.037 331.569 151.088C329.28 150.139 326.827 149.651 324.35 149.65C321.872 149.65 319.419 150.137 317.13 151.085C314.841 152.032 312.761 153.421 311.009 155.173C309.257 156.924 307.867 159.003 306.918 161.292C305.97 163.581 305.481 166.034 305.48 168.511C305.48 170.988 305.967 173.442 306.915 175.731C307.862 178.02 309.251 180.1 311.003 181.852L324.339 195.188L337.688 181.852C341.224 178.314 343.211 173.517 343.211 168.515C343.211 163.514 341.224 158.716 337.688 155.179Z" fill="black"/>
<path d="M325.097 199.142H323.609V205.091H325.097V199.142Z" fill="#407BFF"/>
<path opacity="0.3" d="M325.097 199.142H323.609V205.091H325.097V199.142Z" fill="black"/>
<path d="M325.097 209.69H323.609V215.639H325.097V209.69Z" fill="#407BFF"/>
<path opacity="0.3" d="M325.097 209.69H323.609V215.639H325.097V209.69Z" fill="black"/>
<path d="M272.866 257.83H222.383V440.624H272.866V257.83Z" fill="#407BFF"/>
<path opacity="0.7" d="M272.866 257.83H222.383V440.624H272.866V257.83Z" fill="white"/>
<path d="M297.096 257.83H272.865V440.624H297.096V257.83Z" fill="#407BFF"/>
<path opacity="0.5" d="M297.096 257.83H272.865V440.624H297.096V257.83Z" fill="white"/>
<path d="M366.209 325.107H364.92V353.565H366.209V325.107Z" fill="#263238"/>
<path d="M366.209 308.375H364.92V319.815H366.209V308.375Z" fill="#263238"/>
<path d="M402.065 371.215H351.582V440.624H402.065V371.215Z" fill="#407BFF"/>
<path opacity="0.5" d="M402.065 371.215H351.582V440.624H402.065V371.215Z" fill="black"/>
<path d="M426.298 371.215H402.066V440.624H426.298V371.215Z" fill="#407BFF"/>
<path opacity="0.6" d="M426.298 371.215H402.066V440.624H426.298V371.215Z" fill="black"/>
<path d="M337.465 219.184H286.982V440.624H337.465V219.184Z" fill="#407BFF"/>
<path opacity="0.7" d="M337.465 219.184H286.982V440.624H337.465V219.184Z" fill="black"/>
<path d="M361.696 219.184H337.465V440.624H361.696V219.184Z" fill="#407BFF"/>
<path opacity="0.8" d="M361.696 219.184H337.465V440.624H361.696V219.184Z" fill="black"/>
<path d="M436.572 168.106C434.836 181.815 432.655 195.56 430.709 209.157C430.467 211.143 430.107 213.113 429.631 215.057C429.073 217.047 428.361 218.991 427.499 220.87C425.855 224.404 423.8 227.732 421.376 230.785C419.067 233.719 416.522 236.459 413.766 238.978C412.427 240.217 411.002 241.457 409.564 242.535C408.126 243.613 406.701 244.729 405.052 245.807L400.652 240.317C401.681 239.176 402.846 237.838 403.9 236.598C404.953 235.359 405.994 234.02 407.011 232.706C408.998 230.138 410.815 227.442 412.452 224.638C414.029 222.007 415.329 219.22 416.331 216.321C416.792 214.98 417.145 213.604 417.385 212.206C417.602 210.739 417.743 209.262 417.806 207.781C418.265 200.741 418.959 193.775 419.727 186.822C420.496 179.869 421.413 173.002 422.504 166.086L436.572 168.106Z" fill="#E58A7B"/>
<path d="M439.658 163.396C442.819 171.787 426.817 196.49 426.817 196.49L408.064 186.314C410.886 178.626 414.53 171.267 418.934 164.363C425.528 154.472 436.2 154.187 439.658 163.396Z" fill="#407BFF"/>
<path opacity="0.2" d="M439.658 163.396C442.819 171.787 426.817 196.49 426.817 196.49L408.064 186.314C410.886 178.626 414.53 171.267 418.934 164.363C425.528 154.472 436.2 154.187 439.658 163.396Z" fill="black"/>
<path d="M428.528 156.976C428.528 156.976 417.46 185.297 427.97 238.023H478.131C478.478 230.326 473.632 192.771 481.056 156.505C475.514 155.43 469.908 154.718 464.274 154.373C457.174 153.964 450.056 153.964 442.955 154.373C438.086 154.864 433.262 155.734 428.528 156.976Z" fill="#407BFF"/>
<path opacity="0.2" d="M428.528 156.976C428.528 156.976 417.46 185.297 427.97 238.023H478.131C478.478 230.326 473.632 192.771 481.056 156.505C475.514 155.43 469.908 154.718 464.274 154.373C457.174 153.964 450.056 153.964 442.955 154.373C438.086 154.864 433.262 155.734 428.528 156.976Z" fill="black"/>
<path d="M435.184 436.187H425.814L423.311 414.472H432.693L435.184 436.187Z" fill="#E58A7B"/>
<path d="M501.171 436.187H491.801L484.488 414.472H493.871L501.171 436.187Z" fill="#E58A7B"/>
<path d="M490.551 435.046H501.978C502.165 435.045 502.346 435.109 502.49 435.227C502.635 435.344 502.734 435.508 502.772 435.691L504.631 444.032C504.671 444.235 504.666 444.444 504.616 444.645C504.565 444.845 504.471 445.032 504.339 445.191C504.207 445.35 504.041 445.478 503.854 445.564C503.666 445.651 503.462 445.695 503.255 445.693C499.537 445.631 496.897 445.421 492.261 445.421C489.41 445.421 483.585 445.718 479.606 445.718C475.628 445.718 475.157 441.826 476.768 441.467C483.994 439.893 486.684 437.748 489.026 435.629C489.444 435.252 489.988 435.045 490.551 435.046Z" fill="#263238"/>
<path d="M425.875 435.046H436.113C436.301 435.047 436.482 435.111 436.628 435.228C436.775 435.345 436.877 435.508 436.919 435.691L438.766 444.032C438.811 444.233 438.81 444.442 438.762 444.643C438.715 444.843 438.623 445.031 438.493 445.19C438.363 445.35 438.198 445.478 438.012 445.566C437.825 445.653 437.621 445.696 437.415 445.693C433.696 445.631 428.379 445.421 423.781 445.421C418.352 445.421 413.667 445.718 407.296 445.718C403.441 445.718 402.338 441.826 403.987 441.467C411.324 439.868 417.311 439.694 423.657 435.778C424.316 435.336 425.083 435.083 425.875 435.046Z" fill="#263238"/>
<path d="M404.061 236.734L396.203 243.303L406.528 249.364C408.05 248.189 409.156 246.558 409.684 244.709C410.213 242.861 410.136 240.891 409.465 239.089L404.061 236.734Z" fill="#E58A7B"/>
<path d="M423.322 414.484L424.599 425.676H433.982L432.692 414.484H423.322Z" fill="#CF6F64"/>
<path d="M493.871 414.484H484.488L488.256 425.676H497.639L493.871 414.484Z" fill="#CF6F64"/>
<path opacity="0.2" d="M470.842 173.833C472.478 165.553 475.664 166.991 478.688 171.069C477.396 182.043 476.8 193.088 476.903 204.137C474.846 200.63 468.103 187.702 470.842 173.833Z" fill="black"/>
<path d="M462.155 130.377C460.816 137.232 459.478 149.8 464.274 154.373C464.274 154.373 462.403 161.339 449.649 161.339C435.631 161.339 442.956 154.386 442.956 154.386C450.603 152.551 450.393 146.874 449.066 141.545L462.155 130.377Z" fill="#E58A7B"/>
<path d="M456.825 134.938L449.078 141.545C449.409 142.783 449.629 144.048 449.735 145.325C452.66 144.904 456.676 141.693 456.986 138.632C457.154 137.401 457.099 136.15 456.825 134.938Z" fill="#CF6F64"/>
<path d="M440.353 109.27C435.742 111.228 433.238 124.143 439.113 127.13C444.988 130.117 449.091 105.576 440.353 109.27Z" fill="#263238"/>
<path d="M462.973 120.053C462.403 129.337 462.539 134.803 457.854 139.574C450.801 146.738 439.324 142.487 437.118 133.216C435.122 124.875 436.387 111.08 445.484 107.386C447.485 106.562 449.663 106.264 451.811 106.519C453.96 106.774 456.008 107.575 457.76 108.844C459.512 110.113 460.911 111.809 461.823 113.771C462.736 115.733 463.131 117.895 462.973 120.053Z" fill="#E58A7B"/>
<path d="M434.328 103.444C439.943 94.9293 440.823 99.0318 440.736 103.085C445.694 98.3997 454.853 92.4256 459.328 97.8792C459.858 98.4418 460.202 99.1534 460.315 99.9179C460.428 100.683 460.304 101.463 459.96 102.155C465.723 100.618 471.536 100.185 470.483 106.407C469.553 111.91 465.624 113.93 460.121 113.967C450.255 115.331 426.371 115.467 434.328 103.444Z" fill="#263238"/>
<path d="M462.315 129.15C457.357 131.171 447.38 112.963 462.389 110.819C477.399 108.675 470.26 125.891 462.315 129.15Z" fill="#263238"/>
<path d="M467.174 130.291C465.919 132.266 463.938 133.668 461.658 134.195C458.634 134.865 457.283 132.113 458.275 129.337C459.167 126.858 461.807 123.499 464.782 124.069C465.429 124.207 466.032 124.505 466.535 124.935C467.038 125.365 467.426 125.914 467.663 126.532C467.901 127.15 467.981 127.817 467.895 128.473C467.81 129.13 467.562 129.755 467.174 130.291Z" fill="#E58A7B"/>
<path d="M472.069 113.632C471.38 112.865 470.51 112.281 469.538 111.935C468.566 111.589 467.523 111.49 466.504 111.649C466.504 111.649 471.35 107.832 472.069 113.632Z" fill="#263238"/>
<path d="M427.97 237.974C427.97 237.974 401.583 305.028 402.549 333.635C403.603 363.382 421.141 423.507 421.141 423.507H437.031C437.031 423.507 430.524 365.104 431.23 335.903C431.999 304.049 460.977 237.987 460.977 237.987L427.97 237.974Z" fill="#407BFF"/>
<path opacity="0.2" d="M449.041 260.172L450.565 263.63C445.003 277.961 440.171 292.564 436.088 307.383C435.654 290.477 439.15 271.836 449.041 260.172Z" fill="black"/>
<path d="M445.769 237.974C445.769 237.974 440.427 306.54 446.265 333.412C452.66 362.811 483.845 423.482 483.845 423.482H501.024C501.024 423.482 478.044 365.228 474.388 336.076C470.434 304.483 478.106 237.999 478.106 237.999L445.769 237.974Z" fill="#407BFF"/>
<path d="M448.893 122.705C448.893 123.461 448.484 124.081 447.988 124.081C447.492 124.081 447.096 123.461 447.096 122.705C447.096 121.949 447.492 121.342 447.988 121.342C448.484 121.342 448.893 121.887 448.893 122.705Z" fill="#263238"/>
<path d="M440.34 122.705C440.34 123.461 439.931 124.081 439.448 124.081C438.964 124.081 438.543 123.461 438.543 122.705C438.543 121.949 438.952 121.342 439.448 121.342C439.944 121.342 440.34 121.887 440.34 122.705Z" fill="#263238"/>
<path d="M443.054 123.027C442.152 125.334 440.939 127.507 439.447 129.485C439.962 129.855 440.552 130.108 441.175 130.226C441.798 130.344 442.44 130.324 443.054 130.167V123.027Z" fill="#DF5753"/>
<path d="M445.26 132.261C445.201 132.261 445.144 132.238 445.102 132.196C445.061 132.154 445.037 132.098 445.037 132.038C445.037 131.979 445.061 131.922 445.102 131.881C445.144 131.839 445.201 131.815 445.26 131.815C446.201 131.836 447.134 131.635 447.982 131.228C448.83 130.821 449.571 130.219 450.144 129.473C450.16 129.448 450.181 129.427 450.205 129.411C450.23 129.395 450.257 129.383 450.286 129.377C450.314 129.372 450.344 129.372 450.373 129.377C450.402 129.383 450.429 129.394 450.453 129.411C450.499 129.443 450.531 129.492 450.543 129.547C450.554 129.602 450.545 129.66 450.515 129.708C449.911 130.527 449.117 131.187 448.202 131.631C447.287 132.076 446.277 132.292 445.26 132.261Z" fill="#263238"/>
<path d="M451.459 119.892C451.392 119.89 451.326 119.873 451.266 119.843C451.206 119.813 451.153 119.771 451.112 119.718C450.788 119.262 450.361 118.89 449.865 118.631C449.37 118.373 448.82 118.236 448.261 118.231C448.202 118.236 448.142 118.229 448.086 118.21C448.03 118.191 447.978 118.161 447.934 118.122C447.89 118.082 447.855 118.034 447.83 117.981C447.805 117.927 447.791 117.869 447.79 117.809C447.783 117.693 447.822 117.579 447.898 117.491C447.975 117.403 448.083 117.348 448.199 117.338C448.904 117.334 449.601 117.499 450.23 117.818C450.86 118.137 451.404 118.601 451.818 119.173C451.888 119.269 451.919 119.388 451.903 119.506C451.886 119.624 451.825 119.731 451.731 119.805C451.65 119.858 451.556 119.888 451.459 119.892Z" fill="#263238"/>
<path d="M436.597 119.706C436.532 119.718 436.465 119.718 436.399 119.706C436.346 119.681 436.299 119.645 436.26 119.601C436.221 119.558 436.191 119.506 436.173 119.451C436.154 119.395 436.147 119.336 436.152 119.278C436.157 119.219 436.173 119.163 436.201 119.111C436.494 118.472 436.936 117.914 437.49 117.482C438.045 117.051 438.695 116.759 439.386 116.632C439.496 116.63 439.603 116.669 439.686 116.741C439.769 116.813 439.822 116.913 439.836 117.022C439.85 117.131 439.823 117.241 439.761 117.332C439.698 117.422 439.604 117.486 439.498 117.512C438.956 117.63 438.45 117.873 438.019 118.221C437.589 118.57 437.246 119.015 437.019 119.52C436.973 119.587 436.909 119.64 436.835 119.673C436.76 119.706 436.678 119.717 436.597 119.706Z" fill="#263238"/>
<path d="M484.625 163.793C485.431 165.528 486.112 167.078 486.757 168.751C487.401 170.424 487.996 172.011 488.653 173.709C489.893 177.005 490.921 180.352 491.863 183.76C492.805 187.169 493.586 190.652 494.231 194.197L494.677 196.861L494.999 199.588C495.123 200.493 495.173 201.423 495.247 202.352L495.334 203.74V204.087V204.67C495.334 205.104 495.334 205.5 495.334 205.909C495.088 208.35 494.382 210.723 493.251 212.9C492.371 214.651 491.373 216.34 490.264 217.957C488.211 220.913 485.963 223.729 483.534 226.385C478.862 231.53 473.794 236.3 468.376 240.651L463.418 235.693C467.471 230.512 471.512 225.158 475.193 219.841C476.985 217.252 478.64 214.571 480.151 211.809C480.842 210.569 481.443 209.281 481.948 207.955C482.316 207.107 482.526 206.2 482.567 205.277C482.567 205.277 482.567 205.352 482.567 205.277V204.992L482.394 203.877C482.282 203.121 482.183 202.377 482.01 201.621L481.563 199.353L481.031 197.072C480.274 194.023 479.419 190.962 478.428 187.913C477.436 184.864 476.383 181.827 475.255 178.79C474.127 175.754 472.887 172.692 471.735 169.891L484.625 163.793Z" fill="#E58A7B"/>
<path d="M487.439 436.744C486.803 436.793 486.169 436.622 485.642 436.261C485.465 436.112 485.33 435.919 485.249 435.702C485.169 435.484 485.146 435.25 485.184 435.022C485.183 434.894 485.217 434.769 485.282 434.659C485.348 434.55 485.442 434.461 485.555 434.402C486.609 433.869 489.621 435.728 489.968 435.939C490.004 435.962 490.033 435.996 490.051 436.035C490.068 436.075 490.074 436.119 490.067 436.162C490.059 436.206 490.038 436.247 490.007 436.28C489.977 436.313 489.937 436.337 489.893 436.348C489.092 436.568 488.269 436.701 487.439 436.744ZM486.051 434.798C485.952 434.791 485.853 434.812 485.766 434.86C485.704 434.86 485.63 434.947 485.617 435.121C485.602 435.27 485.622 435.421 485.676 435.561C485.73 435.7 485.816 435.826 485.927 435.926C486.974 436.397 488.161 436.455 489.249 436.087C488.276 435.456 487.19 435.018 486.051 434.798Z" fill="#407BFF"/>
<path d="M489.844 436.41H489.745C488.766 435.877 486.894 433.832 487.093 432.778C487.127 432.615 487.215 432.469 487.343 432.363C487.472 432.257 487.633 432.198 487.799 432.196C487.967 432.176 488.138 432.192 488.3 432.241C488.462 432.29 488.612 432.371 488.741 432.481C489.832 433.373 490.055 436.075 490.067 436.199C490.068 436.238 490.06 436.276 490.043 436.311C490.025 436.345 490 436.375 489.968 436.397C489.929 436.414 489.886 436.418 489.844 436.41ZM487.96 432.567H487.849C487.564 432.567 487.539 432.729 487.527 432.791C487.415 433.41 488.605 434.96 489.572 435.691C489.504 434.624 489.12 433.601 488.469 432.753C488.327 432.633 488.146 432.567 487.96 432.567Z" fill="#407BFF"/>
<path d="M421.971 436.744C421.171 436.816 420.37 436.61 419.703 436.162C419.55 436.03 419.432 435.863 419.358 435.675C419.285 435.487 419.259 435.284 419.281 435.083C419.288 434.963 419.325 434.845 419.387 434.741C419.45 434.638 419.537 434.551 419.641 434.489C420.794 433.856 424.599 435.728 424.983 435.988C425.026 436.009 425.061 436.043 425.083 436.085C425.105 436.127 425.114 436.175 425.107 436.222C425.1 436.269 425.078 436.312 425.045 436.346C425.011 436.38 424.968 436.402 424.921 436.41C423.949 436.609 422.962 436.721 421.971 436.744ZM420.273 434.798C420.131 434.789 419.99 434.819 419.864 434.885C419.82 434.905 419.783 434.939 419.758 434.981C419.734 435.023 419.723 435.072 419.728 435.121C419.709 435.251 419.723 435.383 419.769 435.507C419.814 435.63 419.889 435.74 419.988 435.827C420.57 436.348 422.12 436.434 424.177 436.087C422.959 435.438 421.638 435.002 420.273 434.798Z" fill="#407BFF"/>
<path d="M424.885 436.41C424.852 436.421 424.817 436.421 424.785 436.41C423.658 435.901 421.414 433.931 421.588 432.815C421.588 432.567 421.798 432.257 422.418 432.195C422.64 432.173 422.864 432.195 423.077 432.261C423.29 432.327 423.487 432.436 423.657 432.58C424.897 433.559 425.108 436.087 425.108 436.186C425.113 436.226 425.108 436.267 425.093 436.304C425.078 436.341 425.053 436.373 425.021 436.397C424.978 436.415 424.93 436.419 424.885 436.41ZM422.654 432.567H422.517C422.121 432.567 422.096 432.766 422.083 432.815C421.984 433.447 423.509 435.046 424.661 435.74C424.556 434.673 424.123 433.664 423.422 432.852C423.209 432.666 422.936 432.565 422.654 432.567Z" fill="#407BFF"/>
<path d="M465.587 234.318L456.391 236.797L464.013 246.043C464.013 246.043 471.388 242.213 469.801 238.086L465.587 234.318Z" fill="#E58A7B"/>
<path d="M451.631 242.981L458.287 250.319L464.013 246.006L456.39 236.759L451.631 242.981Z" fill="#E58A7B"/>
<path d="M480.808 423.879H503.267V417.831L478.168 417.446L480.808 423.879Z" fill="#407BFF"/>
<path opacity="0.4" d="M480.808 423.879H503.267V417.831L478.168 417.446L480.808 423.879Z" fill="black"/>
<path d="M417.535 423.879H439.993V417.769L414.895 417.446L417.535 423.879Z" fill="#407BFF"/>
<path opacity="0.4" d="M417.535 423.879H439.993V417.769L414.895 417.446L417.535 423.879Z" fill="black"/>
<path d="M483.015 157.112C491.381 160.335 499.747 190.007 499.747 190.007L477.437 198.783C477.437 198.783 470.781 183.438 468.513 172.035C466.183 160.075 473.533 153.468 483.015 157.112Z" fill="#407BFF"/>
<path opacity="0.2" d="M483.015 157.112C491.381 160.335 499.747 190.007 499.747 190.007L477.437 198.783C477.437 198.783 470.781 183.438 468.513 172.035C466.183 160.075 473.533 153.468 483.015 157.112Z" fill="black"/>
<path d="M392.572 204.199C390.196 212.484 390.434 221.301 393.254 229.446C395.833 237.027 400.541 243.705 406.813 248.683C415.169 255.298 425.726 258.493 436.347 257.622C446.969 256.751 456.864 251.878 464.03 243.989C471.196 236.1 475.098 225.785 474.948 215.128C474.798 204.472 470.606 194.27 463.221 186.586C458.147 181.303 451.768 177.455 444.728 175.431C438.218 173.548 431.351 173.26 424.706 174.591C418.062 175.923 411.835 178.834 406.553 183.079C405.591 183.854 404.673 184.682 403.802 185.558C398.482 190.674 394.608 197.105 392.572 204.199Z" fill="#407BFF"/>
<path opacity="0.6" d="M392.572 204.199C390.196 212.484 390.434 221.301 393.254 229.446C395.833 237.027 400.541 243.705 406.813 248.683C415.169 255.298 425.726 258.493 436.347 257.622C446.969 256.751 456.864 251.878 464.03 243.989C471.196 236.1 475.098 225.785 474.948 215.128C474.798 204.472 470.606 194.27 463.221 186.586C458.147 181.303 451.768 177.455 444.728 175.431C438.218 173.548 431.351 173.26 424.706 174.591C418.062 175.923 411.835 178.834 406.553 183.079C405.591 183.854 404.673 184.682 403.802 185.558C398.482 190.674 394.608 197.105 392.572 204.199Z" fill="black"/>
<path d="M457.941 184.938L427.698 214.127L416.109 254.533C425.004 257.087 434.492 256.634 443.102 253.244C451.713 249.855 458.964 243.719 463.732 235.788C468.499 227.857 470.515 218.574 469.468 209.38C468.421 200.186 464.369 191.594 457.941 184.938Z" fill="#407BFF"/>
<path opacity="0.9" d="M457.941 184.938L427.698 214.127L416.109 254.533C425.004 257.087 434.492 256.634 443.102 253.244C451.713 249.855 458.964 243.719 463.732 235.788C468.499 227.857 470.515 218.574 469.468 209.38C468.421 200.186 464.369 191.594 457.941 184.938Z" fill="white"/>
<g opacity="0.7">
<path opacity="0.7" d="M427.697 214.127L457.94 184.925C452.814 179.615 446.38 175.748 439.286 173.713C432.191 171.679 424.686 171.548 417.525 173.334C410.364 175.121 403.8 178.762 398.492 183.89C393.185 189.019 389.322 195.455 387.291 202.55L427.697 214.127Z" fill="#407BFF"/>
<path opacity="0.44" d="M427.697 214.127L457.94 184.925C452.814 179.615 446.38 175.748 439.286 173.713C432.191 171.679 424.686 171.548 417.525 173.334C410.364 175.121 403.8 178.762 398.492 183.89C393.185 189.019 389.322 195.455 387.291 202.55L427.697 214.127Z" fill="white"/>
</g>
<path d="M395.559 248.881L404.669 251.757L406.491 249.402L396.166 243.341L395.559 248.881Z" fill="#E58A7B"/>
<path d="M427.698 214.127L387.304 202.551C384.236 213.265 385.548 224.76 390.952 234.507C396.356 244.255 405.409 251.458 416.121 254.533L427.698 214.127Z" fill="#407BFF"/>
<path opacity="0.6" d="M427.698 214.127L387.304 202.551C384.236 213.265 385.548 224.76 390.952 234.507C396.356 244.255 405.409 251.458 416.121 254.533L427.698 214.127Z" fill="black"/>
<path d="M196.131 157.236C193.962 159.455 191.632 161.909 189.488 164.363C187.344 166.817 185.187 169.321 183.167 171.887C181.146 174.452 179.238 177.092 177.403 179.757L176.065 181.777L174.825 183.822C174.404 184.504 174.007 185.198 173.586 185.892L172.557 187.789C172.139 188.871 171.9 190.014 171.851 191.172C171.751 192.666 171.751 194.165 171.851 195.659C172.082 198.874 172.496 202.073 173.09 205.24C173.648 208.488 174.329 211.747 175.135 214.982C175.941 218.217 176.734 221.514 177.614 224.712L172.842 226.497C169.951 220.183 167.536 213.662 165.616 206.988C164.627 203.56 163.869 200.069 163.348 196.539C163.087 194.654 162.954 192.753 162.951 190.85C162.917 188.607 163.295 186.376 164.067 184.269C164.364 183.55 164.525 183.252 164.724 182.831L165.306 181.591C165.691 180.773 166.1 179.968 166.546 179.187L167.785 176.82L169.149 174.514C170.971 171.482 172.953 168.549 175.086 165.727C177.193 162.913 179.374 160.161 181.679 157.521C183.985 154.881 186.327 152.353 188.992 149.812L196.131 157.236Z" fill="#E58A7B"/>
<path d="M176.299 222.691L184.777 225.17L179.138 230.897C179.138 230.897 173.027 229.013 172.172 224.848L176.299 222.691Z" fill="#E58A7B"/>
<path d="M189.922 231.74L188.484 237.206L179.139 230.934L184.778 225.22L189.922 231.74Z" fill="#E58A7B"/>
<path d="M114.029 385.406L120.97 392.855L139.81 379.37L132.857 371.921L114.029 385.406Z" fill="#E58A7B"/>
<path d="M206.134 412.699L204.473 425.515L194.545 423.854L196.082 411.955L206.134 412.699Z" fill="#CF6F64"/>
<path d="M132.857 371.921L139.797 379.382L132.001 384.96L124.812 377.672L132.857 371.921Z" fill="#CF6F64"/>
<path d="M223.522 208.686C223.522 208.686 203.889 274.438 194.296 312.341C184.182 352.288 135.881 384.861 135.881 384.861L125.568 374.611C125.568 374.611 157.856 347.343 167.71 310.073C187.615 234.38 178.047 218.353 193.912 202.959L223.522 208.686Z" fill="#407BFF"/>
<path opacity="0.6" d="M223.522 208.686C223.522 208.686 203.889 274.438 194.296 312.341C184.182 352.288 135.881 384.861 135.881 384.861L125.568 374.611C125.568 374.611 157.856 347.343 167.71 310.073C187.615 234.38 178.047 218.353 193.912 202.959L223.522 208.686Z" fill="black"/>
<path d="M124.008 391.665L118.219 381.75C118.124 381.578 117.97 381.446 117.785 381.38C117.6 381.314 117.398 381.318 117.215 381.39L108.961 384.712C108.756 384.809 108.573 384.948 108.426 385.12C108.278 385.292 108.168 385.494 108.102 385.711C108.037 385.928 108.018 386.156 108.046 386.381C108.074 386.607 108.149 386.823 108.267 387.017C110.349 390.426 111.514 391.975 114.067 396.326C115.641 399.003 117.662 403.068 119.818 406.762C121.975 410.455 125.656 408.571 125.073 406.849C122.471 399.102 123.834 396.859 124.342 393.413C124.434 392.809 124.316 392.192 124.008 391.665Z" fill="#263238"/>
<path d="M136.762 386.324L123.896 373.52L127.392 369.641L143.058 382.977L136.762 386.324Z" fill="#F5F5F5"/>
<path opacity="0.3" d="M214.301 222.691C201.423 232.607 200.555 270.485 200.853 287.589C207.409 263.68 215.156 237.069 219.68 221.687C218.44 220.621 216.668 220.857 214.301 222.691Z" fill="black"/>
<path d="M126.09 397.069C125.967 397.067 125.846 397.046 125.73 397.007C124.491 396.636 123.635 394.392 123.251 393.091C123.237 393.045 123.237 392.996 123.25 392.95C123.263 392.903 123.289 392.862 123.326 392.83C123.364 392.803 123.409 392.789 123.456 392.789C123.502 392.789 123.548 392.803 123.586 392.83C123.958 393.016 127.217 394.714 127.304 396.003C127.318 396.143 127.295 396.283 127.238 396.411C127.182 396.539 127.094 396.651 126.982 396.735C126.731 396.944 126.416 397.062 126.09 397.069ZM123.871 393.512C124.478 395.235 125.21 396.351 125.866 396.561C126.012 396.598 126.165 396.597 126.311 396.558C126.456 396.519 126.589 396.443 126.697 396.338C126.75 396.307 126.792 396.261 126.818 396.206C126.845 396.151 126.854 396.089 126.846 396.028C126.771 395.384 125.185 394.231 123.871 393.512Z" fill="#407BFF"/>
<path d="M126.425 393.934C125.352 393.931 124.294 393.689 123.326 393.227C123.293 393.203 123.266 393.172 123.247 393.135C123.228 393.098 123.219 393.058 123.219 393.017C123.219 392.976 123.228 392.935 123.247 392.898C123.266 392.862 123.293 392.83 123.326 392.806C123.438 392.806 125.879 391.331 127.268 391.79C127.447 391.841 127.613 391.932 127.753 392.057C127.892 392.181 128.002 392.336 128.073 392.508C128.169 392.674 128.205 392.868 128.175 393.057C128.146 393.247 128.053 393.42 127.912 393.55C127.474 393.843 126.95 393.979 126.425 393.934ZM123.946 393.004C125.086 393.463 127.057 393.649 127.578 393.19C127.664 393.116 127.739 392.992 127.578 392.707C127.531 392.595 127.46 392.494 127.37 392.413C127.28 392.331 127.173 392.271 127.057 392.236C125.966 392.174 124.882 392.442 123.946 393.004Z" fill="#407BFF"/>
<path d="M193.107 435.021L203.159 435.765L206.134 412.687L196.094 411.943L193.107 435.021Z" fill="#E58A7B"/>
<path d="M233.562 210.706C233.562 210.706 236.041 290.266 230.451 320.236C224.601 351.408 206.79 422.305 206.79 422.305L192.301 420.433C192.301 420.433 201.473 348.805 205.352 317.844C209.603 284.081 204.038 204.992 204.038 204.992L233.562 210.706Z" fill="#407BFF"/>
<path opacity="0.6" d="M233.562 210.706C233.562 210.706 236.041 290.266 230.451 320.236C224.601 351.408 206.79 422.305 206.79 422.305L192.301 420.433C192.301 420.433 201.473 348.805 205.352 317.844C209.603 284.081 204.038 204.992 204.038 204.992L233.562 210.706Z" fill="black"/>
<path d="M244.717 116.062C244.581 116.867 244.903 117.586 245.423 117.698C245.944 117.809 246.477 117.227 246.663 116.458C246.849 115.69 246.477 114.934 245.956 114.835C245.436 114.735 244.853 115.268 244.717 116.062Z" fill="#263238"/>
<path d="M245.66 114.81L247.68 114.624C247.68 114.624 246.441 115.938 245.66 114.81Z" fill="#263238"/>
<path d="M245.264 116.967C245.679 118.929 246.359 120.826 247.284 122.606C246.821 122.818 246.318 122.928 245.809 122.928C245.3 122.928 244.797 122.818 244.334 122.606L245.264 116.967Z" fill="#DF5753"/>
<path d="M246.651 112.79C246.558 112.79 246.468 112.763 246.391 112.712C246.314 112.662 246.253 112.589 246.217 112.505C245.983 111.942 245.623 111.441 245.166 111.04C244.708 110.638 244.165 110.346 243.577 110.187C243.516 110.176 243.457 110.154 243.405 110.121C243.353 110.088 243.307 110.045 243.271 109.994C243.236 109.943 243.21 109.886 243.197 109.826C243.183 109.765 243.182 109.703 243.193 109.641C243.217 109.517 243.289 109.407 243.393 109.335C243.497 109.263 243.626 109.235 243.75 109.257C244.492 109.44 245.179 109.794 245.759 110.291C246.338 110.789 246.792 111.415 247.084 112.12C247.135 112.236 247.139 112.366 247.095 112.484C247.051 112.602 246.963 112.699 246.849 112.752L246.651 112.79Z" fill="#263238"/>
<path d="M219.283 122.705C219.469 128.778 218.849 139.735 214.09 142.846C214.09 142.846 214.71 149.043 225.654 151.212C237.689 153.543 232.397 146.391 232.397 146.391C226.075 143.553 227.054 138.744 228.951 134.418L219.283 122.705Z" fill="#E58A7B"/>
<path d="M250.27 155.204C252.749 157.088 255.476 159.083 258.165 160.905C260.855 162.727 263.606 164.623 266.408 166.272C269.209 167.92 272.047 169.544 274.898 171.069C277.738 172.537 280.655 173.852 283.636 175.01C283.896 175.109 283.809 175.01 283.871 175.097H284.033C284.193 175.12 284.356 175.12 284.516 175.097C285.012 175.099 285.506 175.049 285.991 174.948C287.307 174.627 288.583 174.161 289.796 173.56C292.603 172.135 295.286 170.477 297.815 168.602C300.468 166.73 303.058 164.685 305.599 162.554C308.14 160.422 310.668 158.203 313.098 155.997L316.816 159.405C312.566 164.944 307.82 170.085 302.637 174.762C299.919 177.192 296.976 179.358 293.849 181.232C292.089 182.265 290.218 183.097 288.272 183.711C287.123 184.055 285.937 184.254 284.739 184.306C284.052 184.344 283.363 184.315 282.682 184.219C282.314 184.176 281.95 184.11 281.591 184.021C281.269 183.934 280.76 183.798 280.624 183.736C273.873 181.508 267.375 178.575 261.239 174.985C258.215 173.225 255.228 171.403 252.328 169.445C249.427 167.487 246.651 165.491 243.812 163.173L250.27 155.204Z" fill="#E58A7B"/>
<path d="M312.342 156.939L315.292 149.341L321.489 155.538C321.489 155.538 318.551 161.19 314.337 161.202L312.342 156.939Z" fill="#E58A7B"/>
<path d="M321.402 147.147L327.289 148.994L321.538 155.526L315.316 149.341L321.402 147.147Z" fill="#E58A7B"/>
<path d="M203.779 434.328H192.488C192.29 434.325 192.099 434.394 191.949 434.522C191.799 434.649 191.699 434.827 191.67 435.022L190.145 443.958C190.115 444.182 190.133 444.409 190.199 444.625C190.264 444.841 190.375 445.041 190.524 445.21C190.674 445.379 190.858 445.514 191.064 445.606C191.27 445.698 191.493 445.745 191.719 445.743C195.661 445.681 197.557 445.445 202.527 445.445C205.576 445.445 211.897 445.768 216.161 445.768C220.425 445.768 220.71 441.591 218.962 441.206C211.129 439.521 208.092 437.178 205.489 434.947C205.015 434.538 204.406 434.317 203.779 434.328Z" fill="#263238"/>
<path d="M218.293 108.699C217.289 118.615 216.644 122.742 220.772 128.729C226.969 137.715 239.363 137.157 243.367 127.849C246.924 119.483 247.99 104.708 239.004 98.9574C237.093 97.6597 234.877 96.8821 232.575 96.7011C230.272 96.52 227.962 96.9419 225.872 97.925C223.781 98.9082 221.983 100.419 220.655 102.308C219.326 104.197 218.512 106.4 218.293 108.699Z" fill="#E58A7B"/>
<path d="M219.383 130.266C214.673 128.345 210.273 120.759 210.446 108.898C210.62 97.0361 219.457 90.1571 235.235 95.1521C251.014 100.147 234.777 136.562 219.383 130.266Z" fill="#263238"/>
<path d="M232.744 96.2431C237.392 94.4211 247.68 96.6769 247.68 106.357L237.677 114.475L232.744 96.2431Z" fill="#263238"/>
<path d="M231.443 96.1561C237.641 95.7967 240.045 95.8215 245.66 97.3956C241.966 92.9584 235.05 94.4209 231.443 96.1561Z" fill="#263238"/>
<path d="M236.811 113.856C236.619 115.697 236.995 117.552 237.889 119.173C239.128 121.454 241 121.144 241.694 119.297C242.326 117.636 242.438 114.451 240.703 112.74C238.967 111.03 237.108 111.811 236.811 113.856Z" fill="#E58A7B"/>
<path d="M211.427 100.135C215.021 102.341 227.242 100.519 229.882 95.8215C232.522 91.124 223.4 83.2659 215.133 83.551C206.866 83.8361 203.42 95.2018 211.427 100.135Z" fill="#407BFF"/>
<path d="M209.876 423.172L189.215 420.507L189.475 415.599L211.946 416.578L209.876 423.172Z" fill="#F5F5F5"/>
<path d="M207.522 436.087C206.46 436.068 205.402 435.948 204.362 435.728C204.313 435.72 204.269 435.696 204.235 435.66C204.202 435.625 204.181 435.579 204.176 435.53C204.17 435.481 204.178 435.431 204.2 435.387C204.222 435.343 204.257 435.306 204.3 435.282C204.758 435.046 208.824 432.989 210.039 433.683C210.153 433.745 210.249 433.836 210.316 433.947C210.384 434.058 210.421 434.185 210.423 434.315C210.447 434.53 210.418 434.748 210.338 434.949C210.258 435.15 210.13 435.328 209.964 435.468C209.247 435.952 208.384 436.171 207.522 436.087ZM205.155 435.393C207.374 435.765 209.022 435.666 209.654 435.121C209.761 435.025 209.844 434.906 209.896 434.772C209.947 434.639 209.967 434.495 209.952 434.352C209.952 434.3 209.939 434.248 209.913 434.202C209.886 434.156 209.849 434.118 209.803 434.092C209.146 433.72 206.828 434.6 205.155 435.393Z" fill="#407BFF"/>
<path d="M204.41 435.728C204.361 435.739 204.31 435.739 204.261 435.728C204.229 435.701 204.204 435.667 204.189 435.628C204.174 435.589 204.169 435.546 204.174 435.505C204.174 435.331 204.657 431.216 206.901 431.216H207.099C207.744 431.278 207.93 431.613 207.979 431.873C208.165 433.014 205.723 435.195 204.509 435.74L204.41 435.728ZM206.888 431.662C205.438 431.662 204.868 434.042 204.682 435.071C205.922 434.315 207.595 432.592 207.483 431.923C207.483 431.923 207.483 431.712 207.025 431.662H206.888Z" fill="#407BFF"/>
<path d="M196.689 141.719C189.711 142.041 183.055 153.605 183.055 153.605L192.264 172.42C192.264 172.42 204.745 162.021 204.906 151.795C205.043 145.152 203.543 141.409 196.689 141.719Z" fill="#407BFF"/>
<path opacity="0.8" d="M196.689 141.719C189.711 142.041 183.055 153.605 183.055 153.605L192.264 172.42C192.264 172.42 204.745 162.021 204.906 151.795C205.043 145.152 203.543 141.409 196.689 141.719Z" fill="white"/>
<path d="M193.863 202.935L234.17 210.743C253.208 154.671 248.659 152.861 248.659 152.861C245.698 151.262 242.644 149.842 239.512 148.61L238.954 148.399C236.389 147.469 235.843 147.321 232.385 146.317C226.448 144.916 220.92 143.776 214.079 142.784L212.777 142.598C211.538 142.45 210.298 142.313 209.121 142.202C208.328 142.115 207.522 142.065 206.766 142.004L204.163 141.867C199.751 141.644 196.602 141.718 196.602 141.718C198.908 176.708 197.222 186.76 193.863 202.935Z" fill="#407BFF"/>
<path opacity="0.6" d="M193.863 202.935L234.17 210.743C253.208 154.671 248.659 152.861 248.659 152.861C245.698 151.262 242.644 149.842 239.512 148.61L238.954 148.399C236.389 147.469 235.843 147.321 232.385 146.317C226.448 144.916 220.92 143.776 214.079 142.784L212.777 142.598C211.538 142.45 210.298 142.313 209.121 142.202C208.328 142.115 207.522 142.065 206.766 142.004L204.163 141.867C199.751 141.644 196.602 141.718 196.602 141.718C198.908 176.708 197.222 186.76 193.863 202.935Z" fill="white"/>
<path opacity="0.2" d="M238.83 166.346C240.429 169.494 242.325 173.671 244.866 176.559C245.597 173.907 246.205 171.601 246.725 169.457L238.83 166.346Z" fill="#407BFF"/>
<path d="M206.518 174.762C216.57 166.817 218.69 159.43 217.289 152.973C215.889 146.515 214.277 135.248 215.43 131.481C216.583 127.713 220.599 119.892 219.781 113.211C218.963 106.53 217.054 97.2469 218.888 93.2311C220.723 89.2153 226.548 86.8356 221.826 81.1341C219.533 78.3701 209.815 77.9487 207.275 85.6581C204.734 93.3675 194.298 96.7016 190.195 97.47C186.092 98.2385 178.866 102.849 177.615 110.36C176.363 117.871 171.318 120.834 164.39 124.688C157.461 128.543 147.496 143.652 151.462 157.063C156.817 175.419 191.546 186.636 206.518 174.762Z" fill="#263238"/>
<path d="M236.735 149.465C239.859 146.986 253.307 155.142 257.422 158.55L255.017 176.225C255.017 176.225 235.806 168.267 234.492 162.826C233.079 157.162 234.257 151.361 236.735 149.465Z" fill="#407BFF"/>
<path opacity="0.6" d="M236.735 149.465C239.859 146.986 253.307 155.142 257.422 158.55L255.017 176.225C255.017 176.225 235.806 168.267 234.492 162.826C233.079 157.162 234.257 151.361 236.735 149.465Z" fill="white"/>
<path d="M193.64 200.468L191.235 203.703C191.049 203.951 191.334 204.298 191.793 204.397L234.071 212.578C234.43 212.652 234.765 212.578 234.827 212.305L235.781 208.785C235.843 208.549 235.57 208.277 235.174 208.202L194.346 200.295C194.224 200.258 194.094 200.255 193.97 200.285C193.845 200.316 193.732 200.379 193.64 200.468Z" fill="#407BFF"/>
<path d="M198.374 206.071L197.283 205.86C197.072 205.86 196.924 205.674 196.961 205.538L198.2 200.977C198.2 200.84 198.448 200.766 198.671 200.803L199.762 201.014C199.973 201.014 200.121 201.2 200.084 201.336L198.845 205.897C198.808 206.033 198.597 206.108 198.374 206.071Z" fill="#407BFF"/>
<path d="M225.99 211.474L224.887 211.264C224.676 211.264 224.527 211.078 224.564 210.941L225.804 206.38C225.804 206.256 226.052 206.182 226.275 206.219L227.365 206.43C227.589 206.43 227.737 206.616 227.7 206.752L226.461 211.313C226.411 211.45 226.2 211.524 225.99 211.474Z" fill="#407BFF"/>
<path opacity="0.6" d="M198.374 206.071L197.283 205.86C197.072 205.86 196.924 205.674 196.961 205.538L198.2 200.977C198.2 200.84 198.448 200.766 198.671 200.803L199.762 201.014C199.973 201.014 200.121 201.2 200.084 201.336L198.845 205.897C198.808 206.033 198.597 206.108 198.374 206.071Z" fill="black"/>
<path opacity="0.6" d="M225.99 211.474L224.887 211.264C224.676 211.264 224.527 211.078 224.564 210.941L225.804 206.38C225.804 206.256 226.052 206.182 226.275 206.219L227.365 206.43C227.589 206.43 227.737 206.616 227.7 206.752L226.461 211.313C226.411 211.45 226.2 211.524 225.99 211.474Z" fill="black"/>
</svg>
