<svg width="448" height="417" viewBox="0 0 448 417" fill="none" xmlns="http://www.w3.org/2000/svg">
<path d="M358.244 374.217C393.354 347.665 419.14 310.845 431.952 268.971C444.764 227.098 443.952 182.294 429.63 140.903C415.309 99.5124 388.204 63.6332 352.155 38.3463C316.105 13.0595 272.938 -0.353381 228.766 0.00707547C184.594 0.367532 141.655 14.4831 106.031 40.3548C70.4075 66.2265 43.9034 102.543 30.2725 144.162C16.6415 185.781 16.5746 230.592 30.0811 272.251C43.5876 313.909 69.983 350.303 105.529 376.28L143.764 324.948C119.093 306.919 100.773 281.659 91.399 252.746C82.0248 223.833 82.0713 192.732 91.5319 163.846C100.992 134.961 119.388 109.755 144.112 91.7986C168.837 73.8424 198.639 64.0454 229.296 63.7953C259.954 63.5451 289.914 72.8543 314.935 90.4047C339.955 107.955 358.767 132.857 368.706 161.584C378.646 190.311 379.21 221.408 370.318 250.47C361.426 279.532 343.529 305.087 319.161 323.516L358.244 374.217Z" fill="#FFD3FD"/>
<path d="M334.81 154.522H442.902C445.365 154.522 447.364 156.52 447.364 158.985V189.727C447.364 192.19 445.365 194.189 442.902 194.189H334.81C332.345 194.189 330.348 192.19 330.348 189.727V158.985C330.348 156.52 332.345 154.522 334.81 154.522Z" fill="white"/>
<path d="M367.535 176.339H386.377C387.198 176.339 387.865 177.004 387.865 177.827C387.865 178.648 387.198 179.314 386.377 179.314H367.535C366.714 179.314 366.048 178.648 366.048 177.827C366.048 177.004 366.714 176.339 367.535 176.339Z" fill="#F9D7D4"/>
<path d="M367.535 170.389H420.094C420.915 170.389 421.581 171.054 421.581 171.877C421.581 172.698 420.915 173.364 420.094 173.364H367.535C366.714 173.364 366.048 172.698 366.048 171.877C366.048 171.054 366.714 170.389 367.535 170.389Z" fill="#F9D7D4"/>
<path d="M367.535 164.439H422.077C422.898 164.439 423.565 165.103 423.565 165.926C423.565 166.748 422.898 167.414 422.077 167.414H367.535C366.714 167.414 366.048 166.748 366.048 165.926C366.048 165.103 366.714 164.439 367.535 164.439Z" fill="#F9D7D4"/>
<path d="M343.24 162.456H357.123C358.767 162.456 360.098 163.787 360.098 165.431V183.281C360.098 184.923 358.767 186.256 357.123 186.256H343.24C341.595 186.256 340.265 184.923 340.265 183.281V165.431C340.265 163.787 341.595 162.456 343.24 162.456Z" fill="#F9D7D4"/>
<path d="M350.18 168.408C353.467 168.408 356.13 170.542 356.13 173.178C356.13 175.813 353.467 177.95 350.18 177.95C350.032 177.95 349.883 177.948 349.736 177.94C349.149 178.396 346.771 179.8 346.154 179.312C345.535 178.82 346.361 178.489 346.991 177.196L346.987 177.206C345.329 176.357 344.23 174.871 344.23 173.178C344.23 170.542 346.894 168.408 350.18 168.408Z" fill="#C0392B"/>
<path d="M4.4625 206.632H112.554C115.017 206.632 117.017 208.63 117.017 211.095V241.837C117.017 244.3 115.017 246.299 112.554 246.299H4.4625C1.99722 246.299 0 244.3 0 241.837V211.095C0 208.63 1.99722 206.632 4.4625 206.632Z" fill="white"/>
<path d="M37.1877 228.449H56.0294C56.8505 228.449 57.5169 229.116 57.5169 229.937C57.5169 230.758 56.8505 231.424 56.0294 231.424H37.1877C36.3666 231.424 35.7002 230.758 35.7002 229.937C35.7002 229.116 36.3666 228.449 37.1877 228.449Z" fill="#F9D7D4"/>
<path d="M37.1877 222.499H65.946C66.7671 222.499 67.4335 223.163 67.4335 223.987C67.4335 224.808 66.7671 225.474 65.946 225.474H37.1877C36.3666 225.474 35.7002 224.808 35.7002 223.987C35.7002 223.163 36.3666 222.499 37.1877 222.499Z" fill="#F9D7D4"/>
<path d="M37.1877 216.549H91.7294C92.5505 216.549 93.2169 217.213 93.2169 218.036C93.2169 218.857 92.5505 219.524 91.7294 219.524H37.1877C36.3666 219.524 35.7002 218.857 35.7002 218.036C35.7002 217.213 36.3666 216.549 37.1877 216.549Z" fill="#F9D7D4"/>
<path d="M12.892 214.565H26.7753C28.4195 214.565 29.7503 215.896 29.7503 217.54V235.39C29.7503 237.033 28.4195 238.365 26.7753 238.365H12.892C11.2478 238.365 9.91699 237.033 9.91699 235.39V217.54C9.91699 215.896 11.2478 214.565 12.892 214.565Z" fill="#F9D7D4"/>
<path d="M16.3015 220.52C17.1999 220.444 18.4693 221.267 18.6914 224.33C18.7668 225.674 18.3185 226.72 18.0944 227.541C18.021 227.916 17.8703 227.989 17.5708 227.916C16.7497 227.691 15.407 227.765 14.5839 227.989C14.3598 228.064 14.213 227.84 14.213 227.691C13.0171 222.089 15.407 220.595 16.3015 220.52ZM17.8703 229.633C17.8703 229.633 18.0944 230.155 18.1698 230.976C18.3185 232.321 18.023 233.292 16.6783 233.517C15.5577 233.665 14.81 232.844 14.6613 231.426C14.5859 230.53 14.5839 230.006 14.5839 230.006L17.8703 229.633ZM21.6069 229.558L24.8933 229.931V230.016C24.8893 230.208 24.8754 230.712 24.8179 231.351C24.6672 232.771 23.9234 233.592 22.8029 233.443C21.4582 233.292 21.1567 232.321 21.3074 230.903C21.4562 230.079 21.6069 229.558 21.6069 229.558ZM23.3979 220.52C24.2209 220.595 26.6128 222.089 25.4923 227.765C25.4169 227.989 25.3395 228.138 25.1154 228.064C24.2943 227.84 22.9496 227.765 22.1285 227.989C21.829 228.064 21.6823 227.916 21.6069 227.616C21.3094 226.72 20.9326 225.674 21.0079 224.33C21.2321 221.343 22.428 220.52 23.3979 220.52Z" fill="#C0392B"/>
<path d="M333.696 205.783H441.788C444.251 205.783 446.25 207.78 446.25 210.245V240.987C446.25 243.45 444.251 245.449 441.788 245.449H333.696C331.231 245.449 329.233 243.45 329.233 240.987V210.245C329.233 207.78 331.231 205.783 333.696 205.783Z" fill="white"/>
<path d="M366.421 227.6H420.963C421.784 227.6 422.45 228.266 422.45 229.087C422.45 229.908 421.784 230.575 420.963 230.575H366.421C365.6 230.575 364.934 229.908 364.934 229.087C364.934 228.266 365.6 227.6 366.421 227.6Z" fill="#F9D7D4"/>
<path d="M366.421 221.649H399.146C399.967 221.649 400.634 222.314 400.634 223.137C400.634 223.958 399.967 224.624 399.146 224.624H366.421C365.6 224.624 364.934 223.958 364.934 223.137C364.934 222.314 365.6 221.649 366.421 221.649Z" fill="#F9D7D4"/>
<path d="M366.421 215.699H420.963C421.784 215.699 422.45 216.364 422.45 217.187C422.45 218.008 421.784 218.674 420.963 218.674H366.421C365.6 218.674 364.934 218.008 364.934 217.187C364.934 216.364 365.6 215.699 366.421 215.699Z" fill="#F9D7D4"/>
<path d="M342.125 213.716H356.009C357.653 213.716 358.984 215.047 358.984 216.691V234.541C358.984 236.183 357.653 237.516 356.009 237.516H342.125C340.481 237.516 339.15 236.183 339.15 234.541V216.691C339.15 215.047 340.481 213.716 342.125 213.716Z" fill="#F9D7D4"/>
<path d="M353.268 221.923C351.752 221.241 349.767 221.882 349.065 223.355C348.365 221.882 346.384 221.239 344.868 221.923C343.252 222.653 342.48 224.513 343.756 226.711C344.662 228.274 346.265 229.454 349.065 231.566C351.865 229.454 353.472 228.274 354.378 226.711C355.654 224.513 354.882 222.653 353.268 221.923Z" fill="#C0392B"/>
<path d="M4.4625 151.886H112.554C115.017 151.886 117.017 153.883 117.017 156.349V187.09C117.017 189.554 115.017 191.553 112.554 191.553H4.4625C1.99722 191.553 0 189.554 0 187.09V156.349C0 153.883 1.99722 151.886 4.4625 151.886Z" fill="white"/>
<path d="M37.1877 173.703H56.0294C56.8505 173.703 57.5169 174.368 57.5169 175.191C57.5169 176.012 56.8505 176.678 56.0294 176.678H37.1877C36.3666 176.678 35.7002 176.012 35.7002 175.191C35.7002 174.368 36.3666 173.703 37.1877 173.703Z" fill="#F9D7D4"/>
<path d="M37.1877 167.753H89.746C90.5671 167.753 91.2335 168.417 91.2335 169.24C91.2335 170.062 90.5671 170.728 89.746 170.728H37.1877C36.3666 170.728 35.7002 170.062 35.7002 169.24C35.7002 168.417 36.3666 167.753 37.1877 167.753Z" fill="#F9D7D4"/>
<path d="M37.1877 161.803H91.7294C92.5505 161.803 93.2169 162.467 93.2169 163.29C93.2169 164.111 92.5505 164.778 91.7294 164.778H37.1877C36.3666 164.778 35.7002 164.111 35.7002 163.29C35.7002 162.467 36.3666 161.803 37.1877 161.803Z" fill="#F9D7D4"/>
<path d="M12.892 159.819H26.7753C28.4195 159.819 29.7503 161.15 29.7503 162.794V180.644C29.7503 182.287 28.4195 183.619 26.7753 183.619H12.892C11.2478 183.619 9.91699 182.287 9.91699 180.644V162.794C9.91699 161.15 11.2478 159.819 12.892 159.819Z" fill="#F9D7D4"/>
<path d="M19.8338 165.771C23.1202 165.771 25.7838 167.906 25.7838 170.541C25.7838 173.177 23.1202 175.313 19.8338 175.313C19.685 175.313 19.5363 175.311 19.3895 175.303C18.8025 175.76 16.4244 177.164 15.8076 176.676C15.1888 176.184 16.0139 175.853 16.6446 174.56L16.6406 174.57C14.9826 173.721 13.8838 172.235 13.8838 170.541C13.8838 167.906 16.5474 165.771 19.8338 165.771Z" fill="#C0392B"/>
<path d="M177.066 277.662H145.103C136.711 277.662 129.908 284.469 129.908 292.864C129.908 301.26 136.711 308.069 145.103 308.069H182.705L177.066 277.662Z" fill="#FFB5B5"/>
<path d="M133.423 283.14L153.26 250.637L182.705 254.616L178.337 292.862L133.423 283.14Z" fill="#FFB5B5"/>
<path d="M169.162 277.66H145.103" stroke="#1B1C29" stroke-width="0.616" stroke-linecap="round" stroke-linejoin="round"/>
<path d="M277.117 277.662H309.079C317.474 277.662 324.275 284.469 324.275 292.864C324.275 301.26 317.474 308.069 309.079 308.069H271.479L277.117 277.662Z" fill="#FFB5B5"/>
<path d="M320.423 282.748L295.441 244.241L271.479 254.616L275.846 292.865L320.423 282.748Z" fill="#FFB5B5"/>
<path d="M278.928 277.66H309.078" stroke="#1B1C29" stroke-width="0.616" stroke-linecap="round" stroke-linejoin="round"/>
<path d="M224.41 193.626C224.41 193.626 192.587 193.628 169.16 216.675V281.266C169.16 281.266 281.268 282.974 281.268 281.266C281.268 279.558 281.298 212.409 281.298 212.409C281.298 212.409 258.363 193.626 224.41 193.626Z" fill="#4F4388"/>
<path d="M173.901 212.404C173.901 212.404 156.604 226.375 138.371 257.136C138.371 257.136 142.302 274.935 176.265 277.66L173.901 212.404Z" fill="#4F4388"/>
<path d="M281.296 212.404C281.296 212.404 298.592 226.375 316.825 257.136C316.825 257.136 312.892 274.935 278.928 277.66L281.296 212.404Z" fill="#4F4388"/>
<path d="M276.179 308.067H174.247C171.437 308.067 169.16 305.788 169.16 302.978V238.597C169.16 235.786 171.437 233.505 174.247 233.505H276.179C278.989 233.505 281.266 235.786 281.266 238.597V302.978C281.266 305.788 278.989 308.067 276.179 308.067Z" fill="#F365D4"/>
<path d="M232.083 270.786C232.083 274.582 229.009 277.66 225.215 277.66C221.421 277.66 218.343 274.582 218.343 270.786C218.343 266.99 221.421 263.912 225.215 263.912C229.009 263.912 232.083 266.99 232.083 270.786Z" fill="#FFFFFE"/>
<path d="M213.95 204.665H235.941V180.021H213.95V204.665Z" fill="#FFB5B5"/>
<path d="M212.875 178.688C212.875 178.688 214.815 190.933 224.035 191.157C236.139 191.449 235.941 179.231 235.941 179.231C235.941 179.231 234.289 182.827 224.932 182.839C214.491 182.855 212.875 178.688 212.875 178.688Z" fill="#1B1C29"/>
<path d="M255.572 138.668C255.572 156.002 241.883 170.056 224.993 170.056C208.103 170.056 194.408 156.002 194.408 138.668C194.408 121.336 208.103 107.284 224.993 107.284C241.883 107.284 255.572 121.336 255.572 138.668Z" fill="#1B1C29"/>
<path d="M251.425 150.122C251.425 150.122 253.627 146.617 258.168 148.341C262.712 150.066 260.655 161.1 253.845 162.506C253.845 162.506 251.401 163.039 249.487 161.365C249.487 161.365 251.161 153.216 251.425 150.122Z" fill="#FFB5B5"/>
<path d="M257.268 152.234C257.268 152.234 253.462 150.963 250.763 156.568" stroke="#131315" stroke-width="0.5" stroke-linecap="round" stroke-linejoin="round"/>
<path d="M199.271 150.122C199.271 150.122 197.07 146.617 192.528 148.341C187.986 150.066 190.041 161.1 196.854 162.506C196.854 162.506 199.295 163.039 201.211 161.365C201.211 161.365 199.533 153.216 199.271 150.122Z" fill="#FFB5B5"/>
<path d="M193.431 152.234C193.431 152.234 197.233 150.963 199.932 156.568" stroke="#131315" stroke-width="0.5" stroke-linecap="round" stroke-linejoin="round"/>
<path d="M251.855 140.612C251.859 147.682 251.123 162.478 246.542 171.26C242.24 179.505 235.126 183.944 225.798 184.205C216.471 184.469 209.521 181.06 203.952 170.358C198.385 159.658 198.646 140.743 198.646 140.743C198.646 140.743 198.648 115.481 224.963 115.481C252.678 115.481 251.855 140.612 251.855 140.612Z" fill="#FFB5B5"/>
<path d="M199.272 150.122C199.272 150.122 204.89 137.793 199.934 128.916C199.934 128.916 195.446 143.196 199.272 150.122Z" fill="#1B1C29"/>
<path d="M251.343 150.122C251.343 150.122 245.725 137.793 250.681 128.916C250.681 128.916 255.169 143.196 251.343 150.122Z" fill="#1B1C29"/>
<path d="M238.627 116.899C238.627 116.899 236.034 131.845 251.483 138.636C251.483 138.636 250.848 121.145 238.627 116.899Z" fill="#1B1C29"/>
<path d="M242.104 118.765C242.104 118.765 239.789 133.678 219.525 130.354C203.754 127.768 198.94 139.828 198.94 139.828C198.94 139.828 196.144 117.407 221.608 112.821C221.608 112.821 234.634 112.752 242.104 118.765Z" fill="#1B1C29"/>
<path d="M215.899 152.78C215.899 153.642 214.821 154.34 213.492 154.34C212.163 154.34 211.088 153.642 211.088 152.78C211.088 151.918 212.163 151.22 213.492 151.22C214.821 151.22 215.899 151.918 215.899 152.78Z" fill="#1B1C29"/>
<path d="M238.17 152.78C238.17 153.642 237.093 154.34 235.766 154.34C234.435 154.34 233.358 153.642 233.358 152.78C233.358 151.918 234.435 151.22 235.766 151.22C237.093 151.22 238.17 151.918 238.17 152.78Z" fill="#1B1C29"/>
<path d="M223.422 158.021L223.424 161.268C223.426 162.087 224.154 162.702 224.929 162.54L226.655 162.177" stroke="#1B1C29" stroke-width="0.616" stroke-linecap="round" stroke-linejoin="round"/>
<path d="M220.642 145.322L206.064 147.076C206.064 147.076 207.235 143.208 213.191 142.544C219.148 141.879 220.642 145.322 220.642 145.322Z" fill="#1B1C29"/>
<path d="M229.047 145.322L243.628 147.076C243.628 147.076 242.454 143.208 236.498 142.544C230.542 141.879 229.047 145.322 229.047 145.322Z" fill="#1B1C29"/>
<path d="M221.074 152.708C221.074 158.204 216.622 162.659 211.128 162.659C205.634 162.659 201.182 158.204 201.182 152.708C201.182 147.212 205.634 142.754 211.128 142.754C216.622 142.754 221.074 147.212 221.074 152.708ZM249.246 152.708C249.246 158.204 244.791 162.659 239.299 162.659C233.806 162.659 229.351 158.204 229.351 152.708C229.351 147.212 233.806 142.754 239.299 142.754C244.791 142.754 249.246 147.212 249.246 152.708ZM221.074 153.533C221.074 153.533 224.587 148.129 229.351 153.533H221.074Z" stroke="#FFFFFE" stroke-width="0.675"/>
<path d="M216.667 166.938C216.667 166.938 218.129 168.835 224.63 168.835C230.54 168.835 233.224 166.938 233.224 166.938" stroke="#1B1C29" stroke-width="0.616" stroke-linecap="round" stroke-linejoin="round"/>
<path d="M224.408 193.626C224.408 193.626 210.975 192.898 193.426 200.661C193.426 200.661 193.059 215.81 223.345 215.81C253.626 215.81 256.325 199.207 256.325 199.207C256.325 199.207 237.093 192.345 224.408 193.626Z" fill="#FFB5B5"/>
<path d="M255.903 97.9702C255.903 109.001 246.964 117.944 235.941 117.944C224.913 117.944 215.979 109.001 215.979 97.9702C215.979 86.9389 224.913 78 235.941 78C246.964 78 255.903 86.9389 255.903 97.9702Z" fill="#1B1C29"/>
</svg>
