<svg width="89" height="89" viewBox="0 0 89 89" fill="none" xmlns="http://www.w3.org/2000/svg">
<path d="M26.0326 14.3511C26.0326 14.3511 23.2514 14.9073 23.3626 17.9111C23.4739 20.9148 23.4739 68.9748 23.4739 68.9748C23.4739 68.9748 24.1414 71.8673 26.7001 71.8673C29.2589 71.8673 61.5214 71.7561 61.5214 71.7561C61.5214 71.7561 64.9701 71.6448 65.0814 68.4186C65.1926 65.1923 65.1926 30.0373 65.1926 30.0373L49.7289 14.4623L26.0326 14.3511Z" fill="#7CBAAF"/>
<path d="M34.99 55.46C36.0726 55.46 36.9516 56.3416 36.9516 57.4275C36.9516 58.5135 36.0726 59.3951 34.99 59.3951C33.9073 59.3951 33.0283 58.5135 33.0283 57.4275C33.0283 56.3416 33.9073 55.46 34.99 55.46Z" fill="#FFFEFE"/>
<path d="M54.8947 56.0142V58.9386H40.2168V56.0142H54.8947Z" fill="#FFFEFE"/>
<path d="M34.99 48.7852C36.0726 48.7852 36.9516 49.6668 36.9516 50.7527C36.9516 51.8387 36.0726 52.7203 34.99 52.7203C33.9073 52.7203 33.0283 51.8387 33.0283 50.7527C33.0283 49.6668 33.9073 48.7852 34.99 48.7852Z" fill="#FFFEFE"/>
<path d="M54.8947 49.3394V52.2638H40.2168V49.3394H54.8947Z" fill="#FFFEFE"/>
<path d="M34.99 42.4438C36.0726 42.4438 36.9516 43.3255 36.9516 44.4114C36.9516 45.4973 36.0726 46.379 34.99 46.379C33.9073 46.379 33.0283 45.4973 33.0283 44.4114C33.0283 43.3255 33.9073 42.4438 34.99 42.4438Z" fill="#FFFEFE"/>
<path d="M54.8947 42.998V45.9225H40.2168V42.998H54.8947Z" fill="#FFFEFE"/>
<path d="M49.618 14.4067L49.3955 27.1449C49.3955 27.1449 49.8961 30.2042 52.8443 30.2042C55.7924 30.2042 65.0818 29.9261 65.0818 29.9261L49.618 14.4067Z" fill="#57555F" fill-opacity="0.5"/>
<path d="M65.1604 29.9038L51.6433 30.0487L65.1661 31.3153L65.1604 29.9038Z" fill="#7CBAAF" fill-opacity="0.36"/>
<path d="M65.137 29.8706L51.6201 30.0375L65.137 42.275V29.8706Z" fill="#91CEC3"/>
</svg>
