<svg width="40" height="40" viewBox="0 0 40 40" fill="none" xmlns="http://www.w3.org/2000/svg">
<path d="M5.73134 20C5.7291 21.7199 6.03845 23.4259 6.64442 25.0354L6.6688 25.1002H6.73801H12.0263H12.1424L12.1252 24.9854C11.8893 23.4088 11.7647 21.7338 11.7647 20.0002V20.0001C11.764 18.8903 11.8167 17.7811 11.9226 16.6764L11.933 16.5668H11.823H6.22634H6.15152L6.1304 16.6386L6.12207 16.6669L6.12194 16.6669L6.12075 16.6719C5.8656 17.7395 5.73135 18.8556 5.73134 20ZM5.73134 20L5.83134 20.0002M5.73134 20C5.73134 20.0001 5.73134 20.0001 5.73134 20.0002H5.83134M5.83134 20.0002C5.83134 18.8635 5.96467 17.7552 6.21801 16.6952L6.73801 25.0002C6.1363 23.4019 5.82911 21.7079 5.83134 20.0002ZM18.2347 36.4777C9.91472 35.5955 3.43301 28.5556 3.43301 20.0018C3.43301 10.8504 10.8483 3.43184 19.9997 3.4335C29.1178 3.4335 36.5156 10.7964 36.5694 19.9002H34.2677C34.2599 18.7774 34.1213 17.6867 33.8702 16.6434L33.8518 16.5668H33.773H28.1763H28.0663L28.0768 16.6764C28.1768 17.72 28.2314 18.7982 28.2345 19.9002H25.9345C25.9311 18.7819 25.8695 17.6955 25.7591 16.6563L25.7496 16.5668H25.6597H14.3363H14.2463L14.2369 16.6563C13.9428 19.4406 14.0187 22.2516 14.4626 25.016L14.4761 25.1002H14.5613H18.2363V27.4002H15.103H14.9724L15.0065 27.5263C15.7692 30.3474 16.9281 32.5133 18.2347 33.5651V36.4777ZM7.97634 27.4002H7.87634V27.5002V27.5018V27.5305L7.89155 27.5548C9.5123 30.1472 11.9202 32.1528 14.7629 33.2781L15.0497 33.3917L14.884 33.1315C14.0207 31.7753 13.306 30.077 12.7797 28.1346C12.7796 28.1344 12.7796 28.1342 12.7795 28.134L12.6098 27.4752L12.5905 27.4002H12.513H7.97634ZM14.7302 6.73571L14.7301 6.73562L14.726 6.73725C11.2885 8.1052 8.51086 10.7688 6.9919 14.1256L6.928 14.2668H7.08301H12.163H12.2467L12.2614 14.1844C12.7815 11.2734 13.6929 8.74331 14.8857 6.87055L15.0403 6.62785L14.7685 6.72238L14.7302 6.73571ZM19.8029 5.74022L19.5729 5.74815L19.595 5.77028C18.5658 5.95887 17.5816 6.85167 16.7412 8.22676C15.8423 9.69753 15.0931 11.7429 14.6182 14.1491L14.5947 14.2685H14.7163H25.2847H25.4063L25.3828 14.1492C24.9104 11.7496 24.1641 9.70885 23.2682 8.23895C22.3753 6.77412 21.3194 5.8538 20.2196 5.74399L20.2196 5.74386L20.2144 5.74361L20.0044 5.73361L20.0044 5.73327L19.9962 5.73356L19.8029 5.74022ZM25.2381 6.72449L24.9525 6.60574L25.1145 6.86921L25.2923 7.15838C25.2924 7.15852 25.2925 7.15866 25.2926 7.1588C26.3996 8.999 27.2428 11.4198 27.7379 14.1861L27.7527 14.2685H27.8363H32.9163H33.0714L33.0074 14.1272C31.5503 10.9116 28.9569 8.34742 25.7249 6.92695L25.7249 6.92693L25.7231 6.92616L25.2381 6.72449Z" fill="#33658A" stroke="white" stroke-width="0.2"/>
<path d="M27.6667 33.3337V32.3337H26.6667H21.6667C21.4899 32.3337 21.3203 32.2634 21.1953 32.1384C21.0702 32.0134 21 31.8438 21 31.667V23.3337C21 23.1568 21.0702 22.9873 21.1953 22.8623C21.3203 22.7372 21.4899 22.667 21.6667 22.667H36.6667C36.8435 22.667 37.013 22.7372 37.1381 22.8623C37.2631 22.9873 37.3333 23.1568 37.3333 23.3337V31.667C37.3333 31.8438 37.2631 32.0134 37.1381 32.1384C37.013 32.2634 36.8435 32.3337 36.6667 32.3337H31.6667H30.6667V33.3337V36.667V37.3337H27.6667V36.667V33.3337Z" fill="white" stroke="#33658A" stroke-width="2"/>
</svg>
