<svg width="137" height="134" viewBox="0 0 137 134" fill="none" xmlns="http://www.w3.org/2000/svg">
<g opacity="0.99">
<path d="M113.827 52.2336L113.815 101.763C113.815 102.492 113.684 103.195 113.451 103.843C112.602 106.204 110.336 107.89 107.687 107.89L21.6671 107.872C19.0053 107.872 16.7372 106.163 15.9001 103.788C15.6708 103.147 15.5506 102.46 15.547 101.742L15.5584 52.234C15.5589 50.8005 16.0501 49.9362 16.8719 48.8935C17.8451 47.6582 51.8209 48.4824 61.0825 48.0898C62.4868 48.0301 64.1037 48.0292 65.5139 48.0881C74.8034 48.4749 111.375 47.1268 112.351 48.264C113.266 49.3305 113.821 50.7163 113.827 52.2336ZM113.827 52.2336L113.815 101.763C113.815 102.492 113.684 103.195 113.451 103.843C112.602 106.204 110.336 107.89 107.687 107.89L21.6671 107.872C19.0053 107.872 16.7372 106.163 15.9001 103.788C15.6708 103.147 15.5506 102.46 15.547 101.742L15.5584 52.234C15.5589 50.8005 16.0501 49.9362 16.8719 48.8935C17.8451 47.6582 51.8209 48.4824 61.0825 48.0898C62.4868 48.0301 64.1037 48.0292 65.5139 48.0881C74.8034 48.4749 111.375 47.1268 112.351 48.264C113.266 49.3305 113.821 50.7163 113.827 52.2336Z" fill="black" fill-opacity="0.2"/>
<path d="M115.449 50.9158L115.437 100.445C115.437 101.175 115.307 101.878 115.073 102.525C114.224 104.886 111.958 106.573 109.309 106.572L23.2892 106.554C20.6274 106.555 18.3593 104.845 17.5222 102.47C17.293 101.829 17.1727 101.142 17.1691 100.425L17.1805 50.9162C17.181 49.4827 17.6723 48.6184 18.494 47.5756C19.4672 46.3404 54.7095 20.6526 63.9714 13.9105C65.3753 12.8882 66.9928 12.8811 68.4032 13.8894C77.6924 20.5323 112.997 45.809 113.973 46.9462C114.889 48.0127 115.443 49.3985 115.449 50.9158ZM115.449 50.9158L115.437 100.445C115.437 101.175 115.307 101.878 115.073 102.525C114.224 104.886 111.958 106.573 109.309 106.572L23.2892 106.554C20.6274 106.555 18.3593 104.845 17.5222 102.47C17.293 101.829 17.1727 101.142 17.1691 100.425L17.1805 50.9162C17.181 49.4827 17.6723 48.6184 18.494 47.5756C19.4672 46.3404 54.7095 20.6526 63.9714 13.9105C65.3753 12.8882 66.9928 12.8811 68.4032 13.8894C77.6924 20.5323 112.997 45.809 113.973 46.9462C114.889 48.0127 115.443 49.3985 115.449 50.9158Z" fill="#2C73E3"/>
<path d="M111.143 28.2132L111.175 78.5612C111.176 80.8892 109.29 82.7771 106.962 82.7787L26.1442 82.8892C23.8163 82.8907 21.9275 81.0044 21.926 78.6765L21.8941 28.329C21.8925 26.001 23.7794 24.1125 26.1073 24.111L106.925 24.0006C109.253 23.9991 111.141 25.8852 111.143 28.2132ZM111.143 28.2132L111.175 78.5612C111.176 80.8892 109.29 82.7771 106.962 82.7787L26.1442 82.8892C23.8163 82.8907 21.9275 81.0044 21.926 78.6765L21.8941 28.329C21.8925 26.001 23.7794 24.1125 26.1073 24.111L106.925 24.0006C109.253 23.9991 111.141 25.8852 111.143 28.2132Z" fill="#ECF2FB"/>
<path d="M34.6163 32.0083L63.467 32.0518M34.6168 41.4903L96.2345 41.4838L34.6168 41.4903ZM34.6168 41.4903L96.2345 41.4838L34.6168 41.4903ZM34.6163 32.0083L63.467 32.0518L34.6163 32.0083ZM34.6163 32.0083L63.467 32.0518L34.6163 32.0083ZM35.1852 70.051L96.7981 70.0418L35.1852 70.051ZM35.1802 60.5695L64.0353 60.6131L35.1802 60.5695ZM34.9966 60.5312L96.6095 60.522L34.9966 60.5312ZM34.9916 51.0498L63.8468 51.0933L34.9916 51.0498ZM34.808 51.0115L96.4209 51.0023L34.808 51.0115ZM34.803 41.5301L63.6582 41.5736L34.803 41.5301ZM34.6168 41.4903L96.2345 41.4838L34.6168 41.4903Z" stroke="#BFCEE2" stroke-width="4.63" stroke-linecap="round" stroke-linejoin="round"/>
<path d="M115.449 51.3685L115.437 100.445C115.437 101.175 115.307 101.878 115.073 102.525C114.225 104.886 111.958 106.573 109.309 106.572L23.2893 106.554C20.6275 106.555 18.3594 104.845 17.5223 102.47C17.2931 101.829 17.1728 101.142 17.1692 100.425L17.1808 51.3691C17.1826 47.9814 19.9279 46.8786 23.3022 48.9527L65.8203 75.7551L109.322 48.9709C112.528 47.0599 115.436 47.9875 115.449 51.3685ZM115.449 51.3685L115.437 100.445C115.437 101.175 115.307 101.878 115.073 102.525C114.225 104.886 111.958 106.573 109.309 106.572L23.2893 106.554C20.6275 106.555 18.3594 104.845 17.5223 102.47C17.2931 101.829 17.1728 101.142 17.1692 100.425L17.1808 51.3691C17.1826 47.9814 19.9279 46.8786 23.3022 48.9527L65.8203 75.7551L109.322 48.9709C112.528 47.0599 115.436 47.9875 115.449 51.3685ZM115.074 102.419C114.225 104.842 111.958 106.573 109.309 106.572L23.2895 106.554C20.6277 106.554 18.3591 104.8 17.5223 102.363L62.6298 72.1312C62.6298 72.1312 64.7135 70.7751 66.4211 70.7948C68.1286 70.8145 69.9433 72.2198 69.9433 72.2198L115.074 102.419ZM115.074 102.419C114.225 104.842 111.958 106.573 109.309 106.572L23.2895 106.554C20.6277 106.554 18.3591 104.8 17.5223 102.363L62.6298 72.1312C62.6298 72.1312 64.7135 70.7751 66.4211 70.7948C68.1286 70.8145 69.9433 72.2198 69.9433 72.2198L115.074 102.419ZM115.073 102.525C114.225 104.886 111.958 106.573 109.309 106.572L23.2893 106.554C20.6275 106.555 18.3594 104.845 17.5223 102.47L62.6296 73.0085C62.6296 73.0085 64.7133 71.6871 66.421 71.7062C68.1288 71.7253 69.9439 73.0948 69.9439 73.0948L115.073 102.525ZM115.073 102.525C114.225 104.886 111.958 106.573 109.309 106.572L23.2893 106.554C20.6275 106.555 18.3594 104.845 17.5223 102.47L62.6296 73.0085C62.6296 73.0085 64.7133 71.6871 66.421 71.7062C68.1288 71.7253 69.9439 73.0948 69.9439 73.0948L115.073 102.525ZM20.4287 46.8441C20.4276 46.845 20.4241 46.849 20.4214 46.8513C20.4214 46.8513 20.4209 46.8531 20.4213 46.8538C20.4215 46.8551 20.4211 46.8556 20.4213 46.8557L20.4366 46.8554C20.4368 46.8555 20.4372 46.8556 20.4371 46.8537C20.4373 46.8531 20.4371 46.8518 20.4371 46.8518C20.4347 46.8492 20.4305 46.8447 20.4293 46.8443L20.4287 46.8441ZM20.4287 46.8441C20.4276 46.845 20.4241 46.849 20.4214 46.8513C20.4214 46.8513 20.4209 46.8531 20.4213 46.8538C20.4215 46.8551 20.4211 46.8556 20.4213 46.8557L20.4366 46.8554C20.4368 46.8555 20.4372 46.8556 20.4371 46.8537C20.4373 46.8531 20.4371 46.8518 20.4371 46.8518C20.4347 46.8492 20.4305 46.8447 20.4293 46.8443L20.4287 46.8441Z" fill="#3A82F3"/>
<path d="M115.073 102.419C114.225 104.842 111.958 106.573 109.309 106.572L23.2894 106.554C20.6276 106.554 18.359 104.8 17.5222 102.363L62.6297 72.1312C62.6297 72.1312 64.7134 70.7752 66.421 70.7948C68.1286 70.8145 69.9432 72.2199 69.9432 72.2199L115.073 102.419ZM115.073 102.419C114.225 104.842 111.958 106.573 109.309 106.572L23.2894 106.554C20.6276 106.554 18.359 104.8 17.5222 102.363L62.6297 72.1312C62.6297 72.1312 64.7134 70.7752 66.421 70.7948C68.1286 70.8145 69.9432 72.2199 69.9432 72.2199L115.073 102.419ZM115.073 102.525C114.224 104.886 111.958 106.573 109.309 106.572L23.2893 106.554C20.6274 106.555 18.3594 104.845 17.5223 102.47L62.6296 73.0086C62.6296 73.0086 64.7132 71.6871 66.421 71.7062C68.1287 71.7254 69.9438 73.0949 69.9438 73.0949L115.073 102.525ZM115.073 102.525C114.224 104.886 111.958 106.573 109.309 106.572L23.2893 106.554C20.6274 106.555 18.3594 104.845 17.5223 102.47L62.6296 73.0086C62.6296 73.0086 64.7132 71.6871 66.421 71.7062C68.1287 71.7254 69.9438 73.0949 69.9438 73.0949L115.073 102.525ZM20.4287 46.8442C20.4275 46.8451 20.424 46.8491 20.4214 46.8514C20.4214 46.8514 20.4208 46.8531 20.4212 46.8539C20.4215 46.8552 20.421 46.8557 20.4213 46.8558L20.4365 46.8555C20.4368 46.8556 20.4371 46.8557 20.4371 46.8538C20.4372 46.8532 20.437 46.8519 20.437 46.8519C20.4347 46.8492 20.4304 46.8447 20.4292 46.8444L20.4287 46.8442ZM20.4287 46.8442C20.4275 46.8451 20.424 46.8491 20.4214 46.8514C20.4214 46.8514 20.4208 46.8531 20.4212 46.8539C20.4215 46.8552 20.421 46.8557 20.4213 46.8558L20.4365 46.8555C20.4368 46.8556 20.4371 46.8557 20.4371 46.8538C20.4372 46.8532 20.437 46.8519 20.437 46.8519C20.4347 46.8492 20.4304 46.8447 20.4292 46.8444L20.4287 46.8442Z" fill="#202020" fill-opacity="0.3"/>
<path d="M115.073 102.525C114.224 104.886 111.958 106.573 109.309 106.572L23.2893 106.554C20.6274 106.555 18.3594 104.845 17.5223 102.47L62.6296 73.0086C62.6296 73.0086 64.7132 71.6871 66.421 71.7062C68.1287 71.7254 69.9438 73.0949 69.9438 73.0949L115.073 102.525ZM115.073 102.525C114.224 104.886 111.958 106.573 109.309 106.572L23.2893 106.554C20.6274 106.555 18.3594 104.845 17.5223 102.47L62.6296 73.0086C62.6296 73.0086 64.7132 71.6871 66.421 71.7062C68.1287 71.7254 69.9438 73.0949 69.9438 73.0949L115.073 102.525ZM20.4287 46.8442C20.4275 46.8451 20.424 46.8491 20.4214 46.8514C20.4214 46.8514 20.4208 46.8531 20.4212 46.8539C20.4215 46.8552 20.421 46.8557 20.4213 46.8558L20.4365 46.8555C20.4368 46.8556 20.4371 46.8557 20.4371 46.8538C20.4372 46.8532 20.437 46.8519 20.437 46.8519C20.4347 46.8492 20.4304 46.8447 20.4292 46.8444L20.4287 46.8442ZM20.4287 46.8442C20.4275 46.8451 20.424 46.8491 20.4214 46.8514C20.4214 46.8514 20.4208 46.8531 20.4212 46.8539C20.4215 46.8552 20.421 46.8557 20.4213 46.8558L20.4365 46.8555C20.4368 46.8556 20.4371 46.8557 20.4371 46.8538C20.4372 46.8532 20.437 46.8519 20.437 46.8519C20.4347 46.8492 20.4304 46.8447 20.4292 46.8444L20.4287 46.8442Z" fill="#5997EE"/>
</g>
</svg>
