<svg width="89" height="89" viewBox="0 0 89 89" fill="none" xmlns="http://www.w3.org/2000/svg">
<g clip-path="url(#clip0_45_142)">
<path d="M33.1085 28.1064H50.6351C51.8168 28.1064 52.7749 29.0647 52.7749 30.2464V38.5622C52.7749 39.7441 51.8168 40.702 50.6351 40.702H33.1085C31.9266 40.702 30.9688 39.7441 30.9688 38.5622V30.2464C30.9688 29.0647 31.9266 28.1064 33.1085 28.1064Z" fill="#EE6936"/>
<path d="M36.6465 30.2876C37.5783 30.2876 38.3336 31.0429 38.3336 31.9745C38.3336 32.9064 37.5783 33.6619 36.6465 33.6619C35.7149 33.6619 34.96 32.9064 34.96 31.9745C34.96 31.0429 35.7149 30.2876 36.6465 30.2876Z" fill="white"/>
<path d="M33.2051 38.111C33.2077 36.2103 34.7505 34.6717 36.6512 34.6743C38.5483 34.6768 40.0855 36.214 40.0879 38.111" fill="white"/>
<path d="M43.261 32.2345H46.2302C46.4665 32.2345 46.6582 32.0428 46.6582 31.8064C46.6582 31.5701 46.4665 31.3784 46.2302 31.3784H43.261C43.0247 31.3784 42.833 31.5701 42.833 31.8064C42.833 32.0428 43.0247 32.2345 43.261 32.2345Z" fill="white"/>
<path d="M43.0931 34.8321H49.0316C49.2677 34.8321 49.4594 34.6404 49.4594 34.4041C49.4594 34.1678 49.2677 33.9761 49.0316 33.9761H43.0931C42.8567 33.9761 42.665 34.1678 42.665 34.4041C42.665 34.6404 42.8567 34.8321 43.0931 34.8321Z" fill="white"/>
<path d="M43.0931 37.4308H49.0316C49.2677 37.4308 49.4594 37.2391 49.4594 37.0027C49.4594 36.7664 49.2677 36.5747 49.0316 36.5747H43.0931C42.8567 36.5747 42.665 36.7664 42.665 37.0027C42.665 37.2391 42.8567 37.4308 43.0931 37.4308Z" fill="white"/>
<path d="M62.431 77.8204C62.5778 78.6867 57.0456 80.343 50.0742 81.5208C43.104 82.6987 37.3346 82.9511 37.1884 82.0847C37.0417 81.2184 42.5738 79.5615 49.5446 78.3837C56.5155 77.2059 62.2849 76.954 62.431 77.8204Z" fill="black"/>
<path d="M46.8261 56.1925L32.4678 55.854L29.6973 59.5472C29.6973 59.5472 30.0295 65.709 36.3853 73.5091C38.154 75.6803 39.3656 81.1349 39.8755 83.888L42.831 86.9948C44.742 87.5593 54.5447 86.3409 56.5 86.4073" fill="#FFB09F"/>
<path d="M29.6981 25.7951C29.2568 25.4437 27.0012 24.479 25.8481 24.5431C25.1065 24.5847 24.5567 25.1778 24.4274 25.9087C23.9478 28.6309 25.9234 31.2975 29.6245 33.3428" fill="#FFB09F"/>
<path d="M29.8919 25.5519C29.8166 25.4923 29.7272 25.4361 29.617 25.3731C29.2358 25.1572 28.6101 24.8789 27.9348 24.6467C27.2574 24.4157 26.5451 24.2307 25.9609 24.229C25.9171 24.229 25.8732 24.2296 25.8288 24.2324H25.8299C25.3802 24.2571 24.9827 24.4533 24.6887 24.7468C24.3935 25.0403 24.1962 25.4293 24.1208 25.8549C24.0702 26.1422 24.0449 26.4301 24.0449 26.7162C24.0449 28.0194 24.5638 29.2861 25.4971 30.4476C26.4315 31.6108 27.7802 32.679 29.4736 33.6157L29.775 33.0703C28.1344 32.164 26.8492 31.1374 25.9829 30.0574C25.1159 28.9763 24.6684 27.8508 24.6678 26.7162C24.6678 26.466 24.6898 26.2153 24.7342 25.9629C24.7876 25.6576 24.9298 25.3849 25.1277 25.1887C25.3262 24.9925 25.5741 24.8716 25.8648 24.8547H25.8665C25.8952 24.8525 25.9272 24.8519 25.9609 24.8519C26.2167 24.8514 26.5524 24.9037 26.9094 24.9914C27.4452 25.1224 28.0321 25.3304 28.5179 25.5361C28.7607 25.6385 28.9789 25.7402 29.1526 25.8302C29.3241 25.9184 29.4562 26 29.504 26.0393L29.8919 25.5519Z" fill="#F48B88"/>
<path d="M51.4518 57.7981L32.796 57.8116C31.4393 57.8127 30.338 56.713 30.3374 55.3558L30.3076 14.644C30.3071 13.2868 31.4062 12.186 32.7633 12.1849L51.4186 12.1714C52.7758 12.1703 53.8766 13.2699 53.8777 14.6266L53.9075 55.339C53.9086 56.6961 52.8089 57.7975 51.4518 57.7981Z" fill="white"/>
<path d="M51.4526 57.7979L51.452 56.8635L32.7962 56.877C32.3728 56.8764 31.9979 56.7078 31.719 56.4312C31.4418 56.1529 31.2732 55.7784 31.2726 55.3551L31.2428 14.6432C31.2428 14.2193 31.412 13.8443 31.6886 13.5655C31.9669 13.2889 32.3408 13.1202 32.7641 13.1191L51.4199 13.1056C51.8439 13.1062 52.2188 13.2748 52.4971 13.5514C52.7749 13.8297 52.943 14.2042 52.9435 14.6275L52.9739 55.3393C52.9733 55.7627 52.8047 56.1377 52.5281 56.4165C52.2498 56.6937 51.8742 56.8624 51.4509 56.8635L51.4526 57.7979L51.4537 58.7323C52.3869 58.7317 53.2404 58.35 53.8504 57.7372C54.4626 57.126 54.8432 56.2726 54.8427 55.3388L54.8134 14.6258C54.8129 13.6925 54.4311 12.8391 53.8183 12.2291C53.2072 11.6169 52.3532 11.2363 51.4194 11.2368L32.763 11.2503C31.8298 11.2503 30.9769 11.632 30.3663 12.2449C29.7541 12.856 29.3735 13.71 29.374 14.6438L29.4033 55.3568C29.4038 56.2895 29.785 57.1429 30.3978 57.7535C31.0089 58.3652 31.8629 58.7463 32.7962 58.7463L51.4531 58.7323L51.4526 57.7979Z" fill="#1D1D1B"/>
<path d="M35.9388 27.2115V25.824H37.0598C37.4034 25.824 37.6833 25.5451 37.6833 25.2011C37.6833 24.857 37.4034 24.5781 37.0598 24.5781H35.3159C35.1517 24.5781 34.9904 24.645 34.8745 24.7614C34.7587 24.8772 34.6924 25.0369 34.6924 25.2011V27.2115C34.6924 27.5556 34.9718 27.8344 35.3159 27.8344C35.6599 27.8344 35.9388 27.5556 35.9388 27.2115Z" fill="#1D1D1B"/>
<path d="M34.6924 42.3348V44.3442C34.6924 44.5112 34.757 44.6669 34.8751 44.785C34.9926 44.9025 35.1489 44.9682 35.3153 44.9682H37.0598C37.4039 44.9682 37.6833 44.6883 37.6833 44.3442C37.6833 44.0001 37.4039 43.7213 37.0598 43.7213H35.9382V42.3348C35.9382 41.9908 35.6594 41.7119 35.3153 41.7119C34.9712 41.7119 34.6924 41.9908 34.6924 42.3348Z" fill="#1D1D1B"/>
<path d="M50.1437 27.2115V25.2011C50.1437 25.0369 50.0774 24.8772 49.9616 24.7614C49.8457 24.645 49.6849 24.5781 49.5208 24.5781H47.7757C47.4322 24.5781 47.1533 24.857 47.1533 25.2011C47.1533 25.5451 47.4322 25.824 47.7757 25.824H48.8979V27.2115C48.8979 27.5556 49.1761 27.8344 49.5208 27.8344C49.8643 27.8344 50.1443 27.5556 50.1443 27.2115H50.1437Z" fill="#1D1D1B"/>
<path d="M48.8979 42.3348V43.7213H47.7768C47.4333 43.7213 47.1533 44.0001 47.1533 44.3442C47.1533 44.6888 47.4333 44.9682 47.7768 44.9682H49.5208C49.6872 44.9682 49.8446 44.9025 49.9621 44.785C50.0796 44.6669 50.1443 44.5112 50.1443 44.3442V42.3348C50.1443 41.9908 49.8649 41.7119 49.5208 41.7119C49.1767 41.7119 48.8979 41.9908 48.8979 42.3348Z" fill="#1D1D1B"/>
<path d="M29.7022 53.3983C31.4557 54.95 31.6469 56.8424 31.6019 57.9764C31.5682 58.8236 31.1386 59.5815 30.3184 59.8401C29.6061 60.0644 28.8482 60.0397 28.0853 59.7147C26.3396 58.972 25.2917 57.1173 24.7272 55.7264C24.328 54.7431 24.4534 53.6288 25.0623 52.754C25.9326 51.3164 28.1966 51.1641 29.4801 51.127L29.7022 53.3983Z" fill="#FFB09F"/>
<path d="M29.703 53.3979L29.3926 53.7476C30.1404 54.4105 30.571 55.125 30.8223 55.8115C31.0731 56.4985 31.1411 57.1591 31.1411 57.6949C31.1411 57.7854 31.1383 57.8731 31.1349 57.9575C31.1214 58.3077 31.0253 58.6276 30.8645 58.8727C30.702 59.1184 30.4844 59.2961 30.1786 59.3939C29.9144 59.4771 29.6479 59.5193 29.3763 59.5193C29.0176 59.5187 28.6488 59.4456 28.2682 59.2837C27.4946 58.9554 26.8537 58.3679 26.3365 57.6814C25.8198 56.9966 25.4319 56.2197 25.1609 55.5506C25.0293 55.2262 24.9647 54.8867 24.9647 54.5482C24.9647 54.0113 25.1271 53.4783 25.4459 53.0213L25.4538 53.0095L25.4628 52.996C25.6354 52.7109 25.8788 52.4838 26.1835 52.2971C26.6389 52.0166 27.2304 51.8401 27.8269 51.7394C28.4234 51.6371 29.0216 51.6073 29.4944 51.5938L29.4809 51.1266L29.0159 51.1722L29.2555 53.6256L29.3926 53.7476L29.703 53.3979L30.1679 53.3524L29.9037 50.6465L29.4674 50.6594C28.8136 50.6791 27.8943 50.7252 26.9965 50.9636C26.5473 51.0833 26.1009 51.252 25.6955 51.4999C25.2907 51.7467 24.9253 52.0779 24.6628 52.5119L25.0625 52.7536L24.6791 52.4866C24.2507 53.1017 24.0303 53.8224 24.0303 54.5482C24.0303 55.0059 24.1174 55.4652 24.2945 55.902C24.588 56.6233 25.0057 57.4683 25.5904 58.2442C26.1745 59.0184 26.9302 59.7295 27.9022 60.1439C28.3902 60.3514 28.8878 60.4537 29.3763 60.4537C29.7457 60.4537 30.1094 60.3958 30.4597 60.285C30.9741 60.1248 31.3812 59.7936 31.6471 59.3838C31.9147 58.9734 32.0491 58.4904 32.0693 57.994C32.0732 57.899 32.0749 57.7995 32.0749 57.6949C32.0749 57.0815 31.9985 56.3085 31.7005 55.4916C31.4031 54.6747 30.8808 53.8151 30.0127 53.0477L29.703 53.3979L30.1679 53.3524L29.703 53.3979Z" fill="#F48B88"/>
<path d="M29.3669 45.0788C31.3279 46.9763 31.7973 48.7978 31.6905 49.7575C31.5916 50.6458 31.1783 51.4351 30.29 51.7247C29.7874 51.8883 28.4033 51.8135 27.646 51.3317C25.9689 50.2635 24.863 49.057 24.5549 47.7307C24.2857 46.5743 24.0377 45.614 24.989 44.2226C25.9408 42.8311 28.2279 42.5314 29.6255 42.4893L29.3669 45.0788Z" fill="#FFB09F"/>
<path d="M29.3674 45.0792L29.1504 45.303C30.8927 46.9868 31.3953 48.5891 31.3931 49.4886C31.3931 49.5735 31.3886 49.6517 31.3807 49.7236C31.3352 50.1307 31.2182 50.5023 31.026 50.7947C30.832 51.087 30.5706 51.304 30.1933 51.4283C30.0933 51.4626 29.8729 51.4929 29.6154 51.4918C29.3264 51.4918 28.984 51.4592 28.6596 51.3878C28.3352 51.3175 28.0294 51.2068 27.8135 51.069C26.9938 50.5473 26.3208 49.9952 25.8216 49.4234C25.3223 48.8511 24.998 48.2636 24.858 47.6609C24.7332 47.1257 24.6224 46.6579 24.623 46.1975C24.6252 45.6572 24.7618 45.1113 25.2464 44.399C25.658 43.7918 26.3995 43.3915 27.2282 43.1492C28.0552 42.9057 28.9537 42.8208 29.6351 42.8012L29.6261 42.4897L29.3163 42.4588L29.0425 45.1979L29.1504 45.303L29.3674 45.0792L29.6772 45.1102L29.9707 42.167L29.6165 42.1782C28.9003 42.2002 27.9569 42.2862 27.0523 42.551C26.151 42.8175 25.2717 43.2622 24.732 44.047C24.1895 44.8358 23.9972 45.5402 24 46.1975C24.0006 46.7574 24.1288 47.2719 24.2513 47.802C24.4194 48.5256 24.8023 49.2036 25.3521 49.8333C25.9031 50.4635 26.6216 51.0488 27.479 51.5947C27.786 51.7892 28.1531 51.9146 28.5264 51.9967C28.8997 52.0782 29.2803 52.1147 29.6154 52.1147C29.9173 52.1136 30.1748 52.0883 30.3862 52.0214C30.8972 51.8561 31.2874 51.534 31.5466 51.137C31.808 50.7396 31.9463 50.2729 32.0008 49.7922C32.011 49.6961 32.0166 49.5955 32.0166 49.4886C32.0143 48.3727 31.4234 46.6371 29.5839 44.8555L29.3674 45.0792L29.6772 45.1102L29.3674 45.0792Z" fill="#F48B88"/>
<path d="M29.4294 37.854C31.6923 39.3956 31.9779 41.3009 31.8357 42.2386C31.7058 43.0915 31.3252 43.8741 30.4313 44.1406C29.6543 44.3717 28.5653 44.343 27.7355 44.0152C25.838 43.2664 25.0374 41.7107 24.7046 40.2956C24.4718 39.309 24.4555 38.1244 25.1218 37.2327C25.9173 36.1673 27.9693 35.2605 29.367 35.2178L29.4294 37.854Z" fill="#FFB09F"/>
<path d="M29.1825 37.7454L29.007 38.0029C29.9487 38.6449 30.5194 39.3409 30.8595 39.9897C31.1991 40.6391 31.3076 41.2457 31.3076 41.705C31.3076 41.8473 31.2969 41.9749 31.2801 42.0845C31.2205 42.4803 31.103 42.8458 30.9141 43.1291C30.7229 43.4125 30.4727 43.6194 30.096 43.7335C29.7969 43.8229 29.4309 43.8718 29.0526 43.8718C28.5522 43.8723 28.0288 43.7858 27.6026 43.6171C26.7093 43.2635 26.0875 42.7305 25.6383 42.1138C25.1908 41.4976 24.9198 40.7948 24.7601 40.1168C24.6763 39.7603 24.6229 39.3775 24.6229 39.0002C24.6229 38.3857 24.7629 37.7937 25.1244 37.3108C25.4691 36.8436 26.1471 36.364 26.9021 36.016C27.6566 35.6646 28.4921 35.4386 29.1296 35.4206L29.12 35.1092L28.8086 35.1165L28.8749 37.9124L29.007 38.0029L29.1825 37.7454L29.4939 37.7381L29.4236 34.7876L29.1099 34.7977C28.3504 34.8225 27.4598 35.0715 26.6401 35.451C25.821 35.8333 25.0755 36.3393 24.6252 36.9375C24.1614 37.5582 23.9994 38.2947 24 39.0002C24 39.4359 24.0607 39.8638 24.154 40.2596C24.3272 40.9961 24.6241 41.7776 25.134 42.4798C25.6433 43.182 26.3703 43.8015 27.3744 44.1973C27.8927 44.4008 28.4825 44.4942 29.0526 44.4947C29.4838 44.4947 29.9032 44.4413 30.2731 44.3311C30.7904 44.1793 31.1772 43.8617 31.4324 43.4743C31.6899 43.0864 31.8271 42.6344 31.8968 42.1778C31.9182 42.0356 31.9311 41.8776 31.9311 41.705C31.9311 41.149 31.8007 40.444 31.4116 39.7013C31.0237 38.9581 30.3766 38.1811 29.3579 37.4879L29.1825 37.7454L29.4939 37.7381L29.1825 37.7454Z" fill="#F48B88"/>
<path d="M49.974 84.5389C53.598 84.2893 57.5132 83.4701 60.6998 81.5716C60.6998 81.5716 58.2829 70.2312 58.6387 65.0083C58.9946 59.7848 60.5682 56.8158 61.271 52.7583C62.1632 47.6045 59.3691 39.6943 56.9054 35.345C56.4219 34.4916 55.2689 34.2897 54.5335 34.9391C53.4169 35.9258 52.8693 37.4055 53.0751 38.8796C53.0813 38.9268 53.088 38.9741 53.0948 39.0213C53.7874 44.0418 52.6327 49.1405 49.8812 53.3964C48.5561 55.4474 47.0409 57.889 46.0036 59.859C44.0578 63.5561 44.5509 67.6794 44.5509 67.6794" fill="#FFB09F"/>
<path d="M50.0057 85.0049C53.6764 84.7508 57.6574 83.926 60.9396 81.9723C61.1116 81.87 61.1988 81.6693 61.1566 81.4736C61.1566 81.4731 61.1246 81.3218 61.0678 81.0436C60.8676 80.0687 60.3678 77.5489 59.9181 74.6703C59.4677 71.7935 59.0697 68.5501 59.0708 66.1624C59.0708 65.761 59.0815 65.3843 59.1051 65.0397C59.28 62.4687 59.7533 60.4611 60.2756 58.5704C60.7968 56.6819 61.3731 54.907 61.7317 52.8386C61.8532 52.1353 61.9088 51.3909 61.9088 50.6179C61.9077 48.0374 61.2977 45.1285 60.4224 42.3776C59.5459 39.6273 58.4023 37.04 57.3117 35.115C56.935 34.4499 56.2435 34.0873 55.5474 34.0884C55.0825 34.0878 54.6069 34.2509 54.2246 34.5899V34.5893C53.1614 35.5282 52.5655 36.8713 52.5655 38.2673C52.5655 38.4922 52.5807 38.7176 52.6127 38.9442V38.9453C52.6189 38.9908 52.6251 39.0381 52.6324 39.087V39.0853C52.7606 40.0174 52.8241 40.953 52.8241 41.8845C52.8241 45.8577 51.6688 49.7701 49.4891 53.1428C48.1594 55.1999 46.6403 57.6472 45.5901 59.6414C44.2465 62.1994 44.03 64.9081 44.0283 66.452C44.0283 67.2346 44.0862 67.7198 44.0879 67.7344C44.1183 67.9907 44.351 68.174 44.6074 68.1431C44.8638 68.1122 45.0465 67.8794 45.0156 67.6236V67.6208C45.0111 67.5809 44.9627 67.1429 44.9627 66.452C44.961 64.997 45.1792 62.4243 46.4177 60.0765C47.4421 58.1301 48.9527 55.6941 50.2745 53.6499C52.5514 50.1265 53.759 46.0387 53.759 41.8845C53.759 40.9102 53.6927 39.9325 53.5578 38.9577V38.956C53.5516 38.9105 53.5448 38.8632 53.5381 38.8143V38.8154C53.5122 38.6322 53.5004 38.4489 53.5004 38.2673C53.5004 37.1372 53.9822 36.0499 54.8436 35.2898V35.2893C55.0504 35.1077 55.295 35.0239 55.5474 35.0228C55.9258 35.0239 56.2957 35.2167 56.4987 35.5754C57.5512 37.4324 58.6761 39.9747 59.5318 42.6615C60.3886 45.3478 60.9745 48.1841 60.9733 50.6179C60.9733 51.3465 60.9216 52.0386 60.8108 52.679C60.4668 54.6681 59.9046 56.4064 59.375 58.3219C58.8459 60.2356 58.3534 62.3237 58.173 64.9762C58.1477 65.3467 58.1359 65.7436 58.1359 66.1624C58.1364 69.0016 58.6649 72.8628 59.1911 76.032C59.7168 79.1984 60.2419 81.6642 60.243 81.6682L60.6995 81.5715L60.4612 81.1701C57.3701 83.0141 53.5207 83.8271 49.9422 84.0727C49.6847 84.0902 49.4896 84.3134 49.5076 84.5709C49.5256 84.8289 49.7482 85.0223 50.0057 85.0049Z" fill="#F48B88"/>
<path d="M42.9087 122.416L37.1904 82.1002C46.3561 83.8211 54.7353 82.252 62.4364 77.8477L73.3304 115.827L42.9087 122.416Z" fill="#33658A"/>
<path d="M35.4169 29.8643H49.0302C49.948 29.8643 50.6921 30.6086 50.6921 31.5264V37.9855C50.6921 38.9035 49.948 39.6475 49.0302 39.6475H35.4169C34.4989 39.6475 33.7549 38.9035 33.7549 37.9855V31.5264C33.7549 30.6086 34.4989 29.8643 35.4169 29.8643Z" fill="#33658A"/>
<path d="M38.1654 31.5586C38.8892 31.5586 39.4759 32.1452 39.4759 32.8689C39.4759 33.5926 38.8892 34.1794 38.1654 34.1794C37.4418 34.1794 36.8555 33.5926 36.8555 32.8689C36.8555 32.1452 37.4418 31.5586 38.1654 31.5586Z" fill="white"/>
<path d="M35.4922 37.6352C35.4943 36.1589 36.6925 34.9638 38.1689 34.9658C39.6424 34.9677 40.8363 36.1617 40.8382 37.6352" fill="white"/>
<path d="M43.3032 33.0707H45.6094C45.7929 33.0707 45.9418 32.9218 45.9418 32.7382C45.9418 32.5547 45.7929 32.4058 45.6094 32.4058H43.3032C43.1196 32.4058 42.9707 32.5547 42.9707 32.7382C42.9707 32.9218 43.1196 33.0707 43.3032 33.0707Z" fill="white"/>
<path d="M43.1723 35.0883H47.7849C47.9683 35.0883 48.1172 34.9394 48.1172 34.7558C48.1172 34.5722 47.9683 34.4233 47.7849 34.4233H43.1723C42.9887 34.4233 42.8398 34.5722 42.8398 34.7558C42.8398 34.9394 42.9887 35.0883 43.1723 35.0883Z" fill="white"/>
<path d="M43.1723 37.1063H47.7849C47.9683 37.1063 48.1172 36.9574 48.1172 36.7739C48.1172 36.5903 47.9683 36.4414 47.7849 36.4414H43.1723C42.9887 36.4414 42.8398 36.5903 42.8398 36.7739C42.8398 36.9574 42.9887 37.1063 43.1723 37.1063Z" fill="white"/>
</g>
<defs>
<clipPath id="clip0_45_142">
<rect width="89" height="89" fill="white"/>
</clipPath>
</defs>
</svg>
