<svg width="109" height="79" viewBox="0 0 109 79" fill="none" xmlns="http://www.w3.org/2000/svg">
<g clip-path="url(#clip0)">
<path d="M14.733 73.4149L96.9086 73.7341C96.9086 73.7341 109.906 53.9681 106.074 48.3184C101.805 42.0234 84.8388 47.2409 84.8388 47.2409C84.8388 47.2409 82.1212 26.3943 76.5831 23.3257C61.0276 14.7044 22.1521 14.1112 5.25985 21.5675C3.77248 22.2241 14.733 73.4149 14.733 73.4149Z" fill="#DBCFF5"/>
<path d="M96.3857 73.8753H39.5771L43.8762 57.413H105.242L96.3857 73.8753Z" fill="#BBA9E6"/>
<path d="M96.6149 73.8413H39.5762L43.0531 60.5248L44.8463 61.1292C62.0138 66.9153 80.3877 68.1699 98.1837 64.771L101.151 63.8524L96.6149 73.8413Z" fill="#BBA9E6"/>
<path d="M96.8369 73.8451H86.7065C86.7065 73.8451 99.7714 53.8073 95.9456 48.1521C94.8261 46.5131 92.0503 46.7513 88.8005 46.3719C95.9649 44.6075 103.912 44.9613 106.075 48.1521C109.901 53.8073 96.8369 73.8451 96.8369 73.8451Z" fill="#C9B6F5"/>
<path d="M95.0016 57.3788L49.9711 57.6542L23.499 54.485L81.7915 55.4957L95.0016 57.3788Z" fill="#BBA9E6"/>
<path d="M55.0281 78.3469C55.4832 78.7173 56.252 78.8776 58.3223 78.8404C60.4038 78.8032 63.3331 78.7102 63.216 78.5933C62.4831 77.8619 59.6645 77.3128 58.7753 76.7265C58.3515 76.4569 58.1723 75.9294 58.3437 75.4574L56.7126 74.6442C56.6459 74.799 54.573 77.9769 55.0281 78.3469Z" fill="#E8505B"/>
<path d="M74.554 52.9978C70.3423 48.792 50.1244 45.0367 50.1244 45.0367L47.335 56.5487C47.3337 56.5498 47.3337 56.5519 47.3348 56.5531C47.3353 56.5535 47.3357 56.554 47.3364 56.554L66.058 57.093C66.058 57.093 57.4277 72.3579 56.2158 75.1706L59.2434 76.21C60.4509 72.9371 76.3065 54.7485 74.554 52.9978Z" fill="#1A2329"/>
<path d="M46.1907 78.9748C46.6929 79.2788 47.4764 79.3315 49.5214 79.0079C51.5769 78.6828 54.465 78.1853 54.3324 78.0859C53.5051 77.4622 50.6382 77.3083 49.6758 76.8505C49.2186 76.6418 48.967 76.1438 49.0711 75.6525L47.3429 75.0729C47.2984 75.2369 45.6885 78.6723 46.1907 78.9748Z" fill="#E8505B"/>
<path d="M65.4576 53.0974C61.2459 48.8911 41.0278 45.1363 41.0278 45.1363L38.2384 56.6483C38.237 56.6494 38.237 56.6517 38.2381 56.6526C38.2386 56.6531 38.2391 56.6533 38.2398 56.6536L56.9613 57.1921C56.9613 57.1921 48.3308 72.4568 47.1189 75.2696L50.147 76.3092C51.3543 73.0367 67.2103 54.8481 65.4576 53.0974Z" fill="#253138"/>
<path d="M65.665 52.8191L65.2456 52.4484C60.5144 48.8264 46.8361 46.0338 41.0273 45.1361C46.6873 46.4263 60.4264 49.5723 64.8119 52.9815C64.9864 53.15 65.2817 53.3765 65.2341 53.407C65.6878 55.8454 51.4801 72.6442 50.1461 76.309C51.4488 73.326 64.148 59.0555 65.7947 54.2703C65.9557 53.7347 66.0537 53.1891 65.665 52.8191Z" fill="#1A2329"/>
<path d="M52.4113 37.9447L61.0807 44.298C61.0807 44.298 62.2261 46.2092 62.8757 46.7762C63.5254 47.3432 64.0814 48.5534 63.7873 48.7183C63.4929 48.8832 62.9268 47.6275 62.761 47.5845C62.5952 47.5416 62.853 48.8446 62.6706 49.5432C62.4883 50.2418 62.4308 50.9728 62.0677 50.7501C61.7046 50.5275 62.0955 48.9459 62.0955 48.9459C62.0955 48.9459 62.0086 47.5804 61.8527 47.6677C61.6967 47.7549 61.8414 48.7305 61.8414 48.7305C61.8414 48.7305 61.5818 49.6 61.5006 49.9104C61.4403 50.1422 60.9377 50.6945 60.8714 50.3801C60.8323 50.1952 61.126 49.6852 61.1458 49.3287C61.1658 48.8573 61.1212 48.3851 61.0128 47.9258C61.0128 47.9258 60.584 49.9807 60.2935 49.9049C60.0031 49.8292 60.4347 48.1612 60.4347 48.1612C60.4347 48.1612 60.3671 46.5821 60.1316 46.3394C59.8962 46.0969 59.3302 45.2552 58.8119 44.7794C58.2936 44.3035 55.4522 43.8513 54.3165 43.3638C53.1807 42.8762 48.7331 40.449 48.9727 39.5309C49.2123 38.6128 52.4113 37.9447 52.4113 37.9447Z" fill="#FFBD9D"/>
<path d="M40.1992 18.9139C40.1992 18.9139 42.233 18.4353 45.1521 21.3507C48.0711 24.2661 50.5519 35.0046 52.4288 36.879C54.3058 38.7534 54.3182 38.3586 54.3182 38.3586L47.8667 41.2337C47.8667 41.2337 44.8717 40.0271 43.7935 35.6407C42.7152 31.2544 40.1992 18.9139 40.1992 18.9139Z" fill="#2130DC"/>
<path d="M32.836 18.1794C32.836 18.1794 27.8585 19.5346 27.4014 19.7206C27.4014 19.7206 30.002 31.1544 31.9003 34.464C33.7986 37.7735 38.2917 52.8393 38.2917 52.8393L56.7026 45.78C56.5676 45.8319 55.8954 45.3014 55.788 45.2323C55.0027 44.728 54.2494 44.1764 53.5312 43.5806C51.4232 41.8355 49.5658 39.7011 48.4321 37.1934C47.0784 34.1987 47.5429 30.7861 46.833 27.6399C46.2894 25.2285 45.6306 21.9904 43.7615 20.2093C42.1419 18.6649 39.0034 18.0802 37.7715 18.1803C36.1294 18.3266 34.4779 18.3261 32.836 18.1794Z" fill="#3745E2"/>
<path d="M34.2451 14.2148C34.1301 14.1107 33.2277 9.88607 33.2277 9.88607C33.2277 9.88607 32.6846 6.73779 33.4657 6.36001C34.2469 5.98223 36.2022 4.53865 37.6489 4.76325C38.5283 4.87486 39.3688 5.192 40.1016 5.68966C40.2166 5.79369 40.8729 7.5147 40.8729 7.5147C40.8729 7.5147 40.5314 6.91347 39.9607 8.81705C39.3899 10.7206 34.2451 14.2148 34.2451 14.2148Z" fill="#301F15"/>
<path d="M37.9142 14.6835C37.6532 15.1566 39.075 20.5763 37.7723 21.2823C37.3542 21.509 32.1153 21.1599 32.6134 17.8972C33.1115 14.6346 34.1194 10.8734 34.1194 10.8734L37.9142 14.6835Z" fill="#FFBD9D"/>
<path d="M33.5498 13.179C33.8393 15.5162 36.0676 18.5657 38.2336 17.8908C38.1262 16.6484 37.7932 15.0018 37.9144 14.6835L34.1199 10.8734C34.1093 10.9145 33.8701 11.7998 33.5498 13.179Z" fill="#EB996D"/>
<path d="M34.488 7.8691C33.7266 9.07362 33.2742 11.4441 34.2157 13.4645C35.1571 15.485 36.7344 16.7212 38.1441 16.0366C39.5537 15.3521 40.9268 9.73157 40.2854 8.10839C39.6441 6.48522 35.6483 6.03326 34.488 7.8691Z" fill="#FFBD9D"/>
<path d="M33.5159 13.3251C33.5159 13.3251 33.567 11.4163 32.9244 10.8345C32.2819 10.2528 32.0046 9.9187 31.9913 9.2387C31.9779 8.5587 29.6425 7.69062 30.2293 6.68107C30.8162 5.67153 32.7961 5.50227 34.0926 3.79619C35.3891 2.09012 36.6114 1.23535 38.729 2.31747C40.8467 3.39959 40.918 4.80207 40.918 4.80207C40.918 4.80207 41.9365 4.80873 42.3322 6.08214C42.728 7.35556 42.1763 7.94232 41.69 8.41907C41.69 8.41907 42.0485 6.89465 41.4938 6.90613C40.9392 6.91761 41.1765 8.70706 41.1765 8.70706C40.6676 8.09687 40.2104 7.44535 39.8101 6.75938C39.1324 5.60355 39.134 6.81473 39.16 8.13224C39.186 9.44975 37.4992 7.91246 36.8186 6.84252C36.1379 5.77257 34.7761 6.41743 34.1016 7.64308C33.4271 8.86873 34.9635 11.2557 33.5159 13.3251Z" fill="#3D2B1F"/>
<path d="M34.5411 9.98144C34.5411 9.98144 33.989 8.51191 33.4745 9.01714C32.9601 9.52237 32.9916 11.3086 33.8588 11.4804C34.726 11.6522 34.5411 9.98144 34.5411 9.98144Z" fill="#FFBD9D"/>
<path d="M34.0775 9.99923C34.0775 9.99923 34.2451 9.2345 33.7753 9.41431C33.3055 9.59413 33.512 10.9068 33.9073 10.9527C34.3026 10.9987 34.0775 9.99923 34.0775 9.99923Z" fill="#EB996D"/>
<path d="M39.9466 10.971C39.8971 11.1366 39.7247 11.2328 39.5575 11.1883C39.3928 11.1517 39.2891 10.9887 39.3257 10.8243C39.3264 10.822 39.3268 10.8194 39.3275 10.8169C39.3765 10.6511 39.5488 10.5549 39.7159 10.5994C39.8806 10.636 39.985 10.7985 39.9484 10.963C39.9477 10.9657 39.9473 10.9683 39.9466 10.971Z" fill="#253138"/>
<path d="M40.2069 10.5367C40.157 10.5648 39.9781 10.3229 39.6493 10.223C39.3225 10.1186 39.0284 10.2134 39.0054 10.1622C38.9934 10.1392 39.0539 10.0791 39.1825 10.035C39.3545 9.98053 39.5396 9.98053 39.7116 10.035C39.8825 10.0866 40.0326 10.1911 40.14 10.3335C40.2196 10.4421 40.2311 10.5246 40.2069 10.5367Z" fill="#253138"/>
<path d="M37.5109 10.7599C37.4614 10.9254 37.289 11.0219 37.1218 10.9773C36.9571 10.9408 36.8534 10.7778 36.8902 10.6133C36.8907 10.611 36.8914 10.6083 36.8918 10.6058C36.9408 10.4399 37.1133 10.3437 37.2805 10.3885C37.4454 10.4252 37.5493 10.5881 37.5127 10.7527C37.512 10.7553 37.5116 10.7573 37.5109 10.7599Z" fill="#253138"/>
<path d="M37.6905 10.1773C37.6468 10.2145 37.424 10.0112 37.0832 9.97565C36.7424 9.93523 36.472 10.0847 36.4396 10.0388C36.4235 10.0186 36.4711 9.94786 36.589 9.88034C36.7475 9.79422 36.9289 9.75886 37.1083 9.77952C37.2858 9.79767 37.4532 9.87161 37.5857 9.99103C37.6841 10.0824 37.7117 10.1607 37.6905 10.1773Z" fill="#253138"/>
<path d="M37.666 13.2365C37.8534 13.2652 38.0367 13.3171 38.2115 13.3911C38.294 13.4216 38.3761 13.4425 38.4159 13.395C38.4624 13.3171 38.4842 13.2269 38.478 13.1361C38.4971 12.9097 38.5173 12.6718 38.5387 12.4231C38.6332 11.4117 38.7431 10.5953 38.7836 10.5999C38.8241 10.6042 38.7808 11.4271 38.6861 12.4385C38.661 12.6869 38.6371 12.9239 38.6139 13.1504C38.6169 13.2696 38.5776 13.386 38.5033 13.4792C38.4527 13.524 38.3839 13.5433 38.3173 13.5311C38.2678 13.522 38.2198 13.5063 38.174 13.4852C37.9949 13.4241 37.824 13.3405 37.666 13.2365Z" fill="#253138"/>
<path d="M38.657 14.5262C38.623 14.4774 38.312 14.7202 37.8833 14.6273C37.4544 14.5342 37.2297 14.1783 37.1845 14.2097C37.1625 14.2204 37.182 14.3308 37.2876 14.4732C37.4275 14.6568 37.6281 14.7852 37.8535 14.8359C38.0702 14.8844 38.2971 14.847 38.4866 14.7314C38.6256 14.6423 38.6754 14.5467 38.657 14.5262Z" fill="#253138"/>
<path d="M37.9287 9.20655C37.882 9.29405 37.5485 9.20196 37.1427 9.19369C36.737 9.17692 36.3985 9.24789 36.3574 9.1574C36.3392 9.11377 36.4079 9.03546 36.5507 8.96404C36.9343 8.79203 37.3758 8.80581 37.7477 9.00147C37.8859 9.08162 37.9484 9.16475 37.9287 9.20655Z" fill="#253138"/>
<path d="M40.1486 9.61337C40.0679 9.6701 39.8653 9.52335 39.5944 9.43631C39.3265 9.33963 39.0763 9.33228 39.0473 9.23789C39.0358 9.19311 39.0949 9.1295 39.2172 9.09C39.547 9.00181 39.8975 9.12146 40.1044 9.39245C40.1769 9.49855 40.1851 9.5849 40.1486 9.61337Z" fill="#253138"/>
<path d="M50.7823 48.1544C46.5131 41.8595 20.3488 47.0776 20.3488 47.0776C19.9417 43.7309 19.3498 40.3945 18.6471 37.0999C17.6649 32.4938 16.6361 26.6343 13.5084 22.9121C9.52672 18.1739 1.57179 21.6332 0.388199 26.8727C-0.591422 31.2096 0.467994 36.4434 1.5212 40.6641C4.00176 50.6048 8.12881 60.1792 12.5403 69.4024C12.716 69.7699 14.3202 73.8437 14.7325 73.8437H41.544C41.544 73.8437 54.6136 53.8048 50.7823 48.1544Z" fill="#C9B6F5"/>
<path d="M33.6874 40.0477L44.0959 43.3164C44.0959 43.3164 46.5114 45.2414 47.6192 45.6539C48.7271 46.0666 50.0432 47.3722 49.7555 47.7401C49.4679 48.1081 48.1159 46.7474 47.8843 46.7766C47.6528 46.806 48.6399 48.3861 48.7639 49.3981C48.8878 50.4095 49.1854 51.4004 48.6148 51.2942C48.0443 51.1882 47.7346 48.9074 47.7346 48.9074C47.7346 48.9074 46.9315 47.1572 46.7799 47.3516C46.6283 47.5461 47.3044 48.755 47.3044 48.755C47.3044 48.755 47.4177 50.031 47.4731 50.4808C47.5142 50.8166 47.1605 51.8002 46.9169 51.4212C46.774 51.1984 46.8858 50.3773 46.7302 49.8984C46.5173 49.2698 46.2214 48.6724 45.8504 48.1219C45.8504 48.1219 46.3518 51.0434 45.9464 51.0925C45.541 51.1416 45.2403 48.7288 45.2403 48.7288C45.2403 48.7288 44.3536 46.6877 43.9336 46.489C43.5137 46.2902 42.3714 45.4749 41.4754 45.1149C40.5795 44.7548 36.7628 45.6169 35.081 45.5583C33.3992 45.4997 30.7221 44.3285 30.5589 42.9984C30.3956 41.6682 33.6874 40.0477 33.6874 40.0477Z" fill="#FFBD9D"/>
<path d="M27.4744 19.9073C26.4755 19.9135 25.0502 20.4846 24.7284 22.8061C24.2537 26.2261 30.8217 43.3787 30.8217 43.3787L35.3971 40.3888C35.3971 40.3888 33.6521 39.7508 33.5937 35.1403C33.5354 30.5297 31.5734 19.8818 27.4744 19.9073Z" fill="#2130DC"/>
<path d="M66.2373 34.0818L58.4824 51.0677L68.4067 50.1014L76.8321 33.8421L66.2373 34.0818Z" fill="#BEBEBE"/>
<path d="M58.9221 46.4032L49.3853 47.6895L58.4822 51.0688L68.0142 49.9302L58.9221 46.4032Z" fill="#BEBEBE"/>
<path d="M66.237 34.0819L58.4822 51.0678L49.3853 47.6882L58.0142 50.1377L66.237 34.0819Z" fill="#9D9D9D"/>
<path d="M72.1105 42.954L73.3463 40.5693L71.4377 33.9645L69.5249 34.0079L72.1105 42.954Z" fill="#9D9D9D"/>
<path d="M70.3938 46.2653L71.6296 43.8806L68.78 34.0244L66.8677 34.0676L70.3938 46.2653Z" fill="#9D9D9D"/>
</g>
<defs>
<clipPath id="clip0">
<rect width="109" height="79" fill="white"/>
</clipPath>
</defs>
</svg>
