<svg width="32" height="32" viewBox="0 0 32 32" fill="none" xmlns="http://www.w3.org/2000/svg">
<circle cx="15.8917" cy="15.8922" r="15.8917" fill="white"/>
<path d="M13.6359 20.7026V17.1203C13.6359 17.0026 13.6359 16.8899 13.6359 16.7722C13.6359 16.4805 13.5797 16.4293 13.2733 16.4191C12.6706 16.4191 12.0679 16.4191 11.4703 16.4191H11.0413C11.0055 16.4228 10.9693 16.4187 10.9352 16.4071C10.9011 16.3955 10.8699 16.3766 10.8437 16.3519C10.8175 16.3271 10.797 16.2971 10.7835 16.2636C10.77 16.2302 10.7639 16.1942 10.7655 16.1582C10.7655 16.0865 10.7655 16.0147 10.7655 15.943C10.7655 15.1396 10.7655 14.3361 10.7655 13.5326C10.7655 13.1079 10.7911 13.0927 11.1997 13.0876H13.1303C13.6001 13.0876 13.641 13.0415 13.641 12.5758C13.641 11.9156 13.641 11.2553 13.641 10.6002C13.6417 10.1686 13.6861 9.73834 13.7738 9.31578C13.9171 8.5104 14.3163 7.77297 14.9117 7.21323C15.5071 6.65349 16.267 6.30121 17.0783 6.20918C17.8339 6.13242 18.5954 6.13242 19.3511 6.20918C19.6218 6.20918 19.8925 6.24519 20.1632 6.26566C20.4338 6.28613 20.5053 6.37809 20.5053 6.6135C20.5053 7.38627 20.5053 8.14883 20.5053 8.93695C20.5053 9.22866 20.4492 9.26956 20.1376 9.2798C19.6933 9.2798 19.2489 9.2798 18.8046 9.2798C18.5189 9.27423 18.2342 9.31585 17.9619 9.40274C17.7676 9.45706 17.5911 9.56191 17.4503 9.70661C17.3094 9.8513 17.2093 10.0306 17.16 10.2266C17.1142 10.3935 17.0885 10.5653 17.0834 10.7384C17.0834 11.3679 17.0834 11.9973 17.0834 12.6268C17.0834 13.0823 17.114 13.113 17.5941 13.1386C18.3092 13.1386 19.0242 13.1386 19.7392 13.1386C20.4543 13.1386 20.4032 13.1387 20.3215 13.7835C20.2295 14.4949 20.1427 15.2062 20.0457 15.9176C19.9691 16.4805 19.9691 16.4806 19.3817 16.4806C18.7944 16.4806 18.1764 16.4806 17.5788 16.4806C17.1294 16.4806 17.0681 16.5164 17.0681 16.9923C17.0681 19.5034 17.0681 22.0128 17.0681 24.5204V24.6074C17.0681 25.1192 17.0681 25.1192 16.5318 25.1192H14.1671C13.6563 25.1192 13.6563 25.1191 13.6563 24.5767V20.7486L13.6359 20.7026Z" fill="url(#paint0_linear)"/>
<defs>
<linearGradient id="paint0_linear" x1="15.6353" y1="11.2728" x2="15.6353" y2="54.1395" gradientUnits="userSpaceOnUse">
<stop stop-color="#33658A"/>
<stop offset="1" stop-color="#0A0A0A" stop-opacity="0.64"/>
</linearGradient>
</defs>
</svg>
