<svg width="456" height="454" viewBox="0 0 456 454" fill="none" xmlns="http://www.w3.org/2000/svg">
<path d="M400.264 388.82C388.42 401.028 377.823 408.204 369.709 413.622C290.58 466.457 200.126 451.229 172.16 446.024C127.04 437.626 88.9529 431.702 56.229 402.137C-18.1294 334.957 -14.5127 194.815 42.3062 108.003C49.0433 97.7094 105.776 13.6135 196.426 1.76367C198.643 1.47389 200.297 1.30888 201.746 1.15542C215.769 -0.329241 302.669 -8.16555 373.527 51.1992C383.67 59.6969 399.993 75.0247 415.129 98.4021C470.476 183.88 470.651 316.267 400.264 388.82Z" fill="#F4F7FA"/>
<path d="M420.354 211.509C420.354 305.433 344.243 385.052 247.137 389.491C146.286 394.101 61.6284 316.427 61.6284 215.838C61.6284 115.249 146.286 35.5317 247.137 37.7076C344.243 39.8026 420.354 117.585 420.354 211.509Z" fill="url(#paint0_linear)"/>
<path d="M428.338 211.508C428.338 305.432 352.227 385.052 255.122 389.491C154.27 394.101 69.6125 316.427 69.6125 215.838C69.6125 115.249 154.27 35.5312 255.122 37.7071C352.227 39.8021 428.338 117.584 428.338 211.508Z" fill="url(#paint1_linear)"/>
<path d="M418.329 211.629C418.329 300.127 346.536 375.007 255.12 379.002C160.391 383.142 81.0415 310.091 81.0415 215.7C81.0415 121.309 160.391 46.3425 255.12 48.1962C346.536 49.9851 418.329 123.132 418.329 211.629Z" fill="url(#paint2_linear)"/>
<path d="M187.584 116.918C191.602 113.506 196 110.274 200.771 107.222C205.535 104.175 210.668 101.539 216.176 99.3078C221.67 97.0835 227.619 95.3515 234.021 94.1106C240.404 92.8755 247.295 92.2976 254.687 92.3797C264.7 92.4911 273.788 93.9458 281.961 96.7375C290.106 99.5203 297.067 103.437 302.847 108.479C308.614 113.513 313.071 119.561 316.227 126.628C319.377 133.687 320.953 141.572 320.953 150.291C320.953 158.787 319.714 166.139 317.24 172.355C314.762 178.576 311.632 183.997 307.851 188.615C304.061 193.243 299.958 197.259 295.535 200.669C291.103 204.085 286.891 207.308 282.903 210.334C278.905 213.367 275.448 216.34 272.529 219.254C269.607 222.171 267.857 225.443 267.284 229.064L263.321 253.877L234.021 254.457L231.055 226.71C230.937 226.144 230.88 225.662 230.88 225.263C230.88 224.865 230.88 224.383 230.88 223.813C230.88 218.809 232.159 214.444 234.718 210.718C237.271 206.999 240.464 203.501 244.287 200.229C248.105 196.962 252.204 193.782 256.589 190.691C260.963 187.604 265.045 184.27 268.833 180.689C272.615 177.113 275.762 173.067 278.278 168.547C280.789 164.034 282.047 158.736 282.047 152.654C282.047 148.6 281.276 144.967 279.735 141.754C278.192 138.54 276.049 135.773 273.302 133.452C270.553 131.131 267.254 129.34 263.408 128.079C259.553 126.819 255.379 126.177 250.878 126.156C244.287 126.125 238.694 126.81 234.108 128.209C229.511 129.613 225.608 131.191 222.4 132.944C219.186 134.702 216.467 136.289 214.244 137.708C212.017 139.131 210.025 139.839 208.265 139.835C204.036 139.827 200.976 138.105 199.094 134.668L187.584 116.918ZM220.911 318.639C220.911 315.109 221.582 311.726 222.926 308.495C224.266 305.268 226.133 302.481 228.523 300.134C230.907 297.793 233.729 295.894 236.983 294.441C240.23 292.99 243.706 292.214 247.411 292.114C250.992 292.017 254.397 292.605 257.626 293.875C260.847 295.143 263.607 296.876 265.906 299.07C268.201 301.265 270.037 303.921 271.412 307.039C272.787 310.157 273.474 313.465 273.474 316.96C273.474 320.572 272.787 323.949 271.412 327.098C270.037 330.25 268.201 332.995 265.906 335.333C263.607 337.677 260.847 339.557 257.626 340.973C254.397 342.391 250.992 343.169 247.411 343.301C243.706 343.437 240.23 342.911 236.983 341.725C233.729 340.539 230.907 338.85 228.523 336.658C226.133 334.467 224.266 331.828 222.926 328.741C221.582 325.654 220.911 322.287 220.911 318.639Z" fill="white"/>
<g opacity="0.39">
<g style="mix-blend-mode:multiply">
<path style="mix-blend-mode:multiply" d="M176.959 137.394C170.995 117.956 171.269 88.433 200.35 44.8149C125.329 66.4267 69.6125 134.458 69.6125 215.837C69.6125 316.427 154.27 394.1 255.122 389.49C292.308 387.79 326.354 375.097 354.175 354.957C353.313 328.131 347.477 298.766 331.064 271.681C285.936 197.206 195.671 198.379 176.959 137.394Z" fill="url(#paint3_linear)"/>
</g>
</g>
<path d="M431.765 10.8677L307.886 6.07403C298.829 5.8774 291.514 12.8626 291.574 21.6768L291.908 70.1447L272.245 89.1395L292.04 89.2507L308.025 89.3405L437.376 90.0675C445.956 90.1157 452.842 83.2309 452.784 74.69L452.439 24.6759C452.38 16.135 440.346 11.0541 431.765 10.8677Z" fill="url(#paint4_linear)"/>
<path d="M438.998 8.8597L310.066 6.05939C301.01 5.86275 293.694 12.848 293.755 21.6622L294.089 70.13L274.426 89.1248L294.22 89.236L310.205 89.3258L439.557 90.0529C448.137 90.1011 455.023 83.2162 454.964 74.6753L454.62 24.6613C454.561 16.1203 447.579 9.04612 438.998 8.8597Z" fill="url(#paint5_linear)"/>
<path d="M309.9 35.7401L436.956 37.7703L436.914 31.765L309.858 29.5835L309.9 35.7401Z" fill="white"/>
<path d="M309.981 47.7279L437.035 49.4638L436.993 43.4584L309.939 41.5713L309.981 47.7279Z" fill="white"/>
<path d="M360.055 60.2827L437.116 61.157L437.074 55.1516L360.013 54.1855L360.055 60.2827Z" fill="white"/>
<path d="M283.43 422.079C306.248 419.307 310.958 424.669 334.171 423.617C357.004 422.582 358.571 417.117 377.223 418.236C393.993 419.241 415.586 425.03 415.663 431.305C415.747 438.212 389.792 447.923 364.923 444.375C351.084 442.4 352.039 438.382 338.784 436.687C314.769 433.614 307.709 446.298 283.43 443.606C269.383 442.048 254.717 435.914 254.985 431.305C255.323 425.495 279.365 422.573 283.43 422.079Z" fill="#D8DEE8"/>
<path d="M335.416 424.102C329.382 388.935 333.263 360.933 336.981 344.065C341.49 323.601 350.658 281.999 384.61 259.667C387.286 257.908 413.836 240.786 425.258 250.021C431.148 254.784 432.195 265.895 429.3 274.553C421.826 296.91 391.225 293.495 380.27 318.866C376.622 327.315 375.683 337.729 378.02 338.783C380.898 340.08 389.589 327.571 390.417 326.378C398.164 315.226 398.425 308.789 404.126 307.21C407.627 306.241 412.17 307.383 414.134 310.184C418.606 316.561 408.983 330.503 406.293 334.401C399.256 344.596 393.567 346.79 391.938 355.6C391.236 359.393 391.173 365.029 393.408 365.974C396.429 367.253 402.501 359.465 406.396 354.469C416.868 341.036 418.178 333.085 423.198 332.661C427.881 332.266 432.956 338.662 434.194 342.504C437.573 352.989 422.095 374.633 335.416 424.102Z" fill="url(#paint6_linear)"/>
<g style="mix-blend-mode:soft-light" opacity="0.28">
<g style="mix-blend-mode:soft-light" opacity="0.28">
<path d="M336.661 418.137C336.57 385.623 342.594 360.028 347.859 343.273C354.628 321.734 367.358 281.223 400.19 264.504C402.524 263.316 419.689 254.575 424.261 259.665C427.308 263.059 424.251 272.034 419.446 277.894C411.247 287.895 402.274 283.564 389.082 293.227C377.246 301.898 372.822 313.918 371.71 317.064C367.588 328.738 369.247 338.901 369.668 342.639C371.268 356.84 366.443 379.879 336.661 418.137Z" fill="white"/>
</g>
</g>
<g style="mix-blend-mode:soft-light" opacity="0.28">
<g style="mix-blend-mode:soft-light" opacity="0.28">
<path d="M348.429 410.369C367.027 394.683 371.61 381.514 372.209 372.196C372.675 364.936 370.965 356.252 376.761 348.405C380.469 343.385 383.125 344.29 389.433 338.954C402.611 327.808 404.667 312.317 407.295 312.995C408.758 313.373 409.37 318.493 408.271 323.279C406.003 333.154 398.203 333.965 390.084 345.81C384.537 353.902 382.458 361.867 381.364 366.059C378.694 376.286 380.192 379.947 378.645 385.632C376.642 392.999 369.902 402.385 348.429 410.369Z" fill="white"/>
</g>
</g>
<path d="M346.351 429.649C377.795 430.922 387.165 432.647 401.883 427.354C415.714 422.38 429.826 412.806 428.5 408.542C427.55 405.484 418.817 405.671 413.602 405.783C399.605 406.084 388.134 410.565 380.104 414.845C387.01 409.987 393.938 403.44 400.221 397.829C404.815 395.459 412.489 390.707 418.688 382.003C422.568 376.554 431.22 362.044 426.468 356.261C421.505 350.22 402.279 354.139 392.34 364.973C387.572 370.171 388.023 373.602 381.874 382.387C376.285 390.371 371.108 394.75 366.36 397.585C370.758 391.894 376.782 383.919 382.004 372.366C389.939 354.81 396.557 326.785 387.648 321.261C381.739 317.597 369.437 324.107 363.079 332.172C357.924 338.711 358.161 344.39 353.891 365.924C352.034 375.286 350.069 383.488 349.215 388.239C339.529 367.902 338.775 351.055 338.734 338.429C338.682 322.204 341.869 309.62 335.809 305.997C330.408 302.767 320.313 308.244 315.092 313.553C293.961 335.04 318.398 389.346 321.327 394.727C313.766 389.198 304.117 380.646 294.871 367.457C284.983 353.353 281.029 343.027 275.607 343.659C270.214 344.288 266.114 355.492 266.069 364.321C265.944 388.937 298.119 405.429 301.593 406.869C298.882 407.353 294.842 407.438 289.463 406.226C277.535 403.54 274.031 396.14 261.934 393.269C257.308 392.171 247.817 390.879 246.548 393.724C244.271 398.83 267.685 419.062 296.626 427.435C307.235 430.504 305.242 427.985 346.351 429.649Z" fill="url(#paint7_linear)"/>
<g style="mix-blend-mode:soft-light" opacity="0.28">
<g style="mix-blend-mode:soft-light" opacity="0.28">
<path d="M366.783 411.397C380.978 404.799 378.015 396.311 392.076 383.657C401.081 375.554 403.712 377.717 413.467 369.818C418.832 365.473 423.06 360.748 426.396 356.186C426.419 356.212 426.445 356.235 426.467 356.261C431.219 362.044 422.567 376.555 418.686 382.004C412.488 390.708 404.814 395.46 400.22 397.83C393.937 403.44 387.009 409.987 380.103 414.845C388.133 410.565 399.604 406.084 413.6 405.784C418.147 405.686 425.365 405.532 427.771 407.52C423.612 410.197 419.851 411.515 416.784 412.195C409.791 413.744 405.362 412.217 399.353 415.978C394.532 418.995 394.98 421.482 390.719 423.143C386.709 424.707 384.621 423.163 374.636 421.695C364.923 420.268 359.987 419.605 356.115 422.13C353.188 424.038 351.668 427.13 350.847 429.84C349.842 429.796 348.815 429.751 347.76 429.707C348.487 426.598 349.858 423.026 352.528 419.811C356.761 414.714 361.472 413.866 366.783 411.397Z" fill="white"/>
</g>
</g>
<g style="mix-blend-mode:soft-light" opacity="0.28">
<g style="mix-blend-mode:soft-light" opacity="0.28">
<path d="M326.213 423.071C323.944 422.568 322.891 424.202 319.759 424.663C313.94 425.518 311.673 420.743 304.779 418.571C296.62 416.001 294.554 420.573 286.586 417.814C280.279 415.63 281.208 412.371 273.041 407.3C264.35 401.903 260.529 403.874 254.157 399.446C252.109 398.022 249.787 395.928 247.617 392.718C250.531 391.26 257.993 392.334 261.933 393.269C274.029 396.14 277.533 403.54 289.461 406.226C294.84 407.438 298.88 407.353 301.592 406.869C298.117 405.429 265.942 388.937 266.068 364.322C266.109 356.131 269.641 345.904 274.456 343.963C273.61 349.607 273.286 354.453 273.179 358.272C272.931 367.156 272.86 371.677 275.48 375.521C280.025 382.191 286.131 379.143 293.889 386.229C300.951 392.681 298.456 397.62 306.307 403.624C313.081 408.805 317.011 406.811 323.373 410.997C327.365 413.623 332.244 418.642 335.303 429.264C333.991 429.227 332.734 429.194 331.539 429.166C330.351 426.158 328.658 423.613 326.213 423.071Z" fill="white"/>
</g>
</g>
<g style="mix-blend-mode:soft-light" opacity="0.28">
<g style="mix-blend-mode:soft-light" opacity="0.28">
<path d="M332.799 389.121C329.33 378.36 322.527 379.18 320.079 369.728C317.647 360.331 323.895 357.691 322.869 344.184C322.1 334.065 318.356 332.43 318.378 325.536C318.394 320.453 320.46 313.61 329.075 305.369C331.61 304.81 333.978 304.903 335.808 305.997C341.868 309.62 338.681 322.204 338.733 338.429C338.774 351.056 339.528 367.903 349.214 388.239C350.068 383.488 352.033 375.286 353.889 365.924C358.16 344.39 357.923 338.711 363.078 332.172C369.435 324.107 381.738 317.597 387.647 321.261C387.985 321.471 388.298 321.716 388.591 321.988C385.484 323.919 382.591 326.33 380.116 329.352C371.68 339.653 375.898 347.469 367.768 368.149C359.948 388.038 352.993 389.527 347.652 407.165C345.946 412.797 344.375 420.242 344.181 429.564C342.122 429.484 340.182 429.416 338.346 429.357C336.121 422.482 335.023 416.316 334.51 411.077C333.382 399.543 335.143 396.389 332.799 389.121Z" fill="white"/>
</g>
</g>
<path d="M95.5574 420.254C131.045 420.566 167.926 420.89 169.075 428.608C170.105 435.52 142.032 445.408 125.633 449.494C109.55 453.501 81.9886 457.585 49.6088 448.659C37.7301 445.384 8.48526 435.748 9.50809 428.608C10.8116 419.509 60.4869 419.945 95.5574 420.254Z" fill="#D8DEE8"/>
<path d="M116.802 427.226C116.802 427.226 115.548 428.4 115.545 430.477C115.544 431.096 115.826 431.687 116.327 432.082C117.427 432.948 119.859 434.657 123.648 436.236C129.007 438.468 130.818 438.272 131.043 437.378C131.268 436.484 128.513 434.045 126.15 431.915C123.788 429.785 116.802 427.226 116.802 427.226Z" fill="url(#paint8_linear)"/>
<path d="M115.093 418.883C115.093 418.883 116.789 427.006 116.645 429.97C116.645 429.97 118.789 431.87 121.841 429.97C121.841 429.97 120.281 422.553 121.049 419.478L115.093 418.883Z" fill="url(#paint9_linear)"/>
<path d="M136.22 249.192C136.74 273.578 136.398 299.739 134.797 327.45C132.797 362.064 129.12 394.141 124.552 423.351C122.921 423.803 120.68 424.237 118.007 424.204C116.123 424.181 114.486 423.933 113.169 423.636C112.427 420.188 111.271 414.938 109.754 408.553C107.008 396.991 106.344 395.451 105.486 391.479C101.923 375.002 106.602 370.344 104.347 353.346C103.853 349.618 103.642 349.948 98.656 332.003C92.4394 309.629 89.2977 298.449 87.8422 289.886C83.9356 266.908 81.9827 255.418 88.4113 248.339C96.812 239.087 116.347 240.528 136.22 249.192Z" fill="url(#paint10_linear)"/>
<g style="mix-blend-mode:multiply" opacity="0.3">
<path style="mix-blend-mode:multiply" opacity="0.3" d="M119.145 409.406C116.477 401.836 121.16 397.987 121.137 384.933C121.117 373.673 117.625 372.267 116.584 359.607C115.629 347.999 118.195 344.697 118.86 333.995C120.114 313.823 112.146 307.056 110.608 291.593C109.548 280.947 111.475 265.459 125.662 245.263C109.722 240.359 95.3105 240.74 88.411 248.338C81.9823 255.418 83.9354 266.907 87.842 289.886C89.2975 298.448 92.4391 309.629 98.6557 332.002C103.642 349.947 103.853 349.617 104.347 353.345C106.602 370.344 101.923 375.002 105.486 391.479C106.344 395.451 107.007 396.991 109.754 408.553C111.271 414.937 112.427 420.187 113.169 423.635C114.486 423.932 116.123 424.181 118.006 424.204C120.679 424.237 122.92 423.803 124.552 423.35C124.831 421.566 125.106 419.771 125.378 417.965C122.688 415.731 120.387 412.931 119.145 409.406Z" fill="url(#paint11_linear)"/>
</g>
<path d="M56.7831 430.013C56.7831 430.013 55.3779 431.003 55.0878 433.059C55.0013 433.672 55.1982 434.297 55.6398 434.757C56.6093 435.767 58.7814 437.796 62.3151 439.884C67.3139 442.837 69.1348 442.893 69.4815 442.039C69.8281 441.184 67.4364 438.388 65.3919 435.952C63.3475 433.515 56.7831 430.013 56.7831 430.013Z" fill="url(#paint12_linear)"/>
<path d="M54.2676 422.518C54.2676 422.518 55.9642 430.641 55.8192 433.605C55.8192 433.605 57.9634 435.505 61.0152 433.605C61.0152 433.605 59.4557 426.188 60.2237 423.113L54.2676 422.518Z" fill="url(#paint13_linear)"/>
<path d="M110.044 247.485C100.259 274.054 90.7089 303.584 82.2189 335.894C73.9632 367.313 67.8752 396.923 63.3735 424.204C62.1031 424.788 59.685 425.694 56.544 425.627C53.8647 425.571 51.7792 424.829 50.56 424.288C47.4061 416.288 44.1129 405.881 42.1628 393.442C40.9108 385.457 39.5469 376.757 40.6077 365.583C42.0175 350.736 46.106 348.39 48.0067 333.71C49.4272 322.739 47.5943 320.57 47.153 304.684C46.4685 280.045 46.1156 267.346 52.2753 258.583C65.508 239.757 103.713 246.325 110.044 247.485Z" fill="url(#paint14_linear)"/>
<path d="M43.2639 137.641C47.5103 133.197 61.9922 119.148 85.7731 115.627C109.982 112.043 128.18 121.686 133.446 124.727C143.641 147.391 143.481 163.761 141.347 174.634C140.043 181.282 138.399 183.85 137.648 191.993C136.35 206.068 139.976 212.35 143.081 230.445C143.983 235.699 149.161 265.88 142.77 268.259C139.307 269.548 136.555 261.147 126.55 259.152C119.643 257.776 117.3 261.051 108.337 260.29C100.122 259.594 99.7743 256.646 93.1218 255.628C82.4663 253.996 78.6151 260.831 58.2812 267.059C48.2092 270.143 40.4065 272.434 36.7136 268.717C34.3096 266.297 34.3694 262.059 36.392 253.308C40.4796 235.624 45.8688 228.569 49.4687 217.892C53.4898 205.967 52.9351 196.474 51.9915 180.326C51.0262 163.804 47.4707 149.407 43.2639 137.641Z" fill="url(#paint15_linear)"/>
<g style="mix-blend-mode:multiply" opacity="0.3">
<path style="mix-blend-mode:multiply" opacity="0.3" d="M145.901 255.649C138.651 255.363 134.5 253.093 131.957 250.616C124.798 243.643 129.073 233.815 121.285 227.565C111.61 219.801 98.5086 229.749 91.8318 222.87C85.6165 216.466 95.3559 206.184 90.9781 187.44C90.139 183.849 87.2852 171.63 77.3187 163.536C65.3804 153.841 54.28 159.032 47.8653 151.157C47.6224 150.86 47.3873 150.542 47.1609 150.206C49.5411 159.198 51.3463 169.285 51.9915 180.326C52.9351 196.475 53.4898 205.967 49.4687 217.892C45.8688 228.569 40.4796 235.625 36.392 253.308C34.3694 262.059 34.3096 266.297 36.7136 268.717C40.4066 272.434 48.2092 270.143 58.2812 267.059C78.6151 260.831 82.4663 253.996 93.1218 255.628C99.7743 256.646 100.121 259.594 108.337 260.291C117.3 261.051 119.643 257.776 126.55 259.153C136.555 261.147 139.307 269.548 142.77 268.259C145.298 267.318 146.012 262.025 145.901 255.649Z" fill="url(#paint16_linear)"/>
</g>
<path d="M123.136 127.396C123.812 124.555 124.45 122.426 126.113 121.824C132.906 119.362 151.92 144.135 156.306 171.458C156.765 174.324 160.806 199.515 151.775 203.57C144.613 206.786 132.404 195.124 126.266 186.587C113.1 168.275 118.479 146.953 123.136 127.396Z" fill="url(#paint17_linear)"/>
<path d="M46.7097 217.778C44.9749 217.636 21.0819 215.324 11.9451 196.679C2.46112 177.325 16.9864 156.927 21.4327 150.683C38.5246 126.68 77.7957 112.552 84.2685 120.021C88.9344 125.405 74.684 144.867 68.144 153.562C56.326 169.275 43.8849 169.866 40.9383 181C39.5275 186.331 40.0832 194.872 50.8727 208.007C49.4851 211.263 48.0974 214.521 46.7097 217.778Z" fill="url(#paint18_linear)"/>
<path d="M49.4247 211.402C49.4247 211.402 53.2324 207.18 56.4238 208.07C59.6153 208.96 63.6265 212.848 63.6265 212.848C63.6265 212.848 63.5828 216.689 60.6072 215.588C57.6315 214.487 47.6246 215.628 47.6246 215.628L49.4247 211.402Z" fill="url(#paint19_linear)"/>
<path d="M87.8291 100.141C88.5802 102.217 89.5784 106.797 87.3442 110.928C85.3878 114.545 81.7548 116.134 80.3018 116.785C76.7902 118.36 74.6779 117.889 74.5831 118.552C74.3731 120.021 84.3843 124.761 94.74 122.68C100.826 121.457 106.59 117.967 106.207 116.009C105.778 113.813 97.9584 115.339 95.2656 111.085C93.5448 108.366 94.6775 104.487 96.0874 101.381C94.0781 99.689 89.8435 101.837 87.8291 100.141Z" fill="url(#paint20_linear)"/>
<path d="M99.4792 100.344C100.354 98.4277 99.9422 95.4691 98.3111 93.8699C96.907 92.4934 95.0712 92.619 93.9715 92.6936C90.7812 92.9112 87.0659 95.1266 86.2074 98.5716C85.6985 100.615 88.1001 104.174 88.491 104.822C88.9333 105.555 89.5446 105.714 90.1667 106.21C91.0289 106.899 92.3817 107.996 94.5972 109.839C94.6342 109.157 94.7209 108.304 94.9253 107.357C95.0039 106.993 95.3259 105.568 95.9598 104.313C97.229 101.8 98.6494 102.161 99.4792 100.344Z" fill="url(#paint21_linear)"/>
<path d="M91.6481 108.507C91.6481 108.507 94.3128 111.814 98.3551 110.696C101.967 109.697 101.02 100.549 98.3732 99.0943C97.4895 98.6091 95.8851 98.6529 94.6796 99.2969C93.9671 99.6779 93.7691 100.072 92.5933 100.669C91.5076 101.221 91.1635 101.146 90.8715 101.533C90.5066 102.017 90.3509 103.058 91.5019 105.564C90.6743 104.923 89.7848 104.791 89.2396 105.219C89.1526 105.288 88.9312 105.527 88.8359 105.842C88.4914 106.98 89.5667 108.131 91.6481 108.507Z" fill="url(#paint22_linear)"/>
<path d="M95.5231 112.403C94.1127 111.657 94.277 109.914 94.6262 108.654C94.8213 107.95 95.6741 107.678 96.2531 108.123C97.1497 108.812 98.4534 109.687 99.5991 109.969C101.582 110.457 103.233 121.298 103.233 121.298L101.547 122.441C101.547 122.441 99.87 118.443 98.0628 115.458C97.1882 114.013 96.2831 112.806 95.5231 112.403Z" fill="url(#paint23_linear)"/>
<path d="M98.7916 119.914L103.493 117.826C108.898 127.516 114.02 134.826 117.638 139.644C123.624 147.617 127.427 151.348 137.245 164.261C142.808 171.578 144.904 174.741 146.935 178.336C150.734 185.063 157.299 196.684 152.987 202.115C151.94 203.435 150.596 203.953 149.243 204.475C143.03 206.87 136.497 203.709 133.209 202.061C116.096 193.483 106.272 175.465 106.272 175.465C93.8052 152.597 97.0175 129.081 98.7916 119.914Z" fill="url(#paint24_linear)"/>
<defs>
<linearGradient id="paint0_linear" x1="114.616" y1="454.797" x2="385.15" y2="-62.3695" gradientUnits="userSpaceOnUse">
<stop stop-color="#1DBF73"/>
<stop offset="0.5" stop-color="#35396D"/>
<stop offset="1" stop-color="#1DBF73"/>
</linearGradient>
<linearGradient id="paint1_linear" x1="122.625" y1="454.796" x2="393.159" y2="-62.37" gradientUnits="userSpaceOnUse">
<stop stop-color="#02C650"/>
<stop offset="0.5" stop-color="#338A8A"/>
<stop offset="1" stop-color="#02C650"/>
</linearGradient>
<linearGradient id="paint2_linear" x1="344.65" y1="108.299" x2="-126.233" y2="629.204" gradientUnits="userSpaceOnUse">
<stop stop-color="#B3EECB"/>
<stop offset="0.5" stop-color="#A5EEC2"/>
<stop offset="1" stop-color="#02CB8F"/>
</linearGradient>
<linearGradient id="paint3_linear" x1="27.3101" y1="358.2" x2="273.426" y2="167.25" gradientUnits="userSpaceOnUse">
<stop stop-color="#02C650"/>
<stop offset="0.5" stop-color="#158B4C"/>
<stop offset="1" stop-color="#1DBF73"/>
</linearGradient>
<linearGradient id="paint4_linear" x1="271.861" y1="48.6226" x2="452.49" y2="47.3785" gradientUnits="userSpaceOnUse">
<stop stop-color="#01B549"/>
<stop offset="0.5" stop-color="#FD80A0"/>
<stop offset="1" stop-color="#FB6FBB"/>
</linearGradient>
<linearGradient id="paint5_linear" x1="349.585" y1="-32.5501" x2="251.159" y2="245.596" gradientUnits="userSpaceOnUse">
<stop stop-color="#02C650"/>
<stop offset="0.5" stop-color="#B7FD80"/>
<stop offset="0.973958" stop-color="#CEF776"/>
<stop offset="1" stop-color="#FB6FBB"/>
</linearGradient>
<linearGradient id="paint6_linear" x1="1013.04" y1="294.509" x2="1134.58" y2="158.409" gradientUnits="userSpaceOnUse">
<stop stop-color="#D5B038"/>
<stop offset="0.5" stop-color="#33658A"/>
<stop offset="1" stop-color="#9571F6"/>
</linearGradient>
<linearGradient id="paint7_linear" x1="902.675" y1="459.927" x2="917.845" y2="543.634" gradientUnits="userSpaceOnUse">
<stop stop-color="#02C650"/>
<stop offset="0.4999" stop-color="#33658A"/>
<stop offset="0.5" stop-color="#33658A"/>
<stop offset="1" stop-color="#33658A"/>
</linearGradient>
<linearGradient id="paint8_linear" x1="94.7532" y1="436.351" x2="142.944" y2="438.113" gradientUnits="userSpaceOnUse">
<stop stop-color="#444B8C"/>
<stop offset="0.5" stop-color="#35396D"/>
<stop offset="1" stop-color="#26264F"/>
</linearGradient>
<linearGradient id="paint9_linear" x1="123.106" y1="433.468" x2="117.52" y2="423.377" gradientUnits="userSpaceOnUse">
<stop stop-color="#D5B038"/>
<stop offset="0.5" stop-color="#D5B038"/>
<stop offset="1" stop-color="#655110"/>
</linearGradient>
<linearGradient id="paint10_linear" x1="-571.814" y1="451.57" x2="-553.032" y2="300.462" gradientUnits="userSpaceOnUse">
<stop stop-color="#444B8C"/>
<stop offset="0.5" stop-color="#414682"/>
<stop offset="1" stop-color="#3E4177"/>
</linearGradient>
<linearGradient id="paint11_linear" x1="-571.974" y1="451.569" x2="-553.192" y2="300.461" gradientUnits="userSpaceOnUse">
<stop stop-color="#444B8C"/>
<stop offset="0.5" stop-color="#414682"/>
<stop offset="1" stop-color="#3E4177"/>
</linearGradient>
<linearGradient id="paint12_linear" x1="51.0202" y1="432.347" x2="75.5597" y2="443.08" gradientUnits="userSpaceOnUse">
<stop stop-color="#444B8C"/>
<stop offset="0.5" stop-color="#35396D"/>
<stop offset="1" stop-color="#26264F"/>
</linearGradient>
<linearGradient id="paint13_linear" x1="56.3072" y1="399.187" x2="59.0843" y2="433.379" gradientUnits="userSpaceOnUse">
<stop stop-color="#D5B038"/>
<stop offset="0.5" stop-color="#D5B038"/>
<stop offset="1" stop-color="#9B7D1C"/>
</linearGradient>
<linearGradient id="paint14_linear" x1="-635.085" y1="302.27" x2="-564.657" y2="347.088" gradientUnits="userSpaceOnUse">
<stop stop-color="#444B8C"/>
<stop offset="0.5" stop-color="#414682"/>
<stop offset="1" stop-color="#3E4177"/>
</linearGradient>
<linearGradient id="paint15_linear" x1="60.4728" y1="231.304" x2="104.408" y2="198.683" gradientUnits="userSpaceOnUse">
<stop stop-color="#62D0FF"/>
<stop offset="0.5" stop-color="#69CCCC"/>
<stop offset="1" stop-color="#35C7D0"/>
</linearGradient>
<linearGradient id="paint16_linear" x1="-586.706" y1="238.353" x2="-526.377" y2="146.152" gradientUnits="userSpaceOnUse">
<stop stop-color="#E38DDD"/>
<stop offset="0.5" stop-color="#BC7FEA"/>
<stop offset="1" stop-color="#9571F6"/>
</linearGradient>
<linearGradient id="paint17_linear" x1="-580.938" y1="214.004" x2="-495.993" y2="137.81" gradientUnits="userSpaceOnUse">
<stop stop-color="#63D3AB"/>
<stop offset="0.5" stop-color="#63D7BB"/>
<stop offset="1" stop-color="#42ABC2"/>
</linearGradient>
<linearGradient id="paint18_linear" x1="22.9836" y1="207.139" x2="58.4765" y2="140.191" gradientUnits="userSpaceOnUse">
<stop stop-color="#53B6CC"/>
<stop offset="0.5" stop-color="#67C7D5"/>
<stop offset="1" stop-color="#61ADD7"/>
</linearGradient>
<linearGradient id="paint19_linear" x1="54.7692" y1="201.252" x2="61.0492" y2="213.589" gradientUnits="userSpaceOnUse">
<stop stop-color="#D5B038"/>
<stop offset="0.5" stop-color="#D5B038"/>
<stop offset="1" stop-color="#A88A29"/>
</linearGradient>
<linearGradient id="paint20_linear" x1="91.5496" y1="92.5776" x2="71.4364" y2="133.09" gradientUnits="userSpaceOnUse">
<stop stop-color="#DF8D13"/>
<stop offset="0.5" stop-color="#B0631C"/>
<stop offset="1" stop-color="#B76F1A"/>
</linearGradient>
<linearGradient id="paint21_linear" x1="79.318" y1="88.8612" x2="104.405" y2="114.05" gradientUnits="userSpaceOnUse">
<stop stop-color="#444B8C"/>
<stop offset="0.5" stop-color="#35396D"/>
<stop offset="1" stop-color="#26264F"/>
</linearGradient>
<linearGradient id="paint22_linear" x1="101" y1="114.844" x2="93.8476" y2="99.8997" gradientUnits="userSpaceOnUse">
<stop stop-color="#D5B038"/>
<stop offset="0.5" stop-color="#D5B038"/>
<stop offset="1" stop-color="#A65E19"/>
</linearGradient>
<linearGradient id="paint23_linear" x1="106.795" y1="124.347" x2="96.2378" y2="109.264" gradientUnits="userSpaceOnUse">
<stop stop-color="#D5B038"/>
<stop offset="0.5" stop-color="#967D2E"/>
<stop offset="1" stop-color="#C8A534"/>
</linearGradient>
<linearGradient id="paint24_linear" x1="129.909" y1="165.901" x2="192.201" y2="198.379" gradientUnits="userSpaceOnUse">
<stop stop-color="#53D2DA"/>
<stop offset="0.5" stop-color="#5DC0D6"/>
<stop offset="1" stop-color="#2C8BA9"/>
</linearGradient>
</defs>
</svg>
