<svg width="512" height="512" viewBox="0 0 512 512" fill="none" xmlns="http://www.w3.org/2000/svg">
<g clip-path="url(#clip0_71_6)">
<path d="M507.01 240.291C504.028 168.536 439.749 121.181 382.643 77.7568C327.945 36.1637 267.668 -5.16696 200.054 6.87513C129.114 19.5091 75.2408 74.3591 42.0467 138.417C7.38783 205.306 -10.8282 284.03 21.0756 352.282C53.3236 421.272 124.81 461.92 199.635 475.545C270.269 488.408 339.848 464.384 396.892 420.723C455.725 375.695 510.088 314.391 507.01 240.291Z" fill="#FFF0F7"/>
<g filter="url(#filter0_d_71_6)">
<path d="M373.257 365.554C373.257 363.537 373.928 361.521 373.928 358.834C373.928 344.05 361.853 331.953 347.092 331.953C336.358 331.953 327.637 338.001 322.941 346.737C321.599 346.065 318.915 345.393 316.903 345.393C307.511 345.393 300.131 352.786 300.131 362.194C300.131 363.537 300.131 364.881 300.803 365.554C288.726 367.57 280.004 376.978 280.004 389.074C280.004 401.842 290.738 412.594 303.485 412.594H370.573C383.32 412.594 394.055 401.842 394.055 389.074C394.055 376.978 385.333 366.897 373.257 365.554Z" fill="#EEBCE0"/>
</g>
<g filter="url(#filter1_d_71_6)">
<path d="M157.811 229.481C157.811 227.464 157.14 225.448 157.14 222.761C157.14 207.977 169.217 195.88 183.976 195.88C194.71 195.88 203.431 201.928 208.127 210.664C209.469 209.992 212.153 209.32 214.165 209.32C223.557 209.32 230.938 216.713 230.938 226.121C230.938 227.464 230.938 228.809 230.267 229.481C242.342 231.497 251.064 240.905 251.064 253.001C251.064 265.77 240.33 276.521 227.583 276.521H160.495C147.749 276.521 137.014 265.77 137.014 253.001C137.014 240.905 145.736 230.824 157.811 229.481Z" fill="#EEBCE0"/>
</g>
<g filter="url(#filter2_d_71_6)">
<path d="M297.811 123.481C297.811 121.464 297.14 119.448 297.14 116.761C297.14 101.977 309.217 89.8801 323.976 89.8801C334.71 89.8801 343.431 95.9277 348.127 104.664C349.469 103.992 352.153 103.32 354.165 103.32C363.557 103.32 370.938 110.713 370.938 120.121C370.938 121.464 370.938 122.809 370.267 123.481C382.342 125.497 391.064 134.905 391.064 147.001C391.064 159.77 380.33 170.521 367.583 170.521H300.495C287.749 170.521 277.014 159.77 277.014 147.001C277.014 134.905 285.736 124.824 297.811 123.481Z" fill="#EEBCE0"/>
</g>
<path d="M84.1013 120.575C83.6637 120.623 83.2467 120.827 82.9014 121.161C82.556 121.496 82.2967 121.947 82.1557 122.46C82.0146 122.973 81.997 123.526 82.1049 124.051C82.2138 124.575 82.443 125.05 82.7655 125.418L82.8142 125.474C82.8142 125.474 85.7535 128.795 88.8804 131.606C91.4836 133.946 100.601 140.347 106.612 142.912C125.197 150.842 151.381 132.268 151.381 132.268C151.381 132.268 179.752 96.8758 177.592 69.6615C176.768 59.2736 174.506 53.6845 167.542 45.3201C160.343 36.6766 151.857 33.7032 142.141 32.5945C139.215 32.3144 136.272 32.5623 133.404 33.3298C131.865 33.7312 124.952 35.7764 118.822 43.0083C109.966 53.4574 108.693 69.034 108.534 83.2603C108.401 95.1728 105.283 106.484 98.2623 113.575C94.1179 117.763 88.981 119.476 88.981 119.476C87.3859 120.032 85.7524 120.4 84.1013 120.575Z" fill="#303440"/>
<path d="M84.1033 120.234C85.7575 120.06 87.393 119.694 88.9912 119.14C88.9912 119.14 94.1364 117.435 98.2881 113.267C105.32 106.208 108.444 94.9508 108.576 83.0943C108.736 68.9344 110.011 53.4314 118.882 43.0321C125.022 35.8333 131.947 33.7975 133.488 33.3982C136.361 32.6348 139.309 32.387 142.241 32.6659C149.577 33.4977 156.215 35.3863 162.128 39.9528C157.788 37.8952 153.117 36.8373 148.122 36.271C145.19 35.992 142.243 36.2389 139.37 37.0032C137.829 37.4015 130.904 39.4363 124.763 46.635C115.892 57.0343 114.618 72.5394 114.458 86.6994C114.325 98.5548 111.2 109.813 104.17 116.872C100.018 121.039 94.8718 122.744 94.8718 122.744C93.2746 123.298 91.638 123.664 89.9838 123.839C89.5461 123.886 89.1292 124.089 88.7828 124.422C88.4364 124.755 88.1771 125.204 88.036 125.714C87.894 126.225 87.8763 126.775 87.9842 127.298C88.0931 127.82 88.3223 128.293 88.6459 128.659C88.6625 128.677 88.6801 128.696 88.6957 128.715C88.6957 128.715 91.639 132.02 94.7722 134.818C96.0417 135.952 98.8606 138.045 102.113 140.189C96.7687 137.192 90.8965 133.005 88.8906 131.214C85.7575 128.415 82.8151 125.109 82.8151 125.109C82.7985 125.091 82.7819 125.073 82.7654 125.053C82.4418 124.688 82.2115 124.215 82.1037 123.693C81.9948 123.171 82.0124 122.62 82.1545 122.11C82.2955 121.6 82.5559 121.151 82.9012 120.818C83.2476 120.485 83.6645 120.282 84.1033 120.234Z" fill="#303440"/>
<path d="M105.924 131.282C111.432 120.005 121.146 114.417 133.901 114.417C146.654 114.417 155.697 120.538 161.877 131.282C167.918 141.782 184.431 233.041 171.732 242.018C159.034 250.996 133.901 254.429 133.901 254.429C133.901 254.429 107.675 251.816 95.6411 241.962C81.6533 230.507 98.9298 145.601 105.924 131.282Z" fill="#FF6D64"/>
<path d="M289.918 389.87L301.551 384.913L304.398 391.591L292.764 396.549L289.918 389.87Z" fill="#F9A97E"/>
<path d="M305.534 381.996C305.204 378.366 306.053 241.984 275.457 240.428C255.065 239.391 249.085 266.874 251.888 287.099C256.271 318.731 288.94 391.331 288.94 391.331C291.533 395.479 305.864 385.626 305.534 381.996Z" fill="#4B4688"/>
<path d="M164.001 409.697L175.327 415.326L172.096 421.827L160.77 416.199L164.001 409.697Z" fill="#F9A97E"/>
<path d="M101.739 290.21C82.4587 272.448 91.3676 233.168 91.3676 233.168C91.3676 233.168 114.949 243.759 134.409 244.058C152.685 244.339 174.857 236.28 174.857 236.28C174.857 236.28 231.032 236.537 275.458 240.428C265.605 287.099 211.675 388.046 175.894 416.222L162.411 411.555C162.411 411.555 212.919 307.323 200.785 307.323C183.672 307.323 126.532 313.05 101.739 290.21Z" fill="#5C54A8"/>
<path d="M150.483 434.371L160.855 415.185L172.782 420.889C172.782 420.889 187.993 441.892 194.043 450.966L190.413 455.114L150.483 434.371Z" fill="#2B246E"/>
<path d="M299.902 416.173L292.046 395.826L304.13 390.46C304.13 390.46 329.979 392.532 340.807 393.824L341.606 399.278L299.902 416.173Z" fill="#2B246E"/>
<path d="M134.023 121.409C130.164 120.237 127.152 117.14 127.812 113.157L133.129 84.5994L142.092 88.3455L148.646 92.5127L145.305 115.612C144.646 119.595 140.841 121.75 136.708 121.786C135.649 121.795 135.036 121.716 134.023 121.409Z" fill="#F09C70"/>
<path d="M138.038 113.38C129.222 111.52 124.576 89.0238 120.407 85.8968C118.333 84.3411 115.663 78.4751 117.814 75.5255C119.966 72.5759 122.481 73.4513 127.148 72.9327C133.889 72.1839 162.929 55.3015 162.929 55.3015C162.929 55.3015 171.099 51.1924 172.889 63.585C175.252 79.9541 171.226 94.1928 160.855 104.564C154.292 111.127 147.385 115.351 138.038 113.38Z" fill="#F9A97E"/>
<path d="M180.745 231.703L256.378 235.127L256.173 239.655L180.539 236.23L180.745 231.703Z" fill="#FF7CA4"/>
<path d="M247.181 235.561L285.484 190.674C286.227 189.803 287.537 189.699 288.409 190.442L289.672 191.52C290.543 192.264 290.647 193.574 289.902 194.445L251.6 239.332L247.181 235.561Z" fill="#FF7CA4"/>
<path d="M113.976 196.82C110.721 185.608 112.393 171.722 113.976 166.703C118.252 164.279 127.85 160.679 132.032 165.663C136.212 170.649 138.208 196.82 138.208 196.82C138.208 196.82 214.324 228.286 214.704 227.456C215.179 226.417 219.457 226.936 222.307 227.456C224.587 227.871 225.158 231.782 225.158 233.687L199.975 232.648C165.326 230.665 144.86 224.34 125.38 214.474C118.593 211.037 116.239 204.611 113.976 196.82Z" fill="#F9A97E"/>
<path d="M106.45 176.293C100.564 168.142 111.705 127.9 126.946 127.9C142.186 127.9 142.186 176.293 142.186 176.293C132.727 179.688 112.336 184.443 106.45 176.293Z" fill="#FF867E"/>
</g>
<defs>
<filter id="filter0_d_71_6" x="276.004" y="331.953" width="122.051" height="88.6411" filterUnits="userSpaceOnUse" color-interpolation-filters="sRGB">
<feFlood flood-opacity="0" result="BackgroundImageFix"/>
<feColorMatrix in="SourceAlpha" type="matrix" values="0 0 0 0 0 0 0 0 0 0 0 0 0 0 0 0 0 0 127 0" result="hardAlpha"/>
<feOffset dy="4"/>
<feGaussianBlur stdDeviation="2"/>
<feComposite in2="hardAlpha" operator="out"/>
<feColorMatrix type="matrix" values="0 0 0 0 1 0 0 0 0 1 0 0 0 0 1 0 0 0 0.25 0"/>
<feBlend mode="normal" in2="BackgroundImageFix" result="effect1_dropShadow_71_6"/>
<feBlend mode="normal" in="SourceGraphic" in2="effect1_dropShadow_71_6" result="shape"/>
</filter>
<filter id="filter1_d_71_6" x="133.014" y="195.88" width="122.051" height="88.6411" filterUnits="userSpaceOnUse" color-interpolation-filters="sRGB">
<feFlood flood-opacity="0" result="BackgroundImageFix"/>
<feColorMatrix in="SourceAlpha" type="matrix" values="0 0 0 0 0 0 0 0 0 0 0 0 0 0 0 0 0 0 127 0" result="hardAlpha"/>
<feOffset dy="4"/>
<feGaussianBlur stdDeviation="2"/>
<feComposite in2="hardAlpha" operator="out"/>
<feColorMatrix type="matrix" values="0 0 0 0 1 0 0 0 0 1 0 0 0 0 1 0 0 0 0.25 0"/>
<feBlend mode="normal" in2="BackgroundImageFix" result="effect1_dropShadow_71_6"/>
<feBlend mode="normal" in="SourceGraphic" in2="effect1_dropShadow_71_6" result="shape"/>
</filter>
<filter id="filter2_d_71_6" x="273.014" y="89.8801" width="122.051" height="88.6411" filterUnits="userSpaceOnUse" color-interpolation-filters="sRGB">
<feFlood flood-opacity="0" result="BackgroundImageFix"/>
<feColorMatrix in="SourceAlpha" type="matrix" values="0 0 0 0 0 0 0 0 0 0 0 0 0 0 0 0 0 0 127 0" result="hardAlpha"/>
<feOffset dy="4"/>
<feGaussianBlur stdDeviation="2"/>
<feComposite in2="hardAlpha" operator="out"/>
<feColorMatrix type="matrix" values="0 0 0 0 1 0 0 0 0 1 0 0 0 0 1 0 0 0 0.25 0"/>
<feBlend mode="normal" in2="BackgroundImageFix" result="effect1_dropShadow_71_6"/>
<feBlend mode="normal" in="SourceGraphic" in2="effect1_dropShadow_71_6" result="shape"/>
</filter>
<clipPath id="clip0_71_6">
<rect width="512" height="512" fill="white"/>
</clipPath>
</defs>
</svg>
