<svg width="309" height="227" viewBox="0 0 309 227" fill="none" xmlns="http://www.w3.org/2000/svg">
<path d="M239.653 48.002C239.463 43.9854 236.215 40.7915 232.195 40.67C227.857 40.5399 222.935 43.7742 222.291 49.3846C221.744 54.1553 221.787 62.5037 221.8 62.1203L240.683 61.6948L239.653 48.002Z" fill="white"/>
<path d="M241.099 62.1321L225.314 62.0406C226.434 69.4721 226.695 73.9833 226.703 78.2741C226.711 83.1131 230.847 86.9141 235.67 86.5188C240.122 86.1535 243.482 82.327 243.271 77.8652L241.099 62.1321Z" fill="#FFD4C9"/>
<path d="M198.105 85.0605L233.336 73.6869C237.176 72.8089 240.972 75.3199 241.668 79.199C242.373 83.1207 239.62 86.8229 235.661 87.2779L200.081 91.0461L198.105 85.0605Z" fill="#FFD4C9"/>
<path d="M201.959 93.381C205.305 91.3434 206.367 86.9807 204.33 83.6337C202.293 80.2867 197.929 79.2251 194.582 81.2619C191.235 83.2988 190.174 87.664 192.211 91.0093C194.248 94.3563 198.611 95.4188 201.959 93.381Z" fill="#FFD4C9"/>
<path d="M192.248 84.3749C192.248 84.3749 189.892 82.8646 192.914 80.6903C195.936 78.5178 200.152 77.844 204.329 83.6332L192.248 84.3749Z" fill="#FFD4C9"/>
<path d="M190.86 69.3018L183.586 72.2471C183.181 72.4121 183.024 72.8828 183.235 73.3014L192.273 91.2191C192.484 91.636 192.983 91.842 193.387 91.6788L200.663 88.7341C201.068 88.57 201.225 88.0984 201.014 87.6815L191.975 69.7605C191.764 69.3436 191.265 69.1377 190.86 69.3018Z" fill="#372C5F"/>
<path d="M192.261 68.7344L184.986 71.6807C184.582 71.8448 184.424 72.3164 184.636 72.7341L193.673 90.6527C193.884 91.0696 194.383 91.2756 194.788 91.1115L202.063 88.1669C202.469 88.0027 202.627 87.5311 202.416 87.1142L193.375 69.1941C193.164 68.7772 192.665 68.5713 192.261 68.7344Z" fill="#241541"/>
<path d="M193.031 70.5535L186.638 73.1419L194.004 87.7462L200.397 85.1578L193.031 70.5535Z" fill="#E7E7E7"/>
<path d="M186.639 73.1411L200.397 85.158L193.031 70.5536L186.639 73.1411Z" fill="white"/>
<path d="M202.032 83.9578L196.235 81.3716C195.819 81.1861 195.547 80.7736 195.541 80.3172C195.531 79.6564 196.068 79.1187 196.729 79.1266L198.446 79.2476L202.032 83.9578Z" fill="#FFD4C9"/>
<path d="M197.77 81.1463C197.77 81.1463 199.382 86.3246 203.782 87.3589L202.199 83.7191L197.77 81.1463Z" fill="#FFD4C9"/>
<path d="M250.561 38.9402L237.005 39.2962L227.557 41.2356L221.965 44.1726C221.068 44.6488 220.562 45.6343 220.694 46.6417L221.136 49.9996C221.136 49.9996 217.979 65.1457 223.524 68.1053L225.039 79.5907L252.525 79.0586L254.598 48.6926C254.491 46.8648 252.392 38.9275 250.561 38.9402Z" fill="white"/>
<path d="M227.724 40.959L224.768 42.6992C224.768 42.6992 220.969 50.5071 229.717 50.0544C240.27 49.5081 240.618 43.3553 241.955 39.1428L236.533 39.0807L227.724 40.959Z" fill="#FFD4C9"/>
<path d="M207.596 215.496L218.607 215.45L220.875 200.564L209.864 200.613L207.596 215.496Z" fill="#FFD4C9"/>
<path d="M225.354 78.3609C225.354 78.3609 220.909 88.239 213.52 132.322C206.132 176.408 205.139 206.031 205.139 206.031H227.869L247.689 82.9684L242.624 78.1699L225.354 78.3609Z" fill="#FF9184"/>
<path d="M245.016 215.496L256.027 215.45L255.964 200.564L244.953 200.613L245.016 215.496Z" fill="#FFD4C9"/>
<path d="M252.54 78.0592C252.54 78.0592 263.412 88.6748 263.974 110.007C264.624 134.618 262.59 206.317 262.59 206.317L240.824 205.747L229.598 78.3136L252.54 78.0592Z" fill="#FF9184"/>
<path d="M236.33 153.493L232.387 113.824L226.76 107.146" stroke="#FF6C62" stroke-width="1.994" stroke-miterlimit="10"/>
<path d="M218.519 212.954C215.928 213.645 210.063 215.908 207.313 211.92L188.719 221.996L221.543 221.78L220.013 213.94C219.908 213.23 219.211 212.769 218.519 212.954Z" fill="black"/>
<path d="M188.737 224.594L221.563 224.377L221.542 221.533L188.717 221.749L188.737 224.594Z" fill="white"/>
<path d="M207.505 216.076C207.424 216.041 207.348 215.984 207.29 215.904C206.088 214.248 204.878 213.43 204.866 213.422C204.627 213.264 204.563 212.941 204.722 212.704C204.882 212.463 205.207 212.404 205.442 212.558C205.497 212.594 206.811 213.475 208.132 215.292C208.299 215.526 208.248 215.85 208.017 216.019C207.863 216.131 207.669 216.147 207.505 216.076Z" fill="white"/>
<path d="M204.978 217.405C204.895 217.37 204.82 217.313 204.762 217.234C203.559 215.578 202.35 214.761 202.338 214.752C202.101 214.593 202.035 214.272 202.195 214.033C202.353 213.794 202.679 213.731 202.913 213.887C202.969 213.924 204.281 214.805 205.602 216.623C205.77 216.855 205.72 217.18 205.489 217.349C205.334 217.46 205.141 217.476 204.978 217.405Z" fill="white"/>
<path d="M202.449 218.738C202.368 218.703 202.292 218.646 202.235 218.567C201.032 216.912 199.823 216.095 199.811 216.086C199.574 215.927 199.508 215.606 199.667 215.367C199.825 215.127 200.152 215.064 200.387 215.22C200.442 215.258 201.754 216.14 203.076 217.956C203.244 218.189 203.192 218.513 202.96 218.682C202.807 218.794 202.612 218.809 202.449 218.738Z" fill="white"/>
<path d="M255.936 212.707C253.347 213.398 247.482 215.661 244.731 211.673L226.137 221.749L258.961 221.534L257.432 213.694C257.327 212.983 256.63 212.523 255.936 212.707Z" fill="black"/>
<path d="M226.159 224.594L258.983 224.378L258.961 221.534L226.137 221.749L226.159 224.594Z" fill="white"/>
<path d="M244.927 216.076C244.845 216.041 244.769 215.984 244.712 215.905C243.508 214.248 242.3 213.431 242.288 213.422C242.049 213.264 241.985 212.941 242.144 212.704C242.302 212.463 242.629 212.405 242.863 212.558C242.919 212.594 244.23 213.476 245.552 215.292C245.72 215.526 245.67 215.85 245.438 216.019C245.285 216.131 245.09 216.147 244.927 216.076Z" fill="white"/>
<path d="M242.397 217.406C242.316 217.37 242.239 217.313 242.182 217.234C240.978 215.578 239.77 214.761 239.758 214.753C239.52 214.593 239.456 214.272 239.614 214.033C239.773 213.794 240.1 213.732 240.333 213.887C240.389 213.924 241.701 214.805 243.023 216.623C243.191 216.856 243.138 217.18 242.907 217.35C242.754 217.46 242.56 217.476 242.397 217.406Z" fill="white"/>
<path d="M239.87 218.738C239.787 218.703 239.713 218.646 239.654 218.567C238.452 216.912 237.243 216.095 237.231 216.087C236.993 215.927 236.928 215.606 237.088 215.367C237.246 215.128 237.572 215.064 237.807 215.22C237.863 215.258 239.173 216.14 240.496 217.956C240.664 218.189 240.612 218.513 240.381 218.682C240.227 218.794 240.033 218.809 239.87 218.738Z" fill="white"/>
<path d="M220.368 64.2095C220.368 64.2095 218.894 58.6364 220.447 54.799" stroke="#E1E1E1" stroke-width="1.52" stroke-miterlimit="10"/>
<path d="M261.59 55.6501L246.712 61.1254C248.924 68.306 250.996 72.2559 251.642 76.4977C252.369 81.2816 255.375 85.4371 260.085 84.3283C264.435 83.3045 267.189 79.0202 266.317 74.6395L261.59 55.6501Z" fill="#FFD4C9"/>
<path d="M259.401 44.5076C257.435 40.0886 253.753 38.2484 249.762 38.727C245.45 39.2424 244.147 48.8984 244.788 53.1911C245.249 56.2646 245.039 55.7001 246.711 61.1252L263.15 55.5869L259.401 44.5076Z" fill="white"/>
<path d="M246.711 61.1254L244.188 54.7884" stroke="#E1E1E1" stroke-width="1.52" stroke-miterlimit="10"/>
<path d="M229.288 93.7603L255.856 70.9269C259.201 68.8446 263.606 69.9791 265.528 73.4185C267.473 76.8972 266.078 81.2937 262.483 83.0146L232.345 100.768L229.288 93.7603Z" fill="#FFD4C9"/>
<path d="M235.186 102.825C237.658 99.7865 237.199 95.3172 234.159 92.8446C231.121 90.3729 226.653 90.8327 224.181 93.8715C221.708 96.9104 222.167 101.378 225.205 103.85C228.244 106.324 232.714 105.864 235.186 102.825Z" fill="#FFD4C9"/>
<path d="M223.024 97.5837C223.024 97.5837 220.299 96.9489 222.419 93.8894C224.54 90.8304 228.289 88.7872 234.161 92.845L223.024 97.5837Z" fill="#FFD4C9"/>
<path d="M216.493 8.85888C216.493 8.85888 207.639 10.3018 210.228 20.5416C212.16 28.1835 212.486 37.5882 210.988 42.7845C216.287 41.8157 233.402 37.0189 227.367 38.6872C222.926 39.9161 235.921 39.5247 245.625 31.2649C245.625 31.2649 246.65 24.7138 244.264 17.3655C241.876 10.0174 237.122 5.26521 232.533 3.74553C227.943 2.22615 219.109 4.62261 216.493 8.85888Z" fill="#CE5137"/>
<path d="M212.87 8.94938C212.87 8.94938 229.209 -1.30414 236.967 6.08836C242.596 11.4534 241.856 24.499 234.52 30.3483C227.531 35.9203 221.89 9.33583 221.89 9.33583L212.87 8.94938Z" fill="#CE5137"/>
<path d="M221.017 25.6327C221.849 27.7174 220.833 30.0803 218.75 30.9127C216.667 31.7451 214.303 30.7311 213.472 28.6475C212.64 26.5643 213.654 24.2005 215.737 23.3681C217.82 22.5357 220.185 23.5494 221.017 25.6327Z" fill="#F09989"/>
<path d="M224.676 34.3938L227.237 42.8692C228.129 45.8475 230.444 46.8887 233.367 45.9868C235.864 45.2163 237.81 43.2041 237.355 40.6324L232.682 27.4891L224.676 34.3938Z" fill="#FFD4C9"/>
<path d="M226.332 39.9175C226.332 39.9175 233.877 36.159 234.222 28.7468L224.397 33.53L226.332 39.9175Z" fill="#0A171B"/>
<path d="M227.532 35.3986C222.567 37.0092 217.205 34.4137 215.755 30.4033L212.387 20.9182C210.57 15.8913 213.066 10.329 218.029 8.3459C223.112 6.31581 229.767 8.43444 231.797 13.5174L234.423 21.1725C236.453 27.0946 233.346 33.076 227.532 35.3986Z" fill="#FFD4C9"/>
<path d="M240.505 18.6329C241.338 20.7161 240.323 23.0802 238.239 23.9126C236.156 24.745 233.792 23.7298 232.96 21.6466C232.128 19.563 233.144 17.1989 235.227 16.3677C237.31 15.5353 239.674 16.5493 240.505 18.6329Z" fill="#FFD4C9"/>
<path d="M219.992 27.7995L220.215 28.9284L221.533 28.5833" stroke="#1B132D" stroke-width="1.066" stroke-linecap="round" stroke-linejoin="round"/>
<path d="M224.044 19.4607C224.044 19.4607 221.83 19.9296 222.082 20.845C222.082 20.845 222.271 21.4587 224.191 21.0098C226.11 20.5624 226.558 20.2717 226.556 19.643C226.553 19.0144 225.058 19.1598 224.044 19.4607Z" fill="#832211"/>
<path d="M214.996 22.1495C214.996 22.1495 216.72 21.4216 217.123 22.2292C217.123 22.2292 217.382 22.7809 215.86 23.3828C214.34 23.9856 213.772 23.9328 213.484 23.5126C213.156 23.0352 214.152 22.4197 214.996 22.1495Z" fill="#832211"/>
<path d="M219.963 31.14L225.684 29.5543C225.684 29.5543 226.085 31.3148 223.429 32.1619C220.828 32.9911 219.963 31.14 219.963 31.14Z" fill="white"/>
<path d="M223.248 23.888C223.248 23.888 223.854 22.2845 225.953 23.1477" stroke="#1B162C" stroke-width="1.304" stroke-linecap="round" stroke-linejoin="round"/>
<path d="M215.394 26.2888C215.394 26.2888 216 24.6853 218.099 25.5485" stroke="#1B162C" stroke-width="1.304" stroke-linecap="round" stroke-linejoin="round"/>
<path d="M212.872 8.94855C212.872 8.94855 205.396 13.3766 209.819 22.1493L235.154 13.9677L230.04 5.79899L212.872 8.94855Z" fill="#CE5137"/>
<path d="M228.328 14.8291C228.328 14.8291 233.498 25.3954 234.282 38.8208C234.282 38.8208 238.758 36.9639 242.513 33.6217C242.513 33.6217 237.05 17.6092 233.513 12.9286C229.973 8.24735 227.771 12.277 227.771 12.277L228.328 14.8291Z" fill="#CE5137"/>
<path d="M95.2969 131.403C94.4292 132.148 82.9557 138.347 76.0117 147.276L89.8766 160.048L112.825 154.546L114.178 131.403H95.2969Z" fill="#0A171B"/>
<path d="M91.6494 214.718L89.1973 201.743H97.5663L98.5727 214.718H91.6494Z" fill="#F8AFA2"/>
<path d="M94.2635 151.888C96.9968 171.048 101.705 207.031 101.705 207.031L85.4953 207.331L74.2968 155.515C73.0604 149.903 76.7246 144.381 82.3774 143.343C88.0497 142.299 93.4494 146.178 94.2635 151.888Z" fill="#0A171B"/>
<path d="M130.167 131.403C131.035 132.148 142.51 138.347 149.454 147.276L135.589 160.048L112.639 154.546L111.287 131.403H130.167Z" fill="#0A171B"/>
<path d="M132.866 214.718L135.317 201.742H126.948L125.941 214.718H132.866Z" fill="#F8AFA2"/>
<path d="M131.201 151.888C128.467 171.048 122.592 207.031 122.592 207.031L138.803 207.331L151.167 155.515C152.405 149.903 148.739 144.381 143.087 143.343C137.413 142.299 132.015 146.178 131.201 151.888Z" fill="#0A171B"/>
<path d="M98.5721 213.485H91.6488C91.6488 213.485 86.8272 216.521 85.5762 221.88H105.045C105.045 221.88 101.847 214.975 98.5721 213.485Z" fill="black"/>
<path d="M105.045 224.287H85.5762V221.881H105.045V224.287Z" fill="white"/>
<path d="M91.3867 216.765C91.3867 216.765 95.4879 214.608 98.5717 216.765" stroke="white" stroke-width="1.916" stroke-linecap="round" stroke-linejoin="round"/>
<path d="M125.944 213.485H132.867C132.867 213.485 137.69 216.521 138.94 221.88H119.471C119.471 221.88 122.67 214.975 125.944 213.485Z" fill="black"/>
<path d="M119.471 224.287H138.94V221.881H119.471V224.287Z" fill="white"/>
<path d="M133.128 216.765C133.128 216.765 129.028 214.608 125.943 216.765" stroke="white" stroke-width="1.916" stroke-linecap="round" stroke-linejoin="round"/>
<path d="M110.641 78.3425C110.641 78.3425 95.9815 78.3425 85.1895 88.9556V118.697C85.1895 118.697 86.578 127.767 95.2233 131.744C103.54 131.874 119.207 134.156 130.501 131.659C136.306 129.286 136.834 118.917 136.834 118.697C136.834 117.911 136.847 86.9903 136.847 86.9903C136.847 86.9903 126.283 78.3425 110.641 78.3425Z" fill="#BBFFF7"/>
<path d="M67.9746 120.661L77.8661 104.593L86.2583 106.493L84.2466 124.103L67.9746 120.661Z" fill="#FCC9C1"/>
<path d="M87.376 86.9885C87.376 86.9885 79.4073 93.4214 71.0078 107.586C71.0078 107.586 72.8211 115.782 88.4664 117.035L87.376 86.9885Z" fill="#BBFFF7"/>
<path d="M155.743 120.59L143.365 101.647L138.715 104.903L140.728 122.515L155.743 120.59Z" fill="#FCC9C1"/>
<path d="M136.849 86.9884C136.849 86.9884 144.817 93.4213 153.216 107.586C153.216 107.586 151.403 115.782 135.758 117.035L136.849 86.9884Z" fill="#BBFFF7"/>
<path d="M112.716 83.4263H109.291C107.102 83.4263 105.328 81.652 105.328 79.4651V72.0769H116.678V79.4651C116.678 81.652 114.904 83.4263 112.716 83.4263Z" fill="#FCC9C1"/>
<path d="M105.361 72.5601C105.361 72.5601 107.01 77.647 116.679 77.4705V70.4511C116.679 70.4511 116.033 71.7557 111.725 71.5719C107.375 71.3857 105.361 72.5601 105.361 72.5601Z" fill="#0A0A0A"/>
<path d="M124.998 53.0382C124.998 61.019 118.689 67.4896 110.909 67.4896C103.128 67.4896 96.8203 61.019 96.8203 53.0382C96.8203 45.0561 103.128 38.5867 110.909 38.5867C118.689 38.5867 124.998 45.0561 124.998 53.0382Z" fill="#0A171B"/>
<path d="M122.571 58.0408C122.571 58.0408 123.585 56.4271 125.678 57.2206C127.77 58.0153 126.823 63.0961 123.686 63.7447C123.686 63.7447 122.56 63.9894 121.678 63.219C121.678 63.219 122.449 59.4647 122.571 58.0408Z" fill="#FCC9C1"/>
<path d="M125.264 59.0145C125.264 59.0145 123.511 58.4303 122.268 61.0103" stroke="#021733" stroke-width="0.922" stroke-linecap="round" stroke-linejoin="round"/>
<path d="M123.294 53.9315C123.295 57.1881 122.965 64.0015 120.9 68.0446C118.962 71.8416 115.755 73.8848 111.552 74.0065C107.348 74.1282 104.217 72.5571 101.707 67.6297C99.1975 62.7034 99.3173 53.9936 99.3173 53.9936C99.3173 53.9936 99.3173 42.3618 111.175 42.3618C123.665 42.3618 123.294 53.9315 123.294 53.9315Z" fill="#FCC9C1"/>
<path d="M101.596 44.1428C101.596 44.1428 93.6574 45.8337 98.0097 58.0051L100.044 58.5526C100.044 58.5526 102.474 53.28 102.619 49.7255C102.718 47.2861 101.596 44.1428 101.596 44.1428Z" fill="#0A171B"/>
<path d="M100.031 58.5434C100.031 58.5434 99.0634 56.9019 96.9488 57.6362C94.8353 58.3717 95.6389 63.4772 98.7568 64.2137C98.7568 64.2137 99.8751 64.4899 100.779 63.7446C100.779 63.7446 100.113 59.9701 100.031 58.5434Z" fill="#FCC9C1"/>
<path d="M97.3148 59.4409C97.3148 59.4409 99.083 58.9063 100.254 61.5202" stroke="#021733" stroke-width="0.922" stroke-linecap="round" stroke-linejoin="round"/>
<path d="M123.355 58.3111C123.355 58.3111 120.768 52.6328 123.051 48.5462C123.051 48.5462 125.117 55.1215 123.355 58.3111Z" fill="#0A171B"/>
<path d="M107.62 60.1017C107.62 60.7138 107.122 61.2116 106.51 61.2116C105.898 61.2116 105.402 60.7138 105.402 60.1017C105.402 59.4908 105.898 58.9942 106.51 58.9942C107.122 58.9942 107.62 59.4908 107.62 60.1017Z" fill="#0A171B"/>
<path d="M117.879 60.1017C117.879 60.7138 117.382 61.2116 116.77 61.2116C116.157 61.2116 115.662 60.7138 115.662 60.1017C115.662 59.4908 116.157 58.9942 116.77 58.9942C117.382 58.9942 117.879 59.4908 117.879 60.1017Z" fill="#0A171B"/>
<path d="M111.084 62.5161L111.085 64.013C111.086 64.3902 111.421 64.6726 111.779 64.5971L112.574 64.4304" stroke="#021733" stroke-width="0.922" stroke-linecap="round" stroke-linejoin="round"/>
<path d="M109.804 56.6705L103.086 57.4786C103.086 57.4786 103.625 55.6969 106.369 55.3903C109.114 55.0848 109.804 56.6705 109.804 56.6705Z" fill="#0A171B"/>
<path d="M113.676 56.6705L120.393 57.4786C120.393 57.4786 119.854 55.6969 117.11 55.3903C114.366 55.0848 113.676 56.6705 113.676 56.6705Z" fill="#0A171B"/>
<path d="M108.286 66.3113H115.066C115.066 66.3113 115.181 68.8353 111.667 68.6868C108.153 68.5383 108.286 66.3113 108.286 66.3113Z" fill="white"/>
<path d="M100.673 46.0775C100.673 46.0775 108.5 55.0357 124.431 51.538C124.431 51.538 125.608 43.2105 117.257 40.9106C108.905 38.6107 102.613 44.7787 100.673 46.0775Z" fill="#0A171B"/>
<path d="M100.673 46.0779C100.673 46.0779 100.306 38.5571 107.241 37.2335C114.176 35.91 114.504 39.631 119.444 39.7892C126.818 40.0238 130.38 47.1698 124.432 51.5385L114.019 45.7026L100.673 46.0779Z" fill="#0A171B"/>
<path d="M105.328 77.1425L110.909 83.4257L106.768 87.6644L101.461 79.6117L105.328 77.1425Z" fill="white"/>
<path d="M116.679 77.4691L110.91 83.4261L115.054 87.6648L120.979 79.6024L116.679 77.4691Z" fill="white"/>
<path d="M88.8326 117.034H74.1086C70.2423 117.034 67.1074 120.17 67.1074 124.036C67.1074 127.903 70.2423 131.036 74.1086 131.036H91.4296L88.8326 117.034Z" fill="#FCC9C1"/>
<path d="M85.1906 117.035H76.4395" stroke="#54382C" stroke-width="1.436" stroke-miterlimit="10"/>
<path d="M134.921 117.034H149.645C153.512 117.034 156.646 120.17 156.646 124.036C156.646 127.903 153.512 131.036 149.645 131.036H132.324L134.921 117.034Z" fill="#FCC9C1"/>
<path d="M135.758 117.035H147.317" stroke="#54382C" stroke-width="1.436" stroke-miterlimit="10"/>
<path d="M134.491 131.036H87.5345C86.2397 131.036 85.1895 129.987 85.1895 128.692V99.0479C85.1895 97.7542 86.2397 96.7052 87.5345 96.7052H134.491C135.785 96.7052 136.835 97.7542 136.835 99.0479V128.692C136.835 129.987 135.785 131.036 134.491 131.036Z" fill="#EAC7CE"/>
<path d="M114.178 113.871C114.178 115.618 112.759 117.035 111.012 117.035C109.264 117.035 107.848 115.618 107.848 113.871C107.848 112.122 109.264 110.704 111.012 110.704C112.759 110.704 114.178 112.122 114.178 113.871Z" fill="white"/>
<path d="M190.947 139.975H29.5508V131.035H190.947V139.975Z" fill="white"/>
<path d="M60.327 224.588H54.7168V139.975H60.327V224.588Z" fill="white"/>
<path d="M60.327 142.797H54.7168V139.976H60.327V142.797Z" fill="#EAEAEA"/>
<path d="M170.059 224.588H164.449V139.975H170.059V224.588Z" fill="white"/>
<path d="M170.059 142.797H164.449V139.976H170.059V142.797Z" fill="#EAEAEA"/>
<path d="M308.641 225.087H0.357422" stroke="#54382D" stroke-width="2.294" stroke-miterlimit="10"/>
<path d="M168.831 53.2726H144.865V41.148C144.865 40.1427 145.681 39.3286 146.686 39.3286H168.831C169.836 39.3286 170.65 40.1427 170.65 41.148V51.4532C170.65 52.4584 169.836 53.2726 168.831 53.2726Z" fill="#BBFFF7"/>
<path d="M144.867 50.3871L144.848 56.5498L150.107 50.403L144.867 50.3871Z" fill="#BBFFF7"/>
<path d="M151.514 46.6035C151.512 47.2449 152.03 47.7657 152.671 47.7682C153.312 47.7694 153.833 47.2534 153.836 46.612C153.837 45.9707 153.32 45.4486 152.678 45.4462C152.037 45.4438 151.516 45.9622 151.514 46.6035Z" fill="white"/>
<path d="M156.492 46.5737C156.491 47.215 157.007 47.7359 157.648 47.7383C158.29 47.7395 158.812 47.2236 158.814 46.5822C158.817 45.9409 158.298 45.4188 157.657 45.4164C157.017 45.4139 156.495 45.9324 156.492 46.5737Z" fill="white"/>
<path d="M161.471 46.3949C161.468 47.0362 161.985 47.5583 162.627 47.5595C163.268 47.5607 163.789 47.0435 163.791 46.4022C163.793 45.7608 163.274 45.24 162.634 45.2376C161.993 45.2363 161.473 45.7535 161.471 46.3949Z" fill="white"/>
</svg>
