<svg width="76" height="76" viewBox="0 0 76 76" fill="none" xmlns="http://www.w3.org/2000/svg">
<path d="M3.5625 58.1875H55.8125L41.5625 42.75H8.3125L3.5625 58.1875Z" fill="#EEDC9A"/>
<path d="M48.6875 58.1875H72.4375L67.6875 42.75H53.4375L48.6875 58.1875Z" fill="#FFC93D"/>
<path d="M3.5625 58.1875H27.3125L22.5625 42.75H8.3125L3.5625 58.1875Z" fill="#FFC93D"/>
<path d="M53.4375 42.75L28.5 17.8125L15.4375 23.75L48.6875 58.1875L53.4375 42.75Z" fill="#E88604"/>
<path d="M28.5 17.8125H42.75L67.6875 42.75H53.4375L28.5 17.8125Z" fill="#EEDC9A"/>
<path d="M42.75 21.375H38V23.75H42.75V21.375Z" fill="#EEBE33"/>
<path d="M46.3125 24.9375H41.5625V27.3125H46.3125V24.9375Z" fill="#EEBE33"/>
<path d="M64.125 32.0625H64.125C62.2353 32.0625 60.4231 31.3118 59.0869 29.9756C57.7507 28.6394 57 26.8272 57 24.9375C57 26.8272 56.2493 28.6394 54.9131 29.9756C53.5769 31.3118 51.7647 32.0625 49.875 32.0625C51.7647 32.0625 53.5769 32.8132 54.9131 34.1494C56.2493 35.4856 57 37.2978 57 39.1875C57 37.2978 57.7507 35.4856 59.0869 34.1494C60.423 32.8132 62.2353 32.0625 64.125 32.0625H64.125Z" fill="#FFD53F"/>
<path d="M23.75 24.9375C21.8603 24.9375 20.0481 24.1868 18.7119 22.8506C17.3757 21.5144 16.625 19.7022 16.625 17.8125C16.625 19.7022 15.8743 21.5144 14.5381 22.8506C13.2019 24.1868 11.3897 24.9375 9.5 24.9375C11.3897 24.9375 13.2019 25.6882 14.5381 27.0244C15.8743 28.3606 16.625 30.1728 16.625 32.0625C16.625 30.1728 17.3757 28.3606 18.7119 27.0244C20.0481 25.6882 21.8603 24.9375 23.75 24.9375V24.9375Z" fill="#FFD53F"/>
</svg>
