<svg width="42" height="43" viewBox="0 0 42 43" fill="none" xmlns="http://www.w3.org/2000/svg">
<path d="M30.8739 29.8095L34.0495 28.5507C34.3993 28.4113 34.6222 28.0643 34.5987 27.686L34.3864 24.2793L36.5071 21.6005C36.7414 21.3045 36.7575 20.8922 36.5488 20.5777L34.6598 17.7307L35.1589 14.3538C35.2153 13.9802 35.0163 13.6093 34.6853 13.4475L31.6237 11.9272L30.3649 8.75157C30.2256 8.39929 29.8784 8.18131 29.5014 8.20373L26.0934 8.41713L23.4146 6.29646C23.1198 6.06342 22.7063 6.04608 22.3931 6.25363L19.5461 8.14261L16.1679 7.64467C15.7954 7.5896 15.4298 7.78139 15.2616 8.11831L13.7414 11.1774L10.5658 12.4362C10.2148 12.5744 9.99423 12.9239 10.0179 13.2997L10.2327 16.7064L8.11194 19.3854C7.87766 19.6813 7.85914 20.0935 8.06783 20.408L9.95681 23.255L9.46015 26.632C9.40369 27.0081 9.59677 27.3725 9.93497 27.5396L12.9917 29.0596L14.2504 32.2353C14.2906 32.3356 14.3472 32.4255 14.4191 32.5038C14.5925 32.6923 14.8468 32.8016 15.1163 32.7833L18.5219 32.5698L21.2008 34.6905C21.4967 34.9247 21.9102 34.9421 22.2247 34.7334L25.0717 32.8444L28.4474 33.3422C28.8223 33.3974 29.1855 33.2055 29.3537 32.8686L30.8739 29.8095Z" fill="#02C650"/>
<path d="M19.7493 18.9697C18.3086 18.9697 17.1362 17.7973 17.1362 16.3567C17.1362 14.916 18.3086 13.7437 19.7493 13.7437C21.1899 13.7437 22.3623 14.916 22.3623 16.3567C22.3623 17.7973 21.1899 18.9697 19.7493 18.9697ZM19.7493 15.4857C19.2685 15.4857 18.8782 15.8759 18.8782 16.3567C18.8782 16.8375 19.2685 17.2277 19.7493 17.2277C20.2301 17.2277 20.6203 16.8375 20.6203 16.3567C20.6203 15.8759 20.2301 15.4857 19.7493 15.4857Z" fill="#F9F9F9"/>
<path d="M24.9744 27.6792C23.5337 27.6792 22.3613 26.5068 22.3613 25.0662C22.3613 23.6255 23.5337 22.4531 24.9744 22.4531C26.415 22.4531 27.5874 23.6255 27.5874 25.0662C27.5874 26.5068 26.415 27.6792 24.9744 27.6792ZM24.9744 24.1951C24.4952 24.1951 24.1033 24.5871 24.1033 25.0662C24.1033 25.5452 24.4952 25.9372 24.9744 25.9372C25.4534 25.9372 25.8454 25.5452 25.8454 25.0662C25.8454 24.5871 25.4534 24.1951 24.9744 24.1951Z" fill="#F9F9F9"/>
<path d="M18.0065 27.6793C17.8305 27.6793 17.6546 27.627 17.5013 27.5172C17.1093 27.2368 17.0187 26.6933 17.2992 26.3014L26.0093 14.1072C26.2898 13.7153 26.8333 13.6247 27.2252 13.9052C27.6172 14.1839 27.706 14.7291 27.4273 15.1193L18.7172 27.3135C18.5447 27.5521 18.2782 27.6793 18.0065 27.6793Z" fill="#F9F9F9"/>
<g opacity="0.05">
<path d="M9.36319 -0.000166276L31.6795 36.8673L22.3163 42.5349L0 5.66748L9.36319 -0.000166276Z" fill="#C1E1FF"/>
</g>
</svg>
