<svg width="382" height="382" viewBox="0 0 382 382" fill="none" xmlns="http://www.w3.org/2000/svg">
<g clip-path="url(#clip0)">
<path d="M382 0H0V382H382V0Z" fill="white"/>
<path d="M345.555 287.072C345.495 286.73 345.432 286.39 345.37 286.048C345.327 285.796 345.258 285.556 345.208 285.312C343.543 268.678 333.266 253.641 318.296 246.154C317.415 245.695 316.519 245.265 315.6 244.862C315.475 244.806 315.342 244.757 315.212 244.704C315.093 244.653 314.972 244.602 314.852 244.551C306.948 241.241 301.795 233.595 301.451 225.033C301.397 223.689 301.265 222.335 301.049 220.975C300.984 220.578 300.925 220.176 300.859 219.778C300.781 219.285 300.674 218.801 300.582 218.314C299.023 207.82 293.825 197.927 286.071 190.787C285.925 190.641 285.769 190.506 285.622 190.365C285.302 190.078 285.003 189.762 284.678 189.486C270.226 176.265 248.74 172.229 229.416 185.259C220.398 191.342 214.61 200.035 211.817 209.533C206.372 196.629 196.452 185.734 183.703 179.412C173.964 174.652 163.688 172.657 152.875 173.419C142.517 174.265 133.023 177.578 124.392 183.356C123.669 183.774 122.947 184.189 122.228 184.601C113.854 190.293 107.394 197.66 102.85 206.714C101.211 210.067 99.9293 213.487 98.9663 216.97C92.8096 217.381 86.7176 218.617 80.6861 220.707C63.7572 226.654 49.5204 239.18 41.5395 255.267C35.9607 266.689 33.6179 278.74 34.5141 291.418C35.896 309.486 44.4547 326.06 57.8617 338.125C62.5298 342.325 67.784 346.214 73.5881 348.632C86.65 354.071 95.7898 356.861 110.109 355.765C114.272 355.445 118.743 354.647 123.189 353.426C130.355 351.459 138.008 352.678 144.174 356.826C145.852 357.955 147.452 358.911 148.691 359.42C160.351 364.215 164.986 365.36 177.605 365.177C180.87 365.126 184.145 364.352 187.408 363.458C194.678 362.198 201.451 359.498 207.697 355.312C209.403 354.162 211.035 353.075 212.582 351.871C216.627 348.727 222.135 348.276 226.7 350.602C236.665 355.678 252.488 357.822 263.754 353.864C269.053 352.002 273.912 349.625 278.115 345.974C282.276 342.36 287.709 340.535 293.213 340.836C299.556 341.184 306.007 340.33 312.203 338.154C331.717 331.297 349.523 308.859 345.555 287.072Z" fill="#D3FFE5"/>
<path d="M260.959 200.481C256.673 197.925 259.238 191.335 264.115 192.394C270.812 193.849 277.09 197.234 281.741 202.276C286.279 207.19 289.121 213.522 290.106 220.131C290.836 225.03 284.228 227.212 281.874 222.854C279.583 218.613 276.682 214.629 273.41 210.83C269.896 206.75 265.642 203.275 260.959 200.481Z" fill="#02C650" fill-opacity="0.47"/>
<path d="M314.189 265.077C314.255 261.09 319.84 260.245 321.047 264.045C322.704 269.264 322.857 274.96 321.215 280.188C319.615 285.287 316.36 289.775 312.173 293.087C309.069 295.542 304.929 291.832 307.011 288.467C309.038 285.193 310.644 281.598 311.974 277.82C313.403 273.762 314.117 269.432 314.189 265.077Z" fill="#02C650" fill-opacity="0.47"/>
<path d="M87.055 307.512C91.921 311.805 87.0669 319.612 81.0876 317.092C72.8769 313.631 65.6634 307.804 60.9253 300.248C56.3017 292.882 54.1841 284.111 54.5065 275.429C54.7455 268.993 63.7118 267.786 65.6779 273.918C67.5914 279.886 70.3458 285.672 73.6176 291.309C77.1328 297.364 81.7386 302.822 87.055 307.512Z" fill="#02C650" fill-opacity="0.47"/>
<path d="M345.555 287.072C345.496 286.73 345.432 286.39 345.37 286.048C345.327 285.796 345.258 285.556 345.209 285.312C344.241 275.646 340.364 266.519 334.349 259.1C333.999 258.683 333.647 258.269 333.293 257.861C333.363 258.377 333.434 258.898 333.504 259.414C333.482 259.768 333.463 260.123 333.441 260.477C336.149 270.259 336.239 279.194 332.389 287.437C325.66 301.843 306.863 305.498 299.84 307.978C294.594 309.83 290.133 313.387 287.056 318.023C285.464 320.421 283.428 323.059 280.916 325.524C271.615 334.821 258.855 340.113 245.696 340.113C237.434 340.113 229.343 338.006 222.162 334.139C216.204 330.93 209.034 330.825 202.963 333.816C193.618 338.421 183.17 341.025 172.202 341.025C161.28 341.025 150.869 338.452 141.552 333.887C132.308 329.36 121.697 328.363 111.86 331.391C111.265 331.574 110.665 331.75 110.062 331.92C91.5038 339.25 65.5316 331.098 54.5082 324.706C49.7407 321.02 44.9712 317.337 40.2029 313.651C40.1405 313.591 40.082 313.522 40.0205 313.46C43.4392 321.314 48.2948 328.521 54.3386 334.736C54.3822 334.78 54.4259 334.825 54.4695 334.869C54.6349 335.038 54.801 335.207 54.9682 335.375C55.0375 335.444 55.107 335.513 55.1765 335.583C55.3206 335.726 55.4653 335.869 55.6105 336.011C55.6911 336.09 55.7719 336.169 55.8531 336.247C55.991 336.381 56.1294 336.514 56.2683 336.647C56.3527 336.727 56.4368 336.808 56.5216 336.888C56.6675 337.026 56.8146 337.163 56.9618 337.3C57.038 337.371 57.1137 337.442 57.1901 337.513C57.4128 337.718 57.6366 337.923 57.862 338.125C62.53 342.325 67.7843 346.214 73.5884 348.632C86.6503 354.071 95.79 356.861 110.109 355.765C114.272 355.445 118.744 354.647 123.19 353.426C130.355 351.459 138.008 352.678 144.174 356.826C145.852 357.955 147.452 358.911 148.691 359.42C160.352 364.215 164.986 365.36 177.605 365.177C178.83 365.158 180.055 365.037 181.281 364.847C181.69 364.783 182.099 364.712 182.507 364.634C182.916 364.556 183.325 364.471 183.733 364.381C184.346 364.247 184.959 364.099 185.571 363.944C185.98 363.841 186.388 363.734 186.796 363.624C187 363.57 187.204 363.514 187.408 363.458C192.406 362.592 197.169 361.045 201.688 358.803C203.742 357.784 205.746 356.62 207.698 355.313C209.404 354.163 211.035 353.075 212.583 351.871C216.627 348.726 222.135 348.277 226.7 350.602C236.666 355.678 252.488 357.822 263.754 353.864C269.053 352.003 273.912 349.625 278.115 345.975C282.276 342.36 287.709 340.535 293.213 340.836C299.556 341.184 306.007 340.33 312.203 338.154C331.717 331.297 349.523 308.859 345.555 287.072Z" fill="#02C650" fill-opacity="0.47"/>
<path d="M68.6448 256.704C68.6448 260.079 65.9087 262.815 62.5337 262.815C59.1587 262.815 56.4229 260.079 56.4229 256.704C56.4229 253.329 59.1587 250.594 62.5337 250.594C65.9087 250.594 68.6448 253.329 68.6448 256.704Z" fill="#02C650" fill-opacity="0.47"/>
<path d="M298.342 246.981C298.342 246.981 311.423 246.398 307.547 229.323C305.159 218.808 305.785 211.213 310.375 201.38" stroke="#5C5C7A" stroke-width="16.2" stroke-linecap="round" stroke-linejoin="round"/>
<path d="M298.342 246.981C298.342 246.981 311.423 246.398 307.547 229.323C305.159 218.808 305.785 211.213 310.375 201.38" stroke="#3E3E5F" stroke-width="16.2" stroke-linecap="round" stroke-linejoin="round" stroke-dasharray="27 27"/>
<path d="M244.393 236.741C244.259 233.811 244.888 225.663 246.092 218.213C247.297 210.762 249.801 203.609 250.305 202.318C250.81 201.027 247.442 199.654 247.202 191.975C247.041 186.832 249.903 184.693 249.932 183.373C249.961 182.054 248.58 174.34 248.978 171.992C249.376 169.644 249.911 168.099 251.629 167.844C253.347 167.59 259.099 174.798 259.099 174.798C259.099 174.798 263.756 173.523 267.166 173.633C270.575 173.743 274.512 175.112 275.628 175.652C276.744 176.191 277.91 176.896 277.91 176.896C277.91 176.896 280.839 174.172 281.562 173.281C282.284 172.39 284.935 169.619 286.286 169.926C287.636 170.233 288.263 171.897 288.174 175.337C288.084 178.776 286.408 183.764 286.471 185.385C286.534 187.005 287.247 190.762 287.536 192.889C287.825 195.016 288.253 198.776 288.253 198.776C288.253 198.776 292.146 201.163 295.406 207.442C298.666 213.722 300.661 222.36 301.113 226.641C302.368 238.541 299.999 246.087 298.806 252.663C297.614 259.24 263.643 264.027 251.977 253.141C245.854 247.429 244.778 245.102 244.393 236.741Z" fill="#6E6E84"/>
<path d="M282.738 216.749C288.694 216.086 297.865 213.191 297.865 213.191C297.865 213.191 299.836 217.971 299.899 220.052C299.963 222.133 285.301 223.183 279.02 222.186C272.738 221.188 264.175 218.69 264.809 215.881C264.977 215.133 270.212 218.142 282.738 216.749Z" fill="#5C5C79"/>
<path d="M283.397 208.739C287.216 207.467 291.657 202.43 291.657 202.43C291.657 202.43 294.719 206.189 295.107 207.532C295.495 208.876 286.528 211.776 282.274 212.173C278.02 212.571 272.031 212.374 271.975 210.44C271.96 209.925 275.419 211.395 283.397 208.739Z" fill="#5C5C79"/>
<path d="M278.371 176.464C278.09 176.728 277.91 176.896 277.91 176.896C277.91 176.896 276.744 176.192 275.628 175.652C274.512 175.112 270.575 173.743 267.166 173.633C264.218 173.538 260.339 174.478 259.341 174.734C258.665 177.034 258.334 180.143 259.468 180.049C260.937 179.926 261.271 176.292 262.557 175.294C263.843 174.296 263.61 176.214 263.41 179.531C263.21 182.848 265.721 182.377 266.543 179.096C267.385 175.733 268.678 174.637 269.508 174.923C270.065 175.115 270.734 175.367 269.897 178.53C269.059 181.693 270.353 184.819 271.946 181.698C273.538 178.578 277.447 177.143 277.447 177.143C277.939 176.966 278.233 176.734 278.371 176.464Z" fill="#5C5C79"/>
<path d="M301.266 228.344C301.266 228.344 288.922 228.627 282.947 228.166C271.132 227.255 266.397 220.476 266.167 222.785C266.102 223.442 266.483 224.52 267.167 225.84C262.156 226.028 250.649 215.125 251.562 202.531C251.836 198.751 248.894 195.171 248.518 190.796C248.267 187.86 249.917 185.293 251.03 183.922C251.614 183.204 251.827 182.255 251.598 181.358C251.117 179.476 250.332 176.252 250.037 174.172C249.6 171.085 250.444 168.35 251.552 168.3C252.035 168.278 252.683 168.434 253.259 168.616C253.259 168.616 253.259 168.616 253.258 168.616C253.224 168.589 253.19 168.564 253.156 168.538C253.146 168.531 253.136 168.523 253.127 168.516C253.096 168.493 253.065 168.471 253.034 168.449C253.022 168.44 253.01 168.431 252.998 168.422C252.969 168.401 252.94 168.382 252.912 168.362C252.898 168.353 252.885 168.343 252.871 168.334C252.844 168.315 252.817 168.297 252.79 168.28C252.776 168.27 252.762 168.261 252.748 168.252C252.722 168.235 252.695 168.219 252.67 168.203C252.656 168.194 252.642 168.186 252.628 168.177C252.603 168.162 252.577 168.147 252.552 168.132C252.54 168.125 252.527 168.118 252.514 168.111C252.468 168.085 252.423 168.061 252.379 168.038C252.364 168.03 252.348 168.022 252.334 168.015C252.315 168.006 252.297 167.998 252.278 167.989C252.261 167.981 252.242 167.972 252.225 167.965C252.207 167.957 252.191 167.951 252.174 167.944C252.156 167.937 252.137 167.929 252.119 167.923C252.104 167.917 252.088 167.911 252.072 167.906C252.054 167.9 252.036 167.894 252.019 167.889C252.004 167.884 251.989 167.88 251.975 167.876C251.956 167.871 251.939 167.867 251.921 167.863C251.908 167.86 251.894 167.857 251.881 167.855C251.863 167.852 251.846 167.849 251.828 167.847C251.816 167.845 251.804 167.843 251.792 167.842C251.773 167.84 251.755 167.84 251.736 167.84C251.727 167.84 251.717 167.839 251.708 167.839C251.681 167.84 251.655 167.841 251.629 167.845C251.361 167.885 251.121 167.956 250.906 168.057C250.735 168.138 250.579 168.238 250.437 168.355C250.366 168.414 250.298 168.478 250.234 168.545C249.559 169.257 249.239 170.452 248.978 171.993C248.586 174.304 249.918 181.815 249.932 183.308C249.933 183.332 249.933 183.354 249.932 183.374C249.929 183.529 249.885 183.696 249.813 183.877C249.806 183.894 249.8 183.911 249.793 183.928C249.581 184.43 249.157 185.045 248.711 185.844C248.655 185.945 248.598 186.049 248.541 186.156C248.512 186.212 248.482 186.27 248.452 186.328C248.394 186.442 248.335 186.559 248.278 186.68C248.221 186.8 248.165 186.922 248.11 187.049C247.996 187.311 247.888 187.59 247.787 187.885C247.766 187.947 247.745 188.009 247.725 188.072C247.382 189.139 247.153 190.419 247.202 191.975C247.377 197.567 249.21 199.815 249.999 201.122C250.03 201.174 250.059 201.223 250.087 201.272C250.118 201.327 250.147 201.381 250.173 201.433C250.2 201.484 250.224 201.534 250.245 201.583C250.272 201.647 250.296 201.71 250.313 201.77C250.337 201.852 250.352 201.93 250.356 202.006C250.356 202.008 250.356 202.01 250.356 202.012C250.36 202.116 250.345 202.218 250.305 202.318C249.974 203.166 248.782 206.538 247.661 210.861C247.634 210.964 247.608 211.068 247.581 211.172C247.475 211.588 247.369 212.012 247.265 212.443C247.24 212.551 247.214 212.659 247.188 212.768C247.111 213.094 247.034 213.423 246.96 213.756C246.935 213.867 246.91 213.979 246.885 214.09C246.84 214.294 246.796 214.499 246.752 214.704C246.743 214.748 246.734 214.791 246.725 214.835C246.663 215.127 246.603 215.422 246.544 215.718C246.535 215.763 246.526 215.808 246.517 215.854C246.48 216.038 246.445 216.224 246.409 216.409L246.385 216.539C246.349 216.727 246.315 216.916 246.281 217.105C246.257 217.242 246.233 217.379 246.209 217.516C246.169 217.748 246.13 217.98 246.092 218.213C246.039 218.544 245.986 218.877 245.935 219.21C245.93 219.247 245.924 219.283 245.919 219.319C245.886 219.535 245.853 219.752 245.821 219.969C245.801 220.102 245.782 220.234 245.763 220.367C245.733 220.573 245.703 220.779 245.674 220.985C245.67 221.014 245.666 221.043 245.662 221.071C245.532 221.999 245.411 222.925 245.3 223.84C245.286 223.956 245.272 224.071 245.258 224.187C244.608 229.624 244.295 234.589 244.393 236.741C244.394 236.746 244.394 236.75 244.394 236.754C244.402 236.93 244.411 237.102 244.42 237.273C244.422 237.313 244.424 237.354 244.426 237.394C244.435 237.568 244.444 237.739 244.455 237.907C244.455 237.922 244.456 237.938 244.457 237.953C244.467 238.115 244.477 238.274 244.487 238.431C244.489 238.456 244.491 238.481 244.493 238.506C244.504 238.676 244.516 238.843 244.529 239.008C244.53 239.018 244.53 239.028 244.531 239.039C244.544 239.208 244.558 239.375 244.572 239.539C244.573 239.54 244.573 239.54 244.573 239.541C244.587 239.711 244.603 239.878 244.62 240.042C244.62 240.044 244.62 240.047 244.62 240.049C244.786 241.701 245.03 243.078 245.414 244.315C245.414 244.316 245.414 244.316 245.414 244.317C246.381 247.427 248.237 249.653 251.977 253.142C260.981 261.544 283.27 260.609 293.523 256.722C296.45 255.331 298.777 253.294 298.964 252.499C302.676 236.695 301.266 228.344 301.266 228.344Z" fill="#5C5C79"/>
<path d="M262.688 198.333C262.517 198.333 262.351 198.239 262.268 198.075C261.665 196.884 261.174 194.054 261.153 193.934C261.109 193.678 261.281 193.435 261.537 193.391C261.792 193.346 262.035 193.519 262.079 193.775C262.084 193.803 262.568 196.585 263.107 197.65C263.224 197.882 263.132 198.165 262.9 198.282C262.832 198.317 262.759 198.333 262.688 198.333Z" fill="#2C3135"/>
<path d="M260.815 198.464C260.756 198.464 260.696 198.452 260.638 198.429C260.398 198.332 260.282 198.058 260.379 197.817C260.616 197.232 261.239 195.564 261.275 194.874C261.289 194.614 261.513 194.416 261.77 194.429C262.029 194.443 262.228 194.665 262.214 194.924C262.162 195.896 261.344 197.94 261.25 198.17C261.176 198.353 261.001 198.464 260.815 198.464Z" fill="#2C3135"/>
<path d="M263.738 192.02C263.738 192.02 263.21 193.985 261.616 193.854C260.801 193.787 259.6 192.596 259.768 191.845C259.909 191.212 260.724 190.97 262.183 191.101C263.044 191.177 263.58 191.574 263.738 192.02Z" fill="#2C3135"/>
<path d="M278.266 194.576C278.094 194.576 277.928 194.481 277.846 194.317C277.729 194.085 277.823 193.803 278.055 193.686L284.272 190.562C284.504 190.446 284.787 190.539 284.903 190.771C285.02 191.003 284.926 191.286 284.694 191.402L278.477 194.526C278.409 194.56 278.337 194.576 278.266 194.576Z" fill="#33658A"/>
<path d="M278.703 196.589C278.468 196.589 278.265 196.413 278.237 196.174C278.207 195.916 278.391 195.682 278.649 195.652L285.406 194.859C285.661 194.829 285.898 195.013 285.928 195.271C285.958 195.529 285.774 195.762 285.516 195.792L278.759 196.586C278.74 196.588 278.722 196.589 278.703 196.589Z" fill="#33658A"/>
<path d="M283.886 199.571C283.824 199.571 283.76 199.559 283.699 199.532L278.836 197.43C278.597 197.327 278.487 197.051 278.59 196.812C278.693 196.574 278.97 196.464 279.209 196.567L284.073 198.669C284.311 198.772 284.421 199.049 284.318 199.288C284.241 199.465 284.068 199.571 283.886 199.571Z" fill="#33658A"/>
<path d="M251.329 194.91C251.263 194.91 251.197 194.897 251.133 194.868L245.927 192.489C245.691 192.381 245.587 192.103 245.694 191.867C245.802 191.63 246.081 191.526 246.317 191.634L251.524 194.013C251.76 194.121 251.864 194.399 251.756 194.635C251.677 194.808 251.507 194.91 251.329 194.91Z" fill="#33658A"/>
<path d="M251.009 196.804C250.982 196.804 250.956 196.802 250.929 196.797L246.082 195.976C245.826 195.932 245.654 195.69 245.697 195.434C245.74 195.178 245.984 195.006 246.239 195.049L251.086 195.87C251.342 195.914 251.515 196.156 251.471 196.412C251.433 196.641 251.234 196.804 251.009 196.804Z" fill="#33658A"/>
<path d="M247.11 199.572C246.888 199.572 246.69 199.413 246.648 199.186C246.602 198.931 246.771 198.685 247.026 198.639L250.564 197.992C250.819 197.945 251.064 198.114 251.111 198.37C251.158 198.625 250.989 198.87 250.733 198.917L247.195 199.564C247.167 199.569 247.138 199.572 247.11 199.572Z" fill="#33658A"/>
<path d="M220.251 156.576C220.251 156.576 223.407 157.39 226.897 163.378C230.386 169.366 231.237 171.74 232.546 175.655C233.856 179.57 234.136 180.122 235.164 184.809C236.192 189.497 236.081 189.216 238.449 193.663C241.113 201.41 244.822 217.055 246.42 218.571C248.646 230.216 244.185 234.543 239.743 235.871C234.346 237.485 228.15 236.048 223.567 220.182C222.835 217.647 220.692 214.262 219.239 210.554C217.787 206.846 215.92 204.174 213.71 199.941C211.5 195.707 213.765 171.288 214.987 167.397C216.209 163.505 220.251 156.576 220.251 156.576Z" fill="#33658A"/>
<path d="M178.874 64.8677C178.874 64.8677 189.077 58.0073 199.577 76.0375C211.606 96.6932 201.813 132.836 208.081 165.637C209.568 173.421 175.851 177.835 172.909 143.108C169.966 108.382 178.874 64.8677 178.874 64.8677Z" fill="#6F514C"/>
<path d="M155.118 256.931C154.466 260.468 153.831 264.154 153.301 267.33C151.93 267.262 149.429 267.068 146.394 266.508C144.166 266.098 141.778 265.564 139.314 264.933C140.782 266.272 142.185 267.511 143.803 269.181C146.76 272.232 148.569 276.919 153.774 277.982C158.979 279.044 165.368 277.802 169.978 280.17C174.589 282.538 182.733 286.946 188.252 290.217C188.679 290.47 189.119 290.731 189.57 290.996C193.223 289.196 199.546 286.231 204.075 284.931C210.806 282.998 215.55 276.49 222.188 272.136C225.589 269.903 231.18 265.824 238.199 261.585C226.997 258.953 181.784 258.441 155.118 256.931Z" fill="#33658A"/>
<path d="M261.451 250.5C261.451 250.5 270.222 248.079 276.996 248.046C289.795 247.983 292.63 259.922 293.42 263.223C297.777 281.42 273.61 293.836 273.61 293.836C273.61 293.836 261.775 300.598 254.267 302.404C246.76 304.21 235.375 305.215 229.964 305.21C224.553 305.205 211.446 304.74 205.732 302.443C200.018 300.147 186.647 292.473 186.647 292.473C186.647 292.473 197.344 286.864 204.075 284.93C210.806 282.998 215.55 276.49 222.188 272.135C228.825 267.779 243.797 256.393 261.451 250.5Z" fill="#33658A"/>
<path d="M186.647 292.943C186.478 292.943 186.315 292.852 186.231 292.692C186.11 292.462 186.199 292.177 186.428 292.057C186.536 292 197.245 286.403 203.945 284.479C208.043 283.302 211.415 280.363 214.985 277.252C217.158 275.357 219.406 273.398 221.93 271.742C222.931 271.085 224.119 270.27 225.494 269.326C233.261 263.996 246.261 255.075 261.301 250.055C261.31 250.052 261.317 250.05 261.325 250.048C261.414 250.023 270.235 247.609 276.993 247.576C277.028 247.576 277.063 247.576 277.098 247.576C282.639 247.576 287.007 249.765 290.082 254.084C292.544 257.541 293.475 261.435 293.873 263.098L293.877 263.114C293.937 263.367 293.782 263.621 293.529 263.681C293.277 263.741 293.023 263.586 292.963 263.333L292.959 263.317C290.609 253.496 285.272 248.516 277.098 248.516C277.064 248.516 277.032 248.516 276.998 248.516C270.474 248.548 261.952 250.851 261.587 250.951C246.676 255.93 233.75 264.801 226.026 270.102C224.647 271.048 223.456 271.866 222.446 272.528C219.975 274.149 217.752 276.087 215.603 277.961C211.952 281.143 208.504 284.148 204.204 285.383C197.597 287.28 186.972 292.834 186.865 292.89C186.795 292.926 186.721 292.943 186.647 292.943Z" fill="white"/>
<path d="M106.763 158.231C106.763 158.231 106.536 153.482 108.532 151.686C114.006 144.779 133.56 136.859 137.593 136.51C141.625 136.162 143.075 144.614 146.589 149.57C150.104 154.526 152.924 160.946 161.53 162.844C170.136 164.743 176.986 163.746 182.631 160.718C188.276 157.69 192.073 151.382 192.073 151.382C192.073 151.382 194.381 147.447 198.041 147.008C201.702 146.569 209.191 147.382 213.226 149.882C217.26 152.382 217.894 152.617 220.913 155.304C223.932 157.991 224.297 159.039 222.207 164.558C220.117 170.077 216.071 188.207 214.873 193.22C213.675 198.233 212.397 209.274 212.043 212.491C211.689 215.709 211.531 220.901 211.531 220.901L209.328 232.056L207.042 241.954C207.042 241.954 202.226 254.958 197.219 255.611C192.213 256.264 144.427 255.06 137.868 252.6C131.308 250.141 119.09 242.809 115.954 226.93C112.819 211.052 108.852 168.865 107.757 166.571C106.663 164.276 106.763 158.231 106.763 158.231Z" fill="#0B3350"/>
<path d="M143.026 210.544C158.164 209.552 148.172 161.521 139.366 136.981C138.83 136.629 135.795 134.362 135.143 134.419C132.664 134.632 128.841 137.14 122.951 141.296C126.749 151.103 130.699 171.088 125.333 185.693C121.004 197.475 122.471 211.891 143.026 210.544Z" fill="#33658A"/>
<path d="M107.725 153.231C107.611 153.231 107.497 153.19 107.406 153.106C107.215 152.93 107.203 152.633 107.379 152.442C116.798 142.24 131.248 136.127 131.393 136.066C131.633 135.966 131.907 136.079 132.007 136.319C132.108 136.558 131.995 136.834 131.755 136.934C131.612 136.994 117.347 143.031 108.07 153.08C107.978 153.18 107.851 153.231 107.725 153.231Z" fill="#33658A"/>
<path d="M191.981 197.206C191.981 197.206 191.758 191.365 189.339 188.753C186.919 186.14 184.667 192.307 184.035 193.837C183.404 195.367 180.314 193.444 175.474 194.23C170.633 195.015 172.344 189.293 168.581 188.793C166.662 188.537 166.131 197.322 166.558 201.594C167.326 209.283 172.385 210.766 179.235 211.077C183.432 211.268 188.787 210.083 190.396 206.934C192.395 203.021 191.981 197.206 191.981 197.206Z" fill="#1FA19D"/>
<path d="M211.606 219.422C211.597 219.422 211.589 219.422 211.58 219.422C211.321 219.408 211.122 219.187 211.136 218.927C211.46 212.823 213.705 199.28 213.728 199.144C213.77 198.887 214.012 198.714 214.268 198.757C214.525 198.8 214.698 199.042 214.655 199.298C214.632 199.433 212.396 212.925 212.075 218.977C212.062 219.228 211.854 219.422 211.606 219.422Z" fill="#33658A"/>
<path d="M170.438 169.543C169.516 169.543 168.566 169.515 167.582 169.458C162.23 169.146 157.352 167.783 153.085 165.407C149.669 163.505 146.636 160.955 144.072 157.828C139.709 152.506 138.235 147.425 138.174 147.211C138.103 146.962 138.248 146.702 138.498 146.631C138.747 146.56 139.008 146.705 139.079 146.955C139.093 147.005 140.572 152.089 144.824 157.261C148.733 162.018 155.865 167.833 167.637 168.52C179.444 169.209 186.605 165.48 190.532 162.232C194.765 158.73 196.237 155.051 196.251 155.015C196.346 154.773 196.618 154.654 196.86 154.748C197.102 154.843 197.221 155.115 197.127 155.357C197.064 155.516 195.55 159.301 191.131 162.956C187.403 166.04 180.869 169.543 170.438 169.543Z" fill="#33658A"/>
<path d="M226.696 159.707C226.527 159.707 226.365 159.617 226.28 159.458C222.792 152.919 214.116 148.448 214.029 148.403C213.798 148.286 213.705 148.003 213.823 147.771C213.941 147.54 214.224 147.448 214.455 147.565C214.822 147.752 223.481 152.212 227.11 159.016C227.232 159.245 227.145 159.529 226.916 159.652C226.846 159.689 226.77 159.707 226.696 159.707Z" fill="#33658A"/>
<path d="M136.053 261.108L152.364 277.982C152.364 277.982 170.823 276.173 178.624 275.28C186.426 274.386 151.769 262.534 146.668 261.108C141.567 259.683 136.053 261.108 136.053 261.108Z" fill="#1FA19D" fill-opacity="0.36"/>
<path d="M258.488 297.569C258.488 297.569 266.029 295.545 269.385 296.338C272.74 297.13 272.793 295.849 276.385 296.675C278.927 297.259 282.405 298.98 282.331 301.701C282.257 304.422 279.334 303.865 271.483 303.278C263.633 302.69 248.481 303.89 243.217 303.419C253.906 299.349 258.488 297.569 258.488 297.569Z" fill="#FFB7B8"/>
<path d="M278.88 304.232C277.593 304.232 275.928 304.099 273.783 303.928C273.059 303.87 272.282 303.808 271.449 303.746C271.19 303.727 270.996 303.501 271.015 303.242C271.034 302.983 271.259 302.789 271.519 302.809C272.353 302.871 273.132 302.933 273.858 302.991C278.074 303.327 280.619 303.53 281.471 302.764C281.63 302.621 281.843 302.354 281.861 301.688C281.922 299.453 279.011 297.76 276.28 297.133C276.027 297.074 275.869 296.822 275.927 296.569C275.985 296.316 276.237 296.158 276.49 296.216C278.875 296.764 282.888 298.538 282.801 301.714C282.78 302.485 282.551 303.058 282.1 303.463C281.466 304.033 280.455 304.232 278.88 304.232Z" fill="#33658A"/>
<path d="M109.992 245.549C115.32 244.609 119.707 241.005 122.371 236.461C122.374 236.454 122.378 236.448 122.382 236.442C123.035 235.285 123.125 233.889 122.657 232.645C122.141 231.275 121.611 230.563 121.081 229.768C120.333 228.646 122.243 229.394 121.413 227.277C120.582 225.158 120.624 224.909 121.164 222.501C121.704 220.092 122.488 214.96 121.965 211.825C121.965 211.825 123.393 207.98 122.609 201.428C121.826 194.876 120.188 186.544 118.764 180.846C117.34 175.149 114.601 167.075 111.894 160.507C109.997 155.906 108.771 147.482 104.98 157.356C102.657 163.405 101.314 165.908 99.9616 173.545C98.6087 181.181 94.9306 199.448 95.3174 212.476C95.7046 225.504 93.4471 231.116 95.8337 240.919C95.9483 241.39 96.0591 241.834 96.1666 242.253C97.0886 243.186 98.2002 243.947 99.3374 244.452C102.785 245.862 106.389 246.176 109.992 245.549Z" fill="#33658A"/>
<path d="M99.546 294.296C99.546 294.296 95.511 283.79 95.9505 276.962C96.3903 270.134 99.1386 264.185 102.93 260.534C106.721 256.884 112.223 253.039 121.568 254.849C130.913 256.658 132.153 257.677 135.38 261.098C138.606 264.519 140.846 266.129 143.802 269.181C146.759 272.232 148.569 276.919 153.774 277.982C158.978 279.044 165.368 277.802 169.978 280.17C174.589 282.538 182.732 286.946 188.252 290.217C193.772 293.488 201.473 297.987 205.767 300.508C210.06 303.03 213.536 302.62 215.99 304.052C218.443 305.483 205.61 306.723 199.089 307.768C180.069 310.818 160.081 294.886 153.421 299.551C145.587 305.04 138.536 296.376 126.323 298.5C114.11 300.624 113.31 293.421 99.546 294.296Z" fill="#33658A"/>
<path d="M215.989 304.522C215.909 304.522 215.827 304.501 215.752 304.458C214.763 303.88 213.566 303.615 212.18 303.308C210.241 302.878 208.043 302.391 205.528 300.913C204.327 300.208 202.858 299.347 201.245 298.402C197.12 295.985 191.988 292.977 188.012 290.621C182.587 287.406 174.56 283.052 169.762 280.588C167.044 279.191 163.57 279.091 160.21 278.994C158.016 278.93 155.748 278.865 153.68 278.443C149.756 277.641 147.713 274.922 145.738 272.292C144.984 271.288 144.271 270.34 143.464 269.507C142.103 268.102 140.919 267.026 139.664 265.887C138.246 264.599 136.78 263.267 135.037 261.42C131.849 258.04 130.637 257.083 121.478 255.31C112.296 253.532 106.916 257.349 103.256 260.873C99.3851 264.599 96.8291 270.625 96.4191 276.992C95.991 283.64 99.9445 294.023 99.9845 294.127C100.077 294.37 99.9566 294.642 99.7142 294.735C99.472 294.828 99.2 294.707 99.1068 294.464C98.9404 294.031 95.0398 283.783 95.4811 276.931C95.9058 270.337 98.5684 264.081 102.604 260.195C106.428 256.514 112.049 252.527 121.657 254.387C131.072 256.21 132.437 257.294 135.721 260.775C137.439 262.596 138.892 263.915 140.297 265.191C141.507 266.29 142.758 267.427 144.14 268.853C144.987 269.728 145.751 270.745 146.489 271.728C148.359 274.217 150.293 276.791 153.868 277.522C155.857 277.927 158.084 277.992 160.237 278.054C163.702 278.154 167.284 278.258 170.192 279.751C175.002 282.222 183.05 286.588 188.491 289.812C192.465 292.167 197.597 295.174 201.72 297.591C203.334 298.536 204.803 299.397 206.005 300.103C208.391 301.505 210.512 301.975 212.383 302.39C213.846 302.714 215.11 302.994 216.226 303.645C216.451 303.776 216.526 304.064 216.395 304.288C216.308 304.438 216.151 304.522 215.989 304.522Z" fill="white"/>
<path d="M146.588 149.57C150.104 154.526 152.923 160.946 161.529 162.844C170.135 164.743 176.985 163.746 182.631 160.718C185.747 159.046 190.601 154.703 192.073 151.382C187.249 150.811 180.522 145.789 184.145 133.504C183.69 133.827 180.303 136.708 179.875 136.918C176.03 138.802 170.622 140.336 165.166 136.351C163.099 134.841 160.957 132.852 159.03 130.355C161.176 135.557 161.809 141.854 155.22 146.452C152.144 148.599 148.845 148.852 145.553 147.922C145.879 148.5 146.222 149.054 146.588 149.57Z" fill="#FFA7A9"/>
<path d="M172.908 143.108C176.098 141.756 178.613 139.755 180.508 137.792C180.714 137.228 180.947 136.668 181.202 136.114C180.747 136.437 180.303 136.708 179.875 136.918C176.03 138.802 170.622 140.336 165.166 136.351C163.099 134.841 158.106 129.449 156.179 126.952C154.88 127.839 158.093 138.85 155.22 146.452C155.048 146.906 154.421 146.975 154.016 147.191C160.448 146.891 167.898 145.233 172.908 143.108Z" fill="#FA8485"/>
<path d="M152.383 150.835C152.383 150.835 154.229 157.962 166.082 157.887C177.934 157.812 181.47 156.912 181.202 154.361C180.935 151.81 178.309 147.234 177.934 145.284C177.559 143.333 172.683 147.607 168.032 148.433C163.381 149.26 152.412 148.359 152.383 150.835Z" fill="#FFB7B8"/>
<path d="M169.036 164.238C167.4 164.238 165.779 164.075 164.173 163.748C157.898 162.47 153.062 158.872 150.11 156.078C146.917 153.056 145.225 150.372 145.154 150.259C145.017 150.039 145.084 149.749 145.304 149.611C145.524 149.474 145.814 149.54 145.952 149.761C146.018 149.867 152.771 160.472 164.369 162.829C171.628 164.304 179.253 162.291 187.032 156.845C187.245 156.696 187.538 156.748 187.687 156.96C187.836 157.173 187.784 157.466 187.572 157.615C181.277 162.021 175.063 164.238 169.036 164.238Z" fill="#33658A"/>
<path d="M194.671 90.6517C196.68 99.2068 195.126 116.751 191.97 122.501C188.815 128.25 183.719 135.034 179.875 136.918C176.03 138.802 170.622 140.336 165.166 136.351C159.71 132.365 153.718 125.05 152.595 113.829C151.473 102.607 154.516 88.2074 168.59 79.3061C177.835 73.4596 192.664 82.0968 194.671 90.6517Z" fill="#FFC4C5"/>
<path d="M156.555 100.724C158.745 85.5295 171.93 78.3137 173.711 77.5077C171.903 77.735 170.165 78.3101 168.59 79.3061C154.516 88.2077 151.473 102.607 152.595 113.829C153.718 125.05 159.71 132.365 165.166 136.351C166.685 137.46 168.2 138.142 169.678 138.507C155.479 130.356 154.332 116.145 156.555 100.724Z" fill="#FA8485"/>
<path d="M175.391 77.3955C184.104 79.464 189.38 85.0552 191.581 93.2978C194.887 105.674 189.963 128.78 177.906 137.778C178.598 137.515 179.257 137.221 179.875 136.918C183.719 135.034 188.816 128.25 191.971 122.501C195.126 116.751 196.68 99.2067 194.671 90.6517C193.111 84.001 183.801 77.3017 175.391 77.3955Z" fill="#FFEDEE"/>
<path d="M192.411 72.1921C192.411 72.1921 190.004 96.7404 165.14 99.3324C140.276 101.924 155.989 127.56 157.73 131.243C159.471 134.926 175.905 209.16 148.935 210.492C121.965 211.825 132.306 189.542 132.556 180.078C133.076 160.298 125.818 141.201 125.347 124.666C124.877 108.132 135.213 70.7493 156.291 63.5864C177.369 56.4237 187.554 62.7334 192.411 72.1921Z" fill="#6F514C"/>
<path d="M151.156 91.1218C150.913 91.1218 150.707 90.9346 150.688 90.688C150.668 90.4292 150.862 90.2031 151.121 90.1832C160.171 89.4855 167.684 84.5684 172.393 80.5664C177.518 76.2116 180.527 71.9645 180.557 71.9221C180.706 71.7099 180.999 71.6585 181.212 71.8077C181.424 71.9568 181.475 72.25 181.326 72.4624C181.296 72.5056 178.231 76.835 173.022 81.266C168.203 85.3654 160.504 90.4027 151.193 91.1206C151.18 91.1216 151.168 91.1218 151.156 91.1218Z" fill="#33658A"/>
<path d="M159.541 100.896C159.311 100.896 159.11 100.728 159.076 100.494C159.039 100.237 159.216 99.9983 159.473 99.9609C178.076 97.2395 189.762 86.4253 189.878 86.3164C190.067 86.1382 190.365 86.1479 190.542 86.3368C190.72 86.5261 190.711 86.8235 190.522 87.0013C190.401 87.1152 187.499 89.8216 182.22 92.9078C177.353 95.7528 169.48 99.4471 159.609 100.891C159.586 100.894 159.564 100.896 159.541 100.896Z" fill="#33658A"/>
<path d="M173.712 88.1416C173.528 88.1416 173.354 88.0335 173.278 87.8538C173.178 87.6144 173.29 87.3388 173.529 87.2382C185.806 82.0711 187.36 74.0175 187.374 73.9367C187.419 73.681 187.663 73.5106 187.919 73.5557C188.174 73.6008 188.345 73.8447 188.3 74.1004C188.284 74.1896 187.891 76.3181 185.903 79.1197C184.089 81.6763 180.533 85.3104 173.894 88.1047C173.834 88.1298 173.772 88.1416 173.712 88.1416Z" fill="#33658A"/>
<path d="M206.005 147.553C205.797 147.553 205.606 147.414 205.55 147.204C202.738 136.621 203.442 126.242 204.122 116.205C204.998 103.286 205.903 89.9269 199.155 76.2454C199.04 76.0126 199.136 75.7308 199.369 75.6159C199.602 75.5013 199.883 75.5968 199.998 75.8296C206.858 89.738 205.944 103.226 205.06 116.269C204.385 126.23 203.687 136.53 206.459 146.962C206.526 147.213 206.377 147.471 206.126 147.537C206.085 147.548 206.045 147.553 206.005 147.553Z" fill="#33658A"/>
<path d="M147.321 95.5621C144.08 96.2665 142.814 104.208 147.043 108.64C151.272 113.071 151.429 113.345 153.333 112.078C155.236 110.812 154.659 105.294 154.144 101.742C153.639 98.2584 151.829 94.2728 147.321 95.5621Z" fill="#FA8485"/>
<path d="M155.691 112.535C154.184 111.41 153.077 110.274 152.265 109.251C152.333 109.237 152.401 109.22 152.467 109.197C153.782 108.742 154.26 106.676 153.535 104.582C152.811 102.489 151.159 101.16 149.844 101.615C148.53 102.07 148.052 104.135 148.777 106.229C148.957 106.751 149.196 107.226 149.472 107.637C150.253 109.176 151.81 111.463 154.816 113.708C154.947 113.806 155.101 113.853 155.253 113.853C155.476 113.853 155.696 113.751 155.84 113.559C156.081 113.235 156.015 112.777 155.691 112.535Z" fill="white"/>
<path d="M155.254 114.323C154.993 114.323 154.745 114.24 154.535 114.084C151.468 111.793 149.869 109.448 149.067 107.875C148.766 107.424 148.519 106.922 148.333 106.383C147.954 105.288 147.867 104.158 148.089 103.201C148.328 102.167 148.897 101.446 149.691 101.171C149.937 101.086 150.205 101.216 150.289 101.461C150.374 101.707 150.244 101.974 149.999 102.059C149.522 102.224 149.169 102.705 149.005 103.413C148.823 104.2 148.9 105.145 149.222 106.075C149.385 106.547 149.601 106.984 149.863 107.375C149.874 107.391 149.883 107.407 149.892 107.424C150.645 108.907 152.16 111.136 155.098 113.331C155.156 113.374 155.215 113.383 155.254 113.383C155.337 113.383 155.414 113.345 155.464 113.278C155.506 113.222 155.523 113.153 155.513 113.084C155.503 113.015 155.467 112.954 155.411 112.912C154.042 111.89 152.86 110.756 151.898 109.543C151.736 109.34 151.77 109.044 151.974 108.883C152.177 108.721 152.473 108.755 152.634 108.959C153.546 110.108 154.67 111.185 155.973 112.159C156.231 112.351 156.398 112.632 156.444 112.949C156.49 113.267 156.409 113.583 156.217 113.841C155.991 114.143 155.631 114.323 155.254 114.323Z" fill="#33658A"/>
<path d="M145.704 107.297C145.523 107.297 145.35 107.192 145.273 107.016C143.623 103.242 143.359 100.142 144.49 97.8025C145.705 95.2862 148.082 94.6326 148.183 94.6061C148.434 94.54 148.691 94.6894 148.757 94.9405C148.824 95.1911 148.674 95.4478 148.424 95.5149C148.386 95.5252 146.344 96.1077 145.329 98.2265C144.332 100.306 144.603 103.137 146.134 106.639C146.239 106.876 146.13 107.154 145.892 107.258C145.831 107.285 145.767 107.297 145.704 107.297Z" fill="#33658A"/>
<path d="M172.488 139.324C169.776 139.324 167.257 138.46 164.889 136.73C160.669 133.647 153.399 126.579 152.127 113.875C152.102 113.617 152.29 113.387 152.548 113.361C152.808 113.336 153.037 113.524 153.063 113.782C154.298 126.122 161.35 132.981 165.443 135.971C169.576 138.99 174.229 139.161 179.669 136.496C181.157 135.766 186.334 131.877 190.46 123.843C193.846 117.248 197.246 106.152 194.21 90.7426C194.16 90.4878 194.326 90.2407 194.58 90.1904C194.836 90.1404 195.082 90.3064 195.132 90.561C196.472 97.3632 196.696 103.915 195.798 110.036C195.053 115.116 193.538 119.906 191.296 124.272C187.51 131.644 182.408 136.2 180.082 137.34C177.383 138.663 174.861 139.324 172.488 139.324Z" fill="#33658A"/>
<path d="M152.139 113.169C152.118 113.169 152.097 113.168 152.076 113.165C148.752 112.715 147.036 109.351 146.965 109.208C146.849 108.975 146.943 108.693 147.175 108.577C147.407 108.461 147.689 108.555 147.806 108.787C147.821 108.818 149.376 111.851 152.202 112.234C152.459 112.268 152.639 112.505 152.605 112.762C152.573 112.998 152.371 113.169 152.139 113.169Z" fill="#33658A"/>
<path d="M138.893 79.028C138.813 79.028 138.732 79.0078 138.658 78.965C138.433 78.8353 138.356 78.548 138.486 78.3232C138.54 78.2294 144.027 68.8913 155.699 64.104C155.939 64.0055 156.213 64.1203 156.312 64.3606C156.411 64.6006 156.296 64.8753 156.056 64.9739C144.693 69.6344 139.353 78.702 139.3 78.7931C139.213 78.9438 139.055 79.028 138.893 79.028Z" fill="#33658A"/>
<path d="M176.303 127.955C174.658 127.858 172.076 126.405 172.083 122.891C172.083 122.891 175.853 125.692 181.535 124.679C181.535 124.679 180.522 128.205 176.303 127.955Z" fill="#FA8485"/>
<path d="M176.724 128.438C176.579 128.438 176.429 128.433 176.275 128.425C174.469 128.317 171.605 126.72 171.613 122.89C171.614 122.713 171.714 122.551 171.873 122.471C172.031 122.392 172.221 122.408 172.364 122.514C172.399 122.541 176.053 125.179 181.453 124.217C181.613 124.188 181.776 124.244 181.885 124.365C181.993 124.485 182.032 124.653 181.987 124.809C181.976 124.847 180.895 128.438 176.724 128.438ZM176.331 127.486C178.962 127.642 180.224 126.189 180.754 125.27C176.855 125.735 173.953 124.509 172.615 123.773C172.992 126.323 175.01 127.407 176.331 127.486Z" fill="#33658A"/>
<path d="M177.709 120.398C177.493 120.398 177.298 120.248 177.25 120.029C177.195 119.775 177.356 119.524 177.609 119.469C177.807 119.426 177.988 119.389 178.158 119.354C178.978 119.185 179.52 119.073 180.582 118.599C181.616 118.138 181.574 117.713 181.228 115.986C181.015 114.925 180.724 113.472 180.746 111.521C180.804 106.542 182.879 103.87 182.967 103.758C183.129 103.555 183.424 103.521 183.628 103.682C183.831 103.843 183.865 104.138 183.704 104.342C183.685 104.367 181.74 106.896 181.687 111.532C181.665 113.384 181.934 114.725 182.149 115.802C182.483 117.468 182.725 118.673 180.966 119.458C179.81 119.973 179.197 120.1 178.347 120.275C178.18 120.309 178.003 120.346 177.809 120.388C177.775 120.395 177.742 120.398 177.709 120.398Z" fill="#33658A"/>
<path d="M196.688 147.553C196.57 147.553 196.452 147.509 196.36 147.42C192.958 144.112 191.184 138.588 191.087 131C191.016 125.397 191.941 120.681 191.95 120.634C192.001 120.379 192.248 120.214 192.503 120.265C192.757 120.316 192.923 120.563 192.872 120.817C192.836 121.001 189.312 139.255 197.016 146.746C197.202 146.927 197.206 147.225 197.025 147.411C196.933 147.506 196.81 147.553 196.688 147.553Z" fill="#33658A"/>
<path d="M155.986 208.359C155.866 208.359 155.745 208.313 155.654 208.222C155.47 208.039 155.469 207.741 155.652 207.557C159.999 203.189 162.679 196.131 163.617 186.58C164.373 178.887 164.004 169.58 162.522 158.918C159.993 140.736 155.033 124.72 154.983 124.56C154.906 124.312 155.044 124.049 155.292 123.971C155.54 123.894 155.804 124.032 155.881 124.28C155.931 124.44 160.911 140.52 163.451 158.777C164.945 169.514 165.316 178.897 164.553 186.666C163.594 196.442 160.823 203.694 156.319 208.22C156.227 208.313 156.106 208.359 155.986 208.359Z" fill="#33658A"/>
<path d="M155.986 184.492C155.954 184.492 155.922 184.489 155.89 184.482C155.635 184.429 155.472 184.181 155.525 183.927C159.769 163.472 153.394 130.774 153.329 130.447C153.279 130.192 153.444 129.945 153.699 129.894C153.954 129.844 154.201 130.01 154.252 130.264C154.268 130.347 155.895 138.63 156.973 149.346C157.969 159.25 158.686 173.321 156.445 184.118C156.399 184.339 156.204 184.492 155.986 184.492Z" fill="#33658A"/>
<path d="M141.51 202.581C138.022 202.581 136.74 201.08 136.291 199.742C135.226 196.569 138.009 191.857 141.114 189.921C143.103 188.681 145.016 188.731 146.36 190.06C148.18 191.858 148.021 194.242 146.816 195.507C145.881 196.488 144.208 196.809 142.579 195.313C142.388 195.138 142.375 194.841 142.551 194.65C142.727 194.459 143.024 194.445 143.215 194.621C144.453 195.757 145.535 195.489 146.135 194.859C147.027 193.922 147.108 192.121 145.699 190.728C144.387 189.432 142.752 190.008 141.611 190.719C138.873 192.427 136.291 196.788 137.182 199.443C137.893 201.56 140.574 201.777 142.698 201.585C146.982 201.198 150.263 198.826 152.452 194.532C154.103 191.295 154.474 188.144 154.478 188.113C154.507 187.855 154.74 187.67 154.998 187.699C155.256 187.728 155.441 187.96 155.412 188.218C155.397 188.354 155.017 191.572 153.29 194.959C150.977 199.495 147.344 202.11 142.783 202.521C142.329 202.562 141.906 202.581 141.51 202.581Z" fill="#33658A"/>
<path d="M134.436 147.553C134.24 147.553 134.058 147.431 133.991 147.236C131.58 140.204 130.316 132.994 130.233 125.806C130.167 120.054 130.853 114.304 132.271 108.715C134.689 99.1915 138.461 93.3434 138.498 93.2856C138.64 93.0682 138.932 93.0071 139.149 93.1486C139.366 93.2903 139.428 93.5816 139.286 93.7992C139.249 93.8561 135.549 99.6006 133.173 108.984C130.982 117.635 129.5 131.24 134.88 146.931C134.964 147.176 134.834 147.444 134.588 147.528C134.537 147.545 134.486 147.553 134.436 147.553Z" fill="#33658A"/>
<path d="M149.478 185.119C149.472 185.119 149.466 185.119 149.46 185.118C149.201 185.108 148.998 184.89 149.008 184.631C149.425 173.794 146.423 166.822 143.246 159.439C139.995 151.888 136.633 144.08 136.063 131.264C136.052 131.004 136.252 130.785 136.512 130.773C136.773 130.762 136.991 130.962 137.002 131.222C137.565 143.866 140.892 151.594 144.109 159.068C147.33 166.55 150.373 173.618 149.948 184.667C149.938 184.92 149.729 185.119 149.478 185.119Z" fill="#33658A"/>
<path d="M268.892 187.566C268.52 189.762 269.999 191.843 272.194 192.215C274.39 192.587 276.472 191.109 276.844 188.913C277.216 186.717 275.738 184.636 273.542 184.264C271.346 183.892 269.264 185.37 268.892 187.566Z" fill="#2C3135"/>
<path d="M271.597 184.569C271.597 184.569 274.379 183.664 274.139 185.699C273.899 187.733 273.039 187.229 272.02 188.899C271 190.57 268.864 190.31 268.946 188.302C269.044 185.892 270.774 184.763 271.597 184.569Z" fill="white"/>
<path d="M272.829 189.764C272.829 189.764 274.16 189.799 273.536 191.003C272.912 192.207 272.129 191.619 272.008 190.954C271.888 190.29 272.419 189.023 272.829 189.764Z" fill="white"/>
<path d="M250.717 187.566C250.345 189.762 251.823 191.843 254.019 192.215C256.215 192.587 258.297 191.109 258.669 188.913C259.041 186.717 257.563 184.636 255.367 184.264C253.171 183.892 251.089 185.37 250.717 187.566Z" fill="#2C3135"/>
<path d="M253.422 184.569C253.422 184.569 256.203 183.664 255.964 185.699C255.724 187.733 254.864 187.229 253.844 188.899C252.825 190.57 250.689 190.31 250.77 188.302C250.868 185.892 252.599 184.763 253.422 184.569Z" fill="white"/>
<path d="M254.654 189.764C254.654 189.764 255.985 189.799 255.361 191.003C254.737 192.207 253.953 191.619 253.833 190.954C253.712 190.29 254.243 189.023 254.654 189.764Z" fill="white"/>
<path d="M173.076 108.382C173.076 109.241 172.38 109.937 171.522 109.937C170.663 109.937 169.967 109.241 169.967 108.382C169.967 107.523 170.663 106.827 171.522 106.827C172.38 106.827 173.076 107.523 173.076 108.382Z" fill="#33658A"/>
<path d="M190.146 109.937C190.146 110.796 189.45 111.492 188.591 111.492C187.732 111.492 187.036 110.796 187.036 109.937C187.036 109.078 187.732 108.382 188.591 108.382C189.45 108.382 190.146 109.078 190.146 109.937Z" fill="#33658A"/>
<path d="M152.231 250.258C148.275 249.059 141.651 248.022 138.441 246.284C135.231 244.545 133.315 242.953 133.315 242.953C133.315 242.953 131.696 242.01 129.952 242.005C128.208 242 126.005 242.45 121.295 248.749C117.501 253.821 119.233 256.996 118.687 257.429C118.696 257.454 118.702 257.468 118.702 257.468C118.702 257.468 125.755 260.924 131.038 262.636C136.32 264.35 141.66 265.756 146.307 266.625C149.34 267.194 151.57 267.38 152.941 267.452C161.626 267.759 165.726 253.139 155.801 251.425C154.85 251.081 153.887 250.759 152.231 250.258Z" fill="#FFB7B8"/>
<path d="M127.719 238.842C123.862 236.838 123.985 237.627 123.287 234.76C122.768 232.626 122.223 231.55 121.671 230.677C114.217 225.774 104.013 229.737 97.7744 235.183C96.5981 236.218 95.1201 237.944 95.8211 240.89C98.1564 250.705 98.9111 248.891 102.517 251.393C106.122 253.896 115.169 256.081 117.781 257.251C120.394 258.421 116.584 255.047 121.295 248.749C126.005 242.45 128.208 242 129.952 242.005C131.696 242.01 133.315 242.953 133.315 242.953C133.315 242.953 131.575 240.847 127.719 238.842Z" fill="#33658A"/>
<path d="M152.23 250.728C152.185 250.728 152.14 250.721 152.095 250.708C150.748 250.3 149.094 249.912 147.342 249.501C143.918 248.698 140.377 247.867 138.216 246.697C135.002 244.956 133.094 243.381 133.014 243.314C133.007 243.309 131.277 241.966 129.719 241.962C129.46 241.961 129.25 241.75 129.251 241.49C129.251 241.231 129.462 241.021 129.722 241.022C131.606 241.027 133.524 242.52 133.605 242.584C133.634 242.607 135.538 244.177 138.664 245.871C140.714 246.981 144.35 247.833 147.557 248.586C149.323 249 150.992 249.391 152.367 249.808C152.616 249.883 152.756 250.145 152.681 250.394C152.619 250.598 152.432 250.729 152.23 250.728Z" fill="#33658A"/>
<path d="M151.363 268.199C151.343 268.199 151.323 268.198 151.304 268.195C150.915 268.146 141.771 266.965 139.72 265.941C139.488 265.826 139.393 265.543 139.509 265.311C139.625 265.079 139.907 264.984 140.139 265.1C141.668 265.862 148.189 266.848 151.423 267.263C151.681 267.296 151.862 267.532 151.829 267.789C151.799 268.027 151.596 268.2 151.363 268.199Z" fill="#33658A"/>
<path d="M163.496 131.026C126.824 135.61 35.1436 197.876 35.1436 197.876C35.1436 197.876 74.1076 247.154 150.89 277.332C179.2 288.459 262.816 221.56 262.816 221.56L235.694 155.474C235.694 155.474 200.168 126.442 163.496 131.026Z" fill="url(#paint0_radial)" fill-opacity="0.987506"/>
<path d="M151.909 276.446C151.909 276.446 153.978 263.055 155.909 253.28C157.84 243.507 159.942 230.826 161.483 227.282C163.024 223.737 167.794 223.525 173.424 223.521C179.053 223.518 245.831 219.67 249.714 219.459C253.596 219.248 260.748 217.916 262.279 221.323C263.81 224.73 260.741 229.89 258.23 240.998C255.717 252.105 252.155 264.076 251.613 266.514C251.072 268.953 251.231 273.376 244.552 273.344C237.874 273.311 208.519 275.257 203.694 275.466C198.869 275.674 173.101 277.275 169.122 277.41C165.143 277.546 156.894 278.343 154.837 278.305C152.781 278.265 152.144 277.578 151.909 276.446Z" fill="white"/>
<path d="M203.4 253.309C203.839 255.388 207.17 256.445 210.84 255.67C214.511 254.895 217.131 252.581 216.691 250.502C216.252 248.423 212.921 247.366 209.25 248.141C205.58 248.917 202.961 251.23 203.4 253.309Z" fill="#1FA19D" fill-opacity="0.36"/>
<path d="M154.987 278.776C154.931 278.776 154.878 278.775 154.829 278.774C152.777 278.735 151.766 278.067 151.449 276.541C151.438 276.486 151.436 276.429 151.445 276.374C151.466 276.24 153.538 262.862 155.449 253.189C155.921 250.796 156.412 248.186 156.887 245.662C157.147 244.28 157.407 242.898 157.666 241.545C157.714 241.29 157.96 241.122 158.215 241.171C158.47 241.22 158.638 241.466 158.589 241.721C158.331 243.073 158.071 244.455 157.811 245.836C157.336 248.362 156.844 250.974 156.371 253.372C154.544 262.619 152.569 275.265 152.387 276.432C152.552 277.159 152.908 277.797 154.846 277.835C155.7 277.848 157.689 277.715 159.712 277.566C160.109 277.543 198.9 275.202 203.674 274.996C205.127 274.933 208.801 274.713 213.452 274.434C223.976 273.804 239.875 272.845 244.555 272.873C244.579 272.874 244.603 272.874 244.626 272.874C250.036 272.874 250.555 269.834 250.972 267.39C251.031 267.044 251.087 266.717 251.154 266.413C251.335 265.601 251.834 263.787 252.526 261.276C253.943 256.127 256.086 248.345 257.772 240.894C258.7 236.787 259.711 233.468 260.523 230.801C261.909 226.252 262.745 223.507 261.851 221.515C260.707 218.971 255.607 219.427 251.883 219.759C251.111 219.828 250.383 219.893 249.74 219.928C249.151 219.96 247.116 220.076 244.067 220.249C226.056 221.272 178.213 223.989 173.424 223.991C167.758 223.995 163.313 224.253 161.914 227.469C161.423 228.599 160.825 230.816 160.085 234.247C160.03 234.5 159.78 234.661 159.526 234.607C159.272 234.552 159.111 234.302 159.165 234.048C159.929 230.508 160.529 228.298 161.052 227.095C162.678 223.355 167.409 223.055 173.424 223.051C178.186 223.048 227.733 220.235 244.014 219.31C247.064 219.137 249.1 219.022 249.689 218.99C250.315 218.955 251.036 218.891 251.799 218.823C255.805 218.465 261.29 217.975 262.708 221.13C263.748 223.444 262.873 226.316 261.423 231.075C260.615 233.727 259.609 237.028 258.688 241.101C256.998 248.574 254.852 256.368 253.432 261.526C252.744 264.023 252.248 265.827 252.073 266.616C252.01 266.898 251.956 267.214 251.899 267.548C251.473 270.045 250.829 273.814 244.626 273.814C244.601 273.814 244.576 273.814 244.55 273.813C239.906 273.791 224.02 274.743 213.508 275.373C208.853 275.652 205.176 275.872 203.714 275.935C198.949 276.141 160.166 278.481 159.775 278.504C157.848 278.646 155.943 278.776 154.987 278.776Z" fill="#33658A"/>
<g opacity="0.243418">
<path d="M245.227 74.0515L239.67 78.2196L240.218 70.6514C240.218 70.6514 228.263 62.5897 231.114 49.5923C233.966 36.5948 249.98 32.7009 261.277 33.0299C272.575 33.3591 282.008 41.6949 282.556 54.3084C283.104 66.9221 264.294 74.9838 255.574 75.0386C246.854 75.0934 245.227 74.0515 245.227 74.0515Z" fill="#02C650"/>
</g>
<g opacity="0.587691">
<path d="M195.606 117.955L203.779 119.658C203.779 119.658 213.996 135.152 239.196 133.45C264.396 131.747 277.511 122.277 274.612 100.587C272.143 82.1131 245.359 78.2818 235.211 78.9629C225.063 79.6441 207.507 87.0003 203.95 97.8631C201.965 103.923 201.566 111.825 201.566 111.825L195.606 117.955Z" fill="#1FA19D"/>
</g>
<g opacity="0.143778">
<path opacity="0.143778" d="M224.899 102.798C227.301 102.798 229.252 104.748 229.252 107.151C229.252 109.553 227.301 111.504 224.899 111.504C222.496 111.504 220.546 109.553 220.546 107.151C220.546 104.748 222.496 102.798 224.899 102.798Z" fill="#1FA19D"/>
</g>
<g opacity="0.343806">
<path opacity="0.343806" d="M238.828 102.53C241.23 102.53 243.181 104.48 243.181 106.883C243.181 109.285 241.23 111.236 238.828 111.236C236.426 111.236 234.475 109.285 234.475 106.883C234.475 104.48 236.426 102.53 238.828 102.53Z" fill="#1FA19D"/>
</g>
<g opacity="0.743856">
<path opacity="0.743856" d="M252.758 101.994C255.16 101.994 257.111 103.945 257.111 106.347C257.111 108.749 255.16 110.7 252.758 110.7C250.355 110.7 248.405 108.749 248.405 106.347C248.405 103.945 250.355 101.994 252.758 101.994Z" fill="#1FA19D"/>
</g>
<path d="M116.997 131.246C116.984 131.246 116.966 131.239 116.954 131.225C116.937 131.204 116.933 131.183 116.934 131.165C116.933 131.183 116.927 131.203 116.908 131.222C116.895 131.235 116.876 131.24 116.863 131.239C116.876 131.24 116.895 131.246 116.906 131.26C116.923 131.281 116.927 131.302 116.926 131.321C116.927 131.302 116.933 131.282 116.952 131.263C116.965 131.25 116.984 131.246 116.997 131.246Z" stroke="#33658A" stroke-width="0.0795533" stroke-linecap="round" stroke-linejoin="round"/>
<path d="M100.627 100.647L106.397 97.475L109.569 103.245L103.799 106.417L100.627 100.647Z" stroke="#33658A" stroke-width="5.00615" stroke-linecap="round" stroke-linejoin="round"/>
<path d="M207.617 69.1406C208.461 69.1406 209.147 69.8259 209.147 70.67C209.147 71.514 208.461 72.1993 207.617 72.1993C206.773 72.1993 206.088 71.514 206.088 70.67C206.088 69.8259 206.773 69.1406 207.617 69.1406Z" stroke="#33658A" stroke-width="4.01498"/>
<path d="M119.566 80.0442C119.98 80.0442 120.315 80.3798 120.315 80.7931C120.315 81.2064 119.98 81.5419 119.566 81.5419C119.153 81.5419 118.817 81.2064 118.817 80.7931C118.817 80.3798 119.153 80.0442 119.566 80.0442Z" stroke="#33658A" stroke-width="1.96598"/>
<g opacity="0.197375">
<path d="M281.849 191.249C282.192 191.629 283.946 191.593 284.488 191.412C285.103 191.213 285.049 189.188 284.525 188.917C284.073 188.664 282.572 188.627 282.156 188.917C281.668 189.224 281.541 190.887 281.849 191.249ZM282.843 182.208C283.602 182.082 282.626 180.256 283.819 180.201C285.555 180.129 285.085 181.792 284.94 182.407C284.561 184.107 281.469 182.986 281.812 187.09C281.903 188.302 284.76 188.284 284.796 187.054C284.814 186.674 284.741 186.241 284.76 186.024C284.958 184.649 288.195 185.644 288.231 181.702C288.249 179.659 287.526 177.471 284.434 177.543C281.776 177.616 279.679 179.37 280.709 181.702C280.981 182.317 282.066 182.317 282.843 182.208Z" fill="#494953"/>
</g>
</g>
<defs>
<radialGradient id="paint0_radial" cx="0" cy="0" r="1" gradientUnits="userSpaceOnUse" gradientTransform="translate(210.482 252.502) scale(83.9644)">
<stop stop-color="#F7F7F7"/>
<stop offset="0.5" stop-color="#FAFAFA" stop-opacity="0.5"/>
<stop offset="1" stop-color="#FCFCFC" stop-opacity="0"/>
</radialGradient>
<clipPath id="clip0">
<rect width="382" height="382" fill="white"/>
</clipPath>
</defs>
</svg>
