<svg width="82" height="82" viewBox="0 0 82 82" fill="none" xmlns="http://www.w3.org/2000/svg">
<path d="M42.9088 12.5835C47.2837 12.5835 50.8303 16.1301 50.8303 20.505C50.8303 24.88 47.2837 28.4266 42.9088 28.4266C38.5339 28.4266 34.9873 24.88 34.9873 20.505C34.9873 16.1301 38.5339 12.5835 42.9088 12.5835Z" fill="#FA181B"/>
<path d="M44.5277 18.5686V16.1605C44.5277 15.9394 44.3486 15.7603 44.1275 15.7603H41.6901C41.4692 15.7603 41.2899 15.9394 41.2899 16.1605V18.5686C41.2899 18.7439 41.1478 18.8862 40.9723 18.8862H38.5642C38.3433 18.8862 38.1641 19.0653 38.1641 19.2864V21.7237C38.1641 21.9448 38.3432 22.1239 38.5642 22.1239H40.9723C41.1478 22.1239 41.2899 22.2661 41.2899 22.4415V24.8497C41.2899 25.0706 41.4691 25.2498 41.6901 25.2498H44.1275C44.3486 25.2498 44.5277 25.0707 44.5277 24.8497V22.4415C44.5277 22.2662 44.6698 22.1239 44.8453 22.1239H47.2534C47.4745 22.1239 47.6536 21.9448 47.6536 21.7237V19.2863C47.6536 19.0652 47.4745 18.8861 47.2534 18.8861H44.8453C44.6698 18.8861 44.5277 18.7439 44.5277 18.5686Z" fill="#FEFEFE"/>
<path d="M12.6211 46.7953H69.3788V56.1229H12.6211V46.7953Z" fill="#E3E3DE"/>
<path d="M69.3796 56.1229H65.6172V46.7953H69.3792V56.1229" fill="#C5C5BD"/>
<path d="M52.4489 58.662C51.9815 58.662 51.5592 58.3403 51.4505 57.8652L47.9752 42.6671C47.8491 42.1152 48.1942 41.5655 48.746 41.4394C49.2981 41.3138 49.8475 41.6583 49.9737 42.2102L53.449 57.4082C53.5751 57.9601 53.23 58.5097 52.6782 58.6359C52.6014 58.6535 52.5244 58.662 52.4489 58.662Z" fill="#74AAD0"/>
<path d="M52.4487 58.662C51.9813 58.662 51.559 58.3403 51.4503 57.8652L47.975 42.6671C47.9576 42.5905 47.9492 42.514 47.9492 42.4387C47.9488 41.9709 48.2707 41.548 48.746 41.4394C48.8227 41.4219 48.8995 41.4135 48.9749 41.4135C49.4427 41.4135 49.865 41.735 49.9737 42.2102L53.449 57.4082C53.4665 57.4847 53.4749 57.5611 53.4749 57.6364C53.4755 58.1044 53.1534 58.5272 52.678 58.6359C52.6012 58.6535 52.5243 58.662 52.4487 58.662Z" fill="#608BB2"/>
<path d="M42.9347 58.1814C42.4746 58.1814 42.0563 57.8695 41.9407 57.4029L39.3235 46.8542C38.9838 45.4849 39.2874 44.0622 40.1566 42.951C41.0258 41.8397 42.3336 41.2025 43.7444 41.2025H55.2993C57.0954 41.2025 58.7284 42.2626 59.4596 43.903L60.8999 47.1339C61.8419 49.2472 62.3196 51.492 62.3196 53.8056V57.1561C62.3196 57.7222 61.8608 58.1811 61.2946 58.1811C60.7284 58.1811 60.2696 57.7222 60.2696 57.1561V53.8056C60.2696 51.7814 59.8517 49.8177 59.0274 47.9687L57.5871 44.7376C57.185 43.8355 56.287 43.2525 55.2993 43.2525H43.7444C42.9686 43.2525 42.2494 43.603 41.7715 44.2142C41.2934 44.8254 41.1264 45.6076 41.3132 46.3607L43.9304 56.9093C44.0667 57.4587 43.7318 58.0147 43.1823 58.1509C43.0995 58.1716 43.0164 58.1814 42.9347 58.1814Z" fill="#74AAD0"/>
<path d="M74.5144 43.8006H70.8515C70.0382 43.8006 69.3789 44.4599 69.3789 45.2732V54.9552C69.3789 55.6002 68.8559 56.1233 68.2108 56.1233H13.7899C13.1448 56.1233 12.6218 55.6002 12.6218 54.9552V37.323C12.6218 36.5097 11.9625 35.8504 11.1492 35.8504H7.48625C6.67295 35.8504 6.01367 36.5097 6.01367 37.323V57.2788C6.01367 59.5782 7.87781 61.4423 10.1772 61.4423H71.8235C74.1229 61.4423 75.987 59.5781 75.987 57.2788V45.2732C75.987 44.4599 75.3277 43.8006 74.5144 43.8006Z" fill="#2E4773"/>
<path d="M28.4825 46.873H18.4387C17.5266 46.873 16.6815 46.3939 16.213 45.6113L15.7892 44.9034C15.4218 44.2897 15.4218 43.5237 15.7892 42.9099L16.213 42.2017C16.6815 41.4192 17.5266 40.94 18.4387 40.94H28.4825C29.3946 40.94 30.2396 41.419 30.7081 42.2017L31.1319 42.9099C31.4993 43.5236 31.4993 44.2896 31.1319 44.9034L30.7081 45.6113C30.2396 46.3939 29.3946 46.873 28.4825 46.873Z" fill="#74AAD0"/>
<path d="M63.7897 68.235H18.2105C17.6443 68.235 17.1855 67.7761 17.1855 67.21C17.1855 66.6439 17.6443 66.185 18.2105 66.185H63.7897C64.3559 66.185 64.8147 66.6439 64.8147 67.21C64.8147 67.7761 64.3559 68.235 63.7897 68.235Z" fill="#2E4773"/>
<path d="M14.5566 61.4419H18.2106V71.667H14.5566V61.4419Z" fill="#74AAD0"/>
<path d="M16.3842 70.631C18.3364 70.631 19.9188 72.2136 19.9188 74.1656C19.9188 76.1177 18.3364 77.7002 16.3842 77.7002C14.4321 77.7002 12.8496 76.1177 12.8496 74.1656C12.8496 72.2136 14.4321 70.631 16.3842 70.631Z" fill="#31323C"/>
<path d="M16.3839 73.14C16.9503 73.14 17.4095 73.5991 17.4095 74.1656C17.4095 74.7319 16.9503 75.1911 16.3839 75.1911C15.8176 75.1911 15.3584 74.7319 15.3584 74.1656C15.3584 73.5991 15.8176 73.14 16.3839 73.14Z" fill="#74AAD0"/>
<path d="M63.7891 61.4419H67.4427V71.667H63.7891V61.4419Z" fill="#74AAD0"/>
<path d="M65.6166 70.631C67.5686 70.631 69.1512 72.2136 69.1512 74.1656C69.1512 76.1177 67.5686 77.7002 65.6166 77.7002C63.6645 77.7002 62.082 76.1177 62.082 74.1656C62.082 72.2136 63.6645 70.631 65.6166 70.631Z" fill="#31323C"/>
<path d="M65.6164 73.14C66.1829 73.14 66.6419 73.5991 66.6419 74.1656C66.6419 74.7319 66.1829 75.1911 65.6164 75.1911C65.05 75.1911 64.5908 74.7319 64.5908 74.1656C64.5908 73.5991 65.05 73.14 65.6164 73.14Z" fill="#74AAD0"/>
<path d="M17.8083 46.7953H17.8079C17.1485 46.63 16.5708 46.2093 16.2129 45.6115L15.7891 44.9035C15.6054 44.5965 15.5137 44.2517 15.5137 43.9067C15.5137 44.2517 15.6054 44.5965 15.7891 44.9033L16.2129 45.6114C16.5709 46.2094 17.1488 46.6301 17.8083 46.7953Z" fill="#E7EBE6"/>
<path d="M22.4275 46.8733H18.4382C18.2228 46.8733 18.0114 46.8465 17.8076 46.7953H17.808C18.0117 46.8463 18.2231 46.8731 18.4382 46.8731H22.4272C22.4274 46.8733 22.4274 46.8731 22.4275 46.8733Z" fill="#CFD4CC"/>
<path d="M22.4276 46.873H18.4386C18.2235 46.873 18.0121 46.8464 17.8084 46.7954C17.1489 46.6302 16.5711 46.2094 16.213 45.6113L15.7892 44.9034C15.6055 44.5966 15.5137 44.2516 15.5137 43.9067C15.5137 43.5617 15.6055 43.2169 15.7892 42.9101L16.213 42.202C16.6815 41.4194 17.5265 40.9403 18.4386 40.9403V40.9405H20.4264C19.6636 42.551 19.8012 45.8055 22.4276 46.873Z" fill="#6CA1C8"/>
</svg>
