<svg width="53" height="53" viewBox="0 0 53 53" fill="none" xmlns="http://www.w3.org/2000/svg">
<g clip-path="url(#clip0)">
<path d="M26.9424 7.06689C37.9191 7.06689 46.8174 15.9652 46.8174 26.9419C46.8174 37.9186 37.9191 46.8169 26.9424 46.8169C15.9657 46.8169 7.06738 37.9186 7.06738 26.9419C7.06738 15.9652 15.9657 7.06689 26.9424 7.06689Z" fill="#545C9E"/>
<path d="M45.9341 32.2418C45.9341 31.5663 44.9897 30.4396 44.8743 29.7893L36.0324 22.7891C35.5474 22.357 34.8419 22.0835 34.0591 22.0835H20.3107C18.857 22.0835 17.6675 23.0259 17.6675 24.1776V39.3806C17.6675 39.966 17.9751 40.497 18.4682 40.8778L24.6935 45.7958C25.5078 45.8858 26.9802 46.8168 27.8258 46.8168C37.1008 45.7958 44.1675 39.7502 45.9341 32.2418Z" fill="#232B70"/>
</g>
<path d="M33.23 39.0003H30.2257C29.2647 39.0003 28.4856 38.2212 28.4847 37.2601V33.1614C28.4812 32.8417 28.2223 32.5846 27.9035 32.5811H23.6467C23.3269 32.5811 23.0681 32.8399 23.0672 33.1614V37.2601C23.0654 38.2212 22.2855 38.9994 21.3244 39.0003H18.322C17.3609 39.0003 16.58 38.2212 16.5791 37.2601V28.084C16.5747 27.7643 16.3186 27.5063 15.9997 27.5028H14.233C13.4716 27.5028 13.2101 27.1274 13.1227 26.903C12.9787 26.4587 13.1447 25.9729 13.529 25.7079L24.5344 15.5266C25.2499 14.9091 26.3117 14.9091 27.0272 15.5266L38.0318 25.707C38.4151 25.9729 38.5803 26.4578 38.4381 26.9021C38.242 27.3252 37.7924 27.5699 37.3304 27.5019H35.5637C35.2431 27.5019 34.9834 27.7616 34.9834 28.0831V37.2592C34.9825 38.222 34.2007 39.0011 33.2379 39.0003H33.23Z" fill="#191F38"/>
<g opacity="0.96452">
<path d="M33.4087 38.9539H30.4045C29.4434 38.9539 28.6643 38.1748 28.6634 37.2137V33.115C28.6599 32.7953 28.4011 32.5382 28.0822 32.5347H23.8254C23.5056 32.5347 23.2468 32.7935 23.2459 33.115V37.2137C23.2442 38.1748 22.4642 38.953 21.5031 38.9539H18.5007C17.5396 38.9539 16.7587 38.1748 16.7578 37.2137V28.0376C16.7534 27.7179 16.4973 27.4599 16.1784 27.4564H14.4117C13.6503 27.4564 13.3888 27.081 13.3014 26.8566C13.1574 26.4123 13.3234 25.9265 13.7077 25.6615L24.7131 15.4802C25.4286 14.8627 26.4904 14.8627 27.2059 15.4802L38.2105 25.6606C38.5938 25.9265 38.759 26.4114 38.6168 26.8557C38.4207 27.2789 37.9711 27.5235 37.5091 27.4555H35.7424C35.4218 27.4555 35.1621 27.7152 35.1621 28.0368V37.2128C35.1612 38.1757 34.3795 38.9548 33.4166 38.9539H33.4087Z" fill="white"/>
</g>
<path d="M33.4473 38.7529H30.4161C29.4465 38.752 28.6604 37.9562 28.6595 36.9723V32.7744C28.6559 32.448 28.3948 32.1848 28.073 32.1812H23.7781C23.4555 32.1812 23.1943 32.4462 23.1934 32.7744V36.9723C23.1917 37.9562 22.4047 38.752 21.435 38.7529H18.4056C17.436 38.752 16.6481 37.9562 16.6472 36.9723V27.5773C16.6427 27.2508 16.3843 26.9859 16.0625 26.9813H14.28C13.5118 26.9813 13.248 26.5979 13.1597 26.3682C13.0145 25.9133 13.182 25.416 13.5697 25.1456L24.6738 14.7223C25.3957 14.0893 26.467 14.0893 27.1889 14.7223L38.2921 25.1447C38.6789 25.416 38.8456 25.9115 38.7021 26.3664C38.5042 26.7996 38.0506 27.051 37.5845 26.9813H35.802C35.4785 26.9813 35.2164 27.2481 35.2164 27.5764V36.9714C35.2155 37.9562 34.4268 38.7538 33.4553 38.7529H33.4473Z" stroke="#A6ABD5" stroke-width="2" stroke-miterlimit="10"/>
<defs>
<clipPath id="clip0">
<rect width="39.75" height="39.75" fill="white" transform="translate(7.06738 7.06689)"/>
</clipPath>
</defs>
</svg>
