<svg width="119" height="99" viewBox="0 0 119 99" fill="none" xmlns="http://www.w3.org/2000/svg">
<g style="mix-blend-mode:multiply" opacity="0.38">
<g style="mix-blend-mode:multiply">
<g style="mix-blend-mode:multiply">
<path d="M81.1291 8.08154C91.4698 8.08154 99.8657 16.5524 99.8657 26.9856C99.8657 37.4187 91.4698 45.8896 81.1291 45.8896C70.7884 45.8896 62.3926 37.4187 62.3926 26.9856C62.3926 16.5524 70.7884 8.08154 81.1291 8.08154Z" fill="#63EDE3"/>
</g>
<g style="mix-blend-mode:multiply">
<path d="M81.1291 8.08154C91.4698 8.08154 99.8657 16.5524 99.8657 26.9856C99.8657 37.4187 91.4698 45.8896 81.1291 45.8896C70.7884 45.8896 62.3926 37.4187 62.3926 26.9856C62.3926 16.5524 70.7884 8.08154 81.1291 8.08154Z" stroke="#63EDE3" stroke-width="8.04"/>
</g>
</g>
</g>
<path d="M65.7096 22.0107C74.1111 22.0107 80.9388 28.0358 80.9388 35.4768C80.9388 47.0632 80.9388 63.4902 80.9388 73.429C80.9388 75.7205 79.8967 77.9345 78.057 79.5567C76.2172 81.2047 73.7344 82.1057 71.1185 82.1057C62.7835 82.1057 50.8575 82.1057 42.5225 82.1057C39.9289 82.1057 37.4238 81.1788 35.584 79.5567C33.7442 77.9345 32.7021 75.7205 32.7021 73.429V22.0107C32.7021 22.0107 51.5667 22.0107 65.7096 22.0107Z" fill="#F60093"/>
<path d="M36.3164 22.0107H25.1279V30.7369H36.3164V22.0107Z" fill="#F60093"/>
<path d="M17.1553 30.0154C17.1553 30.3059 17.1553 30.5638 17.1864 30.8543H32.5272C32.5583 30.5961 32.5583 30.3059 32.5583 30.0154C32.5583 25.5938 29.1112 22.0112 24.8568 22.0112C20.6024 22.0112 17.1553 25.5938 17.1553 30.0154Z" fill="#465282"/>
<path d="M48.6484 60.7424C48.6484 61.0401 48.6488 61.3048 48.6819 61.6025H65.0513C65.0844 61.3378 65.0848 61.0401 65.0848 60.7424C65.0848 56.2102 61.4064 52.5381 56.8666 52.5381C52.3268 52.5381 48.6484 56.2102 48.6484 60.7424Z" fill="white"/>
<path d="M56.8493 51.251C59.2129 51.251 61.1292 49.3379 61.1292 46.9783C61.1292 44.6187 59.2129 42.7056 56.8493 42.7056C54.4857 42.7056 52.5693 44.6187 52.5693 46.9783C52.5693 49.3379 54.4857 51.251 56.8493 51.251Z" fill="white"/>
<g opacity="0.29">
<path d="M17.6028 52.5088C19.7254 52.5088 21.4488 54.2293 21.4488 56.3483C21.4488 58.4673 19.7254 60.1878 17.6028 60.1878C15.4802 60.1878 13.7568 58.4673 13.7568 56.3483C13.7568 54.2293 15.4802 52.5088 17.6028 52.5088Z" stroke="#B3C0D7" stroke-width="3"/>
</g>
<g opacity="0.15">
<path d="M102.513 49.8564C106.662 49.8564 110.03 53.2192 110.03 57.361C110.03 61.5027 106.662 64.8655 102.513 64.8655C98.3645 64.8655 94.9961 61.5027 94.9961 57.361C94.9961 53.2192 98.3645 49.8564 102.513 49.8564Z" stroke="#B3C0D7" stroke-width="4.12"/>
</g>
<g style="mix-blend-mode:multiply">
<g style="mix-blend-mode:multiply">
<g style="mix-blend-mode:multiply">
<path d="M34.2474 72.5525C34.2474 70.1738 32.3159 68.2273 29.9184 68.2273C27.521 68.2273 25.5895 70.1738 25.5895 72.5525C25.5895 74.9312 27.521 76.8777 29.9184 76.8777C32.2992 76.8777 34.2474 74.9479 34.2474 72.5525ZM33.6478 64.1515C31.5832 62.0888 28.2369 62.0888 26.1723 64.1515C24.6905 65.632 22.9923 67.329 21.4938 68.8095C19.4292 70.8722 19.4292 74.2161 21.4938 76.2788C22.9923 77.776 24.6905 79.473 26.1723 80.9535C28.2369 83.0162 31.5832 83.0162 33.6478 80.9535C35.1463 79.473 36.8446 77.776 38.3264 76.2955C40.391 74.2328 40.391 70.8889 38.3264 68.8262C36.8278 67.329 35.1296 65.632 33.6478 64.1515Z" fill="#51E2C3"/>
</g>
</g>
</g>
<g style="mix-blend-mode:multiply">
<g style="mix-blend-mode:multiply">
<g style="mix-blend-mode:multiply">
<path d="M81.0343 13.7642C88.3669 13.7642 94.3205 19.7077 94.3205 27.028C94.3205 34.3484 88.3669 40.2919 81.0343 40.2919C73.7016 40.2919 67.748 34.3484 67.748 27.028C67.748 19.7077 73.7016 13.7642 81.0343 13.7642Z" fill="#63EDE3"/>
</g>
<g style="mix-blend-mode:multiply">
<path d="M81.0343 13.7642C88.3669 13.7642 94.3205 19.7077 94.3205 27.028C94.3205 34.3484 88.3669 40.2919 81.0343 40.2919C73.7016 40.2919 67.748 34.3484 67.748 27.028C67.748 19.7077 73.7016 13.7642 81.0343 13.7642Z" stroke="#63EDE3" stroke-width="8.04"/>
</g>
</g>
</g>
<g style="mix-blend-mode:overlay">
<g style="mix-blend-mode:overlay">
<path d="M77.209 26.9854L79.8667 30.3682L85.8464 23.2046" stroke="white" stroke-width="1.4" stroke-linecap="round"/>
</g>
</g>
</svg>
