<svg width="69" height="69" viewBox="0 0 69 69" fill="none" xmlns="http://www.w3.org/2000/svg">
<g clip-path="url(#clip0)">
<path d="M18.4979 59.1073C16.0554 57.519 17.0541 52.1634 15.3157 50.0144C13.514 47.7871 8.08948 47.6215 7.08792 45.001C6.07645 42.355 10.0144 38.6021 9.8657 35.7732C9.71871 32.972 5.40172 29.65 6.1452 26.8834C6.86253 24.214 12.2337 23.4962 13.822 21.0537C15.4103 18.6112 13.8878 13.4105 16.0368 11.6721C18.264 9.8704 23.0514 12.4681 25.6719 11.4666C28.3179 10.4551 30.1514 5.33365 32.9802 5.18491C35.7814 5.03792 38.1326 9.92865 40.8992 10.6721C43.5686 11.3895 48.0588 8.30432 50.5013 9.89264C52.9438 11.481 51.9452 16.8366 53.6836 18.9856C55.4853 21.2128 60.9098 21.3784 61.9114 23.9989C62.9228 26.6449 58.9848 30.3978 59.1336 33.2267C59.2806 36.0279 63.5976 39.35 62.8541 42.1165C62.1367 44.7859 56.7656 45.5037 55.1773 47.9462C53.5889 50.3888 55.1115 55.5894 52.9625 57.3278C50.7353 59.1295 45.9479 56.5318 43.3274 57.5334C40.6813 58.5448 38.8479 63.6663 36.019 63.815C33.2179 63.962 30.8666 59.0713 28.1001 58.3278C25.4307 57.6105 20.9405 60.6956 18.4979 59.1073Z" fill="#00A62F"/>
<path d="M42.1674 31.7759C42.1674 25.0867 36.2089 22.8376 36.2089 22.8376C42.8018 25.9835 42.1674 31.7759 42.1674 31.7759ZM42.1674 31.7759C42.1674 36.245 39.1881 40.7142 33.2296 40.7142C28.7605 40.7142 25.7812 40.7142 25.7812 40.7142L37.6988 52.6317" stroke="white" stroke-width="3" stroke-linecap="round" stroke-linejoin="round"/>
<path d="M24.9258 31.2659H47.5664" stroke="white" stroke-width="3" stroke-linecap="round"/>
<path d="M24.9258 22.3389H47.5664" stroke="white" stroke-width="3" stroke-linecap="round"/>
</g>
<defs>
<clipPath id="clip0">
<rect width="69" height="69" fill="white"/>
</clipPath>
</defs>
</svg>
