<svg width="567" height="549" viewBox="0 0 567 549" fill="none" xmlns="http://www.w3.org/2000/svg">
<path d="M62.459 173.481H272.731C272.731 173.481 284.133 158.878 272.731 149.05C266.437 143.627 259.007 144.189 253.608 145.782C250.091 146.82 246.585 144.418 245.812 140.792C244.534 134.788 240.594 126.932 229.275 122.29C218.139 117.723 211.096 124.697 207.021 131.862C205.679 134.22 202.11 133.866 201.301 131.272C197.771 119.96 185.47 104.964 145.051 104.964C93.6432 104.964 99.3546 132.631 103.949 144.129C104.748 146.126 103.059 148.195 100.979 147.745C93.0486 146.028 78.3305 143.804 71.73 149.05C62.459 156.418 62.459 173.481 62.459 173.481Z" fill="#F6F7FB"/>
<path d="M392.381 337.19C392.381 337.19 392.928 235.105 462.409 207.423C549.899 301.804 456.848 387.597 456.848 387.597L392.381 337.19Z" fill="#20837E"/>
<path d="M462.408 207.424C462.713 207.752 463.007 208.08 463.308 208.409L432.636 324.718L499.89 291.482C499.901 292.319 499.901 293.151 499.891 293.98L431.879 327.593L423.028 361.155L421.108 359.654L438.751 292.747L409.944 260.172C410.291 259.44 410.637 258.708 410.998 257.978L439.439 290.141L461.107 207.972C461.543 207.791 461.967 207.601 462.408 207.424Z" fill="#FFFFFD"/>
<path d="M414.593 333.708C414.593 333.708 480.223 255.884 550.358 270.459C576.246 352.624 488.996 395.424 488.996 395.424L400.141 400.928L414.593 333.708Z" fill="#9FD2BA"/>
<path d="M472.498 286.304L478.586 331.036L548.693 270.147C549.248 270.25 549.803 270.343 550.358 270.459C550.46 270.782 550.545 271.099 550.643 271.422L513.095 304.033L554.659 309.626C554.617 310.022 554.563 310.413 554.516 310.807L554.375 311.848L510.841 305.991L448.269 360.338L520.904 372.479C520.208 373.133 519.515 373.778 518.823 374.405L446.075 362.243L401.642 400.835L400.14 400.927L400.606 398.764L476.564 332.793L470.398 287.506C471.094 287.103 471.795 286.701 472.498 286.304Z" fill="white"/>
<path d="M430.955 391.019C430.955 391.019 515.308 380.782 542.222 431.103C483.813 531.943 351.421 464.766 351.421 464.766L430.955 391.019Z" fill="#20837E"/>
<path d="M542.22 431.106C541.995 431.495 541.766 431.873 541.538 432.257L426.57 437.289L467.775 484.47C466.912 484.628 466.052 484.776 465.19 484.918L423.703 437.414L378.799 439.381L381.341 437.023L468.767 433.197L501.12 398.249C501.882 398.52 502.641 398.801 503.397 399.091L471.952 433.057L541.605 430.009C541.809 430.374 542.02 430.731 542.22 431.101L542.22 431.106Z" fill="white"/>
<path d="M138.643 357.726C138.643 357.726 32.2052 352.075 3.30154 407.46C68.3558 517.195 212.533 442.193 212.533 442.193L138.643 357.726Z" fill="#63BB94"/>
<path d="M3.30172 407.461C3.55327 407.884 3.80902 408.295 4.06168 408.713L129.967 412.948L85.3854 465.05C86.3308 465.215 87.2753 465.367 88.2201 465.512L133.105 413.053L182.282 414.708L179.474 412.156L83.7324 408.936L47.928 371.04C47.0977 371.344 46.2707 371.662 45.4466 371.984L80.2439 408.818L3.96582 406.253C3.7454 406.654 3.51603 407.049 3.30151 407.458L3.30172 407.461Z" fill="white"/>
<path d="M141.377 286.237C141.377 286.237 117.02 177.169 36.2501 163.741C-35.3532 285.069 84.1593 355.167 84.1593 355.167L141.377 286.237Z" fill="#20837E"/>
<path d="M36.2497 163.742C36.0002 164.164 35.763 164.585 35.5174 165.005L95.4118 282.272L15.7335 262.383C15.9179 263.28 16.1126 264.17 16.3139 265.056L96.8901 285.169L114.174 319.008L115.878 316.955L81.4267 249.498L81.4269 249.499L104.653 207.945C104.113 207.244 103.571 206.542 103.015 205.844L80.0829 246.87L37.7715 164.027C37.2639 163.933 36.7641 163.827 36.2513 163.742L36.2497 163.742Z" fill="#FFFFFD"/>
<path d="M187.786 341.943C187.786 341.943 112.006 238.143 24.4656 255.3C-3.06613 345.496 92.8633 391.491 92.8633 391.491L190.184 396.644L187.786 341.943Z" fill="#9FD2BA"/>
<path d="M109.851 271.881L103.626 320.905L26.2853 254.94C25.6776 255.06 25.0741 255.167 24.4657 255.299C24.357 255.655 24.268 256.003 24.1631 256.356L65.5852 291.686L20.1418 298.217C20.1926 298.648 20.2546 299.075 20.3106 299.506L20.4739 300.646L68.071 293.807L137.102 352.684L57.7091 366.687C58.4761 367.397 59.2432 368.095 60.0045 368.774L139.521 354.748L188.538 396.557L190.184 396.644L189.654 394.281L105.859 322.809L112.162 273.175C111.397 272.739 110.626 272.308 109.851 271.881Z" fill="white"/>
<path d="M121.008 409.342H486.809V246.391H121.008V409.342Z" fill="#CAD6DD"/>
<path d="M486.559 488.734H120.758V245.339L305.61 367.036L486.559 245.339V488.734Z" fill="white"/>
<path d="M303.064 124.923L119.527 247.703L486.601 246.555L303.064 124.923Z" fill="white"/>
<path d="M303.064 124.923L119.527 247.703L486.601 246.555L303.064 124.923Z" stroke="#CBD6DD" stroke-width="0.99894"/>
<g opacity="0.0622557">
<path d="M465.615 109.471C438.78 109.471 417 131.251 417 158.086C417 184.922 438.78 206.701 465.615 206.701C492.45 206.701 514.23 184.922 514.23 158.086C514.23 131.251 492.45 109.471 465.615 109.471Z" fill="#00BC31"/>
</g>
<path d="M465.069 131.222C450.137 131.222 438.018 143.341 438.018 158.273C438.018 173.205 450.137 185.324 465.069 185.324C480.001 185.324 492.12 173.205 492.12 158.273C492.12 143.341 480.001 131.222 465.069 131.222Z" fill="#00BC31"/>
<path d="M454.301 158.412L462.501 168.911C462.501 168.911 468.586 165.566 471.937 148.751" stroke="#FDFDFD" stroke-width="8.32482"/>
<path d="M487.746 199.26C489.187 198.86 494.006 197.023 500.868 189.052C507.025 181.902 515.482 163.278 520.747 171.835C519.388 181.984 519.004 194.063 519.004 194.063C517.579 200.124 509.586 206.887 503.808 210.152L484.843 218.055C484.843 218.055 475.984 213.473 475.525 213.333L476.564 209.117C480.816 206.428 484.56 203.066 487.746 199.26Z" fill="#EFAB85"/>
<path d="M492.982 199.088C492.982 199.088 493.534 199.103 494.506 198.906C494.178 200.213 493.928 201.521 493.72 202.827C490.935 206.894 488.275 211.042 485.535 215.136C483.418 213.219 480.437 210.536 480.193 210.385L492.831 180.004C492.831 180.004 497.077 179.891 496.571 186.759C496.067 193.627 492.982 199.088 492.982 199.088Z" fill="#EFAB85"/>
<path d="M287.049 237.966C287.049 237.966 317.264 303.255 368.132 300.918C418.999 298.582 489.964 221.289 489.964 221.289L477.843 204.832L395.641 244.061C383.122 250.035 368.143 246.548 359.541 235.656L323.8 192.17L287.049 237.966Z" fill="#33658A"/>
<path d="M302.305 154.953L305.148 182.961L275.172 184.148L281.178 140.732L302.305 154.953Z" fill="#F1B487"/>
<path d="M305.612 366.409L351.707 336.308V267.738C351.707 229.299 325.889 176.296 292.833 174.887C291.838 174.845 290.827 174.821 289.8 174.821C284.874 174.821 280.275 175.248 275.988 176.015C245.913 181.391 224.121 212.299 224.121 247.657V314.32L305.612 366.409Z" fill="#33658A"/>
<path d="M261.682 338.329L260.368 237.695C259.493 239.137 258.621 240.582 257.754 242.031L258.994 336.612L261.682 338.329Z" fill="#333333"/>
<path d="M311.514 160.072C314.997 159.975 318.223 159.454 319.912 158.077C329.956 143.45 318.515 104.027 318.515 104.027L302.464 97.2588L282.065 109.998L280.904 136.417C280.594 143.47 283.976 150.236 290.012 154.641C296.473 158.272 303.933 160.281 311.514 160.072Z" fill="#EFAB85"/>
<path d="M285.277 124.971C286.398 120.531 285.814 110.293 290.327 111.033C293.619 111.572 304.902 112.037 308.699 112.037C317.746 112.037 333.874 108.492 333.874 94.7067C333.874 87.8153 327.198 81.8736 322.969 80.1068C318.817 78.3719 314.131 78.4549 309.885 79.9408C299.921 83.427 286.709 91.1206 281.439 90.0595C272.575 88.2764 263.731 93.4818 263.855 101.024C263.988 109.08 268.186 121.196 272.141 128.894C274.43 133.349 277.489 137.345 281.178 140.731L285.277 124.971Z" fill="#1B2341"/>
<path d="M276.105 125.968C278.121 124.184 281.895 124.522 284.534 126.721C287.174 128.921 287.678 132.149 285.662 133.932C283.645 135.714 279.871 135.377 277.233 133.177C274.593 130.977 274.088 127.75 276.105 125.968Z" fill="#EFAB85"/>
<path d="M303.811 167.27H277.157L272.916 177.094L307.241 177.985L303.811 167.27Z" fill="#FFFFFD"/>
<path d="M487.977 483.503H122.176V247.186L307.028 365.345L487.977 247.186V483.503Z" fill="white"/>
<path d="M235.378 379.146L268.733 491.053H264.885L231.529 379.146H235.378Z" fill="#B8C5CF"/>
<path d="M200.434 379.146L233.789 491.053H229.939L196.584 379.146H200.434Z" fill="#B8C5CF"/>
<path d="M235.214 379.145V382.235L199.003 382.214L198.441 379.145H235.214Z" fill="#20837E"/>
<path d="M241.401 401.106V404.487L205.191 404.465L204.572 401.085L241.401 401.106Z" fill="#B8C5CF"/>
<path d="M247.804 424.224L249.268 427.606L213.058 427.584L212.439 424.204L247.804 424.224Z" fill="#B8C5CF"/>
<path d="M254.594 447.343L256.057 450.726L219.847 450.704L219.229 447.323L254.594 447.343Z" fill="#B8C5CF"/>
<path d="M260.952 469.949L262.415 473.331L226.205 473.307L225.586 469.927L260.952 469.949Z" fill="#B8C5CF"/>
<path d="M79.7264 379.146L46.3715 491.053H42.5215L75.8778 379.146H79.7264Z" fill="#42445E"/>
<path d="M114.67 379.146L81.3154 491.053H77.4668L110.822 379.146H114.67Z" fill="#42445E"/>
<path d="M112.815 379.145L112.253 382.214L76.043 382.235V379.145H112.815Z" fill="#13374D"/>
<path d="M69.8535 401.106V404.487L106.064 404.465L106.682 401.085L69.8535 401.106Z" fill="#42445E"/>
<path d="M63.4496 424.224L61.9863 427.606L98.1968 427.584L98.8153 424.204L63.4496 424.224Z" fill="#42445E"/>
<path d="M56.6605 447.343L55.1973 450.726L91.4063 450.704L92.0262 447.323L56.6605 447.343Z" fill="#42445E"/>
<path d="M50.3031 469.949L48.8398 473.331L85.0496 473.307L85.6674 469.927L50.3031 469.949Z" fill="#42445E"/>
<path d="M65.3594 382.236H242.045V376.656H65.3594V382.236Z" fill="#42445E"/>
<path d="M181.719 488.087C181.719 488.087 182.894 489.715 188.433 491.128C189.653 491.439 190.968 491.652 190.968 493.666H185.5L179.909 492.698V493.666H176.89C176.89 493.666 176.049 488.722 177.813 488.087H181.719Z" fill="#1B2341"/>
<path d="M182.005 484.537L181.717 488.087C180.616 488.851 179.169 488.9 178.018 488.211L177.811 488.087V484.537H182.005Z" fill="#EFAB85"/>
<path d="M153.673 488.795C153.673 488.795 154.848 490.423 160.387 491.835C161.607 492.147 162.922 492.359 162.922 494.373H157.454L151.863 493.406V494.373H148.842C148.842 494.373 148.003 489.429 149.767 488.795H153.673Z" fill="#1B2341"/>
<path d="M153.96 485.243L153.672 488.795C152.571 489.56 151.122 489.607 149.973 488.919L149.766 488.795V485.243H153.96Z" fill="#EFAB85"/>
<path d="M184.235 397.258L182.874 486.464H176.382C176.382 486.464 166.502 414.442 168.612 397.258C170.721 380.072 184.235 397.258 184.235 397.258Z" fill="#42445E"/>
<path d="M177.373 397.238C177.373 397.238 175.114 424.641 169.923 439.81C164.733 454.98 155.361 486.463 155.361 486.463H148.643C148.643 486.463 159.863 420.673 157.297 397.238H177.373Z" fill="#42445E"/>
<path d="M183.223 351.832C183.223 351.832 191.222 370.51 193.253 370.51C194.877 370.51 192.644 355.259 192.644 355.259H199.344C199.344 355.259 207.769 381.402 201.069 386.178C194.369 390.955 179.65 372.66 179.65 372.66L183.223 351.832Z" fill="#F5F8F8"/>
<path d="M159.367 399.61L161.791 405.612C162.959 407.969 167.25 408.028 170.099 407.28C170.527 407.167 170.676 406.635 170.379 406.307C168.814 404.589 164.754 400.186 163.346 399.2L159.367 399.61Z" fill="#EFAB85"/>
<path d="M179.649 347.976C179.649 347.976 183.827 350.812 183.827 354.064V397.238H159.346V356.875C159.346 356.875 159.847 347.9 168.61 347.9C177.372 347.9 179.649 347.976 179.649 347.976Z" fill="#F5F8F8"/>
<path d="M183.422 397.256V358.482L184.235 358.509V397.256H183.422Z" fill="#C9D4DD"/>
<path d="M170.775 338.336V348.517C170.775 348.517 172.466 350.841 175.521 350.841C178.576 350.841 178.576 348.636 178.576 348.636V342.111L174.054 340.932L170.775 338.336Z" fill="#EB957B"/>
<path d="M178.964 344.045C179.904 344.016 180.778 343.862 181.233 343.455C183.944 339.127 180.855 327.461 180.855 327.461L171.013 329.228L170.699 337.046C170.616 339.132 171.528 341.134 173.158 342.437C174.903 343.512 176.916 344.107 178.964 344.045Z" fill="#EFAB85"/>
<path d="M175.641 329.433C175.641 329.433 178.909 330.044 182.346 329.433C185.783 328.821 183.584 325.029 183.584 325.029C183.584 325.029 181.04 326.191 176.52 325.522C173.469 325.071 172.648 324.479 170.693 325.522C168.035 326.941 168.678 331.752 168.678 331.752L170.144 341.928H170.693C170.693 341.928 170.827 335.876 170.827 333.816C171.402 332.879 172.025 332.879 172.505 333.113C173.026 333.367 173.321 333.932 173.321 334.511V345.078C173.321 345.078 180.04 347.977 181.751 347.451C183.461 346.926 182.318 339.096 182.318 339.096C182.318 339.096 180.345 338.24 178.818 339.953C177.305 341.65 175.468 339.884 175.468 339.884L175.641 329.433Z" fill="#1B2341"/>
<path d="M198.059 355.258L197.822 353.971C197.3 351.118 194.577 347.57 191.834 346.64H188.988L189.871 352.724L193.884 355.258H198.059Z" fill="#EFAB85"/>
<path d="M171.652 332.847C172.407 332.784 173.132 333.508 173.271 334.463C173.41 335.42 172.912 336.245 172.157 336.309C171.402 336.37 170.677 335.647 170.537 334.692C170.397 333.735 170.897 332.91 171.652 332.847Z" fill="#EFAB85"/>
<path d="M191.043 352.049L196.584 355.258C196.584 355.258 193.107 355.225 193.051 355.258L187.186 350.346C187.186 350.346 187.611 349.487 188.94 350.211C190.269 350.937 191.043 352.049 191.043 352.049Z" fill="#EFAB85"/>
<path d="M161.953 350.601C161.953 350.601 148.111 365.995 148.111 375.223C148.111 384.449 159.346 400.712 159.346 400.712L164.896 399.085C164.896 399.085 159.888 378.962 159.888 373.609C159.888 368.256 170.174 360.406 170.174 360.406" fill="#F5F8F8"/>
<path d="M160.293 373.608C160.293 378.217 164.367 395.069 165.324 398.994C165.043 399.068 164.927 399.09 164.503 399.2C163.326 394.352 159.48 378.138 159.48 373.608C159.48 368.117 169.501 360.41 169.928 360.084L170.42 360.729C170.319 360.807 160.293 368.514 160.293 373.608Z" fill="#C9D4DD"/>
<path d="M187.336 341.972C187.336 341.972 186.193 347.936 189.871 352.724C190.099 353.019 190.485 353.244 190.907 353.3C191.759 353.415 192.358 353.114 192.82 352.983C193.499 352.788 193.823 352.441 193.979 352.151C194.111 351.904 194.073 351.609 193.898 351.348C193.152 350.235 190.848 346.412 191.897 343.026C189.935 341.439 187.336 341.972 187.336 341.972Z" fill="#EB934F"/>
<path d="M193.33 352.775C193.752 352.563 193.835 352.421 193.979 352.151C194.111 351.904 194.073 351.609 193.898 351.348C193.152 350.235 190.847 346.411 191.896 343.026C191.202 342.464 190.431 342.173 189.722 342.025C189.604 345.741 190.4 348.226 193.33 352.775Z" fill="#F1AD52"/>
<path d="M190.619 346.89C190.794 347.743 191.207 348.379 191.543 348.31C191.878 348.241 192.008 347.493 191.833 346.639C191.657 345.785 191.244 345.15 190.909 345.219C190.573 345.287 190.444 346.035 190.619 346.89Z" fill="#EB934F"/>
<path d="M190.842 345.243L191.195 345.16L191.168 345.338L190.933 345.431L190.842 345.243Z" fill="#EB934F"/>
<path d="M191.463 348.312L191.891 348.23L191.404 348.159L191.463 348.312Z" fill="#DC3E5E"/>
<path d="M190.905 346.83C191.079 347.684 191.493 348.32 191.828 348.251C192.163 348.181 192.293 347.434 192.118 346.58C191.944 345.726 191.529 345.09 191.194 345.16C190.859 345.229 190.729 345.976 190.905 346.83Z" fill="#F9CA56"/>
<path d="M185.84 336.946H185.183C183.929 336.946 182.902 337.924 182.902 339.121V340.848C182.902 342.044 183.929 343.023 185.183 343.023H185.84V336.946Z" fill="#F9CA56"/>
<path d="M205.898 338.656C205.898 343.37 204.815 347.193 203.48 347.193C202.144 347.193 201.062 343.37 201.062 338.656C201.062 333.942 202.144 330.119 203.48 330.119C204.815 330.119 205.898 333.942 205.898 338.656Z" fill="#1B2341"/>
<path d="M200.955 335.51L202.866 336.756V339.517L200.896 341.308L200.215 337.716L200.955 335.51Z" fill="#FFFFFD"/>
<path d="M201.063 338.656C201.063 334.693 201.827 331.371 202.864 330.409C202.863 330.407 202.861 330.405 202.86 330.404C194.85 336.19 185.459 337.006 185.459 337.006V343.032C185.459 343.032 198.157 342.317 202.86 346.909C202.862 346.907 202.863 346.906 202.866 346.905C201.829 345.944 201.063 342.621 201.063 338.656Z" fill="#ED9E35"/>
<path d="M203.128 338.131C203.128 338.896 203.01 339.518 202.867 339.518C202.723 339.518 202.605 338.896 202.605 338.131C202.605 337.365 202.723 336.744 202.867 336.744C203.01 336.744 203.128 337.365 203.128 338.131Z" fill="#F9CA56"/>
<path d="M194.978 350.84C194.783 350.914 194.097 351.346 191.883 351.346C190.272 351.346 189.547 349.363 189.271 348.284C189.174 347.906 189.089 347.366 189.562 347.124L192.152 346.765L194.978 350.84Z" fill="#EFAB85"/>
<path d="M101.994 236.538C101.994 236.538 90.9258 257.876 91.7032 262.571C92.482 267.264 101.994 275.41 101.994 275.41L103.531 272.752L98.7024 261.822L104.921 243.882L101.994 236.538Z" fill="#EFAB85"/>
<path d="M113.856 227.384L112.958 233.493H107.534L106.98 224.109L113.856 227.384Z" fill="#EB957B"/>
<path d="M123.781 254.36V237.141C116.82 232.207 111.902 232.729 111.902 232.729C110.682 232.603 110.423 232.605 108.799 232.603C108.755 232.603 97.1468 231.741 99.2867 250.15C103.92 265.8 101.694 272.706 101.694 272.706C101.694 272.706 113.822 277.656 120.595 274.164C118.893 270.254 122.03 259.501 123.735 254.282C123.749 254.306 123.766 254.335 123.781 254.36Z" fill="black"/>
<path d="M123.781 254.36V237.141C116.82 232.207 111.902 232.729 111.902 232.729C110.682 232.603 110.423 232.605 108.799 232.603C108.755 232.603 97.1468 231.741 99.2867 250.15C103.92 265.8 101.694 272.706 101.694 272.706C101.694 272.706 113.822 277.656 120.595 274.164C118.893 270.254 122.03 259.501 123.735 254.282C123.749 254.306 123.766 254.335 123.781 254.36Z" fill="#33658A"/>
<path d="M105.695 230.785C105.695 230.785 101.088 233.493 101.088 237.775C101.088 240.429 102.127 242.001 103.324 243.86C105.301 246.931 105.28 250.935 103.097 253.863C103.065 253.906 103.033 253.948 103 253.991C102.179 255.063 102.016 256.162 102.236 257.208C103.086 261.273 108.672 261.882 110.833 258.337C111.626 257.035 112.392 255.478 112.958 253.685C113.906 250.679 112.973 248.794 111.813 247.663C110.831 246.706 110.715 245.15 111.673 244.168C113.414 242.383 115.135 239.69 112.958 237.316C109.31 233.339 108.271 229.616 108.271 229.616L105.695 230.785Z" fill="#1B2341"/>
<path d="M95.4216 368.266L98.6701 368.832C99.3418 364.796 109.446 345.669 110.268 335.733C111.18 324.705 113.74 312.425 113.74 312.425L102.871 309.189C102.871 309.189 100.12 309.188 103.141 331.668C96.3465 340.598 94.525 360.864 95.4216 368.266Z" fill="#EB957B"/>
<path d="M118.846 212.969L108.821 212.494L107.038 219.41C107.012 219.507 107 219.607 106.98 219.705C107.138 219.803 107.294 219.903 107.445 220.012C107.469 220.031 107.492 220.05 107.517 220.069C107.541 220.086 107.566 220.1 107.59 220.117C109.416 221.435 110.174 223.692 110.035 225.894C111.199 226.609 112.489 227.132 113.856 227.383C114.788 227.554 115.675 227.598 116.201 227.329C119.688 224.03 118.846 212.969 118.846 212.969Z" fill="#EFAB85"/>
<path d="M105.665 229.318C108.271 229.616 104.132 229.318 108.271 229.616C108.386 227.418 115.452 221.698 116.798 220.539C120.23 217.579 119.975 214.004 119.975 214.004C119.975 214.004 113.149 206.637 108.728 208.199C105.264 209.424 104.07 212.159 103.511 214.037C103.019 215.68 102.006 218.483 105.665 229.318Z" fill="#1B2341"/>
<path d="M103.424 301.012C103.424 301.012 105.977 316.39 109.528 332.835C105.819 342.765 111.471 370.478 111.576 370.381C112.002 369.978 113.955 372.386 113.955 372.386C113.955 372.386 118.076 347.93 118.987 336.902C119.899 325.872 121.292 312.425 121.292 312.425L103.424 301.012Z" fill="#EFAB85"/>
<path d="M111.115 368.831C111.115 368.831 109.567 370.145 109.851 371.819C110.134 373.494 110.536 377.415 110.536 377.415H112.126L112.078 373.758C112.082 373.518 115.489 377.415 116.066 377.415H124.483C124.483 377.415 125.042 374.946 120.099 374.155C115.157 373.362 111.115 368.831 111.115 368.831Z" fill="#1B2341"/>
<path d="M108.266 230.785H105.696C105.123 230.785 104.652 230.315 104.652 229.74V229.494C104.652 228.918 105.123 228.449 105.696 228.449H108.266C108.841 228.449 109.311 228.919 109.311 229.494V229.74C109.311 230.315 108.841 230.785 108.266 230.785Z" fill="#F9D373"/>
<path d="M120.122 270.403C120.122 270.403 122.879 285.929 122.879 293.655C122.879 297.901 120.922 315.919 120.922 315.919C120.922 315.919 104.795 316.389 101.521 316.389C101.102 303.615 96.3457 295.196 96.3457 284.975C96.3457 277.766 102.69 271.476 102.69 271.476L120.122 270.403Z" fill="#42445E"/>
<path d="M150.867 252.395L150.143 252.606C148.678 253.032 147.528 254.173 147.09 255.636L146.919 256.209C146.919 256.209 140.555 258.411 133.462 259.315C126.229 238.697 123.782 237.141 123.782 237.141C123.782 237.141 119.115 238.628 119.115 244.272C119.115 249.008 122.274 262.419 128.283 266.621C129.94 267.78 132.119 267.877 133.946 267.009C143.603 262.414 150.417 258.489 150.417 258.489L157.707 254.458L154.487 252.762C153.374 252.176 152.075 252.043 150.867 252.395Z" fill="#EFAB85"/>
<path d="M99.0421 366.044L98.8172 369.533C98.769 370.267 98.9719 370.993 99.3918 371.598C99.8542 372.267 100.634 373.182 101.922 374.232C99.4818 375.018 97.2618 372.277 96.0993 370.458C95.5325 369.571 95.3105 368.509 95.4666 367.466L95.878 364.72L99.0421 366.044Z" fill="#EB957B"/>
<path d="M95.4222 367.963C95.4222 367.963 93.2752 368.155 92.9185 369.79C92.5624 371.425 91.5488 374.733 91.5488 374.733L92.7199 375.668L94.3704 372.386C94.3704 372.386 97.9189 377.178 98.4835 377.415H107.671C107.671 377.415 107.671 374.37 101.922 374.232C96.6245 374.105 95.4222 367.963 95.4222 367.963Z" fill="#1B2341"/>
<path d="M475.29 491.315L461.507 491.299C459.677 491.49 457.631 492.011 457.289 493.6C457.289 493.6 457.048 494.654 457.089 495.703C457.577 496.276 475.854 495.626 475.854 495.626L475.934 495.56C477.869 493.227 475.29 491.315 475.29 491.315Z" fill="#1B2341"/>
<path d="M457.089 495.702L475.854 495.626L475.692 496.357H457.062L457.089 495.702Z" fill="#1B2341"/>
<path d="M469.835 491.297L468.594 491.306L468.98 492.998H470.184L469.835 491.297Z" fill="#FFFFFD"/>
<path d="M467.175 491.297L465.934 491.306L466.319 492.998H467.524L467.175 491.297Z" fill="#FFFFFD"/>
<path d="M476.237 486.718L475.291 491.315C474.185 491.875 472.747 491.908 471.596 491.402L471.387 491.31L470.723 486.718H476.237Z" fill="#EFAB85"/>
<path d="M507.506 491.315L493.722 491.299C491.892 491.49 489.847 492.011 489.505 493.6C489.505 493.6 489.264 494.654 489.306 495.703C489.793 496.276 508.07 495.626 508.07 495.626L508.148 495.56C510.086 493.227 507.506 491.315 507.506 491.315Z" fill="#1B2341"/>
<path d="M489.306 495.702L508.07 495.626L507.907 496.357H489.279L489.306 495.702Z" fill="#1B2341"/>
<path d="M502.049 491.297L500.809 491.306L501.194 492.998H502.397L502.049 491.297Z" fill="#FFFFFD"/>
<path d="M499.389 491.297L498.148 491.306L498.534 492.998H499.737L499.389 491.297Z" fill="#FFFFFD"/>
<path d="M506.907 486.718L507.505 491.315C506.399 491.875 504.962 491.908 503.81 491.402L503.601 491.31L501.393 486.718H506.907Z" fill="#EFAB85"/>
<path d="M486.337 332.13L497.689 339.541L494.184 348.523C494.135 348.649 494.069 348.767 494.013 348.891C493.764 348.874 493.514 348.859 493.263 348.859C493.22 348.859 493.18 348.864 493.139 348.864C493.099 348.864 493.061 348.859 493.021 348.859C489.983 348.859 487.372 350.731 485.786 353.25C483.949 353.112 482.123 352.665 480.427 351.858C479.273 351.308 478.267 350.654 477.903 349.945C476.688 343.575 486.337 332.13 486.337 332.13Z" fill="#EFAB85"/>
<path d="M471.899 334.455C471.899 334.455 470.509 347.645 473.306 356.045C472.008 357.174 467.238 362.294 465.738 355.659C464.237 349.022 467.422 332.131 467.422 332.131L471.899 334.455Z" fill="#EFAB85"/>
<path d="M478.709 333.519L481.38 335.24L480.427 337.237L477.562 335.972L478.709 333.519Z" fill="#1B2341"/>
<path d="M480.283 335.92C480.014 336.531 479.996 337.113 480.239 337.219C480.483 337.326 480.899 336.919 481.165 336.309C481.432 335.699 481.452 335.116 481.208 335.01C480.964 334.901 480.55 335.31 480.283 335.92Z" fill="#1B2341"/>
<path d="M446.485 323.79C446.484 323.765 446.477 323.742 446.477 323.716C446.978 322.57 447.864 320.749 449.059 319.075C450.988 316.371 451.539 315.018 451.539 315.018L479.118 333.09L477.331 336.464L446.482 325.049C446.511 324.628 446.52 324.206 446.485 323.79Z" fill="#13374D"/>
<path d="M488.841 353.256L489.834 359.458H481.058L480.428 351.858L488.841 353.256Z" fill="#EB957B"/>
<path d="M466.18 368.644C466.18 368.644 455.814 365.339 452.566 360.896C449.317 356.452 454.815 332.131 454.815 332.131L454.104 327.754C453.705 325.29 455.592 323.049 458.085 323.027L460.855 323.002C462.006 322.992 462.783 324.178 462.316 325.232L458.674 333.437C458.674 333.437 455.939 351.858 459.769 353.256C464.334 354.885 469.503 355.278 469.503 355.278L466.18 368.644Z" fill="#EFAB85"/>
<path d="M485.652 353.256L488.318 347.336L486.587 346.247C485.307 345.441 484.747 343.862 485.235 342.43L487.132 336.85C487.132 336.85 481.732 336.189 481.894 331.15C481.894 328.558 485.459 328.543 485.459 328.543C485.459 328.543 486.526 330.861 489.834 331.136C491.255 330.958 495.153 331.481 497.783 336.077C499.553 339.169 498.777 344.011 497.236 347.645C495.856 350.901 492.333 352.719 488.841 353.256H485.652Z" fill="#163149"/>
<path d="M496.192 402.993C496.192 402.993 495.642 415.616 492.914 429.3C492.111 433.33 492.413 437.501 493.724 441.398C499.913 459.808 508.59 487.49 508.59 487.49H500.871C500.871 487.49 483.382 454.774 478.875 438.544C474.369 422.313 473.598 417.161 473.598 417.161L478.96 402.993H496.192Z" fill="#42445E"/>
<path d="M489.755 344.577C490.072 345.51 489.43 346.745 488.32 347.336C487.21 347.925 486.052 347.647 485.736 346.715C485.418 345.782 486.058 344.548 487.168 343.957C488.278 343.367 489.437 343.645 489.755 344.577Z" fill="#EFAB85"/>
<path d="M471.025 402.992H496.192V370.664C496.192 363.582 490.809 357.664 483.767 357.005L466.264 354.885C466.264 354.885 464.205 358.039 458.471 365.369C465.364 369.632 473.34 371.596 473.34 371.596L471.025 402.992Z" fill="#F5F8F8"/>
<path d="M496.193 402.993C496.193 402.993 492.638 415.874 479.523 430.311C477.332 432.49 474.179 437.026 474.628 443.438L477.332 487.49H469.504C469.504 487.49 459.961 450.91 462.019 432.876C464.078 414.844 471.026 402.993 471.026 402.993H496.193Z" fill="#42445E"/>
<path d="M450.71 320.794C449.357 323.606 447.52 325.53 446.608 325.088C445.696 324.649 446.054 322.013 447.408 319.201C448.761 316.39 450.598 314.466 451.511 314.908C452.422 315.347 452.064 317.983 450.71 320.794Z" fill="#FFFFFD"/>
<path d="M472.988 329.073L472.754 329.185C471.933 329.578 470.992 329.637 470.129 329.349L469.973 329.297C468.552 328.823 467.444 327.696 466.989 326.267C466.787 325.632 467.344 325.015 467.996 325.152L469.739 325.518C470.418 325.661 471.013 326.067 471.393 326.646L472.988 329.073Z" fill="#EFAB85"/>
<path d="M391.966 331.562C394.421 332.82 395.392 335.832 394.135 338.287C392.876 340.742 389.865 341.714 387.409 340.456C384.952 339.198 383.982 336.187 385.24 333.732C386.498 331.275 389.509 330.304 391.966 331.562Z" fill="#13374D"/>
<path d="M386.256 361.639L378.801 375.681L387.015 375.285L387.593 361.185L386.256 361.639Z" fill="#EFAB85"/>
<path d="M374.194 382.738C374.122 382.097 374.182 381.697 374.395 380.37C374.675 378.646 374.601 375.946 376.363 377.292C378.027 379.381 378.22 381.599 378.22 381.599C378.558 382.824 377.808 384.526 377.108 385.449L375.897 388.086C375.897 388.086 373.809 385.653 374.194 382.738Z" fill="#EFAB85"/>
<path d="M397.963 355.417L391.076 355.405L388.223 399.917H400.564L397.963 355.417Z" fill="#FFFFFD"/>
<path d="M410.608 486.079C410.608 486.079 412.309 487.418 411.998 489.123C411.686 490.828 411.244 494.822 411.244 494.822H409.495L409.549 491.097C409.542 490.853 405.794 494.822 405.16 494.822H395.9C395.9 494.822 395.284 492.31 400.722 491.502C406.16 490.695 410.608 486.079 410.608 486.079Z" fill="#1B2341"/>
<path d="M406.594 484.38L405.338 487.648C405.029 488.545 404.426 489.306 403.628 489.819C402.745 490.385 401.362 491.173 399.305 491.782C401.821 493.93 405.826 491.685 408.116 490.098C409.233 489.327 410.023 488.172 410.356 486.854L410.88 484.38H406.594Z" fill="#EFAB85"/>
<path d="M392.968 486.079C392.968 486.079 394.669 487.418 394.357 489.123C394.046 490.828 393.604 494.822 393.604 494.822H391.855L391.907 491.097C391.903 490.853 388.154 494.822 387.519 494.822H378.259C378.259 494.822 377.644 492.31 383.082 491.502C388.52 490.695 392.968 486.079 392.968 486.079Z" fill="#1B2341"/>
<path d="M388.953 484.38L387.696 487.648C387.388 488.545 386.786 489.306 385.986 489.819C385.103 490.385 383.721 491.173 381.664 491.782C384.18 493.93 388.185 491.685 390.475 490.098C391.593 489.327 392.381 488.172 392.714 486.854L393.238 484.38H388.953Z" fill="#EFAB85"/>
<path d="M403.245 399.917C403.245 399.917 404.401 406.571 397.748 439.27C403.134 456.313 394.509 484.825 394.509 484.825H388.222L383.943 399.917H403.245Z" fill="#42445E"/>
<path d="M391.833 355.417L389.6 409.422L382.199 406.254C382.199 406.254 385.534 396.115 385.217 382.031C386.349 371.847 380.57 377.211 387.65 357.601C390.286 355.405 391.833 355.417 391.833 355.417Z" fill="#33658A"/>
<path d="M390.867 349.837L391.734 354.392C392.115 356.394 394.392 357.388 396.119 356.305L399.157 354.402L393.733 342.142L390.867 349.837Z" fill="#EB957B"/>
<path d="M409.296 399.917C409.296 399.917 417.533 406.571 410.88 439.27C416.265 456.313 411.513 484.825 411.513 484.825H405.87L389.994 399.917H409.296Z" fill="#42445E"/>
<path d="M397.965 350.839C397.965 350.839 404.918 354.747 407.079 358.236C409.138 361.56 409.851 369.128 410.049 375.866C410.321 385.117 414.788 409.422 414.788 409.422H396.15L395.686 356.513L397.965 350.839Z" fill="#33658A"/>
<path d="M384.242 336.18C388.458 335.111 392.513 339.432 392.513 339.432L395.684 356.513L400.562 348.996C400.562 348.996 400.84 338.783 396.126 332.019C392.749 327.923 386.269 329.099 382.993 333.083C381.4 335.02 381.068 337.694 381.221 340.155C381.429 343.46 382.365 362.427 382.365 362.427L392.023 355.273C392.023 355.273 391.79 353.346 390.867 349.837C389.277 343.801 381.412 336.897 384.242 336.18Z" fill="#13374D"/>
<path d="M393.777 339.17C393.153 338.917 392.347 339.338 391.976 340.11C391.605 340.881 391.81 341.711 392.432 341.964C393.054 342.217 393.86 341.797 394.232 341.025C394.603 340.254 394.399 339.424 393.777 339.17Z" fill="#EFAB85"/>
<path d="M389.251 350.639C388.468 350.926 387.699 351.089 387.189 350.906C383.523 348.248 382.199 337.635 382.199 337.635L385.102 334.55L390.884 335.821L393.733 342.142C394.494 343.829 394.407 345.779 393.497 347.39C392.416 348.852 390.957 350.011 389.251 350.639Z" fill="#EFAB85"/>
<path d="M383.277 335.959C383.579 339.168 392.513 339.432 392.513 339.432L392.979 335.088L387.77 332.219L383.647 334.7C383.647 334.7 383.23 335.423 383.277 335.959Z" fill="#13374D"/>
<path d="M383.47 336.581C383.768 337.777 382.557 339.859 382.557 339.859L381.846 338.575L381.866 337.462L382.568 336.596C382.568 336.596 383.174 335.386 383.47 336.581Z" fill="#13374D"/>
<path d="M405.178 358.235C414.197 359.287 409.935 382.553 407.999 392.106C407.522 394.456 405.117 395.891 402.829 395.169C394.984 392.695 383.52 382.419 383.52 382.419L385.335 380.13L400.566 383.686C400.566 383.686 394.722 357.015 405.178 358.235Z" fill="#EFAB85"/>
<path d="M387.134 374.667L390.079 392.895C390.164 393.424 389.757 393.902 389.222 393.902H377.563C377.135 393.902 376.773 393.592 376.705 393.171L373.814 374.943C373.73 374.416 374.136 373.937 374.669 373.937H386.277C386.703 373.937 387.067 374.246 387.134 374.667Z" fill="#FFFFFD"/>
<path d="M381.822 381.02C381.822 381.509 381.424 381.909 380.933 381.909C380.441 381.909 380.045 381.509 380.045 381.02C380.045 380.528 380.441 380.13 380.933 380.13C381.424 380.13 381.822 380.528 381.822 381.02ZM380.043 381.909H381.822V380.13H380.043V381.909ZM3.17188 0H566.035V548.987H3.17188V0ZM3.17188 548.987H566.035V0H3.17188V548.987ZM381.822 381.909H380.044V380.131H381.822V381.909Z" fill="#7F7F7F"/>
</svg>
