<svg width="33" height="32" viewBox="0 0 33 32" fill="none" xmlns="http://www.w3.org/2000/svg">
<circle cx="16.2892" cy="15.8917" r="15.8917" fill="white"/>
<path d="M20.3893 9.73999C20.6568 9.73991 20.9137 9.84408 21.1052 10.0304C21.2967 10.2167 21.4077 10.4702 21.4143 10.737C21.4185 10.8739 21.395 11.0102 21.3453 11.1378C21.2957 11.2655 21.2208 11.3819 21.1252 11.4802C21.0296 11.5784 20.9152 11.6566 20.7888 11.7099C20.6624 11.7632 20.5265 11.7906 20.3893 11.7905C20.1174 11.7905 19.8567 11.6827 19.6645 11.4909C19.4723 11.2991 19.3643 11.039 19.3643 10.7678C19.3636 10.633 19.3896 10.4994 19.4408 10.3747C19.492 10.2501 19.5674 10.1366 19.6627 10.0411C19.7579 9.94561 19.8712 9.86987 19.9959 9.81815C20.1206 9.76643 20.2543 9.73999 20.3893 9.73999Z" fill="url(#paint0_linear)"/>
<path d="M24.9714 15.9005C25.029 17.2629 25.0102 18.6275 24.9152 19.9878C24.8601 20.7126 24.6621 21.4192 24.3326 22.0672C23.9967 22.7137 23.5067 23.2677 22.906 23.6802C22.3053 24.0928 21.6123 24.3511 20.888 24.4326C20.0318 24.5561 19.1671 24.6109 18.3021 24.5963C16.3345 24.5963 14.3721 24.6474 12.4096 24.5197C11.8511 24.4841 11.2996 24.3757 10.7691 24.1976C10.0611 23.9701 9.42431 23.5631 8.92089 23.0159C8.41746 22.4687 8.06465 21.8003 7.89694 21.076C7.76831 20.6196 7.69285 20.15 7.67208 19.6762C7.54176 17.1012 7.54176 14.521 7.67208 11.9459C7.70882 11.3188 7.85047 10.7023 8.09115 10.122C8.38617 9.38386 8.87357 8.73806 9.50269 8.25198C10.1318 7.7659 10.8797 7.45719 11.6686 7.35788C12.3576 7.24403 13.0553 7.191 13.7537 7.19947C15.6037 7.19947 17.4588 7.14837 19.314 7.19947C19.97 7.20117 20.6241 7.26984 21.2662 7.40403C22.1154 7.56678 22.8982 7.97481 23.5177 8.57779C24.1372 9.18077 24.5662 9.95206 24.7517 10.7963C24.9014 11.4204 24.9752 12.0603 24.9714 12.702C24.9714 13.7852 24.9714 14.8429 24.9714 15.9005ZM23.4689 16.1764C23.4689 14.7816 23.4689 13.5961 23.4025 12.4159C23.3858 11.9973 23.3276 11.5816 23.2287 11.1745C23.111 10.6662 22.8594 10.1986 22.4999 9.8204C22.1405 9.44216 21.6862 9.16705 21.1845 9.02359C20.7871 8.88961 20.372 8.81547 19.9528 8.80381C19.0176 8.77315 18.0874 8.74256 17.1522 8.73745C15.619 8.73745 14.137 8.71196 12.6345 8.79882C12.1308 8.8196 11.6338 8.92131 11.1626 9.10018C10.7827 9.24141 10.4377 9.46276 10.151 9.7493C9.86443 10.0358 9.64294 10.3808 9.50167 10.7607C9.29306 11.3251 9.18412 11.9217 9.17971 12.5234C9.10816 14.8072 9.12349 17.0961 9.17971 19.3799C9.18648 19.7848 9.23964 20.1875 9.33813 20.5803C9.45614 21.1225 9.72353 21.6211 10.1101 22.0193C10.4966 22.4174 10.9869 22.6994 11.5255 22.8335C11.9027 22.9345 12.2902 22.9926 12.6805 23.0072C14.648 23.1196 16.6156 23.0941 18.5781 23.0583C19.2617 23.067 19.9451 23.0243 20.6223 22.9306C21.2834 22.8543 21.901 22.5629 22.3803 22.1013C22.8595 21.6398 23.1738 21.0336 23.2747 20.376C23.3312 20.0757 23.367 19.7719 23.382 19.4667C23.4382 18.312 23.4382 17.1369 23.4382 16.1764H23.4689Z" fill="url(#paint1_linear)"/>
<path d="M20.3895 16.1582C20.3875 17.0198 20.1302 17.8615 19.65 18.5768C19.1698 19.2922 18.4883 19.8491 17.6916 20.1772C16.895 20.5053 16.0189 20.59 15.1743 20.4203C14.3296 20.2506 13.5541 19.8342 12.946 19.2239C12.3378 18.6136 11.9242 17.8369 11.7574 16.9916C11.5907 16.1463 11.6783 15.2705 12.0091 14.4749C12.34 13.6794 12.8992 12.9999 13.6162 12.5222C14.3332 12.0444 15.1757 11.79 16.0373 11.791C16.6116 11.7856 17.1812 11.8948 17.7126 12.1125C18.2441 12.3303 18.7267 12.6521 19.1321 13.059C19.5375 13.4658 19.8576 13.9496 20.0735 14.4818C20.2894 15.014 20.3969 15.5839 20.3895 16.1582ZM18.887 16.1883C18.9067 15.8041 18.8485 15.42 18.7159 15.0589C18.5834 14.6978 18.3793 14.3673 18.1158 14.0871C17.8524 13.8068 17.535 13.5828 17.1827 13.4282C16.8305 13.2737 16.4507 13.1919 16.0661 13.1879C15.6815 13.1838 15.3 13.2575 14.9446 13.4045C14.5892 13.5516 14.2671 13.7689 13.9978 14.0435C13.7285 14.3182 13.5175 14.6445 13.3774 15.0027C13.2373 15.3609 13.171 15.7437 13.1825 16.1281C13.1865 16.8951 13.4936 17.6295 14.0369 18.1709C14.5801 18.7123 15.3154 19.0167 16.0824 19.018C16.8264 19.0062 17.5362 18.7035 18.0596 18.1745C18.5829 17.6456 18.8782 16.9324 18.882 16.1883H18.887Z" fill="url(#paint2_linear)"/>
<defs>
<linearGradient id="paint0_linear" x1="20.3895" y1="10.2936" x2="20.3895" y2="14.9279" gradientUnits="userSpaceOnUse">
<stop stop-color="#33658A"/>
<stop offset="1" stop-color="#0A0A0A" stop-opacity="0.64"/>
</linearGradient>
<linearGradient id="paint1_linear" x1="16.2892" y1="11.8828" x2="16.2892" y2="51.2737" gradientUnits="userSpaceOnUse">
<stop stop-color="#33658A"/>
<stop offset="1" stop-color="#0A0A0A" stop-opacity="0.64"/>
</linearGradient>
<linearGradient id="paint2_linear" x1="16.0325" y1="14.1438" x2="16.0325" y2="33.8393" gradientUnits="userSpaceOnUse">
<stop stop-color="#33658A"/>
<stop offset="1" stop-color="#0A0A0A" stop-opacity="0.64"/>
</linearGradient>
</defs>
</svg>
