<svg width="85" height="85" viewBox="0 0 85 85" fill="none" xmlns="http://www.w3.org/2000/svg">
<path d="M13.5025 75.7041C13.5076 75.7076 13.513 75.7108 13.5181 75.7142L72.2491 74.9821C72.2525 74.9797 72.2559 74.9774 72.2593 74.975C80.1209 67.2625 85 56.5203 85 44.6371C85 21.165 65.9721 2.13708 42.5 2.13708C19.0279 2.13708 0 21.165 0 44.6371C0 56.8997 5.1953 67.9471 13.5025 75.7041Z" fill="#D8DAFF"/>
<path d="M13.1403 75.3555L34.9318 75.3572V11.4224C27.9137 10.7057 29.1773 4.84648 29.3336 4.21765C12.3073 9.76062 0 25.7596 0 44.6355C0 56.7176 5.04606 67.6175 13.1403 75.3555Z" fill="#D8DAFF"/>
<path d="M35.0207 60.3711C37.1099 61.9935 39.6883 62.8747 42.3437 62.8747C44.999 62.8747 47.5772 61.9933 49.6666 60.3711C51.2151 59.1686 52.8675 57.5318 54.3133 55.4696C53.9261 55.3577 53.5346 55.2519 53.1386 55.1527C52.6904 55.0404 52.2968 54.771 52.0426 54.4122C50.8706 52.7588 50.5461 50.2031 50.4824 48.3495C49.6602 49.307 48.7975 50.1079 47.973 50.7481C44.6668 53.3156 40.0163 53.3122 36.7145 50.7481C35.8901 50.1079 35.0275 49.307 34.2054 48.3495C34.1402 50.2443 33.8028 52.8732 32.5661 54.5215C32.355 54.8027 32.03 55.0325 31.64 55.1292C31.2135 55.2348 30.7916 55.3485 30.374 55.4691C31.8196 57.5314 33.472 59.1684 35.0207 60.3711Z" fill="#FCAD6D"/>
<path d="M42.2524 52.6707C40.2938 52.6513 38.3406 52.0109 36.7145 50.7481C35.89 50.1079 35.0275 49.307 34.2054 48.3495C34.1402 50.2443 33.8028 52.8732 32.5661 54.5215C32.355 54.8027 32.03 55.0325 31.64 55.1292C31.2135 55.2348 30.7916 55.3485 30.374 55.4691C31.8198 57.5316 33.4722 59.1686 35.0209 60.3711C35.8847 61.042 36.8332 61.5838 37.8353 61.9914C41.0065 59.0801 41.9729 55.1726 42.2524 52.6707Z" fill="#FD995B"/>
<path d="M39.6219 9.84387C31.4481 10.9576 30.6713 15.5919 30.6677 17.2919C30.6668 17.6486 30.4693 17.9789 30.1488 18.135C25.897 20.2033 28.1893 30.1716 28.1893 30.1716C28.6163 30.2 29.2567 30.5665 29.5901 30.7279C29.6717 30.2199 29.8049 29.7198 29.9931 29.2366C30.1366 28.8682 30.3157 28.4961 30.5398 28.1446C30.9288 27.5346 31.1058 26.8151 31.053 26.0956C30.9001 24.016 30.7804 20.1117 33.5253 18.8767C35.8508 17.8303 38.7035 18.4363 40.5227 19.0412C41.704 19.4339 42.9839 19.4339 44.1652 19.0412C45.9844 18.4363 48.8369 17.8303 51.1626 18.8767C53.8999 20.1083 53.7874 23.9927 53.6362 26.0779C53.5836 26.8027 53.756 27.5299 54.1479 28.1444C54.3792 28.5072 54.5627 28.8921 54.7085 29.272C54.8896 29.7444 55.0183 30.2323 55.0979 30.7279C55.518 30.5244 56.3119 30.1091 56.8257 30.1818C56.8886 28.0022 57.0898 25.6524 57.0898 25.6524C59.5117 13.7892 48.4225 8.64479 39.6219 9.84387Z" fill="#2A428C"/>
<path d="M39.6219 9.84437C31.4481 10.9581 30.6713 15.5924 30.6677 17.2924C30.6668 17.6491 30.4693 17.9794 30.1488 18.1355C25.897 20.2038 28.1893 30.1721 28.1893 30.1721C28.6163 30.2005 29.2567 30.567 29.5901 30.7284C29.6717 30.2204 29.8049 29.7203 29.9931 29.2371C30.1366 28.8687 30.3157 28.4966 30.5398 28.1451C30.9288 27.5351 31.1058 26.8156 31.053 26.0961C30.9001 24.0165 30.7804 20.1122 33.5253 18.8772C35.8508 17.8308 38.7035 18.4368 40.5227 19.0417C40.9723 19.1911 41.4363 19.2831 41.9035 19.3188C41.815 19.174 41.7162 19.0331 41.6048 18.8973C37.8198 14.2881 42.484 9.69406 42.4998 9.67845C41.5272 9.66135 40.5614 9.71651 39.6219 9.84437Z" fill="#1C2E7A"/>
<path d="M57.5512 30.4651C56.9147 29.8816 55.6466 30.1773 55.0983 30.5346C55.2185 31.2825 55.2253 32.0477 55.1214 32.8036L54.4744 37.5159C54.4744 37.8958 54.4625 38.2685 54.4404 38.6346C56.0182 39.1105 56.8018 37.694 56.934 36.722C56.9908 36.3035 57.0836 35.8911 57.2126 35.4887C57.6323 34.1782 59.1463 31.9267 57.5512 30.4651Z" fill="#FCAD6D"/>
<path d="M27.1383 30.4651C27.7748 29.8816 29.0429 30.1773 29.5912 30.5346C29.471 31.2825 29.4642 32.0477 29.5681 32.8036L30.2151 37.5159C30.2151 37.8958 30.227 38.2685 30.2491 38.6346C28.6713 39.1105 27.8877 37.694 27.7555 36.722C27.6987 36.3035 27.6059 35.8911 27.4769 35.4887C27.0572 34.1782 25.5432 31.9267 27.1383 30.4651Z" fill="#FD995B"/>
<path d="M54.9023 29.0783C54.7567 28.6983 54.573 28.3135 54.3417 27.9506C53.9499 27.3359 53.7774 26.6089 53.83 25.8839C53.981 23.7987 53.9001 19.7208 51.1629 18.4892C48.8374 17.4428 45.9851 18.0488 44.1659 18.6537C42.9846 19.0467 41.7043 19.0467 40.5227 18.6537C38.7036 18.0488 35.8511 17.443 33.5258 18.4892C30.7808 19.7242 30.7073 23.822 30.86 25.9016C30.9128 26.6211 30.7357 27.3406 30.347 27.9506C30.1229 28.3021 29.9438 28.6744 29.8003 29.0426C29.3352 30.2374 29.1997 31.5331 29.3737 32.8019L30.0209 37.5152C30.0209 44.2915 33.6383 48.8973 36.7151 51.2867C38.3211 52.5339 40.3031 53.2113 42.3444 53.2113C44.3857 53.2113 46.3676 52.5339 47.9738 51.2867C51.0506 48.8973 54.6679 44.2915 54.6679 37.5152L55.315 32.8029C55.4875 31.5468 55.3566 30.2637 54.9023 29.0783Z" fill="#F9BA8F"/>
<path d="M45.4816 51.2872C42.4047 48.8978 38.7874 44.292 38.7874 37.5158L38.1402 32.8024C37.9659 31.5336 38.1015 30.2379 38.5667 29.0431C38.7102 28.6747 38.8894 28.3026 39.1135 27.9511C39.5024 27.3411 39.6794 26.6216 39.6264 25.9021C39.4877 24.0126 39.5362 20.4575 41.6053 18.8969C41.2392 18.8496 40.8764 18.7716 40.5227 18.6542C38.7036 18.0493 35.8511 17.4436 33.5258 18.4898C30.7808 19.7248 30.7073 23.8225 30.86 25.9021C30.9128 26.6216 30.7357 27.3411 30.347 27.9511C30.1229 28.3026 29.9438 28.6749 29.8003 29.0431C29.3352 30.2379 29.1997 31.5336 29.3737 32.8024L30.0209 37.5158C30.0209 44.292 33.6383 48.8978 36.7151 51.2872C38.3211 52.5344 40.3031 53.2118 42.3444 53.2118C43.8848 53.2118 45.3909 52.8256 46.7277 52.1004C46.2928 51.8645 45.8758 51.5932 45.4816 51.2872Z" fill="#FCAD6D"/>
<path d="M65.0677 60.0229C64.0175 59.9369 63.4588 59.5296 62.221 58.8317C59.6428 57.3778 56.9731 56.2182 54.0641 55.4027C52.6433 57.4449 51.0128 59.0626 49.4863 60.248C47.4489 61.8301 44.9346 62.6894 42.3453 62.6894C39.7558 62.6894 37.2415 61.8301 35.2043 60.248C33.6774 59.0622 32.0464 57.4443 30.6254 55.4012C27.7286 56.2148 25.0403 57.3816 22.4694 58.8315C21.2316 59.5294 20.6729 59.9367 19.6226 60.0227C12.9257 60.5703 9.8166 65.0116 8.40285 69.574C8.37099 69.6773 8.34362 69.7817 8.31348 69.8854C9.86728 71.9859 11.6129 73.935 13.5193 75.714C21.7882 81.1742 31.6943 84.3558 42.3451 84.3558C53.4633 84.3558 63.7705 80.8892 72.2505 74.9819C73.7701 73.4918 75.1808 71.891 76.4639 70.1881C76.4077 69.9829 76.3506 69.7776 76.2875 69.574C74.874 65.0119 71.7647 60.5705 65.0677 60.0229Z" fill="#3C58A0"/>
<path d="M35.2043 60.248C33.6774 59.0622 32.0464 57.4443 30.6254 55.4012C27.7286 56.2148 25.0403 57.3816 22.4694 58.8315C21.2316 59.5294 20.6729 59.9367 19.6226 60.0227C12.9257 60.5703 9.8166 65.0116 8.40285 69.574C8.37099 69.6773 8.34362 69.7817 8.31348 69.8854C9.86728 71.9859 11.6129 73.935 13.5193 75.714C16.2108 77.4912 19.0768 79.0251 22.0843 80.2886C22.2162 70.2672 23.7318 68.1235 33.1923 64.7448C35.1979 64.0285 36.7662 63.0125 37.9933 61.8465C36.9997 61.4471 36.0595 60.9124 35.2043 60.248Z" fill="#2A428C"/>
<path d="M74.8178 14.4491L73.719 15.7239C73.4812 15.9997 73.4057 16.3803 73.5201 16.7262L74.0487 18.3217C74.2103 18.8099 73.9894 19.3429 73.5297 19.5736L72.0277 20.3273C71.7018 20.4909 71.4859 20.8135 71.4591 21.1772L71.3353 22.8549C71.2975 23.3669 70.8904 23.7743 70.3783 23.8119L68.7007 23.9357C68.3372 23.9626 68.0143 24.1784 67.8508 24.5042L67.0971 26.0063C66.8664 26.466 66.3333 26.6869 65.8452 26.525L64.2497 25.9964C63.9039 25.8818 63.5234 25.9573 63.2473 26.1953L61.9728 27.2941C61.584 27.6291 61.0084 27.6291 60.6197 27.2941L59.345 26.1953C59.0689 25.9575 58.6885 25.8821 58.3426 25.9964L56.7471 26.525C56.2589 26.6866 55.7259 26.4658 55.4952 26.0063L54.7415 24.5042C54.5779 24.1784 54.2553 23.9624 53.8916 23.9357L52.214 23.8119C51.7019 23.774 51.2948 23.3669 51.2569 22.8549L51.1331 21.1772C51.1064 20.8138 50.8905 20.4909 50.5646 20.3273L49.0625 19.5736C48.6028 19.3429 48.382 18.8099 48.5438 18.3217L49.0724 16.7262C49.187 16.3805 49.1115 15.9999 48.8735 15.7239L47.7747 14.4493C47.4397 14.0606 47.4397 13.485 47.7747 13.0963L48.8735 11.8215C49.1113 11.5457 49.1868 11.1651 49.0724 10.8191L48.5438 9.22365C48.3822 8.73551 48.603 8.20246 49.0628 7.97176L50.5648 7.21806C50.8907 7.05449 51.1066 6.73184 51.1333 6.36814L51.2571 4.69054C51.295 4.17845 51.7021 3.77134 52.2142 3.7335L53.8918 3.60969C54.2553 3.58275 54.5781 3.36701 54.7417 3.04116L55.4954 1.5391C55.7261 1.0794 56.2592 0.858525 56.7473 1.02038L58.3428 1.54894C58.6885 1.66354 59.0691 1.58807 59.3452 1.35009L60.6197 0.251287C61.0084 -0.0837624 61.584 -0.0837624 61.9728 0.251287L63.2475 1.35009C63.5233 1.58785 63.9039 1.66333 64.2499 1.54894L65.8454 1.02038C66.3335 0.858739 66.8666 1.07961 67.0973 1.5391L67.8512 3.04116C68.0148 3.36701 68.3374 3.58297 68.7009 3.60969L70.3785 3.7335C70.8906 3.77134 71.2977 4.17845 71.3355 4.69054L71.4593 6.36814C71.4861 6.73162 71.702 7.05449 72.0279 7.21806L73.5299 7.97176C73.9896 8.20246 74.2105 8.73551 74.0489 9.22365L73.5203 10.8191C73.4057 11.1649 73.4812 11.5455 73.7192 11.8215L74.818 13.0961C75.1528 13.4848 75.1528 14.0604 74.8178 14.4491Z" fill="#4FABF7"/>
<path d="M58.3428 1.54986L56.7473 1.0213C56.2592 0.85966 55.7261 1.08053 55.4954 1.54002L54.7417 3.04208C54.5781 3.36794 54.2555 3.58389 53.8918 3.61062L52.2142 3.73442C51.7021 3.77226 51.2948 4.17937 51.2571 4.69146L51.1333 6.36906C51.1066 6.73255 50.8907 7.05541 50.5648 7.21898L49.0627 7.97268C48.603 8.20339 48.3822 8.73621 48.5438 9.22457L49.0724 10.8201C49.187 11.166 49.1115 11.5464 48.8735 11.8224L47.7747 13.0972C47.4397 13.4859 47.4397 14.0615 47.7747 14.4502L48.8733 15.7248C49.1113 16.0006 49.1866 16.3812 49.0722 16.7272L48.5436 18.3227C48.382 18.8108 48.6028 19.3438 49.0625 19.5746L50.5646 20.3283C50.8905 20.4918 51.1064 20.8145 51.1331 21.1782L51.2569 22.8558C51.2948 23.3679 51.7019 23.775 52.214 23.8128L53.8916 23.9366C54.2551 23.9633 54.5779 24.1793 54.7415 24.5051L55.4952 26.0072C55.7259 26.4669 56.2589 26.6878 56.7471 26.5261L58.3426 25.9976C58.6883 25.883 59.0689 25.9585 59.345 26.1964L60.6197 27.2952C61.0084 27.6303 61.584 27.6303 61.9727 27.2952L63.2473 26.1964C63.5233 25.9587 63.9037 25.8832 64.2497 25.9976L65.8452 26.5261C66.3333 26.6878 66.8664 26.4669 67.0971 26.0074L67.8508 24.5054C68.0143 24.1795 68.337 23.9636 68.7007 23.9368L70.3783 23.813C70.8904 23.7752 71.2977 23.3681 71.3353 22.856C62.852 21.3415 65.499 14.8084 65.499 14.8084L63.6444 11.8492C55.5063 9.76916 59.345 1.35122 59.345 1.35122C59.0691 1.58899 58.6885 1.66446 58.3428 1.54986Z" fill="#1886EA"/>
<path d="M60.5547 19.0449C60.1033 19.0449 59.6704 18.8655 59.3511 18.5465L55.5775 14.7726C54.913 14.1079 54.913 13.0305 55.5775 12.3657C56.2425 11.7012 57.3197 11.7016 57.9844 12.3657L60.5545 14.936L65.4359 10.0546C66.1007 9.39002 67.1781 9.39002 67.8428 10.0546C68.5074 10.7193 68.5074 11.7967 67.8428 12.4615L61.7579 18.5465C61.4388 18.8655 61.0061 19.0449 60.5547 19.0449Z" fill="#E9EFFF"/>
<path d="M67.5648 77.8886C67.1656 73.9533 65.5538 71.4037 64.064 69.8589C63.0704 68.8287 61.3252 69.5463 61.3252 70.9774V80.8052C63.4779 79.9677 65.5611 78.9919 67.5648 77.8886Z" fill="#2A428C"/>
</svg>
