<svg width="65" height="65" viewBox="0 0 65 65" fill="none" xmlns="http://www.w3.org/2000/svg">
<g clip-path="url(#clip0)">
<path d="M32.5246 30.3259C34.9171 30.3259 36.8569 28.3861 36.8569 25.9936V22.7444H32.5246L30.3585 21.6614L29.2754 22.7444H28.1924V25.9936C28.1924 28.3861 30.1322 30.3259 32.5246 30.3259Z" fill="#FFDAAA"/>
<path d="M35.73 32.5787C35.3863 32.5221 35.0388 32.493 34.6903 32.4919H30.3581C30.0096 32.493 29.6621 32.5221 29.3184 32.5787L32.5242 40.0734L35.73 32.5787Z" fill="#FFDAAA"/>
<path d="M29.319 32.5786C26.1735 33.0884 23.8619 35.804 23.8604 38.9903V46.5717C23.8604 47.1698 24.3453 47.6548 24.9434 47.6548H32.5249V40.0733L29.319 32.5786Z" fill="#3D9AE2"/>
<path d="M35.7302 32.5786L32.5244 40.0733V47.6548H40.1059C40.704 47.6548 41.1889 47.1698 41.1889 46.5717V38.9903C41.1874 35.804 38.8758 33.0884 35.7302 32.5786Z" fill="#5AAAE7"/>
<path d="M30.3586 21.6614L32.5247 22.7444H37.94V21.6614C37.94 19.2689 36.0002 17.3291 33.6078 17.3291H31.4416C29.0492 17.3291 27.1094 19.2689 27.1094 21.6614V22.7444H29.2755L30.3586 21.6614Z" fill="#787680"/>
<path d="M35.7738 4.3322C35.7738 6.12655 34.3189 7.58138 32.5246 7.58138C30.7302 7.58138 29.2754 6.12655 29.2754 4.3322C29.2754 2.53784 30.7302 1.08301 32.5246 1.08301C34.3189 1.08301 35.7738 2.53784 35.7738 4.3322Z" fill="#FFA733"/>
<path d="M14.9113 10.2826C13.6426 9.01388 11.5854 9.01388 10.3167 10.2826C9.04806 11.5518 9.04806 13.609 10.3167 14.8777C11.5854 16.1463 13.6426 16.1463 14.9113 14.8777C16.1805 13.609 16.1805 11.5513 14.9113 10.2826Z" fill="#FFA733"/>
<path d="M7.61459 32.4919C7.61459 34.2862 6.15975 35.7411 4.3654 35.7411C2.57105 35.7411 1.11621 34.2862 1.11621 32.4919C1.11621 30.6975 2.57105 29.2427 4.3654 29.2427C6.15975 29.2427 7.61459 30.6975 7.61459 32.4919Z" fill="#FFA733"/>
<path d="M10.3158 50.1057C9.04709 51.3744 9.04709 53.4316 10.3158 54.7003C11.585 55.9695 13.6422 55.9695 14.9109 54.7003C16.1795 53.4316 16.1795 51.3744 14.9109 50.1057C13.6422 48.8365 11.5845 48.8365 10.3158 50.1057Z" fill="#FFA733"/>
<path d="M35.7738 60.6515C35.7738 62.4459 34.3189 63.9007 32.5246 63.9007C30.7302 63.9007 29.2754 62.4459 29.2754 60.6515C29.2754 58.8572 30.7302 57.4023 32.5246 57.4023C34.3189 57.4023 35.7738 58.8572 35.7738 60.6515Z" fill="#FFA733"/>
<path d="M50.139 50.1057C48.8703 51.3744 48.8703 53.4316 50.139 54.7003C51.4077 55.9695 53.4649 55.9695 54.7341 54.7003C56.0028 53.4316 56.0028 51.3744 54.7341 50.1057C53.4654 48.8365 51.4077 48.8365 50.139 50.1057Z" fill="#FFA733"/>
<path d="M63.9339 32.4919C63.9339 34.2862 62.4791 35.7411 60.6847 35.7411C58.8904 35.7411 57.4355 34.2862 57.4355 32.4919C57.4355 30.6975 58.8904 29.2427 60.6847 29.2427C62.4791 29.2427 63.9339 30.6975 63.9339 32.4919Z" fill="#FFA733"/>
<path d="M54.7341 14.8778C56.0028 13.6091 56.0028 11.5519 54.7341 10.2832C53.4649 9.014 51.4077 9.014 50.139 10.2832C48.8703 11.5519 48.8703 13.6091 50.139 14.8778C51.4077 16.147 53.4654 16.147 54.7341 14.8778Z" fill="#FFA733"/>
<path d="M35.7734 37.9072H37.9396V40.0734H35.7734V37.9072Z" fill="#1E81CE"/>
<path d="M32.5244 3.23466e-06C30.3456 -0.00264095 28.5052 1.61614 28.2302 3.77803C27.9552 5.9394 29.3313 7.96749 31.4413 8.51061V14.0798H33.6074V8.51061C35.7175 7.96749 37.0941 5.9394 36.8185 3.77803C36.5435 1.61614 34.7032 -0.00264095 32.5244 3.23466e-06ZM32.5244 6.49838C31.3281 6.49838 30.3583 5.52849 30.3583 4.33225C30.3583 3.13602 31.3281 2.16613 32.5244 2.16613C33.7206 2.16613 34.6905 3.13602 34.6905 4.33225C34.6905 5.52849 33.7206 6.49838 32.5244 6.49838Z" fill="#EE8700"/>
<path d="M16.9445 12.5802C16.9477 11.4305 16.4902 10.3274 15.6747 9.51718C13.9613 7.87936 11.2626 7.87936 9.5492 9.51718C7.996 11.0535 7.83364 13.5073 9.17055 15.235C10.508 16.9622 12.9243 17.4202 14.8011 16.3011L18.7388 20.2394L20.2704 18.7068L16.3321 14.7691C16.7298 14.1075 16.9413 13.3513 16.9445 12.5802ZM11.0797 14.1112C10.2335 13.2656 10.233 11.8938 11.0791 11.0476C11.9253 10.202 13.2966 10.202 14.1427 11.0476C14.9888 11.8938 14.9883 13.2656 14.1422 14.1112C13.2855 14.9299 11.9364 14.9299 11.0797 14.1112Z" fill="#EE8700"/>
<path d="M33.6081 56.473V50.9038H31.4419V56.473C29.3298 57.0183 27.9527 59.0495 28.2271 61.2135C28.5021 63.3776 30.3435 65 32.525 65C34.7065 65 36.5479 63.3776 36.8229 61.2135C37.0979 59.0495 35.7203 57.0183 33.6081 56.473ZM32.525 62.8175C31.3288 62.8175 30.3589 61.8476 30.3589 60.6514C30.3589 59.4552 31.3288 58.4853 32.525 58.4853C33.7212 58.4853 34.6911 59.4552 34.6911 60.6514C34.6911 61.8476 33.7212 62.8175 32.525 62.8175Z" fill="#EE8700"/>
<path d="M50.2566 48.6924L46.3098 44.7446L44.7783 46.2772L48.7166 50.2149C47.5812 52.1526 48.1185 54.636 49.9525 55.9312C51.7865 57.2263 54.307 56.9016 55.7528 55.1839C57.1986 53.4662 57.0886 50.9273 55.4995 49.3413C54.0848 47.9959 51.9568 47.7326 50.2566 48.6924ZM53.969 53.9364C53.1123 54.755 51.7632 54.755 50.9065 53.9364C50.0604 53.0908 50.0598 51.719 50.906 50.8728C51.7521 50.0272 53.1234 50.0272 53.9696 50.8728C54.8157 51.719 54.8152 53.0908 53.969 53.9364Z" fill="#EE8700"/>
<path d="M60.6841 28.1597C58.7147 28.1671 56.9981 29.5019 56.5057 31.4089H50.9365V33.575H56.5057C57.0721 35.7496 59.2097 37.1277 61.4239 36.7464C63.6387 36.3651 65.1919 34.3518 64.9994 32.1127C64.8064 29.8742 62.9311 28.1565 60.6841 28.1597ZM60.6841 34.658C59.4879 34.658 58.518 33.6882 58.518 32.4919C58.518 31.2957 59.4879 30.3258 60.6841 30.3258C61.8803 30.3258 62.8502 31.2957 62.8502 32.4919C62.8502 33.6882 61.8803 34.658 60.6841 34.658Z" fill="#EE8700"/>
<path d="M14.1128 33.5749V31.4088H8.54361C7.99837 29.2966 5.9671 27.9195 3.80309 28.1939C1.63908 28.4689 0.0166016 30.3104 0.0166016 32.4918C0.0166016 34.6733 1.63908 36.5147 3.80309 36.7897C5.9671 37.0647 7.99837 35.6871 8.54361 33.5749H14.1128ZM4.36525 34.6579C3.16901 34.6579 2.19912 33.6881 2.19912 32.4918C2.19912 31.2956 3.16901 30.3257 4.36525 30.3257C5.56148 30.3257 6.53137 31.2956 6.53137 32.4918C6.53137 33.6881 5.56148 34.6579 4.36525 34.6579Z" fill="#EE8700"/>
<path d="M18.7391 44.7446L14.7924 48.6924C13.0922 47.7326 10.9641 47.9965 9.54947 49.3424C7.93493 50.9315 7.81171 53.4943 9.26654 55.231C10.7214 56.9677 13.2662 57.2956 15.1134 55.9846C16.9612 54.6731 17.4916 52.1627 16.3324 50.2165L20.2706 46.2783L18.7391 44.7446ZM14.1435 53.9364C13.2868 54.755 11.9377 54.755 11.081 53.9364C10.2348 53.0908 10.2343 51.719 11.0805 50.8728C11.9266 50.0272 13.2979 50.0272 14.144 50.8728C14.9902 51.719 14.9896 53.0908 14.1435 53.9364Z" fill="#EE8700"/>
<path d="M46.3098 20.2394L50.2481 16.3011C52.1239 17.4096 54.5317 16.9484 55.866 15.2255C57.1997 13.502 57.0426 11.0556 55.4995 9.51718C53.786 7.87936 51.0874 7.87936 49.3739 9.51718C47.9709 10.907 47.6991 13.0757 48.7166 14.7691L44.7783 18.7068L46.3098 20.2394ZM50.9055 11.0476C51.7516 10.2015 53.1234 10.2015 53.969 11.0476C54.8152 11.8938 54.8152 13.2651 53.969 14.1112C53.1123 14.9299 51.7632 14.9299 50.9065 14.1112C50.0609 13.2656 50.0609 11.8943 50.9065 11.0487L50.9055 11.0476Z" fill="#EE8700"/>
</g>
<defs>
<clipPath id="clip0">
<rect width="65" height="65" fill="white"/>
</clipPath>
</defs>
</svg>
