<svg width="32" height="32" viewBox="0 0 32 32" fill="none" xmlns="http://www.w3.org/2000/svg">
<circle cx="16.1083" cy="15.8917" r="15.8917" fill="white"/>
<path d="M12.9099 22.1259H10.2147V13.3632H12.9099V22.1259ZM11.5609 12.1679C10.699 12.1679 10 11.4472 10 10.5771C10 10.1592 10.1644 9.75832 10.4572 9.46278C10.7499 9.16725 11.1469 9.00122 11.5609 9.00122C11.9748 9.00122 12.3719 9.16725 12.6646 9.46278C12.9573 9.75832 13.1217 10.1592 13.1217 10.5771C13.1217 11.4472 12.4224 12.1679 11.5609 12.1679ZM22.9971 22.1259H20.3077V17.8603C20.3077 16.8437 20.2874 15.54 18.9065 15.54C17.5052 15.54 17.2904 16.6445 17.2904 17.7871V22.1259H14.5982V13.3632H17.1831V14.5585H17.2208C17.5806 13.8701 18.4596 13.1435 19.7709 13.1435C22.4986 13.1435 23 14.957 23 17.3124V22.1259H22.9971Z" fill="#33658A"/>
</svg>
