<svg width="288" height="380" viewBox="0 0 288 380" fill="none" xmlns="http://www.w3.org/2000/svg">
<path d="M197.726 168.62L264.129 165.472C264.129 165.472 264.19 140.896 264.074 109.997C264.029 97.8038 259.512 86.8344 251.88 78.7654C248.283 74.7904 243.911 71.6531 238.909 69.2109C236.694 68.1282 234.426 67.3429 232.119 66.7769C231.169 66.5003 230.208 66.244 229.227 66.0252C225.912 65.2894 222.542 65.1587 219.156 65.1976C217.335 65.2182 215.515 65.2357 213.695 65.2533C210.373 66.792 207.052 68.3261 203.663 69.7104C203.497 69.779 203.339 69.8051 203.192 69.7977C201.956 70.4023 200.738 71.0418 199.562 71.787C186.935 79.7801 180.746 91.4498 180.481 106.021C180.12 126.065 180.434 146.123 180.46 166.174C180.512 166.225 180.567 166.275 180.621 166.324C180.572 167.43 180.522 168.535 180.474 169.639L197.726 168.62Z" fill="#36898D"/>
<path d="M118.1 85.7012C117.76 84.2124 118.45 82.8721 118.974 81.6225C119.471 80.4408 120.739 80.1775 122.093 80.4155C129.648 81.7436 137.209 83.0428 144.774 84.3065C155.742 86.1388 166.719 87.9233 177.689 89.7475C185.531 91.0518 193.349 92.5125 201.211 93.6702C206.6 94.4637 206.531 95.4008 205.511 100.401C203.94 101.81 201.854 102.223 200.007 102.994C190.728 106.874 181.546 110.98 172.266 114.858C169.264 116.113 166.334 117.544 163.221 118.517C159.14 119.794 155.419 118.861 152.04 116.443C146.79 112.687 142.554 107.763 137.614 103.678C133.699 100.441 130.276 96.6914 126.251 93.5683C123.29 91.2699 120.728 88.4184 118.1 85.7012Z" fill="#F4EFED"/>
<path d="M118.101 85.7021C120.31 86.3612 121.624 88.2361 123.193 89.6772C127.846 93.9486 132.648 98.0704 137.207 102.411C140.639 105.676 144.362 108.63 147.652 112.089C151.212 115.834 155.438 119.1 161.225 118.343C164.369 117.932 167.187 116.41 170.058 115.195C172.539 114.144 174.979 112.997 177.49 111.999C179.625 111.15 181.668 110.075 183.765 109.129C185.663 108.276 187.516 107.235 189.504 106.695C191.847 106.06 193.898 104.819 196.139 103.983C199.269 102.815 202.129 100.933 205.511 100.401C205.599 100.997 205.476 101.531 205.05 101.977C204.869 102.729 204.292 103.032 203.641 103.319C196.11 106.63 188.688 110.181 181.212 113.613C176.204 115.911 171.363 118.564 166.253 120.633C164.832 121.209 165.083 121.589 165.922 122.631C173.332 131.849 182.555 139.399 189.849 148.719C190.505 149.557 191.368 150.196 192.098 150.96C192.673 151.561 193.577 152.15 192.818 153.213C192.176 153.167 191.534 153.12 190.892 153.074C187.888 152.14 184.739 152.071 181.667 151.537C169.725 149.459 157.764 147.482 145.807 145.494C135.348 143.754 124.881 142.05 114.42 140.318C113.99 140.246 113.581 140.037 113.164 139.893C112.531 138.734 113.648 138.506 114.196 138.022C116.796 135.724 120.061 134.542 123.095 133.049C126.289 131.476 129.266 129.529 132.511 128.052C137.53 125.769 142.205 122.792 147.253 120.554C147.81 120.306 148.357 120.05 148.837 119.668C149.665 119.008 149.724 118.444 148.859 117.666C141.367 110.932 134.44 103.606 126.925 96.8875C124.23 94.4805 121.881 91.6525 119.11 89.2817C118.593 88.8396 118.118 88.3349 117.946 87.6326C117.947 86.9856 117.431 86.2972 118.101 85.7021Z" fill="#DDD9D7"/>
<path d="M117.945 87.6318C119.914 89.2558 122.143 90.6526 123.801 92.5489C128.431 97.8462 133.835 102.349 138.858 107.221C141.987 110.257 144.913 113.509 148.164 116.421C148.332 116.572 148.506 116.719 148.691 116.849C149.451 117.385 150.964 117.439 150.713 118.638C150.468 119.803 149.218 120.516 148.114 120.992C144.461 122.562 140.893 124.251 137.548 126.446C135.879 127.542 133.914 128.37 132.097 129.06C128.885 130.279 126.224 132.392 123.102 133.754C119.727 135.226 116.278 136.883 113.332 139.261C113.195 139.372 113.215 139.677 113.163 139.892C109.983 139.613 109.139 138.544 109.657 135.424C110.755 128.829 111.858 122.235 112.958 115.641C114.357 107.153 115.736 98.6607 117.186 90.1806C117.332 89.3281 117.18 88.3233 117.945 87.6318Z" fill="#F4EFED"/>
<path d="M192.818 153.212C192.972 152.484 192.467 152.012 192.013 151.692C189.862 150.176 188.398 148.031 186.758 146.06C180.124 138.092 172.06 131.454 165.669 123.248C163.881 120.952 163.649 121.259 166.307 119.994C171.697 117.429 177.004 114.692 182.402 112.143C186.309 110.299 190.391 108.81 194.231 106.841C196.564 105.645 199.195 105.064 201.287 103.361C202.354 102.493 204.022 103.069 205.048 101.975C205.693 103.991 204.618 105.815 204.312 107.701C201.99 121.993 199.558 136.267 197.106 150.539C196.634 153.278 195.459 153.919 192.818 153.212Z" fill="#F4EFED"/>
<path d="M208.035 68.542C208.308 68.4399 209.349 67.954 210.699 67.1869C212.012 66.4395 213.034 65.736 213.694 65.253C204.037 65.5044 196.148 65.5744 190.735 65.589C178.935 65.6245 172.794 65.4551 158.69 65.4846C153.745 65.4952 148.8 65.5621 143.854 65.6041C142.714 65.5587 141.573 65.5114 140.432 65.4656C139.275 66.0837 132.765 66.3611 131.879 65.4458C123.897 65.4687 115.914 65.4997 107.931 65.514C104.548 65.5207 101.187 65.6923 97.8791 66.4574C77.276 71.2255 63.2123 88.8299 63.1762 110.021C63.1444 128.152 63.2052 146.283 63.2382 164.413C63.2394 165.438 63.0554 166.503 63.6431 167.457C64.2134 170.214 66.4252 169.888 68.3684 169.888C90.8912 169.881 113.413 169.841 135.934 169.824C140.697 169.819 145.457 169.872 150.219 169.9C150.839 170.441 151.6 170.569 152.383 170.598C157.965 170.815 163.549 170.704 169.133 170.634C169.932 170.625 170.634 170.298 171.318 169.928C171.962 169.841 172.605 169.753 173.249 169.667C174.925 169.495 176.602 169.493 178.28 169.662C179.012 169.654 179.742 169.647 180.473 169.641C181.408 168.494 181.28 167.355 180.487 166.218C181.534 164.982 181.224 163.44 181.224 162.007C181.231 143.709 181.174 125.412 181.189 107.115C181.195 101.963 182.007 96.9231 183.866 92.0884C188.309 80.5366 196.49 72.8192 208.035 68.542Z" fill="#69D3D8"/>
<path d="M171.621 374.519C171.67 373.741 171.761 372.964 171.76 372.186C171.69 305.869 171.614 239.55 171.518 173.229C171.516 172.321 171.874 171.316 171.127 170.495C171.191 170.305 171.253 170.115 171.316 169.927C164.282 169.805 157.253 169.432 150.22 169.901C150.185 171.113 150.118 172.325 150.119 173.538C150.194 239.426 150.275 305.317 150.36 371.204C150.361 372.332 150.424 373.458 150.458 374.586C154.622 374.722 158.787 374.846 162.949 374.514L171.621 374.519Z" fill="#FFD592"/>
<path d="M144.17 117.785C142.735 116.558 142.506 115.438 142.879 113.731C144.616 105.758 146.226 97.7565 147.922 89.7744C149.49 82.3898 151.107 75.0165 152.704 67.6393C152.86 66.7019 152.989 65.7563 153.181 64.825C155.231 54.7956 157.294 44.7692 159.354 34.7413C158.569 34.698 157.805 34.2125 157.003 34.4843C156.922 34.3704 156.83 34.2584 156.711 34.1483C155.025 33.3712 153.337 32.632 151.462 33.5719C151.137 34.7296 150.752 35.8743 150.499 37.0493C148.431 46.6489 146.389 56.2545 144.338 65.8572C141.087 81.673 137.833 97.4867 134.598 113.303C134.349 114.522 133.537 114.891 132.475 115.27C127.017 117.213 124.493 122.677 126.421 127.819C128.259 132.721 135.149 135.22 140.142 133.868C143.868 133.299 145.86 130.788 146.849 127.471C147.947 123.774 147.147 120.33 144.17 117.785Z" fill="#FFD592"/>
<path d="M163.067 15.3756C163.513 13.5303 164.764 11.519 162.551 10.0335C159.639 8.07892 156.679 9.20919 155.457 12.5748C155.346 12.8772 155.075 13.1227 154.874 13.3947C157.602 14.0545 160.336 14.7158 163.067 15.3756Z" fill="#FFC000"/>
<path d="M163.653 14.2361C163.653 14.2361 153.767 12.0443 152.919 11.9381C148.948 11.0943 144.966 10.3061 141.015 9.3861C138.862 8.88423 137.806 9.5518 137.391 11.7635C136.502 16.52 135.438 21.2444 134.454 25.984C133.754 29.3653 137.383 30.1642 137.383 30.1642C138.152 30.8413 147.662 32.7205 151.459 33.5721C153.22 33.9133 154.98 34.2538 156.74 34.5964C157.613 34.6007 158.448 35.288 159.351 34.7415L163.653 14.2361Z" fill="#6A344D"/>
<path d="M264.13 165.474C264.13 165.474 264.191 140.897 264.075 109.998C264.029 97.805 259.512 86.8356 251.88 78.7666C248.283 74.7916 243.868 71.5362 237.581 68.8462C233.745 67.2042 224.895 63.747 214.733 64.8821C206.11 65.846 200.434 71.2358 199.563 71.7882C186.936 79.7813 180.747 91.451 180.482 106.022C180.121 126.066 180.523 168.537 180.475 169.641L264.13 165.474Z" fill="#50C2C7"/>
<path d="M86.6778 128.588C87.0889 144.288 74.6939 157.35 58.992 157.761C43.2918 158.172 30.2317 145.777 29.8206 130.077C29.4095 114.377 41.8029 101.315 57.5032 100.904C73.2051 100.493 86.2667 112.888 86.6778 128.588Z" fill="#6A344D"/>
<path d="M55.3321 137.188C54.8281 136.198 54.6346 135.159 54.6101 134.041C54.4736 127.608 54.2956 121.176 54.116 114.745C54.077 113.377 54.475 112.211 55.6068 111.41C58.0119 109.71 60.9485 111.154 61.2996 114.179C61.481 114.757 61.6416 115.334 61.6561 115.948C61.8155 122.221 62.0021 128.492 62.1392 134.764C62.2013 137.625 59.4656 139.582 56.877 138.605C56.1584 138.335 55.6787 137.845 55.3321 137.188Z" fill="white"/>
<path d="M57.8742 148.16C56.6561 148.109 55.7647 147.408 55.409 146.216C54.8744 145.279 54.9453 144.326 55.3375 143.366C55.7717 141.872 57.1355 141.197 58.4756 141.083C59.9019 140.964 61.1464 141.776 61.786 142.939C62.9832 145.121 61.976 147.934 59.1414 148.314C58.6786 148.591 58.2975 148.203 57.8742 148.16Z" fill="white"/>
</svg>
