<svg width="284" height="284" viewBox="0 0 284 284" fill="none" xmlns="http://www.w3.org/2000/svg">
<path d="M142 0C220.424 0 284 63.5756 284 142C284 220.424 220.424 284 142 284C63.5756 284 0 220.424 0 142C0 63.5756 63.5756 0 142 0Z" fill="#9D81E3"/>
<path d="M118.403 230.577L30.331 184.601C27.1662 182.948 27.6026 179.891 31.3064 177.773L152.675 108.358C156.379 106.24 161.948 105.862 165.114 107.515L253.186 153.49C256.351 155.142 255.914 158.199 252.21 160.317L130.842 229.732C127.137 231.851 121.569 232.229 118.403 230.577Z" fill="#C0C0C0"/>
<path d="M256.845 141.923C256.52 141.608 256.123 141.315 255.631 141.059L164.662 93.5702C161.392 91.8632 155.64 92.2542 151.814 94.4419L26.4528 166.139C26.0226 166.385 25.6418 166.645 25.2974 166.912L23.2617 167.845L23.3024 170.66C23.4614 171.63 24.1629 172.523 25.4451 173.192L116.414 220.68C119.684 222.387 125.436 221.996 129.262 219.808L254.624 148.111C256.61 146.975 257.678 145.578 257.796 144.257L257.816 142.011L256.845 141.923Z" fill="#3A0AB4"/>
<path d="M116.415 218.37L25.4449 170.882C22.1752 169.175 22.6265 166.018 26.4525 163.83L151.814 92.132C155.64 89.9438 161.392 89.5533 164.662 91.2603L255.631 138.748C258.9 140.455 258.449 143.612 254.623 145.8L129.262 217.498C125.436 219.686 119.685 220.077 116.415 218.37Z" fill="url(#paint0_linear_7132_16946)"/>
<path d="M122.036 210.822L34.5762 165.166L160.256 95.0801L247.714 140.735L122.036 210.822Z" fill="white"/>
<path d="M122.036 210.822L34.5762 165.166L160.256 95.0801L247.714 140.735L122.036 210.822Z" stroke="#3A0AB4" stroke-width="2.875" stroke-linecap="round" stroke-linejoin="round"/>
<path d="M226.089 123.46L223.099 121.899C226.625 119.933 226.625 116.847 223.099 115.007L206.903 106.552C203.377 104.712 197.661 104.813 194.136 106.779L192.126 105.73C188.457 103.814 182.507 103.92 178.838 105.967C175.169 108.013 175.169 111.225 178.838 113.141L212.802 130.87C216.471 132.785 222.421 132.679 226.089 130.633C229.759 128.587 229.759 125.376 226.089 123.46Z" fill="#082B61"/>
<path d="M226.089 120.752L223.099 119.191C226.625 117.225 226.625 114.139 223.099 112.299L206.903 103.844C203.377 102.004 197.661 102.105 194.136 104.071L192.126 103.022C188.457 101.106 182.507 101.212 178.838 103.259C175.169 105.305 175.169 108.517 178.838 110.433L212.802 128.162C216.471 130.077 222.42 129.971 226.089 127.925C229.759 125.879 229.759 122.668 226.089 120.752Z" fill="#C034F8"/>
<path d="M216.808 120.282L192.012 106.952C191.133 106.48 191.111 105.299 191.969 104.765C192.407 104.494 192.968 104.474 193.416 104.715L218.213 118.045C219.091 118.517 219.114 119.698 218.255 120.231C217.817 120.504 217.257 120.523 216.808 120.282Z" fill="white"/>
<path d="M162.616 162.503C162.422 162.503 162.226 162.457 162.042 162.36L138.143 149.708C137.542 149.389 137.313 148.644 137.63 148.043C137.948 147.441 138.692 147.212 139.293 147.53L163.193 160.183C163.793 160.501 164.023 161.247 163.705 161.848C163.484 162.265 163.058 162.503 162.616 162.503Z" fill="#D7D7D7"/>
<path d="M170.347 175.633C170.156 175.633 169.961 175.588 169.779 175.493L129.372 154.403C128.769 154.088 128.535 153.344 128.85 152.741C129.164 152.138 129.908 151.903 130.51 152.218L170.919 173.309C171.521 173.624 171.755 174.367 171.441 174.971C171.22 175.392 170.791 175.633 170.347 175.633Z" fill="#D7D7D7"/>
<path d="M127.886 181.571C127.691 181.571 127.495 181.526 127.311 181.428L103.412 168.775C102.812 168.457 102.582 167.712 102.9 167.111C103.218 166.509 103.962 166.28 104.563 166.598L128.462 179.251C129.063 179.569 129.293 180.315 128.975 180.916C128.754 181.333 128.327 181.571 127.886 181.571Z" fill="#D7D7D7"/>
<path d="M135.617 194.702C135.425 194.702 135.23 194.657 135.049 194.562L94.6402 173.471C94.038 173.156 93.8038 172.413 94.1183 171.81C94.4325 171.207 95.1762 170.972 95.7784 171.287L136.187 192.378C136.789 192.693 137.023 193.436 136.709 194.04C136.489 194.461 136.061 194.702 135.617 194.702Z" fill="#D7D7D7"/>
<path d="M81.7663 166.213L66.1572 158.015L81.7161 149.317L97.3252 157.515L81.7663 166.213Z" fill="#D7D7D7"/>
<path d="M78.3317 154.791L77.2109 159.265L88.2551 158.113" stroke="white" stroke-width="15.571" stroke-linecap="round" stroke-linejoin="round"/>
<path d="M95.8865 121.843C100.221 121.843 103.735 119.954 103.735 117.625C103.735 115.296 100.221 113.407 95.8865 113.407C91.552 113.407 88.0381 115.296 88.0381 117.625C88.0381 119.954 91.552 121.843 95.8865 121.843Z" fill="#D7D7D7"/>
<path d="M95.8863 114.652C95.3768 114.652 94.959 114.235 94.959 113.724V100.621C94.959 100.111 95.3757 99.6929 95.8863 99.6929C96.3958 99.6929 96.8136 100.11 96.8136 100.621V113.724C96.8129 114.235 96.3958 114.652 95.8863 114.652Z" fill="#454545"/>
<path d="M104.295 87.9128C104.361 87.415 104.396 86.9047 104.396 86.3858C104.396 84.0159 103.68 81.8412 102.486 80.1368C102.65 79.4524 102.74 78.732 102.74 77.9861C102.74 73.5819 99.6711 70.0112 95.8858 70.0112C92.1005 70.0112 89.0313 73.5819 89.0313 77.9861C89.0313 78.7313 89.1215 79.4517 89.2859 80.1368C88.0927 81.8412 87.3756 84.0159 87.3756 86.3858C87.3756 86.9047 87.4098 87.415 87.476 87.9128C85.3839 89.6994 84.0918 92.149 84.0918 94.852C84.0918 100.321 89.3724 104.753 95.8858 104.753C102.399 104.753 107.679 100.32 107.679 94.852C107.679 92.149 106.387 89.7001 104.295 87.9128Z" fill="#C0C0C0"/>
<path d="M104.296 87.9124C104.362 87.4146 104.396 86.9044 104.396 86.3854C104.396 84.0155 103.68 81.8409 102.486 80.1364C102.65 79.452 102.74 78.7316 102.74 77.9858C102.74 74.6642 100.994 71.8179 98.5123 70.6182C95.8857 87.0131 103.493 94.4636 92.0557 104.215C93.2568 104.562 94.5441 104.752 95.8857 104.752C102.399 104.752 107.68 100.318 107.68 94.8509C107.68 92.1486 106.388 89.6998 104.296 87.9124Z" fill="#9B9B9B"/>
<path d="M210.905 153.629C210.017 151.421 205.783 150.009 203.453 150.734C203.426 150.743 203.399 150.753 203.371 150.763L203.371 150.761C203.371 150.761 150.009 167.324 149.883 167.373L141.379 175.474L152.562 175.767C152.753 175.634 205.741 159.01 205.741 159.01C205.741 159.01 212.25 156.97 210.905 153.629Z" fill="#979797"/>
<path d="M204.865 157.734L152.249 174.269L150.747 168.84L201.785 152.768C209.4 150.433 209.337 155.841 204.865 157.734Z" fill="#3A0AB4"/>
<path d="M150.916 169.254C150.805 167.092 149.114 168.35 149.843 165.635L197.876 151.009C201.228 150.898 201.802 151.741 201.84 153.309L150.916 169.254Z" fill="#B22FF0"/>
<path d="M149.661 165.847L141.759 173.794L152.339 174.24C154.996 172.387 152.083 164.904 149.661 165.847Z" fill="#E1EAF4"/>
<path d="M149.745 165.706L141.842 173.654L153.023 168.955C152.334 166.925 150.976 165.226 149.745 165.706Z" fill="white"/>
<path d="M203.231 149.209C203.203 149.218 203.176 149.227 203.148 149.236L203.148 149.234L194.94 151.79C197.235 151.519 199.756 157.842 197.555 159.963L205.909 157.361L205.909 157.359C205.936 157.351 205.964 157.344 205.992 157.336C208.321 156.61 209.591 154.203 208.829 151.958C208.068 149.714 205.561 148.483 203.231 149.209Z" fill="white"/>
<path d="M205.911 157.362L205.91 157.36C205.937 157.352 205.965 157.345 205.993 157.336C208.26 156.63 209.317 153.885 208.678 151.693L197.849 154.768C197.849 154.768 199.269 158.465 197.557 159.964L205.911 157.362Z" fill="#EBF6FF"/>
<path d="M203.284 149.211C203.257 149.22 203.23 149.229 203.202 149.238L203.201 149.236L198.188 150.761C200.657 150.716 202.998 156.362 200.966 158.936L205.963 157.364L205.962 157.362C205.99 157.354 206.018 157.347 206.045 157.338C208.375 156.613 209.645 154.206 208.883 151.961C208.121 149.717 205.614 148.486 203.284 149.211Z" fill="#B22FF0"/>
<path d="M205.963 157.364L205.962 157.362C205.989 157.354 206.017 157.347 206.045 157.338C208.375 156.613 209.645 154.206 208.882 151.961C208.839 151.835 208.789 151.712 208.735 151.591L201.255 153.797C202.174 157.287 201.459 158.19 200.965 158.936L205.963 157.364Z" fill="#3A0AB4"/>
<path d="M141.156 173.947L145.238 170.293C146.974 170.92 147.718 172.166 147.466 174.034L141.156 173.947Z" fill="#454545"/>
<path d="M147.788 110.568L94.7129 142.631L104.632 147.971L97.8189 151.815L122.58 164.782L130.258 160.476L139.451 165.091L190.354 134.115L147.788 110.568Z" fill="#979797" fill-opacity="0.51"/>
<path d="M151.227 128.008L135.617 119.809L151.176 111.112L166.786 119.311L151.227 128.008Z" fill="#F5F5F5"/>
<path d="M147.793 116.586L146.672 121.059L157.717 119.908" stroke="#F5F5F5" stroke-width="15.571" stroke-linecap="round" stroke-linejoin="round"/>
<path d="M113.061 135.654L111.94 140.128L122.985 138.977" stroke="#D7D7D7" stroke-width="15.571" stroke-linecap="round" stroke-linejoin="round"/>
<path d="M97.8845 135.357L97.583 98.7465L112.214 89.7446L118.463 90.3123L142.353 112.277L142.735 158.836L134.143 154.335V154.352L97.8845 135.357Z" fill="#C0C0C0"/>
<path d="M142.353 112.322L148.363 108.691L148.362 108.567L148.872 108.382L173.417 100.709L174.665 99.4653L188.608 101.129L188.3 131.346L153.321 152.482L153.32 152.439L142.735 158.836L142.353 112.322Z" fill="#9B9B9B"/>
<path d="M142.745 160.039L142.704 155.073L97.8535 131.604L97.8702 136.549L142.745 160.039Z" fill="#454545"/>
<path d="M142.744 160.038L142.704 155.073L188.341 127.525L188.3 132.53L142.744 160.038Z" fill="#454545"/>
<path d="M149.042 70.6304L149.397 94.2497" stroke="#093373" stroke-width="2.875" stroke-linecap="round" stroke-linejoin="round"/>
<path d="M154.29 139.154L162.176 134.389L162.073 121.895L154.188 126.659L154.29 139.154Z" fill="#454545"/>
<path d="M154.29 139.154L154.188 126.66L160.696 122.728L160.798 135.222L154.29 139.154Z" fill="white"/>
<path d="M154.277 137.39L154.199 127.958L159.112 124.989L159.19 134.421L154.277 137.39Z" fill="#B22FF0"/>
<path d="M171.638 129.001L179.523 124.236L179.42 111.741L171.535 116.506L171.638 129.001Z" fill="#454545"/>
<path d="M171.638 129.001L171.535 116.506L178.043 112.574L178.146 125.067L171.638 129.001Z" fill="white"/>
<path d="M171.624 127.237L171.546 117.804L176.459 114.835L176.537 124.267L171.624 127.237Z" fill="#B22FF0"/>
<path d="M108.501 127.193L100.542 123.024L100.439 110.529L108.398 114.698L108.501 127.193Z" fill="#454545"/>
<path d="M108.501 127.193L108.397 114.698L101.829 111.257L101.932 123.752L108.501 127.193Z" fill="white"/>
<path d="M108.486 125.429L108.408 115.996L103.449 113.398L103.527 122.831L108.486 125.429Z" fill="#B22FF0"/>
<path d="M136.014 140.258L128.056 136.088L127.953 123.593L135.911 127.762L136.014 140.258Z" fill="#454545"/>
<path d="M136.014 140.257L135.912 127.763L129.343 124.321L129.446 136.816L136.014 140.257Z" fill="white"/>
<path d="M135.999 138.493L135.921 129.061L130.963 126.463L131.04 135.896L135.999 138.493Z" fill="#B22FF0"/>
<path d="M112.69 115.82L112.893 140.458L122.142 145.304V145.283L124.347 146.439L124.145 121.8L112.69 115.82Z" fill="#454545"/>
<path d="M116.058 142.116L122.143 145.304V145.283L124.348 146.439L124.146 121.8L115.855 117.472L116.058 142.116Z" fill="white"/>
<path d="M123.382 129.481L117.901 126.609L117.853 120.707L123.334 123.579L123.382 129.481Z" fill="#B22FF0"/>
<path d="M116.895 132.021C116.678 131.913 116.498 131.651 116.497 131.44L116.482 129.744C116.481 129.533 116.657 129.449 116.874 129.557C117.092 129.666 117.271 129.927 117.273 130.138L117.287 131.834C117.289 132.046 117.112 132.13 116.895 132.021Z" fill="#CBCBCB"/>
<path d="M99.5332 143.106L99.5714 147.784L122.116 159.595L131.541 153.9L131.503 149.221L99.5332 143.106Z" fill="#454545"/>
<path d="M131.503 149.221L108.958 137.411L99.5332 143.106L122.077 154.917L131.503 149.221Z" fill="#B22FF0"/>
<path d="M161.602 64.6191L188.594 100.139L142.959 127.165L116.427 90.3723L161.602 64.6191Z" fill="url(#paint1_linear_7132_16946)"/>
<path d="M116.425 90.3723L90.6475 101.95L102.134 94.1445L144.606 71.0245L161.601 64.6191L116.425 90.3723Z" fill="#B22FF0"/>
<path d="M188.594 100.139L142.956 127.163L116.426 90.3721L116.021 92.0554L142.365 127.965C142.689 128.408 143.296 128.533 143.77 128.255L187.7 102.426C188.262 102.097 188.604 101.492 188.598 100.84L188.594 100.139Z" fill="#3A0AB4"/>
<path d="M116.439 91.8616L91.7391 102.658C91.2268 102.882 90.6518 102.51 90.6475 101.949L116.425 90.3721L116.439 91.8616Z" fill="#3A0AB4"/>
<path d="M116.214 91.2808L141.407 76.2954" stroke="#3A0AB4" stroke-width="2.875" stroke-linecap="round" stroke-linejoin="round"/>
<path d="M185.346 151.359C189.742 151.359 193.306 149.443 193.306 147.081C193.306 144.718 189.742 142.803 185.346 142.803C180.949 142.803 177.385 144.718 177.385 147.081C177.385 149.443 180.949 151.359 185.346 151.359Z" fill="#D7D7D7"/>
<path d="M185.345 144.108C184.836 144.108 184.418 143.691 184.418 143.18V130.077C184.418 129.567 184.835 129.148 185.345 129.148C185.855 129.148 186.273 129.566 186.273 130.077V143.18C186.272 143.691 185.855 144.108 185.345 144.108Z" fill="#454545"/>
<path d="M193.754 117.368C193.82 116.871 193.855 116.36 193.855 115.841C193.855 113.471 193.139 111.297 191.945 109.592C192.109 108.908 192.199 108.188 192.199 107.442C192.199 103.038 189.13 99.4668 185.345 99.4668C181.56 99.4668 178.49 103.038 178.49 107.442C178.49 108.187 178.58 108.907 178.745 109.592C177.552 111.297 176.835 113.471 176.835 115.841C176.835 116.36 176.869 116.871 176.935 117.368C174.843 119.155 173.551 121.605 173.551 124.308C173.551 129.776 178.831 134.209 185.345 134.209C191.858 134.209 197.138 129.775 197.138 124.308C197.138 121.605 195.846 119.156 193.754 117.368Z" fill="#C0C0C0"/>
<path d="M193.754 117.368C193.821 116.87 193.855 116.36 193.855 115.841C193.855 113.471 193.139 111.296 191.945 109.592C192.109 108.908 192.199 108.187 192.199 107.441C192.199 104.12 190.453 101.273 187.971 100.074C185.345 116.469 192.952 123.919 181.515 133.671C182.716 134.017 184.003 134.208 185.345 134.208C191.858 134.208 197.139 129.774 197.139 124.306C197.139 121.604 195.847 119.155 193.754 117.368Z" fill="#9B9B9B"/>
<path d="M153.244 95.1792C154.07 93.3929 152.966 91.1224 150.778 90.1076C148.589 89.0931 146.145 89.7183 145.318 91.5046C144.492 93.2909 145.596 95.5614 147.784 96.5762C149.973 97.5907 152.417 96.9655 153.244 95.1792Z" fill="#3A0AB4"/>
<path d="M146.142 48.976C141.492 51.6598 137.719 58.191 137.716 63.564C137.713 68.937 141.48 71.1171 146.13 68.4333C150.781 65.7495 154.553 59.218 154.556 53.845C154.557 52.7213 154.741 50.1768 154.438 49.3477C154.438 49.3477 154.004 49.0891 152.701 48.4789C150.747 47.8273 148.445 47.6472 146.142 48.976ZM147.402 56.0938C147.161 55.2902 147.365 54.1119 148.009 52.9955C148.672 51.8489 149.623 51.0747 150.455 50.9085C150.921 52.6668 148.667 55.9444 147.402 56.0938Z" fill="#9B9B9B"/>
<path d="M149.043 91.0378L149.277 56.8926L142.996 60.5171L142.98 84.679L145.443 88.7312L149.043 91.0378Z" fill="#9B9B9B"/>
<path d="M152.182 89.5682L152.203 58.0918L145.922 61.7163L145.906 85.8785L149.042 91.0377L152.182 89.5682Z" fill="#C0C0C0"/>
<path d="M149.068 50.1753C144.417 52.8591 140.645 59.3907 140.642 64.7636C140.638 70.1366 144.405 72.3167 149.055 69.6326C153.706 66.9488 157.478 60.4176 157.482 55.0446C157.485 49.6717 153.717 47.4916 149.068 50.1753ZM151.394 54.9552C150.456 56.5793 148.938 57.4571 148.003 56.916C147.067 56.3749 147.07 54.6203 148.008 52.9962C148.946 51.3721 150.464 50.4946 151.399 51.0357C152.335 51.5769 152.332 53.3311 151.394 54.9552Z" fill="#C0C0C0"/>
<path d="M152.052 52.0648C152.204 52.8561 151.986 53.9317 151.394 54.9554C150.457 56.5795 148.938 57.4574 148.003 56.9163C147.392 56.5628 147.184 55.6893 147.373 54.6743C145.183 56.965 143.637 60.3368 143.635 63.2355C143.632 67.0527 146.309 68.6012 149.613 66.6953C152.917 64.7883 155.597 60.1484 155.6 56.3311C155.602 53.5128 154.144 51.9331 152.052 52.0648Z" fill="#C0C0C0"/>
<path d="M145.658 56.8923C144.418 58.8735 143.635 61.1736 143.635 63.2351C143.632 67.0524 146.309 68.6008 149.613 66.6949C152.917 64.7883 155.597 60.1481 155.6 56.3308C155.601 55.1649 155.351 54.21 154.91 53.502" stroke="#B22FF0" stroke-width="2" stroke-linecap="round" stroke-linejoin="round"/>
<path d="M150.511 66.3804L150.866 89.9996" stroke="#B22FF0" stroke-width="2" stroke-linecap="round" stroke-linejoin="round"/>
<path d="M81.34 142.736C81.34 142.736 84.5591 148.079 84.9009 151.453C84.9009 151.453 84.1274 153.336 83.4543 151.713C81.8117 147.752 80.652 144.351 79.4025 143.027C78.1537 141.703 81.34 142.736 81.34 142.736Z" fill="#FFC998"/>
<g opacity="0.16">
<path opacity="0.16" d="M77.7931 177.116C81.0249 176.929 83.5698 175.475 83.477 173.868C83.3847 172.261 80.6896 171.11 77.4578 171.297C74.2261 171.483 71.6812 172.937 71.7739 174.544C71.8663 176.151 74.5613 177.302 77.7931 177.116Z" fill="#50555C"/>
</g>
<path d="M75.9189 175.572L74.6639 172.969C74.4599 172.748 73.9093 172.58 73.5042 172.581C73.322 172.581 73.1402 172.74 73.0678 172.952L72.9115 173.411C72.6667 174.069 72.6889 174.173 72.9584 174.464L74.5577 176.193C74.8272 176.484 75.3316 176.593 75.6792 176.435L75.7774 176.39C76.1236 176.231 76.188 175.864 75.9189 175.572Z" fill="#454545"/>
<path d="M73.0255 172.975C73.0514 173.603 74.6242 173.714 74.5983 173.085L74.5165 171.042L72.9434 170.932L73.0255 172.975Z" fill="white"/>
<path d="M81.7943 172.984L79.1421 171.24C78.8036 171.123 78.3956 171.092 77.9257 171.22C77.7148 171.277 77.6795 171.119 77.6926 171.316L77.5268 171.962C77.3235 172.518 77.849 173.014 78.4832 173.22L80.5011 173.921C80.9473 174.075 81.5823 174.006 81.9125 173.768L82.0059 173.7C82.3365 173.462 82.2408 173.139 81.7943 172.984Z" fill="#454545"/>
<path d="M77.7 171.468C77.7229 172.117 79.2994 172.06 79.2765 171.412L79.2005 169.304L77.624 169.361L77.7 171.468Z" fill="white"/>
<path d="M77.4014 170.842C78.0415 171.269 79.0626 171.222 79.3772 170.688C80.2125 164.187 80.398 157.595 79.9863 150.92L75.0166 149.625C76.2887 157.611 77.6847 164.668 77.4014 170.842Z" fill="#50555C"/>
<path d="M72.6586 171.788C73.1314 172.541 74.4642 172.473 74.8118 171.979L77.389 150.609L72.1299 150.4L72.6586 171.788Z" fill="#50555C"/>
<path d="M76.3105 158.008L76.7422 159.978L77.7281 153.994C77.4884 154.077 77.4735 153.778 77.2033 153.836L76.3105 158.008Z" fill="#50555C"/>
<path d="M73.0824 145.221C71.9608 146.651 71.4052 147.346 70.5539 149.282C69.9967 150.549 70.3004 151.615 70.8437 152.274C71.587 153.175 72.4412 154.188 72.4412 154.188L71.5608 155.05C71.5608 155.05 68.1447 152.33 68.5792 149.705L70.312 143.461L73.0824 145.221Z" fill="#FFC998"/>
<path d="M71.6627 154.451L71.8049 154.307C72.066 154.042 72.5202 154.062 72.814 154.351L73.4155 154.945C73.709 155.235 73.7344 155.689 73.473 155.954L73.3308 156.098C73.0693 156.363 72.6147 156.343 72.3213 156.054L71.7198 155.46C71.426 155.171 71.4001 154.716 71.6627 154.451Z" fill="#FFC998"/>
<path d="M79.7523 139.249C81.4036 141.698 82.9942 144.165 83.2248 145.872C82.8662 147.32 82.4422 146.539 81.4542 146.93L78.2686 141.775L79.0388 140.369L79.7523 139.249Z" fill="#3A0AB4"/>
<path d="M80.3497 151.235C80.338 148.753 80.3213 146.45 80.6755 143.356C80.6551 139.073 79.031 137.496 76.3407 138.493L75.2291 138.795C71.9842 140.565 70.3317 140.484 70.9307 143.928L71.5365 151.478C71.5551 155.367 80.5791 155.805 80.3497 151.235Z" fill="#3A0AB4"/>
<path d="M73.0738 144.956L71.6985 150.792L71.5334 151.359L71.3145 148.551L73.0738 144.956Z" fill="#270579"/>
<path d="M73.3304 144.269L70.484 150.18C70.2553 150.539 68.4589 150.055 68.457 149.436C68.4545 148.141 70.2386 141.352 72.1372 140.443C73.6802 139.705 74.1748 142.164 73.3304 144.269Z" fill="#3A0AB4"/>
<path d="M84.1604 153.7C84.5411 153.576 84.7502 153.161 84.6258 152.78L84.0898 151.14C83.9651 150.758 83.5509 150.549 83.1701 150.673C82.7897 150.798 82.5803 151.213 82.705 151.594L83.241 153.233C83.3654 153.615 83.7796 153.825 84.1604 153.7Z" fill="#FFC998"/>
<path d="M84.8369 152.513C85.2078 152.361 85.3871 151.933 85.2351 151.562L84.5824 149.964C84.4303 149.593 84.0031 149.414 83.631 149.566C83.2601 149.718 83.0808 150.146 83.2328 150.517L83.8856 152.115C84.0376 152.486 84.4649 152.665 84.8369 152.513Z" fill="#FFC998"/>
<path d="M84.5048 152.409L83.1865 153.066L83.5309 153.795L84.9361 152.987L84.5048 152.409Z" fill="#DEE5FF"/>
<path d="M92.7001 152.777C92.7001 152.777 90.9967 159.06 87.6275 157.763C84.8797 156.704 83.3291 153.765 83.3291 153.765L85.1245 152.894C85.1245 152.894 87.7351 155.31 88.5563 155.141C90.4207 154.758 90.2407 150.644 91.5273 150.292C92.2604 150.092 92.7001 152.777 92.7001 152.777Z" fill="#B22FF0"/>
<path d="M70.353 149.509C70.353 149.509 70.8203 149.828 70.6076 150.309C70.3944 150.791 68.0296 150.575 68.1743 149.81C68.3191 149.043 68.4456 148.711 70.353 149.509Z" fill="white"/>
<path d="M81.9281 147.287C81.5677 147.379 81.1895 147.16 81.1102 146.796C81.1091 146.791 81.1077 146.786 81.1066 146.781C80.9997 146.266 83.0496 145.065 83.3765 145.773C83.6827 146.436 83.6103 146.856 81.9281 147.287Z" fill="white"/>
<path d="M76.9449 138.65C76.9449 138.65 76.5918 139.11 76.3878 139.19C76.1838 139.271 73.588 137.818 74.059 135.61C74.3575 134.211 77.0042 134.813 77.0042 134.813L76.9449 138.65Z" fill="#454545"/>
<path d="M75.5631 140.586L74.9846 139.927C75.4155 140.031 76.5788 140.219 76.6828 139.788L77.2509 137.593C77.3549 137.161 77.0883 136.724 76.6574 136.619L76.5301 136.589C76.0992 136.484 75.6621 136.751 75.5577 137.182L74.6489 139.435C74.5446 139.865 75.1319 140.482 75.5631 140.586Z" fill="#FFC998"/>
<path d="M76.9334 138.904C76.9334 138.904 75.8763 138.854 75.2588 137.793C75.2588 137.793 75.8152 139.384 76.769 139.583L76.9334 138.904Z" fill="#ECA738"/>
<path d="M72.3848 156.854C72.3848 156.854 73.6001 154.525 73.6106 154.292C73.6106 154.292 74.1474 155.466 73.6776 156.145C73.207 156.824 72.3848 156.854 72.3848 156.854Z" fill="#50555C"/>
<path d="M99.7601 149.578C101.124 151.818 101.602 153.374 102.082 155.92C102.185 156.469 102.221 156.795 102.057 157.323C101.513 159.081 100.957 159.144 100.683 160.986C100.545 161.916 99.3946 161.419 99.5343 160.48C99.7885 158.769 99.8052 159.116 100.411 157.493C100.525 157.187 100.648 156.886 100.778 156.586C100.66 156.861 100.797 157.071 100.749 156.82C100.72 156.664 100.694 156.506 100.664 156.349C100.208 153.897 99.7168 151.174 98.4055 149.02C97.9098 148.206 99.2128 147.512 99.7045 148.321L99.7601 149.578Z" fill="#B22FF0"/>
<path d="M100.098 148.916C101.012 150.651 101.615 153.552 102.173 155.903C102.393 156.553 102.219 157.129 101.814 157.089L100.45 157.228C100.117 157.194 99.5052 156.447 99.3685 155.904L97.8601 149.924C97.6146 148.951 97.851 148.13 98.4066 148.026L97.127 147.019C97.2364 146.667 99.5751 147.138 100.098 148.916Z" fill="#B22FF0"/>
<path d="M95.1532 159.532L101.819 163.711C102.146 163.916 102.572 163.69 102.585 163.304L102.755 158.559C102.762 158.38 102.672 158.212 102.52 158.116L95.8543 153.937C95.5278 153.732 95.1019 153.958 95.0888 154.344L94.9183 159.089C94.9121 159.269 95.0012 159.437 95.1532 159.532Z" fill="#454545"/>
<path d="M98.7272 162.723L99.2149 162.965C99.5894 163.15 100.048 162.997 100.234 162.622C100.42 162.247 100.266 161.788 99.8912 161.602L99.404 161.359C99.0294 161.174 98.5712 161.328 98.3846 161.702C98.1984 162.077 98.353 162.536 98.7272 162.723Z" fill="#FFC998"/>
<g opacity="0.16">
<path opacity="0.16" d="M94.4292 184.16C97.5839 184.102 100.118 182.783 100.089 181.215C100.061 179.645 97.4799 178.421 94.3252 178.479C91.1705 178.536 88.6366 179.855 88.6653 181.424C88.694 182.993 91.2745 184.218 94.4292 184.16Z" fill="#50555C"/>
</g>
<path d="M98.119 178.832L96.7793 178.613C95.8935 178.172 95.4836 177.85 95.0749 178.067L94.9592 178.129C94.5494 178.347 94.5854 178.758 95.0385 179.042L96.9593 180.689C97.4124 180.974 98.0397 180.912 98.4212 180.6C98.4212 180.6 98.65 180.408 98.5219 179.56C98.4503 179.076 98.4819 179.06 98.119 178.832Z" fill="#454545"/>
<path d="M92.1426 181.313L90.8072 181.728C89.7861 181.743 89.2592 181.647 88.9824 182.022L88.9039 182.129C88.6286 182.504 88.8526 182.847 89.4028 182.892L92.2538 183.475C92.8041 183.519 93.0382 183.168 93.2437 182.722C93.2437 182.722 93.3703 182.172 93.0892 181.573C92.8826 181.132 92.5822 181.348 92.1426 181.313Z" fill="#454545"/>
<path d="M91.5491 181.756C91.5262 182.386 93.0582 182.442 93.0812 181.811L93.1546 179.761L91.6222 179.707L91.5491 181.756Z" fill="white"/>
<path d="M91.403 180.454C91.5674 181.259 93.1631 181.258 93.4918 180.753C93.6373 173.856 94.7333 166.727 96.732 159.499L91.2026 159.3C90.9208 166.369 90.9375 173.423 91.403 180.454Z" fill="#50555C"/>
<path d="M96.8731 178.913C96.8873 179.485 98.4193 179.54 98.4052 178.968L98.3586 177.108L96.8262 177.053L96.8731 178.913Z" fill="white"/>
<path d="M96.6025 178.077C97.1916 178.73 98.4059 178.504 98.6542 178.057L98.5059 159.543L94.6348 159.975L96.6025 178.077Z" fill="#50555C"/>
<path d="M93.4587 145.112C93.886 146.423 94.8831 146.761 95.6857 145.865C96.4886 144.97 96.7934 143.182 96.3661 141.871C95.9384 140.56 94.4787 141.457 93.6758 142.352C92.8728 143.248 93.031 143.802 93.4587 145.112Z" fill="#FFC998"/>
<path d="M92.3345 145.157C92.6665 146.495 94.068 147.025 94.9328 146.19C95.7972 145.355 96.23 143.594 95.8972 142.255C95.5652 140.917 94.5946 140.508 93.7299 141.344C92.8651 142.179 92.0025 143.818 92.3345 145.157Z" fill="#FFC998"/>
<path d="M95.4062 149.094L95.5491 149.068C96.0324 148.978 96.3539 148.509 96.2644 148.026L95.7593 145.3C95.6691 144.817 95.2011 144.495 94.7182 144.584L94.5749 144.611C94.0919 144.701 93.7705 145.169 93.8596 145.653L93.9614 148.344C94.0505 148.827 94.924 149.184 95.4062 149.094Z" fill="#FFC998"/>
<path d="M97.1465 145.529C97.1465 145.529 96.9585 146.772 95.1959 146.458C93.9311 146.233 94.3762 144.177 93.1132 143.923C91.7241 143.645 91.5324 141.908 92.1074 141.264C92.6812 140.62 94.2329 140.329 95.3308 140.861C96.4287 141.393 98.1473 141.428 97.1465 145.529Z" fill="#454545"/>
<path d="M93.9708 145.02C94.2628 144.856 94.3664 144.486 94.2021 144.193C94.0377 143.901 93.6679 143.797 93.3758 143.962C93.0835 144.126 92.9802 144.497 93.1446 144.789C93.3089 145.081 93.6788 145.185 93.9708 145.02Z" fill="#FFC998"/>
<path d="M98.6757 159.286C98.3128 156.788 99.3055 155.128 99.3612 152.488C99.7339 148.092 98.3579 146.837 96.8316 146.941C96.8316 146.941 95.4425 147.298 95.1253 147.447C91.7616 149.032 90.8608 149.526 90.935 151.506C90.8033 154.761 91.1513 158.429 91.1626 160.032C91.7623 162.308 97.8622 160.87 98.6757 159.286Z" fill="#B22FF0"/>
<path d="M93.895 146.589L94.0506 146.262C94.0506 146.262 93.7855 146.509 93.3008 146.429C93.3008 146.429 93.5823 146.604 93.895 146.589Z" fill="#ECA738"/>
<path d="M95.2783 166.165L96.986 163.889L95.3365 164.545L95.2783 166.165Z" fill="#303030"/>
<path d="M76.8325 141.959C76.5136 142.037 76.195 141.862 76.1234 141.572L75.9256 140.769C75.8539 140.479 76.0561 140.178 76.375 140.101C76.694 140.023 77.0129 140.197 77.0842 140.487L77.282 141.29C77.3536 141.58 77.1514 141.881 76.8325 141.959Z" fill="white"/>
<path d="M76.3935 141.794C76.6717 143.316 76.4862 145.271 76.3848 147.202L77.6528 148.029L78.3038 146.809C78.1641 144.944 77.779 143.138 77.2317 141.527L76.3935 141.794Z" fill="white"/>
<path d="M74.9822 138.61L73.9072 139.459C73.9072 139.459 74.7287 140.904 75.6771 141.125L76.3943 139.991C76.3943 139.992 75.2826 139.53 74.9822 138.61Z" fill="white"/>
<path d="M77.0592 138.069L77.9582 138.503C77.9582 138.503 78.3495 140.485 77.3992 140.878L76.2617 139.996C76.2624 139.996 77.113 139.572 77.0592 138.069Z" fill="white"/>
<path d="M79.0544 136.443C79.0995 135.055 78.4991 133.909 77.7132 133.883C76.9274 133.858 76.2535 134.962 76.2084 136.35C76.1633 137.738 76.7637 138.883 77.5496 138.909C78.3355 138.935 79.0093 137.83 79.0544 136.443Z" fill="#FFC998"/>
<path d="M75.2004 137.637C75.6411 138.756 77.5921 139.443 78.2438 138.621C78.8965 137.8 78.3896 135.838 77.9496 134.718C77.5099 133.599 76.623 133.358 75.9706 134.179C75.3178 135.001 74.7596 136.517 75.2004 137.637Z" fill="#FFC998"/>
<path d="M76.4881 134.911C76.4881 134.911 76.7459 137.127 74.9921 137.629C74.9921 137.629 73.0101 136.489 74.4578 134.352C75.7339 132.468 77.7907 133.893 77.7907 133.893L76.4881 134.911Z" fill="#454545"/>
<path d="M79.051 136.398C79.051 136.398 78.8143 135.449 77.6582 135.05L78.567 134.504C78.5681 134.504 79.499 134.714 79.051 136.398Z" fill="#454545"/>
<path d="M75.5745 136.215C75.9578 135.696 76.7811 135.7 77.9521 136.119C78.1306 136.183 78.3223 136.213 78.5077 136.174C79.3765 135.992 79.5056 134.912 79.5056 134.912C79.6918 134.19 79.2132 133.865 78.4917 133.679L76.6124 133.194C75.5491 132.913 74.521 133.79 74.3355 134.513L74.2868 134.632C74.0995 135.353 74.853 136.029 75.5745 136.215Z" fill="#454545"/>
<path d="M74.7969 137.56C74.9039 137.832 75.2111 137.966 75.4831 137.859C75.7552 137.752 75.8886 137.444 75.7817 137.172C75.6748 136.899 75.3675 136.766 75.0955 136.873C74.8235 136.981 74.6893 137.288 74.7969 137.56Z" fill="#FFC998"/>
<defs>
<linearGradient id="paint0_linear_7132_16946" x1="117.083" y1="153.723" x2="291.802" y2="-44.3762" gradientUnits="userSpaceOnUse">
<stop offset="0.03" stop-color="#C034F8"/>
<stop offset="0.52" stop-color="#6C1ACE"/>
<stop offset="1" stop-color="#1700A3"/>
</linearGradient>
<linearGradient id="paint1_linear_7132_16946" x1="119.265" y1="-24.0592" x2="218.003" y2="-106.748" gradientUnits="userSpaceOnUse">
<stop offset="0.03" stop-color="#C034F8"/>
<stop offset="0.52" stop-color="#6C1ACE"/>
<stop offset="1" stop-color="#1700A3"/>
</linearGradient>
</defs>
</svg>
