<svg width="284" height="284" viewBox="0 0 284 284" fill="none" xmlns="http://www.w3.org/2000/svg">
<path d="M142 0C220.424 0 284 63.5756 284 142C284 220.424 220.424 284 142 284C63.5756 284 0 220.424 0 142C0 63.5756 63.5756 0 142 0Z" fill="#3097BF"/>
<path d="M203.318 237.413C203.318 237.413 199.32 233.297 200.695 230.953C202.07 228.61 204.394 235.984 204.394 235.984C204.394 235.984 203.191 227.262 205.688 227.108C208.185 226.954 205.688 235.984 205.688 235.984C205.688 235.984 206.611 233.876 207.515 233.749C208.42 233.623 208.157 235.532 206.547 237.404H203.318V237.413Z" fill="#F9C7BB"/>
<path d="M203.598 237.513C203.589 237.504 202.441 236.319 201.509 234.826C200.233 232.79 199.926 231.171 200.604 230.013C200.858 229.578 201.156 229.379 201.509 229.424C202.205 229.506 202.992 230.573 203.915 232.691C204.186 233.324 204.431 233.957 204.63 234.482C204.413 232.193 204.15 227.642 205.408 226.113C205.679 225.787 206.005 225.606 206.385 225.579C206.755 225.552 207.054 225.688 207.28 225.968C208.411 227.362 207.398 232.311 206.837 234.627C207.253 233.948 207.841 233.197 208.438 233.107C208.718 233.062 208.945 233.17 209.071 233.405C209.442 234.075 208.945 235.794 207.47 237.504L207.244 237.314C208.691 235.631 209.08 234.048 208.809 233.55C208.736 233.423 208.637 233.378 208.474 233.405C207.705 233.514 206.801 235.215 206.52 235.857L206.24 235.758C206.258 235.676 208.402 227.841 207.045 226.158C206.873 225.95 206.665 225.86 206.394 225.878C206.095 225.896 205.851 226.032 205.625 226.303C204.042 228.23 205.055 235.703 205.064 235.785L204.774 235.848C204.25 234.193 202.64 229.859 201.464 229.723C201.237 229.696 201.038 229.841 200.849 230.166C199.365 232.7 203.752 237.269 203.797 237.314L203.598 237.513Z" fill="#44393D"/>
<path d="M131.295 249.99C131.295 249.99 127.297 245.873 128.672 243.53C130.047 241.186 132.371 248.56 132.371 248.56C132.371 248.56 131.168 239.838 133.665 239.684C136.162 239.531 133.665 248.56 133.665 248.56C133.665 248.56 134.588 246.452 135.492 246.325C136.397 246.199 136.134 248.108 134.524 249.981H131.295V249.99Z" fill="#F9C7BB"/>
<path d="M131.575 250.089C131.566 250.08 130.418 248.895 129.486 247.402C128.21 245.366 127.903 243.747 128.581 242.589C128.835 242.154 129.133 241.964 129.486 242.001C130.182 242.082 130.969 243.15 131.892 245.267C132.163 245.9 132.408 246.533 132.607 247.058C132.39 244.769 132.127 240.218 133.385 238.689C133.656 238.363 133.982 238.183 134.362 238.155C134.732 238.128 135.031 238.264 135.257 238.544C136.388 239.938 135.375 244.887 134.814 247.203C135.23 246.524 135.818 245.773 136.415 245.683C136.695 245.638 136.922 245.746 137.048 245.982C137.419 246.651 136.922 248.37 135.447 250.08L135.221 249.89C136.668 248.207 137.057 246.624 136.786 246.126C136.714 246 136.614 245.954 136.451 245.982C135.673 246.09 134.778 247.791 134.497 248.433L134.217 248.334C134.235 248.253 136.379 240.417 135.022 238.734C134.85 238.526 134.642 238.436 134.371 238.454C134.072 238.472 133.828 238.608 133.602 238.879C132.019 240.806 133.032 248.28 133.041 248.361L132.751 248.424C132.227 246.769 130.617 242.435 129.441 242.299C129.215 242.272 129.016 242.417 128.826 242.743C127.342 245.276 131.729 249.845 131.774 249.89L131.575 250.089Z" fill="#44393D"/>
<path d="M155.755 235.342C155.755 235.342 151.757 231.225 153.132 228.882C154.507 226.538 156.831 233.912 156.831 233.912C156.831 233.912 155.628 225.19 158.125 225.036C160.622 224.883 158.125 233.912 158.125 233.912C158.125 233.912 159.048 231.804 159.952 231.677C160.857 231.551 160.594 233.46 158.984 235.333H155.755V235.342Z" fill="#F9C7BB"/>
<path d="M156.044 235.45C156.035 235.441 154.886 234.256 153.955 232.763C152.679 230.727 152.372 229.108 153.05 227.95C153.303 227.515 153.602 227.325 153.955 227.362C154.651 227.443 155.438 228.511 156.361 230.628C156.632 231.261 156.876 231.894 157.075 232.419C156.858 230.13 156.596 225.579 157.853 224.05C158.125 223.724 158.45 223.543 158.83 223.516C159.201 223.489 159.5 223.625 159.726 223.905C160.857 225.299 159.844 230.248 159.283 232.564C159.699 231.885 160.287 231.134 160.884 231.044C161.164 230.999 161.39 231.107 161.517 231.343C161.888 232.012 161.39 233.731 159.916 235.441L159.69 235.251C161.137 233.568 161.526 231.985 161.255 231.487C161.182 231.361 161.083 231.315 160.92 231.343C160.142 231.451 159.246 233.152 158.966 233.794L158.686 233.695C158.704 233.613 160.848 225.778 159.491 224.095C159.319 223.887 159.111 223.797 158.839 223.815C158.541 223.833 158.297 223.969 158.071 224.24C156.487 226.167 157.501 233.641 157.51 233.722L157.22 233.785C156.696 232.13 155.085 227.796 153.909 227.66C153.683 227.633 153.484 227.778 153.294 228.103C151.811 230.637 156.198 235.206 156.243 235.251L156.044 235.45Z" fill="#44393D"/>
<path d="M68.2997 235.93L59.661 235.875C54.4867 236.509 50 231.514 50 225.118V71.1454C50 64.7758 54.4506 59.7815 59.6067 60.3787H70.2898C74.8037 60.8944 139.572 73.8596 139.572 79.442V216.251C139.572 221.797 72.7955 235.378 68.2997 235.93Z" fill="#01764A"/>
<path d="M142.34 227.009L70.3441 235.875C65.1698 236.509 60.6831 231.514 60.6831 225.118V71.1454C60.6831 64.7758 65.1337 59.7815 70.2898 60.3787L142.286 68.6754C146.8 69.1911 150.255 73.8596 150.255 79.442V216.251C150.255 221.797 146.836 226.448 142.34 227.009Z" fill="#01764A"/>
<path d="M145.922 81.9211V205.702C145.922 210.723 142.901 214.93 138.93 215.428L119.083 217.925L107.74 219.363L102.81 219.979L100.105 220.323L88.9426 221.725L75.3557 223.435C70.7785 224.014 66.8164 219.499 66.8164 213.709V74.4297C66.8164 68.6573 70.7513 64.1425 75.3105 64.6854L124.393 70.4668L138.894 72.1768C142.34 72.584 145.072 75.7778 145.769 79.8944C145.859 80.5549 145.922 81.2335 145.922 81.9211Z" fill="#4DB45F"/>
<path d="M69.4665 236.02C67.6121 236.02 65.8029 235.305 64.2923 233.966C61.9765 231.922 60.6016 228.61 60.6016 225.109V71.1454C60.6016 67.6621 61.9765 64.3597 64.2651 62.3149C66.011 60.7587 68.1548 60.044 70.2987 60.2882L70.2806 60.4692C68.182 60.2249 66.0833 60.9306 64.3827 62.4506C62.1213 64.4682 60.7734 67.7163 60.7734 71.1454V225.118C60.7734 228.565 62.1303 231.822 64.4099 233.84C66.1286 235.36 68.2272 236.047 70.3349 235.794L70.353 235.975C70.0635 236.002 69.765 236.02 69.4665 236.02Z" fill="#30262A"/>
<path d="M182.395 64.0882L166.71 61.0121C163.444 60.3697 160.278 62.4959 159.645 65.7621L156.569 81.4506C155.927 84.7168 158.062 87.8835 161.318 88.5168L165.289 89.2949C166.076 89.4487 166.655 90.1002 166.728 90.8964L167.433 98.8854L171.305 91.7559C171.676 91.0683 172.454 90.7064 173.223 90.8511L177.004 91.593C180.269 92.2354 183.435 90.1092 184.069 86.843L187.144 71.1544C187.786 67.8973 185.661 64.7306 182.395 64.0882Z" fill="#4DB45F"/>
<path d="M161.228 77.8587C163.516 74.9816 167.605 71.3716 173.286 72.3397C173.593 72.394 173.883 72.1949 173.964 71.8963L174.706 69.2002C174.851 68.6844 175.538 68.5849 175.819 69.0463L181.065 77.5782C181.264 77.904 181.12 78.3292 180.767 78.4649L172.635 81.6044C172.182 81.7763 171.721 81.3873 171.82 80.9078L172.345 78.3925C172.417 78.0578 172.191 77.723 171.857 77.6687C170.237 77.3792 165.724 76.8273 162.006 78.7816C161.409 79.0802 160.821 78.3744 161.228 77.8587Z" fill="#F7F0F7"/>
<path d="M222.468 54.6063L210.075 51.1773C207.497 50.4625 204.829 51.9735 204.114 54.552L200.686 66.9473C199.971 69.5259 201.482 72.1949 204.06 72.9097L207.199 73.7782C207.814 73.9501 208.248 74.5111 208.257 75.1535L208.329 81.6044L211.875 76.1216C212.219 75.5968 212.861 75.3435 213.467 75.5154L216.462 76.3387C219.04 77.0535 221.708 75.5425 222.423 72.9639L225.851 60.5687C226.566 57.9811 225.055 55.312 222.468 54.6063Z" fill="#01764A"/>
<path d="M218.461 60.3787C218.94 58.6416 217.927 56.8502 216.19 56.3706C214.453 55.8911 212.662 56.9044 212.183 58.6416C211.703 60.3787 212.717 62.1702 214.453 62.6497C216.19 63.1383 217.981 62.1159 218.461 60.3787Z" fill="#F7F0F7"/>
<path d="M206.457 69.2906L217.9 72.4573C219.402 72.8735 220.822 71.5435 220.496 70.0145C220.026 67.834 218.524 65.1106 214.11 63.8892C209.695 62.6678 207.009 64.224 205.489 65.8616C204.422 67.0106 204.955 68.8744 206.457 69.2906Z" fill="#F7F0F7"/>
<path d="M208.745 56.8773L208.311 58.922C208.266 59.112 208.393 59.302 208.592 59.3473L210.527 59.7544C210.717 59.7997 210.844 59.9897 210.808 60.1797C210.763 60.3697 210.573 60.4963 210.383 60.4601L208.447 60.053C208.257 60.0078 208.067 60.1344 208.022 60.3335L207.587 62.4054C207.542 62.5954 207.352 62.722 207.162 62.6859L207.117 62.6768C206.927 62.6316 206.801 62.4416 206.837 62.2516L207.271 60.1797C207.316 59.9897 207.189 59.7997 206.99 59.7544L205.055 59.3473C204.865 59.302 204.738 59.112 204.774 58.922C204.819 58.732 205.009 58.6054 205.199 58.6416L207.135 59.0487C207.325 59.094 207.515 58.9673 207.56 58.7682L207.995 56.7235C208.04 56.5335 208.23 56.4068 208.42 56.443L208.465 56.4521C208.664 56.4973 208.791 56.6873 208.745 56.8773Z" fill="#F7F0F7"/>
<path d="M124.375 70.4759L66.8071 114.248V74.4206C66.8071 68.6573 70.7421 64.1425 75.2921 64.6763L124.375 70.4759Z" fill="#81C268"/>
<path d="M145.922 81.9301V123.223L66.8071 149.326V130.887L145.75 79.9035C145.868 80.5549 145.922 81.2335 145.922 81.9301Z" fill="#81C268"/>
<path d="M145.922 188.104V205.702C145.922 210.732 142.901 214.939 138.93 215.437L102.81 219.997L145.922 188.104Z" fill="#81C268"/>
<path d="M145.008 163.684C139.572 156.112 133.864 145.824 130.336 134.976C129.522 132.461 129.242 131.493 128.979 129.964C128.762 128.733 126.356 127.711 124.248 128.055C122.267 128.381 120.377 130.244 120.395 130.914C120.431 132.054 120.965 133.836 121.833 136.65C124.845 146.431 129.676 155.107 139.129 167.557L145.008 163.684Z" fill="#EA9A81"/>
<path d="M139.825 170.154C138.839 167.729 138.613 166.01 138.613 166.01C138.613 166.01 142.946 162.626 143.452 162.843C144.628 163.341 146.727 164.852 147.894 165.376C148.4 165.603 150.047 166.48 149.893 167.014C149.757 167.475 148.12 167.403 147.342 167.267C149.233 170.398 148.798 172.75 146.537 170.072C146.926 170.751 147.342 171.746 146.437 172.406C145.976 172.741 145.144 172.153 144.493 171.049C144.664 171.547 144.493 171.049 144.484 171.058C145.053 172.234 145.099 173.275 144.131 173.112C142.91 172.904 142.394 171.918 142.394 171.918C142.394 171.918 142.674 173.203 141.77 173.212C140.793 173.212 140.549 171.746 139.997 170.624C139.906 170.443 139.861 170.289 139.825 170.154Z" fill="#EA9A81"/>
<path d="M97.1468 163.522C97.6081 165.503 104.962 167.584 113.764 165.485C122.566 163.386 129.431 161.142 128.97 159.161C128.509 157.179 120.892 156.193 112.091 158.301C103.289 160.4 96.6855 161.531 97.1468 163.522Z" fill="#30262A"/>
<path d="M125.461 132.841C127.623 131.846 128.889 129.512 128.889 129.512C128.889 129.512 126.6 122.074 112.796 122.545C110.119 122.635 108.997 122.889 107.695 123.133C90.9145 126.209 97.0928 162.762 97.1561 163.531C114.117 155.876 128.979 159.17 128.979 159.17C129.097 145.598 125.732 133.52 125.461 132.841Z" fill="#44393D"/>
<path d="M124.492 133.312C124.492 133.312 128.997 132.289 129.947 128.634C129.947 128.634 126.175 122.59 115.211 122.663L124.492 133.312Z" fill="#44393D"/>
<path d="M112.534 122.554C112.534 122.554 101.417 122.129 97.5088 126.716L104.194 128.408L112.534 122.554Z" fill="#44393D"/>
<path d="M108.147 132.325C107.631 133.366 104.791 133.013 101.796 131.538C98.8023 130.063 96.785 128.019 97.3007 126.978C97.8163 125.938 100.657 126.291 103.651 127.765C106.645 129.24 108.662 131.285 108.147 132.325Z" fill="#30262A"/>
<path d="M96.7398 169.393C97.4273 160.093 99.6616 148.548 103.913 137.962C104.899 135.51 105.306 134.587 106.084 133.248C106.708 132.172 105.514 129.837 103.678 128.743C101.95 127.72 99.2997 127.937 98.8836 128.462C98.1871 129.358 97.4453 131.068 96.3056 133.782C92.3344 143.219 90.48 152.972 89.7383 168.588L96.7398 169.393Z" fill="#EA9A81"/>
<path d="M88.9062 171.14C89.4309 168.643 90.1907 167.123 90.1907 167.123C90.1907 167.123 95.5368 166.752 95.8353 167.204C96.5138 168.253 97.3912 170.615 98.0516 171.683C98.341 172.144 99.1913 173.754 98.7752 174.098C98.4134 174.397 97.1289 173.438 96.568 172.913C96.3962 176.478 94.5418 181.608 94.3699 174.098H94.3609C94.3066 174.858 94.0804 179.653 93.0944 179.183C92.226 178.767 92.2532 175.166 92.3255 173.917C92.3165 173.917 92.2984 173.917 92.2894 173.908C92.1084 175.175 91.5386 178.839 90.842 178.179C89.9646 177.346 90.3445 173.528 90.3445 173.528C90.3445 173.528 90.1364 176.966 89.0057 176.134C88.2368 175.564 88.6348 172.813 88.7977 171.61C88.8157 171.42 88.8519 171.275 88.9062 171.14Z" fill="#EA9A81"/>
<path d="M119.762 106.033C119.762 106.033 120.639 101.726 116.822 100.993C113.004 100.261 113.62 103.255 112.86 103.934C112.1 104.613 113.674 106.965 115.501 107.417C117.319 107.879 119.762 106.033 119.762 106.033Z" fill="#30262A"/>
<path d="M109.883 122.59C111.367 124.318 114.849 126.607 116.794 125.639C118.45 124.816 116.803 122.663 116.803 122.663C115.872 122.482 115.636 122.246 115.564 121.441L115.483 120.446L115.446 119.957L115.32 118.383L115.202 116.972L114.723 111.19L113.203 117.08L112.941 118.084L112.054 121.541C111.891 122.255 109.883 122.59 109.883 122.59Z" fill="#EA9A81"/>
<path d="M112.95 118.084C112.95 118.084 113.918 119.794 115.447 119.957L115.32 118.383C114.361 118.193 112.95 118.084 112.95 118.084Z" fill="#30262A"/>
<path d="M108.11 111.253C108.11 111.253 108.481 112.158 108.237 114.167C107.884 117.107 111.285 117.777 111.982 116.854C112.072 116.736 111.186 111.968 111.186 111.968L110.064 111.516L108.11 111.253Z" fill="#30262A"/>
<path d="M116.166 118.705C119.133 118.244 121.077 114.9 120.509 111.236C119.94 107.572 117.074 104.976 114.107 105.436C111.14 105.897 109.195 109.241 109.764 112.905C110.333 116.568 113.199 119.165 116.166 118.705Z" fill="#EA9A81"/>
<path d="M116.469 106.648C116.351 106.874 117.726 110.159 111.53 111.95C105.333 113.751 107.939 105.49 112.579 104.594C119.273 103.301 120.956 107.671 120.558 109.408C120.169 111.127 116.469 106.648 116.469 106.648Z" fill="#30262A"/>
<path d="M112.055 110.756C112.055 110.756 109.893 113.877 111.222 116.528C111.222 116.528 109.467 115.126 109.341 114.52C109.214 113.913 109.268 111.643 109.268 111.643L112.055 110.756Z" fill="#30262A"/>
<path d="M110.625 113.787C111.322 114.275 112.181 114.203 112.543 113.624C112.905 113.045 112.633 112.185 111.937 111.697C111.24 111.208 110.381 111.281 110.019 111.86C109.657 112.439 109.929 113.298 110.625 113.787Z" fill="#EA9A81"/>
<path d="M115.655 112.05C115.691 112.032 115.718 112.004 115.727 111.968C115.745 111.905 115.7 111.833 115.637 111.823C115.601 111.814 114.705 111.516 114.108 112.421C114.072 112.475 114.081 112.556 114.135 112.593C114.19 112.629 114.253 112.611 114.307 112.565C114.814 112.104 115.546 112.059 115.574 112.068C115.601 112.059 115.628 112.059 115.655 112.05Z" fill="#080435"/>
<path d="M114.895 113.543C114.931 113.832 115.13 114.049 115.347 114.022C115.564 113.995 115.7 113.742 115.664 113.443C115.627 113.153 115.428 112.936 115.211 112.963C115.003 112.991 114.859 113.253 114.895 113.543Z" fill="#080435"/>
<path d="M120.115 112.004C120.151 112.004 120.187 111.986 120.214 111.95C120.25 111.896 120.241 111.814 120.187 111.778C120.151 111.751 119.445 111.145 118.55 111.751C118.495 111.787 118.477 111.869 118.513 111.923C118.55 111.977 118.622 111.986 118.685 111.959C119.328 111.724 120.024 111.959 120.051 111.977C120.069 112.004 120.096 112.013 120.115 112.004Z" fill="#080435"/>
<path d="M118.848 113.099C118.767 113.38 118.875 113.66 119.083 113.714C119.291 113.769 119.517 113.588 119.599 113.298C119.68 113.018 119.572 112.737 119.364 112.683C119.156 112.629 118.929 112.819 118.848 113.099Z" fill="#080435"/>
<g opacity="0.3">
<path opacity="0.3" d="M112.588 112.231C112.344 113.877 113.068 115.578 114.199 116.022C115.338 116.465 116.46 115.488 116.704 113.841C116.949 112.194 116.225 110.493 115.094 110.05C113.963 109.607 112.842 110.584 112.588 112.231Z" fill="white"/>
</g>
<g opacity="0.3">
<path opacity="0.3" d="M118.106 112.384C118.043 114.022 118.83 115.642 119.852 115.994C120.874 116.356 121.752 115.316 121.815 113.678C121.878 112.041 121.091 110.421 120.069 110.068C119.047 109.706 118.16 110.747 118.106 112.384Z" fill="white"/>
</g>
<path d="M112.471 113.416C112.48 113.497 112.498 113.588 112.516 113.669C112.688 114.474 113.059 115.189 113.574 115.642C113.773 115.823 113.999 115.967 114.244 116.058C114.479 116.148 114.714 116.184 114.94 116.175C115.003 116.175 115.067 116.166 115.13 116.157C115.338 116.121 115.537 116.049 115.736 115.94C116.216 115.66 116.595 115.171 116.831 114.547C116.93 114.284 117.003 114.004 117.048 113.705C117.093 113.398 117.111 113.081 117.093 112.773C117.093 112.638 117.075 112.511 117.057 112.384C116.903 111.253 116.351 110.24 115.564 109.788C115.465 109.733 115.365 109.679 115.266 109.643C114.759 109.453 114.244 109.489 113.773 109.77C113.176 110.113 112.733 110.783 112.525 111.633C112.498 111.76 112.471 111.878 112.452 112.004C112.443 112.077 112.434 112.158 112.425 112.231C112.398 112.448 112.398 112.674 112.407 112.891C112.425 113.063 112.443 113.235 112.471 113.416ZM116.152 115.307C115.998 115.488 115.827 115.642 115.637 115.75C115.465 115.85 115.293 115.913 115.112 115.94C114.85 115.985 114.578 115.958 114.316 115.859C114.063 115.759 113.837 115.614 113.628 115.406C113.131 114.927 112.778 114.176 112.661 113.343C112.642 113.217 112.633 113.09 112.624 112.954C112.615 112.828 112.615 112.71 112.615 112.583C112.615 112.393 112.633 112.213 112.661 112.023C112.688 111.851 112.724 111.679 112.769 111.525C112.796 111.434 112.823 111.344 112.86 111.263C112.86 111.253 112.86 111.253 112.869 111.244C112.869 111.235 112.878 111.226 112.878 111.217C112.941 111.045 113.013 110.892 113.095 110.756C113.303 110.394 113.574 110.113 113.882 109.933C114.108 109.797 114.343 109.733 114.587 109.724C114.786 109.715 114.994 109.752 115.202 109.824C115.284 109.851 115.356 109.887 115.429 109.933C116.188 110.349 116.731 111.326 116.867 112.43C116.885 112.556 116.894 112.692 116.903 112.819C116.912 113.099 116.894 113.38 116.858 113.66C116.813 113.941 116.74 114.212 116.65 114.456C116.523 114.782 116.36 115.063 116.152 115.307C116.152 115.307 116.161 115.298 116.152 115.307Z" fill="#30262A"/>
<path d="M118.161 113.325C118.179 113.416 118.188 113.506 118.206 113.588C118.224 113.678 118.251 113.76 118.269 113.841C118.278 113.895 118.296 113.959 118.314 114.013C118.314 114.022 118.324 114.031 118.324 114.04C118.342 114.085 118.351 114.131 118.369 114.176C118.369 114.176 118.369 114.176 118.369 114.185C118.251 113.769 118.179 113.316 118.179 112.846C118.17 112.837 118.143 112.828 118.106 112.819C118.106 112.909 118.115 112.991 118.124 113.081C118.134 113.153 118.152 113.244 118.161 113.325ZM118.161 113.325C118.179 113.416 118.188 113.506 118.206 113.588C118.224 113.678 118.251 113.76 118.269 113.841C118.278 113.895 118.296 113.959 118.314 114.013C118.314 114.022 118.324 114.031 118.324 114.04C118.342 114.085 118.351 114.131 118.369 114.176C118.369 114.176 118.369 114.176 118.369 114.185C118.251 113.769 118.179 113.316 118.179 112.846C118.17 112.837 118.143 112.828 118.106 112.819C118.106 112.909 118.115 112.991 118.124 113.081C118.134 113.153 118.152 113.244 118.161 113.325ZM118.161 113.325C118.179 113.416 118.188 113.506 118.206 113.588C118.224 113.678 118.251 113.76 118.269 113.841C118.278 113.895 118.296 113.959 118.314 114.013C118.314 114.022 118.324 114.031 118.324 114.04C118.342 114.085 118.351 114.131 118.369 114.176C118.369 114.176 118.369 114.176 118.369 114.185C118.251 113.769 118.179 113.316 118.179 112.846C118.17 112.837 118.143 112.828 118.106 112.819C118.106 112.909 118.115 112.991 118.124 113.081C118.134 113.153 118.152 113.244 118.161 113.325ZM118.161 113.325C118.179 113.416 118.188 113.506 118.206 113.588C118.224 113.678 118.251 113.76 118.269 113.841C118.278 113.895 118.296 113.959 118.314 114.013C118.314 114.022 118.324 114.031 118.324 114.04C118.342 114.085 118.351 114.131 118.369 114.176C118.369 114.176 118.369 114.176 118.369 114.185C118.251 113.769 118.179 113.316 118.179 112.846C118.17 112.837 118.143 112.828 118.106 112.819C118.106 112.909 118.115 112.991 118.124 113.081C118.134 113.153 118.152 113.244 118.161 113.325ZM118.161 113.325C118.179 113.416 118.188 113.506 118.206 113.588C118.224 113.678 118.251 113.76 118.269 113.841C118.278 113.895 118.296 113.959 118.314 114.013C118.314 114.022 118.324 114.031 118.324 114.04C118.342 114.085 118.351 114.131 118.369 114.176C118.369 114.176 118.369 114.176 118.369 114.185C118.251 113.769 118.179 113.316 118.179 112.846C118.17 112.837 118.143 112.828 118.106 112.819C118.106 112.909 118.115 112.991 118.124 113.081C118.134 113.153 118.152 113.244 118.161 113.325ZM118.161 113.325C118.179 113.416 118.188 113.506 118.206 113.588C118.224 113.678 118.251 113.76 118.269 113.841C118.278 113.895 118.296 113.959 118.314 114.013C118.314 114.022 118.324 114.031 118.324 114.04C118.342 114.085 118.351 114.131 118.369 114.176C118.369 114.176 118.369 114.176 118.369 114.185C118.251 113.769 118.179 113.316 118.179 112.846C118.17 112.837 118.143 112.828 118.106 112.819C118.106 112.909 118.115 112.991 118.124 113.081C118.134 113.153 118.152 113.244 118.161 113.325ZM118.161 113.325C118.179 113.416 118.188 113.506 118.206 113.588C118.224 113.678 118.251 113.76 118.269 113.841C118.278 113.895 118.296 113.959 118.314 114.013C118.314 114.022 118.324 114.031 118.324 114.04C118.342 114.085 118.351 114.131 118.369 114.176C118.369 114.176 118.369 114.176 118.369 114.185C118.251 113.769 118.179 113.316 118.179 112.846C118.17 112.837 118.143 112.828 118.106 112.819C118.106 112.909 118.115 112.991 118.124 113.081C118.134 113.153 118.152 113.244 118.161 113.325ZM118.161 113.325C118.179 113.416 118.188 113.506 118.206 113.588C118.224 113.678 118.251 113.76 118.269 113.841C118.278 113.895 118.296 113.959 118.314 114.013C118.314 114.022 118.324 114.031 118.324 114.04C118.342 114.085 118.351 114.131 118.369 114.176C118.369 114.176 118.369 114.176 118.369 114.185C118.251 113.769 118.179 113.316 118.179 112.846C118.17 112.837 118.143 112.828 118.106 112.819C118.106 112.909 118.115 112.991 118.124 113.081C118.134 113.153 118.152 113.244 118.161 113.325ZM118.043 113.597C118.134 114.185 118.323 114.737 118.595 115.171C118.857 115.614 119.21 115.94 119.599 116.094C119.626 116.103 119.653 116.112 119.671 116.121H119.68C119.879 116.184 120.087 116.203 120.296 116.175C120.467 116.148 120.639 116.085 120.802 115.985C121.435 115.605 121.897 114.746 122.032 113.669C122.249 111.932 121.544 110.168 120.449 109.743C120.431 109.733 120.404 109.724 120.377 109.715C120.286 109.679 120.196 109.661 120.096 109.652C119.961 109.634 119.834 109.643 119.708 109.67C119.554 109.697 119.4 109.761 119.246 109.851C118.613 110.231 118.152 111.091 118.016 112.167C118.007 112.24 117.998 112.303 117.998 112.375C117.989 112.502 117.98 112.638 117.98 112.764C117.971 113.045 117.998 113.325 118.043 113.597ZM118.378 114.176C118.26 113.76 118.188 113.307 118.188 112.837C118.188 112.701 118.197 112.565 118.206 112.43C118.215 112.348 118.224 112.276 118.233 112.194C118.296 111.688 118.432 111.235 118.631 110.864C118.821 110.512 119.056 110.231 119.337 110.05C119.346 110.041 119.355 110.032 119.373 110.032C119.509 109.951 119.653 109.896 119.807 109.869C119.934 109.851 120.069 109.851 120.196 109.878C120.259 109.887 120.323 109.905 120.395 109.933C121.399 110.331 122.05 111.995 121.851 113.642C121.851 113.651 121.851 113.66 121.851 113.66C121.851 113.66 121.851 113.66 121.851 113.669V113.678V113.687C121.716 114.673 121.3 115.461 120.721 115.804C120.431 115.976 120.115 116.022 119.807 115.931C119.771 115.922 119.735 115.913 119.698 115.895C119.671 115.886 119.635 115.868 119.608 115.859C119.599 115.859 119.59 115.85 119.581 115.85C119.581 115.85 119.581 115.85 119.572 115.85C119.337 115.732 119.129 115.551 118.939 115.307C118.722 115.017 118.541 114.655 118.414 114.248C118.387 114.221 118.378 114.194 118.378 114.176ZM118.161 113.325C118.179 113.416 118.188 113.506 118.206 113.588C118.224 113.678 118.251 113.76 118.269 113.841C118.278 113.895 118.296 113.959 118.314 114.013C118.314 114.022 118.324 114.031 118.324 114.04C118.342 114.085 118.351 114.131 118.369 114.176C118.369 114.176 118.369 114.176 118.369 114.185C118.251 113.769 118.179 113.316 118.179 112.846C118.17 112.837 118.143 112.828 118.106 112.819C118.106 112.909 118.115 112.991 118.124 113.081C118.134 113.153 118.152 113.244 118.161 113.325ZM118.161 113.325C118.179 113.416 118.188 113.506 118.206 113.588C118.224 113.678 118.251 113.76 118.269 113.841C118.278 113.895 118.296 113.959 118.314 114.013C118.314 114.022 118.324 114.031 118.324 114.04C118.342 114.085 118.351 114.131 118.369 114.176C118.369 114.176 118.369 114.176 118.369 114.185C118.251 113.769 118.179 113.316 118.179 112.846C118.17 112.837 118.143 112.828 118.106 112.819C118.106 112.909 118.115 112.991 118.124 113.081C118.134 113.153 118.152 113.244 118.161 113.325ZM118.161 113.325C118.179 113.416 118.188 113.506 118.206 113.588C118.224 113.678 118.251 113.76 118.269 113.841C118.278 113.895 118.296 113.959 118.314 114.013C118.314 114.022 118.324 114.031 118.324 114.04C118.342 114.085 118.351 114.131 118.369 114.176C118.369 114.176 118.369 114.176 118.369 114.185C118.251 113.769 118.179 113.316 118.179 112.846C118.17 112.837 118.143 112.828 118.106 112.819C118.106 112.909 118.115 112.991 118.124 113.081C118.134 113.153 118.152 113.244 118.161 113.325ZM118.161 113.325C118.179 113.416 118.188 113.506 118.206 113.588C118.224 113.678 118.251 113.76 118.269 113.841C118.278 113.895 118.296 113.959 118.314 114.013C118.314 114.022 118.324 114.031 118.324 114.04C118.342 114.085 118.351 114.131 118.369 114.176C118.369 114.176 118.369 114.176 118.369 114.185C118.251 113.769 118.179 113.316 118.179 112.846C118.17 112.837 118.143 112.828 118.106 112.819C118.106 112.909 118.115 112.991 118.124 113.081C118.134 113.153 118.152 113.244 118.161 113.325ZM118.161 113.325C118.179 113.416 118.188 113.506 118.206 113.588C118.224 113.678 118.251 113.76 118.269 113.841C118.278 113.895 118.296 113.959 118.314 114.013C118.314 114.022 118.324 114.031 118.324 114.04C118.342 114.085 118.351 114.131 118.369 114.176C118.369 114.176 118.369 114.176 118.369 114.185C118.251 113.769 118.179 113.316 118.179 112.846C118.17 112.837 118.143 112.828 118.106 112.819C118.106 112.909 118.115 112.991 118.124 113.081C118.134 113.153 118.152 113.244 118.161 113.325ZM118.161 113.325C118.179 113.416 118.188 113.506 118.206 113.588C118.224 113.678 118.251 113.76 118.269 113.841C118.278 113.895 118.296 113.959 118.314 114.013C118.314 114.022 118.324 114.031 118.324 114.04C118.342 114.085 118.351 114.131 118.369 114.176C118.369 114.176 118.369 114.176 118.369 114.185C118.251 113.769 118.179 113.316 118.179 112.846C118.17 112.837 118.143 112.828 118.106 112.819C118.106 112.909 118.115 112.991 118.124 113.081C118.134 113.153 118.152 113.244 118.161 113.325ZM118.161 113.325C118.179 113.416 118.188 113.506 118.206 113.588C118.224 113.678 118.251 113.76 118.269 113.841C118.278 113.895 118.296 113.959 118.314 114.013C118.314 114.022 118.324 114.031 118.324 114.04C118.342 114.085 118.351 114.131 118.369 114.176C118.369 114.176 118.369 114.176 118.369 114.185C118.251 113.769 118.179 113.316 118.179 112.846C118.17 112.837 118.143 112.828 118.106 112.819C118.106 112.909 118.115 112.991 118.124 113.081C118.134 113.153 118.152 113.244 118.161 113.325Z" fill="#30262A"/>
<path d="M118.314 112.864C118.368 112.855 118.423 112.819 118.45 112.764C118.504 112.674 118.468 112.556 118.377 112.502C118.35 112.484 117.645 112.104 116.65 112.493C116.55 112.529 116.505 112.647 116.541 112.746C116.577 112.846 116.695 112.891 116.794 112.855C117.618 112.529 118.188 112.837 118.188 112.837C118.233 112.864 118.278 112.873 118.314 112.864Z" fill="#30262A"/>
<path d="M111.286 106.024C111.286 106.024 110.11 101.79 106.374 102.875C102.638 103.961 103.751 105.988 104.176 107.291C104.492 108.268 106.274 109.625 108.111 109.2C109.947 108.774 111.286 106.024 111.286 106.024Z" fill="#30262A"/>
<path d="M109.522 119.541C109.504 119.541 109.476 119.532 109.458 119.523C109.404 119.487 109.386 119.414 109.422 119.36C109.458 119.315 110.227 118.166 111.702 117.569C111.765 117.542 111.828 117.569 111.855 117.632C111.883 117.695 111.855 117.759 111.792 117.786C110.381 118.356 109.63 119.478 109.621 119.487C109.603 119.523 109.558 119.541 109.522 119.541Z" fill="#30262A"/>
<path d="M117.175 116.89C116.523 116.89 115.89 116.601 115.845 116.583C115.809 116.564 115.8 116.528 115.818 116.501C115.836 116.465 115.872 116.456 115.899 116.474C115.917 116.483 117.455 117.18 118.124 116.393C118.151 116.365 118.188 116.365 118.215 116.383C118.242 116.411 118.242 116.447 118.224 116.474C117.952 116.782 117.564 116.89 117.175 116.89Z" fill="#020202"/>
<path d="M115.374 227.941C115.374 227.941 115.438 230.383 117.084 231.071C118.73 231.759 123.516 232.383 121.725 233.948C120.702 234.844 115.872 234.265 114.506 234.265C113.14 234.265 111.865 234.862 110.851 233.948C109.739 232.944 110.851 227.941 110.851 227.941C110.851 227.941 112.027 228.556 113.086 228.529C114.615 228.483 115.374 227.941 115.374 227.941Z" fill="#30262A"/>
<path d="M127.64 161.079C127.64 161.079 127.948 171.284 124.692 190.873C122.34 205.014 119.563 219.255 118.197 226.086C117.708 228.529 115.655 230.311 113.221 230.411L111.91 230.465C109.277 230.573 107.143 228.312 107.333 225.615L110.634 179.409C110.634 179.409 105.153 163.368 108.825 162.382C115.347 160.635 127.64 161.079 127.64 161.079Z" fill="#01774D"/>
<path d="M117.762 162.78L117.238 164.607L115.058 172.234L114.768 173.275L111.53 184.603L109.865 190.447L109.757 190.791V190.8L99.7703 225.733L88.6077 227.135C88.5986 226.81 88.6167 226.484 88.671 226.149L97.4274 173.573L97.8164 171.221V171.212L98.7209 165.82C98.7752 165.548 98.8747 165.304 99.0285 165.087C99.2637 164.734 99.5984 164.472 99.9964 164.345C101.507 163.874 105.198 162.988 108.834 162.391C113.42 161.631 117.952 161.296 117.762 162.78Z" fill="#01774D"/>
<path d="M109.893 190.945C109.884 190.945 109.865 190.945 109.856 190.945C109.775 190.927 109.721 190.845 109.739 190.755L112.905 177.446C113.719 173.528 115.42 171.511 116.695 170.506C118.088 169.412 119.282 169.249 119.336 169.24C119.418 169.231 119.499 169.285 119.508 169.375C119.517 169.457 119.463 169.538 119.373 169.547C119.364 169.547 118.206 169.71 116.867 170.76C115.637 171.737 113.999 173.7 113.203 177.509L110.037 190.818C110.028 190.9 109.965 190.945 109.893 190.945Z" fill="#020202"/>
<path d="M203.128 118.989C203.128 118.989 208.447 132.705 211.088 131.339C215.114 129.258 216.145 120.021 216.145 120.021L223.355 121.314C223.355 121.314 223.897 139.518 214.662 144.268C207.199 148.104 199.428 134.153 199.428 134.153L198.081 121.468L203.128 118.989Z" fill="#EA9A81"/>
<path d="M166.103 159.441C166.139 160.862 174.742 161.432 185.389 161.097C196.036 160.762 204.539 159.296 204.503 157.867C204.467 156.446 195.9 155.605 185.262 155.94C174.606 156.274 166.067 158.012 166.103 159.441Z" fill="#30262A"/>
<path d="M168.708 119.143C168.708 119.143 170.59 111.679 184.475 111.606C204.503 111.498 202.648 129.901 204.494 157.867C204.494 157.867 184.774 155.08 166.085 159.088C166.085 159.088 164.357 130.543 168.708 119.143Z" fill="#0C7854"/>
<path d="M162.639 116.302L172.652 123.097C172.652 123.097 192.508 124.897 197.782 124.029C203.056 123.16 204.503 119.288 204.503 119.288C204.503 119.288 198.885 113.479 189.342 111.923C188.446 111.778 187.515 111.67 186.556 111.606C184.937 111.498 183.317 111.552 181.734 111.706C166.112 113.181 162.639 116.302 162.639 116.302Z" fill="#0C7854"/>
<path d="M182.567 109.896L183.616 106.513L183.924 105.526L185.715 99.7359L185.95 105.499L186.095 108.955L186.14 110.05C186.167 110.792 186.411 111.579 187.117 112.059C187.786 112.511 188.826 113.443 187.207 114.167C185.19 115.063 181.355 113.66 179.925 111.896C180.486 111.76 182.223 110.991 182.567 109.896Z" fill="#EA9A81"/>
<path d="M162.051 116.655C160.929 117.813 162.114 120.844 164.701 123.423C167.297 126.001 170.309 127.15 171.431 125.992C172.553 124.834 171.368 121.803 168.781 119.224C166.185 116.646 163.172 115.497 162.051 116.655Z" fill="#30262A"/>
<path d="M190.328 97.5645C190.328 97.5645 190.69 98.9668 190.328 100.722C189.966 102.477 188.175 98.1616 188.175 98.1616L190.328 97.5645Z" fill="#30262A"/>
<path d="M186.248 108.047C189.066 107.677 190.989 104.621 190.543 101.223C190.097 97.8239 187.45 95.3688 184.632 95.739C181.813 96.1092 179.89 99.1645 180.336 102.563C180.782 105.962 183.429 108.417 186.248 108.047Z" fill="#EA9A81"/>
<path d="M180.206 100.794L182.693 100.532C183.245 100.478 183.743 100.179 184.041 99.7178C184.548 98.9216 185.163 98.5054 187.488 98.5959C190.428 98.7044 192.372 96.9492 192.689 95.4111C193.015 93.8368 191.504 92.7782 190.029 93.5201C188.555 94.2711 189.188 92.4344 187.768 92.2354C185.109 91.8735 184.611 93.9182 182.44 93.8549C179.591 93.7644 174.48 95.9359 176.904 100.957L180.206 100.794Z" fill="#30262A"/>
<path d="M185.705 101.645C185.733 101.627 185.751 101.6 185.751 101.564C185.76 101.509 185.714 101.455 185.651 101.455C185.615 101.455 184.837 101.31 184.448 102.143C184.421 102.197 184.439 102.26 184.493 102.278C184.548 102.305 184.593 102.278 184.629 102.233C184.991 101.781 185.597 101.663 185.624 101.663C185.669 101.654 185.687 101.654 185.705 101.645Z" fill="#080435"/>
<path d="M185.253 102.975C185.316 103.219 185.515 103.373 185.687 103.328C185.859 103.283 185.95 103.047 185.886 102.803C185.823 102.559 185.624 102.405 185.452 102.45C185.28 102.504 185.19 102.74 185.253 102.975Z" fill="#080435"/>
<path d="M189.568 101.328C189.595 101.328 189.613 101.31 189.622 101.274C189.641 101.22 189.622 101.165 189.586 101.129C189.559 101.111 189.025 100.668 188.519 101.247C188.483 101.283 188.483 101.346 188.519 101.392C188.546 101.437 188.591 101.437 188.636 101.41C189.025 101.156 189.496 101.292 189.523 101.31C189.532 101.328 189.55 101.337 189.568 101.328Z" fill="#080435"/>
<path d="M188.618 102.396C188.591 102.64 188.709 102.857 188.89 102.884C189.07 102.903 189.242 102.722 189.269 102.477C189.297 102.233 189.179 102.016 188.998 101.989C188.817 101.971 188.645 102.152 188.618 102.396Z" fill="#080435"/>
<path d="M176.904 100.957C176.904 100.957 178.623 104.667 181.065 104.938C181.065 104.938 179.093 102.106 183.254 100.387C183.254 100.387 179.437 99.7902 176.904 100.957Z" fill="#30262A"/>
<path d="M180.341 103.011C180.866 103.346 181.526 103.237 181.825 102.767C182.123 102.296 181.942 101.654 181.418 101.319C180.893 100.984 180.233 101.093 179.934 101.563C179.645 102.025 179.826 102.676 180.341 103.011Z" fill="#EA9A81"/>
<path d="M183.254 100.387C183.254 100.387 182.92 103.5 183.553 104.088C184.186 104.676 188.374 104.929 190.328 104.178C190.364 106.178 188.953 107.942 186.981 108.277C186.33 108.385 185.651 108.385 184.982 108.268C183.616 108.033 182.286 107.463 181.716 106.196C181.545 105.807 182.042 103.436 182.042 103.436C182.042 103.436 182.232 102.043 181.418 101.319C181.418 101.319 182.359 100.478 183.254 100.387Z" fill="#30262A"/>
<path d="M189.722 93.2849C188.953 93.2849 188.881 92.6154 188.881 92.6154L189.017 92.6064C189.017 92.6335 189.08 93.1673 189.758 93.1492L189.767 93.294C189.749 93.2849 189.731 93.2849 189.722 93.2849Z" fill="#30262A"/>
<path d="M188.32 97.7725L188.302 97.7092C188.329 97.7001 191.468 96.7682 191.594 95.1578C191.631 94.7054 191.558 94.3978 191.359 94.2349C191.052 93.9635 190.482 94.0992 189.984 94.2168C189.912 94.2349 189.831 94.253 189.758 94.2711L189.74 94.1987C189.812 94.1806 189.885 94.1625 189.966 94.1444C190.482 94.0268 191.061 93.8911 191.404 94.1806C191.613 94.3616 191.703 94.6873 191.658 95.1668C191.604 95.8544 191.006 96.524 189.93 97.103C189.134 97.5373 188.329 97.7725 188.32 97.7725Z" fill="white"/>
<path d="M182.16 94.5063C181.861 94.5063 181.553 94.4883 181.219 94.443L181.228 94.3706C182.829 94.5878 183.978 94.2168 184.665 93.864C185.407 93.484 185.769 93.0497 185.778 93.0497L185.832 93.0949C185.814 93.113 184.62 94.5063 182.16 94.5063Z" fill="white"/>
<path d="M187.958 106.368C187.958 106.766 187.75 107.092 187.496 107.092C187.243 107.092 187.035 106.766 187.035 106.368C187.035 105.97 187.243 105.644 187.496 105.644C187.75 105.635 187.958 105.961 187.958 106.368Z" fill="white"/>
<path d="M200.921 123.35C200.351 121.278 198.415 118.663 198.397 118.645L198.578 118.51C198.596 118.537 200.559 121.179 201.138 123.296L200.921 123.35Z" fill="#30262A"/>
<path d="M218.669 125.359C217.375 125.63 216.1 124.807 215.828 123.504L213.323 111.652C213.051 110.358 213.875 109.082 215.177 108.811C216.471 108.539 217.746 109.363 218.017 110.665L220.523 122.518C220.795 123.812 219.971 125.087 218.669 125.359Z" fill="#A74C3B"/>
<path d="M216.525 99.2382C216.525 99.2382 234.418 85.8839 241.609 70.4306L255.721 126.924C255.721 126.924 232.301 112.104 219.365 110.611C219.365 110.611 215.629 109.01 214.987 105.354C214.291 101.419 216.525 99.2382 216.525 99.2382Z" fill="#B9EB52"/>
<path d="M258.531 126.831C264.614 125.311 266.346 111.27 262.399 95.4709C258.453 79.6715 250.322 68.0957 244.239 69.6158C238.156 71.1359 236.424 85.1762 240.371 100.976C244.317 116.775 252.448 128.351 258.531 126.831Z" fill="#6BA214"/>
<path d="M244.458 93.4116L254.192 93.7282C255.44 93.7463 256.525 94.6058 256.833 95.8182L257.34 97.8449C257.701 99.2835 257.041 100.785 255.729 101.491L246.883 106.277C246.883 106.286 241.591 100.677 244.458 93.4116Z" fill="#01764A"/>
<path d="M255.684 101.591C255.666 101.582 253.64 100.378 253.052 97.5825C252.744 96.1168 253.052 95.1306 253.369 94.5516C253.712 93.9273 254.128 93.6559 254.147 93.6378L254.264 93.8187C254.246 93.8278 252.699 94.8682 253.269 97.5373C253.839 100.233 255.784 101.392 255.802 101.41L255.684 101.591Z" fill="#30262A"/>
<path d="M216.525 99.2382L209.225 102.378C207.723 103.029 206.9 104.667 207.298 106.259L208.013 109.136C208.429 110.792 210.012 111.869 211.694 111.643L219.356 110.62C219.356 110.62 217.022 109.724 216.018 105.363C215.258 101.971 216.525 99.2382 216.525 99.2382Z" fill="#01764A"/>
<path d="M219.302 110.702C213.621 106.16 216.398 99.2654 216.425 99.193L216.615 99.2744C216.588 99.3378 213.875 106.096 219.429 110.53L219.302 110.702Z" fill="#30262A"/>
<path d="M226.973 112.583C218.506 103.156 222.36 94.3073 222.396 94.2168L222.586 94.3073C222.55 94.3978 218.759 103.129 227.127 112.448L226.973 112.583Z" fill="#30262A"/>
<path d="M223.083 120.265C223.083 120.265 224.25 122.798 221.925 123.839C218.967 125.169 216.036 124.255 217.113 123.269C217.321 123.07 220.125 121.821 220.125 121.821C220.125 121.821 213.485 123.088 213.693 121.613C213.901 120.147 219.627 119.134 219.627 119.134C219.627 119.134 213.042 119.758 213.693 118.428C214.336 117.107 219.537 116.157 219.537 116.157C219.537 116.157 213.141 117.107 213.928 115.587C214.715 114.067 218.126 114.248 219.582 113.986C220.966 113.742 221.563 114.556 221.699 115.904C221.699 115.904 222.612 117.171 222.486 118.075C222.432 118.419 222.802 118.691 222.875 118.926C223.01 119.405 223.083 120.265 223.083 120.265Z" fill="#EA9A81"/>
<path d="M149.332 161.205C152.598 151.271 158.143 139.31 165.633 128.942C167.37 126.535 168.066 125.648 169.278 124.4C170.255 123.395 169.586 120.536 167.876 118.844C166.275 117.261 163.326 116.782 162.738 117.243C161.734 118.03 160.468 119.695 158.496 122.337C151.63 131.529 146.971 141.635 141.942 158.428L149.332 161.205Z" fill="#EA9A81"/>
<path d="M140.051 160.78C141.598 158.283 143.009 156.944 143.009 156.944C143.009 156.944 148.934 158.636 149.07 159.242C149.396 160.635 149.414 163.54 149.712 164.942C149.839 165.548 150.137 167.629 149.549 167.837C149.043 168.018 148.03 166.48 147.632 165.693C146.049 169.475 143.624 170.642 144.565 166.815C144.212 167.611 143.579 168.652 142.385 168.263C141.77 168.063 141.761 166.923 142.331 165.603C141.996 166.082 142.331 165.603 142.322 165.593C141.625 166.887 140.73 167.62 140.232 166.634C139.608 165.394 140.16 164.263 140.16 164.263C140.16 164.263 139.183 165.367 138.577 164.553C137.925 163.666 139.101 162.472 139.744 161.233C139.843 161.052 139.943 160.907 140.051 160.78Z" fill="#EA9A81"/>
<path d="M173.828 225.679C173.828 225.679 173.123 228.194 174.597 229.415C176.072 230.637 180.767 232.781 178.442 233.822C177.112 234.419 172.345 232.302 170.952 231.867C169.559 231.433 168.057 231.641 167.306 230.383C166.483 228.999 169.197 224.24 169.197 224.24C169.197 224.24 170.21 225.235 171.305 225.543C172.87 225.995 173.828 225.679 173.828 225.679Z" fill="#30262A"/>
<path d="M190.03 215.898C190.03 215.898 188.22 217.789 188.944 219.562C189.668 221.336 192.798 225.443 190.265 225.262C188.808 225.163 185.606 221.046 184.575 220.015C183.544 218.974 182.123 218.45 182.06 216.993C181.979 215.392 186.628 212.46 186.628 212.46C186.628 212.46 187.053 213.817 187.868 214.604C189.044 215.735 190.03 215.898 190.03 215.898Z" fill="#30262A"/>
<path d="M188.257 159.703C188.293 169.683 179.247 213.736 178.017 221.689C177.574 224.53 175.294 226.692 172.49 226.927L170.979 227.054C167.949 227.307 165.371 224.801 165.452 221.689L166.954 168.208L167.035 160.301C167.044 160.301 188.239 155.125 188.257 159.703Z" fill="#679E1C"/>
<path d="M202.124 158.943C202.124 158.943 212.21 183.182 207.75 195.632C204.729 204.064 198.415 211.736 194.661 215.808C193.042 217.563 190.328 217.708 188.519 216.152L186.483 214.396C184.891 213.021 184.34 210.795 185.108 208.832C187.334 203.159 191.621 191.669 191.585 187.597C191.504 178.161 179.138 158.193 179.138 158.193C179.138 158.193 191.694 156.338 202.124 158.943Z" fill="#679E1C"/>
<path d="M186.846 172.587C186.773 172.587 186.728 172.533 186.728 172.47C186.728 172.434 186.882 169.222 187.397 166.643C187.922 164.028 190.174 162.789 190.202 162.771C190.256 162.744 190.328 162.762 190.355 162.816C190.383 162.87 190.364 162.943 190.31 162.97C190.292 162.979 188.13 164.173 187.633 166.679C187.126 169.231 186.972 172.434 186.963 172.47C186.963 172.533 186.909 172.587 186.846 172.587Z" fill="#30262A"/>
<path d="M220.125 124.508L220.098 124.3C223.49 123.803 223.255 121.803 223.255 121.776L223.463 121.749C223.463 121.776 223.716 123.983 220.125 124.508Z" fill="#E47E6A"/>
<path d="M140.124 160.853L139.979 160.699C142.611 158.111 143.615 152.746 143.624 152.701L143.833 152.737C143.814 152.791 142.801 158.22 140.124 160.853Z" fill="#E47E6A"/>
<path d="M144.864 169.258L144.828 169.05C146.194 168.814 147.523 165.675 147.541 165.639L147.641 165.403L147.74 165.639C148.012 166.299 148.871 167.955 149.522 167.72C150.147 167.493 149.658 164.49 149.45 163.205C149.387 162.834 149.342 162.535 149.332 162.382C149.278 161.676 149.305 160.988 149.305 160.979L149.513 160.988C149.513 160.997 149.486 161.667 149.541 162.363C149.55 162.499 149.604 162.798 149.658 163.169C150.011 165.331 150.328 167.656 149.595 167.919C148.781 168.208 147.93 166.571 147.641 165.937C147.297 166.688 146.13 169.041 144.864 169.258Z" fill="#E47E6A"/>
<path d="M87.5403 221.933L78.2954 223.1L81.4886 231.551L90.046 230.212L87.5403 221.933Z" fill="#D3A09F"/>
</svg>
