<svg width="92" height="76" viewBox="0 0 92 76" fill="none" xmlns="http://www.w3.org/2000/svg">
<path d="M88.9962 70.4173C88.9962 73.268 69.0738 75.579 44.4982 75.579C19.9226 75.579 0 73.268 0 70.4173C0 67.5667 19.9226 65.2559 44.4982 65.2559C69.0738 65.2559 88.9962 67.5667 88.9962 70.4173Z" fill="#E3E8EB"/>
<path d="M53.8766 70.9248H14.4914C11.3129 70.9248 8.73633 68.3482 8.73633 65.1696V51.2334C8.73633 49.5619 9.46891 47.974 10.7406 46.8892L19.6478 39.2917H42.9651L51.8721 46.8892C53.144 47.974 53.8766 49.5619 53.8766 51.2334V70.9248Z" fill="#FF901B"/>
<path d="M53.8766 70.9248H14.4914C11.3129 70.9248 8.73633 68.3482 8.73633 65.1696V51.2334C8.73633 49.5619 9.46891 47.974 10.7406 46.8892L19.6478 39.2917H42.9651L51.8721 46.8892C53.144 47.974 53.8766 49.5619 53.8766 51.2334V70.9248Z" fill="#00E7E9"/>
<path d="M8.73633 62.2568V65.1689C8.73633 68.3474 11.3129 70.9241 14.4915 70.9241H53.8766V68.012H14.4915C11.3129 68.012 8.73633 65.4353 8.73633 62.2568Z" fill="#00D1C5"/>
<path d="M51.8719 46.8884L42.9649 39.291H39.4834L48.3903 46.8884C49.6622 47.9733 50.3947 49.561 50.3947 51.2327V70.9241H53.8763V51.2327C53.8763 49.561 53.1437 47.9733 51.8719 46.8884Z" fill="#00D1C5"/>
<path d="M23.271 41.6892L31.2649 47.3991L39.2588 41.6892H23.271Z" fill="#FFF4E3"/>
<path d="M53.8766 70.9248H14.4914C11.3129 70.9248 8.73633 68.3482 8.73633 65.1696V51.2334C8.73633 49.5619 9.46891 47.974 10.7406 46.8892L19.6478 39.2917H42.9651L51.8721 46.8892C53.144 47.974 53.8766 49.5619 53.8766 51.2334V70.9248Z" stroke="#161718" stroke-linecap="round" stroke-linejoin="round"/>
<path d="M16.6475 41.9176L24.1846 52.4239C24.1846 52.4239 26.126 46.4856 31.2649 47.3991C23.842 41.9176 23.271 41.6892 23.271 41.6892" stroke="#161718" stroke-linecap="round" stroke-linejoin="round"/>
<path d="M45.9236 41.7929L38.3865 52.2991C38.3865 52.2991 36.4451 46.3608 31.3062 47.2744C38.7291 41.7929 39.3001 41.5645 39.3001 41.5645" stroke="#161718" stroke-linecap="round" stroke-linejoin="round"/>
<path d="M31.2651 47.3992V66.5758" stroke="#161718" stroke-linecap="round" stroke-linejoin="round"/>
<path d="M34.8054 52.9378C34.8054 53.3478 34.4731 53.6801 34.0631 53.6801C33.6531 53.6801 33.3208 53.3478 33.3208 52.9378C33.3208 52.5279 33.6531 52.1956 34.0631 52.1956C34.4731 52.1956 34.8054 52.5279 34.8054 52.9378Z" fill="#161718"/>
<path d="M34.8054 57.7342C34.8054 58.1442 34.4731 58.4765 34.0631 58.4765C33.6531 58.4765 33.3208 58.1442 33.3208 57.7342C33.3208 57.3243 33.6531 56.9919 34.0631 56.9919C34.4731 56.9919 34.8054 57.3243 34.8054 57.7342Z" fill="#161718"/>
<path d="M36.3091 70.9482L22.9629 70.9239V62.7432L36.3091 62.7674V70.9482Z" fill="#FFDEC5"/>
<path d="M22.9629 70.924H31.9124V69.116H22.9629V70.924Z" fill="#EEB58E"/>
<path d="M31.9124 70.9239H22.9629V62.7432H31.9124V70.9239Z" stroke="#161718" stroke-linecap="round" stroke-linejoin="round"/>
<path d="M36.7488 64.1509H38.9141C39.5837 64.1509 40.1265 64.6938 40.1265 65.3633C40.1265 66.0329 39.5837 66.5758 38.9141 66.5758H35.3306" fill="#FFDEC5"/>
<path d="M36.7488 64.1509H38.9141C39.5837 64.1509 40.1265 64.6938 40.1265 65.3633C40.1265 66.0329 39.5837 66.5758 38.9141 66.5758H35.3306" stroke="#161718" stroke-linecap="round" stroke-linejoin="round"/>
<path d="M29.8984 62.7742L35.6818 61.7531C36.7238 61.5691 37.7178 62.2648 37.9018 63.3069C38.0858 64.3491 37.3902 65.3432 36.3481 65.5272L30.5916 66.5436" fill="#FFDEC5"/>
<path d="M29.8984 62.7742L35.6818 61.7531C36.7238 61.5691 37.7178 62.2648 37.9018 63.3069C38.0858 64.3491 37.3902 65.3432 36.3481 65.5272L30.5916 66.5436" stroke="#161718" stroke-linecap="round" stroke-linejoin="round"/>
<path d="M30.8819 63.8458L33.2086 63.0249C33.8401 62.8021 34.5326 63.1334 34.7554 63.7648C34.9781 64.3962 34.6469 65.0888 34.0154 65.3116L30.6359 66.504" fill="#FFDEC5"/>
<path d="M30.8819 63.8458L33.2086 63.0249C33.8401 62.8021 34.5326 63.1334 34.7554 63.7648C34.9781 64.3962 34.6469 65.0888 34.0154 65.3116L30.6359 66.504" stroke="#161718" stroke-linecap="round" stroke-linejoin="round"/>
<path d="M18.229 60.9353H22.963V70.9243" stroke="#161718" stroke-linecap="round" stroke-linejoin="round"/>
<path d="M15.8387 21.2031C15.8387 21.2031 13.1619 21.0422 13.1988 23.7545C13.2382 26.6448 13.9311 28.4134 15.9374 28.4573L15.8387 21.2031Z" fill="#FFDEC5"/>
<path d="M15.8387 21.2031C15.8387 21.2031 13.1619 21.0422 13.1988 23.7545C13.2382 26.6448 13.9311 28.4134 15.9374 28.4573L15.8387 21.2031Z" stroke="#161718" stroke-linecap="round" stroke-linejoin="round"/>
<path d="M45.813 20.7952C45.813 20.7952 48.4842 20.5615 48.5211 23.2738C48.5604 26.1641 47.9162 27.9509 45.9118 28.0493L45.813 20.7952Z" fill="#FFDEC5"/>
<path d="M45.813 20.7952C45.813 20.7952 48.4842 20.5615 48.5211 23.2738C48.5604 26.1641 47.9162 27.9509 45.9118 28.0493L45.813 20.7952Z" stroke="#161718" stroke-linecap="round" stroke-linejoin="round"/>
<path d="M31.4149 43.1433L30.8376 43.1512C22.7199 43.2617 16.0791 38.9402 15.9686 30.8223L15.7197 12.5415L45.6941 12.1335L45.9429 30.4143C46.0535 38.5322 39.5327 43.0328 31.4149 43.1433Z" fill="#FFDEC5"/>
<path d="M15.8295 16.3898C15.8295 16.3898 18.5392 20.9263 25.8194 21.0817C36.9495 21.3192 41.2618 15.5133 41.2618 15.5133L15.8295 16.3898Z" fill="#EEB58E"/>
<path d="M31.3883 41.1628L30.811 41.1706C22.6933 41.2811 16.0587 37.4206 15.9482 29.3027L15.9689 30.8222C16.0794 38.9401 22.7203 43.2617 30.838 43.1512L31.4152 43.1434C39.5331 43.0329 46.0538 38.5321 45.9433 30.4142L45.9226 28.8947C46.0331 37.0126 39.5061 41.0523 31.3883 41.1628Z" fill="#EEB58E"/>
<path d="M31.4149 43.1433L30.8376 43.1512C22.7199 43.2617 16.0791 38.9402 15.9686 30.8223L15.7197 12.5415L45.6941 12.1335L45.9429 30.4143C46.0535 38.5322 39.5327 43.0328 31.4149 43.1433Z" stroke="#161718" stroke-linecap="round" stroke-linejoin="round"/>
<path d="M19.8958 21.4861C18.4813 26.6447 15.9536 25.537 15.9536 25.537L15.7671 11.8345L19.992 11.777C19.992 11.777 20.8017 18.1821 19.8958 21.4861Z" fill="#FF9371"/>
<path d="M20.1891 19.8853C20.3219 18.7357 20.3434 17.4444 20.3131 16.2353L15.8294 16.3898C15.8294 16.3898 17.0872 18.494 20.1891 19.8853Z" fill="#EE7755"/>
<path d="M19.8958 21.4861C18.4813 26.6447 15.9536 25.537 15.9536 25.537L15.7671 11.8345L19.992 11.777C19.992 11.777 20.8017 18.1821 19.8958 21.4861Z" stroke="#161718" stroke-linecap="round" stroke-linejoin="round"/>
<path d="M41.893 4.66381C39.6917 2.72663 36.4424 1.00062 31.9318 1.19199C31.8812 2.08065 32.5427 4.00453 33.694 4.93245C29.3441 0.997767 20.11 1.08555 17.1771 4.1189C17.6333 5.49884 18.8756 7.24418 20.7877 8.13297C15.3742 6.96052 11.635 9.69922 11.3381 10.6651C12.3153 13.0149 14.4958 15.4168 15.8297 16.3896C20.3041 19.6524 32.5552 20.775 40.0693 16.2739C40.4992 16.0164 40.8952 15.7628 41.262 15.513C41.2465 17.4412 41.3559 19.6572 41.8206 21.1876C43.375 26.3058 45.8716 25.1297 45.8716 25.1297L45.7068 13.0281C45.6633 9.82877 44.295 6.77745 41.893 4.66381Z" fill="#FF9371"/>
<path d="M33.6936 4.94368L33.6935 4.93261C33.4195 4.55796 32.6835 4.25459 31.4944 3.45589C26.7653 1.08795 19.6786 1.5315 17.1768 4.11905C17.2406 4.31199 17.3212 4.51259 17.4155 4.71654C20.7689 2.49441 27.9862 2.24312 32.1808 5.2964C32.7241 5.69193 33.7046 5.61566 33.6936 4.94368Z" fill="#EE7755"/>
<path d="M20.8379 8.31885C20.8315 8.24185 20.8149 8.17709 20.787 8.13327C20.5692 8.08815 19.7821 8.02657 18.1072 7.84871C14.1706 7.86791 11.5822 9.86869 11.3374 10.6654C11.3897 10.7912 11.446 10.9169 11.5048 11.0427C12.8188 9.95853 16.0198 8.50687 19.9128 9.1469C20.414 9.22927 20.8803 8.82502 20.8379 8.31885Z" fill="#EE7755"/>
<path d="M41.8927 4.66404C39.6913 2.72687 36.4421 1.00086 31.9315 1.19223C31.9135 1.50803 31.9871 1.95564 32.139 2.44171C35.3746 2.46219 38.197 3.59339 39.8597 5.26265C43.0961 8.51205 41.2717 13.3977 39.8925 15.1548C38.2319 17.2704 37.2086 17.6462 37.2086 17.6462C37.2086 17.6462 40.5907 16.627 41.2617 15.5133C40.732 18.5164 42.2288 24.835 45.283 25.2459C45.6436 25.2371 45.8712 25.13 45.8712 25.13L45.7065 13.0284C45.6629 9.82912 44.2946 6.77768 41.8927 4.66404Z" fill="#EE7755"/>
<path d="M43.1183 5.86894C40.9728 3.51643 37.3685 0.96129 31.9317 1.19199C31.8812 2.08077 32.5425 4.00465 33.6938 4.93257C29.344 0.997772 20.1098 1.08555 17.177 4.1189C17.6332 5.49896 18.8755 7.24419 20.7876 8.13298C15.3741 6.96053 11.635 9.69923 11.3381 10.6651C12.3153 13.0149 14.4957 15.4168 15.8297 16.3896C20.304 19.6524 32.5551 20.775 40.0692 16.274C40.4991 16.0166 40.8951 15.7628 41.2619 15.5131C41.2464 17.4412 41.3558 19.6572 41.8206 21.1876C43.375 26.3058 45.8716 25.1297 45.8716 25.1297L45.6991 12.4575C45.6659 10.0209 44.7603 7.66937 43.1183 5.86894Z" stroke="#161718" stroke-linecap="round" stroke-linejoin="round"/>
<path d="M43.4671 13.3736C43.4671 13.3736 42.1872 14.8177 41.2618 15.5132C40.2957 16.2394 38.8822 17.1351 36.9688 17.7363" stroke="#161718" stroke-linecap="round" stroke-linejoin="round"/>
<path d="M23.5323 25.7112C24.9265 25.4483 26.3557 25.4289 27.7566 25.6537" stroke="#161718" stroke-linecap="round" stroke-linejoin="round"/>
<path d="M27.6126 27.3304C27.6205 27.9076 27.1588 28.382 26.5815 28.3898C26.0042 28.3977 25.5299 27.9361 25.522 27.3589C25.5142 26.7817 25.9758 26.3074 26.5531 26.2995C27.1303 26.2916 27.6047 26.7532 27.6126 27.3304Z" fill="#161718"/>
<path d="M34.3028 25.564C35.697 25.3011 37.1262 25.2816 38.5271 25.5065" stroke="#161718" stroke-linecap="round" stroke-linejoin="round"/>
<path d="M38.3831 27.1837C38.391 27.7609 37.9293 28.2352 37.3521 28.2431C36.7748 28.2509 36.3004 27.7894 36.2925 27.2122C36.2847 26.6349 36.7464 26.1606 37.3236 26.1528C37.9008 26.1449 38.3752 26.6065 38.3831 27.1837Z" fill="#161718"/>
<path d="M29.2627 31.7026C29.654 32.3433 30.3633 32.7669 31.1682 32.756C31.9731 32.745 32.6706 32.3022 33.0441 31.6512" stroke="#161718" stroke-linecap="round" stroke-linejoin="round"/>
<path d="M35.1835 35.3478C35.207 37.0789 33.4261 38.5068 31.2057 38.537C28.9853 38.5672 27.1661 37.1884 27.1426 35.4573L35.1835 35.3478Z" fill="white"/>
<path d="M35.1835 35.3478C35.207 37.0789 33.4261 38.5068 31.2057 38.537C28.9853 38.5672 27.1661 37.1884 27.1426 35.4573L35.1835 35.3478Z" stroke="#161718" stroke-linecap="round" stroke-linejoin="round"/>
<path d="M60.2464 71.1103H30.2632C29.1139 71.1103 28.1821 70.1786 28.1821 69.0291V68.6571C28.1821 67.5077 29.1139 66.5759 30.2632 66.5759H62.3275V69.0291C62.3275 70.1786 61.3957 71.1103 60.2464 71.1103Z" fill="#AFADF9"/>
<path d="M60.2464 71.1103H30.2632C29.1139 71.1103 28.1821 70.1786 28.1821 69.0291V68.6571C28.1821 67.5077 29.1139 66.5759 30.2632 66.5759H62.3275V69.0291C62.3275 70.1786 61.3957 71.1103 60.2464 71.1103Z" stroke="#161718" stroke-linecap="round" stroke-linejoin="round"/>
<path d="M82.2679 71.1139H53.6228C52.3065 71.1139 51.3293 69.8938 51.6169 68.6092L56.995 44.5863C57.4406 42.5961 59.0925 41.1938 60.9913 41.1938H87.8517C90.0691 41.1938 91.7024 43.4304 91.1822 45.7544L86.2642 67.7213C85.8187 69.7117 84.1669 71.1139 82.2679 71.1139Z" fill="#FFF4E3"/>
<path d="M82.2679 71.1139H53.6228C52.3065 71.1139 51.3293 69.8938 51.6169 68.6092L56.995 44.5863C57.4406 42.5961 59.0925 41.1938 60.9913 41.1938H87.8517C90.0691 41.1938 91.7024 43.4304 91.1822 45.7544L86.2642 67.7213C85.8187 69.7117 84.1669 71.1139 82.2679 71.1139Z" fill="#DCDBFF"/>
<path d="M83.6326 70.0677H54.9875C53.6712 70.0677 52.694 68.8476 52.9817 67.563L58.3596 43.5401C58.5295 42.7817 58.8748 42.1092 59.3417 41.5667C58.1928 42.11 57.304 43.2065 56.9951 44.5864L51.6169 68.6092C51.3293 69.894 52.3065 71.114 53.6229 71.114H82.2679C83.4434 71.114 84.5237 70.5763 85.2822 69.6948C84.774 69.9353 84.2151 70.0677 83.6326 70.0677Z" fill="#AFADF9"/>
<path d="M53.9272 68.6092L59.3054 44.5863C59.7508 42.5961 61.4027 41.1938 63.3016 41.1938H60.9913C59.0924 41.1938 57.4406 42.5961 56.995 44.5863L51.6169 68.6092C51.3293 69.8938 52.3065 71.1139 53.6228 71.1139H55.9331C54.6167 71.1139 53.6395 69.8938 53.9272 68.6092Z" fill="#AFADF9"/>
<path d="M82.2679 71.1139H53.6228C52.3065 71.1139 51.3293 69.8938 51.6169 68.6092L56.995 44.5863C57.4406 42.5961 59.0925 41.1938 60.9913 41.1938H87.8517C90.0691 41.1938 91.7024 43.4304 91.1822 45.7544L86.2642 67.7213C85.8187 69.7117 84.1669 71.1139 82.2679 71.1139Z" stroke="#161718" stroke-linecap="round" stroke-linejoin="round"/>
<path d="M73.7992 54.1835C73.8161 54.0003 73.8512 53.8226 73.9024 53.6521C73.7012 53.6005 73.4853 53.5764 73.2574 53.5842C71.7491 53.6365 70.2858 55.0497 69.9894 56.7409C69.6927 58.4318 70.675 59.7604 72.1835 59.7081C73.6183 59.6583 75.0114 58.3769 75.3993 56.7965C74.37 56.4106 73.6901 55.3658 73.7992 54.1835Z" fill="white"/>
<path d="M85.5378 19.8313H69.8958C68.6344 19.8313 67.6118 20.8538 67.6118 22.1153V30.6128C67.6118 31.8741 68.6344 32.8968 69.8958 32.8968H75.1162L77.7168 36.1396L80.3174 32.8968H85.5378C86.7993 32.8968 87.8218 31.8741 87.8218 30.6128V22.1153C87.8218 20.8538 86.7993 19.8313 85.5378 19.8313Z" fill="#FF4F7B"/>
<path d="M85.5378 19.8313H69.8958C68.6344 19.8313 67.6118 20.8538 67.6118 22.1153V30.6128C67.6118 31.8741 68.6344 32.8968 69.8958 32.8968H75.1162L77.7168 36.1396L80.3174 32.8968H85.5378C86.7993 32.8968 87.8218 31.8741 87.8218 30.6128V22.1153C87.8218 20.8538 86.7993 19.8313 85.5378 19.8313Z" stroke="#161718" stroke-linecap="round" stroke-linejoin="round"/>
<path d="M74.6289 26.7222C74.6289 27.3343 74.1325 27.8306 73.5205 27.8306C72.9084 27.8306 72.4121 27.3343 72.4121 26.7222C72.4121 26.1101 72.9084 25.6138 73.5205 25.6138C74.1325 25.6138 74.6289 26.1101 74.6289 26.7222Z" fill="white"/>
<path d="M78.9727 26.7222C78.9727 27.3343 78.4763 27.8306 77.8642 27.8306C77.2521 27.8306 76.7559 27.3343 76.7559 26.7222C76.7559 26.1101 77.2521 25.6138 77.8642 25.6138C78.4763 25.6138 78.9727 26.1101 78.9727 26.7222Z" fill="white"/>
<path d="M83.3162 26.7222C83.3162 27.3343 82.82 27.8306 82.2079 27.8306C81.5958 27.8306 81.0996 27.3343 81.0996 26.7222C81.0996 26.1101 81.5958 25.6138 82.2079 25.6138C82.82 25.6138 83.3162 26.1101 83.3162 26.7222Z" fill="white"/>
</svg>
