<svg width="64" height="55" viewBox="0 0 64 55" fill="none" xmlns="http://www.w3.org/2000/svg">
<path d="M9.34503 11.8103L54.6718 11.8104C55.8465 11.8103 56.7985 12.7623 56.7986 13.937L56.7986 40.8259C56.7982 42.0005 55.8467 42.9527 54.6722 42.9522L9.34478 42.9525C8.86809 42.9524 8.42797 42.7954 8.0735 42.5304C7.55433 42.1425 7.21819 41.5234 7.21793 40.8259L7.21796 13.937C7.21837 12.7624 8.17034 11.8104 9.34503 11.8103Z" fill="#138844"/>
<path d="M25.8283 20.1096C32.855 15.6964 42.4109 12.9863 54.4961 11.9794C55.6665 11.8824 56.6946 12.7518 56.792 13.9229C56.7967 13.9814 56.7997 14.04 56.7997 14.0994L56.7997 40.826C56.7993 42.0005 55.8474 42.9526 54.6727 42.9527L8.8709 42.9524C8.8709 42.9524 8.47652 42.9288 8.12543 42.6696C7.77434 42.4103 7.54408 42.2672 7.59727 42.157C12.4729 32.0301 18.5507 24.6808 25.8283 20.1096Z" fill="#6A0101"/>
<path d="M12.4023 26.7171L30.2147 26.7175C30.7283 26.7175 31.1451 27.1341 31.1451 27.6477C31.145 28.1618 30.7286 28.5776 30.215 28.5776L12.4025 28.5776C11.8889 28.5776 11.4721 28.161 11.4721 27.6474C11.4722 27.1334 11.8882 26.7169 12.4023 26.7171Z" fill="white"/>
<path d="M12.4031 30.9699L24.8978 30.97C25.4119 30.9701 25.8287 31.3868 25.8287 31.9003C25.829 32.4145 25.4124 32.8313 24.8983 32.8312L12.4035 32.8316C11.8895 32.8315 11.4727 32.4149 11.4727 31.9013C11.4723 31.3871 11.8891 30.9698 12.4031 30.9699Z" fill="white"/>
<path d="M47.2293 34.9776L52.014 34.9766C52.308 34.9766 52.5458 35.2148 52.5464 35.5084L52.5462 38.1676C52.5457 38.4608 52.3079 38.6993 52.0145 38.6994L47.2295 38.6993C46.9355 38.6992 46.6967 38.4607 46.6971 38.1674L46.6979 35.5084C46.6973 35.2149 46.9353 34.9776 47.2293 34.9776Z" fill="white"/>
<path d="M16.5821 15.7406C17.7887 15.7408 18.7669 16.7185 18.7667 17.925C18.7665 19.1316 17.7888 20.1098 16.5823 20.1096C16.0197 20.1097 15.5071 19.8964 15.1196 19.547C14.7337 19.8966 14.2203 20.1097 13.6578 20.1093C12.4517 20.1097 11.4737 19.131 11.4733 17.9249C11.4734 16.7183 12.4516 15.7403 13.6582 15.7404C14.2202 15.7402 14.7335 15.9531 15.1206 16.3018C15.5069 15.9529 16.0195 15.7407 16.5821 15.7406Z" fill="white"/>
<path d="M9.27326 11.8406H54.6002C55.7747 11.8406 56.7269 12.7928 56.7269 13.9674V40.8562C56.7269 42.0312 55.7747 42.9829 54.6002 42.9829H9.27326C8.09875 42.9829 7.14648 42.0312 7.14648 40.8562V13.9674C7.14648 12.7928 8.09875 11.8406 9.27326 11.8406Z" fill="#5D63E0"/>
<path d="M25.8709 20.0562C32.8978 15.6426 42.4534 12.9331 54.5388 11.9266C55.7091 11.8293 56.7374 12.6992 56.8347 13.8694C56.8394 13.9284 56.8421 13.9869 56.8421 14.0459V40.7726C56.8421 41.9476 55.8898 42.8994 54.7153 42.8994H8.81792C8.81792 42.8994 8.53081 42.8941 8.15915 42.6442C7.7875 42.3943 7.57376 42.2401 7.63277 42.1178C12.51 31.9842 18.5899 24.6293 25.8709 20.0562Z" fill="#5054BD"/>
<path d="M12.3289 26.7471H30.1406C30.6543 26.7471 31.0711 27.1634 31.0711 27.6775C31.0711 28.1912 30.6543 28.608 30.1406 28.608H12.3289C11.8153 28.608 11.3984 28.1912 11.3984 27.6775C11.3984 27.1634 11.8153 26.7471 12.3289 26.7471Z" fill="white"/>
<path d="M12.3289 31.0006H24.8237C25.3373 31.0006 25.7542 31.4169 25.7542 31.9311C25.7542 32.4447 25.3373 32.8615 24.8237 32.8615H12.3289C11.8153 32.8615 11.3984 32.4447 11.3984 31.9311C11.3984 31.4169 11.8153 31.0006 12.3289 31.0006Z" fill="white"/>
<path d="M47.1567 35.007H51.9419C52.236 35.007 52.4736 35.2452 52.4736 35.5387V38.1971C52.4736 38.4911 52.236 38.7288 51.9419 38.7288H47.1567C46.8627 38.7288 46.625 38.4911 46.625 38.1971V35.5387C46.625 35.2452 46.8627 35.007 47.1567 35.007Z" fill="white"/>
<path d="M16.507 15.7703C17.7134 15.7703 18.6911 16.748 18.6911 17.9545C18.6911 19.1609 17.7134 20.1397 16.507 20.1397C15.9444 20.1397 15.4319 19.9265 15.0443 19.5772C14.6577 19.9265 14.1452 20.1397 13.5826 20.1397C12.3762 20.1397 11.3984 19.1609 11.3984 17.9545C11.3984 16.748 12.3762 15.7703 13.5826 15.7703C14.1452 15.7703 14.6577 15.9835 15.0453 16.3328C15.4319 15.9835 15.9444 15.7703 16.507 15.7703Z" fill="white"/>
<path d="M55.302 42.6245L50.3047 45.4168L53.3876 51.7325C53.5493 52.0636 54.0095 52.0938 54.2128 51.7864L55.5827 49.715L58.0587 49.9093C58.426 49.9381 58.6856 49.5567 58.5239 49.2255L55.302 42.6245Z" fill="#EC4055"/>
<path d="M55.3019 42.6246L50.3047 45.4168L50.8751 46.5854C51.2286 46.446 51.5517 46.2313 51.8136 45.9476C51.9346 45.8166 52.1061 45.7415 52.2843 45.7415C52.3262 45.7415 52.3683 45.7457 52.4096 45.7538C52.5437 45.7806 52.6807 45.7893 52.8172 45.7942L53.6869 47.5763C53.8107 47.8298 54.0646 47.9772 54.3293 47.9772C54.4344 47.9772 54.5413 47.954 54.6423 47.9047C54.9968 47.7316 55.1437 47.3042 54.9706 46.9493L54.4035 45.7874C54.3068 45.5891 54.361 45.3529 54.5313 45.2126C54.828 44.9679 55.0714 44.6563 55.2334 44.2917C55.3203 44.0962 55.5043 43.9766 55.7172 43.9548C55.7907 43.9473 55.8592 43.9265 55.9303 43.9122L55.3019 42.6246Z" fill="#E42136"/>
<path d="M41.4923 42.6295L38.2756 49.2198C38.1139 49.5511 38.3737 49.9326 38.7413 49.9035L41.2175 49.7073L42.5864 51.7804C42.7896 52.0879 43.2502 52.058 43.4119 51.7268L46.5075 45.3845L41.4923 42.6295Z" fill="#EC4055"/>
<path d="M44.6724 44.3761L43.4187 43.6874L41.4931 42.6295L40.8672 43.9117C40.8844 43.9341 40.8788 43.927 40.896 43.9493C41.175 43.9142 41.441 44.0704 41.5545 44.317C41.7195 44.6752 41.9639 44.9807 42.2598 45.2203C42.432 45.3596 42.4865 45.5974 42.3893 45.7965L41.8291 46.9443C41.6561 47.299 41.8031 47.7266 42.1576 47.8996C42.2584 47.9489 42.3655 47.9722 42.4705 47.9722C42.7352 47.9722 42.9892 47.8247 43.113 47.5712L43.9839 45.7865C44.1115 45.7804 44.2394 45.7738 44.3646 45.7489C44.4058 45.7406 44.448 45.7364 44.4899 45.7364C44.6681 45.7364 44.8396 45.8115 44.9606 45.9424C45.2279 46.2318 45.5588 46.4496 45.9207 46.5885L46.5083 45.3846L44.6724 44.3761Z" fill="#E42136"/>
<path d="M58.7326 29.9632C59.3464 30.3716 59.5998 31.1476 59.3456 31.8395C59.1542 32.3602 59.2473 32.9429 59.5916 33.378C60.0492 33.956 60.0504 34.7723 59.5947 35.3518C59.2517 35.7878 59.1603 36.371 59.3534 36.891C59.6099 37.5821 59.3589 38.3589 58.7464 38.7692C58.2855 39.0779 58.0183 39.6043 58.0413 40.1586C58.0715 40.8951 57.5929 41.5563 56.8836 41.7572C56.3498 41.9085 55.9331 42.3265 55.7835 42.8608C55.5849 43.5706 54.9252 44.0514 54.1885 44.0234C53.6342 44.0023 53.1087 44.2711 52.8014 44.7329C52.393 45.3467 51.617 45.6002 50.9252 45.3458C50.4044 45.1544 49.8216 45.2477 49.3865 45.592C48.8085 46.0495 47.9922 46.0507 47.4128 45.5951C46.9768 45.2521 46.3936 45.1607 45.8734 45.3538C45.1824 45.6103 44.4056 45.3591 43.9953 44.7467C43.6865 44.2858 43.1602 44.0186 42.6059 44.0416C41.8695 44.0719 41.2082 43.5932 41.0073 42.8839C40.8561 42.3501 40.4381 41.9335 39.9038 41.7839C39.1939 41.5852 38.7131 40.9255 38.7412 40.1889C38.7622 39.6345 38.4934 39.109 38.0316 38.8017C37.4179 38.3933 37.1643 37.6173 37.4187 36.9255C37.6102 36.4047 37.5169 35.8219 37.1726 35.3869C36.7151 34.8089 36.7138 33.9925 37.1694 33.4131C37.5124 32.9771 37.6038 32.3939 37.4108 31.8738C37.1543 31.1827 37.4053 30.4059 38.0177 29.9957C38.4787 29.6868 38.7459 29.1606 38.723 28.6063C38.6926 27.8698 39.1714 27.2086 39.8806 27.0077C40.4144 26.8564 40.8312 26.4384 40.9807 25.9041C41.1794 25.1943 41.839 24.7134 42.5757 24.7415C43.13 24.7625 43.6555 24.4938 43.9629 24.0319C44.3712 23.4182 45.1472 23.1648 45.839 23.419C46.3598 23.6105 46.9426 23.5172 47.3777 23.1729C47.9557 22.7154 48.772 22.7141 49.3515 23.1698C49.7875 23.5128 50.3706 23.6042 50.8907 23.4111C51.5818 23.1546 52.3586 23.4057 52.7689 24.0181C53.0777 24.479 53.604 24.7463 54.1582 24.7233C54.8948 24.6929 55.556 25.1718 55.7569 25.881C55.9081 26.4148 56.3262 26.8315 56.8605 26.981C57.5702 27.1797 58.0511 27.8393 58.0231 28.576C58.0019 29.1304 58.2707 29.6559 58.7326 29.9632Z" fill="#FDD144"/>
<path d="M48.0965 44.3815C50.0174 44.4385 51.9866 43.9422 53.7659 42.8137C57.7792 40.2684 59.4466 35.1094 57.6821 30.6966C56.8997 28.7403 55.5934 27.1853 54.0024 26.1074C53.7483 25.9352 53.8491 25.5373 54.1555 25.5187C54.6399 25.4893 55.1236 25.4921 55.6035 25.5282C55.3263 25.0426 54.8114 24.7269 54.2377 24.722C53.6634 24.7172 53.0874 24.4902 52.7664 24.0142C52.3554 23.4046 51.5807 23.1552 50.8911 23.4111C50.363 23.6071 49.7945 23.518 49.3517 23.1698C48.7724 22.7142 47.956 22.7154 47.378 23.1728C46.9363 23.5224 46.368 23.6134 45.8393 23.4191C45.1474 23.1647 44.3714 23.4183 43.9631 24.0319C43.651 24.5009 43.1387 24.763 42.5758 24.7415C41.8392 24.7134 41.1796 25.1942 40.981 25.9041C40.8291 26.4466 40.4228 26.8541 39.8809 27.0077C39.1717 27.2086 38.6928 27.8697 38.7232 28.6062C38.7463 29.169 38.4859 29.6823 38.0179 29.9958C37.4055 30.4061 37.1544 31.1828 37.411 31.8738C37.607 32.4019 37.518 32.9704 37.1697 33.4132C36.7141 33.9926 36.7154 34.8089 37.1728 35.3869C37.5224 35.8286 37.6132 36.3968 37.4189 36.9256C37.1646 37.6174 37.4181 38.3935 38.0318 38.8018C38.5008 39.1138 38.7628 39.6262 38.7414 40.189C38.7133 40.9256 39.1942 41.5853 39.9041 41.784C40.4465 41.9359 40.8541 42.3421 41.0077 42.8842C41.2086 43.5933 41.8697 44.0723 42.6062 44.0418C43.1691 44.0185 43.6821 44.2791 43.9956 44.747C44.4049 45.358 45.1792 45.6093 45.8692 45.3556C46.4082 45.1574 47.0081 45.3105 47.4766 45.6427C47.9445 45.9744 48.5466 46.0198 49.0556 45.7883C48.6454 45.5368 48.2517 45.2559 47.8761 44.9486C47.6385 44.754 47.7897 44.3724 48.0965 44.3815Z" fill="#FEBF32"/>
<path d="M48.3833 25.3333C53.381 25.3333 57.4326 29.3847 57.4326 34.3825C57.4326 39.3804 53.381 43.4318 48.3833 43.4318C43.3855 43.4318 39.334 39.3804 39.334 34.3825C39.334 29.3847 43.3855 25.3333 48.3833 25.3333Z" fill="#FCF29E"/>
<path d="M50.9194 38.7893C47.4602 38.0611 44.7034 35.3044 43.9753 31.8453C43.7305 30.6825 43.7179 29.554 43.8933 28.4889C43.9521 28.1312 43.5293 27.901 43.2491 28.1309C41.1899 29.8209 39.9761 32.5009 40.3536 35.4492C40.8143 39.0466 43.718 41.9502 47.3153 42.4108C50.2637 42.7884 52.9437 41.5747 54.6335 39.5153C54.8634 39.2352 54.6332 38.8124 54.2758 38.8713C53.2104 39.0467 52.082 39.034 50.9194 38.7893Z" fill="#FBE65F"/>
<path d="M48.3812 37.3095L45.9526 38.8341C45.4175 39.1701 44.7458 38.6822 44.9 38.0693L45.5995 35.2886L43.3991 33.45C42.9141 33.0449 43.1707 32.2553 43.8012 32.2126L46.662 32.0186L47.7305 29.3576C47.9661 28.7713 48.7963 28.7713 49.0318 29.3576L50.1003 32.0186L52.9611 32.2126C53.5916 32.2553 53.8482 33.0449 53.3633 33.45L51.1628 35.2886L51.8623 38.0693C52.0165 38.6822 51.3448 39.1701 50.8097 38.8341L48.3812 37.3095Z" fill="#FEFEFE"/>
<path d="M51.5576 36.8581C48.5217 36.6724 45.9475 34.7932 44.7714 32.1469L43.8011 32.2126C43.1706 32.2554 42.9141 33.0448 43.3992 33.45L45.5996 35.2885L44.8999 38.0694C44.7457 38.6821 45.4173 39.1702 45.9526 38.8341L48.381 37.3095L50.8096 38.8341C51.3448 39.1702 52.0164 38.6821 51.8622 38.0694L51.5576 36.8581Z" fill="#FDFAD2"/>
</svg>
