<svg width="40" height="40" viewBox="0 0 40 40" fill="none" xmlns="http://www.w3.org/2000/svg">
<path d="M34.7221 8.2223C32.2043 7.55032 29.7445 6.67714 27.3666 5.61119C25.027 4.59632 22.7686 3.40395 20.611 2.04453L19.9999 1.66675L19.3999 2.05564C17.2423 3.41506 14.9838 4.60743 12.6443 5.6223C10.2624 6.68502 7.79894 7.55449 5.27767 8.2223L4.44434 8.43341V17.7001C4.44434 32.5779 19.4777 38.1445 19.6221 38.2001L19.9999 38.3334L20.3777 38.2001C20.5332 38.2001 35.5554 32.589 35.5554 17.7001V8.43341L34.7221 8.2223ZM33.3332 17.7001C33.3332 29.9223 22.2221 35.0445 19.9999 35.9556C17.7777 35.0445 6.66656 29.9112 6.66656 17.7001V10.1556C9.01041 9.48182 11.3048 8.64649 13.5332 7.65564C15.7618 6.6923 17.9223 5.57862 19.9999 4.3223C22.0774 5.57862 24.238 6.6923 26.4666 7.65564C28.695 8.64649 30.9894 9.48182 33.3332 10.1556V17.7001Z" fill="#F60093"/>
</svg>
