<svg width="49" height="52" viewBox="0 0 49 52" fill="none" xmlns="http://www.w3.org/2000/svg">
<g style="mix-blend-mode:darken">
<path d="M26.0641 3.82311C23.4612 6.40567 21.0542 8.4932 17.3356 8.47839C13.9443 8.46492 8.62524 8.44362 8.62524 8.44362L8.55423 26.1726C8.51018 37.1787 19.3912 47.2396 25.8817 49.4902C25.8817 49.4902 25.882 49.4904 25.8823 49.4899L26.0649 3.82444C26.0648 3.82422 26.0641 3.82404 26.0641 3.82311Z" fill="#7479EB"/>
</g>
<g style="mix-blend-mode:darken">
<path d="M34.7566 8.18212C31.1406 8.16782 28.8346 6.24915 26.0664 3.45874L25.989 7.25541L25.937 19.2897L25.8413 47.5518L25.8838 49.1242C32.3929 46.9247 43.3535 36.9522 43.3973 25.9462L43.4683 8.21741C43.4683 8.21741 38.362 8.1966 34.7566 8.18212Z" fill="#7479EB"/>
</g>
<path d="M31 24H30V21C30 18.8 28.2 17 26 17C23.8 17 22 18.8 22 21V24H21C20.5 24 20 24.5 20 25V32C20 32.5 20.5 33 21 33H31C31.5 33 32 32.5 32 32V25C32 24.5 31.5 24 31 24ZM27 31H25L25.4 28.8C24.9 28.6 24.5 28 24.5 27.5C24.5 26.7 25.2 26 26 26C26.8 26 27.5 26.7 27.5 27.5C27.5 28.1 27.2 28.6 26.6 28.8L27 31ZM28 24H24V21C24 19.9 24.9 19 26 19C27.1 19 28 19.9 28 21V24Z" fill="white"/>
</svg>
