<svg width="40" height="40" viewBox="0 0 40 40" fill="none" xmlns="http://www.w3.org/2000/svg">
<path d="M34.7221 8.2223C32.2043 7.55032 29.7445 6.67714 27.3666 5.61119C25.027 4.59632 22.7686 3.40395 20.611 2.04453L19.9999 1.66675L19.3999 2.05564C17.2423 3.41506 14.9838 4.60743 12.6443 5.6223C10.2624 6.68502 7.79894 7.55449 5.27767 8.2223L4.44434 8.43341V17.7001C4.44434 32.5779 19.4777 38.1445 19.6221 38.2001L19.9999 38.3334L20.3777 38.2001C20.5332 38.2001 35.5554 32.589 35.5554 17.7001V8.43341L34.7221 8.2223ZM33.3332 17.7001C33.3332 29.9223 22.2221 35.0445 19.9999 35.9556C17.7777 35.0445 6.66656 29.9112 6.66656 17.7001V10.1556C9.01041 9.48182 11.3048 8.64649 13.5332 7.65564C15.7618 6.6923 17.9223 5.57862 19.9999 4.3223C22.0774 5.57862 24.238 6.6923 26.4666 7.65564C28.695 8.64649 30.9894 9.48182 33.3332 10.1556V17.7001Z" fill="#F60093"/>
<path d="M29.1331 20.3361C28.9539 25.3882 24.4394 29.4556 19.08 28.8851C14.2802 28.3736 10.4918 24.1329 11.0558 18.9702C11.5749 14.2202 15.8753 10.5022 21.0633 11.0545C25.9548 11.575 29.3479 15.7861 29.1331 20.3361ZM20.055 26.8098C23.8661 26.8309 26.9533 23.8012 26.9903 20.0029C27.028 16.2278 23.9358 13.1473 20.092 13.1262C16.2829 13.1051 13.1935 16.1327 13.1544 19.9338C13.1089 23.7032 16.2075 26.7887 20.055 26.8098Z" fill="#F60093"/>
<path d="M18.9549 21.4852L22.7141 17.7658C22.8734 17.608 23.0263 17.4446 23.1949 17.298C23.6714 16.8838 24.3121 16.905 24.7225 17.3389C25.1158 17.7552 25.1079 18.3913 24.6741 18.8245C23.2653 20.2292 21.8465 21.6254 20.432 23.0244C20.198 23.2561 19.9697 23.4956 19.7265 23.7175C19.2671 24.1402 18.6782 24.1536 18.2273 23.7274C17.5688 23.1047 16.925 22.4667 16.2958 21.8135C16.1047 21.6172 15.9985 21.3548 16 21.0821C16.0014 20.8094 16.1104 20.5481 16.3036 20.3539C16.7154 19.9354 17.3405 19.9199 17.8042 20.3271C18.0076 20.5053 18.1953 20.7019 18.3859 20.8906C18.5765 21.0794 18.7437 21.2626 18.9549 21.4852Z" fill="#F60093"/>
</svg>
