<svg width="46" height="46" viewBox="0 0 46 46" fill="none" xmlns="http://www.w3.org/2000/svg">
<g clip-path="url(#clip0)">
<path d="M26.6802 34.1827C26.4492 34.1827 26.216 34.1146 26.0121 33.9728C25.6369 33.712 24.7142 33.4559 24.2708 33.3328C24.0353 33.2675 23.8798 33.2242 23.7536 33.175C23.1507 32.9394 22.8529 32.2597 23.0885 31.6568C23.3229 31.0571 23.9966 30.7596 24.5969 30.9879C24.6431 31.0035 24.7839 31.0426 24.8975 31.0742C25.5522 31.2559 26.6478 31.56 27.3503 32.0485C27.8817 32.418 28.013 33.1484 27.6434 33.6797C27.4158 34.0072 27.0511 34.1827 26.6802 34.1827Z" fill="#498A68"/>
<path d="M43.4876 11.5695L34.7251 10.8029C33.98 10.7377 33.4288 10.0807 33.494 9.33567L33.8602 5.14994C33.9254 4.40478 34.5824 3.85359 35.3274 3.91882L44.0898 4.68545C44.835 4.75068 45.3862 5.40761 45.3209 6.15269L44.9547 10.3384C44.8896 11.0835 44.2327 11.6347 43.4876 11.5695Z" fill="#FAE17C"/>
<path d="M36.1666 10.9308L42.0449 11.4453L42.6475 4.5609L36.7692 4.04635L36.1666 10.9308Z" fill="#DCFFA3"/>
<path d="M42.1567 10.172C41.5068 9.76465 40.9477 9.21031 40.5351 8.53622C39.6244 7.0485 38.2484 5.93857 36.6554 5.3501L36.1672 10.929L42.0454 11.4433L42.1567 10.172Z" fill="#D3DC6F"/>
<path d="M35.0843 7.9338C35.4747 7.9338 35.7912 7.61731 35.7912 7.22691C35.7912 6.8365 35.4747 6.52002 35.0843 6.52002C34.6939 6.52002 34.3774 6.8365 34.3774 7.22691C34.3774 7.61731 34.6939 7.9338 35.0843 7.9338Z" fill="#33658A"/>
<path d="M16.4945 36.9529C11.3369 36.9529 5.40154 36.9529 1.05635 34.1787C0.312805 33.7039 0.742796 32.5574 1.61724 32.6742C5.05816 33.1336 7.94861 32.2577 9.59679 30.8389L16.4945 36.9529Z" fill="#D3DC6F"/>
<path opacity="0.1" d="M7.65137 32.0093C7.70887 33.6564 7.96169 35.3005 8.97692 36.6676C11.4912 36.9528 14.0782 36.9529 16.4946 36.9529L9.59684 30.8389C9.06865 31.2936 8.41216 31.6921 7.65137 32.0093Z" fill="#33658A"/>
<path d="M14.1859 42.0865C14.1393 42.0865 14.0927 42.0847 14.0456 42.0811C13.0527 42.0047 12.3097 41.1378 12.3861 40.1451C12.4504 39.3097 12.3818 36.5039 12.262 35.867C11.97 34.9754 12.4137 33.9971 13.296 33.6376C14.2182 33.2619 15.2705 33.7049 15.6461 34.6273C15.7477 34.8766 15.9176 35.2937 15.9905 37.5917C16.0198 38.5185 16.0297 39.7994 15.9818 40.4218C15.9089 41.3676 15.1188 42.0865 14.1859 42.0865ZM12.3055 35.9856C12.3058 35.9863 12.3061 35.987 12.3064 35.9878C12.306 35.987 12.3057 35.9863 12.3055 35.9856Z" fill="#498A68"/>
<path d="M20.3524 42.0865C20.3059 42.0865 20.2592 42.0847 20.2121 42.0811C19.2192 42.0047 18.4763 41.1378 18.5526 40.1451C18.6169 39.3097 18.5483 36.504 18.4285 35.867C18.1365 34.9754 18.5802 33.9971 19.4625 33.6376C20.3848 33.2619 21.4369 33.7049 21.8126 34.6273C21.9142 34.8766 22.0841 35.2937 22.1571 37.5917C22.1863 38.5185 22.1962 39.7994 22.1483 40.4218C22.0755 41.3676 21.2853 42.0865 20.3524 42.0865ZM18.4721 35.9856C18.4724 35.9863 18.4727 35.987 18.473 35.9878C18.4727 35.987 18.4724 35.9863 18.4721 35.9856Z" fill="#498A68"/>
<path opacity="0.1" d="M22.1805 38.8478C22.1778 38.4161 22.169 37.9738 22.157 37.5917C22.0841 35.2937 21.9142 34.8765 21.8125 34.6272C21.4368 33.7049 20.3848 33.262 19.4624 33.6376C18.5802 33.997 18.1365 34.9753 18.4285 35.8669C18.5259 36.3848 18.5894 38.3362 18.5752 39.4967C19.981 39.4117 21.1753 39.198 22.1805 38.8478Z" fill="#33658A"/>
<path opacity="0.1" d="M15.646 34.6272C15.2704 33.7049 14.2183 33.262 13.2959 33.6376C12.4137 33.997 11.97 34.9753 12.262 35.8669C12.3459 36.3131 12.4046 37.8227 12.4101 38.9745C13.4262 39.2788 14.6199 39.4578 16.0129 39.5172C16.0195 38.9042 16.0088 38.1774 15.9903 37.5917C15.9176 35.2937 15.7477 34.8765 15.646 34.6272Z" fill="#33658A"/>
<path d="M24.8618 30.9536C24.8618 34.9231 24.3225 37.7954 17.0987 37.7954C9.87494 37.7954 9.33569 34.9231 9.33569 30.9536C9.33569 26.9841 12.8112 23.7661 17.0987 23.7661C21.3861 23.7661 24.8618 26.9841 24.8618 30.9536Z" fill="#D3DC6F"/>
<path d="M24.8619 30.9536C24.8619 30.922 24.8611 30.8905 24.8606 30.859C23.2437 30.444 20.0366 30.3233 17.8048 32.6952C16.1784 34.4236 15.9431 36.2887 16.1175 37.7763C16.4302 37.789 16.757 37.7955 17.099 37.7955C24.3226 37.7954 24.8619 34.9232 24.8619 30.9536Z" fill="#B5DF9B"/>
<path opacity="0.05" d="M15.6252 23.896C12.0427 24.5335 9.33594 27.4506 9.33594 30.9536C9.33594 34.6291 9.79917 37.3636 15.6024 37.7485C12.3803 34.478 13.0035 27.7251 15.6252 23.896Z" fill="#33658A"/>
<path d="M23.7646 13.2223C22.2879 11.3262 19.9584 10.2975 17.5623 10.4834L14.6169 10.712C10.4295 11.0369 7.29814 14.6948 7.62301 18.8823L7.89344 22.3682C8.18498 26.1264 11.468 28.9367 15.2263 28.6451L30.8398 27.4339C33.6552 27.2154 35.7604 24.7561 35.542 21.9406L35.3579 19.5681C35.1395 16.7527 32.6801 14.6475 29.8647 14.8659L27.8421 15.0229C26.2668 15.1451 24.7354 14.4688 23.7646 13.2223Z" fill="#D3DC6F"/>
<g opacity="0.1">
<path opacity="0.1" d="M12.1401 24.2295C12.4292 24.2295 12.6636 23.9951 12.6636 23.706C12.6636 23.417 12.4292 23.1826 12.1401 23.1826C11.851 23.1826 11.6167 23.417 11.6167 23.706C11.6167 23.9951 11.851 24.2295 12.1401 24.2295Z" fill="#33658A"/>
<path opacity="0.1" d="M15.9116 24.7373C16.2007 24.7373 16.435 24.5029 16.435 24.2139C16.435 23.9248 16.2007 23.6904 15.9116 23.6904C15.6225 23.6904 15.3882 23.9248 15.3882 24.2139C15.3882 24.5029 15.6225 24.7373 15.9116 24.7373Z" fill="#33658A"/>
<path opacity="0.1" d="M13.9272 26.6821C14.2163 26.6821 14.4507 26.4478 14.4507 26.1587C14.4507 25.8696 14.2163 25.6353 13.9272 25.6353C13.6382 25.6353 13.4038 25.8696 13.4038 26.1587C13.4038 26.4478 13.6382 26.6821 13.9272 26.6821Z" fill="#33658A"/>
</g>
<path d="M14.4978 15.9538C14.4689 15.5812 13.8566 15.3247 13.1303 15.381C12.4039 15.4373 11.8385 15.7851 11.8674 16.1578C11.8963 16.5304 12.5085 16.7869 13.2349 16.7305C13.9613 16.6742 14.5267 16.3265 14.4978 15.9538Z" fill="#F589B5"/>
<path d="M20.6997 15.471C20.7285 15.8436 21.3408 16.1001 22.0671 16.0438C22.7934 15.9875 23.3588 15.6397 23.3299 15.2671C23.301 14.8944 22.6888 14.6379 21.9625 14.6943C21.2361 14.7506 20.6708 15.0983 20.6997 15.471Z" fill="#F589B5"/>
<path opacity="0.05" d="M12.9471 11.0308C9.62968 12.0588 7.34298 15.2738 7.62302 18.8824L7.89345 22.3683C8.185 26.1265 11.468 28.9369 15.2263 28.6452L19.3555 28.3248C13.0704 25.2925 11.305 15.7536 12.9471 11.0308Z" fill="#33658A"/>
<path d="M18.6296 33.6854C18.4706 33.6854 18.3093 33.6529 18.1546 33.5842C17.4317 33.2633 16.6657 33.2578 16.3774 33.2558L16.3419 33.2555C15.6946 33.2497 15.1746 32.7203 15.1805 32.0731C15.1862 31.4294 15.7099 30.9116 16.3522 30.9116C16.3557 30.9116 16.3592 30.9116 16.3628 30.9116L16.3942 30.9119C16.7757 30.9146 17.9366 30.923 19.1057 31.442C19.6974 31.7046 19.9641 32.3971 19.7015 32.9886C19.5074 33.4256 19.0787 33.6854 18.6296 33.6854Z" fill="#498A68"/>
<path d="M44.1484 4.01362L42.7063 3.88748L35.386 3.24707C34.2713 3.1495 33.2862 3.97678 33.1887 5.09075L32.8225 9.27648C32.7753 9.81617 32.941 10.342 33.2893 10.7569C33.6375 11.172 34.1265 11.4265 34.6662 11.4738L37.9383 11.7601L35.2429 17.0183C34.923 16.4781 34.514 15.9876 34.0231 15.5675C32.849 14.5622 31.3536 14.0747 29.8124 14.1942L27.7898 14.3511C26.4356 14.4557 25.1301 13.8793 24.2959 12.8083C22.6759 10.7279 20.1395 9.60746 17.51 9.81167L14.5646 10.0402C10.0134 10.3933 6.59781 14.3833 6.95099 18.9345L7.22151 22.4204C7.37245 24.3656 8.25184 26.1025 9.59994 27.3501C9.02593 28.3861 8.70635 29.5301 8.66646 30.7023C6.95512 31.8767 4.38425 32.3636 1.70637 32.0061C0.990585 31.9106 0.342723 32.3014 0.0951137 32.979C-0.150429 33.6508 0.0900825 34.3609 0.693742 34.7464C4.11265 36.9292 8.34123 37.3974 11.6766 37.5502C11.6867 37.5549 11.6971 37.5596 11.7073 37.5644C11.7431 38.5701 11.7473 39.6608 11.7141 40.0934C11.6094 41.455 12.6321 42.6481 13.9935 42.7529C14.057 42.7578 14.1217 42.7603 14.1856 42.7603C15.4707 42.7603 16.5546 41.7556 16.6534 40.4733C16.6901 39.9964 16.694 39.1962 16.6838 38.4655C16.82 38.4677 16.9579 38.4691 17.0987 38.4691C17.374 38.4691 17.6394 38.4644 17.8972 38.456C17.9092 39.1685 17.9038 39.7945 17.8809 40.0933C17.7762 41.4549 18.7988 42.6481 20.1602 42.7528C20.2238 42.7578 20.2885 42.7602 20.3524 42.7602C21.1123 42.7602 21.8196 42.4176 22.2929 41.8204C22.524 41.5287 22.4749 41.105 22.1833 40.8738C21.8916 40.6427 21.4678 40.6917 21.2367 40.9834C21.0023 41.2793 20.6474 41.4393 20.2638 41.4091C19.643 41.3614 19.1766 40.8174 19.2244 40.1965C19.2544 39.8069 19.256 39.0751 19.2432 38.3676C20.1044 38.2794 20.8495 38.1355 21.4925 37.9412C21.4996 38.2327 21.5046 38.5368 21.5066 38.8243C21.5093 39.1949 21.8105 39.4934 22.1804 39.4934H22.1852C22.5575 39.4908 22.857 39.1869 22.8543 38.8148C22.8514 38.4063 22.8429 37.9642 22.8304 37.57C22.8285 37.5106 22.8265 37.4526 22.8246 37.3956C24.1738 36.6629 24.8605 35.5969 25.2042 34.3294C25.4703 34.4299 25.5834 34.4954 25.6274 34.5259C25.9383 34.7422 26.3024 34.8565 26.6803 34.8565C26.8734 34.8565 27.0625 34.826 27.2418 34.7687C27.2432 34.7687 27.2447 34.769 27.2461 34.769C27.463 34.769 27.6727 34.6635 27.8007 34.4775C27.9516 34.3625 28.0858 34.224 28.1968 34.0643C28.4021 33.7692 28.5134 33.4284 28.5254 33.0774L31.0842 28.0856C32.5492 27.9237 33.8774 27.224 34.8405 26.0989C35.8458 24.9247 36.3334 23.4293 36.2138 21.8882L36.0297 19.5157C36.0078 19.2327 35.9655 18.9544 35.9043 18.6824L39.3878 11.8866L43.4288 12.2401C43.4886 12.2454 43.548 12.248 43.6069 12.248C44.646 12.248 45.5337 11.4506 45.626 10.3965L45.9922 6.21074C46.0897 5.09686 45.2626 4.11119 44.1484 4.01362ZM1.41905 33.6104C1.38751 33.5903 1.32184 33.5483 1.36092 33.4415C1.40369 33.3249 1.49425 33.337 1.5283 33.3417C4.17581 33.6951 6.75854 33.2922 8.69261 32.259C8.77185 33.715 9.03599 35.0334 9.81691 36.0772C7.05332 35.8302 3.95965 35.2325 1.41905 33.6104ZM15.3099 40.3696C15.2626 40.9835 14.7252 41.4578 14.0972 41.409C13.4764 41.3613 13.01 40.8173 13.0578 40.1964C13.0914 39.7588 13.0901 38.88 13.0695 38.0423C13.7239 38.2114 14.4743 38.3334 15.3352 38.4025C15.3468 39.1501 15.343 39.9395 15.3099 40.3696ZM26.7971 33.4948C26.7592 33.5039 26.7201 33.5088 26.6802 33.5088C26.5788 33.5088 26.4807 33.4779 26.3967 33.4195C26.1909 33.2764 25.8828 33.1352 25.4473 32.9851C25.4831 32.6513 25.5053 32.3084 25.5185 31.9584C26.0278 32.1214 26.5804 32.3337 26.9655 32.6016C27.0458 32.6573 27.106 32.7337 27.1419 32.822L26.7971 33.4948ZM27.7975 31.5433C27.7766 31.5274 27.7568 31.5103 27.7351 31.4952C27.0911 31.0475 26.2072 30.7506 25.5245 30.5513C25.4877 29.8673 25.3564 29.1989 25.1329 28.5523L29.5046 28.2132L27.7975 31.5433ZM33.8166 25.2228C33.0454 26.1237 31.9697 26.6702 30.7875 26.7619L24.1129 27.2798C24.111 27.2799 24.1091 27.28 24.1072 27.2802L16.6589 27.8581C16.2878 27.8869 16.0104 28.211 16.0391 28.5821C16.0679 28.953 16.3918 29.2301 16.7631 29.2017L23.7323 28.661C24.0336 29.3933 24.1878 30.1621 24.1878 30.9534C24.1878 31.8233 24.163 32.6155 24.048 33.3209C24.0446 33.3375 24.0422 33.3539 24.04 33.3705C23.8138 34.701 23.2562 35.7173 21.9181 36.3543C21.8719 36.37 21.8277 36.39 21.7865 36.4147C20.9956 36.7635 19.9472 36.9886 18.5573 37.0779C18.5494 37.0779 18.5414 37.0771 18.5333 37.0774C18.5092 37.0781 18.4855 37.0803 18.4621 37.0834C18.0391 37.1084 17.5859 37.1214 17.0986 37.1214C16.7325 37.1214 16.3864 37.1139 16.0569 37.0997C16.0371 37.0979 16.0172 37.0972 15.997 37.0972C14.5903 37.0327 13.5115 36.8393 12.6857 36.5275C12.6358 36.5001 12.5824 36.4785 12.5261 36.4645C12.4111 36.417 12.3017 36.3668 12.197 36.3144C12.1626 36.2927 12.1263 36.274 12.0881 36.2587C10.2055 35.2542 10.0094 33.4136 10.0094 30.9534C10.0094 29.9903 10.241 29.0441 10.6835 28.1808C11.5211 28.7099 12.4739 29.08 13.5039 29.2453C13.54 29.251 13.5761 29.2539 13.6115 29.2539C13.9366 29.2539 14.2228 29.0181 14.2759 28.6867C14.3349 28.3193 14.0848 27.9735 13.7174 27.9146C12.6841 27.7488 11.7452 27.3325 10.9589 26.7321C10.9259 26.6983 10.8892 26.6673 10.8482 26.6402C10.8406 26.6351 10.8326 26.631 10.8248 26.6263C9.54549 25.5915 8.69989 24.0557 8.56485 22.316L8.29433 18.8301C7.99866 15.0197 10.8582 11.6793 14.6686 11.3836L17.6139 11.1551C19.791 10.986 21.891 11.9137 23.2325 13.6362C24.3455 15.0652 26.0882 15.835 27.8938 15.6945L29.9165 15.5376C31.0974 15.4463 32.2458 15.82 33.1467 16.5912C34.0475 17.3623 34.594 18.438 34.6857 19.6203L34.8698 21.9928C34.9618 23.1748 34.5877 24.3219 33.8166 25.2228ZM35.5547 10.1987L34.7837 10.1312C34.6026 10.1154 34.4385 10.03 34.3217 9.89074C34.2048 9.75148 34.1492 9.57503 34.1651 9.3939L34.5313 5.20818C34.564 4.83434 34.8924 4.55681 35.2686 4.58952L36.0395 4.6569L35.5547 10.1987ZM41.4329 10.713L39.0481 10.5044C39.0464 10.5043 39.0447 10.504 39.043 10.5039L36.8972 10.3161L37.3821 4.77433L41.9178 5.17116L41.4329 10.713ZM44.6496 6.09341L44.2834 10.2791C44.2507 10.6531 43.9213 10.9307 43.5461 10.8979L42.7752 10.8304L43.2601 5.28859L44.0309 5.35597C44.4048 5.38877 44.6824 5.71957 44.6496 6.09341ZM31.7426 10.5814L30.502 11.1226C30.1608 11.2714 30.005 11.6686 30.1538 12.0097C30.2643 12.2631 30.5119 12.4143 30.7718 12.4143C30.8617 12.4143 30.9531 12.3961 31.0408 12.3579L32.2815 11.8167C32.6226 11.6679 32.7784 11.2707 32.6296 10.9296C32.4809 10.5885 32.0838 10.4324 31.7426 10.5814ZM30.1424 4.89013L31.3629 5.50511C31.4602 5.55408 31.5637 5.57735 31.6656 5.57735C31.912 5.57735 32.1495 5.44168 32.2679 5.20656C32.4353 4.87423 32.3017 4.46913 31.9694 4.30166L30.7489 3.68668C30.4164 3.5193 30.0113 3.6529 29.8439 3.98523C29.6764 4.31756 29.8101 4.72275 30.1424 4.89013ZM30.6846 16.9559C30.3964 16.9783 30.1809 17.2301 30.2032 17.5183C30.2256 17.8065 30.4774 18.0219 30.7656 17.9997C31.0538 17.9773 31.2692 17.7255 31.247 17.4373C31.2245 17.1491 30.9727 16.9336 30.6846 16.9559ZM29.8051 8.88934C29.8353 8.88934 29.8659 8.88736 29.8965 8.88314L31.3146 8.69097C31.6834 8.64101 31.9418 8.30158 31.8918 7.93278C31.8419 7.56397 31.501 7.30576 31.1337 7.35553L29.7157 7.54771C29.3469 7.59766 29.0885 7.93718 29.1384 8.3059C29.1841 8.64407 29.4733 8.88934 29.8051 8.88934ZM27.9215 17.6953C27.8991 17.407 27.6474 17.1916 27.3591 17.214C27.0709 17.2363 26.8554 17.4881 26.8778 17.7763C26.9001 18.0645 27.1519 18.28 27.4401 18.2576C27.7283 18.2352 27.9438 17.9835 27.9215 17.6953ZM30.9452 22.6548C30.6463 22.4327 30.2243 22.4948 30.0023 22.7934C29.8794 22.9588 29.6914 23.0629 29.4868 23.0787C29.2821 23.094 29.0805 23.0207 28.9334 22.8764C28.6681 22.6157 28.2415 22.6194 27.9804 22.8849C27.7197 23.1504 27.7235 23.5771 27.989 23.8378C28.3759 24.2178 28.8945 24.4285 29.4318 24.4285C29.4848 24.4285 29.5379 24.4264 29.591 24.4223C30.1842 24.3763 30.7281 24.0757 31.0836 23.5976C31.3059 23.299 31.2438 22.8769 30.9452 22.6548ZM20.8617 13.4542C20.8329 13.0832 20.5111 12.8059 20.1377 12.8345C19.7667 12.8634 19.4893 13.1875 19.5181 13.5585L19.569 14.2139C19.5965 14.5672 19.8916 14.8356 20.2401 14.8356C20.2575 14.8356 20.2752 14.8349 20.293 14.8336C20.664 14.8047 20.9414 14.4807 20.9126 14.1096L20.8617 13.4542ZM15.4199 14.5356L15.3691 13.8802C15.3402 13.5093 15.0183 13.2315 14.645 13.2606C14.2741 13.2894 13.9966 13.6135 14.0255 13.9845L14.0763 14.64C14.1038 14.9932 14.3989 15.2617 14.7474 15.2617C14.7649 15.2617 14.7826 15.261 14.8004 15.2596C15.1712 15.2308 15.4487 14.9067 15.4199 14.5356ZM15.489 31.0422C15.5519 31.4089 15.9 31.6548 16.2671 31.5924C16.2947 31.5876 16.3232 31.5852 16.3567 31.5852H16.3572L16.3893 31.5854C16.736 31.5879 17.7913 31.5954 18.8323 32.0575C18.9539 32.1115 19.0473 32.2096 19.0951 32.3337C19.1429 32.4579 19.1394 32.5933 19.0854 32.7151C19.0056 32.8951 18.8266 33.0113 18.6296 33.0113C18.5603 33.0113 18.4926 32.9968 18.428 32.9682C17.5765 32.5903 16.7088 32.5841 16.3823 32.5818L16.3478 32.5816C16.2803 32.581 16.2152 32.5673 16.1545 32.541C15.813 32.393 15.4163 32.5499 15.2683 32.8913C15.1204 33.2327 15.2772 33.6296 15.6186 33.7775C15.8457 33.876 16.087 33.927 16.3368 33.9293L16.3724 33.9295C16.6224 33.9313 17.2864 33.9361 17.8811 34.2001C18.1188 34.3056 18.3707 34.3592 18.6295 34.3592C19.359 34.3592 20.0214 33.9285 20.317 33.262C20.5172 32.8114 20.5297 32.3098 20.3526 31.8497C20.1753 31.3896 19.8296 31.026 19.379 30.8259C18.0814 30.2499 16.815 30.2409 16.3997 30.238L16.352 30.2376C16.2471 30.2376 16.1418 30.2466 16.039 30.2642C15.6723 30.3271 15.426 30.6754 15.489 31.0422Z" fill="#33658A"/>
</g>
<defs>
<clipPath id="clip0">
<rect width="46" height="46" fill="white"/>
</clipPath>
</defs>
</svg>
