<svg width="40" height="40" viewBox="0 0 40 40" fill="none" xmlns="http://www.w3.org/2000/svg">
<path d="M34.7221 8.2223C32.2043 7.55032 29.7445 6.67714 27.3666 5.61119C25.027 4.59632 22.7686 3.40395 20.611 2.04453L19.9999 1.66675L19.3999 2.05564C17.2423 3.41506 14.9838 4.60743 12.6443 5.6223C10.2624 6.68502 7.79894 7.55449 5.27767 8.2223L4.44434 8.43341V17.7001C4.44434 32.5779 19.4777 38.1445 19.6221 38.2001L19.9999 38.3334L20.3777 38.2001C20.5332 38.2001 35.5554 32.589 35.5554 17.7001V8.43341L34.7221 8.2223ZM33.3332 17.7001C33.3332 29.9223 22.2221 35.0445 19.9999 35.9556C17.7777 35.0445 6.66656 29.9112 6.66656 17.7001V10.1556C9.01042 9.48182 11.3048 8.64649 13.5332 7.65564C15.7618 6.6923 17.9223 5.57862 19.9999 4.3223C22.0774 5.57862 24.238 6.6923 26.4666 7.65564C28.695 8.64649 30.9894 9.48182 33.3332 10.1556V17.7001Z" fill="#33658A"/>
<path d="M25.3441 11.989L19.9997 17.3445L14.6552 12.0001C14.4427 11.8181 14.1693 11.7229 13.8896 11.7337C13.61 11.7445 13.3447 11.8605 13.1468 12.0584C12.949 12.2562 12.833 12.5215 12.8222 12.8011C12.8114 13.0808 12.9065 13.3542 13.0886 13.5668L18.433 18.889L13.0886 24.2334C12.9723 24.333 12.8778 24.4556 12.8111 24.5935C12.7444 24.7313 12.7069 24.8815 12.701 25.0345C12.6951 25.1875 12.7209 25.3401 12.7768 25.4827C12.8326 25.6253 12.9173 25.7548 13.0256 25.863C13.1339 25.9713 13.2634 26.0561 13.406 26.1119C13.5486 26.1678 13.7012 26.1936 13.8542 26.1876C14.0072 26.1817 14.1574 26.1443 14.2952 26.0776C14.4331 26.0109 14.5556 25.9164 14.6552 25.8001L19.9997 20.4779L25.3441 25.8223C25.5567 26.0043 25.8301 26.0995 26.1097 26.0887C26.3894 26.0779 26.6547 25.9619 26.8525 25.7641C27.0504 25.5662 27.1663 25.3009 27.1771 25.0213C27.1879 24.7416 27.0928 24.4682 26.9108 24.2556L21.5664 18.889L26.9108 13.5445C27.0928 13.332 27.1879 13.0586 27.1771 12.7789C27.1663 12.4993 27.0504 12.234 26.8525 12.0361C26.6547 11.8382 26.3894 11.7223 26.1097 11.7115C25.8301 11.7007 25.5567 11.7958 25.3441 11.9779V11.989Z" fill="#33658A"/>
</svg>
