<svg width="169" height="168" viewBox="0 0 169 168" fill="none" xmlns="http://www.w3.org/2000/svg">
<path fill-rule="evenodd" clip-rule="evenodd" d="M81.9359 34.7022C89.5216 36.3117 93.9884 43.5582 99.4841 48.9883C104.017 53.4672 108.278 57.8539 111.121 63.5393C114.426 70.1485 120.188 77.5615 117.136 84.2893C114.041 91.113 104.242 90.967 97.3242 93.9529C92.1961 96.1665 87.3451 98.0747 81.9359 99.484C74.3106 101.471 66.2756 107.486 59.289 103.862C52.4044 100.292 51.7029 90.7087 50.3752 83.1163C49.2074 76.4382 51.0326 70.0409 52.2072 63.364C53.621 55.3269 52.0314 45.8583 57.9297 40.1718C63.9648 34.3532 73.7057 32.956 81.9359 34.7022Z" fill="#02C650" fill-opacity="0.09"/>
<path d="M84.5178 95.3258L74.7789 78.4576H94.2566L84.5178 95.3258Z" fill="#02C650"/>
<path d="M85.9158 126.772H83.1196V92.0051H85.9158V126.772Z" fill="#02C650"/>
<path d="M106.887 67V69.7962H62.1479V67H106.887Z" fill="#33658A"/>
<path d="M106.93 67.0715V75.4602H104.134V67.0715H106.93Z" fill="#33658A"/>
<path d="M106.937 72.7214V75.5175H62.1973V72.7214H106.937Z" fill="#33658A"/>
<path d="M64.9077 67.0715V75.4602H62.1116V67.0715H64.9077Z" fill="#33658A"/>
<path d="M104.157 69.7599V72.7193H64.8964V69.7599H104.157Z" fill="#02C650"/>
<path d="M100.295 74.0154L102.717 75.4135L87.0325 102.58L84.611 101.182L100.295 74.0154Z" fill="#33658A"/>
<path d="M66.5119 75.3014L68.9334 73.9033L84.6178 101.07L82.1963 102.468L66.5119 75.3014Z" fill="#33658A"/>
<path d="M84.7175 101.205L87.139 99.8069L102.604 126.592L100.182 127.991L84.7175 101.205Z" fill="#33658A"/>
<path d="M82.1446 99.7876L84.5661 101.186L69.1015 127.971L66.6799 126.573L82.1446 99.7876Z" fill="#33658A"/>
<path d="M106.93 126.554V134.943H104.134V126.554H106.93Z" fill="#33658A"/>
<path d="M106.739 132.204V135H62V132.204H106.739Z" fill="#33658A"/>
<path d="M64.9077 126.554V134.943H62.1116V126.554H64.9077Z" fill="#33658A"/>
<path d="M106.887 126.581V129.377H62.1479V126.581H106.887Z" fill="#33658A"/>
<path d="M104.116 129.419V132.215H64.9695V129.419H104.116Z" fill="#02C650"/>
</svg>
