<svg width="62" height="62" viewBox="0 0 62 62" fill="none" xmlns="http://www.w3.org/2000/svg">
<path d="M45.0016 43.4513L49.6305 41.6165C50.1404 41.4133 50.4653 40.9075 50.4309 40.3562L50.1216 35.3905L53.2127 31.4857C53.5543 31.0544 53.5777 30.4533 53.2735 29.995L50.52 25.8451L51.2475 20.9229C51.3297 20.3783 51.0396 19.8377 50.5572 19.6019L46.0945 17.3858L44.2597 12.7569C44.0566 12.2434 43.5506 11.9257 43.0011 11.9584L38.0336 12.2694L34.1288 9.17831C33.6991 8.83862 33.0964 8.81335 32.6398 9.11588L28.49 11.8693L23.5659 11.1435C23.023 11.0632 22.4901 11.3428 22.2449 11.8339L20.029 16.2929L15.4001 18.1277C14.8885 18.3291 14.567 18.8386 14.6016 19.3863L14.9146 24.3521L11.8234 28.2569C11.4819 28.6882 11.4549 29.2891 11.7591 29.7476L14.5125 33.8975L13.7885 38.8198C13.7063 39.3681 13.9877 39.8992 14.4807 40.1427L18.9362 42.3584L20.7709 46.9873C20.8295 47.1335 20.912 47.2646 21.0169 47.3786C21.2695 47.6534 21.6402 47.8127 22.0331 47.786L26.9971 47.4748L30.9019 50.566C31.3333 50.9074 31.936 50.9327 32.3944 50.6285L36.5443 47.875L41.4647 48.6008C42.0113 48.6812 42.5405 48.4015 42.7858 47.9104L45.0016 43.4513Z" fill="#6165D7"/>
<path d="M28.7858 27.6513C26.6859 27.6513 24.9771 25.9424 24.9771 23.8425C24.9771 21.7426 26.6859 20.0337 28.7858 20.0337C30.8858 20.0337 32.5946 21.7426 32.5946 23.8425C32.5946 25.9424 30.8858 27.6513 28.7858 27.6513ZM28.7858 22.5729C28.085 22.5729 27.5162 23.1417 27.5162 23.8425C27.5162 24.5433 28.085 25.1121 28.7858 25.1121C29.4867 25.1121 30.0554 24.5433 30.0554 23.8425C30.0554 23.1417 29.4867 22.5729 28.7858 22.5729Z" fill="#F9F9F9"/>
<path d="M36.4016 40.3461C34.3016 40.3461 32.5928 38.6372 32.5928 36.5373C32.5928 34.4374 34.3016 32.7285 36.4016 32.7285C38.5015 32.7285 40.2104 34.4374 40.2104 36.5373C40.2104 38.6372 38.5015 40.3461 36.4016 40.3461ZM36.4016 35.2677C35.7032 35.2677 35.132 35.839 35.132 36.5373C35.132 37.2356 35.7032 37.8069 36.4016 37.8069C37.0999 37.8069 37.6712 37.2356 37.6712 36.5373C37.6712 35.839 37.0999 35.2677 36.4016 35.2677Z" fill="#F9F9F9"/>
<path d="M26.2455 40.3462C25.9891 40.3462 25.7326 40.2701 25.5092 40.11C24.9378 39.7013 24.8058 38.9091 25.2146 38.3377L37.9106 20.5633C38.3194 19.992 39.1116 19.86 39.683 20.2688C40.2543 20.6751 40.3838 21.4698 39.9775 22.0386L27.2815 39.813C27.0301 40.1609 26.6416 40.3462 26.2455 40.3462Z" fill="#F9F9F9"/>
<g opacity="0.05">
<path d="M13.648 -4.03615e-05L46.1766 53.7387L32.5287 62L0 8.26123L13.648 -4.03615e-05Z" fill="#C1E1FF"/>
</g>
</svg>
