<svg width="150" height="30" viewBox="0 0 150 30" fill="none" xmlns="http://www.w3.org/2000/svg">
<path d="M15 2.5L18.8625 10.325L27.5 11.5875L21.25 17.675L22.725 26.275L15 22.2125L7.275 26.275L8.75 17.675L2.5 11.5875L11.1375 10.325L15 2.5Z" fill="#F3D466"/>
<path d="M45 2.5L48.8625 10.325L57.5 11.5875L51.25 17.675L52.725 26.275L45 22.2125L37.275 26.275L38.75 17.675L32.5 11.5875L41.1375 10.325L45 2.5Z" fill="#F3D466"/>
<path d="M75 2.5L78.8625 10.325L87.5 11.5875L81.25 17.675L82.725 26.275L75 22.2125L67.275 26.275L68.75 17.675L62.5 11.5875L71.1375 10.325L75 2.5Z" fill="#F3D466"/>
<path d="M105 2.5L108.862 10.325L117.5 11.5875L111.25 17.675L112.725 26.275L105 22.2125L97.275 26.275L98.75 17.675L92.5 11.5875L101.137 10.325L105 2.5Z" fill="#F3D466"/>
<path d="M135 2.5L138.862 10.325L147.5 11.5875L141.25 17.675L142.725 26.275L135 22.2125L127.275 26.275L128.75 17.675L122.5 11.5875L131.137 10.325L135 2.5Z" fill="#F3D466"/>
<path d="M141.2 17.7L142.7 26.3L135 22.2L132 23.8V8.6L135 2.5L138.9 10.3L147.5 11.6L141.2 17.7Z" fill="#E5E5E5"/>
<path d="M132 8.6001V23.8001L127.3 26.3001L128.8 17.7001L122.5 11.6001L131.1 10.3001L132 8.6001Z" fill="#F3D466"/>
</svg>
