<svg width="60" height="64" viewBox="0 0 60 64" fill="none" xmlns="http://www.w3.org/2000/svg">
<path fill-rule="evenodd" clip-rule="evenodd" d="M2.30761 28.2922C2.55938 28.2922 2.7539 28.4907 2.7539 28.7476C2.7539 29.0045 2.55938 29.2029 2.30761 29.2029C2.05585 29.2029 1.86133 29.0045 1.86133 28.7476C1.86133 28.4907 2.05585 28.2922 2.30761 28.2922ZM2.30761 27.3816C1.57347 27.3816 0.96875 27.9985 0.96875 28.7476C0.96875 29.4966 1.57347 30.1136 2.30761 30.1136C3.04176 30.1136 3.64647 29.4966 3.64647 28.7476C3.64647 27.9985 3.04176 27.3816 2.30761 27.3816Z" fill="#97A5AA"/>
<path fill-rule="evenodd" clip-rule="evenodd" d="M13.9252 44.1312C13.7713 44.2067 13.6582 44.3455 13.6155 44.5114C13.5728 44.6774 13.6045 44.8542 13.7026 44.9959L13.707 45.0017L14.3236 45.8785L13.3052 46.1999L13.299 46.203C12.9997 46.3089 12.8393 46.6322 12.9355 46.9355C13.0318 47.2388 13.3504 47.4138 13.6573 47.3321L13.6635 47.329L13.6809 47.3205L14.6837 47.0175L14.6828 48.0358L14.6816 48.086L14.6823 48.0936C14.6811 48.4194 14.944 48.6867 15.2706 48.6916C15.5971 48.6965 15.8644 48.4372 15.8685 48.1115L15.8678 48.1039L15.883 47.0369L16.83 47.3515L16.9007 47.3756L16.9082 47.3785C17.2148 47.4715 17.5383 47.3057 17.6395 47.0038C17.7407 46.7019 17.5831 46.3726 17.2833 46.2596L17.2757 46.2567L16.2631 45.9065L16.84 45.121L16.8946 45.0479L16.8995 45.0455C17.0797 44.7839 17.0189 44.4255 16.762 44.2348C16.5051 44.044 16.1443 44.0893 15.9458 44.3372L15.9409 44.3397L15.9397 44.3403L15.2996 45.1908L14.6835 44.3367L14.6723 44.3204L14.6679 44.3146C14.4968 44.0817 14.1833 44.0043 13.9252 44.1313L13.9252 44.1312Z" fill="#FF725B"/>
<path d="M36.598 0.229492C49.0774 0.229492 59.2097 10.2986 59.2097 22.7001C59.2097 35.1016 49.0774 45.1706 36.598 45.1706C24.1186 45.1706 13.9863 35.1016 13.9863 22.7001C13.9863 10.2986 24.1186 0.229492 36.598 0.229492Z" fill="#23B26D"/>
<path d="M25.7348 21.2153L23.418 23.5177L33.1345 33.1736L49.7657 16.6462L47.4488 14.3438L33.1345 28.5688L25.7348 21.2153Z" fill="white"/>
</svg>
