<svg width="80" height="91" viewBox="0 0 80 91" fill="none" xmlns="http://www.w3.org/2000/svg">
<path d="M64.7879 56.6146C64.7879 70.3299 53.6673 81.4505 39.952 81.4505C26.2367 81.4505 15.1162 70.3299 15.1162 56.6146C15.1162 44.8862 23.2475 35.0557 34.1783 32.4549C35.8182 32.0635 37.5203 31.8352 39.267 31.7907C39.4953 31.7818 39.7237 31.7788 39.952 31.7788C53.6673 31.7788 64.7879 42.8964 64.7879 56.6146Z" fill="#D01958"/>
<path d="M39.4781 67.9312C46.5157 67.9312 52.2296 69.1271 52.2296 70.6001C52.2296 72.0731 46.5157 73.269 39.4781 73.269C32.4405 73.269 26.7266 72.0731 26.7266 70.6001C26.7266 69.1271 32.4405 67.9312 39.4781 67.9312Z" fill="#EDEDED"/>
<path d="M47.8762 53.5967C49.8755 53.7465 51.3698 55.518 51.1503 57.5108C50.943 59.3951 50.4155 61.6245 49.2509 63.7143C48.3921 65.2552 46.7632 68.1818 43.1785 69.5616C42.6018 69.7837 39.2751 71.0052 35.5321 69.5616C31.9486 68.1794 30.3214 65.2534 29.4597 63.7143C28.2047 61.4724 27.7249 59.2486 27.5816 57.4319C27.4304 55.5142 28.8091 53.8093 30.715 53.5472C33.2668 53.1961 36.1575 52.9568 39.3291 52.9556L47.8762 53.5967Z" fill="white"/>
<path d="M39.6257 53.9932C45.1085 53.9932 49.5601 55.0562 49.5601 56.3655C49.5601 57.6749 45.1085 58.7379 39.6257 58.7379C34.143 58.7379 29.6914 57.6749 29.6914 56.3655C29.6914 55.0562 34.143 53.9932 39.6257 53.9932Z" fill="#EDEDED"/>
<path d="M39.6257 53.9932C45.1085 53.9932 49.5601 55.0562 49.5601 56.3655C49.5601 57.6749 45.1085 58.7379 39.6257 58.7379C34.143 58.7379 29.6914 57.6749 29.6914 56.3655C29.6914 55.0562 34.143 53.9932 39.6257 53.9932Z" fill="#995234"/>
<path d="M32.8223 56.2178C34.4435 56.5205 36.7471 56.8331 39.5201 56.8097C41.6552 56.7916 43.578 56.541 45.2437 56.221" stroke="#DE8A40" stroke-width="2" stroke-miterlimit="10" stroke-linecap="round"/>
<g opacity="0.312486">
<path d="M36.3376 47.6962L34.5293 45.8881L36.3376 44.0798L38.1457 45.8881L36.3376 47.6962Z" fill="#7BFFE9"/>
</g>
<path d="M49.986 58.2201C50.2716 58.0576 51.4006 57.4639 52.789 57.753C54.0019 58.0057 55.1127 58.876 55.5917 60.0886C56.3114 61.9109 55.2346 63.5802 54.8675 64.1489C54.7379 64.3497 53.4174 66.3238 50.9204 66.6287C50.1717 66.72 48.9357 66.8718 48.1175 66.1616C46.3367 64.6157 47.2738 59.7621 49.986 58.2201Z" stroke="white" stroke-width="6" stroke-miterlimit="10"/>
<path d="M80 50.5883C80 72.6778 62.0896 90.5883 40 90.5883C17.9104 90.5883 0 72.6778 0 50.5883C0 31.6987 13.0961 15.8659 30.7009 11.6772C33.3421 11.0468 36.0836 10.679 38.8967 10.6074C39.2645 10.593 39.6322 10.5883 40 10.5883C62.0896 10.5883 80 28.4939 80 50.5883Z" fill="#D01958"/>
<path d="M39.2356 68.8137C50.5701 68.8137 59.7729 70.7399 59.7729 73.1122C59.7729 75.4846 50.5701 77.4107 39.2356 77.4107C27.901 77.4107 18.6982 75.4846 18.6982 73.1122C18.6982 70.7399 27.901 68.8137 39.2356 68.8137Z" fill="#EDEDED"/>
<path d="M52.7627 45.7271C55.9828 45.9683 58.3895 48.8216 58.036 52.0311C57.7022 55.0659 56.8525 58.6566 54.9769 62.0223C53.5938 64.504 50.9702 69.2175 45.1969 71.4398C44.2679 71.7976 38.91 73.7649 32.8816 71.4398C27.1102 69.2137 24.4895 64.5011 23.1016 62.0223C21.0803 58.4115 20.3075 54.8299 20.0769 51.9041C19.8333 48.8154 22.0537 46.0696 25.1233 45.6474C29.2332 45.0819 33.8889 44.6964 38.997 44.6945L52.7627 45.7271Z" fill="white"/>
<path d="M39.4746 46.3661C48.305 46.3661 55.4746 48.0782 55.4746 50.187C55.4746 52.2957 48.305 54.0079 39.4746 54.0079C30.6442 54.0079 23.4746 52.2957 23.4746 50.187C23.4746 48.0782 30.6442 46.3661 39.4746 46.3661Z" fill="#EDEDED"/>
<path d="M39.4746 46.3661C48.305 46.3661 55.4746 48.0782 55.4746 50.187C55.4746 52.2957 48.305 54.0079 39.4746 54.0079C30.6442 54.0079 23.4746 52.2957 23.4746 50.187C23.4746 48.0782 30.6442 46.3661 39.4746 46.3661Z" fill="#995234"/>
<path d="M28.5156 49.9482C30.4614 50.3116 33.0176 50.6837 36.0418 50.8342" stroke="#DE8A40" stroke-width="2" stroke-miterlimit="10" stroke-linecap="round"/>
<g opacity="0.714662">
<path opacity="0.714662" d="M44.2697 18.8596C42.7905 15.6257 39.4912 13.507 39.2366 9.11248C39.1425 7.49385 39.1654 5.44872 40.3146 3" stroke="#DE8A40" stroke-width="5" stroke-linecap="round" stroke-linejoin="round"/>
</g>
<g opacity="0.45209">
<path opacity="0.45209" d="M31.7539 33.8068C33.2469 28.6066 37.554 27.3911 37.8033 22.4855C38.0059 18.4975 35.3064 16.4012 33.5373 13.526" stroke="#DE8A40" stroke-width="5" stroke-linecap="round" stroke-linejoin="round"/>
</g>
<g opacity="0.831511">
<path opacity="0.831511" d="M26.5213 31.7597L28.5404 35.1247C28.671 35.3427 28.9009 35.4819 29.1541 35.4975L33.071 35.7421C33.7092 35.7818 34.0249 36.5364 33.6049 37.0186L31.0283 39.9786C30.8615 40.1704 30.8 40.432 30.8634 40.6777L31.8414 44.4776C32.0009 45.0971 31.3809 45.6304 30.7926 45.3801L27.1809 43.8447C26.9474 43.7456 26.6796 43.7676 26.4655 43.9035L23.153 46.0082C22.6135 46.3512 21.9147 45.9262 21.971 45.289L22.3152 41.3804C22.3377 41.1277 22.2342 40.8796 22.0383 40.7177L19.0129 38.2182C18.5198 37.811 18.7081 37.015 19.3312 36.8717L23.1555 35.9907C23.4029 35.9339 23.6069 35.759 23.7001 35.5226L25.1426 31.8731C25.3776 31.2786 26.1924 31.2116 26.5213 31.7597Z" fill="#FFFAE6"/>
</g>
<g opacity="0.788382">
<path opacity="0.788382" d="M53.7485 10.8604L63.5876 12.0101C64.1826 12.0796 64.4539 12.789 64.0577 13.2378L58.6383 19.3755C58.2421 19.8243 58.5134 20.5337 59.1084 20.6032L64.6436 21.25C65.2648 21.3226 65.5231 22.0835 65.0748 22.5192L52.8202 34.4278C52.2286 35.0029 51.2811 34.3281 51.6313 33.5811L54.5343 27.3836C54.749 26.9248 54.4516 26.3908 53.9488 26.3321L46.3259 25.4414C45.8018 25.3802 45.5076 24.8068 45.7631 24.3451L53.0134 11.2382C53.1592 10.975 53.4493 10.8255 53.7485 10.8604Z" fill="#FFFAE6"/>
</g>
<g opacity="0.756468">
<path d="M48.5072 46.6309L45.5947 43.7189L48.5072 40.8065L51.4192 43.7189L48.5072 46.6309Z" fill="#7BFFE9"/>
</g>
<g opacity="0.354178">
<path d="M35.4685 21.0095L30.0996 15.6411L35.3452 10.396L40.7136 15.7643L35.4685 21.0095Z" fill="#FF8ACC"/>
</g>
<path d="M56.16 53.1736C56.6199 52.9118 58.4382 51.9556 60.6744 52.4213C62.6278 52.8282 64.4169 54.23 65.1883 56.183C66.3474 59.1179 64.6132 61.8064 64.0219 62.7224C63.8132 63.0458 61.6864 66.2252 57.6649 66.7162C56.459 66.8633 54.4683 67.1079 53.1505 65.964C50.2825 63.4742 51.7917 55.6571 56.16 53.1736Z" stroke="white" stroke-width="6" stroke-miterlimit="10"/>
</svg>
