<svg width="325" height="357" viewBox="0 0 325 357" fill="none" xmlns="http://www.w3.org/2000/svg">
<g filter="url(#filter0_d)">
<path d="M-21.5458 172.291C-16.9468 190.293 -0.0874615 252.587 57.4313 296.484C148.165 365.73 290.401 351.285 309.225 306.595C317.957 285.862 294.043 273.072 287.819 215.118C281.982 160.769 300.709 150.548 293.337 117.87C278.85 53.6494 188.175 12.3741 116.167 6.65689C93.6287 4.86741 20.122 -0.968638 -12.3777 42.7649C-42.9852 83.9522 -29.8954 139.607 -21.5458 172.291Z" fill="#F4F7FA"/>
<path d="M184.081 275.319L216.618 283.544C216.618 283.544 226.963 268.402 221.967 254.607C211.774 226.46 237.136 219.497 247.323 214.992C262.685 208.197 271.615 196.657 258.319 184.346C243.275 170.417 265.061 148.97 291.452 141.572C317.278 134.333 319.312 84.247 261.976 94.7833C227.736 101.076 224.317 134.828 218.538 151.463C212.76 168.097 187.108 163.109 190.513 186.076C193.421 205.693 204.2 222.186 190.393 231.677C176.586 241.167 172.018 254.568 184.081 275.319Z" fill="url(#paint0_linear)"/>
<g style="mix-blend-mode:soft-light">
<g style="mix-blend-mode:soft-light">
<g style="mix-blend-mode:soft-light">
<path d="M197.399 281.899L198.106 281.946C198.135 281.508 201.204 237.68 217.348 195.149C232.221 155.967 261.557 109.9 316.853 112.949L316.892 112.241C292.277 110.884 270.672 118.978 252.677 136.298C238.301 150.133 226.191 169.854 216.681 194.911C200.503 237.54 197.428 281.46 197.399 281.899Z" fill="#BEB8F2"/>
</g>
</g>
<g style="mix-blend-mode:soft-light">
<g style="mix-blend-mode:soft-light">
<path d="M245.47 143.859L246.173 143.947C249.084 120.546 265.874 90.5037 266.043 90.203L265.426 89.8552C265.256 90.1574 248.398 120.321 245.47 143.859Z" fill="#BEB8F2"/>
</g>
</g>
<g style="mix-blend-mode:soft-light">
<g style="mix-blend-mode:soft-light">
<path d="M257.776 132.648C284.541 124.087 304.398 136.461 304.595 136.587L304.976 135.99C304.776 135.862 284.654 123.307 257.56 131.973L257.776 132.648Z" fill="#BEB8F2"/>
</g>
</g>
<g style="mix-blend-mode:soft-light">
<g style="mix-blend-mode:soft-light">
<path d="M208.309 223.529C224.176 193.086 270.231 196.278 270.677 196.346L270.83 195.655C270.398 195.547 223.689 192.488 207.681 223.202L208.309 223.529Z" fill="#BEB8F2"/>
</g>
</g>
<g style="mix-blend-mode:soft-light">
<g style="mix-blend-mode:soft-light">
<path d="M211.566 209.753L212.275 209.783C213.207 187.896 194.268 167.886 194.076 167.686L193.565 168.177C193.754 168.374 212.486 188.171 211.566 209.753Z" fill="#BEB8F2"/>
</g>
</g>
<g style="mix-blend-mode:soft-light">
<g style="mix-blend-mode:soft-light">
<path d="M198.741 275.06C202.918 262.705 223.437 257.274 223.644 257.22L223.467 256.534C222.608 256.756 202.37 262.114 198.07 274.833L198.741 275.06Z" fill="#BEB8F2"/>
</g>
</g>
<g style="mix-blend-mode:soft-light">
<g style="mix-blend-mode:soft-light">
<path d="M199.329 264.671L200.035 264.726C200.844 254.446 188.723 239.703 184.74 234.858C184.177 234.173 183.691 233.582 183.625 233.46L182.997 233.787C183.087 233.961 183.409 234.354 184.193 235.308C188.131 240.098 200.115 254.676 199.329 264.671Z" fill="#BEB8F2"/>
</g>
</g>
</g>
<path d="M214.688 147.78C220.062 153.144 219.2 160.457 217.747 165.651C217.052 165.872 216.708 166.177 216.059 166.555C210.195 169.963 206.968 170.167 200.658 172.614C199.3 173.141 194.844 173.474 193.014 173.494L189.603 173.475C189.603 173.475 178.84 159.707 185.953 152.755C193.066 145.804 184.503 131.43 180.905 123.256C178.695 118.237 179.292 115.234 178.777 113.259C173.317 92.3566 165.159 88.2913 167.559 80.4035C170.208 71.696 180.909 74.1577 184.291 64.8376C188.111 54.3134 177.031 44.1086 182.872 34.957C183.873 33.388 184.944 31.803 186.994 30.4025C192.055 26.9455 197.658 28.7275 200.153 22.8295C205.168 10.9744 217.334 3.4855 228.546 10.575C239.612 17.5719 236.541 39.3352 218.068 61.8227C206.754 79.3128 207.803 83.1642 212.185 91.9727C215.254 98.1427 227.663 112.838 220.484 122.493C213.305 132.149 208.544 141.647 214.688 147.78Z" fill="url(#paint1_linear)"/>
<g style="mix-blend-mode:soft-light">
<g style="mix-blend-mode:soft-light">
<g style="mix-blend-mode:soft-light">
<path d="M204.103 171.805L203.613 171.897C203.075 169.197 202.569 166.467 202.108 163.783C198.696 143.909 197.412 124.422 198.293 105.862C199.039 90.1359 201.346 74.8537 205.149 60.4401C208.208 48.8487 212.246 37.7535 217.153 27.4629C220.603 20.2288 224.442 13.4638 228.565 7.35637C229.283 6.29191 230.081 5.23942 230.853 4.22155C231.881 2.86547 232.944 1.46321 233.827 0.0216598L234.259 0.244232C233.364 1.70559 232.294 3.11739 231.259 4.48275C230.491 5.49555 229.696 6.54285 228.985 7.59649C224.875 13.6848 221.048 20.4295 217.608 27.6432C212.713 37.9084 208.685 48.9771 205.633 60.5418C201.837 74.9256 199.535 90.1775 198.791 105.874C197.911 124.402 199.193 143.858 202.6 163.701C203.06 166.381 203.566 169.108 204.103 171.805Z" fill="#FCFDFE"/>
</g>
</g>
<g style="mix-blend-mode:soft-light">
<g style="mix-blend-mode:soft-light">
<path d="M201.783 78.2386L201.289 78.1869C204.113 58.4551 185.724 29.3699 185.537 29.0785L185.967 28.8365C186.154 29.1294 204.63 58.3489 201.783 78.2386Z" fill="#FCFDFE"/>
</g>
</g>
<g style="mix-blend-mode:soft-light">
<g style="mix-blend-mode:soft-light">
<path d="M199.081 133.982L198.583 133.984C198.817 120.397 220.363 103.24 220.58 103.069L220.899 103.419C220.683 103.589 199.311 120.608 199.081 133.982Z" fill="#FCFDFE"/>
</g>
</g>
<g style="mix-blend-mode:soft-light">
<g style="mix-blend-mode:soft-light">
<path d="M199.666 141.688L199.174 141.772C197.635 133.049 190.5 122.011 179.082 110.69C178.508 110.121 178.508 110.121 178.491 110.035L178.982 109.945L178.737 109.99L178.947 109.864C178.981 109.906 179.197 110.121 179.449 110.37C190.932 121.755 198.112 132.878 199.666 141.688Z" fill="#FCFDFE"/>
</g>
</g>
<g style="mix-blend-mode:soft-light">
<g style="mix-blend-mode:soft-light">
<path d="M203.196 166.862L202.702 166.812C204.049 157.101 217.353 149.281 217.487 149.203L217.745 149.594C217.612 149.671 204.512 157.373 203.196 166.862Z" fill="#FCFDFE"/>
</g>
</g>
<g style="mix-blend-mode:soft-light">
<g style="mix-blend-mode:soft-light">
<path d="M203.396 172.063C199.111 165.345 192.584 159.589 183.441 154.465L183.705 154.067C192.918 159.23 199.499 165.038 203.826 171.821L203.396 172.063Z" fill="#FCFDFE"/>
</g>
</g>
<g style="mix-blend-mode:soft-light">
<g style="mix-blend-mode:soft-light">
<path d="M214.823 33.7456L214.334 33.6681C216.561 22.7666 216.189 10.8851 216.067 6.98073C216.037 6.03562 216.028 5.70295 216.046 5.58609L216.539 5.64445C216.526 5.73377 216.543 6.2741 216.565 6.95812C216.688 10.8749 217.061 22.7943 214.823 33.7456Z" fill="#FCFDFE"/>
</g>
</g>
<g style="mix-blend-mode:soft-light">
<g style="mix-blend-mode:soft-light">
<path d="M208.389 51.0261L207.949 50.8177C213.175 41.5588 234.545 35.1324 235.452 34.8634L235.595 35.3039C235.375 35.3692 213.518 41.9403 208.389 51.0261Z" fill="#FCFDFE"/>
</g>
</g>
</g>
<path d="M217.75 237.978C216.026 237.965 216.988 228.959 210.714 218.322C209.147 215.664 201.603 200.576 188.963 201.622C186.51 201.825 184.056 202.028 181.602 202.231C178.849 196.992 177.225 191.544 184.389 188.562C195.515 183.932 193.246 164.715 189.175 158.303C184.137 150.368 172.807 131.663 189.888 124.249C204.108 118.076 214.621 116.836 213.267 98.724C211.913 80.6121 220.828 68.1572 238.26 67.1808C256.604 66.1533 268.488 41.5343 284.41 47.4138C312.153 57.6592 293.89 100.087 263.828 115.311C233.766 130.534 253.313 139.13 256.122 153.75C256.306 155.122 256.485 157.263 256.217 159.831C254.564 175.638 238.809 180.196 228.811 194.164C215.175 213.214 220.655 238.002 217.75 237.978Z" fill="url(#paint2_linear)"/>
<g style="mix-blend-mode:soft-light">
<g style="mix-blend-mode:soft-light">
<g style="mix-blend-mode:soft-light">
<path d="M203.791 198.172L202.928 198.109C207.829 138.558 243.335 81.5412 295.591 49.3102L296.064 49.9941C244.029 82.0893 208.672 138.868 203.791 198.172Z" fill="#FCFDFE"/>
</g>
</g>
<g style="mix-blend-mode:soft-light">
<g style="mix-blend-mode:soft-light">
<path d="M209.41 165.92L208.551 166.019C205.541 142.718 182.054 126.986 181.817 126.83L182.313 126.161C182.553 126.318 206.353 142.251 209.41 165.92Z" fill="#FCFDFE"/>
</g>
</g>
<g style="mix-blend-mode:soft-light">
<g style="mix-blend-mode:soft-light">
<path d="M205.009 187.239L204.203 186.941C213.405 164.783 258.515 156.608 258.969 156.528L259.128 157.331C258.678 157.41 214.036 165.503 205.009 187.239Z" fill="#FCFDFE"/>
</g>
</g>
<g style="mix-blend-mode:soft-light">
<g style="mix-blend-mode:soft-light">
<path d="M233.416 111.934L232.585 111.702C238.268 93.6003 222.959 68.5131 222.803 68.2618L223.551 67.8499C223.708 68.1042 239.204 93.4977 233.416 111.934Z" fill="#FCFDFE"/>
</g>
</g>
<g style="mix-blend-mode:soft-light">
<g style="mix-blend-mode:soft-light">
<path d="M257.297 81.4172L256.758 80.7779C274.593 67.3786 305.253 70.1202 305.561 70.1499L305.474 70.9629C305.17 70.9334 274.855 68.2263 257.297 81.4172Z" fill="#FCFDFE"/>
</g>
</g>
</g>
<path d="M188.77 71.644L-7.48291 89.5849C4.37397 96.9095 22.7233 111.591 33.7685 141.335C55.5143 199.895 31.3538 254.439 57.4892 293.827C64.443 304.307 79.4369 323.287 102.601 327.94L290.026 302.386C228.653 284.593 212.007 250.951 208.806 222.268C205.593 193.484 214.734 159.055 203.784 112.727C199.307 93.7812 193.196 80.15 188.77 71.644Z" fill="url(#paint3_linear)"/>
<path d="M16.7773 39.7053C74.4069 36.0867 132.037 32.4682 189.666 28.8496C197.425 35.4237 208.322 47.1111 215.423 67.3274C231.765 113.854 212.729 159.871 218.23 205.095C221.737 233.935 236.206 270.066 288.034 294.217C226.151 302.315 164.267 310.413 102.383 318.511C89.5968 313.613 72.5543 303.432 62.6929 279.744C52.238 254.629 59.5579 237.639 55.9561 158.695C53.4212 103.135 48.4354 81.2225 38.0501 63.6554C30.8593 51.4921 22.7548 44.1245 16.7773 39.7053Z" fill="white"/>
<path d="M205.693 200.843C205.73 201.298 205.768 201.754 205.809 202.209C205.848 202.638 205.539 203.019 205.111 203.066L69.9319 217.913C69.4611 217.965 69.0508 217.597 69.0552 217.124C69.0593 216.665 69.0633 216.203 69.0671 215.736C69.0703 215.335 69.3728 214.997 69.7712 214.954L204.82 200.121C205.263 200.072 205.657 200.399 205.693 200.843Z" fill="#D8DEE8"/>
<path d="M205.153 186.292C205.152 186.752 205.151 187.213 205.153 187.673C205.155 188.078 204.851 188.419 204.448 188.462L69.9742 202.784C69.5084 202.833 69.1023 202.472 69.1004 202.004C69.0985 201.545 69.0962 201.083 69.0938 200.619C69.0916 200.213 69.3967 199.869 69.8003 199.826L204.28 185.504C204.748 185.454 205.155 185.822 205.153 186.292Z" fill="#D8DEE8"/>
<path d="M207.624 215.245C207.71 215.695 207.797 216.145 207.887 216.593C207.979 217.047 207.664 217.481 207.203 217.533L69.7495 233.076C69.2769 233.129 68.8644 232.757 68.8702 232.281C68.8758 231.824 68.8816 231.362 68.8876 230.893C68.8927 230.495 69.1935 230.161 69.5893 230.116L206.761 214.605C207.172 214.559 207.547 214.838 207.624 215.245Z" fill="#D8DEE8"/>
<path d="M128.258 298.466L224.617 285.911C224.885 285.876 225.154 285.982 225.329 286.197C225.664 286.61 226.078 286.936 226.545 287.189C227.262 287.579 227.033 288.585 226.29 288.68L131.092 301.087C130.147 300.214 129.202 299.34 128.258 298.466Z" fill="#D8DEE8"/>
<path d="M205.659 171.64C205.63 172.104 205.602 172.569 205.575 173.034C205.553 173.421 205.255 173.734 204.87 173.774L69.8002 187.696C69.3399 187.744 68.9379 187.39 68.9291 186.927C68.9205 186.469 68.9113 186.008 68.902 185.545C68.8938 185.134 69.2019 184.783 69.611 184.741L204.792 170.807C205.277 170.757 205.689 171.153 205.659 171.64Z" fill="#D8DEE8"/>
<path d="M224.331 257.159C224.612 257.586 224.896 258.01 225.183 258.433C225.515 258.923 225.216 259.591 224.628 259.663L75.6481 277.884C75.3068 277.926 74.9762 277.744 74.8328 277.432C74.6314 276.993 74.4336 276.55 74.2393 276.103C74.0278 275.617 74.3394 275.063 74.8662 274.999L223.579 256.81C223.876 256.773 224.167 256.909 224.331 257.159Z" fill="#D8DEE8"/>
<path d="M216.663 243.449C216.868 243.885 217.075 244.32 217.285 244.753C217.523 245.243 217.211 245.819 216.671 245.884L71.0128 263.262C70.5979 263.312 70.2129 263.031 70.14 262.619C70.059 262.161 69.9827 261.7 69.9107 261.234C69.8425 260.793 70.1568 260.384 70.5996 260.331L215.857 243C216.195 242.96 216.519 243.141 216.663 243.449Z" fill="#D8DEE8"/>
<path d="M211.198 229.46C211.339 229.904 211.482 230.347 211.628 230.788C211.785 231.264 211.469 231.764 210.971 231.822L69.7403 248.238C69.2782 248.291 68.8686 247.937 68.8586 247.472C68.8487 247.014 68.8403 246.55 68.8331 246.081C68.827 245.675 69.1297 245.329 69.5327 245.282L210.356 228.913C210.732 228.87 211.084 229.1 211.198 229.46Z" fill="#D8DEE8"/>
<path d="M206.837 156.937C206.794 157.403 206.75 157.869 206.707 158.335C206.673 158.712 206.376 159.012 206 159.049L69.405 172.649C68.9502 172.694 68.5521 172.347 68.5369 171.89C68.5217 171.433 68.5061 170.973 68.4902 170.511C68.4758 170.095 68.7869 169.736 69.2016 169.695L205.973 156.078C206.468 156.029 206.884 156.442 206.837 156.937Z" fill="#D8DEE8"/>
<path d="M202.761 69.451C203.112 69.4243 203.44 69.6325 203.563 69.963C203.73 70.4126 203.894 70.8646 204.054 71.3206C204.056 71.3238 204.057 71.327 204.058 71.3303C204.229 71.8177 203.884 72.3337 203.369 72.373L59.7746 83.3111C59.3985 83.3397 59.0555 83.0956 58.9544 82.7322C58.8287 82.2803 58.7014 81.832 58.5728 81.3875C58.4332 80.9052 58.7697 80.4191 59.2705 80.381L202.761 69.451Z" fill="#D8DEE8"/>
<path d="M207.617 84.1479C207.712 84.6049 207.804 85.062 207.893 85.5194C207.983 85.982 207.648 86.42 207.178 86.4577L63.109 98.0356C62.7042 98.0681 62.3416 97.7857 62.2688 97.3863C62.1858 96.9306 62.1019 96.4784 62.0169 96.0297C61.9296 95.5678 62.2608 95.1348 62.7295 95.0972L206.777 83.5211C207.174 83.4892 207.536 83.7578 207.617 84.1479Z" fill="#D8DEE8"/>
<path d="M196.635 57.7143L54.5796 68.5134C54.2449 68.5389 53.9318 68.3476 53.7977 68.04C52.1833 64.3352 50.3989 60.8643 48.4234 57.5228C47.4279 55.839 46.3919 54.1998 45.319 52.6026C44.9783 52.0954 45.3093 51.4102 45.9189 51.3691L185.71 41.9486C185.941 41.933 186.168 42.0182 186.33 42.1828C190.496 46.4041 194.146 51.1963 197.262 56.5309C197.555 57.033 197.215 57.6702 196.635 57.7143Z" fill="#D8DEE8"/>
<path d="M208.276 142.23C208.231 142.695 208.186 143.161 208.14 143.628C208.103 144.005 207.805 144.303 207.428 144.34L68.8009 157.639C68.3512 157.682 67.957 157.338 67.9359 156.887C67.9143 156.426 67.8925 155.967 67.8706 155.509C67.8503 155.088 68.1646 154.727 68.5845 154.686L207.413 141.367C207.908 141.32 208.324 141.735 208.276 142.23Z" fill="#D8DEE8"/>
<path d="M209.534 127.562C209.502 128.026 209.468 128.491 209.434 128.956C209.406 129.342 209.101 129.652 208.716 129.688L67.9859 142.665C67.542 142.706 67.1524 142.37 67.1246 141.925C67.0957 141.464 67.0667 141.006 67.0373 140.55C67.0098 140.123 67.3271 139.753 67.7534 139.714L208.67 126.72C209.156 126.675 209.568 127.075 209.534 127.562Z" fill="#D8DEE8"/>
<path d="M210.158 112.969C210.153 113.433 210.146 113.897 210.138 114.361C210.131 114.765 209.819 115.099 209.416 115.135L66.8828 127.732C66.4473 127.77 66.0635 127.446 66.0259 127.01C65.9862 126.551 65.9461 126.094 65.9055 125.64C65.8667 125.204 66.1877 124.822 66.6229 124.784L209.296 112.175C209.762 112.133 210.163 112.502 210.158 112.969Z" fill="#D8DEE8"/>
<path d="M209.673 98.4893C209.711 98.9501 209.746 99.411 209.779 99.8722C209.81 100.304 209.487 100.68 209.055 100.717L65.3398 112.851C64.9166 112.887 64.5414 112.579 64.4893 112.157C64.4327 111.699 64.3753 111.244 64.3176 110.793C64.2604 110.346 64.5862 109.945 65.0346 109.907L208.817 97.767C209.252 97.7302 209.637 98.0537 209.673 98.4893Z" fill="#D8DEE8"/>
<path d="M154.213 289.855C154.092 290.577 154.119 291.338 154.239 292.072C154.319 292.435 154.396 292.801 154.534 293.141C154.646 293.494 154.808 293.817 154.973 294.139C155.644 295.422 156.619 296.429 157.651 297.275C159.743 298.953 162.132 300.026 164.566 300.796C167.005 301.568 169.521 302.012 172.051 302.202C177.105 302.572 182.281 301.891 187.029 299.894C189.402 298.884 191.6 297.531 193.608 295.969C195.616 294.402 197.451 292.622 199.052 290.614C199.849 289.607 200.595 288.547 201.227 287.387C201.855 286.228 202.41 284.986 202.649 283.53C202.761 282.804 202.791 282.007 202.578 281.171C202.52 280.963 202.467 280.755 202.369 280.551L202.232 280.245C202.178 280.14 202.101 280.024 202.032 279.916C201.744 279.485 201.325 279.112 200.903 278.892C200.041 278.422 199.252 278.354 198.539 278.311C197.821 278.28 197.152 278.334 196.504 278.412C193.924 278.733 191.559 279.376 189.178 279.987C186.812 280.632 184.461 281.279 182.098 281.875C179.737 282.478 177.365 283.022 174.975 283.503C172.582 283.957 170.175 284.352 167.755 284.648C162.916 285.236 158.044 285.562 153.172 285.593C148.3 285.638 143.427 285.392 138.597 284.811L138.594 284.811C137.898 284.727 137.265 285.224 137.181 285.921C137.097 286.618 137.594 287.25 138.291 287.334C138.34 287.34 138.39 287.343 138.438 287.343C143.377 287.359 148.3 287.312 153.213 287.074C155.668 286.941 158.122 286.817 160.569 286.592C161.794 286.498 163.017 286.376 164.24 286.265C165.46 286.126 166.683 286.011 167.901 285.848C172.775 285.255 177.654 284.608 182.501 283.738C184.922 283.304 187.333 282.818 189.731 282.343C190.928 282.099 192.117 281.842 193.302 281.619C194.483 281.399 195.659 281.169 196.796 281.054C197.364 280.991 197.919 280.968 198.424 280.986C198.924 281.002 199.388 281.093 199.602 281.227C199.913 281.29 200.193 282.166 200.014 283.121C199.865 284.087 199.432 285.128 198.894 286.111C198.358 287.102 197.694 288.055 196.975 288.966C195.53 290.788 193.832 292.445 191.985 293.891C190.135 295.336 188.131 296.57 186 297.482C181.716 299.301 176.923 299.939 172.229 299.648C169.88 299.494 167.54 299.099 165.307 298.413C163.079 297.736 160.922 296.763 159.179 295.383C157.432 294.021 156.228 292.137 156.554 290.201C156.698 289.225 154.443 288.405 154.213 289.855Z" fill="#02C650"/>
<path d="M149.848 259.839C149.619 259.656 149.393 259.47 149.19 259.287C149.089 259.196 148.994 259.104 148.92 259.025C148.887 258.988 148.854 258.95 148.847 258.938C148.834 258.923 148.857 258.949 148.858 258.959C148.874 258.987 148.887 259.018 148.896 259.05C148.909 259.084 148.941 259.217 148.931 259.299C148.94 259.444 148.856 259.67 148.765 259.785C148.649 259.936 148.526 260.003 148.49 260.022C148.407 260.062 148.367 260.071 148.355 260.076C148.334 260.083 148.296 260.086 148.302 260.087C148.292 260.09 148.284 260.088 148.303 260.089C148.311 260.089 148.33 260.089 148.354 260.091C148.442 260.098 148.565 260.114 148.692 260.139C148.947 260.186 149.224 260.257 149.498 260.335C150.602 260.654 151.711 261.097 152.783 261.592C154.928 262.591 156.973 263.835 158.734 265.356C160.485 266.87 161.961 268.712 162.615 270.799C163.307 272.887 162.995 275.102 161.989 277.123C160.993 279.161 159.469 281.014 157.95 282.95C157.19 283.92 156.422 284.921 155.737 286.038C155.056 287.143 154.443 288.405 154.213 289.855C154.091 290.577 154.119 291.338 154.239 292.072C154.318 292.436 154.396 292.801 154.534 293.141C154.646 293.495 154.808 293.817 154.973 294.139C155.644 295.422 156.816 293.028 156.554 290.201C156.698 289.226 157.14 288.221 157.733 287.249C158.32 286.272 159.032 285.318 159.767 284.354C161.233 282.426 162.842 280.459 163.979 278.073C164.549 276.889 164.953 275.57 165.088 274.203C165.229 272.835 165.057 271.435 164.627 270.149C164.203 268.855 163.536 267.674 162.742 266.625C161.949 265.573 161.03 264.647 160.049 263.819C158.081 262.164 155.884 260.873 153.584 259.835C152.429 259.319 151.254 258.864 150.003 258.518C149.687 258.433 149.37 258.354 149.022 258.294C148.849 258.263 148.668 258.238 148.451 258.226C148.399 258.223 148.341 258.22 148.273 258.223C148.215 258.222 148.131 258.228 148.045 258.239C148.012 258.242 147.938 258.257 147.879 258.273C147.83 258.285 147.753 258.305 147.638 258.364C147.564 258.397 147.413 258.488 147.272 258.67C147.151 258.81 147.068 259.081 147.069 259.261C147.066 259.38 147.097 259.553 147.124 259.622C147.147 259.689 147.176 259.755 147.207 259.819C147.249 259.893 147.306 259.987 147.342 260.032C147.425 260.144 147.495 260.219 147.565 260.295C147.702 260.438 147.83 260.555 147.957 260.668C148.211 260.892 148.461 261.091 148.713 261.286C150.718 262.809 151.723 261.3 149.848 259.839Z" fill="#02C650"/>
<path d="M205.495 295.234L180.535 279.774C172.239 274.589 163.918 269.428 155.785 264.025C153.767 262.668 151.723 261.3 149.848 259.839C149.619 259.656 149.393 259.47 149.19 259.287C149.089 259.196 148.994 259.104 148.92 259.025C148.887 258.988 148.854 258.95 148.847 258.938C148.834 258.923 148.857 258.949 148.858 258.959C148.874 258.987 148.887 259.018 148.896 259.05C148.909 259.084 148.941 259.217 148.931 259.299C148.94 259.444 148.856 259.67 148.765 259.785C148.649 259.936 148.526 260.003 148.49 260.022C148.407 260.062 148.367 260.071 148.355 260.076C148.334 260.083 148.296 260.086 148.302 260.087C148.292 260.09 148.284 260.088 148.303 260.089C148.311 260.089 148.33 260.089 148.354 260.091C148.442 260.098 148.565 260.114 148.692 260.139C148.947 260.186 149.224 260.257 149.498 260.335C150.602 260.654 151.254 258.864 150.003 258.518C149.687 258.433 149.37 258.354 149.022 258.294C148.849 258.263 148.668 258.238 148.451 258.226C148.399 258.223 148.341 258.22 148.273 258.223C148.215 258.222 148.131 258.228 148.045 258.239C148.012 258.242 147.938 258.257 147.879 258.273C147.83 258.285 147.753 258.305 147.638 258.364C147.564 258.397 147.413 258.488 147.272 258.67C147.151 258.81 147.068 259.081 147.069 259.261C147.066 259.38 147.097 259.553 147.124 259.622C147.147 259.689 147.176 259.755 147.207 259.819C147.249 259.893 147.306 259.987 147.342 260.032C147.425 260.144 147.495 260.219 147.565 260.295C147.702 260.438 147.83 260.555 147.957 260.668C148.211 260.892 148.461 261.091 148.713 261.286C150.718 262.809 152.765 264.137 154.823 265.485C158.94 268.157 163.101 270.741 167.27 273.31C171.442 275.874 175.623 278.421 179.823 280.938C188.222 285.969 196.62 290.999 205.091 295.906C205.278 296.016 205.518 295.952 205.628 295.765C205.735 295.581 205.675 295.346 205.495 295.234Z" fill="#02C650"/>
<path d="M49.3552 340.369C49.3552 340.369 61.5505 345.912 61.7495 346.796C61.9487 347.681 53.9068 346.5 50.6238 346.627C47.3409 346.755 44.6404 345.785 44.9374 344.394C45.2347 343.004 46.3838 339.506 46.3838 339.506L49.3552 340.369Z" fill="url(#paint4_linear)"/>
<path d="M49.8015 335.871L49.0597 341.362C49.0597 341.362 47.1289 342.049 45.832 341.236L45.2788 335.214L49.8015 335.871Z" fill="url(#paint5_linear)"/>
<path d="M56.5113 225.56C57.1546 241.939 57.1808 259.733 56.2384 278.743C55.1774 300.15 53.0451 319.935 50.3579 337.871C49.359 337.902 48.3091 337.908 47.2127 337.877C46.4722 337.856 45.7547 337.82 45.0614 337.772C43.6668 334.054 42.0185 329.163 40.5425 323.321C38.9908 317.179 38.0546 311.669 37.3877 306.4C35.0393 287.849 37.7914 286.231 35.8855 272.483C34.1977 260.307 31.7973 259.831 28.9794 242.544C25.922 223.787 28.1981 220.973 29.3049 219.957C34.0167 215.629 45.0846 218.575 56.5113 225.56Z" fill="url(#paint6_linear)"/>
<g style="mix-blend-mode:multiply" opacity="0.3">
<path style="mix-blend-mode:multiply" opacity="0.3" d="M29.3053 219.957C33.7993 215.829 44.0768 218.328 54.9318 224.628C42.4441 238.12 41.0828 246.872 42.5797 252.551C44.2717 258.969 49.4156 260.818 49.3961 267.836C49.3719 276.461 41.588 278.746 41.7535 287.872C41.8629 293.907 45.2834 293.844 46.0912 301.298C47.0468 310.118 42.5783 313.157 44.0256 319.682C44.6483 322.489 46.4255 326.157 51.4871 329.936C51.1221 332.616 50.7481 335.268 50.3581 337.871C49.3595 337.902 48.3095 337.908 47.2131 337.877C46.4726 337.856 45.755 337.82 45.0619 337.772C43.6673 334.054 42.0189 329.163 40.5429 323.321C38.9912 317.179 38.0549 311.669 37.388 306.4C35.0397 287.85 37.7917 286.231 35.8858 272.483C34.198 260.307 31.7976 259.831 28.9799 242.544C25.9226 223.787 28.1985 220.973 29.3053 219.957Z" fill="url(#paint7_linear)"/>
</g>
<path d="M-7.8129 335.943L-9.23521 338.217C-9.63301 338.853 -9.75258 339.62 -9.56359 340.346C-9.07076 342.241 -8.08626 345.932 -7.6559 346.896C-7.06987 348.207 0.820732 348.999 0.820732 348.999C0.820732 348.999 1.52598 348.01 -0.110532 346.811C-1.74692 345.612 -2.79973 345.422 -3.37508 343.656C-3.95032 341.89 -4.32776 336.897 -4.32776 336.897L-7.8129 335.943Z" fill="url(#paint8_linear)"/>
<path d="M48.7791 225.321C38.0001 241.035 26.3696 260.596 15.9582 284.016C8.09034 301.714 2.37755 318.334 -1.82102 333.147C-2.38623 333.408 -3.71937 333.927 -5.42132 333.699C-7.74286 333.388 -9.13194 331.903 -9.49494 331.489C-11.1757 320.862 -10.9735 311.865 -10.3859 305.372C-10.0097 301.214 -9.34467 294.292 -6.68 285.748C-3.69541 276.179 -1.65383 275.644 2.23599 265.521C6.27327 255.013 5.30418 252.388 9.17576 239.236C10.7661 233.834 13.4269 225.794 17.811 216.18C28.1337 219.227 38.4565 222.274 48.7791 225.321Z" fill="url(#paint9_linear)"/>
<path d="M83.8597 177.925C83.8598 177.925 83.8599 177.925 83.86 177.924C83.8587 177.921 83.8572 177.918 83.8558 177.916C83.6037 177.297 83.3061 176.702 82.9677 176.136C82.233 174.786 81.3535 173.432 80.3004 172.068C77.138 167.973 73.4276 165.109 68.0979 160.996C60.2732 154.957 53.7188 151.691 47.8561 148.81C36.1234 143.045 30.1674 140.202 25.7897 142.19C20.4447 144.616 18.9232 151.93 18.0346 156.5C4.51503 226.037 8.34961 231.336 11.4046 232.536C13.0554 233.184 13.2227 232.142 21.5592 231.644C28.9441 231.202 32.6363 230.981 36.4873 232.117C43.0878 234.064 43.9928 237.61 49.825 238.206C53.3883 238.57 56.4279 237.591 58.419 236.722C60.1439 224.231 63.2924 195.348 64.6199 194.102C66.8711 195.512 69.5675 196.258 72.4209 196.085C79.7022 195.643 85.2467 189.382 84.8048 182.101C84.7153 180.626 84.3868 179.222 83.8597 177.925Z" fill="url(#paint10_linear)"/>
<path d="M94.4423 219.542C90.4273 215.903 87.6506 212.168 85.573 208.432C83.0173 202.93 76.5654 200.345 70.8814 202.65C65.0596 205.011 62.2332 211.614 64.5206 217.447C64.5203 217.542 64.5352 217.623 64.5661 217.689C69.4815 228.107 81.6535 238.769 93.7127 238.264C98.8704 238.047 105.607 235.722 106.315 231.964C107.056 228.03 100.684 225.199 94.4423 219.542Z" fill="url(#paint11_linear)"/>
<path d="M83.9669 178.254C83.9664 178.252 83.9655 178.251 83.965 178.25C82.0249 173.093 76.9619 169.505 71.1498 169.703C63.8593 169.951 58.1507 176.063 58.3992 183.353C58.5526 187.854 60.9405 191.75 64.4602 194.016C64.7681 195.653 63.5758 211.322 63.7861 213.661C63.8102 213.929 63.8461 214.186 63.8931 214.432C64.5445 220.329 69.6427 224.817 75.6699 224.612C81.9936 224.396 86.9451 219.095 86.7295 212.772C86.7076 212.13 86.6326 211.502 86.5101 210.893C84.968 198.873 88.4077 188.757 83.9669 178.254Z" fill="url(#paint12_linear)"/>
<path d="M101.173 232.694C101.173 232.694 106.034 232.818 109.048 231.952C112.062 231.087 113.69 233.076 113.275 234.259C112.86 235.443 107.941 236.547 106.053 236.373C104.165 236.198 101.173 232.694 101.173 232.694Z" fill="url(#paint13_linear)"/>
<g style="mix-blend-mode:multiply" opacity="0.3">
<g style="mix-blend-mode:multiply">
<path style="mix-blend-mode:multiply" d="M58.4184 236.722C56.4273 237.591 53.3878 238.57 49.8245 238.206C43.9923 237.61 43.0873 234.064 36.4868 232.117C32.6357 230.981 28.9434 231.202 21.5586 231.644C13.2221 232.142 13.0548 233.184 11.4041 232.536C10.1538 232.045 8.77472 230.86 8.50626 224.874C10.8647 223.2 12.9421 222.633 14.6603 222.543C18.1841 222.36 20.8747 224.135 23.7571 222.405C26.9689 220.477 25.9104 216.904 28.6672 214.657C32.7768 211.309 38.3597 216.619 44.0245 215.381C56.3875 212.679 59.3383 181.494 67.4394 180.85C67.4394 180.85 60.1847 223.932 58.4184 236.722Z" fill="url(#paint14_linear)"/>
</g>
</g>
<path d="M62.2303 144.822C62.2303 144.822 59.3925 148.467 56.2256 150.46C53.3636 152.26 46.672 149.926 45.1427 149.697C43.6133 149.468 45.6718 153.424 48.6905 156.053C51.7091 158.682 61.5141 164.52 64.0601 164.473C66.6061 164.426 63.5226 162.381 61.8061 159.886C60.0894 157.391 61.9621 151.904 63.8304 150.134C65.6987 148.365 62.2303 144.822 62.2303 144.822Z" fill="url(#paint15_linear)"/>
<path d="M-46.9042 147.966L3.89361 180.072C5.33318 180.982 7.49426 180.147 8.72025 178.207C9.94624 176.268 9.7731 173.957 8.33342 173.047L-42.4643 140.941C-43.9038 140.032 -46.0648 140.867 -47.2909 142.806C-48.5169 144.746 -48.3438 147.056 -46.9042 147.966Z" fill="#D8DEE8"/>
<path d="M150.406 259.407L155.142 262.401C155.675 262.738 156.475 262.429 156.929 261.711C157.383 260.993 157.319 260.138 156.786 259.801L152.049 256.807L150.406 259.407Z" fill="#26264F"/>
<path d="M153.963 259.836C153.131 261.152 151.727 261.854 150.602 261.515L127.383 254.517L137.753 238.11L154.037 256.08C154.826 256.95 154.795 258.519 153.963 259.836Z" fill="#D8DEE8"/>
<g style="mix-blend-mode:soft-light">
<g style="mix-blend-mode:soft-light">
<path d="M153.388 257.877C153.16 258.238 152.277 258.115 151.274 257.583L131.993 244.355L134.833 239.861L152.215 256.094C153.125 256.772 153.616 257.517 153.388 257.877Z" fill="white"/>
</g>
</g>
<path d="M-48.7544 142.769L127.86 254.819C131.222 256.944 141.592 240.537 138.23 238.411L-38.3842 126.362C-40.3901 125.094 -43.401 126.257 -45.1092 128.96L-49.2933 135.58C-51.0015 138.283 -50.7602 141.501 -48.7544 142.769Z" fill="url(#paint16_linear)"/>
<g style="mix-blend-mode:soft-light">
<g style="mix-blend-mode:soft-light">
<path d="M-4.24704 157.599L134.552 245.749L136.996 241.882L-1.80313 153.732L-4.24704 157.599Z" fill="white"/>
</g>
</g>
<g style="mix-blend-mode:multiply">
<path style="mix-blend-mode:multiply" d="M-11.4565 166.434L-9.83836 167.457L0.573011 150.984L-1.04499 149.962L-11.4565 166.434Z" fill="url(#paint17_linear)"/>
</g>
<g style="mix-blend-mode:multiply" opacity="0.2">
<path style="mix-blend-mode:multiply" opacity="0.2" d="M-38.3843 126.362L46.1627 180.222C49.7988 197.466 55.9316 202.846 61.5487 204.038C65.4495 204.866 71.4375 204.174 77.5901 208.748C83.532 213.165 82.0098 216.831 87.2963 219.604C95.1335 223.716 101.953 217.482 106.683 222.628C109.227 225.395 107.478 227.44 110.032 233.054C110.979 235.137 114.924 243.807 124.172 245.007C129.551 245.705 134.766 243.621 138.726 241.297C137.579 246.56 130.523 256.502 127.86 254.819L-48.7545 142.769C-50.7602 141.501 -51.0014 138.283 -49.2931 135.58L-45.109 128.96C-43.4009 126.257 -40.3902 125.094 -38.3843 126.362Z" fill="url(#paint18_linear)"/>
</g>
<path d="M36.2009 144.116C36.2018 144.117 36.2024 144.118 36.2034 144.119C40.0796 148.036 41.2258 154.134 38.619 159.333C35.349 165.854 27.412 168.489 20.8913 165.219C16.8661 163.2 14.3225 159.404 13.7334 155.259C12.3749 154.296 -2.36121 148.837 -4.39815 147.669C-4.63179 147.536 -4.85029 147.396 -5.05449 147.25C-10.1405 144.196 -12.0905 137.689 -9.38713 132.298C-6.55084 126.642 0.333442 124.357 5.98948 127.193C6.56359 127.481 7.10247 127.811 7.6054 128.177C17.8829 134.597 28.5112 135.695 36.2009 144.116Z" fill="url(#paint19_linear)"/>
<path d="M2.47896 157.393C4.03929 152.204 6.21871 148.091 8.69932 144.61C12.5687 139.938 12.13 133.001 7.60597 128.859C2.9723 124.617 -4.20427 124.903 -8.48825 129.475C-8.57443 129.516 -8.64141 129.564 -8.68727 129.62C-15.9819 138.536 -20.3776 154.108 -14.739 164.78C-12.3272 169.344 -7.33203 174.428 -3.63514 173.452C0.236008 172.431 0.0535927 165.46 2.47896 157.393Z" fill="url(#paint20_linear)"/>
<path d="M-4.18262 168.755C-4.18262 168.755 -3.92861 173.611 -2.83147 176.549C-1.73433 179.486 -3.5911 181.264 -4.80356 180.942C-6.01581 180.62 -7.49859 175.801 -7.47102 173.906C-7.44345 172.01 -4.18262 168.755 -4.18262 168.755Z" fill="url(#paint21_linear)"/>
<path d="M69.3985 147.104C73.4431 146.505 76.8032 136.822 74.679 135.097C73.8919 134.459 73.1824 135.587 67.4828 137.062C64.6181 137.803 62.8757 138.015 61.5364 139.587C61.1341 140.06 60.4038 140.959 60.2527 142.208C60.1926 142.705 60.2288 143.382 60.3949 144.726C60.5425 145.917 60.5173 145.866 60.5699 146.218C60.6959 147.062 61.0181 148.542 61.9714 150.561C62.2931 150.162 62.7225 149.683 63.2717 149.203C63.483 149.019 64.3201 148.302 65.2932 147.84C67.0418 147.009 68.4773 147.241 69.3985 147.104Z" fill="url(#paint22_linear)"/>
<path d="M60.5674 148.331C60.5674 148.331 60.9222 151.63 64.1284 152.894C66.9992 154.025 70.3507 147.971 69.1962 145.807C68.8112 145.085 67.7091 144.342 66.6148 144.157C65.9685 144.048 65.6636 144.194 64.611 143.996C63.6404 143.812 63.4409 143.601 63.0763 143.698C62.6201 143.819 62.0633 144.38 61.7481 146.463C61.4705 145.674 60.9298 145.167 60.3773 145.168C60.2893 145.168 60.0366 145.208 59.8362 145.354C59.1105 145.884 59.3325 147.102 60.5674 148.331Z" fill="url(#paint23_linear)"/>
<path d="M61.9718 144.617C61.9718 144.617 61.8585 147.347 62.1895 148.204C62.5206 149.061 63.7431 150.191 65.5421 150.257C67.3412 150.324 68.5077 150.077 68.5077 150.077C68.5077 150.077 67.3606 153.272 66.8119 153.425C66.2632 153.578 62.8468 153.623 62.1916 153.086C61.5364 152.55 60.622 150.087 60.7372 148.967C60.8524 147.847 61.7176 145.276 61.7176 145.276L61.9718 144.617Z" fill="url(#paint24_linear)"/>
</g>
<defs>
<filter id="filter0_d" x="-60.8066" y="0.0214844" width="384.913" height="356.978" filterUnits="userSpaceOnUse" color-interpolation-filters="sRGB">
<feFlood flood-opacity="0" result="BackgroundImageFix"/>
<feColorMatrix in="SourceAlpha" type="matrix" values="0 0 0 0 0 0 0 0 0 0 0 0 0 0 0 0 0 0 127 0" result="hardAlpha"/>
<feOffset dy="4"/>
<feGaussianBlur stdDeviation="2"/>
<feComposite in2="hardAlpha" operator="out"/>
<feColorMatrix type="matrix" values="0 0 0 0 0 0 0 0 0 0 0 0 0 0 0 0 0 0 0.25 0"/>
<feBlend mode="normal" in2="BackgroundImageFix" result="effect1_dropShadow"/>
<feBlend mode="normal" in="SourceGraphic" in2="effect1_dropShadow" result="shape"/>
</filter>
<linearGradient id="paint0_linear" x1="301.114" y1="102.852" x2="203.72" y2="258.979" gradientUnits="userSpaceOnUse">
<stop stop-color="#33658A"/>
<stop offset="0.5" stop-color="#1F6BED"/>
<stop offset="1" stop-color="#F36F56"/>
</linearGradient>
<linearGradient id="paint1_linear" x1="258.941" y1="20.8752" x2="171.473" y2="126.459" gradientUnits="userSpaceOnUse">
<stop stop-color="#AA80F9"/>
<stop offset="0.5" stop-color="#8672E8"/>
<stop offset="1" stop-color="#6165D7"/>
</linearGradient>
<linearGradient id="paint2_linear" x1="286.269" y1="40.9912" x2="202.814" y2="161.289" gradientUnits="userSpaceOnUse">
<stop stop-color="#02C650"/>
<stop offset="0.5" stop-color="#00AA44"/>
<stop offset="1" stop-color="#02AEC6"/>
</linearGradient>
<linearGradient id="paint3_linear" x1="-56.6385" y1="166.641" x2="281.754" y2="166.641" gradientUnits="userSpaceOnUse">
<stop stop-color="#33658A"/>
<stop offset="0.5" stop-color="#0E3C5F"/>
<stop offset="1" stop-color="#062740"/>
</linearGradient>
<linearGradient id="paint4_linear" x1="143.494" y1="321.095" x2="140.464" y2="282.538" gradientUnits="userSpaceOnUse">
<stop stop-color="#311944"/>
<stop offset="0.5" stop-color="#69295D"/>
<stop offset="1" stop-color="#A03976"/>
</linearGradient>
<linearGradient id="paint5_linear" x1="124.122" y1="342.559" x2="124.673" y2="382.493" gradientUnits="userSpaceOnUse">
<stop stop-color="#0D3B5E"/>
<stop offset="0.5" stop-color="#07304E"/>
<stop offset="1" stop-color="#001F35"/>
</linearGradient>
<linearGradient id="paint6_linear" x1="123.014" y1="277.815" x2="93.488" y2="277.815" gradientUnits="userSpaceOnUse">
<stop stop-color="#444B8C"/>
<stop offset="0.5" stop-color="#414682"/>
<stop offset="1" stop-color="#3E4177"/>
</linearGradient>
<linearGradient id="paint7_linear" x1="120.973" y1="277.815" x2="91.447" y2="277.815" gradientUnits="userSpaceOnUse">
<stop stop-color="#444B8C"/>
<stop offset="0.5" stop-color="#414682"/>
<stop offset="1" stop-color="#3E4177"/>
</linearGradient>
<linearGradient id="paint8_linear" x1="-28.8069" y1="316.518" x2="-31.7712" y2="277.956" gradientUnits="userSpaceOnUse">
<stop stop-color="#311944"/>
<stop offset="0.5" stop-color="#69295D"/>
<stop offset="1" stop-color="#A03976"/>
</linearGradient>
<linearGradient id="paint9_linear" x1="68.3712" y1="275.053" x2="8.93165" y2="274.953" gradientUnits="userSpaceOnUse">
<stop stop-color="#444B8C"/>
<stop offset="0.5" stop-color="#414682"/>
<stop offset="1" stop-color="#3E4177"/>
</linearGradient>
<linearGradient id="paint10_linear" x1="48.1016" y1="227.368" x2="47.1566" y2="188.437" gradientUnits="userSpaceOnUse">
<stop stop-color="#AA80F9"/>
<stop offset="0.5" stop-color="#8672E8"/>
<stop offset="1" stop-color="#6165D7"/>
</linearGradient>
<linearGradient id="paint11_linear" x1="142.265" y1="256.851" x2="46.4456" y2="197.972" gradientUnits="userSpaceOnUse">
<stop stop-color="#AA80F9"/>
<stop offset="0.5" stop-color="#8672E8"/>
<stop offset="1" stop-color="#6165D7"/>
</linearGradient>
<linearGradient id="paint12_linear" x1="116.26" y1="258.402" x2="69.9221" y2="191.385" gradientUnits="userSpaceOnUse">
<stop stop-color="#AA80F9"/>
<stop offset="0.5" stop-color="#8672E8"/>
<stop offset="1" stop-color="#6165D7"/>
</linearGradient>
<linearGradient id="paint13_linear" x1="108.674" y1="230.156" x2="109.122" y2="243.648" gradientUnits="userSpaceOnUse">
<stop stop-color="#311944"/>
<stop offset="0.5" stop-color="#5D295D"/>
<stop offset="1" stop-color="#893976"/>
</linearGradient>
<linearGradient id="paint14_linear" x1="105.497" y1="218.974" x2="91.2532" y2="267.825" gradientUnits="userSpaceOnUse">
<stop stop-color="#AA80F9"/>
<stop offset="0.5" stop-color="#8672E8"/>
<stop offset="1" stop-color="#6165D7"/>
</linearGradient>
<linearGradient id="paint15_linear" x1="57.0657" y1="155.396" x2="65.2718" y2="150.444" gradientUnits="userSpaceOnUse">
<stop stop-color="#6A3828"/>
<stop offset="0.5" stop-color="#4F1705"/>
<stop offset="1" stop-color="#452100"/>
</linearGradient>
<linearGradient id="paint16_linear" x1="126.303" y1="241.144" x2="-25.8896" y2="146.85" gradientUnits="userSpaceOnUse">
<stop stop-color="#311944"/>
<stop offset="0.5" stop-color="#742C65"/>
<stop offset="1" stop-color="#B73F86"/>
</linearGradient>
<linearGradient id="paint17_linear" x1="-25.9793" y1="124.365" x2="-27.6217" y2="122.375" gradientUnits="userSpaceOnUse">
<stop stop-color="#AA80F9"/>
<stop offset="0.5" stop-color="#8672E8"/>
<stop offset="1" stop-color="#6165D7"/>
</linearGradient>
<linearGradient id="paint18_linear" x1="73.9803" y1="14.3595" x2="115.077" y2="-43.3878" gradientUnits="userSpaceOnUse">
<stop stop-color="#311944"/>
<stop offset="0.5" stop-color="#69295D"/>
<stop offset="1" stop-color="#A03976"/>
</linearGradient>
<linearGradient id="paint19_linear" x1="-23.1428" y1="81.3073" x2="18.4049" y2="151.395" gradientUnits="userSpaceOnUse">
<stop stop-color="#AA80F9"/>
<stop offset="0.5" stop-color="#8672E8"/>
<stop offset="1" stop-color="#6165D7"/>
</linearGradient>
<linearGradient id="paint20_linear" x1="-59.1336" y1="138.58" x2="24.9383" y2="137.256" gradientUnits="userSpaceOnUse">
<stop stop-color="#AA80F9"/>
<stop offset="0.5" stop-color="#8672E8"/>
<stop offset="1" stop-color="#6165D7"/>
</linearGradient>
<linearGradient id="paint21_linear" x1="-1.06977" y1="176.037" x2="-14.4858" y2="177.53" gradientUnits="userSpaceOnUse">
<stop stop-color="#33658A"/>
<stop offset="0.5" stop-color="#023052"/>
<stop offset="1" stop-color="#002B4A"/>
</linearGradient>
<linearGradient id="paint22_linear" x1="196.706" y1="148.339" x2="196.461" y2="166.16" gradientUnits="userSpaceOnUse">
<stop stop-color="#8C6B44"/>
<stop offset="0.5" stop-color="#35396D"/>
<stop offset="1" stop-color="#26264F"/>
</linearGradient>
<linearGradient id="paint23_linear" x1="70.5214" y1="145.482" x2="59.5344" y2="158.307" gradientUnits="userSpaceOnUse">
<stop stop-color="#501D08"/>
<stop offset="0.5" stop-color="#4D2500"/>
<stop offset="1" stop-color="#311700"/>
</linearGradient>
<linearGradient id="paint24_linear" x1="184.891" y1="149.411" x2="184.646" y2="167.231" gradientUnits="userSpaceOnUse">
<stop stop-color="#8C6744"/>
<stop offset="0.5" stop-color="#6D4935"/>
<stop offset="1" stop-color="#4F4426"/>
</linearGradient>
</defs>
</svg>
