<svg width="37" height="49" viewBox="0 0 37 49" fill="none" xmlns="http://www.w3.org/2000/svg">
<path d="M34.9673 23.0082C33.9735 20.3787 33.2362 18.07 30.8876 14.5759C29.9647 13.2029 29.4503 11.6395 28.868 9.97456C27.0341 5.36351 27.586 2.46558 26.0652 1.88331C24.7892 1.18918 22.3773 0.0333179 20.772 0.506731C18.5519 1.16596 18.0029 2.91239 17.3461 4.07017C17.0654 4.58418 17.1298 5.74588 17.3302 6.10099C17.6547 7.26175 17.7776 7.44415 18.8909 10.1469C20.7132 13.5696 20.0541 13.3719 20.0437 13.8937C20.0334 14.4154 19.9713 14.3588 7.41301 14.6309C5.07501 14.6816 2.66607 16.6243 2.61418 19.233C2.56229 21.8417 3.05396 23.4173 3.05396 23.4173C3.05396 23.4173 1.772 23.8557 1.44395 25.4731C0.28417 31.1914 3.40041 32.2973 3.40041 32.2973C3.40041 32.2973 1.81116 33.3096 1.7904 34.353C1.697 39.0487 4.81317 40.1546 4.81317 40.1546C4.81317 40.1546 3.72604 42.2207 4.21771 43.7964C4.70939 45.372 6.23637 47.4901 8.31731 48.0535C10.3982 48.6168 16.1494 48.7312 17.2054 48.2303C18.2614 47.7293 20.8964 46.7378 20.8964 46.7378C20.8964 46.7378 25.8924 46.8858 28.7596 45.8504C35.6082 43.3768 35.8261 32.4203 35.8573 30.8551C35.8884 29.2899 35.961 25.6376 34.9673 23.0082Z" fill="#FBD4BA"/>
</svg>
