<svg width="40" height="60" viewBox="0 0 40 60" fill="none" xmlns="http://www.w3.org/2000/svg">
<path d="M19.8688 24.9934L11.2757 10.1097H28.4619L19.8688 24.9934Z" fill="#38C6F3"/>
<path d="M21.1021 48.6911H18.6348V21.8091H21.1021V48.6911Z" fill="#38C6F3"/>
<path d="M39.6069 0V2.46721H0.130859V0H39.6069Z" fill="#1F2D56"/>
<path d="M39.6445 0.0631104V7.46491H37.1772V0.0631104H39.6445Z" fill="#1F2D56"/>
<path d="M39.6499 5.04822V7.51543H0.173828V5.04822H39.6499Z" fill="#1F2D56"/>
<path d="M2.56584 0.0631104V7.46491H0.0986328V0.0631104H2.56584Z" fill="#1F2D56"/>
<path d="M37.1972 2.4353V5.04647H2.55566V2.4353H37.1972Z" fill="#38C6F3"/>
<path d="M33.7899 6.19007L35.9266 7.42368L22.0873 31.3939L19.9507 30.1603L33.7899 6.19007Z" fill="#1F2D56"/>
<path d="M3.98111 7.32484L6.11777 6.09124L19.957 30.0614L17.8203 31.295L3.98111 7.32484Z" fill="#1F2D56"/>
<path d="M20.0447 30.1808L22.1813 28.9472L35.8266 52.5815L33.6899 53.8151L20.0447 30.1808Z" fill="#1F2D56"/>
<path d="M17.7742 28.9303L19.9109 30.1639L6.26557 53.7982L4.12891 52.5646L17.7742 28.9303Z" fill="#1F2D56"/>
<path d="M39.6445 52.5477V59.9495H37.1772V52.5477H39.6445Z" fill="#1F2D56"/>
<path d="M39.476 57.5328V60H0V57.5328H39.476Z" fill="#1F2D56"/>
<path d="M2.56584 52.5477V59.9495H0.0986328V52.5477H2.56584Z" fill="#1F2D56"/>
<path d="M39.6069 52.5715V55.0387H0.130859V52.5715H39.6069Z" fill="#1F2D56"/>
<path d="M37.1616 55.0753V57.5425H2.62012V55.0753H37.1616Z" fill="#38C6F3"/>
</svg>
