<svg width="81" height="75" viewBox="0 0 81 75" fill="none" xmlns="http://www.w3.org/2000/svg">
<path d="M81.0569 71.8109C81.0569 71.8109 60.4403 63.3072 39.6755 63.459C18.9106 63.6109 -0.222711 71.9628 -0.222711 71.9628L-5.85889 81.8332L85.9514 80.6184L81.0569 71.8109Z" fill="#4068EE"/>
<path d="M17.205 0.440674C23.3443 0.440674 28.329 5.544 28.329 11.8295C28.329 18.115 23.3443 23.2183 17.205 23.2183C11.0657 23.2183 6.08105 18.115 6.08105 11.8295C6.08105 5.544 11.0657 0.440674 17.205 0.440674Z" fill="#EED740"/>
<path d="M42.123 17.9789C41.9746 17.9409 41.678 18.0169 41.678 18.0169C41.678 18.0169 40.4173 20.8641 40.0836 20.94C39.7498 21.0159 42.9387 23.2937 42.9758 23.2557C43.0129 23.2178 43.4578 21.8891 43.5691 21.7372C43.6803 21.5854 43.8286 20.5604 43.7545 20.3326C43.6803 20.1048 42.2713 18.0169 42.123 17.9789Z" fill="#E28989"/>
<path d="M35.6709 16.6818C32.4821 16.8336 32.5191 19.7947 32.5191 19.7947C32.5191 19.7947 31.7775 21.541 30.7393 22.3003C29.7011 23.0596 30.1801 24.7944 30.5168 24.9577C31.2213 25.2994 30.8876 25.717 30.8505 25.7549C30.8135 25.7929 29.8123 27.691 29.8123 27.8809C29.8123 28.0707 28.7122 27.9133 28.1066 28.6022C27.1054 29.7411 28.3291 30.9559 28.3291 30.9559C28.3291 30.9559 27.6987 31.3355 27.6987 31.6012C27.6987 31.867 27.9954 32.5883 28.4403 32.5883C28.8853 32.5883 27.6987 36.1188 31.073 37.1059C34.4473 38.0929 35.8564 37.03 35.9305 36.954C36.0047 36.8781 37.5373 35.8409 37.0429 34.5624C32.7416 23.4392 40.343 20.8197 40.343 20.7059C40.343 20.592 40.9327 16.4312 35.6709 16.6818Z" fill="#0B0B29"/>
<path d="M35.6709 16.6818C32.4821 16.8336 32.5191 19.7947 32.5191 19.7947C32.5191 19.7947 31.7775 21.541 30.7393 22.3003C29.7011 23.0596 30.1801 24.7944 30.5168 24.9577C31.2213 25.2994 30.8876 25.717 30.8505 25.7549C30.8135 25.7929 29.8123 27.691 29.8123 27.8809C29.8123 28.0707 28.7122 27.9133 28.1066 28.6022C27.1054 29.7411 28.3291 30.9559 28.3291 30.9559C28.3291 30.9559 27.6987 31.3355 27.6987 31.6012C27.6987 31.867 27.9954 32.5883 28.4403 32.5883C28.8853 32.5883 27.6987 36.1188 31.073 37.1059C34.4473 38.0929 35.8564 37.03 35.9305 36.954C36.0047 36.8781 37.5373 35.8409 37.0429 34.5624C32.7416 23.4392 40.343 20.8197 40.343 20.7059C40.343 20.592 40.9327 16.4312 35.6709 16.6818Z" stroke="black"/>
<path d="M41.5663 21.0919C39.6011 19.6873 37.0797 23.4836 36.0414 25.7993C35.0032 28.1151 36.6347 33.9234 36.7089 34.0753C36.783 34.2271 43.3091 34.0753 43.5687 33.4678C43.8282 32.8604 43.7911 32.4049 43.8282 30.0132C43.8653 27.6215 43.272 24.8882 43.1237 23.9012C42.9754 22.9141 42.217 21.557 41.5663 21.0919Z" fill="#E9E8E8"/>
<path d="M41.5663 21.0919C39.6011 19.6873 37.0797 23.4836 36.0414 25.7993C35.0032 28.1151 36.6347 33.9234 36.7089 34.0753C36.783 34.2271 43.3091 34.0753 43.5687 33.4678C43.8282 32.8604 43.7911 32.4049 43.8282 30.0132C43.8653 27.6215 43.272 24.8882 43.1237 23.9012C42.9754 22.9141 42.217 21.557 41.5663 21.0919Z" stroke="black"/>
<path d="M39.516 20.5034L39.5345 20.826C39.5345 20.826 42.8347 21.1298 42.1301 24.1288C41.4256 27.1279 34.9737 29.1399 34.7141 28.9122C34.4546 28.6844 34.4546 29.8612 34.4546 29.8612C34.4546 29.8612 43.7339 27.071 42.9459 23.5214C42.3897 21.0159 40.4134 20.5687 40.202 20.5223C39.9424 20.4654 39.516 20.5034 39.516 20.5034Z" fill="#0B0B29"/>
<path d="M45.3292 14.934C44.2327 14.6279 42.5034 14.5316 41.9247 15.2401C41.3461 15.9486 41.5233 16.781 41.7236 17.5585C41.9239 18.3361 43.0158 20.9133 44.4831 21.412C45.6927 21.8231 45.7113 20.8751 45.7113 20.8751C45.7113 20.8751 45.9904 20.4367 46.2649 19.8435C46.2931 19.7824 46.5724 19.9563 46.6503 19.8629C47.0315 19.4061 46.5978 18.4368 46.5995 17.8958C46.6032 16.6615 46.4256 15.2402 45.3292 14.934Z" fill="#E28989"/>
<path d="M45.8533 17.528C45.907 17.5327 45.9466 17.5872 45.9416 17.6497C45.9366 17.7121 45.8889 17.759 45.8351 17.7543C45.7814 17.7496 45.7418 17.6951 45.7468 17.6327C45.7518 17.5702 45.7995 17.5233 45.8533 17.528Z" fill="#171616"/>
<path d="M46.1754 13.6489C45.8196 13.4276 43.8275 13.1372 44.0157 14.0647C44.2039 14.9922 44.8902 15.2807 45.0769 15.7527C45.2637 16.2247 45.6758 17.4486 46.6156 17.8355C47.5553 18.2225 48.5362 19.1154 49.0106 17.8291C49.485 16.5429 48.9107 16.2533 48.7002 16.0829C48.4898 15.9124 47.8431 15.7706 47.6134 15.5884C46.8056 14.9475 46.5311 13.8702 46.1754 13.6489Z" fill="#341B07"/>
<path d="M44.032 12.4652C42.5114 12.1025 42.4883 13.5813 42.4868 13.6001C42.4853 13.619 41.7135 13.2278 40.9254 13.9933C40.1372 14.7587 40.7155 15.949 40.7481 16.0089C40.7807 16.0687 41.1074 16.5294 41.1392 16.836C41.1711 17.1425 41.4016 18.2451 41.3801 18.2811C41.3586 18.3172 42.0059 18.3935 42.0274 18.3575C42.0489 18.3214 42.1268 18.0436 42.0156 17.5591C41.9044 17.0746 41.6842 16.3147 42.654 16.3248C43.6238 16.3348 43.3398 17.3348 43.3398 17.3348L43.9492 17.18C43.9492 17.18 44.1694 16.9907 44.0901 16.8128C44.0108 16.6349 43.6186 16.1635 43.8662 15.8627C44.1139 15.5619 44.6477 15.4194 44.8627 15.5334C45.0777 15.6474 46.3945 15.5173 46.4939 15.2034C46.5933 14.8895 46.5436 13.8599 46.2233 13.6607C45.903 13.4614 45.5527 12.8278 44.032 12.4652Z" fill="#341B07"/>
<path d="M44.0281 17.1473C44.0567 17.1403 43.4976 17.0052 43.354 17.287C43.2104 17.5687 42.7439 19.5792 43.1286 20.2687C43.5133 20.9582 44.4687 21.5178 44.8512 21.5232C45.2338 21.5287 45.6185 21.2683 45.6545 21.167C45.6905 21.0657 45.7774 20.6744 45.8976 20.5711C46.0178 20.4678 46.2048 19.9904 46.2048 19.9904C46.2048 19.9904 46.1674 19.6356 45.6105 19.4723C45.0536 19.3089 44.6376 19.728 44.5946 19.8002C44.5515 19.8724 44.0818 19.9067 44.008 19.7767C43.9341 19.6467 43.631 19.5818 43.6144 18.9629C43.5977 18.344 43.9996 17.1542 44.0281 17.1473Z" fill="#341B07"/>
<path d="M43.6395 61.5859L43.8699 65.3409L52.4796 64.678L53.15 64.6264C53.15 64.6264 53.3672 62.9924 51.3955 62.8502C49.4237 62.7078 48.9813 62.8706 48.5044 62.3082C48.2333 61.9884 48.1426 61.537 48.113 61.2319C48.095 61.0469 47.9387 60.9109 47.7566 60.9249L43.9548 61.2175C43.7689 61.2319 43.6279 61.3968 43.6395 61.5859Z" fill="black"/>
<path d="M47.5835 62.1534C47.5886 62.2352 47.6576 62.2966 47.7379 62.2903C47.8183 62.2844 47.8793 62.213 47.8743 62.1311C47.8691 62.0493 47.8001 61.9881 47.7197 61.9943C47.6394 62.0005 47.5785 62.0714 47.5835 62.1534Z" fill="white"/>
<path d="M48.0728 62.7798C48.0778 62.8617 48.147 62.9229 48.2273 62.9167C48.3078 62.9107 48.3687 62.8394 48.3637 62.7575C48.3586 62.6756 48.2896 62.6145 48.2091 62.6206C48.1289 62.6268 48.0679 62.698 48.0728 62.7798Z" fill="white"/>
<path d="M48.9327 63.1266C48.9377 63.2083 49.0069 63.2695 49.0872 63.2635C49.1676 63.2574 49.2286 63.186 49.2234 63.1042C49.2185 63.0225 49.1494 62.9612 49.069 62.9673C48.9887 62.9735 48.9276 63.0448 48.9327 63.1266Z" fill="white"/>
<path d="M49.9141 63.2061C49.9191 63.288 49.9883 63.3491 50.0686 63.343C50.149 63.3369 50.21 63.2656 50.205 63.1837C50.1999 63.102 50.1308 63.0407 50.0504 63.047C49.9701 63.053 49.9091 63.1242 49.9141 63.2061Z" fill="white"/>
<path d="M43.5935 65.851L47.3217 65.4583L47.3524 65.9082L43.5957 66.1924L43.5935 65.851Z" fill="black"/>
<path d="M43.5397 65.3702L43.5751 66.0157L50.8918 65.4456L53.579 65.2362L53.5489 64.5998L50.8891 64.8044L43.5397 65.3702Z" fill="black"/>
<path d="M43.8721 65.2939C43.8721 65.2939 49.575 64.8769 50.4348 64.8074C51.2946 64.7378 53.1348 64.5904 53.1348 64.5904" stroke="white" stroke-width="2.1"/>
<path d="M42.127 48.0274C42.4479 51.1639 43.6683 59.4473 43.7495 59.5737C43.8307 59.7 49.1343 58.6494 49.3019 58.3547C49.4694 58.0601 48.3678 46.9473 48.0658 46.1999C48.0554 46.1739 47.7068 45.7245 47.4149 45.5825C46.1192 45.0712 41.8593 45.4111 42.127 48.0274Z" fill="#1D1C50"/>
<path d="M39.2453 36.8359C39.2107 37.5517 37.7278 37.1967 41.8205 47.4266C41.8845 47.5866 42.6198 49.9934 45.043 49.7747C47.3343 49.5679 48.2349 47.1868 48.1158 46.5478C47.8963 45.3709 45.0754 36.9992 43.576 32.5006C43.2418 31.4978 39.2799 36.12 39.2453 36.8359Z" fill="#1C1C50"/>
<path d="M31.3699 56.2063L28.7945 58.9425C28.7945 58.9425 34.0773 64.0822 34.1269 64.1198C34.1807 64.1606 35.5313 65.4351 35.5313 65.4351C35.5313 65.4351 36.8649 64.4575 35.6247 62.9177C34.4024 61.3894 33.9586 61.1345 34.0642 60.3889C34.1232 59.9669 34.3967 59.5913 34.5988 59.3607C34.7214 59.221 34.7164 59.0095 34.5851 58.8808L31.847 56.1943C31.7133 56.0631 31.4997 56.0685 31.3699 56.2063Z" fill="#161551"/>
<path d="M28.1188 59.1459C28.1188 59.1459 31.5166 62.4713 33.1168 64.0267C34.7076 65.5746 35.3955 66.1552 35.3955 66.1552L35.7679 65.6838C35.7679 65.6838 34.7127 64.6658 33.4577 63.4426C32.2067 62.2224 28.5713 58.7202 28.5713 58.7202L28.1188 59.1459Z" fill="#161551"/>
<path d="M33.5724 59.6001C33.5163 59.6595 33.5178 59.7537 33.5755 59.8102C33.6331 59.867 33.7253 59.8647 33.7812 59.805C33.8373 59.7456 33.8359 59.6516 33.7781 59.5949C33.7205 59.5382 33.6282 59.5406 33.5724 59.6001Z" fill="white"/>
<path d="M33.4477 60.3917C33.3918 60.451 33.3931 60.5451 33.4508 60.6018C33.5086 60.6584 33.6008 60.6562 33.6567 60.5965C33.7127 60.537 33.7112 60.4429 33.6536 60.3864C33.5958 60.3298 33.5037 60.3321 33.4477 60.3917Z" fill="white"/>
<path d="M33.7657 61.2778C33.7097 61.3374 33.7112 61.4314 33.7688 61.488C33.8264 61.5447 33.9186 61.5424 33.9746 61.4828C34.0307 61.4234 34.0292 61.3293 33.9715 61.2726C33.9137 61.216 33.8216 61.2184 33.7657 61.2778Z" fill="white"/>
<path d="M34.3711 62.0674C34.315 62.1268 34.3165 62.2209 34.3742 62.2776C34.432 62.3342 34.5242 62.332 34.5801 62.2723C34.6361 62.2128 34.6345 62.1188 34.577 62.0622C34.5192 62.0055 34.4271 62.0079 34.3711 62.0674Z" fill="white"/>
<path d="M28.2733 58.975L30.9938 61.6199L30.6805 61.9501L27.9728 59.2911L28.2733 58.975Z" fill="#161551"/>
<path d="M28.8013 58.9472C28.8013 58.9472 32.5449 62.6387 33.4208 63.4618C34.2447 64.248 35.5292 65.435 35.5292 65.435" stroke="white" stroke-width="1.344"/>
<path d="M43.361 45.6268C42.2749 44.8756 39.9726 45.0425 39.9726 45.0425C39.9726 45.0425 32.429 54.4675 32.4166 54.8706C32.4042 55.2737 37.0935 58.5271 37.1692 58.5613C37.2449 58.5956 45.1035 49.8525 45.1523 49.3444C45.2652 48.1694 44.4472 46.378 43.361 45.6268Z" fill="#2A2976"/>
<path d="M43.7327 32.634C43.7037 32.4746 37.1482 31.6701 36.5374 32.5515C35.9266 33.4328 35.6831 34.3852 36.1513 36.4749C36.6196 38.5647 39.092 46.1287 39.1245 46.3538C39.1673 46.6504 39.3787 46.9604 39.3443 47.5881C39.3263 47.9162 40.449 50.9111 43.3051 50.6588C46.1612 50.4066 46.1463 47.2513 46.1463 47.2513C46.1463 47.2513 45.6668 43.9292 45.2792 42.8931C44.8916 41.857 43.5206 34.7486 43.5206 34.7486C43.5206 34.7486 43.7616 32.7933 43.7327 32.634Z" fill="#2A2976"/>
<path d="M43.9024 32.6895L35.5038 33.2019L35.3369 33.8283C35.3369 33.8283 43.5818 33.8339 43.8654 33.5436C43.921 33.4867 43.9024 32.6895 43.9024 32.6895Z" fill="#0B0B29"/>
<path d="M48.355 28.1736L51.6813 24.7931C51.7704 24.7027 51.9134 24.701 52.0045 24.7896L52.0562 24.8401C52.1509 24.9322 52.1526 25.0862 52.06 25.1803L48.7282 28.5684C48.6312 28.6669 48.4722 28.6587 48.3855 28.5504L48.3389 28.4924C48.2632 28.3978 48.2701 28.2598 48.355 28.1736Z" fill="#0F1029"/>
<path d="M45.6596 29.2939L47.3288 28.9406C47.3924 28.4874 48.2386 27.693 48.5763 27.3923C48.7092 27.2736 48.9231 27.3606 48.9305 27.5411C48.9333 27.6086 48.9216 27.6932 48.8871 27.7986C48.8871 27.7986 50.1181 27.5716 49.8415 28.4127C49.8415 28.4127 50.3212 28.5493 50.0791 29.0764C50.0791 29.0764 50.4569 29.2202 50.2089 29.7193C50.2089 29.7193 50.4332 30.0659 49.9632 30.4954C49.4931 30.9248 47.8968 30.8298 47.8968 30.8298L45.8945 31.4658L45.6596 29.2939Z" fill="#E18888"/>
<path d="M41.0549 21.4338C40.3874 21.0731 39.6565 21.5092 39.275 21.8134C37.18 23.4838 36.012 26.1412 35.2704 28.419C34.5288 30.6967 35.1962 32.519 35.1962 32.5569C35.1962 32.5949 35.792 33.4405 37.0873 32.2912C38.7559 30.8106 41.9077 24.1671 41.9448 24.0152C41.9819 23.8634 42.4948 22.2118 41.0549 21.4338Z" fill="white"/>
<path d="M41.0549 21.4338C40.3874 21.0731 39.6565 21.5092 39.275 21.8134C37.18 23.4838 36.012 26.1412 35.2704 28.419C34.5288 30.6967 35.1962 32.519 35.1962 32.5569C35.1962 32.5949 35.792 33.4405 37.0873 32.2912C38.7559 30.8106 41.9077 24.1671 41.9448 24.0152C41.9819 23.8634 42.4948 22.2118 41.0549 21.4338Z" stroke="black"/>
<path d="M46.1495 28.5005C46.113 28.3675 45.5933 28.4981 45.5933 28.4981C45.5933 28.4981 43.4398 29.1722 41.7327 29.5065C40.0256 29.8409 38.5801 29.645 37.8008 29.7935C37.0215 29.942 35.1636 30.883 35.0489 31.7175C34.9343 32.5521 35.3381 33.5786 37.5987 33.9298C39.8592 34.281 46.3942 32.1832 46.6171 32.0703C46.8401 31.9574 46.7673 31.6155 46.8044 31.6156C46.8415 31.6158 46.1861 28.6335 46.1495 28.5005Z" fill="white"/>
<path d="M46.1495 28.5005C46.113 28.3675 45.5933 28.4981 45.5933 28.4981C45.5933 28.4981 43.4398 29.1722 41.7327 29.5065C40.0256 29.8409 38.5801 29.645 37.8008 29.7935C37.0215 29.942 35.1636 30.883 35.0489 31.7175C34.9343 32.5521 35.3381 33.5786 37.5987 33.9298C39.8592 34.281 46.3942 32.1832 46.6171 32.0703C46.8401 31.9574 46.7673 31.6155 46.8044 31.6156C46.8415 31.6158 46.1861 28.6335 46.1495 28.5005Z" stroke="black"/>
<path d="M67.5207 9.6288C67.5207 12.3699 65.3504 14.5919 62.6733 14.5919C59.996 14.5919 57.8257 12.3699 57.8257 9.6288C57.8257 6.88798 59.996 4.66626 62.6733 4.66626C65.3504 4.66626 67.5207 6.88798 67.5207 9.6288Z" fill="#4D52D6"/>
<path d="M58.415 12.0018L62.6729 18.9432L66.9663 11.9348L58.415 12.0018Z" fill="#4D52D6"/>
<path d="M64.5268 9.5464C64.5268 10.5968 63.6954 11.4483 62.6692 11.4483C61.6432 11.4483 60.8115 10.5968 60.8115 9.5464C60.8115 8.49598 61.6432 7.64453 62.6692 7.64453C63.6954 7.64453 64.5268 8.49598 64.5268 9.5464Z" fill="white"/>
</svg>
