<svg width="33" height="32" viewBox="0 0 33 32" fill="none" xmlns="http://www.w3.org/2000/svg">
<circle cx="16.199" cy="15.8917" r="15.8917" fill="white"/>
<path d="M24.4985 9.66383C24.2743 10.3461 23.8578 10.9469 23.3006 11.3921C23.9036 11.4256 24.3828 11.1704 24.8826 11.0742C24.9652 11.2039 24.8619 11.2623 24.8124 11.3335C24.4819 11.7847 24.0929 12.1887 23.6558 12.5346C23.553 12.6094 23.4704 12.7092 23.4156 12.8248C23.3607 12.9403 23.3354 13.0678 23.3419 13.1958C23.3617 15.5734 22.5775 17.8862 21.1196 19.7494C19.6786 21.6667 17.5765 22.9625 15.2334 23.3776C12.9337 23.8507 10.5431 23.4939 8.47574 22.369C8.29546 22.293 8.13241 22.1805 7.99658 22.0384C8.60378 21.9714 9.16554 22.0384 9.71905 21.9254C10.2863 21.8239 10.8405 21.6583 11.3713 21.4317C11.9012 21.2028 12.4008 20.9075 12.8583 20.5528C12.6964 20.4458 12.5101 20.3825 12.3172 20.3687C11.8406 20.2666 11.3903 20.065 10.9949 19.7768C10.5995 19.4886 10.2677 19.1201 10.0206 18.6948C9.96399 18.6003 9.91296 18.5024 9.86776 18.4018C9.6984 18.0168 9.71905 17.9833 10.1239 17.9833C10.401 18.0091 10.6804 17.9866 10.95 17.9165C10.8467 17.7198 10.6732 17.6988 10.5369 17.6318C9.98173 17.3868 9.49922 16.9993 9.13703 16.5075C8.77484 16.0158 8.54548 15.4368 8.4716 14.8279C8.4716 14.7735 8.47161 14.7192 8.45095 14.6648C8.45095 14.3803 8.48399 14.3383 8.74009 14.4345C9.00629 14.5399 9.28344 14.6144 9.56622 14.6564C9.59596 14.6643 9.62722 14.6641 9.6569 14.656C9.68659 14.648 9.71369 14.6321 9.73557 14.6103C9.73557 14.4429 9.56209 14.3635 9.45883 14.2463C8.99913 13.7582 8.68112 13.1512 8.53975 12.4919C8.39838 11.8326 8.43912 11.1465 8.65749 10.5092C8.68025 10.4302 8.70926 10.3533 8.74423 10.2791C8.89706 9.92757 8.94249 9.91484 9.20685 10.2078C10.1341 11.2574 11.2571 12.1108 12.5114 12.7187C13.5256 13.2074 14.6156 13.5148 15.7333 13.627L15.9728 13.6478C16.1711 13.6478 16.2496 13.5642 16.2207 13.3759C16.1683 12.9946 16.178 12.6071 16.2496 12.2291C16.3498 11.6187 16.604 11.0449 16.9875 10.5633C17.371 10.0818 17.8709 9.70895 18.4386 9.48075C19.0063 9.25254 19.6225 9.17673 20.2276 9.26088C20.8327 9.34502 21.406 9.5862 21.892 9.96094C22.0639 10.1181 22.2769 10.2218 22.5054 10.2597C22.734 10.2975 22.9684 10.268 23.1808 10.1745C23.631 10.0113 24.0441 9.8103 24.4985 9.66383Z" fill="url(#paint0_linear)"/>
<defs>
<linearGradient id="paint0_linear" x1="16.4551" y1="13.1031" x2="16.4551" y2="45.5427" gradientUnits="userSpaceOnUse">
<stop stop-color="#33658A"/>
<stop offset="1" stop-color="#0A0A0A" stop-opacity="0.64"/>
</linearGradient>
</defs>
</svg>
