<svg width="40" height="40" viewBox="0 0 40 40" fill="none" xmlns="http://www.w3.org/2000/svg">
<path d="M32.5 15L36.83 17.5L35.58 19.665L31.25 17.165L32.5 15Z" fill="#F60093"/>
<path d="M32.5 10H37.5V12.5H32.5V10Z" fill="#F60093"/>
<path d="M8.74992 17.165L4.41992 19.665L3.16992 17.5L7.49992 15L8.74992 17.165Z" fill="#F60093"/>
<path d="M32.5 37.5H30V31.25C29.998 29.593 29.3389 28.0044 28.1672 26.8328C26.9956 25.6611 25.407 25.002 23.75 25H16.25C14.593 25.002 13.0044 25.6611 11.8328 26.8328C10.6611 28.0044 10.002 29.593 10 31.25V37.5H7.5V31.25C7.50265 28.9302 8.42537 26.7061 10.0657 25.0657C11.7061 23.4254 13.9302 22.5026 16.25 22.5H23.75C26.0698 22.5026 28.2939 23.4254 29.9343 25.0657C31.5746 26.7061 32.4974 28.9302 32.5 31.25V37.5Z" fill="#F60093"/>
<path d="M20 5C21.2361 5 22.4445 5.36656 23.4723 6.05331C24.5001 6.74007 25.3012 7.71619 25.7743 8.85823C26.2473 10.0003 26.3711 11.2569 26.1299 12.4693C25.8888 13.6817 25.2935 14.7953 24.4194 15.6694C23.5453 16.5435 22.4317 17.1387 21.2193 17.3799C20.0069 17.6211 18.7503 17.4973 17.6082 17.0242C16.4662 16.5512 15.4901 15.7501 14.8033 14.7223C14.1166 13.6945 13.75 12.4861 13.75 11.25C13.75 9.5924 14.4085 8.00268 15.5806 6.83058C16.7527 5.65848 18.3424 5 20 5ZM20 2.5C18.2694 2.5 16.5777 3.01318 15.1388 3.97464C13.6998 4.9361 12.5783 6.30267 11.9161 7.90152C11.2538 9.50037 11.0805 11.2597 11.4181 12.957C11.7558 14.6544 12.5891 16.2135 13.8128 17.4372C15.0365 18.6609 16.5956 19.4942 18.293 19.8319C19.9903 20.1695 21.7496 19.9962 23.3485 19.3339C24.9473 18.6717 26.3139 17.5502 27.2754 16.1112C28.2368 14.6723 28.75 12.9806 28.75 11.25C28.75 8.92936 27.8281 6.70376 26.1872 5.06282C24.5462 3.42187 22.3206 2.5 20 2.5Z" fill="#F60093"/>
<path d="M31.25 5.33496L35.58 2.83496L36.83 4.99996L32.5 7.49996L31.25 5.33496Z" fill="#F60093"/>
<path d="M2.5 10H7.5V12.5H2.5V10Z" fill="#F60093"/>
<path d="M7.49992 7.49996L3.16992 4.99996L4.41992 2.83496L8.74992 5.33496L7.49992 7.49996Z" fill="#F60093"/>
</svg>
