<svg width="522" height="461" viewBox="0 0 522 461" fill="none" xmlns="http://www.w3.org/2000/svg">
<path d="M246.663 350.521H7.991C4.1594 350.521 0.945801 347.307 0.945801 343.476V8.02518C0.945801 4.19358 4.1594 0.97998 7.991 0.97998H246.663C250.494 0.97998 253.708 4.19358 253.708 8.02518V343.476C253.708 347.307 250.494 350.521 246.663 350.521ZM7.991 1.22718C4.283 1.22718 1.193 4.19358 1.193 8.02518V343.476C1.193 347.184 4.1594 350.274 7.991 350.274H246.663C250.371 350.274 253.461 347.307 253.461 343.476V8.02518C253.461 4.31718 250.494 1.22718 246.663 1.22718H7.991Z" fill="#EBEBEB"/>
<path d="M514.009 350.521H275.338C271.506 350.521 268.292 347.307 268.292 343.476V8.02518C268.292 4.19358 271.506 0.97998 275.338 0.97998H514.009C517.841 0.97998 521.054 4.19358 521.054 8.02518V343.476C521.054 347.307 517.841 350.521 514.009 350.521ZM275.338 1.22718C271.63 1.22718 268.54 4.19358 268.54 8.02518V343.476C268.54 347.184 271.506 350.274 275.338 350.274H514.009C517.717 350.274 520.807 347.307 520.807 343.476V8.02518C520.807 4.31718 517.841 1.22718 514.009 1.22718H275.338Z" fill="#EBEBEB"/>
<path d="M230.347 421.344H114.534V421.591H230.347V421.344Z" fill="#EBEBEB"/>
<path d="M142.838 129.153C158.041 129.153 200.683 135.333 200.683 112.467C200.683 93.062 179.918 94.4216 179.918 94.4216C179.918 94.4216 180.536 77.612 161.996 75.3872C142.838 73.0388 139.872 91.208 139.872 91.208C139.872 91.208 106.871 79.5896 111.815 108.759C111.815 108.759 93.522 105.546 93.522 118.647C93.6456 133.232 128.13 129.03 142.838 129.153Z" fill="#F0F0F0"/>
<path d="M123.68 302.194C154.58 302.317 240.977 316.408 240.977 264.001C240.977 219.505 198.706 222.719 198.706 222.719C198.706 222.719 199.942 184.156 162.244 178.964C123.68 173.65 117.748 215.426 117.748 215.426C117.748 215.426 50.7564 188.852 60.8916 255.473C60.8916 255.473 23.688 248.057 23.688 278.092C23.8116 311.711 93.7692 302.07 123.68 302.194Z" fill="#F5F5F5"/>
<path d="M238.876 306.891C221.819 306.891 173.986 314.801 173.986 285.755C173.986 261.159 197.346 262.889 197.346 262.889C197.346 262.889 196.728 241.506 217.493 238.663C238.876 235.697 242.089 258.81 242.089 258.81C242.089 258.81 279.169 244.102 273.484 280.935C273.484 280.935 294.001 276.856 294.001 293.418C294.125 312.082 255.438 306.767 238.876 306.891Z" fill="#F0F0F0"/>
<path d="M334.047 185.391C351.104 185.391 398.814 191.942 398.814 167.84C398.814 147.322 375.453 148.806 375.453 148.806C375.453 148.806 376.071 131.007 355.307 128.659C334.047 126.187 330.834 145.468 330.834 145.468C330.834 145.468 293.877 133.232 299.439 163.885C299.439 163.885 278.922 160.424 278.922 174.267C279.045 189.717 317.609 185.268 334.047 185.391Z" fill="#F0F0F0"/>
<path d="M283.372 405.523L308.215 244.225L382.128 150.907L407.342 44.6108C407.342 44.6108 468.524 103.692 470.131 105.175C471.862 106.782 485.334 266.102 487.188 268.574C489.042 271.046 506.593 298.856 506.593 298.856L514.751 405.028L283.372 405.523Z" fill="#FAFAFA"/>
<path d="M283.372 405.523L318.845 266.226L369.026 218.269L378.42 278.956L391.027 209.988L405.488 233.472L402.275 152.39L404.87 126.558L413.275 143.738L407.466 44.4873L449.984 45.4761L458.884 92.3205L470.255 105.175L487.312 268.574L506.717 298.856L514.874 405.028L283.372 405.523Z" fill="#EBEBEB"/>
<path d="M408.578 45.1055L433.916 127.052L448.995 139.041C448.995 139.041 456.906 172.29 456.906 170.189C456.906 168.087 456.041 130.76 456.041 130.76L459.996 100.355L450.108 46.0943L408.578 45.1055Z" fill="#F5F5F5"/>
<path d="M487.312 268.574L493.121 296.137L506.717 298.856L487.312 268.574Z" fill="#F5F5F5"/>
<path d="M392.14 350.026C419.208 350.15 494.975 362.51 494.975 316.531C494.975 277.473 457.895 280.316 457.895 280.316C457.895 280.316 459.007 246.449 426.006 242C392.14 237.427 387.072 273.889 387.072 273.889C387.072 273.889 328.362 250.652 337.261 308.991C337.261 308.991 304.631 302.44 304.631 328.767C304.631 358.431 365.936 350.026 392.14 350.026Z" fill="#F5F5F5"/>
<path d="M89.0724 416.152H81.2856V416.4H89.0724V416.152Z" fill="#EBEBEB"/>
<path d="M263.595 460.772C395.956 460.772 503.256 454.519 503.256 446.805C503.256 439.092 395.956 432.838 263.595 432.838C131.235 432.838 23.9351 439.092 23.9351 446.805C23.9351 454.519 131.235 460.772 263.595 460.772Z" fill="#F5F5F5"/>
<path d="M450.602 50.5437C450.602 62.5329 440.961 72.1737 428.972 72.1737C428.478 72.1737 427.984 72.1737 427.489 72.1737C416.242 71.4321 407.342 62.0385 407.342 50.6673C407.342 39.2961 416.242 29.9025 427.489 29.0373C427.984 29.0373 428.478 29.0373 428.972 29.0373C440.838 28.9137 450.602 38.5545 450.602 50.5437Z" fill="#407BFF"/>
<path opacity="0.2" d="M447.636 50.5436C447.636 62.0384 438.737 71.3084 427.489 72.05C416.242 71.3084 407.342 61.9148 407.342 50.5436C407.342 39.1724 416.242 29.7788 427.489 28.9136C438.737 29.6552 447.636 39.0488 447.636 50.5436Z" fill="white"/>
<path opacity="0.4" d="M442.448 56.6651C445.87 48.4032 441.947 38.9314 433.685 35.5092C425.423 32.0869 415.951 36.0102 412.529 44.272C409.107 52.5339 413.03 62.0057 421.292 65.428C429.554 68.8502 439.026 64.9269 442.448 56.6651Z" fill="white"/>
<path d="M421.309 52.2741V49.5549H424.275C425.141 49.5549 425.882 49.4313 426.377 49.0605C426.871 48.6897 426.995 48.1953 426.995 47.4537H421.309V44.7345H426.995C426.995 43.9929 426.747 43.3749 426.377 43.1277C425.882 42.7569 425.264 42.6333 424.275 42.6333H421.309V39.9141H432.433V42.6333H429.714C430.085 43.2513 430.332 43.9929 430.579 44.7345H432.433V47.4537H430.579C430.455 48.4425 430.208 49.3077 429.714 50.0493C429.219 50.7909 428.601 51.4089 427.86 51.7797C427.118 52.1505 426.377 52.3977 425.635 52.3977L432.68 62.5329H428.354L421.309 52.2741Z" fill="white"/>
<path d="M321.44 249.045H248.269V446.805H321.44V249.045Z" fill="#33658A"/>
<path opacity="0.2" d="M268.91 248.922H248.269V446.929H268.91V248.922Z" fill="black"/>
<path d="M248.145 328.149H174.974V446.805H248.145V328.149Z" fill="#33658A"/>
<path opacity="0.2" d="M196.975 328.149H174.974V446.682H196.975V328.149Z" fill="black"/>
<path d="M174.974 353.364H101.803V446.805H174.974V353.364Z" fill="#33658A"/>
<path opacity="0.2" d="M123.557 353.364H101.803V446.682H123.557V353.364Z" fill="black"/>
<path d="M101.803 378.578H28.6318V446.805H101.803V378.578Z" fill="#33658A"/>
<path opacity="0.2" d="M49.273 378.455H28.6318V446.682H49.273V378.455Z" fill="black"/>
<path d="M227.505 96.2755C224.044 100.478 220.459 104.557 216.875 108.635L214.156 111.725L211.684 114.445C210.695 115.681 210.077 117.04 209.83 118.771L208.965 126.805C208.717 129.524 208.47 132.243 208.099 134.962C207.481 140.401 206.863 145.839 206.122 151.154C205.875 153.008 204.144 154.367 202.29 154.12C200.56 153.873 199.447 152.513 199.324 150.907C198.953 145.468 198.829 140.03 198.582 134.591C198.459 131.872 198.459 129.153 198.335 126.434L198.211 118.153C198.211 114.321 199.571 110.489 201.672 107.276L204.391 103.691L206.863 100.478C210.201 96.1518 213.414 91.8258 216.751 87.6234C219.1 84.657 223.549 84.1626 226.516 86.511C229.482 88.8594 229.977 93.1855 227.505 96.2755C227.505 96.2755 227.628 96.1519 227.505 96.2755Z" fill="#33658A"/>
<path d="M198.458 151.401L193.885 159.064L204.268 160.177L206.122 152.39C206.369 151.525 205.751 150.536 204.762 150.412C203.155 150.041 200.56 149.918 198.458 151.401Z" fill="#CB7A63"/>
<path d="M194.009 159.064L194.503 161.783C194.75 163.143 195.863 164.132 197.222 164.132H200.56C201.548 164.132 202.537 163.514 203.032 162.648L204.391 160.176L194.009 159.064Z" fill="#CB7A63"/>
<path d="M197.84 145.592L207.852 145.963L207.11 152.019L198.706 151.277L197.84 145.592Z" fill="#407BFF"/>
<path opacity="0.3" d="M197.84 145.592L207.852 145.963L207.11 152.019L198.706 151.277L197.84 145.592Z" fill="white"/>
<path d="M207.852 208.381L206.245 210.853L205.009 208.257L207.976 169.447C208.47 163.267 206.369 158.199 198.706 158.076C191.537 157.952 187.211 162.772 186.716 168.952L183.626 207.639L181.896 210.111L180.784 207.516L183.997 168.829C184.615 161.66 187.705 155.974 199.076 156.222C210.448 156.469 211.684 162.402 211.066 169.57L207.852 208.381Z" fill="#263238"/>
<path d="M176.087 182.301H174.109C170.03 182.301 166.446 185.391 165.952 189.47L162.244 217.404L175.098 217.898L176.087 182.301Z" fill="#263238"/>
<path opacity="0.2" d="M176.087 182.301H174.109C170.03 182.301 166.446 185.391 165.952 189.47L162.244 217.404L175.098 217.898L176.087 182.301Z" fill="white"/>
<path d="M212.425 208.751L209.459 208.628L209.706 169.817C209.706 163.637 207.357 158.57 199.571 158.446C192.402 158.323 188.323 163.143 188.323 169.323L187.829 208.01L184.986 207.886L185.48 169.199C185.604 162.031 188.323 156.345 199.694 156.592C211.065 156.839 212.672 162.772 212.672 169.941L212.425 208.751Z" fill="#263238"/>
<path d="M226.021 219.257L168.794 217.527L169.289 188.728C169.289 185.02 172.379 182.177 175.963 182.177L217.616 183.29C222.313 183.413 226.145 187.368 226.145 192.189L226.021 219.257Z" fill="#263238"/>
<path opacity="0.4" d="M219.718 219.134L175.098 217.774C171.637 217.65 168.794 214.684 168.918 211.1L169.412 188.728C169.412 185.02 172.502 182.177 176.087 182.177L217.74 183.29C222.437 183.413 226.268 187.368 226.268 192.189L226.145 212.83C226.145 216.414 223.178 219.257 219.718 219.134Z" fill="white"/>
<g opacity="0.3">
<path opacity="0.3" d="M212.425 208.751L210.942 211.223L209.459 208.628L209.706 169.817C209.706 163.637 207.358 158.57 199.571 158.446C192.402 158.323 188.323 163.143 188.323 169.323L187.829 208.01L186.222 210.482L184.862 207.886L185.357 169.199C185.48 162.031 188.2 156.345 199.571 156.592C210.942 156.839 212.549 162.772 212.549 169.941L212.425 208.751Z" fill="white"/>
</g>
<path d="M188.941 193.054L184.245 192.931V191.2L189.065 191.324L188.941 193.054Z" fill="#263238"/>
<path d="M188.818 204.797L184.121 204.549V202.819L188.941 202.942L188.818 204.797Z" fill="#263238"/>
<path d="M213.538 193.796L208.717 193.672V191.818L213.538 191.942V193.796Z" fill="#263238"/>
<path d="M213.414 205.414L208.594 205.291V203.437L213.414 203.56V205.414Z" fill="#263238"/>
<path d="M204.391 194.537L194.132 194.29V190.458L204.391 190.706V194.537Z" fill="white"/>
<path d="M248.517 52.8916C248.888 52.768 249.382 53.2624 249.506 53.8804C249.629 54.4984 249.382 54.9928 249.011 55.1164C248.64 55.24 248.146 54.7456 248.022 54.1276C247.899 53.5096 248.146 53.0152 248.517 52.8916Z" fill="#263238"/>
<path d="M248.64 53.3863C249.011 53.1391 249.382 52.7683 249.629 52.3975C249.258 52.7683 248.764 52.8919 248.393 52.8919C248.517 52.8919 248.64 53.1391 248.64 53.3863Z" fill="#263238"/>
<path d="M249.382 59.4429C250.371 59.4429 251.483 59.0721 252.101 58.3305C250.618 56.9709 249.258 55.4877 248.146 53.8809L249.382 59.4429Z" fill="#B74D3C"/>
<path d="M245.303 51.9031C245.921 51.1615 246.786 50.7907 247.651 50.7907H247.775C248.022 50.7907 248.146 50.6671 248.146 50.4199C248.146 50.1727 248.022 50.0491 247.775 50.0491C246.663 49.9255 245.55 50.4199 244.809 51.2851C244.809 51.4087 244.685 51.4087 244.685 51.5323C244.685 51.7795 244.809 51.9031 245.056 51.9031C245.056 52.0267 245.179 51.9031 245.303 51.9031Z" fill="#263238"/>
<path d="M241.472 87.6236C231.213 87.7472 229.606 82.1852 229.606 82.1852C232.696 79.2188 232.82 73.6568 232.202 68.8364C232.943 69.9488 233.932 70.9376 235.292 71.8028C237.764 73.4096 243.078 70.814 243.078 70.814C243.078 70.814 243.078 71.6792 243.202 73.0388C243.326 76.2524 244.067 81.8144 247.034 82.6796C246.91 82.6796 252.843 87.5 241.472 87.6236Z" fill="#CB7A63"/>
<path d="M243.202 71.5556C243.078 72.05 242.955 72.5444 242.955 73.0388H242.831C240.483 73.6568 237.763 73.286 235.291 71.6792C234.055 70.814 233.067 69.8252 232.201 68.7128C232.078 67.4768 231.831 66.2408 231.583 65.1284L242.831 71.3084L243.202 71.5556Z" fill="#CB7A63"/>
<path d="M250.618 63.1506C250.494 66.9822 248.517 70.1958 245.55 71.9262C244.809 72.4206 243.943 72.7914 243.078 73.0386H242.955C240.606 73.6566 237.887 73.2858 235.415 71.679C234.179 70.8138 233.19 69.825 232.325 68.7126C230.347 65.9934 229.482 62.2854 227.999 57.0942C227.505 55.611 227.505 54.0042 227.752 52.3974C228.741 46.8354 234.055 43.1274 239.617 44.1162C247.404 45.4758 250.741 56.229 250.618 63.1506Z" fill="#CB7A63"/>
<path opacity="0.2" d="M244.932 72.0498C244.191 72.5442 243.82 72.6678 243.078 72.915C242.955 71.5554 243.078 70.6902 242.955 70.6902C243.078 69.5778 243.078 68.3418 243.078 68.3418C243.202 68.4654 244.438 72.0498 244.932 72.0498Z" fill="black"/>
<path d="M247.899 49.1838C247.033 50.5434 244.438 51.6558 244.561 51.285C245.056 50.1726 244.932 48.0714 243.573 48.5658C243.943 49.431 245.056 55.7346 244.561 56.4762C244.314 56.847 244.067 61.9146 241.842 66.4878C240.112 70.0722 240.112 71.1846 240.112 71.1846L233.067 72.5442C230.471 72.1734 227.999 68.8362 227.752 68.4654C226.887 66.8586 224.044 64.7574 222.561 63.7686C221.943 63.2742 221.448 62.6562 221.201 61.791C220.707 60.4314 221.695 55.611 221.943 53.2626C222.19 49.9254 223.92 46.959 228.741 44.9814C231.707 43.7454 234.179 41.1498 237.145 40.0374C240.112 39.0486 243.696 39.0486 246.292 40.9026C247.528 42.015 250 45.8466 247.899 49.1838Z" fill="#263238"/>
<path d="M244.191 53.7569C246.415 54.3749 247.528 57.5885 247.528 59.5661C247.651 61.7909 246.168 63.2741 244.191 61.6673C242.707 60.5549 241.719 58.9481 241.224 57.0941C240.73 54.9929 242.089 53.1389 244.191 53.7569Z" fill="#CB7A63"/>
<path d="M246.786 61.1729C246.786 61.6673 246.415 62.1617 245.797 62.1617C245.179 62.1617 244.809 61.7909 244.809 61.1729C244.809 60.6785 245.179 60.1841 245.797 60.1841C246.415 60.1841 246.786 60.6785 246.786 61.1729Z" fill="#407BFF"/>
<path opacity="0.3" d="M246.786 61.1729C246.786 61.6673 246.415 62.1617 245.797 62.1617C245.179 62.1617 244.809 61.7909 244.809 61.1729C244.809 60.6785 245.179 60.1841 245.797 60.1841C246.415 60.1841 246.786 60.6785 246.786 61.1729Z" fill="white"/>
<path d="M226.639 85.8929C226.639 85.8929 228.246 80.9489 230.594 79.4657C232.943 77.8589 243.572 79.4657 245.303 80.2073C246.91 80.8253 248.64 84.6569 248.64 84.6569L226.639 85.8929Z" fill="#407BFF"/>
<path opacity="0.3" d="M226.639 85.8929C226.639 85.8929 228.246 80.9489 230.594 79.4657C232.943 77.8589 243.572 79.4657 245.303 80.2073C246.91 80.8253 248.64 84.6569 248.64 84.6569L226.639 85.8929Z" fill="white"/>
<path d="M250.865 83.7917C249.258 83.5445 248.764 83.2973 246.91 83.1737C241.224 82.9265 235.538 82.9265 229.853 83.2973C227.752 83.4209 225.774 83.7918 223.796 84.2862C219.718 85.275 216.998 88.983 217.246 93.1854C218.111 104.804 221.448 111.602 222.066 119.141C223.055 134.344 220.706 144.974 220.212 148.558L227.999 149.794C241.842 149.423 251.112 146.457 258.775 143.243C258.775 143.243 256.798 124.951 258.652 118.276C263.966 100.231 260.506 97.3878 259.517 92.1966C258.652 87.747 255.191 84.4097 250.865 83.7917Z" fill="#33658A"/>
<path d="M253.089 83.1739C255.932 83.5447 258.775 84.1627 261.618 84.6571C264.461 85.1515 267.303 85.7695 270.023 86.3875L269.034 86.2639C270.27 86.2639 271.382 86.3875 272.124 86.5111C272.495 86.5111 272.742 86.5111 272.618 86.6347C272.618 86.6347 272.495 86.7583 272.247 86.8819C272 87.0055 271.753 87.2527 271.382 87.4999C270.764 88.1179 270.517 88.9831 270.517 89.2303C270.517 89.4775 270.641 89.4775 270.641 89.2303C270.641 88.7359 270.641 87.8707 270.393 87.0055L270.517 87.3763C269.034 83.2975 267.798 79.0951 266.438 74.8927C265.202 70.6903 264.09 66.4879 263.225 62.1619C262.854 60.4315 263.966 58.8247 265.697 58.5775C266.933 58.3303 268.169 58.9483 268.91 59.9371C271.259 63.6451 273.236 67.6003 275.214 71.4319C277.191 75.3871 278.922 79.3423 280.776 83.2975L280.899 83.6683C281.394 84.9043 281.888 86.2639 282.135 87.9943C282.259 88.8595 282.383 89.9719 282.135 91.3315C281.888 92.6911 281.147 94.6686 279.787 96.0282C279.045 96.7698 278.304 97.2643 277.562 97.6351C276.821 98.0059 276.203 98.2531 275.585 98.3767C274.349 98.7475 273.483 98.7475 272.742 98.8711C271.259 98.9947 270.023 98.9946 269.034 99.1182H268.91L268.045 98.9947C265.202 98.7475 262.359 98.3767 259.517 98.0059C256.674 97.6351 253.831 97.2643 250.988 96.7699C247.28 96.1519 244.685 92.5675 245.426 88.7359C245.921 85.1515 249.381 82.6795 253.089 83.1739Z" fill="#33658A"/>
<path d="M304.136 56.5999L341.217 55.4875L340.722 43.8691L303.642 46.2175L304.136 56.5999Z" fill="#33658A"/>
<path d="M276.203 56.9708L306.114 56.1056L305.743 46.5884L275.832 48.4424L276.203 56.9708Z" fill="#33658A"/>
<path d="M302.159 56.3524L304.136 56.476L303.642 46.3408L301.788 46.7116L302.159 56.3524Z" fill="#263238"/>
<path opacity="0.2" d="M302.159 56.3524L304.136 56.476L303.642 46.3408L301.788 46.7116L302.159 56.3524Z" fill="black"/>
<path d="M304.136 56.5997L306.114 56.4761L305.62 46.0938L303.642 46.2173L304.136 56.5997Z" fill="#263238"/>
<path d="M271.506 55.6111L274.472 56.9707L274.102 48.6895L271.259 50.2963L271.506 55.6111Z" fill="#263238"/>
<path d="M256.303 55.4876L265.079 54.9932L264.955 51.1616L256.18 51.656L256.303 55.4876Z" fill="#263238"/>
<path opacity="0.2" d="M256.303 55.4876L265.079 54.9932L264.955 51.1616L256.18 51.656L256.303 55.4876Z" fill="black"/>
<path d="M263.966 55.858L273.731 55.4872L273.484 50.0488L263.719 50.5432L263.966 55.858Z" fill="#263238"/>
<path opacity="0.2" d="M271.506 55.6111L274.472 56.9707L274.102 48.6895L271.259 50.2963L271.506 55.6111Z" fill="black"/>
<path d="M274.596 57.0944L276.203 56.9708L275.832 48.4424L274.102 48.566L274.596 57.0944Z" fill="#263238"/>
<path d="M339.98 55.4872L345.79 55.24L345.172 43.6216L339.362 43.8688L339.98 55.4872Z" fill="#263238"/>
<path d="M342.576 56.3526L349.992 56.1054L350.116 55.611C351.723 51.1614 351.352 46.341 349.25 42.2622L341.834 42.7566L341.958 43.1274C343.812 47.3298 343.936 52.0266 342.576 56.3526Z" fill="#33658A"/>
<g opacity="0.4">
<path opacity="0.4" d="M334.666 45.1046L337.633 44.981V46.217L334.542 46.3406C334.542 45.9698 334.666 45.599 334.666 45.1046Z" fill="white"/>
<path opacity="0.4" d="M332.812 45.228C332.812 45.5988 332.812 46.0932 332.812 46.464L306.856 47.9472L306.732 46.8348L332.812 45.228Z" fill="white"/>
</g>
<g opacity="0.4">
<path opacity="0.4" d="M276.45 49.1835V50.1723L300.923 48.6891L300.799 47.5767L276.45 49.1835Z" fill="white"/>
</g>
<g opacity="0.4">
<path opacity="0.4" d="M342.576 43.1272V44.3632L348.385 43.9924V42.6328L342.576 43.1272Z" fill="white"/>
</g>
<path opacity="0.3" d="M349.25 54.375C349.25 54.8694 349.25 55.2402 349.25 55.7346L343.194 55.9818L343.07 54.7458L349.25 54.375Z" fill="black"/>
<path opacity="0.3" d="M338.497 53.6333C338.497 54.0041 338.497 54.4985 338.497 54.8693L306.732 56.1053L306.608 54.9929L338.497 53.6333Z" fill="black"/>
<path opacity="0.3" d="M300.552 54.7456C300.552 55.1164 300.552 55.4872 300.552 55.858L276.944 56.7232V55.7344L300.552 54.7456Z" fill="black"/>
<path d="M254.326 51.7795L254.449 55.4875C254.449 56.1055 255.067 56.5999 255.685 56.5999H258.775L258.652 50.5435L255.562 50.6671C254.82 50.6671 254.326 51.1615 254.326 51.7795Z" fill="#33658A"/>
<path d="M270.023 62.1617L271.135 55.2401C271.135 54.9929 271.135 54.6221 271.135 54.3749L270.765 50.6669C270.765 50.1725 270.394 49.6782 269.899 49.5546L264.337 49.4309C263.596 49.1837 262.854 49.5546 262.607 50.1726L261.618 54.7457C261.494 55.1165 261.494 55.4874 261.618 55.7346L263.225 62.0381C263.349 62.5325 263.843 63.0269 264.461 63.0269H268.045C269.034 63.3977 269.776 62.9033 270.023 62.1617Z" fill="#CE7A63"/>
<path d="M273.237 65.1281L263.843 68.4653L262.236 62.6561L270.394 60.1841L273.237 65.1281Z" fill="#407BFF"/>
<path opacity="0.3" d="M273.237 65.1281L263.843 68.4653L262.236 62.6561L270.394 60.1841L273.237 65.1281Z" fill="white"/>
<path opacity="0.2" d="M261 108.883L253.708 95.1631L261 97.5115C261.618 100.107 261.865 103.321 261 108.883Z" fill="black"/>
<path d="M298.327 222.348L296.844 240.888L305.249 241.011L307.597 221.977L298.327 222.348Z" fill="#CE7A63"/>
<path d="M306.608 238.539L296.968 238.787C296.597 238.787 296.35 239.034 296.226 239.405L294.619 247.809C294.496 248.551 294.866 249.293 295.608 249.416C295.732 249.416 295.732 249.416 295.855 249.416C299.316 249.293 302.406 249.045 306.732 248.922C311.8 248.798 310.564 249.54 316.496 249.416C320.081 249.416 320.699 244.967 319.216 244.843C312.17 243.978 311.429 241.753 308.71 239.157C308.092 238.663 307.35 238.416 306.608 238.539Z" fill="#263238"/>
<path d="M205.998 301.822L202.537 318.879L211.684 321.722L216.01 304.294L205.998 301.822Z" fill="#CE7A63"/>
<path d="M254.573 143.862C254.573 143.862 241.595 219.381 234.673 241.506C229.729 257.327 216.257 309.115 216.257 309.115L204.144 306.396C204.144 306.396 202.785 271.17 209.583 253.001C211.931 246.821 214.897 241.259 215.763 237.303C219.223 220.865 212.055 191.077 215.268 168.829C216.999 156.84 220.707 148.188 220.707 148.188L254.573 143.862Z" fill="#263238"/>
<path d="M234.673 241.505C229.729 257.326 216.257 309.115 216.257 309.115L204.144 306.395C204.144 306.395 202.785 271.169 209.583 253C211.931 246.82 214.897 241.258 215.763 237.303C219.223 220.864 212.055 191.077 215.268 168.829C216.999 156.839 220.707 148.188 220.707 148.188" fill="#263238"/>
<path opacity="0.2" d="M238.752 167.222L245.303 192.807L250 168.335L238.752 167.222Z" fill="black"/>
<path d="M308.092 231.247L296.226 231.618C296.226 231.618 297.091 216.044 297.091 193.425C297.091 189.964 297.586 186.504 298.451 183.414C300.181 176.492 302.901 171.301 302.901 171.301C302.901 171.301 301.665 171.424 299.44 171.424C292.765 171.795 250.989 173.896 250.247 173.896C249.629 173.773 245.797 174.391 238.999 171.054C226.392 164.874 226.269 147.693 226.269 147.693L258.775 143.244C258.775 143.244 259.27 143.367 267.18 143.491C290.911 143.862 320.081 144.85 325.149 153.008C332.317 164.256 308.092 231.247 308.092 231.247Z" fill="#263238"/>
<path d="M212.178 317.272L202.166 317.396C201.796 317.396 201.425 317.643 201.425 318.014L200.189 326.542C200.065 327.284 200.56 328.026 201.301 328.149C201.425 328.149 201.548 328.149 201.548 328.149C205.133 328.026 208.346 327.778 212.796 327.778C218.111 327.655 216.751 328.396 223.055 328.396C226.763 328.396 227.134 323.947 225.65 323.7C218.358 322.834 217.369 320.61 214.403 317.89C213.661 317.52 212.92 317.272 212.178 317.272Z" fill="#263238"/>
<path opacity="0.2" d="M298.451 183.29C300.181 176.368 302.9 171.177 302.9 171.177C302.9 171.177 301.664 171.301 299.44 171.301C299.316 171.301 299.192 171.301 299.069 171.301L307.721 170.559L298.451 183.29Z" fill="black"/>
<path d="M71.2741 90.9608C79.6704 90.9608 86.4769 84.1543 86.4769 75.758C86.4769 67.3617 79.6704 60.5552 71.2741 60.5552C62.8778 60.5552 56.0713 67.3617 56.0713 75.758C56.0713 84.1543 62.8778 90.9608 71.2741 90.9608Z" fill="#407BFF"/>
<path opacity="0.6" d="M71.2741 90.9608C79.6704 90.9608 86.4769 84.1543 86.4769 75.758C86.4769 67.3617 79.6704 60.5552 71.2741 60.5552C62.8778 60.5552 56.0713 67.3617 56.0713 75.758C56.0713 84.1543 62.8778 90.9608 71.2741 90.9608Z" fill="white"/>
<path d="M71.3972 54.7459C70.1612 54.7459 69.1724 53.7571 69.1724 52.5211V42.5095C69.1724 41.2735 70.1612 40.2847 71.3972 40.2847C72.6332 40.2847 73.622 41.2735 73.622 42.5095V52.5211C73.622 53.7571 72.6332 54.7459 71.3972 54.7459Z" fill="#407BFF"/>
<path d="M71.3972 110.86C70.1612 110.86 69.1724 109.871 69.1724 108.635V98.6237C69.1724 97.3877 70.1612 96.3989 71.3972 96.3989C72.6332 96.3989 73.622 97.3877 73.622 98.6237V108.635C73.622 109.871 72.6332 110.86 71.3972 110.86Z" fill="#407BFF"/>
<path d="M55.0822 61.5438C54.4642 61.5438 53.9698 61.2966 53.4754 60.9258L49.1494 56.5998C48.2842 55.7346 48.2842 54.2514 49.1494 53.3862C50.0146 52.521 51.4978 52.521 52.363 53.3862L56.689 57.7122C57.5542 58.5774 57.5542 60.0606 56.689 60.9258C56.1946 61.2966 55.5766 61.5438 55.0822 61.5438Z" fill="#407BFF"/>
<path d="M91.6679 98.2531C91.0499 98.2531 90.5555 98.0059 90.0611 97.6351L86.1059 93.6799C85.2407 92.8147 85.2407 91.3315 86.1059 90.4663C86.9711 89.6011 88.4543 89.6011 89.3195 90.4663L93.2747 94.4215C94.1399 95.2867 94.1399 96.7699 93.2747 97.6351C92.7803 98.0059 92.2859 98.2531 91.6679 98.2531Z" fill="#407BFF"/>
<path d="M48.2843 77.8588H38.2727C37.0367 77.8588 36.0479 76.87 36.0479 75.634C36.0479 74.398 37.0367 73.4092 38.2727 73.4092H48.2843C49.5203 73.4092 50.509 74.398 50.509 75.634C50.509 76.87 49.5203 77.8588 48.2843 77.8588Z" fill="#407BFF"/>
<path d="M104.399 77.8588H94.3869C93.1509 77.8588 92.1621 76.87 92.1621 75.634C92.1621 74.398 93.1509 73.4092 94.3869 73.4092H104.399C105.635 73.4092 106.623 74.398 106.623 75.634C106.623 76.87 105.635 77.8588 104.399 77.8588Z" fill="#407BFF"/>
<path d="M51.2508 98.0055C50.6328 98.0055 50.1384 97.7583 49.644 97.3875C48.7788 96.5223 48.7788 95.0391 49.644 94.1739L53.4756 90.3423C54.3408 89.4771 55.824 89.4771 56.6892 90.3423C57.5544 91.2075 57.5544 92.6907 56.6892 93.5559L52.8576 97.3875C52.3632 97.7583 51.8688 98.0055 51.2508 98.0055Z" fill="#407BFF"/>
<path d="M87.7127 61.5437C87.0947 61.5437 86.6003 61.2965 86.1059 60.9257C85.2407 60.0605 85.2407 58.5773 86.1059 57.7121L90.1847 53.6333C91.0499 52.7681 92.5331 52.7681 93.3983 53.6333C94.2635 54.4985 94.2635 55.9817 93.3983 56.8469L89.3195 60.9257C88.8251 61.2965 88.2071 61.5437 87.7127 61.5437Z" fill="#407BFF"/>
<g opacity="0.6">
<g opacity="0.6">
<g opacity="0.6">
<path opacity="0.6" d="M71.3972 54.7459C70.1612 54.7459 69.1724 53.7571 69.1724 52.5211V42.5095C69.1724 41.2735 70.1612 40.2847 71.3972 40.2847C72.6332 40.2847 73.622 41.2735 73.622 42.5095V52.5211C73.622 53.7571 72.6332 54.7459 71.3972 54.7459Z" fill="white"/>
</g>
<g opacity="0.6">
<path opacity="0.6" d="M71.3972 110.86C70.1612 110.86 69.1724 109.871 69.1724 108.635V98.6237C69.1724 97.3877 70.1612 96.3989 71.3972 96.3989C72.6332 96.3989 73.622 97.3877 73.622 98.6237V108.635C73.622 109.871 72.6332 110.86 71.3972 110.86Z" fill="white"/>
</g>
</g>
<g opacity="0.6">
<g opacity="0.6">
<path opacity="0.6" d="M55.0822 61.5438C54.4642 61.5438 53.9698 61.2966 53.4754 60.9258L49.1494 56.5998C48.2842 55.7346 48.2842 54.2514 49.1494 53.3862C50.0146 52.521 51.4978 52.521 52.363 53.3862L56.689 57.7122C57.5542 58.5774 57.5542 60.0606 56.689 60.9258C56.1946 61.2966 55.5766 61.5438 55.0822 61.5438Z" fill="white"/>
</g>
<g opacity="0.6">
<path opacity="0.6" d="M91.6679 98.2531C91.0499 98.2531 90.5555 98.0059 90.0611 97.6351L86.1059 93.6799C85.2407 92.8147 85.2407 91.3315 86.1059 90.4663C86.9711 89.6011 88.4543 89.6011 89.3195 90.4663L93.2747 94.4215C94.1399 95.2867 94.1399 96.7699 93.2747 97.6351C92.7803 98.0059 92.2859 98.2531 91.6679 98.2531Z" fill="white"/>
</g>
</g>
<g opacity="0.6">
<g opacity="0.6">
<path opacity="0.6" d="M48.2843 77.8588H38.2727C37.0367 77.8588 36.0479 76.87 36.0479 75.634C36.0479 74.398 37.0367 73.4092 38.2727 73.4092H48.2843C49.5203 73.4092 50.509 74.398 50.509 75.634C50.509 76.87 49.5203 77.8588 48.2843 77.8588Z" fill="white"/>
</g>
<g opacity="0.6">
<path opacity="0.6" d="M104.399 77.8588H94.3869C93.1509 77.8588 92.1621 76.87 92.1621 75.634C92.1621 74.398 93.1509 73.4092 94.3869 73.4092H104.399C105.635 73.4092 106.623 74.398 106.623 75.634C106.623 76.87 105.635 77.8588 104.399 77.8588Z" fill="white"/>
</g>
</g>
<g opacity="0.6">
<g opacity="0.6">
<path opacity="0.6" d="M51.2508 98.0055C50.6328 98.0055 50.1384 97.7583 49.644 97.3875C48.7788 96.5223 48.7788 95.0391 49.644 94.1739L53.4756 90.3423C54.3408 89.4771 55.824 89.4771 56.6892 90.3423C57.5544 91.2075 57.5544 92.6907 56.6892 93.5559L52.8576 97.3875C52.3632 97.7583 51.8688 98.0055 51.2508 98.0055Z" fill="white"/>
</g>
<g opacity="0.6">
<path opacity="0.6" d="M87.7127 61.5437C87.0947 61.5437 86.6003 61.2965 86.1059 60.9257C85.2407 60.0605 85.2407 58.5773 86.1059 57.7121L90.1847 53.6333C91.0499 52.7681 92.5331 52.7681 93.3983 53.6333C94.2635 54.4985 94.2635 55.9817 93.3983 56.8469L89.3195 60.9257C88.8251 61.2965 88.2071 61.5437 87.7127 61.5437Z" fill="white"/>
</g>
</g>
</g>
</svg>
