<svg width="40" height="40" viewBox="0 0 40 40" fill="none" xmlns="http://www.w3.org/2000/svg">
<path d="M31.4572 14.2706L32.2472 13.4869L32.8622 14.0969L34.7222 12.2519C34.81 12.165 34.8797 12.0616 34.9272 11.9476C34.9748 11.8336 34.9993 11.7113 34.9993 11.5878C34.9993 11.4643 34.9748 11.342 34.9272 11.228C34.8797 11.1141 34.81 11.0106 34.7222 10.9237L33.0479 9.26375C32.8698 9.08753 32.6293 8.98869 32.3788 8.98869C32.1283 8.98869 31.8878 9.08753 31.7097 9.26375L29.8491 11.1088L30.4641 11.7188L29.6741 12.5019C27.1985 10.424 24.1178 9.20161 20.891 9.01688V8.27812C22.446 7.88375 23.5985 6.48812 23.5985 4.82188C23.5997 2.84875 21.9879 1.25 19.9997 1.25C18.011 1.25 16.3991 2.84875 16.3991 4.82125C16.3991 6.48813 17.551 7.8825 19.1066 8.2775V9.01625C15.8797 9.20108 12.799 10.4237 10.3235 12.5019L9.53348 11.7181L10.1472 11.1081L8.28723 9.26313C8.10906 9.08706 7.86866 8.98832 7.61817 8.98832C7.36768 8.98832 7.12728 9.08706 6.94911 9.26313L5.27536 10.9231C5.18751 11.01 5.11776 11.1134 5.07016 11.2274C5.02256 11.3414 4.99805 11.4637 4.99805 11.5872C4.99805 11.7107 5.02256 11.833 5.07016 11.947C5.11776 12.061 5.18751 12.1644 5.27536 12.2512L7.13598 14.0975L7.75036 13.4869L8.53973 14.2706C6.33348 16.8625 4.99973 20.2106 4.99973 23.8687C4.99973 32.0887 11.716 38.75 19.9997 38.75C28.2835 38.75 34.9997 32.0887 34.9997 23.8687C34.9997 20.2106 33.6654 16.8619 31.4572 14.2706ZM18.491 4.195V6.87875C18.163 6.64498 17.8955 6.33639 17.7106 5.97857C17.5257 5.62075 17.4288 5.22401 17.4279 4.82125C17.4279 3.4125 18.5797 2.27062 19.9997 2.27062C21.4191 2.27062 22.5704 3.4125 22.5704 4.82125C22.5704 5.66937 22.1491 6.415 21.5072 6.87875L21.5079 4.195C21.5079 3.28562 18.4916 3.28562 18.491 4.195ZM19.9997 36.7663C12.8204 36.7663 6.99973 30.9925 6.99973 23.8687C6.99973 16.7462 12.8204 10.9725 19.9997 10.9725C27.1785 10.9725 32.9991 16.7469 32.9991 23.8687C32.9991 30.9925 27.1785 36.7663 19.9997 36.7663Z" fill="#33658A"/>
<path d="M19.9998 11.9644V12.9569H19.5766V16.3144H19.9998V22.1894C19.0648 22.1894 18.3066 22.9406 18.3066 23.8687C18.3066 24.7969 19.0648 25.5487 19.9998 25.5487C20.1973 25.5487 20.3854 25.5087 20.5623 25.4462L26.8885 30.6381L26.8879 30.6369L28.5248 32.2462C30.6729 30.0956 31.9991 27.1356 31.9991 23.8687C31.9991 17.295 26.6266 11.9644 19.9998 11.9644ZM28.4704 30.5175L21.6904 23.855C21.6874 23.4158 21.511 22.9955 21.1998 22.6856V13.2206C22.5679 13.3712 23.8598 13.7794 25.0266 14.3912L24.286 15.6631L25.0185 16.0825L25.7591 14.8125C27.1154 15.6643 28.266 16.8063 29.1279 18.1562L27.8485 18.8894L28.2716 19.6162L29.5498 18.8856C30.2993 20.2953 30.72 21.8564 30.7804 23.4519H27.6154V24.2894H30.7823C30.7239 25.8859 30.3046 27.4486 29.556 28.86L28.2716 28.1237L27.8485 28.8506L29.1304 29.5856C28.9254 29.9044 28.7104 30.2181 28.4704 30.5175Z" fill="#33658A"/>
<path d="M19.5771 31.4243H20.4228V34.7818H19.5771V31.4243Z" fill="#33658A"/>
<path d="M8.99902 23.4507H12.384V24.2882H8.99902V23.4507Z" fill="#33658A"/>
<path d="M14.1328 14.6288L14.9791 16.082L15.7122 15.6626L14.8659 14.2095L14.1328 14.6288Z" fill="#33658A"/>
<path d="M12.1505 18.8887L10.6848 18.0493L10.2617 18.7768L11.7273 19.6168L12.1505 18.8887Z" fill="#33658A"/>
<path d="M10.2617 28.9626L10.6848 29.6901L12.1505 28.8494L11.7273 28.1226L10.2617 28.9626Z" fill="#33658A"/>
<path d="M14.1328 33.1105L14.8659 33.5299L15.7122 32.0755L14.9797 31.6555L14.1328 33.1105Z" fill="#33658A"/>
<path d="M24.2871 32.0755L25.1334 33.5299L25.8671 33.1105L25.0196 31.6555L24.2871 32.0755Z" fill="#33658A"/>
</svg>
