<svg width="66" height="47" viewBox="0 0 66 47" fill="none" xmlns="http://www.w3.org/2000/svg">
<path d="M44.367 8.18C48.9215 12.4889 52.9034 16.5688 57.393 22.3687C61.8829 28.1686 66.8655 35.6895 64.5035 40.1795C62.1443 44.6522 52.4282 46.0943 45.3828 46.5048C38.3534 46.9313 33.9785 46.3246 30.012 45.7841C26.0307 45.2599 22.4258 44.8005 17.4445 43.7197C12.4473 42.6381 6.07381 40.9365 2.83263 36.8247C-0.393381 32.7135 -0.509853 26.1912 2.48856 21.8335C5.48681 17.4759 11.5808 15.2583 16.6273 11.1126C21.6572 6.9674 25.6391 0.855649 30.1778 0.0858438C34.732 -0.68465 39.8284 3.87043 44.367 8.18Z" fill="#F8F8F8"/>
<path d="M0.451465 21.3593C2.51896 23.7849 10.5845 29.0213 11.607 29.7795C12.6294 30.5373 29.2944 42.2951 30.6663 42.8696C38.5896 42.6971 42.2692 36.6319 42.3029 35.0749C42.3366 33.5183 34.1322 22.2485 30.4715 21.7528C29.818 21.6647 22.1194 23.8496 22.1194 23.8496L5.55238 9.20437C3.54904 7.4926 0.800781 5.23633 0.800781 5.23633L0.451398 21.3624" fill="#D27B58"/>
<path d="M38.62 40.1476L29.8721 32.7173" stroke="#5B5B5B" stroke-width="0.62" stroke-linecap="round" stroke-linejoin="round"/>
<path d="M35.2528 41.9186L29.7041 37.2061" stroke="#5B5B5B" stroke-width="0.62" stroke-linecap="round" stroke-linejoin="round"/>
<path d="M32.4085 42.8013L27.8428 38.9238" stroke="#5B5B5B" stroke-width="0.62" stroke-linecap="round" stroke-linejoin="round"/>
<path d="M14.6047 23.4399L11.3227 20.5084C10.7041 19.9559 9.75475 20.0096 9.20229 20.628L5.81494 24.4206C5.26248 25.0392 5.31603 25.9882 5.93445 26.5407L9.21662 29.4723C9.83504 30.025 10.7844 29.9712 11.3368 29.3527L14.7242 25.5601C15.2768 24.9417 15.2233 23.9923 14.6047 23.4399Z" fill="#5B5B5B"/>
<path d="M17.7923 19.815L14.7414 17.09L11.522 20.6942L14.5729 23.4193L17.7923 19.815Z" fill="#74D4DE"/>
<path d="M14.5705 42.2647C14.9993 42.2647 15.347 41.9171 15.347 41.4882C15.347 41.0594 14.9993 40.7117 14.5705 40.7117C14.1416 40.7117 13.7939 41.0594 13.7939 41.4882C13.7939 41.9171 14.1416 42.2647 14.5705 42.2647Z" stroke="#74D4DE" stroke-width="4.9561" stroke-miterlimit="10"/>
<path d="M46.9943 40.1137C47.316 40.1137 47.5765 39.8531 47.5765 39.5315C47.5765 39.21 47.316 38.9492 46.9943 38.9492C46.6728 38.9492 46.4121 39.21 46.4121 39.5315C46.4121 39.8531 46.6728 40.1137 46.9943 40.1137Z" stroke="#74D4DE" stroke-width="5.11459" stroke-miterlimit="10"/>
<path d="M40.6631 18.4801C40.8426 18.4801 40.9881 18.3345 40.9881 18.1549C40.9881 17.9754 40.8426 17.8298 40.6631 17.8298C40.4835 17.8298 40.3379 17.9754 40.3379 18.1549C40.3379 18.3345 40.4835 18.4801 40.6631 18.4801Z" stroke="#74D4DE" stroke-width="2.85568" stroke-miterlimit="10"/>
<path d="M47.4428 18.7421L43.9187 20.8281L52.6797 35.63L56.2038 33.544L47.4428 18.7421Z" fill="#FDD792"/>
<path d="M53.3522 33.8301C53.974 33.8234 54.4726 33.3138 54.4659 32.6921C54.4592 32.0703 53.9496 31.5716 53.3278 31.5784C52.7062 31.5851 52.2076 32.0947 52.2143 32.7164C52.2211 33.3382 52.7306 33.8369 53.3522 33.8301Z" fill="#FC8369"/>
<path d="M44.3489 21.5205C43.9306 21.7742 41.4871 23.0299 40.6668 22.9363C39.8467 22.8426 36.1468 21.5518 35.0264 21.9732C33.9063 22.3945 28.6047 24.8072 28.6047 24.8072C28.6047 24.8072 23.8486 29.9775 23.7479 30.0819C23.6472 30.1859 23.7514 30.9806 23.8994 31.1064C24.0476 31.2317 25.7064 31.7128 25.9785 31.5437C26.2505 31.3742 29.9181 28.4968 30.5835 28.4896C31.2488 28.4824 37.6462 32.976 41.4709 36.9622C42.3392 36.5732 50.3366 31.6371 50.3366 31.6371L44.3489 21.5205Z" fill="#DE8E68"/>
<path d="M18.9984 34.0366C18.9984 34.0366 18.6895 35.8971 19.429 36.947C20.1685 37.9966 25.8743 41.672 26.6745 41.7812C27.4746 41.8899 28.9197 40.7446 29.0773 40.1104C29.2349 39.4762 28.1521 37.1585 27.8431 36.8343C27.534 36.51 23.1296 33.4986 22.6583 33.4322C22.1869 33.3658 19.7222 33.582 18.9984 34.0366Z" fill="#DE8E68"/>
<path d="M19.5687 37.1616L22.6733 34.7554" stroke="#5B5B5B" stroke-width="0.62" stroke-linecap="round" stroke-linejoin="round"/>
<path d="M22.0433 39.1182L25.1485 36.7119" stroke="#5B5B5B" stroke-width="0.62" stroke-linecap="round" stroke-linejoin="round"/>
<path d="M24.4541 40.6382L26.8141 38.8097" stroke="#5B5B5B" stroke-width="0.62" stroke-linecap="round" stroke-linejoin="round"/>
<path d="M65.7514 7.43995L64.6115 8.14375C64.6115 8.14375 51.5175 16.2594 47.4118 18.6975L54.4187 30.5352L65.9336 24.2642L65.7514 7.43995Z" fill="#74D4DE"/>
</svg>
