<svg width="704" height="798" viewBox="0 0 704 798" fill="none" xmlns="http://www.w3.org/2000/svg">
<ellipse opacity="0.6" cx="-9.19689" cy="660.093" rx="113.659" ry="113.335" transform="rotate(14.071 -9.19689 660.093)" fill="url(#paint0_linear_71_3)"/>
<ellipse opacity="0.6" cx="673.406" cy="30.0602" rx="24.836" ry="24.7651" transform="rotate(14.071 673.406 30.0602)" fill="url(#paint1_linear_71_3)"/>
<g opacity="0.65">
<path d="M417.428 524.57C414.621 522.798 410.873 521.143 407.554 521.159C345.637 521.43 283.944 523.317 222.028 523.589L217.594 540.074C224.372 547.164 234.411 551.003 244.19 550.242C252.646 549.585 261.469 545.768 269.251 549.14C274.792 551.541 278.262 557.025 282.924 560.864C291.073 567.576 302.472 568.885 312.974 567.795C323.476 566.704 333.671 563.524 344.164 562.349C357.574 560.848 371.175 562.653 384.607 561.361C398.038 560.069 412.207 554.82 419.137 543.243C422.698 537.295 423.291 528.269 417.428 524.57Z" fill="#474747"/>
</g>
<path d="M399.865 498.423C391.185 486.043 390.837 469.08 396.439 455.036C402.042 440.991 412.89 429.584 425.025 420.563C439.253 409.986 455.562 402.222 472.741 397.846C479.501 396.125 486.578 394.922 493.438 396.197C500.297 397.473 506.949 401.629 509.628 408.071C513.589 417.596 508.033 428.225 502.284 436.789C492.155 451.879 480.839 466.169 468.473 479.485C458.524 490.197 447.291 500.639 433.225 504.629C419.16 508.619 405.085 506.75 398.714 496.675" fill="#5DB6D5"/>
<path d="M405.222 500.352C408.017 495.498 414.65 483.85 427.67 467.259C445.009 444.7 464.967 427.772 480.968 418.242C484.825 415.61 488.771 414.017 492.043 412.299C493.712 411.502 495.221 410.667 496.69 410.077C498.15 409.548 499.509 409.057 500.769 408.6C505.673 406.847 508.395 405.957 508.446 406.115C508.686 406.72 497.505 409.882 481.86 419.691C466.273 429.483 446.756 446.373 429.561 468.743C420.073 480.832 412.76 491.918 407.128 501.48" fill="#296F86"/>
<path d="M346.852 500.222C363.195 489.303 371.595 468.913 371.415 449.259C371.234 429.605 363.456 410.68 352.997 394.041C340.734 374.531 324.625 357.451 305.868 344.067C298.486 338.8 290.477 334.012 281.566 332.33C272.654 330.649 262.639 332.556 256.362 339.101C247.081 348.778 248.812 364.273 251.749 377.355C256.922 400.403 263.911 423.042 272.631 444.996C279.645 462.657 288.345 480.593 303.511 492.045C318.676 503.496 336.609 507.854 349.068 498.644" fill="#5DB6D5"/>
<path d="M339.504 499.779C338.401 492.582 335.843 475.347 327.872 449.119C317.477 413.628 301.256 383.726 286.351 364.65C282.915 359.646 278.885 355.859 275.729 352.238C274.082 350.488 272.645 348.765 271.142 347.358C269.622 346.031 268.207 344.797 266.895 343.651C261.778 339.219 258.897 336.861 258.762 337.028C258.186 337.648 270.248 346.74 284.59 365.985C298.869 385.184 314.57 414.833 324.882 450.026C330.691 469.139 334.336 486.012 336.662 500.249" fill="#296F86"/>
<path d="M316.616 516.147C305.548 532.39 285.082 540.603 265.431 540.242C245.78 539.882 226.927 531.93 210.383 521.319C190.987 508.877 174.055 492.612 160.843 473.733C155.644 466.303 150.93 458.251 149.33 449.324C147.73 440.398 149.73 430.4 156.332 424.184C166.094 414.992 181.572 416.865 194.627 419.921C217.626 425.307 240.2 432.503 262.073 441.423C279.669 448.599 297.525 457.463 308.838 472.733C320.149 488.002 324.342 505.975 315.018 518.349" fill="#5DB6D5"/>
<path d="M318.691 506.11C311.505 504.941 294.293 502.226 268.14 494.015C232.745 483.294 202.993 466.8 184.054 451.721C179.083 448.24 175.332 444.175 171.74 440.985C170.005 439.322 168.296 437.87 166.904 436.354C165.59 434.822 164.37 433.396 163.236 432.074C158.851 426.916 156.518 424.014 156.687 423.88C157.311 423.309 166.293 435.454 185.405 449.973C204.473 464.427 233.977 480.4 269.074 491.034C288.133 497.017 304.972 500.817 319.187 503.273" fill="#296F86"/>
<path d="M399.865 498.423C391.185 486.043 390.837 469.08 396.439 455.036C402.042 440.991 412.89 429.584 425.025 420.563C439.253 409.986 455.562 402.222 472.741 397.846C479.501 396.125 486.578 394.922 493.438 396.197C500.297 397.473 506.949 401.629 509.628 408.071C513.589 417.596 508.033 428.225 502.284 436.789C492.155 451.879 480.839 466.169 468.473 479.485C458.524 490.197 447.291 500.639 433.225 504.629C419.16 508.619 405.085 506.75 398.714 496.675" fill="#5DB6D5"/>
<path d="M405.222 500.352C408.017 495.498 414.65 483.85 427.67 467.259C445.009 444.7 464.967 427.772 480.968 418.242C484.825 415.61 488.771 414.017 492.043 412.299C493.712 411.502 495.221 410.667 496.69 410.077C498.15 409.548 499.509 409.057 500.769 408.6C505.673 406.847 508.395 405.957 508.446 406.115C508.686 406.72 497.505 409.882 481.86 419.691C466.273 429.483 446.756 446.373 429.561 468.743C420.073 480.832 412.76 491.918 407.128 501.48" fill="#296F86"/>
<path d="M346.852 500.222C363.195 489.303 371.595 468.913 371.415 449.259C371.234 429.605 363.456 410.68 352.997 394.041C340.734 374.531 324.625 357.451 305.868 344.067C298.486 338.8 290.477 334.012 281.566 332.33C272.654 330.649 262.639 332.556 256.362 339.101C247.081 348.778 248.812 364.273 251.749 377.355C256.922 400.403 263.911 423.042 272.631 444.996C279.645 462.657 288.345 480.593 303.511 492.045C318.676 503.496 336.609 507.854 349.068 498.644" fill="#5DB6D5"/>
<path d="M339.504 499.779C338.401 492.582 335.843 475.347 327.872 449.119C317.477 413.628 301.256 383.726 286.351 364.65C282.915 359.646 278.885 355.859 275.729 352.238C274.082 350.488 272.645 348.765 271.142 347.358C269.622 346.031 268.207 344.797 266.895 343.651C261.778 339.219 258.897 336.861 258.762 337.028C258.186 337.648 270.248 346.74 284.59 365.985C298.869 385.184 314.57 414.833 324.882 450.026C330.691 469.139 334.336 486.012 336.662 500.249" fill="#296F86"/>
<path d="M316.616 516.147C305.548 532.39 285.082 540.603 265.431 540.242C245.78 539.882 226.927 531.93 210.383 521.319C190.987 508.877 174.055 492.612 160.843 473.733C155.644 466.303 150.93 458.251 149.33 449.324C147.73 440.398 149.73 430.4 156.332 424.184C166.094 414.992 181.572 416.865 194.627 419.921C217.626 425.307 240.2 432.503 262.073 441.423C279.669 448.599 297.525 457.463 308.838 472.733C320.149 488.002 324.342 505.975 315.018 518.349" fill="#5DB6D5"/>
<path d="M318.691 506.11C311.505 504.941 294.293 502.226 268.14 494.015C232.745 483.294 202.993 466.8 184.054 451.721C179.083 448.24 175.332 444.175 171.74 440.985C170.005 439.322 168.296 437.87 166.904 436.354C165.59 434.822 164.37 433.396 163.236 432.074C158.851 426.916 156.518 424.014 156.687 423.88C157.311 423.309 166.293 435.454 185.405 449.973C204.473 464.427 233.977 480.4 269.074 491.034C288.133 497.017 304.972 500.817 319.187 503.273" fill="#296F86"/>
<path d="M578.011 418.092C584.348 413.301 592.46 411.419 600.404 411.362C604.672 411.331 609.213 411.825 612.575 414.455C615.937 417.084 617.42 422.477 614.64 425.715C612.985 427.644 610.335 428.35 607.827 428.754C601.768 429.727 594.876 429.821 590.674 434.294C588.277 436.845 587.037 440.613 583.918 442.203C580.866 443.758 576.9 442.485 574.688 439.87C572.477 437.256 571.792 433.628 572.023 430.212C572.023 430.212 571.626 422.919 578.011 418.092Z" fill="#40A529"/>
<path d="M571.569 481.833C571.65 481.824 571.608 480.817 571.477 479.006C571.326 476.962 571.136 474.397 570.909 471.344C570.712 468.113 570.524 464.259 570.695 459.999C570.865 455.748 571.472 451.069 572.459 446.26C573.514 441.466 575.039 437.012 577.082 433.307C579.104 429.59 581.703 426.705 584.294 424.851C586.872 422.972 589.302 421.97 591.005 421.417C592.735 420.933 593.698 420.623 593.685 420.545C593.672 420.466 592.681 420.624 590.88 420.985C589.108 421.414 586.554 422.323 583.817 424.186C581.066 426.022 578.29 428.978 576.154 432.783C573.993 436.579 572.401 441.138 571.328 446.017C570.325 450.911 569.746 455.632 569.63 459.963C569.515 464.288 569.791 468.169 570.094 471.41C570.407 474.651 570.764 477.257 571.029 479.056C571.299 480.854 571.491 481.842 571.569 481.833Z" fill="#12491D"/>
<path d="M556.073 390.022C561.377 395.364 569.298 391.924 572.492 387.553C575.685 383.182 576.377 377.527 576.967 372.146C578.314 359.852 579.59 346.978 575.024 335.484C573.659 332.048 571.712 328.722 568.749 326.509C565.786 324.297 561.662 323.388 558.3 324.928C554.321 326.749 552.435 331.279 551.232 335.487C547.7 347.856 546.971 361.018 549.118 373.701C550.12 379.624 551.89 385.712 556.073 390.022Z" fill="#40A529"/>
<path d="M571.045 475.945C571.084 475.936 571.032 475.49 570.898 474.651C570.729 473.688 570.516 472.476 570.255 470.989C569.697 467.811 568.905 463.209 568.094 457.499C566.412 446.086 565.279 433.688 564.191 416.121C563.18 399.599 562.322 380.317 562.739 367.611C562.8 364.728 562.914 362.122 563.05 359.836C563.161 357.547 563.252 355.575 563.392 353.968C563.489 352.461 563.57 351.234 563.634 350.259C563.676 349.41 563.678 348.961 563.638 348.956C563.599 348.952 563.518 349.392 563.401 350.235C563.281 351.205 563.13 352.427 562.944 353.929C562.735 355.533 562.577 357.504 562.405 359.794C562.208 362.082 562.036 364.691 561.922 367.58C561.334 379.128 561.361 395.122 562.438 412.734C563.528 430.339 565.393 446.218 567.285 457.622C568.201 463.33 569.119 467.921 569.814 471.076C570.162 472.549 570.445 473.747 570.669 474.7C570.877 475.525 571.006 475.953 571.045 475.945Z" fill="#12491D"/>
<path d="M551.198 400.334C554.87 394.053 554.366 385.906 551.124 379.394C547.882 372.88 542.229 367.84 536.054 363.994C528.813 359.486 520.686 356.407 512.276 354.989C508.966 354.431 505.524 354.134 502.285 355.016C499.047 355.899 496.023 358.155 494.992 361.35C493.469 366.074 496.554 370.951 499.649 374.831C505.103 381.665 511.095 388.07 517.551 393.966C522.746 398.709 528.544 403.271 535.446 404.629C542.348 405.985 549.023 404.533 551.679 399.45" fill="#40A529"/>
<path d="M565.878 445.459C565.956 445.443 565.708 444.085 565.19 441.637C564.624 439.202 563.672 435.705 562.228 431.471C560.743 427.254 558.826 422.272 556.246 416.946C555.106 414.504 552.404 408.649 546.842 400.162C539.455 388.637 530.581 379.704 523.301 374.479C521.56 373.059 519.734 372.133 518.236 371.176C517.469 370.726 516.78 370.263 516.1 369.92C515.421 369.607 514.79 369.315 514.205 369.045C511.926 368.004 510.657 367.465 510.627 367.539C510.486 367.819 515.717 369.793 522.814 375.136C529.885 380.47 538.549 389.368 545.874 400.795C549.927 406.98 552.978 412.594 555.286 417.409C557.901 422.673 559.883 427.589 561.458 431.746C562.992 435.919 564.057 439.36 564.755 441.749C565.403 444.15 565.8 445.475 565.878 445.459Z" fill="#12491D"/>
<path d="M541.383 499.549L544.469 541.818H598.771L601.857 499.549H541.383Z" fill="#0A0145"/>
<path d="M536.138 499.548H608.335V482.888H536.138V499.548Z" fill="#110B79"/>
<path d="M536.139 540.201V544.82H539.531H607.142V540.201H536.139Z" fill="#110B79"/>
<path d="M542.857 552.948L539.531 544.82H604.556L600.677 552.948H542.857Z" fill="#0A0145"/>
<path d="M600.848 513.364C600.861 513.375 600.774 513.506 600.594 513.752C600.378 514.038 600.112 514.393 599.783 514.828C599.011 515.816 597.953 517.171 596.62 518.876L596.48 519.056L596.342 518.868C594.354 516.119 591.699 512.445 588.571 508.12H589.018C586.706 511.393 584.131 515.039 581.366 518.954L581.126 519.293L580.858 518.974C578.034 515.614 574.968 511.965 571.784 508.178L572.307 508.17C572.15 508.369 571.979 508.583 571.808 508.798C568.993 512.327 566.27 515.741 563.693 518.97L563.423 519.309L563.173 518.957C560.419 515.059 557.846 511.417 555.519 508.125L555.964 508.146C552.191 512.444 548.991 516.09 546.535 518.888L546.368 519.078L546.24 518.864C544.997 516.776 544.006 515.111 543.287 513.905C542.98 513.366 542.73 512.931 542.531 512.584C542.364 512.282 542.285 512.122 542.299 512.113C542.314 512.104 542.421 512.247 542.616 512.532C542.836 512.866 543.112 513.285 543.453 513.802C544.208 514.988 545.248 516.622 546.553 518.671L546.258 518.648C548.674 515.816 551.822 512.126 555.534 507.775L555.769 507.5L555.98 507.796C558.328 511.073 560.925 514.699 563.705 518.579L563.184 518.565C565.753 515.331 568.471 511.911 571.279 508.378C571.45 508.162 571.62 507.948 571.778 507.749L572.036 507.426L572.302 507.743C575.477 511.539 578.535 515.195 581.35 518.561L580.843 518.581C583.635 514.686 586.236 511.059 588.571 507.801L588.797 507.486L589.019 507.801C592.08 512.173 594.679 515.887 596.625 518.667L596.35 518.659C597.736 516.996 598.838 515.676 599.641 514.713C599.998 514.3 600.288 513.964 600.522 513.693C600.725 513.466 600.836 513.354 600.848 513.364Z" fill="#FEFEFE"/>
<path d="M602.008 499.608C602.008 499.795 588.402 499.947 571.621 499.947C554.835 499.947 541.23 499.795 541.23 499.608C541.23 499.421 554.835 499.27 571.621 499.27C588.402 499.27 602.008 499.421 602.008 499.608Z" fill="#F2F1EE"/>
<path d="M600.85 544.819C600.85 545.006 587.243 545.158 570.463 545.158C553.676 545.158 540.072 545.006 540.072 544.819C540.072 544.633 553.676 544.481 570.463 544.481C587.243 544.481 600.85 544.633 600.85 544.819Z" fill="#F2F1EE"/>
<path d="M266.548 520.866C266.548 520.866 255.443 523.99 245.302 523.102C235.794 522.269 214.792 525.027 215.563 537.443C216.423 551.29 244.339 546.138 255.179 543.269C266.019 540.4 276.824 537.739 276.824 537.739L266.548 520.866Z" fill="#F9354B"/>
<path d="M242.379 540.16C242.236 540.201 241.494 538.082 240.723 535.425C239.952 532.767 239.443 530.58 239.586 530.538C239.729 530.496 240.471 532.616 241.243 535.274C242.013 537.931 242.523 540.118 242.379 540.16Z" fill="#0D151D"/>
<path d="M246.23 540.107C246.084 540.136 245.522 537.95 244.976 535.224C244.43 532.498 244.105 530.264 244.252 530.234C244.398 530.205 244.96 532.39 245.506 535.118C246.052 537.844 246.376 540.078 246.23 540.107Z" fill="#0D151D"/>
<path d="M249.848 538.43C249.701 538.457 249.228 536.546 248.79 534.162C248.352 531.777 248.117 529.822 248.264 529.795C248.411 529.768 248.884 531.679 249.322 534.065C249.759 536.448 249.995 538.404 249.848 538.43Z" fill="#0D151D"/>
<path d="M255.581 536.621C255.454 536.685 254.555 535.119 253.905 533.002C253.248 530.886 253.106 529.086 253.247 529.068C253.401 529.044 253.776 530.771 254.421 532.842C255.056 534.915 255.722 536.553 255.581 536.621Z" fill="#0D151D"/>
<path d="M256.516 531.481C256.512 531.45 257.027 531.33 257.981 531.294C258.93 531.261 260.332 531.33 261.98 531.824C262.396 531.95 262.829 532.12 263.237 532.404C263.639 532.677 264.031 533.138 264.084 533.729C264.171 534.954 262.881 535.919 261.649 535.738C260.405 535.58 259.415 534.737 258.582 533.827C257.739 532.895 257.1 531.734 256.707 530.468C255.931 527.921 256.226 525.222 257.505 523.22C257.694 522.978 257.961 522.74 258.31 522.666C258.647 522.587 259.024 522.697 259.264 522.9C259.752 523.31 259.947 523.854 260.062 524.369C260.255 525.376 260.243 526.343 260.086 527.193C259.786 528.909 259.013 530.133 258.406 530.862C258.095 531.227 257.824 531.482 257.629 531.641C257.432 531.798 257.324 531.872 257.312 531.858C257.279 531.821 257.682 531.48 258.24 530.732C258.781 529.984 259.47 528.776 259.709 527.132C259.834 526.318 259.823 525.403 259.624 524.461C259.524 524.02 259.315 523.544 258.973 523.277C258.637 523.003 258.186 523.113 257.899 523.525C256.789 525.31 256.476 527.926 257.224 530.308C257.595 531.504 258.193 532.598 258.978 533.476C259.753 534.343 260.689 535.113 261.707 535.243C262.684 535.421 263.709 534.605 263.638 533.767C263.61 533.349 263.338 532.99 262.993 532.741C262.649 532.489 262.252 532.317 261.865 532.187C260.281 531.662 258.915 531.537 257.981 531.503C257.043 531.476 256.52 531.525 256.516 531.481Z" fill="#0D151D"/>
<path d="M275.598 535.975C275.6 535.983 275.506 536.021 275.32 536.083C275.104 536.151 274.831 536.236 274.489 536.344C273.717 536.571 272.641 536.887 271.271 537.288C268.471 538.088 264.407 539.217 259.352 540.52C254.295 541.814 248.253 543.314 241.459 544.668C238.071 545.337 234.438 545.978 230.63 545.877C228.731 545.855 226.786 545.649 224.873 545.139C223.924 544.863 222.969 544.556 222.068 544.094C221.165 543.631 220.292 543.12 219.551 542.309L219.595 542.354C219.226 542.039 218.839 541.676 218.544 541.239C217.281 539.471 217.103 537.191 217.598 535.215C218.108 533.195 219.42 531.531 220.917 530.276C222.435 529.022 224.151 528.107 225.889 527.419C226.771 527.109 227.626 526.747 228.503 526.491C229.386 526.258 230.245 525.967 231.119 525.791C238.104 524.244 244.555 524.414 249.886 524.089C252.561 523.973 254.971 523.753 257.078 523.493C259.182 523.204 260.978 522.852 262.425 522.48C263.141 522.283 263.78 522.108 264.341 521.953C264.875 521.766 265.331 521.604 265.714 521.469C266.064 521.349 266.344 521.253 266.563 521.178C266.756 521.115 266.856 521.087 266.86 521.095C266.864 521.104 266.77 521.149 266.584 521.229C266.369 521.317 266.095 521.43 265.753 521.57C265.374 521.719 264.92 521.898 264.392 522.106C263.831 522.275 263.194 522.468 262.479 522.684C261.033 523.09 259.231 523.473 257.12 523.792C255.006 524.082 252.586 524.33 249.907 524.47C244.567 524.843 238.123 524.719 231.232 526.276C230.369 526.453 229.524 526.743 228.654 526.975C227.791 527.23 226.952 527.59 226.084 527.897C224.38 528.575 222.713 529.474 221.257 530.681C219.82 531.89 218.588 533.472 218.119 535.348C217.655 537.197 217.837 539.33 218.983 540.924C219.249 541.321 219.599 541.644 219.93 541.929L219.948 541.945L219.974 541.974C220.589 542.648 221.457 543.185 222.307 543.612C223.168 544.055 224.093 544.352 225.012 544.622C226.869 545.118 228.774 545.325 230.641 545.35C234.39 545.456 237.975 544.838 241.365 544.183C248.148 542.859 254.195 541.4 259.26 540.154C264.323 538.899 268.4 537.825 271.216 537.089C272.597 536.728 273.681 536.444 274.46 536.241C274.807 536.154 275.086 536.085 275.305 536.03C275.496 535.985 275.595 535.966 275.598 535.975Z" fill="#0D151D"/>
<path d="M234.853 545.174C234.774 545.179 234.641 544.082 234.403 542.315C234.167 540.548 233.804 538.112 233.281 535.446C232.753 532.779 232.165 530.39 231.713 528.665C231.262 526.94 230.969 525.873 231.044 525.847C231.11 525.826 231.533 526.851 232.08 528.558C232.628 530.263 233.281 532.657 233.811 535.342C234.338 538.026 234.643 540.488 234.784 542.274C234.924 544.061 234.923 545.169 234.853 545.174Z" fill="#0D151D"/>
<path d="M263.122 521.679L271.353 539.104L276.824 537.738L265.152 520.952L263.122 521.679Z" fill="#010102"/>
<path d="M369.785 350.028C369.785 350.028 347.817 354.899 345.267 378.523L342.556 402.659L351.952 405.538L369.785 350.028Z" fill="#501065"/>
<path d="M342.107 476.792L357.813 441.753L348.719 411.687C345.962 402.569 346.607 392.759 350.534 384.08L365.844 351.348L376.463 345.776L401.676 341.44C402.646 341.763 435.221 354.968 435.221 354.968L442.446 363.993L416.497 439.68C416.497 439.68 434.097 478.19 431.89 495.845L342.107 476.792Z" fill="#6A1586"/>
<path d="M413.341 401.675C411.382 409.272 409.422 416.869 407.462 424.466C407.102 425.863 406.649 427.391 405.433 428.164C404.593 428.698 403.549 428.76 402.556 428.808L373.946 430.17C372.342 430.246 370.71 430.328 369.201 430.878C367.691 431.427 366.297 432.526 365.797 434.052C364.99 436.51 366.664 439.043 368.335 441.019C382.69 457.993 406.172 468.754 428.263 471.25L416.676 438.089L420.565 418.645L413.341 401.675Z" fill="#480E5B"/>
<path d="M372.123 417.121C372.123 417.121 372.268 417.132 372.54 417.167C372.853 417.21 373.248 417.263 373.733 417.328C374.767 417.474 376.265 417.669 378.119 417.894C381.826 418.344 386.962 418.857 392.651 419.169C398.343 419.477 403.503 419.525 407.238 419.481C409.105 419.46 410.616 419.428 411.659 419.395C412.148 419.383 412.546 419.372 412.862 419.364C413.137 419.359 413.281 419.364 413.281 419.364C413.281 419.364 413.137 419.38 412.863 419.394C412.547 419.41 412.15 419.429 411.662 419.453C410.618 419.504 409.107 419.551 407.24 419.586C403.504 419.658 398.338 419.627 392.642 419.318C386.949 419.006 381.812 418.476 378.106 417.999C376.253 417.761 374.756 417.549 373.724 417.385C373.241 417.308 372.848 417.246 372.536 417.197C372.264 417.152 372.123 417.121 372.123 417.121Z" fill="#FAF9F7"/>
<path d="M348.441 401.077C348.441 401.077 348.668 401.087 349.098 401.12C349.559 401.156 350.186 401.206 350.978 401.27C352.645 401.399 354.998 401.581 357.892 401.807C363.733 402.241 371.806 402.759 380.733 403.137C389.663 403.513 397.753 403.678 403.608 403.737C406.511 403.757 408.872 403.773 410.543 403.785C411.337 403.789 411.966 403.793 412.429 403.795C412.86 403.799 413.086 403.808 413.086 403.808C413.086 403.808 412.86 403.819 412.429 403.825C411.966 403.829 411.337 403.835 410.543 403.843C408.906 403.859 406.536 403.861 403.608 403.843C397.751 403.81 389.659 403.662 380.727 403.286C371.798 402.908 363.723 402.373 357.884 401.912C354.965 401.682 352.603 401.48 350.972 401.327C350.182 401.252 349.556 401.193 349.095 401.15C348.666 401.108 348.441 401.077 348.441 401.077Z" fill="#FAF9F7"/>
<path d="M354.397 387.326C354.397 387.326 354.604 387.332 354.997 387.36C355.423 387.391 355.996 387.433 356.715 387.486C358.244 387.596 360.394 387.751 363.035 387.942C368.373 388.311 375.753 388.75 383.91 389.065C392.07 389.378 399.462 389.508 404.812 389.55C407.46 389.563 409.614 389.574 411.148 389.581C411.87 389.584 412.444 389.586 412.871 389.588C413.265 389.59 413.471 389.6 413.471 389.6C413.471 389.6 413.265 389.611 412.871 389.617C412.444 389.623 411.87 389.63 411.148 389.64C409.652 389.658 407.488 389.664 404.811 389.656C399.461 389.64 392.067 389.528 383.905 389.215C375.745 388.899 368.365 388.444 363.029 388.047C360.36 387.851 358.202 387.677 356.711 387.544C355.992 387.479 355.42 387.428 354.994 387.39C354.602 387.353 354.397 387.326 354.397 387.326Z" fill="#FAF9F7"/>
<path d="M358.157 375.397C358.158 375.356 360.48 375.376 363.343 375.441C366.208 375.507 368.526 375.593 368.525 375.634C368.525 375.676 366.203 375.656 363.339 375.59C360.476 375.525 358.157 375.438 358.157 375.397Z" fill="#FAF9F7"/>
<path d="M401.165 369.489C401.165 369.485 401.234 369.478 401.363 369.472C401.535 369.464 401.722 369.456 401.931 369.448C402.506 369.431 403.203 369.41 404.02 369.387C405.877 369.348 408.27 369.298 410.916 369.243C413.563 369.205 415.957 369.17 417.814 369.144C418.631 369.138 419.329 369.134 419.904 369.13C420.113 369.132 420.3 369.134 420.472 369.134C420.602 369.137 420.67 369.141 420.67 369.146C420.67 369.152 420.602 369.158 420.472 369.164C420.3 369.172 420.113 369.18 419.904 369.189C419.329 369.206 418.631 369.226 417.814 369.249C415.958 369.288 413.565 369.338 410.919 369.392C408.273 369.431 405.88 369.466 404.024 369.492C403.206 369.497 402.509 369.501 401.933 369.505C401.724 369.503 401.537 369.503 401.364 369.501C401.234 369.499 401.166 369.495 401.165 369.489Z" fill="#FAF9F7"/>
<path d="M345.013 470.369C345.013 470.369 345.292 470.37 345.822 470.386C346.38 470.406 347.156 470.434 348.143 470.467C350.185 470.533 353.094 470.627 356.677 470.743C363.884 470.949 373.843 471.132 384.843 471.097C395.846 471.055 405.805 470.804 413.01 470.548C416.592 470.407 419.499 470.292 421.542 470.212C422.528 470.171 423.304 470.139 423.861 470.116C424.392 470.096 424.671 470.092 424.671 470.092C424.671 470.092 424.393 470.115 423.863 470.145C423.306 470.176 422.53 470.218 421.545 470.271C419.531 470.38 416.617 470.512 413.014 470.653C405.809 470.937 395.849 471.205 384.844 471.245C373.841 471.281 363.88 471.082 356.673 470.849C353.07 470.733 350.154 470.619 348.14 470.526C347.154 470.479 346.378 470.443 345.821 470.416C345.291 470.39 345.013 470.369 345.013 470.369Z" fill="#FAF9F7"/>
<path d="M351.886 456.309C351.886 456.267 367.414 456.61 386.564 457.073C405.72 457.538 421.243 457.948 421.242 457.989C421.241 458.03 405.717 457.687 386.561 457.223C367.411 456.76 351.885 456.35 351.886 456.309Z" fill="#FAF9F7"/>
<path d="M357.813 441.752C357.813 441.752 358.025 441.744 358.426 441.746C358.861 441.75 359.447 441.756 360.184 441.762C361.746 441.788 363.946 441.823 366.647 441.868C372.105 441.974 379.642 442.167 387.965 442.483C396.29 442.792 403.822 443.196 409.267 443.576C411.989 443.781 414.192 443.942 415.711 444.094C416.444 444.164 417.028 444.218 417.46 444.26C417.861 444.299 418.069 444.327 418.069 444.327C418.069 444.327 417.859 444.319 417.458 444.29C417.024 444.256 416.44 444.21 415.706 444.152C414.186 444.018 411.982 443.873 409.261 443.682C403.814 443.327 396.283 442.942 387.959 442.631C379.638 442.317 372.101 442.107 366.645 441.974C363.944 441.909 361.745 441.857 360.183 441.82C359.446 441.802 358.861 441.788 358.426 441.776C358.024 441.766 357.813 441.752 357.813 441.752Z" fill="#FAF9F7"/>
<path d="M349.268 409.944C349.256 409.949 349.199 409.824 349.104 409.58C349.014 409.335 348.863 408.979 348.716 408.504C348.432 407.552 348.089 406.143 347.955 404.364C347.668 400.819 348.37 395.79 350.718 390.868C351.303 389.643 351.958 388.476 352.617 387.392C353.265 386.296 353.884 385.237 354.44 384.21C355.567 382.164 356.355 380.216 356.909 378.538C357.463 376.86 357.863 375.482 358.155 374.536C358.293 374.096 358.405 373.736 358.495 373.448C358.577 373.2 358.625 373.071 358.638 373.075C358.65 373.078 358.626 373.213 358.567 373.468C358.495 373.761 358.405 374.128 358.294 374.576C358.045 375.535 357.685 376.923 357.161 378.619C356.637 380.314 355.862 382.303 354.743 384.372C354.192 385.409 353.577 386.477 352.932 387.578C352.272 388.675 351.637 389.813 351.056 391.027C348.737 395.893 348.002 400.842 348.219 404.348C348.316 406.107 348.616 407.508 348.855 408.464C349.127 409.412 349.297 409.933 349.268 409.944Z" fill="#0D151D"/>
<path d="M351.324 362.625C351.324 362.583 354.943 362.454 359.407 362.336C363.873 362.218 367.493 362.155 367.495 362.197C367.495 362.238 363.876 362.367 359.41 362.485C354.946 362.603 351.325 362.666 351.324 362.625Z" fill="#FAF9F7"/>
<path d="M442.446 363.992C446.798 368.75 447.915 376.113 447.915 384.063V424.893L412.936 424.239L414.006 387.743" fill="#501065"/>
<path d="M446.799 425.074C446.799 425.081 446.74 425.085 446.627 425.089C446.491 425.091 446.326 425.093 446.12 425.097C445.647 425.096 444.998 425.095 444.174 425.093C442.45 425.074 440.003 425.047 436.977 425.013C430.855 424.911 422.4 424.77 412.928 424.612L412.741 424.608L412.746 424.421C412.771 423.512 412.797 422.542 412.823 421.564C413.122 411.434 413.391 402.265 413.587 395.593C413.703 392.295 413.796 389.616 413.861 387.729C413.901 386.824 413.932 386.11 413.955 385.593C413.969 385.367 413.98 385.184 413.988 385.038C413.998 384.914 414.006 384.85 414.012 384.851C414.019 384.851 414.024 384.917 414.027 385.042C414.027 385.19 414.028 385.374 414.03 385.6C414.024 386.119 414.016 386.835 414.006 387.743C413.969 389.632 413.916 392.314 413.851 395.615C413.683 402.284 413.451 411.449 413.196 421.576C413.169 422.554 413.142 423.522 413.118 424.43L412.936 424.239C422.407 424.445 430.861 424.626 436.982 424.759C440.007 424.841 442.453 424.908 444.176 424.954C445 424.984 445.649 425.008 446.122 425.025C446.327 425.036 446.493 425.045 446.627 425.053C446.741 425.061 446.799 425.068 446.799 425.074Z" fill="#501065"/>
<path d="M414.234 397.102C414.234 397.102 414.348 397.102 414.564 397.116C414.823 397.134 415.132 397.156 415.504 397.183C416.382 397.248 417.549 397.335 418.963 397.439C424.144 397.812 425.423 397.883 430.385 398.094C434.851 398.281 438.896 398.367 441.824 398.403C443.242 398.417 444.412 398.429 445.292 398.438C445.665 398.443 445.976 398.447 446.235 398.449C446.45 398.454 446.563 398.464 446.563 398.464C446.563 398.464 446.45 398.475 446.235 398.48C445.976 398.485 445.665 398.49 445.292 398.496C444.412 398.499 443.242 398.503 441.823 398.509C438.894 398.499 434.846 398.43 430.379 398.242C425.913 398.054 421.875 397.782 418.955 397.545C417.542 397.421 416.376 397.318 415.499 397.241C415.128 397.203 414.819 397.172 414.561 397.145C414.346 397.122 414.234 397.102 414.234 397.102Z" fill="#FAF9F7"/>
<path d="M415.036 382.477C415.036 382.477 416.648 381.897 419.329 381.218C424.789 379.829 425.593 379.822 429.985 379.466C434.197 379.132 438.03 379.251 440.784 379.497C443.54 379.741 445.224 380.056 445.224 380.056C445.224 380.056 445.115 380.052 444.913 380.03C444.668 380 444.376 379.966 444.03 379.924C443.264 379.824 442.151 379.71 440.775 379.603C438.023 379.384 434.199 379.281 429.996 379.615C425.795 379.956 422.037 380.666 419.355 381.32C418.014 381.645 416.934 381.936 416.193 382.157C415.858 382.252 415.576 382.333 415.338 382.401C415.142 382.455 415.036 382.477 415.036 382.477Z" fill="#FAF9F7"/>
<path d="M430.425 495.843L403.177 473.446C400.173 456.76 384.798 444.289 366.973 445.913C360.256 446.525 353.878 449.138 348.663 453.416L332.867 465.796C308.315 459.101 270.99 448.635 251.809 443.241C243.966 441.035 235.555 442.308 228.716 446.736L228.356 446.969C218.316 453.467 213.429 465.566 216.14 477.214C217.862 484.611 222.47 491.004 228.946 494.97C238.635 500.907 253.64 510.063 266.542 517.778L264.83 519.119L276.23 537.874L299.705 530.637C315.572 528.373 349.073 524.016 349.073 524.016L339.494 518.371L341.686 517.695C359.93 533.238 382.24 540.394 409.86 528.336C423.493 521.946 432.002 506.59 430.425 495.843Z" fill="#0D151D"/>
<path d="M296.027 494.607C295.937 494.726 286.931 488.159 275.912 479.941C264.89 471.72 256.03 464.961 256.119 464.842C256.208 464.723 265.213 471.287 276.235 479.508C287.254 487.726 296.116 494.487 296.027 494.607Z" fill="#283C46"/>
<path d="M383.737 493.345C383.743 493.352 383.668 493.422 383.516 493.551C383.338 493.698 383.112 493.884 382.83 494.115C382.19 494.627 381.296 495.34 380.161 496.246C379.576 496.709 378.928 497.219 378.223 497.777C377.515 498.338 376.681 498.858 375.82 499.466C374.949 500.063 374.021 500.7 373.036 501.376C372.54 501.71 372.039 502.067 371.509 502.41C370.968 502.735 370.414 503.07 369.846 503.411C367.567 504.771 365.109 506.329 362.321 507.737C360.94 508.46 359.53 509.248 358.04 509.985C356.538 510.697 354.992 511.43 353.408 512.181C347.025 515.09 339.877 518.017 332.214 520.622C316.902 525.898 302.744 529.697 292.605 532.771C290.063 533.519 287.771 534.219 285.765 534.854C283.755 535.474 282.023 536.01 280.62 536.487C279.24 536.936 278.153 537.288 277.375 537.542C277.026 537.649 276.746 537.735 276.526 537.803C276.334 537.859 276.234 537.883 276.231 537.875C276.227 537.865 276.321 537.824 276.508 537.751C276.723 537.67 276.997 537.566 277.339 537.438C278.11 537.162 279.186 536.777 280.553 536.288C281.946 535.779 283.67 535.214 285.674 534.566C287.673 533.903 289.959 533.176 292.494 532.405C302.612 529.236 316.751 525.379 332.036 520.112C339.688 517.51 346.822 514.605 353.199 511.728C354.783 510.986 356.327 510.263 357.829 509.559C359.318 508.832 360.728 508.053 362.111 507.341C364.899 505.955 367.36 504.421 369.645 503.086C370.216 502.75 370.772 502.422 371.314 502.103C371.847 501.767 372.35 501.416 372.847 501.087C373.838 500.427 374.772 499.802 375.648 499.217C376.515 498.623 377.356 498.116 378.071 497.569C378.786 497.026 379.44 496.529 380.033 496.079C381.194 495.208 382.106 494.523 382.761 494.031C383.057 493.816 383.294 493.644 383.481 493.509C383.644 493.393 383.731 493.337 383.737 493.345Z" fill="#283C46"/>
<path d="M385.771 502.113C385.785 502.148 385.483 502.303 384.925 502.556C384.369 502.811 383.547 503.145 382.52 503.527C380.468 504.292 377.57 505.2 374.299 505.905C371.025 506.606 368.011 506.969 365.826 507.115C364.732 507.189 363.846 507.221 363.234 507.217C362.621 507.216 362.283 507.198 362.281 507.16C362.277 507.077 363.626 506.977 365.791 506.734C367.956 506.492 370.937 506.072 374.186 505.376C377.432 504.677 380.322 503.836 382.395 503.166C384.469 502.499 385.74 502.036 385.771 502.113Z" fill="#283C46"/>
<path d="M345.308 456.568C345.399 456.686 327.457 470.785 305.237 488.055C283.01 505.331 264.922 519.237 264.83 519.119C264.739 519.001 282.678 504.905 304.905 487.629C327.125 470.358 345.217 456.45 345.308 456.568Z" fill="#283C46"/>
<path d="M409.831 517.075C409.81 517.075 409.791 516.873 409.774 516.491C409.762 516.039 409.748 515.487 409.732 514.819C409.716 513.368 409.653 511.268 409.527 508.678C409.279 503.498 408.624 496.352 407.174 488.573C405.71 480.795 403.736 473.894 402.092 468.976C401.274 466.516 400.573 464.535 400.061 463.178C399.836 462.547 399.649 462.028 399.497 461.603C399.374 461.24 399.319 461.046 399.338 461.038C399.357 461.03 399.449 461.209 399.609 461.557C399.79 461.972 400.011 462.478 400.279 463.092C400.858 464.426 401.621 466.388 402.494 468.839C404.246 473.735 406.295 480.65 407.764 488.463C409.22 496.275 409.812 503.461 409.952 508.661C410.024 511.26 410.022 513.366 409.965 514.819C409.937 515.489 409.914 516.041 409.896 516.493C409.873 516.875 409.851 517.075 409.831 517.075Z" fill="#283C46"/>
<path d="M340.629 516.79C340.637 516.783 340.715 516.841 340.863 516.963C341.034 517.109 341.245 517.288 341.504 517.51C342.073 517.985 342.861 518.743 343.949 519.63C346.137 521.39 349.393 523.85 353.801 526.255C358.2 528.656 363.772 530.951 370.235 532.434C371.036 532.649 371.862 532.794 372.698 532.938C373.534 533.083 374.376 533.25 375.233 533.38C376.957 533.56 378.708 533.849 380.513 533.898C384.108 534.162 387.854 534.01 391.646 533.565C392.592 533.433 393.532 533.302 394.466 533.172C395.391 532.983 396.31 532.796 397.221 532.61C399.046 532.242 400.811 531.733 402.527 531.187C405.95 530.064 409.147 528.659 412.014 527.008C417.781 523.736 422.113 519.428 424.873 515.264C427.682 511.104 428.992 507.188 429.622 504.469C429.928 503.101 430.091 502.021 430.178 501.287C430.219 500.95 430.253 500.675 430.28 500.452C430.306 500.263 430.325 500.167 430.335 500.168C430.345 500.168 430.347 500.266 430.341 500.456C430.33 500.681 430.316 500.959 430.299 501.3C430.249 502.04 430.124 503.132 429.851 504.518C429.286 507.274 428.024 511.257 425.227 515.499C422.479 519.745 418.113 524.149 412.291 527.487C409.396 529.172 406.167 530.603 402.71 531.747C400.977 532.302 399.194 532.82 397.351 533.193C396.43 533.382 395.502 533.572 394.568 533.763C393.624 533.895 392.674 534.028 391.718 534.161C387.889 534.61 384.105 534.76 380.477 534.486C378.656 534.432 376.889 534.135 375.15 533.948C374.286 533.813 373.436 533.641 372.594 533.492C371.751 533.344 370.918 533.194 370.111 532.974C363.598 531.448 357.999 529.092 353.595 526.627C349.183 524.157 345.948 521.631 343.799 519.809C342.729 518.891 341.964 518.103 341.422 517.598C341.178 517.359 340.981 517.164 340.82 517.006C340.687 516.871 340.622 516.798 340.629 516.79Z" fill="#283C46"/>
<path d="M409.724 344.661V344.655C392.851 357.644 380.416 348.238 377.278 345.363H377.274L373.96 347.096C373.96 347.096 369.285 376.719 386.471 374.22C393.303 373.226 419.373 348.552 419.373 348.552L409.724 344.661Z" fill="#FBA585"/>
<path d="M354.036 522.545C349.473 519.733 344.081 520.89 339.471 522.13C336.402 522.956 333.178 524.365 330.178 523.315C328.009 522.556 326.479 520.665 324.89 519.005C318.481 512.307 309.318 508.301 300.025 508.303C297.386 508.303 294.75 509.201 292.843 511.024C287.894 515.756 290.983 522.51 294.861 526.99C301.71 534.901 311.369 540.327 321.687 542.06C330.263 543.5 342.208 543.048 351.197 539.847C356.739 537.873 359.905 531.678 357.395 526.357C356.662 524.807 355.536 523.469 354.036 522.545Z" fill="#F9354B"/>
<path d="M353.774 526.563C349.212 523.751 343.82 524.909 339.21 526.149C336.14 526.974 332.917 528.384 329.917 527.333C327.748 526.574 326.218 524.683 324.629 523.022C318.22 516.326 309.056 512.319 299.764 512.32C297.124 512.321 294.49 513.218 292.581 515.043C291.485 516.09 290.802 517.241 290.416 518.441C290.914 521.502 292.761 524.575 294.851 526.988C301.699 534.899 311.358 540.326 321.677 542.059C330.253 543.499 342.197 543.047 351.187 539.846C354.519 538.659 356.98 535.943 357.877 532.813C357.745 531.992 357.51 531.174 357.134 530.375C356.402 528.825 355.274 527.487 353.774 526.563Z" fill="#010102"/>
<path d="M357.877 532.813C357.788 532.837 357.885 531.656 356.894 529.945C356.396 529.108 355.636 528.153 354.523 527.317C353.429 526.474 351.991 525.713 350.288 525.385C346.809 524.756 342.657 525.977 338.069 526.916C335.803 527.367 333.312 528.118 330.667 527.617C329.374 527.367 328.097 526.853 326.978 526.075C325.862 525.308 324.86 524.384 323.889 523.433C320.238 519.395 315.776 516.732 311.461 514.957C309.301 514.079 307.165 513.457 305.131 513.065C303.095 512.666 301.167 512.513 299.42 512.675C297.677 512.836 296.141 513.31 294.906 513.94C293.674 514.585 292.741 515.363 292.056 516.067C290.709 517.506 290.221 518.516 290.156 518.473C290.156 518.473 290.556 517.419 291.875 515.897C292.546 515.153 293.482 514.324 294.74 513.627C296 512.944 297.581 512.422 299.375 512.228C301.17 512.031 303.159 512.165 305.227 512.547C307.301 512.923 309.479 513.536 311.679 514.413C313.881 515.285 316.102 516.427 318.267 517.827C319.336 518.542 320.425 519.283 321.431 520.18C322.43 521.069 323.367 522.034 324.332 522.978C325.295 523.922 326.273 524.822 327.333 525.553C328.386 526.287 329.567 526.762 330.784 527.005C333.233 527.485 335.654 526.79 337.952 526.342C342.516 525.447 346.739 524.234 350.372 524.944C353.972 525.75 356.177 528.081 357.11 529.824C357.588 530.715 357.778 531.487 357.851 532.01C357.906 532.536 357.893 532.813 357.877 532.813Z" fill="#0D151D"/>
<path d="M357.877 532.813C357.788 532.837 357.885 531.656 356.894 529.945C356.396 529.108 355.636 528.153 354.523 527.317C353.429 526.474 351.991 525.713 350.288 525.385C346.809 524.756 342.657 525.977 338.069 526.916C335.803 527.367 333.312 528.118 330.667 527.617C329.374 527.367 328.097 526.853 326.978 526.075C325.862 525.308 324.86 524.384 323.889 523.433C320.238 519.395 315.776 516.732 311.461 514.957C309.301 514.079 307.165 513.457 305.131 513.065C303.095 512.666 301.167 512.513 299.42 512.675C297.677 512.836 296.141 513.31 294.906 513.94C293.674 514.585 292.741 515.363 292.056 516.067C290.709 517.506 290.221 518.516 290.156 518.473C290.156 518.473 290.556 517.419 291.875 515.897C292.546 515.153 293.482 514.324 294.74 513.627C296 512.944 297.581 512.422 299.375 512.228C301.17 512.031 303.159 512.165 305.227 512.547C307.301 512.923 309.479 513.536 311.679 514.413C313.881 515.285 316.102 516.427 318.267 517.827C319.336 518.542 320.425 519.283 321.431 520.18C322.43 521.069 323.367 522.034 324.332 522.978C325.295 523.922 326.273 524.822 327.333 525.553C328.386 526.287 329.567 526.762 330.784 527.005C333.233 527.485 335.654 526.79 337.952 526.342C342.516 525.447 346.739 524.234 350.372 524.944C353.972 525.75 356.177 528.081 357.11 529.824C357.588 530.715 357.778 531.487 357.851 532.01C357.906 532.536 357.893 532.813 357.877 532.813Z" fill="#0D151D"/>
<path d="M299.412 528.022C299.373 527.949 300.325 527.346 301.934 526.499C303.541 525.651 305.815 524.574 308.395 523.551C310.976 522.529 313.371 521.758 315.123 521.274C316.876 520.79 317.982 520.578 318.004 520.659C318.028 520.748 316.967 521.113 315.257 521.704C313.546 522.294 311.193 523.128 308.629 524.142C306.066 525.158 303.78 526.162 302.129 526.902C300.479 527.643 299.455 528.103 299.412 528.022Z" fill="#0D151D"/>
<path d="M300.738 532.844C300.672 532.682 304.933 530.787 310.256 528.612C315.58 526.436 319.95 524.804 320.016 524.966C320.082 525.128 315.821 527.024 310.497 529.2C305.174 531.376 300.805 533.007 300.738 532.844Z" fill="#0D151D"/>
<path d="M320.165 536.112C320.062 536.255 315.219 532.94 309.35 528.71C303.48 524.477 298.805 520.932 298.908 520.789C299.011 520.648 303.851 523.962 309.722 528.194C315.591 532.424 320.267 535.969 320.165 536.112Z" fill="#0D151D"/>
<path d="M323.3 531.392C323.239 531.458 322.354 530.751 320.941 529.592C319.528 528.433 317.578 526.832 315.393 525.104C313.206 523.378 311.197 521.853 309.742 520.747C308.288 519.641 307.394 518.944 307.446 518.869C307.493 518.798 308.477 519.365 310.003 520.381C311.529 521.397 313.591 522.872 315.787 524.606C317.982 526.341 319.894 528.004 321.236 529.254C322.578 530.503 323.358 531.329 323.3 531.392Z" fill="#0D151D"/>
<path d="M371.229 416.848C371.257 416.818 371.564 414.98 371.601 414.966L369.215 412.424C366.099 409.095 361.677 407.316 357.135 407.55C356.908 407.561 356.682 407.519 356.477 407.419L349.348 403.941C349.196 403.866 349.032 403.821 348.864 403.807L345.789 403.007C345.367 402.897 344.933 402.833 344.496 402.815L341.782 402.706C341.059 402.627 340.111 403.416 339.652 403.634C339.52 403.696 339.398 403.773 339.296 403.878C337.904 405.315 338.131 407.773 339.889 408.784C341.494 409.706 344.53 408.73 346.821 409.872C347.552 410.237 349.56 411.177 350.335 411.539C352.84 412.71 354.753 416.647 357.604 417.384C359.985 417.998 361.913 418.193 363.95 418.35C366.518 418.547 369.665 418.496 371.229 416.848Z" fill="#FBA585"/>
<path d="M347.891 412.178L337.369 395.842L309.282 397.966L308.519 399.723L335.284 437.456L362.3 436.719L347.891 412.178Z" fill="#CCCCCC"/>
<path d="M347.128 413.935L336.607 397.599L308.52 399.723L334.522 439.213L361.537 438.475L347.128 413.935Z" fill="#7F7F7F"/>
<path d="M323.319 405.796C323.965 406.237 324.844 406.072 325.285 405.427C325.727 404.782 325.561 403.902 324.917 403.461C324.272 403.02 323.391 403.185 322.95 403.83C322.509 404.474 322.675 405.355 323.319 405.796Z" fill="#E7E6E0"/>
<path d="M444.965 425.074V449.846C444.965 455.295 442.826 460.456 439.141 463.902C434.651 468.1 428.516 469.154 423.148 466.649L366.083 437.823C361.269 435.39 358.831 429.908 360.248 424.705C362.007 418.246 368.942 414.704 375.206 417.064L417.551 433.02L418.03 424.75L444.965 425.074Z" fill="#FBA585"/>
<path d="M437.397 485.506C437.327 485.499 437.443 484.546 437.349 483.015C437.307 482.248 437.181 481.343 436.968 480.355C436.737 479.37 436.409 478.305 435.95 477.232C435.476 476.165 434.919 475.199 434.356 474.359C433.776 473.53 433.2 472.82 432.667 472.269C431.61 471.157 430.832 470.593 430.875 470.537C430.889 470.516 431.093 470.644 431.448 470.894C431.808 471.139 432.294 471.543 432.855 472.084C433.42 472.62 434.03 473.327 434.637 474.162C435.229 475.008 435.808 475.992 436.291 477.083C436.762 478.18 437.087 479.273 437.305 480.282C437.503 481.296 437.605 482.222 437.612 483.003C437.627 483.781 437.593 484.412 437.525 484.843C437.467 485.274 437.423 485.51 437.397 485.506Z" fill="#FB7E52"/>
<path d="M371.176 414.664C361.839 418.282 350.473 411.053 350.473 411.053C350.473 411.053 331.541 413.317 331.018 415.713L331.058 416.47L331.082 416.913L347.412 416.777C347.412 416.777 333.587 417.779 332.762 417.872C331.855 417.975 328.888 417.932 329.071 419.549C329.221 420.879 330.877 421.811 333.293 421.979C334.286 422.049 346.337 422.183 346.337 422.183C346.337 422.183 333.758 423.014 333.15 423.057C331.672 423.161 332.038 425.516 332.938 425.747C333.65 425.929 350.9 429.577 350.9 429.577C350.9 429.577 348.206 431.696 345.877 431.705C343.548 431.715 339.351 429.036 338.631 430.505C337.909 431.975 338.137 432.79 338.659 433.084C339.181 433.377 344.854 435.777 346.712 436.135C348.569 436.495 363.608 437.723 363.608 437.723L377.198 437.707L381.899 425.608L371.281 414.62C371.243 414.635 371.214 414.65 371.176 414.664Z" fill="#FBA585"/>
<path d="M312.947 406.068C312.947 406.068 310.086 407.315 311.867 410.977C314.473 416.336 318.541 419.963 318.541 419.963C318.541 419.963 318.169 421.953 319.967 423.255C319.967 423.255 317.926 423.933 319.492 427.345C319.492 427.345 318.337 431.094 322.355 432.359C322.355 432.359 321.542 435.43 325.421 436.574C329.3 437.719 332.754 434.971 332.754 434.971L312.947 406.068Z" fill="#FBA585"/>
<path d="M319.961 419.566C322.685 420.085 325.661 420.437 328.201 421.188C329.037 421.435 329.843 421.391 330.433 422.032C331.024 422.672 331.229 423.749 330.66 424.408C330.158 424.99 329.289 425.045 328.522 425.01C325.648 424.882 322.846 424.11 320.073 423.343" fill="#FBA585"/>
<path d="M321.363 423.941C324.088 424.46 327.063 424.813 329.603 425.563C330.439 425.81 331.245 425.765 331.835 426.406C332.426 427.047 332.633 428.125 332.063 428.784C331.561 429.365 330.692 429.42 329.925 429.385C327.05 429.256 324.249 428.485 321.476 427.719" fill="#FBA585"/>
<path d="M323.227 428.411C325.951 428.929 328.927 429.282 331.467 430.032C332.303 430.279 333.109 430.235 333.699 430.876C334.29 431.517 334.496 432.593 333.927 433.253C333.425 433.834 332.555 433.889 331.788 433.855C328.914 433.726 326.112 432.955 323.339 432.187" fill="#FBA585"/>
<path d="M320.24 423.424C320.276 423.308 322.21 423.825 324.625 424.303C327.039 424.788 329.024 425.053 329.012 425.173C329.004 425.282 326.984 425.203 324.544 424.714C322.102 424.23 320.206 423.527 320.24 423.424Z" fill="#FB7E52"/>
<path d="M320.04 427.393C320.073 427.278 322.285 427.83 325.031 428.411C327.776 428.999 330.02 429.396 330.004 429.514C329.99 429.624 327.707 429.412 324.944 428.82C322.181 428.235 320.008 427.499 320.04 427.393Z" fill="#FB7E52"/>
<path d="M322.175 432.315C322.194 432.202 324.28 432.464 326.832 432.9C329.386 433.337 331.439 433.784 331.42 433.897C331.4 434.011 329.315 433.749 326.761 433.313C324.209 432.876 322.155 432.429 322.175 432.315Z" fill="#FB7E52"/>
<path d="M317.7 419.189C317.733 419.072 320.158 419.694 323.191 420.234C326.223 420.783 328.712 421.043 328.702 421.165C328.698 421.22 328.068 421.227 327.055 421.153C326.041 421.08 324.644 420.919 323.117 420.645C321.59 420.37 320.224 420.036 319.248 419.752C318.272 419.467 317.684 419.243 317.7 419.189Z" fill="#FB7E52"/>
<path d="M367.397 282.487C363.448 284.382 363.195 288.617 363.631 291.702C364.067 294.785 364.762 298.001 363.752 300.947C362.718 303.959 360.101 306.102 358.254 308.696C355.925 311.966 354.816 316.083 355.188 320.081C355.467 323.093 356.549 325.985 356.846 328.995C357.143 332.005 356.438 335.412 353.965 337.153C355.625 337.459 357.359 336.728 358.57 335.551C359.782 334.374 360.534 332.801 361.065 331.198C363.084 325.111 362.273 318.213 365.125 312.469C366.784 309.13 369.609 306.363 370.622 302.774C371.639 299.174 370.669 295.359 370.311 291.635C369.952 287.911 370.483 283.614 373.504 281.408" fill="#04041A"/>
<path d="M353.056 335.212C352.975 335.158 353.687 334.629 353.936 333.235C354.052 332.551 354.04 331.68 353.786 330.722C353.532 329.764 353.019 328.734 352.422 327.594C351.821 326.463 351.176 325.13 350.877 323.591C350.569 322.06 350.548 320.357 350.913 318.635C351.269 316.915 352.06 315.174 353.238 313.675C354.398 312.159 355.852 310.851 357.297 309.526C358.746 308.207 360.109 306.884 361.142 305.406C362.186 303.936 362.811 302.306 362.937 300.662C363.186 297.357 362.232 294.342 362.135 291.726C361.94 289.1 362.603 286.939 363.428 285.719C363.83 285.099 364.241 284.69 364.54 284.447C364.839 284.203 365.022 284.112 365.037 284.131C365.097 284.195 364.405 284.656 363.714 285.89C363.015 287.112 362.477 289.151 362.738 291.683C362.896 294.21 363.932 297.185 363.723 300.729C363.616 302.494 362.932 304.327 361.831 305.883C360.744 307.459 359.331 308.832 357.876 310.157C356.426 311.486 355.009 312.759 353.903 314.188C352.78 315.601 352.041 317.192 351.683 318.803C351.321 320.412 351.315 322.012 351.575 323.457C351.828 324.91 352.394 326.167 352.964 327.324C353.525 328.481 354.026 329.571 354.252 330.61C354.478 331.646 354.438 332.58 354.262 333.305C354.081 334.033 353.765 334.539 353.508 334.83C353.253 335.127 353.068 335.226 353.056 335.212Z" fill="#4C1F03"/>
<path d="M411.12 327.23C411.875 330.143 414.625 332.349 417.612 332.717C420.598 333.085 423.678 331.728 425.639 329.446C427.6 327.164 428.479 324.054 428.292 321.051C428.206 319.692 427.918 318.31 428.235 316.985C428.684 315.107 430.26 313.7 430.959 311.901C432.218 308.659 430.199 304.831 427.178 303.109C424.156 301.387 420.453 301.36 417.015 301.888" fill="#04041A"/>
<path d="M376.304 271.53C372.489 271.563 368.527 273.08 366.31 276.184C364.094 279.289 364.151 284.07 366.993 286.615C369.672 289.016 373.904 288.841 377.143 287.275C379.532 286.119 381.632 284.245 382.739 281.832C383.847 279.419 383.859 276.454 382.479 274.186C381.098 271.919 378.25 270.544 375.672 271.176" fill="#04041A"/>
<path d="M373.285 270.776C375.491 266.405 379.971 263.445 384.745 262.364C389.521 261.284 394.556 261.922 399.225 263.397C403.894 264.872 408.26 267.153 412.598 269.423C415.755 271.075 418.98 272.778 421.393 275.401C423.781 277.997 425.22 281.349 426.033 284.781C427.56 291.23 427.109 295.763 423.722 301.459C422.248 303.939 422.838 306.984 421.478 309.528C420.118 312.072 414.918 314.668 416.119 317.29" fill="#04041A"/>
<path d="M400.44 314.985C400.39 315.233 398.312 314.919 395.817 315.341C393.315 315.732 391.444 316.689 391.319 316.469C391.183 316.294 392.987 314.923 395.679 314.496C398.367 314.048 400.513 314.777 400.44 314.985Z" fill="#4C1F03"/>
<path d="M394.996 314.161C394.798 314.302 394.098 313.644 393.208 312.913C392.324 312.175 391.546 311.611 391.648 311.391C391.738 311.179 392.771 311.435 393.755 312.253C394.742 313.066 395.188 314.033 394.996 314.161Z" fill="#4C1F03"/>
<path d="M426.894 315.781C426.829 315.641 428.375 315.049 430.616 313.755C431.714 313.089 432.966 312.163 433.911 310.793C434.862 309.447 435.342 307.585 434.767 305.765C434.235 303.951 432.945 302.495 431.506 301.736C430.041 300.971 428.484 300.829 427.227 300.941C424.668 301.199 423.306 302.253 423.235 302.104C423.206 302.064 423.503 301.768 424.146 301.38C424.793 301.008 425.804 300.535 427.156 300.339C428.49 300.141 430.202 300.218 431.865 301.033C433.517 301.855 434.983 303.466 435.589 305.525C436.254 307.589 435.65 309.808 434.556 311.247C433.475 312.731 432.092 313.659 430.916 314.281C429.726 314.903 428.714 315.266 428.015 315.505C427.313 315.739 426.915 315.836 426.894 315.781Z" fill="#4C1F03"/>
<path d="M415.707 283.977C415.933 281.342 414.105 278.972 411.499 278.521L384.974 269.921C376.395 268.436 369.948 278.694 368.829 287.328C367.586 296.92 366.446 308.68 367.113 315.943C368.453 330.546 379.408 333.117 379.408 333.117C379.41 333.117 389.091 334.386 399.104 329.234C399.104 329.234 393.565 338.847 379.191 336.54C379.076 338.365 378.122 341.41 377.979 343.694L378.111 346.773C378.396 353.406 383.104 359.019 389.586 360.455C395.922 360.78 401.822 360.313 405.866 355.424L407.891 352.902C408.703 351.921 409.856 349.895 409.968 348.627L415.707 283.977ZM372.792 286.791C373.397 286.365 374.408 286.019 375.545 286.058C376.683 286.099 377.668 286.515 378.242 286.982C378.825 287.452 379.015 287.92 378.859 288.14C378.506 288.593 377.131 288.115 375.475 288.086C373.821 287.999 372.415 288.379 372.095 287.903C371.955 287.672 372.177 287.217 372.792 286.791ZM378.344 293.14C378.111 293.369 376.714 292.247 374.721 292.138C372.727 292.001 371.254 292.948 371.04 292.69C370.934 292.575 371.171 292.151 371.815 291.722C372.447 291.293 373.522 290.905 374.765 290.98C376.008 291.057 377.048 291.577 377.645 292.08C378.251 292.586 378.457 293.038 378.344 293.14ZM378.1 308.236C378.163 308.589 378.638 308.723 379.144 308.809C381.136 309.198 382.362 309.494 382.345 309.607C382.33 309.72 381.076 309.629 379.062 309.386C378.811 309.354 378.525 309.33 378.204 309.208C377.884 309.099 377.528 308.798 377.416 308.408C377.206 307.628 377.582 306.993 377.812 306.427C378.352 305.216 378.92 303.95 379.513 302.621C381.969 297.238 384.137 292.954 384.355 293.05C384.572 293.147 382.758 297.588 380.302 302.971C379.687 304.29 379.1 305.548 378.54 306.749C378.254 307.325 378.005 307.86 378.1 308.236ZM397.864 295.743C397.632 295.973 396.235 294.851 394.241 294.743C392.249 294.606 390.775 295.551 390.56 295.295C390.455 295.178 390.692 294.755 391.335 294.326C391.968 293.897 393.043 293.509 394.286 293.584C395.528 293.661 396.569 294.181 397.165 294.684C397.774 295.191 397.977 295.642 397.864 295.743ZM399.064 290.997C398.721 291.463 396.88 290.654 394.549 290.264C392.228 289.827 390.219 289.953 390.059 289.397C389.991 289.135 390.452 288.737 391.333 288.447C392.209 288.157 393.509 288.019 394.904 288.265C396.299 288.515 397.472 289.092 398.194 289.667C398.922 290.242 399.218 290.773 399.064 290.997Z" fill="#FBA680"/>
<path d="M379.408 333.117L379.189 336.539L379.191 336.54C379.32 334.504 379.41 333.103 379.408 333.117Z" fill="#FB7E52"/>
<path d="M399.104 329.233C389.091 334.386 379.411 333.117 379.408 333.117C379.41 333.103 379.321 334.504 379.192 336.54C393.566 338.846 399.104 329.233 399.104 329.233Z" fill="#FB7E52"/>
<path d="M380.302 302.97C382.758 297.586 384.572 293.146 384.355 293.049C384.137 292.952 381.969 297.237 379.513 302.62C378.919 303.948 378.352 305.215 377.812 306.426C377.581 306.991 377.206 307.627 377.416 308.408C377.528 308.797 377.884 309.098 378.204 309.208C378.524 309.329 378.81 309.353 379.061 309.385C381.076 309.628 382.329 309.719 382.344 309.606C382.361 309.493 381.135 309.197 379.143 308.808C378.638 308.721 378.163 308.588 378.1 308.235C378.004 307.859 378.253 307.324 378.539 306.748C379.1 305.547 379.686 304.288 380.302 302.97Z" fill="#0D151D"/>
<path d="M397.165 294.683C396.569 294.18 395.528 293.66 394.286 293.582C393.042 293.507 391.968 293.895 391.335 294.324C390.692 294.754 390.455 295.177 390.56 295.293C390.775 295.55 392.248 294.605 394.241 294.742C396.235 294.85 397.632 295.972 397.864 295.742C397.977 295.641 397.775 295.189 397.165 294.683Z" fill="#0D151D"/>
<path d="M377.644 292.079C377.048 291.576 376.007 291.056 374.764 290.979C373.522 290.903 372.446 291.292 371.815 291.721C371.17 292.15 370.934 292.574 371.04 292.69C371.254 292.946 372.727 292.001 374.721 292.138C376.715 292.247 378.11 293.368 378.343 293.139C378.457 293.038 378.251 292.586 377.644 292.079Z" fill="#0D151D"/>
<path d="M398.194 289.666C397.472 289.092 396.299 288.514 394.904 288.265C393.51 288.019 392.21 288.156 391.334 288.447C390.452 288.736 389.991 289.134 390.059 289.397C390.219 289.952 392.228 289.827 394.549 290.263C396.88 290.654 398.721 291.463 399.064 290.997C399.218 290.773 398.922 290.242 398.194 289.666Z" fill="#0D151D"/>
<path d="M375.474 288.086C377.131 288.115 378.506 288.592 378.859 288.14C379.016 287.918 378.825 287.45 378.242 286.981C377.668 286.514 376.683 286.098 375.545 286.057C374.408 286.019 373.398 286.365 372.792 286.79C372.177 287.217 371.955 287.671 372.095 287.902C372.416 288.378 373.821 287.999 375.474 288.086Z" fill="#0D151D"/>
<path d="M390.322 298.606C390.221 299.583 390.967 300.472 391.985 300.594C393.001 300.716 393.906 300.026 394.005 299.05C394.104 298.073 393.36 297.183 392.344 297.06C391.326 296.938 390.421 297.63 390.322 298.606Z" fill="#0D151D"/>
<path d="M371.44 297.4C371.341 298.377 372.085 299.266 373.103 299.389C374.119 299.511 375.025 298.821 375.124 297.845C375.223 296.868 374.478 295.978 373.463 295.855C372.445 295.733 371.54 296.424 371.44 297.4Z" fill="#0D151D"/>
<path d="M382.899 314.248C383.626 313.407 384.83 313 385.985 313.202C386.787 313.342 387.577 313.786 388.023 314.475C388.47 315.165 388.512 316.105 388.024 316.702C387.475 317.375 386.416 317.468 385.545 317.157C384.674 316.846 383.949 316.211 383.262 315.581C383.072 315.407 382.878 315.225 382.767 314.996C382.656 314.767 382.648 314.477 382.815 314.303" fill="#FB7E52"/>
<path d="M387.797 311.362C387.496 311.325 387.359 313.344 385.536 314.662C383.716 315.987 381.579 315.617 381.545 315.899C381.508 316.024 381.998 316.322 382.904 316.407C383.794 316.497 385.113 316.296 386.228 315.49C387.341 314.68 387.872 313.538 387.995 312.714C388.128 311.875 387.936 311.36 387.797 311.362Z" fill="#0D151D"/>
<path d="M372.578 274.599C372.974 279.218 380.155 280.428 384.752 279.84C387.488 283.934 392.435 286.449 397.356 286.248C398.025 286.22 398.731 286.154 399.329 286.455C399.963 286.773 400.334 287.431 400.722 288.026C402.451 290.682 405.201 292.654 408.272 293.442C408.591 298.048 412.018 302.278 416.459 303.546C416.459 303.546 417.99 302.907 417.84 297.032C417.69 291.156 419.101 279.045 419.101 279.045L403.734 270.848L385.04 266.113C385.04 266.113 371.907 266.784 372.578 274.599Z" fill="#04041A"/>
<path d="M423.414 302.095C423.286 302.107 423.573 300.502 422.691 297.971C422.242 296.726 421.453 295.271 420.114 294.001C418.79 292.735 416.909 291.656 414.677 291.288L414.427 291.247L414.38 290.991C413.951 288.655 413.02 286.068 411.061 284.125C409.176 282.221 405.969 281.128 403.233 282.283L402.781 282.473L402.645 281.984C402.598 281.814 402.547 281.63 402.495 281.447C401.262 277.185 397.379 274.252 393.647 273.64C392.698 273.49 391.788 273.48 390.844 273.539C389.908 273.582 388.911 273.604 387.995 273.225C387.071 272.837 386.465 272.101 385.959 271.463C385.455 270.802 384.993 270.219 384.438 269.762C382.184 267.901 379.552 267.8 377.99 268.086C376.366 268.387 375.593 268.963 375.552 268.881C375.536 268.856 375.722 268.717 376.098 268.472C376.491 268.267 377.084 267.948 377.922 267.759C379.533 267.364 382.317 267.34 384.824 269.296C386.109 270.225 386.792 271.96 388.264 272.568C389.744 273.15 391.724 272.482 393.773 272.861C397.8 273.485 401.964 276.575 403.319 281.21C403.374 281.41 403.429 281.611 403.48 281.795L402.893 281.497C406.074 280.178 409.578 281.445 411.639 283.543C413.755 285.683 414.685 288.432 415.094 290.87L414.798 290.573C417.19 291.009 419.161 292.201 420.527 293.579C421.909 294.964 422.682 296.524 423.089 297.837C423.502 299.16 423.564 300.254 423.552 300.983C423.532 301.717 423.445 302.098 423.414 302.095Z" fill="#4C1F03"/>
<path d="M399.414 285.216C399.423 285.264 398.999 285.409 398.198 285.532C397.399 285.658 396.211 285.707 394.763 285.503C391.911 285.137 387.831 283.403 385.248 279.568L385.765 279.727C385.611 279.785 385.443 279.848 385.275 279.912C383.045 280.689 380.711 280.653 378.762 280.099C376.797 279.544 375.251 278.464 374.189 277.385C373.119 276.297 372.507 275.211 372.169 274.444C371.835 273.67 371.754 273.208 371.802 273.192C371.949 273.112 372.487 274.964 374.609 276.949C375.668 277.915 377.141 278.865 378.969 279.337C380.786 279.81 382.945 279.818 384.994 279.103C385.148 279.046 385.301 278.988 385.443 278.934L385.772 278.812L385.961 279.093C388.361 282.674 392.154 284.416 394.865 284.916C397.631 285.459 399.398 285.05 399.414 285.216Z" fill="#4C1F03"/>
<path d="M420.459 324.424C420.354 324.654 418.563 323.943 416.255 323.875C413.947 323.772 412.11 324.349 412.021 324.112C411.913 323.918 413.766 322.915 416.286 323.018C418.807 323.101 420.581 324.239 420.459 324.424Z" fill="#4C1F03"/>
<path d="M412.079 290.973C412.072 291.192 409.326 291.133 406.259 289.82C403.182 288.527 401.232 286.594 401.386 286.438C401.544 286.239 403.652 287.799 406.594 289.031C409.523 290.289 412.111 290.721 412.079 290.973Z" fill="#4C1F03"/>
<path d="M421.333 299.32C421.132 299.473 419.892 297.887 417.7 296.972C415.527 296.012 413.524 296.205 413.496 295.954C413.409 295.745 415.597 295.121 418.038 296.186C420.49 297.222 421.545 299.239 421.333 299.32Z" fill="#283C46"/>
<path d="M368.519 289.032C368.496 289.107 367.223 288.589 365.972 286.864C364.739 285.21 363.68 282.127 364.73 278.948C365.83 275.786 368.547 273.983 370.531 273.42C372.574 272.811 373.899 273.174 373.872 273.248C373.872 273.405 372.578 273.279 370.729 273.992C368.919 274.66 366.518 276.401 365.541 279.223C364.601 282.058 365.447 284.9 366.477 286.531C367.512 288.221 368.615 288.908 368.519 289.032Z" fill="#4C1F03"/>
<path d="M426.714 315.656C426.771 315.642 426.957 316.109 427.228 316.975C427.495 317.843 427.855 319.109 428.145 320.718C428.425 322.322 428.643 324.292 428.367 326.475C428.096 328.633 427.316 331.05 425.615 333.013C423.904 334.966 421.471 336.05 419.212 336.066C416.918 336.132 414.984 334.909 414.003 333.558C412.97 332.205 412.683 330.783 412.743 329.857C412.796 328.917 413.057 328.452 413.092 328.468C413.168 328.487 413.025 328.978 413.077 329.853C413.118 330.717 413.476 331.993 414.475 333.179C415.447 334.37 417.15 335.372 419.197 335.276C421.212 335.225 423.424 334.219 424.97 332.45C426.525 330.659 427.286 328.417 427.586 326.368C427.89 324.304 427.746 322.393 427.547 320.809C427.098 317.637 426.571 315.69 426.714 315.656Z" fill="#4C1F03"/>
<path d="M407.34 286.586C405.354 290.084 406.512 294.502 408.176 298.163C409.84 301.825 412.017 305.478 411.967 309.5C411.883 316.235 405.573 321.873 406.062 328.592C406.353 332.589 409.351 336.248 413.212 337.319C410.141 335.018 410.091 330.327 411.491 326.754C412.892 323.181 419.263 313.902 420.307 310.209C423.812 297.805 422.663 296.283 418.501 291.647" fill="#04041A"/>
<path d="M418.984 296.15C418.988 296.253 418.084 296.414 416.648 296.131C415.227 295.861 413.274 295.042 411.687 293.422C410.1 291.799 409.324 289.828 409.085 288.402C408.833 286.959 409.013 286.06 409.116 286.066C409.255 286.064 409.303 286.941 409.691 288.258C410.069 289.567 410.871 291.327 412.316 292.805C413.763 294.282 415.503 295.122 416.805 295.528C418.113 295.944 418.989 296.012 418.984 296.15Z" fill="#4C1F03"/>
<path d="M411.852 333.247C411.831 333.27 411.684 333.164 411.419 332.937C411.157 332.71 410.801 332.333 410.419 331.788C409.678 330.708 408.835 328.834 408.99 326.405C409.056 325.203 409.412 323.884 410.161 322.652C410.913 321.427 412.022 320.39 413.13 319.339C414.249 318.29 415.325 317.155 416.039 315.705C416.763 314.272 417.171 312.61 417.182 310.906C417.194 309.195 416.79 307.55 416.048 306.109C415.323 304.657 414.354 303.378 413.438 302.148C411.541 299.723 410.063 297.272 409.235 295.06C408.382 292.85 408.146 290.914 408.156 289.6C408.169 288.279 408.362 287.569 408.406 287.577C408.588 287.555 408 290.557 409.814 294.828C410.697 296.954 412.157 299.263 414.084 301.657C415.02 302.877 416.033 304.177 416.818 305.721C417.623 307.251 418.08 309.067 418.063 310.91C418.05 312.755 417.603 314.548 416.806 316.096C416.023 317.664 414.821 318.901 413.686 319.93C412.552 320.973 411.488 321.942 410.776 323.044C410.076 324.14 409.709 325.34 409.61 326.456C409.387 328.71 410.084 330.517 410.708 331.605C411.36 332.704 411.91 333.188 411.852 333.247Z" fill="#4C1F03"/>
<path d="M420.474 295.753C420.511 295.718 420.851 295.985 421.357 296.578C421.866 297.166 422.491 298.128 423.011 299.432C424.074 302.02 424.4 306.12 422.922 310.17C421.435 314.202 418.903 317.203 417.024 319.184C415.113 321.17 413.785 322.231 413.71 322.154C413.615 322.058 414.792 320.834 416.561 318.768C418.304 316.703 420.677 313.719 422.095 309.869C423.495 306.025 423.288 302.153 422.425 299.643C421.583 297.091 420.335 295.858 420.474 295.753Z" fill="#4C1F03"/>
<ellipse opacity="0.6" cx="506.406" cy="646.06" rx="24.836" ry="24.7651" transform="rotate(14.071 506.406 646.06)" fill="url(#paint2_linear_71_3)"/>
<ellipse opacity="0.6" cx="294.406" cy="288.06" rx="24.836" ry="24.7651" transform="rotate(14.071 294.406 288.06)" fill="url(#paint3_linear_71_3)"/>
<ellipse opacity="0.6" cx="28.4058" cy="74.0602" rx="24.836" ry="24.7651" transform="rotate(14.071 28.4058 74.0602)" fill="url(#paint4_linear_71_3)"/>
<defs>
<linearGradient id="paint0_linear_71_3" x1="15.8307" y1="589.291" x2="-9.19687" y2="773.428" gradientUnits="userSpaceOnUse">
<stop stop-color="#D789D9"/>
<stop offset="1" stop-color="#FFDAF5"/>
</linearGradient>
<linearGradient id="paint1_linear_71_3" x1="678.875" y1="14.589" x2="673.406" y2="54.8253" gradientUnits="userSpaceOnUse">
<stop stop-color="#89D4D9"/>
<stop offset="1" stop-color="#FFDAF5"/>
</linearGradient>
<linearGradient id="paint2_linear_71_3" x1="511.875" y1="630.589" x2="506.406" y2="670.825" gradientUnits="userSpaceOnUse">
<stop stop-color="#D789D9"/>
<stop offset="1" stop-color="#FFDAF5"/>
</linearGradient>
<linearGradient id="paint3_linear_71_3" x1="299.875" y1="272.589" x2="294.406" y2="312.825" gradientUnits="userSpaceOnUse">
<stop stop-color="#D789D9"/>
<stop offset="1" stop-color="#FFDAF5"/>
</linearGradient>
<linearGradient id="paint4_linear_71_3" x1="33.8746" y1="58.589" x2="28.4058" y2="98.8253" gradientUnits="userSpaceOnUse">
<stop stop-color="#899BD9"/>
<stop offset="1" stop-color="#FFDAF5"/>
</linearGradient>
</defs>
</svg>
