<svg width="706" height="530" viewBox="0 0 706 530" fill="none" xmlns="http://www.w3.org/2000/svg">
<path d="M164.285 460.56C164.285 463.752 136.12 466.34 101.376 466.34C66.6315 466.34 38.4658 463.752 38.4658 460.56C38.4658 457.368 66.6315 454.78 101.376 454.78C136.12 454.78 164.285 457.368 164.285 460.56Z" fill="#E5BF9E"/>
<path d="M388.976 213.622C364.276 210.118 340.868 200.454 320.668 185.801C290.497 163.916 227.357 126.675 167.126 145.225C84.0481 170.812 83.678 244.83 105.317 285.037C126.957 325.244 280.411 442.986 479.351 424.251C657.374 407.486 692.066 215.588 597.121 180.864C514.772 150.746 486.677 227.485 388.976 213.622Z" fill="#F1D5B8"/>
<path d="M183.019 360.986C183.019 360.986 170.592 355.299 165.742 365.184C160.891 375.069 178.632 385.198 188.286 382.286C197.939 379.374 196.247 364.817 183.019 360.986Z" fill="#F1D5B8"/>
<path d="M347.153 167.962C347.153 167.962 333.63 163.72 329.918 174.52C326.205 185.32 345.77 193.444 355.326 189.196C364.883 184.949 361.259 170.19 347.153 167.962Z" fill="#F1D5B8"/>
<path d="M85.012 240.915C85.012 240.915 52.9906 232.794 45.1566 209.72C37.3227 186.645 71.2392 171.455 87.9996 184.512C105.931 198.481 85.012 240.915 85.012 240.915Z" fill="#006C60"/>
<path d="M101.122 301.302C100.837 301.287 100.598 301.065 100.57 300.771C98.5784 279.62 87.6745 248.76 78.878 226.596C69.3393 202.562 60.1565 183.298 60.0648 183.106C59.9251 182.814 60.0486 182.464 60.3408 182.324C60.6331 182.184 60.983 182.308 61.1227 182.601C61.2144 182.793 70.4144 202.093 79.9679 226.164C88.7924 248.399 99.7325 279.372 101.738 300.661C101.769 300.984 101.532 301.27 101.209 301.3C101.18 301.303 101.151 301.303 101.122 301.302Z" fill="#00433B"/>
<path d="M83.9189 238.666C83.7102 238.655 83.5139 238.533 83.4188 238.33C70.7292 211.345 48.8766 191.095 48.6573 190.894C48.4183 190.675 48.4029 190.303 48.6215 190.065C48.8402 189.827 49.2109 189.81 49.45 190.029C49.6708 190.232 71.6882 210.631 84.4794 237.83C84.6174 238.123 84.4915 238.473 84.1986 238.611C84.1081 238.654 84.0125 238.671 83.9189 238.666Z" fill="#00433B"/>
<path d="M84.4553 240.579C84.2895 240.57 84.129 240.491 84.0204 240.349C74.3941 227.712 64.2787 219.636 57.4881 215.086C50.1274 210.155 44.9781 208.188 44.9266 208.169C44.6232 208.055 44.4701 207.715 44.584 207.413C44.6979 207.109 45.0361 206.956 45.3395 207.07C45.5524 207.151 50.6379 209.09 58.1026 214.086C64.9772 218.687 75.2158 226.855 84.9529 239.637C85.1492 239.895 85.0996 240.263 84.8418 240.459C84.7266 240.547 84.5893 240.586 84.4553 240.579Z" fill="#00433B"/>
<path d="M81.9719 233.549C81.7283 233.536 81.5094 233.371 81.4389 233.123C74.7712 209.528 79.1657 181.516 79.2108 181.236C79.2628 180.916 79.5624 180.699 79.8836 180.75C80.2032 180.802 80.4212 181.104 80.3692 181.423C80.3243 181.701 75.9716 209.463 82.5676 232.804C82.6554 233.116 82.4743 233.44 82.1625 233.528C82.0986 233.546 82.0346 233.553 81.9719 233.549Z" fill="#00433B"/>
<path d="M83.7119 238.242C83.4302 238.227 83.1934 238.01 83.1609 237.72C81.521 222.921 84.0101 211.053 86.3867 203.703C88.9679 195.721 91.8993 191.305 92.0229 191.121C92.2034 190.852 92.5677 190.781 92.8367 190.961C93.1057 191.141 93.178 191.506 92.9974 191.775C92.968 191.819 90.018 196.271 87.488 204.112C85.155 211.344 82.7134 223.022 84.3273 237.591C84.3628 237.913 84.1301 238.204 83.8083 238.239C83.7755 238.243 83.7436 238.244 83.7119 238.242Z" fill="#00433B"/>
<path d="M119.426 248.417C119.426 248.417 152.37 245.952 164.057 224.58C175.745 203.208 144.944 182.386 126.186 192.35C106.117 203.009 119.426 248.417 119.426 248.417Z" fill="#006C60"/>
<path d="M103.889 299.176C103.886 299.176 103.884 299.176 103.882 299.176C103.558 299.152 103.316 298.87 103.34 298.547C104.126 287.752 107.231 275.591 112.567 262.402C116.829 251.867 122.517 240.653 129.474 229.072C141.314 209.36 152.888 195.219 153.004 195.078C153.211 194.828 153.58 194.793 153.83 194.998C154.08 195.204 154.116 195.574 153.91 195.824C153.795 195.965 142.267 210.05 130.47 229.691C119.6 247.792 106.271 274.445 104.509 298.633C104.486 298.954 104.209 299.196 103.889 299.176Z" fill="#00433B"/>
<path d="M120.929 246.394C120.824 246.388 120.72 246.354 120.628 246.289C120.363 246.103 120.299 245.736 120.485 245.471C137.762 220.891 162.958 204.604 163.211 204.443C163.483 204.269 163.846 204.349 164.02 204.622C164.195 204.895 164.115 205.258 163.843 205.432C163.592 205.593 138.584 221.761 121.445 246.147C121.323 246.32 121.126 246.407 120.929 246.394Z" fill="#00433B"/>
<path d="M120.069 248.186C119.923 248.177 119.781 248.114 119.674 247.998C119.455 247.76 119.469 247.388 119.706 247.169C131.495 236.262 142.985 229.986 150.548 226.643C158.76 223.012 164.104 221.981 164.327 221.939C164.643 221.879 164.951 222.089 165.011 222.407C165.071 222.725 164.862 223.032 164.544 223.092C164.49 223.103 159.08 224.149 150.981 227.734C143.51 231.042 132.156 237.247 120.502 248.031C120.38 248.143 120.222 248.195 120.069 248.186Z" fill="#00433B"/>
<path d="M123.726 241.695C123.653 241.691 123.578 241.672 123.508 241.638C123.215 241.498 123.093 241.147 123.234 240.855C133.748 219.004 134.237 190.906 134.241 190.625C134.245 190.301 134.511 190.042 134.835 190.046C135.155 190.049 135.418 190.317 135.414 190.641C135.41 190.925 134.919 219.275 124.291 241.364C124.185 241.586 123.957 241.71 123.726 241.695Z" fill="#00433B"/>
<path d="M121.203 246.019C121.16 246.016 121.118 246.009 121.075 245.997C120.763 245.906 120.585 245.58 120.676 245.269C124.773 231.197 124.377 219.271 123.323 211.745C122.18 203.584 120.041 198.689 120.019 198.641C119.887 198.345 120.021 197.998 120.317 197.867C120.613 197.736 120.959 197.869 121.091 198.165C121.181 198.367 123.308 203.224 124.477 211.533C125.554 219.183 125.964 231.304 121.802 245.598C121.724 245.866 121.47 246.035 121.203 246.019Z" fill="#00433B"/>
<path d="M105.714 205.009C105.714 205.009 78.5509 186.196 79.2727 161.837C79.9945 137.478 117.077 135.113 128.218 153.21C140.137 172.572 105.714 205.009 105.714 205.009Z" fill="#006C60"/>
<path d="M99.9189 267.265C99.8744 267.264 99.8285 267.257 99.7835 267.244C99.4704 267.16 99.2854 266.838 99.3698 266.525C104.9 246.013 105.471 213.289 104.976 189.449C104.44 163.596 102.569 142.337 102.551 142.125C102.521 141.802 102.76 141.518 103.083 141.489C103.403 141.462 103.691 141.698 103.72 142.021C103.739 142.233 105.613 163.533 106.15 189.424C106.645 213.342 106.068 246.185 100.502 266.831C100.43 267.099 100.184 267.274 99.9189 267.265Z" fill="#00433B"/>
<path d="M105.69 202.566C105.397 202.556 105.149 202.328 105.124 202.027C102.665 172.306 89.2645 145.69 89.1296 145.425C88.9827 145.136 89.0976 144.783 89.3859 144.636C89.6742 144.488 90.0276 144.603 90.1745 144.892C90.3109 145.159 103.814 171.974 106.293 201.93C106.32 202.253 106.08 202.537 105.757 202.564C105.735 202.565 105.713 202.566 105.69 202.566Z" fill="#00433B"/>
<path d="M105.53 204.546C105.285 204.539 105.061 204.377 104.986 204.13C100.383 188.922 93.7266 177.816 88.9539 171.179C83.7802 163.983 79.6419 160.339 79.6009 160.302C79.3571 160.09 79.3311 159.719 79.5436 159.475C79.757 159.231 80.1273 159.205 80.3711 159.418C80.5422 159.567 84.6303 163.165 89.8789 170.457C94.7128 177.173 101.452 188.407 106.109 203.79C106.202 204.1 106.027 204.427 105.717 204.521C105.655 204.54 105.592 204.548 105.53 204.546Z" fill="#00433B"/>
<path d="M105.655 197.09C105.645 197.09 105.635 197.089 105.624 197.088C105.302 197.061 105.062 196.778 105.088 196.455C107.087 172.02 120.99 147.316 121.131 147.069C121.291 146.788 121.65 146.69 121.931 146.85C122.213 147.009 122.312 147.368 122.151 147.649C122.012 147.894 108.234 172.379 106.257 196.551C106.231 196.864 105.965 197.099 105.655 197.09Z" fill="#00433B"/>
<path d="M105.648 202.095C105.607 202.094 105.564 202.088 105.522 202.077C105.208 201.998 105.017 201.679 105.097 201.365C108.731 186.929 115.231 176.601 120.044 170.479C125.27 163.832 129.577 160.647 129.758 160.515C130.019 160.324 130.386 160.38 130.577 160.642C130.769 160.903 130.711 161.271 130.45 161.462C130.407 161.493 126.067 164.707 120.936 171.243C116.204 177.27 109.813 187.439 106.234 201.652C106.165 201.925 105.917 202.104 105.648 202.095Z" fill="#00433B"/>
<path d="M132.365 261.312L131.142 271.746L130.94 273.477L130.358 278.437L130.156 280.169L129.559 285.261L129.357 286.99L124.963 324.504C108.186 326.63 92.5279 326.498 77.7874 324.504L73.3936 286.99L73.1918 285.261L72.5954 280.169L72.3928 278.437L71.8114 273.477L71.6089 271.746L70.3857 261.312H132.365Z" fill="#FF4F3F"/>
<path d="M131.142 271.746L130.941 273.478H71.8119L71.6094 271.746H131.142Z" fill="#CE101D"/>
<path d="M130.359 278.438L130.157 280.169H72.5961L72.3936 278.438H130.359Z" fill="#CE101D"/>
<path d="M129.56 285.261L129.358 286.99H73.3941L73.1924 285.261H129.56Z" fill="#CE101D"/>
<path d="M128.959 303.396H73.792L73.1924 298.897H129.56L128.959 303.396Z" fill="#3D2027"/>
<path d="M135.466 379.936H67.7107L66.9736 375.438H136.203L135.466 379.936Z" fill="#3D2027"/>
<path d="M77.474 303.396L52.0127 460.933H55.5074L81.6771 303.396H77.474Z" fill="#3D2027"/>
<path d="M125.329 303.396L150.791 460.933H147.297L121.127 303.396H125.329Z" fill="#3D2027"/>
<path d="M587.994 434.327L595.862 316.845H505.289L513.158 434.327H587.994Z" fill="#6D4744"/>
<path d="M595.108 327.896L506.394 333.012L505.758 323.704H595.394L595.108 327.896Z" fill="#3D2027"/>
<path d="M598.295 323.704H502.857C501.2 323.704 499.857 322.36 499.857 320.702V316.415C499.857 314.757 501.2 313.413 502.857 313.413H598.295C599.952 313.413 601.295 314.757 601.295 316.415V320.702C601.295 322.36 599.952 323.704 598.295 323.704Z" fill="#8A5C54"/>
<path d="M585.717 342.605L583.491 381.88H517.663L515.436 342.605H585.717Z" fill="#3D2027"/>
<path d="M553.862 363.863C553.862 365.68 552.391 367.151 550.576 367.151C548.761 367.151 547.291 365.68 547.291 363.863C547.291 362.047 548.761 360.574 550.576 360.574C552.391 360.574 553.862 362.047 553.862 363.863Z" fill="#6D4744"/>
<path d="M582.618 391.079L580.588 426.89H520.564L518.533 391.079H582.618Z" fill="#3D2027"/>
<path d="M553.862 410.286C553.862 412.102 552.391 413.575 550.576 413.575C548.761 413.575 547.291 412.102 547.291 410.286C547.291 408.469 548.761 406.998 550.576 406.998C552.391 406.998 553.862 408.469 553.862 410.286Z" fill="#6D4744"/>
<path d="M540.925 434.328C540.746 434.328 540.568 434.329 540.392 434.331C531.308 434.451 523.517 440.715 521.493 449.379L520.931 451.784H513.896L513.219 434.328H540.925Z" fill="#3D2027"/>
<path d="M560.25 434.328C560.43 434.328 560.607 434.329 560.784 434.331C569.868 434.451 577.658 440.715 579.682 449.379L580.244 451.784H587.25L587.957 434.328H560.25Z" fill="#3D2027"/>
<path d="M554.928 301.819V292.233C554.928 288.719 557.784 285.861 561.294 285.861H569.403C572.914 285.861 575.769 288.719 575.769 292.233V301.819C575.769 305.333 572.914 308.191 569.403 308.191H561.294C557.784 308.191 554.928 305.333 554.928 301.819ZM561.294 289.133C559.586 289.133 558.196 290.524 558.196 292.233V301.819C558.196 303.529 559.586 304.92 561.294 304.92H569.403C571.111 304.92 572.501 303.529 572.501 301.819V292.233C572.501 290.524 571.111 289.133 569.403 289.133H561.294Z" fill="#CE101D"/>
<path d="M562.246 313.619C570.172 314.072 578.098 314.072 586.024 313.619V281.04C578.098 280.489 570.172 280.489 562.246 281.04V313.619Z" fill="#FF4F3F"/>
<path d="M491.362 451.161C491.362 454.69 515.971 457.552 546.328 457.552C576.685 457.552 601.295 454.69 601.295 451.161C601.295 447.631 576.685 444.77 546.328 444.77C515.971 444.77 491.362 447.631 491.362 451.161Z" fill="#E5BF9E"/>
<path d="M634.618 147.244C634.618 163.197 621.698 176.129 605.761 176.129C589.823 176.129 576.902 163.197 576.902 147.244C576.902 131.292 589.823 118.359 605.761 118.359C621.698 118.359 634.618 131.292 634.618 147.244Z" fill="#E5BF9E"/>
<path d="M634.618 143.484C634.618 159.436 621.698 172.369 605.761 172.369C589.823 172.369 576.902 159.436 576.902 143.484C576.902 127.531 589.823 114.599 605.761 114.599C621.698 114.599 634.618 127.531 634.618 143.484Z" fill="#FF4F3F"/>
<path d="M605.76 166.966C592.824 166.966 582.3 156.432 582.3 143.484C582.3 130.536 592.824 120.001 605.76 120.001C618.696 120.001 629.22 130.536 629.22 143.484C629.22 156.432 618.696 166.966 605.76 166.966Z" fill="white"/>
<path d="M629.221 143.484C629.221 144.11 629.196 144.728 629.148 145.339C628.2 133.255 618.07 123.711 605.76 123.711C593.448 123.711 583.321 133.255 582.373 145.339C582.325 144.728 582.3 144.11 582.3 143.484C582.3 130.534 592.823 120.002 605.76 120.002C618.696 120.002 629.221 130.534 629.221 143.484Z" fill="#F1D5B8"/>
<path d="M605.917 144.4C606.009 144.245 606.171 144.135 606.361 144.116L625.56 142.124C625.883 142.091 626.172 142.324 626.205 142.647C626.239 142.97 626.005 143.259 625.682 143.293L606.948 145.236L605.258 159.083C605.219 159.405 604.926 159.634 604.604 159.595C604.282 159.555 604.053 159.263 604.092 158.94L605.839 144.629C605.849 144.546 605.877 144.469 605.917 144.4Z" fill="#270A04"/>
<path d="M606.096 144.146C606.183 144.305 606.194 144.5 606.114 144.673L598.031 162.22C597.895 162.515 597.547 162.645 597.252 162.509C596.958 162.374 596.829 162.025 596.965 161.73L604.852 144.607L593.817 136.089C593.561 135.891 593.513 135.522 593.712 135.265C593.91 135.008 594.278 134.96 594.535 135.158L605.94 143.963C606.006 144.013 606.058 144.076 606.096 144.146Z" fill="#270A04"/>
<path d="M547.629 97.8799H443.058V173.584C443.058 175.958 444.98 177.881 447.351 177.881H543.335C545.706 177.881 547.629 175.958 547.629 173.584V97.8799Z" fill="white"/>
<path d="M547.628 96.0243V105.029H443.149V96.0243C443.149 93.6043 445.109 91.6431 447.527 91.6431H543.251C545.669 91.6431 547.628 93.6043 547.628 96.0243Z" fill="#270A04"/>
<path d="M529.607 97.6906C529.607 98.9825 528.561 100.03 527.27 100.03C525.98 100.03 524.935 98.9825 524.935 97.6906C524.935 96.3996 525.98 95.3525 527.27 95.3525C528.561 95.3525 529.607 96.3996 529.607 97.6906Z" fill="white"/>
<path d="M537.179 97.6906C537.179 98.9825 536.133 100.03 534.844 100.03C533.554 100.03 532.507 98.9825 532.507 97.6906C532.507 96.3996 533.554 95.3525 534.844 95.3525C536.133 95.3525 537.179 96.3996 537.179 97.6906Z" fill="#8A519D"/>
<path d="M544.43 97.6906C544.43 98.9825 543.385 100.03 542.095 100.03C540.804 100.03 539.758 98.9825 539.758 97.6906C539.758 96.3996 540.804 95.3525 542.095 95.3525C543.385 95.3525 544.43 96.3996 544.43 97.6906Z" fill="#C78FE8"/>
<path d="M515.345 120.478H509.663V114.791H515.345V120.478Z" fill="#8A519D"/>
<path d="M515.345 130.612H509.663V124.923H515.345V130.612Z" fill="#C78FE8"/>
<path d="M497.695 138.83C497.695 150.527 488.224 160.005 476.541 160.005C464.855 160.005 455.384 150.527 455.384 138.83C455.384 135.93 455.968 133.165 457.022 130.646L476.541 138.83L475.539 117.682C475.867 117.661 476.203 117.656 476.541 117.656C488.224 117.656 497.695 127.136 497.695 138.83Z" fill="#C78FE8"/>
<path d="M474.525 115.961C468.203 116.254 462.61 119.324 458.93 123.981C457.745 125.478 456.76 127.139 456.011 128.927L475.527 137.111L474.525 115.961Z" fill="#8A519D"/>
<path d="M518.229 125.344L520.872 125.371C519.903 125.371 519.117 126.088 519.117 126.973C519.117 127.858 519.903 128.574 520.872 128.574L518.229 128.547C519.199 128.547 519.985 127.83 519.985 126.945C519.985 126.06 519.199 125.344 518.229 125.344Z" fill="#F0D2FF"/>
<path d="M520.122 115.214L520.872 115.238C519.903 115.238 519.117 115.955 519.117 116.839C519.117 117.724 519.903 118.441 520.872 118.441L520.122 118.417C521.092 118.417 521.877 117.701 521.877 116.816C521.877 115.932 521.092 115.214 520.122 115.214Z" fill="#F0D2FF"/>
<path d="M509.752 158.402C509.752 159.287 510.468 160.004 511.352 160.004L514.573 160.002C515.457 160.002 516.173 159.285 516.173 158.4C516.173 157.516 515.457 156.799 514.573 156.799L511.352 156.801C510.468 156.801 509.752 157.518 509.752 158.402Z" fill="#F0D2FF"/>
<path d="M509.723 151.967C509.723 152.852 510.438 153.569 511.322 153.569L536.74 153.571C537.624 153.571 538.341 152.854 538.341 151.969C538.341 151.085 537.624 150.368 536.74 150.368L511.322 150.366C510.438 150.366 509.723 151.082 509.723 151.967Z" fill="#F0D2FF"/>
<path d="M509.692 145.532C509.692 146.416 510.408 147.133 511.292 147.133L531.035 147.133C531.919 147.133 532.635 146.415 532.635 145.531C532.635 144.647 531.919 143.93 531.035 143.93L511.292 143.93C510.408 143.93 509.692 144.648 509.692 145.532Z" fill="#F0D2FF"/>
<path d="M509.664 139.097C509.664 139.981 510.38 140.699 511.263 140.699L509.619 140.719C510.503 140.719 511.219 140.001 511.219 139.117C511.219 138.232 510.503 137.516 509.619 137.516L511.263 137.496C510.38 137.496 509.664 138.212 509.664 139.097Z" fill="#F0D2FF"/>
<path d="M409.181 123.001H382.797C381.344 123.001 380.167 121.822 380.167 120.368V93.9592C380.167 92.5052 381.344 91.3262 382.797 91.3262H409.181C410.634 91.3262 411.811 92.5052 411.811 93.9592V120.368C411.811 121.822 410.634 123.001 409.181 123.001Z" fill="#8A519D"/>
<path d="M406.101 106.564C406.101 110.514 403.891 112.562 401.247 112.562C399.698 112.562 398.561 111.961 397.983 110.762C397.405 111.9 396.414 112.562 394.843 112.562C392.612 112.562 390.465 110.596 390.465 107.412C390.465 104.227 392.55 102.285 394.843 102.285C395.938 102.285 396.785 102.637 397.384 103.298V102.47H401.351V108.384C401.351 109.253 401.702 109.521 402.156 109.521C402.735 109.521 403.209 108.942 403.209 106.627C403.209 102.884 400.421 100.238 396.165 100.238C391.932 100.238 389.08 103.214 389.08 107.144C389.08 111.197 391.869 114.09 396.082 114.09C397.446 114.09 398.851 113.822 400.255 113.181L401.124 115.725C399.884 116.324 397.921 116.716 396.082 116.716C389.864 116.716 385.878 112.562 385.878 107.144C385.878 101.808 389.864 97.6108 396.165 97.6108C402.115 97.6108 406.101 101.601 406.101 106.564ZM397.467 107.412C397.467 106.172 396.826 105.531 395.98 105.531C395.133 105.531 394.513 106.172 394.513 107.412C394.513 108.673 395.133 109.313 395.98 109.313C396.826 109.313 397.467 108.673 397.467 107.412Z" fill="white"/>
<path d="M409.181 125.895C408.973 125.895 408.799 125.726 408.799 125.518C408.799 125.309 408.963 125.14 409.172 125.14C409.812 125.14 410.424 125.019 411.002 124.779C411.195 124.699 411.415 124.79 411.495 124.983C411.575 125.175 411.484 125.396 411.291 125.476C410.621 125.755 409.911 125.895 409.181 125.895ZM407.144 125.895H405.117C404.909 125.895 404.74 125.726 404.74 125.518C404.74 125.309 404.909 125.14 405.117 125.14H407.144C407.352 125.14 407.521 125.309 407.521 125.518C407.521 125.726 407.352 125.895 407.144 125.895ZM403.09 125.895H401.062C400.854 125.895 400.685 125.726 400.685 125.518C400.685 125.309 400.854 125.14 401.062 125.14H403.09C403.298 125.14 403.467 125.309 403.467 125.518C403.467 125.726 403.298 125.895 403.09 125.895ZM399.035 125.895H397.008C396.8 125.895 396.631 125.726 396.631 125.518C396.631 125.309 396.8 125.14 397.008 125.14H399.035C399.243 125.14 399.413 125.309 399.413 125.518C399.413 125.726 399.243 125.895 399.035 125.895ZM394.981 125.895H392.954C392.746 125.895 392.576 125.726 392.576 125.518C392.576 125.309 392.746 125.14 392.954 125.14H394.981C395.19 125.14 395.359 125.309 395.359 125.518C395.359 125.726 395.19 125.895 394.981 125.895ZM390.927 125.895H388.9C388.692 125.895 388.523 125.726 388.523 125.518C388.523 125.309 388.692 125.14 388.9 125.14H390.927C391.135 125.14 391.304 125.309 391.304 125.518C391.304 125.726 391.135 125.895 390.927 125.895ZM386.872 125.895H384.845C384.637 125.895 384.468 125.726 384.468 125.518C384.468 125.309 384.637 125.14 384.845 125.14H386.872C387.08 125.14 387.249 125.309 387.249 125.518C387.249 125.726 387.08 125.895 386.872 125.895ZM382.818 125.895H382.797C382.064 125.895 381.351 125.753 380.677 125.472C380.485 125.392 380.393 125.171 380.474 124.979C380.554 124.786 380.775 124.694 380.968 124.775C381.548 125.018 382.164 125.14 382.797 125.14C383.005 125.14 383.184 125.309 383.184 125.518C383.184 125.726 383.026 125.895 382.818 125.895ZM412.819 124.383C412.723 124.383 412.626 124.347 412.553 124.273C412.405 124.126 412.406 123.886 412.553 123.738C413.001 123.29 413.349 122.767 413.59 122.185C413.669 121.993 413.889 121.901 414.082 121.981C414.275 122.06 414.367 122.281 414.286 122.474C414.008 123.148 413.604 123.753 413.086 124.273C413.013 124.347 412.916 124.383 412.819 124.383ZM379.151 124.376C379.054 124.376 378.957 124.339 378.884 124.265C378.367 123.745 377.964 123.139 377.687 122.464C377.607 122.271 377.699 122.051 377.892 121.971C378.085 121.892 378.305 121.985 378.385 122.177C378.624 122.76 378.973 123.283 379.419 123.732C379.566 123.88 379.565 124.119 379.417 124.266C379.344 124.339 379.247 124.376 379.151 124.376ZM414.326 120.729C414.118 120.729 413.949 120.56 413.949 120.352V118.323C413.949 118.115 414.118 117.945 414.326 117.945C414.534 117.945 414.703 118.115 414.703 118.323V120.352C414.703 120.56 414.534 120.729 414.326 120.729ZM377.652 120.72C377.444 120.72 377.274 120.55 377.274 120.342V118.313C377.274 118.105 377.444 117.936 377.652 117.936C377.86 117.936 378.029 118.105 378.029 118.313V120.342C378.029 120.55 377.86 120.72 377.652 120.72ZM414.326 116.672C414.118 116.672 413.949 116.502 413.949 116.294V114.264C413.949 114.056 414.118 113.888 414.326 113.888C414.534 113.888 414.703 114.056 414.703 114.264V116.294C414.703 116.502 414.534 116.672 414.326 116.672ZM377.652 116.661C377.444 116.661 377.274 116.492 377.274 116.284V114.255C377.274 114.047 377.444 113.877 377.652 113.877C377.86 113.877 378.029 114.047 378.029 114.255V116.284C378.029 116.492 377.86 116.661 377.652 116.661ZM414.326 112.613C414.118 112.613 413.949 112.444 413.949 112.236V110.207C413.949 109.998 414.118 109.829 414.326 109.829C414.534 109.829 414.703 109.998 414.703 110.207V112.236C414.703 112.444 414.534 112.613 414.326 112.613ZM377.652 112.604C377.444 112.604 377.274 112.434 377.274 112.226V110.197C377.274 109.989 377.444 109.82 377.652 109.82C377.86 109.82 378.029 109.989 378.029 110.197V112.226C378.029 112.434 377.86 112.604 377.652 112.604ZM414.326 108.555C414.118 108.555 413.949 108.385 413.949 108.177V106.148C413.949 105.94 414.118 105.771 414.326 105.771C414.534 105.771 414.703 105.94 414.703 106.148V108.177C414.703 108.385 414.534 108.555 414.326 108.555ZM377.652 108.545C377.444 108.545 377.274 108.376 377.274 108.168V106.139C377.274 105.93 377.444 105.761 377.652 105.761C377.86 105.761 378.029 105.93 378.029 106.139V108.168C378.029 108.376 377.86 108.545 377.652 108.545ZM414.326 104.497C414.118 104.497 413.949 104.328 413.949 104.119V102.091C413.949 101.882 414.118 101.713 414.326 101.713C414.534 101.713 414.703 101.882 414.703 102.091V104.119C414.703 104.328 414.534 104.497 414.326 104.497ZM377.652 104.487C377.444 104.487 377.274 104.318 377.274 104.11V102.08C377.274 101.872 377.444 101.703 377.652 101.703C377.86 101.703 378.029 101.872 378.029 102.08V104.11C378.029 104.318 377.86 104.487 377.652 104.487ZM414.326 100.439C414.118 100.439 413.949 100.269 413.949 100.061V98.0321C413.949 97.8238 414.118 97.6544 414.326 97.6544C414.534 97.6544 414.703 97.8238 414.703 98.0321V100.061C414.703 100.269 414.534 100.439 414.326 100.439ZM377.652 100.429C377.444 100.429 377.274 100.26 377.274 100.051V98.0225C377.274 97.8142 377.444 97.6449 377.652 97.6449C377.86 97.6449 378.029 97.8142 378.029 98.0225V100.051C378.029 100.26 377.86 100.429 377.652 100.429ZM414.326 96.3808C414.118 96.3808 413.949 96.2115 413.949 96.0032V93.9736C413.949 93.7653 414.118 93.5967 414.326 93.5967C414.534 93.5967 414.703 93.7653 414.703 93.9736V96.0032C414.703 96.2115 414.534 96.3808 414.326 96.3808ZM377.652 96.3705C377.444 96.3705 377.274 96.2012 377.274 95.9929V93.964C377.274 93.7557 377.444 93.5864 377.652 93.5864C377.86 93.5864 378.029 93.7557 378.029 93.964V95.9929C378.029 96.2012 377.86 96.3705 377.652 96.3705ZM413.939 92.374C413.791 92.374 413.65 92.2866 413.59 92.1411C413.349 91.5584 413 91.0361 412.552 90.5877C412.405 90.4398 412.405 90.2005 412.553 90.0534C412.7 89.9064 412.939 89.9064 413.086 90.0542C413.604 90.5726 414.008 91.1776 414.286 91.8517C414.366 92.0441 414.275 92.2659 414.082 92.3454C414.035 92.3653 413.986 92.374 413.939 92.374ZM378.043 92.3653C377.995 92.3653 377.946 92.3558 377.899 92.3359C377.706 92.2556 377.615 92.0346 377.695 91.8422C377.975 91.168 378.381 90.5638 378.9 90.0463C379.048 89.8992 379.286 89.8992 379.433 90.0471C379.58 90.1949 379.58 90.4342 379.432 90.5813C378.984 91.0289 378.634 91.5504 378.392 92.1324C378.332 92.2771 378.191 92.3653 378.043 92.3653ZM411.145 89.5772C411.098 89.5772 411.048 89.5677 411.001 89.5478C410.423 89.3077 409.811 89.1869 409.181 89.1869C408.973 89.1869 408.798 89.0176 408.798 88.8093C408.798 88.601 408.963 88.4316 409.171 88.4316H409.181C409.911 88.4316 410.621 88.5724 411.291 88.8506C411.484 88.9301 411.575 89.1519 411.495 89.3443C411.434 89.4898 411.294 89.5772 411.145 89.5772ZM380.841 89.5733C380.693 89.5733 380.552 89.485 380.493 89.3395C380.413 89.1471 380.505 88.9261 380.698 88.8466C381.365 88.5716 382.071 88.4316 382.797 88.4316C383.005 88.4316 383.184 88.601 383.184 88.8093C383.184 89.0176 383.026 89.1869 382.817 89.1869C382.17 89.1869 381.56 89.3069 380.985 89.5446C380.938 89.5637 380.889 89.5733 380.841 89.5733ZM407.143 89.1869H405.116C404.908 89.1869 404.739 89.0176 404.739 88.8093C404.739 88.601 404.908 88.4316 405.116 88.4316H407.143C407.351 88.4316 407.52 88.601 407.52 88.8093C407.52 89.0176 407.351 89.1869 407.143 89.1869ZM403.089 89.1869H401.061C400.853 89.1869 400.685 89.0176 400.685 88.8093C400.685 88.601 400.853 88.4316 401.061 88.4316H403.089C403.297 88.4316 403.466 88.601 403.466 88.8093C403.466 89.0176 403.297 89.1869 403.089 89.1869ZM399.034 89.1869H397.008C396.799 89.1869 396.63 89.0176 396.63 88.8093C396.63 88.601 396.799 88.4316 397.008 88.4316H399.034C399.243 88.4316 399.412 88.601 399.412 88.8093C399.412 89.0176 399.243 89.1869 399.034 89.1869ZM394.981 89.1869H392.953C392.745 89.1869 392.576 89.0176 392.576 88.8093C392.576 88.601 392.745 88.4316 392.953 88.4316H394.981C395.189 88.4316 395.358 88.601 395.358 88.8093C395.358 89.0176 395.189 89.1869 394.981 89.1869ZM390.926 89.1869H388.899C388.691 89.1869 388.522 89.0176 388.522 88.8093C388.522 88.601 388.691 88.4316 388.899 88.4316H390.926C391.134 88.4316 391.303 88.601 391.303 88.8093C391.303 89.0176 391.134 89.1869 390.926 89.1869ZM386.871 89.1869H384.844C384.636 89.1869 384.467 89.0176 384.467 88.8093C384.467 88.601 384.636 88.4316 384.844 88.4316H386.871C387.079 88.4316 387.249 88.601 387.249 88.8093C387.249 89.0176 387.079 89.1869 386.871 89.1869Z" fill="#8A519D"/>
<path d="M318.583 95.957L308.602 95.992C307.466 95.996 306.547 96.9222 306.551 98.0598L306.643 124.835C306.648 126.602 308.086 128.031 309.852 128.024L344.851 127.902C345.919 127.899 346.783 127.029 346.779 125.96L346.693 101.023C346.69 100.097 345.937 99.3485 345.012 99.3517L324.596 99.4224L318.583 95.957Z" fill="#4E1E61"/>
<path d="M346.778 125.959L346.719 108.641L306.587 108.78L306.647 126.099C306.651 127.168 307.52 128.032 308.588 128.028L344.851 127.902C345.919 127.898 346.782 127.029 346.778 125.959Z" fill="#8A519D"/>
<path d="M308.811 106.333L308.819 108.772L344.364 108.649L344.356 106.211C344.351 104.785 343.191 103.632 341.766 103.637L311.382 103.742C309.957 103.746 308.806 104.907 308.811 106.333Z" fill="white"/>
<path d="M341.344 106.244L341.352 108.66L339.793 108.665L339.784 106.249C339.783 105.82 340.133 105.468 340.562 105.467C340.991 105.465 341.342 105.815 341.344 106.244Z" fill="#F0D2FF"/>
<path d="M337.826 106.256L337.834 108.672L336.275 108.678L336.267 106.262C336.265 105.832 336.614 105.48 337.043 105.479C337.472 105.477 337.824 105.827 337.826 106.256Z" fill="#F0D2FF"/>
<path d="M334.307 106.268L334.315 108.684L332.756 108.69L332.748 106.274C332.746 105.844 333.096 105.492 333.525 105.491C333.954 105.489 334.306 105.839 334.307 106.268Z" fill="#F0D2FF"/>
<path d="M330.789 106.281L330.797 108.696L329.238 108.702L329.229 106.286C329.228 105.856 329.577 105.504 330.006 105.502C330.435 105.501 330.787 105.851 330.789 106.281Z" fill="#F0D2FF"/>
<path d="M327.271 106.293L327.28 108.709L325.72 108.713L325.712 106.298C325.71 105.869 326.06 105.517 326.489 105.515C326.918 105.514 327.269 105.863 327.271 106.293Z" fill="#F0D2FF"/>
<path d="M323.752 106.305L323.761 108.721L322.202 108.726L322.193 106.31C322.192 105.881 322.542 105.529 322.971 105.527C323.4 105.526 323.751 105.876 323.752 106.305Z" fill="#F0D2FF"/>
<path d="M320.235 106.318L320.244 108.733L318.684 108.738L318.676 106.323C318.674 105.894 319.024 105.542 319.453 105.54C319.881 105.538 320.233 105.888 320.235 106.318Z" fill="#F0D2FF"/>
<path d="M316.717 106.329L316.725 108.744L315.166 108.75L315.157 106.335C315.156 105.906 315.506 105.553 315.935 105.552C316.364 105.55 316.716 105.9 316.717 106.329Z" fill="#F0D2FF"/>
<path d="M313.199 106.341L313.208 108.757L311.648 108.763L311.64 106.347C311.638 105.918 311.988 105.566 312.416 105.564C312.845 105.562 313.197 105.912 313.199 106.341Z" fill="#F0D2FF"/>
<path d="M354.101 99.235C354.101 104.234 350.052 108.287 345.058 108.287C340.064 108.287 336.015 104.234 336.015 99.235C336.015 94.236 340.064 90.1831 345.058 90.1831C350.052 90.1831 354.101 94.236 354.101 99.235Z" fill="#C78FE8"/>
<path d="M343.204 103.536C342.972 103.536 342.748 103.443 342.584 103.278L340.368 101.06C340.026 100.717 340.026 100.161 340.368 99.8183C340.71 99.4756 341.266 99.4756 341.609 99.8183L343.204 101.416L349.423 95.1906C349.766 94.8479 350.322 94.8479 350.664 95.1906C351.006 95.5332 351.006 96.0897 350.664 96.4324L343.825 103.278C343.66 103.443 343.437 103.536 343.204 103.536Z" fill="white"/>
<path d="M471.359 203.639V276.764C471.359 280.696 474.544 283.884 478.471 283.884H536.329C540.257 283.884 543.441 280.696 543.441 276.764V203.639H471.359Z" fill="white"/>
<path d="M543.441 200.941V210.81H471.359V200.941C471.359 198.976 472.951 197.383 474.914 197.383H539.885C541.848 197.383 543.441 198.976 543.441 200.941Z" fill="#270A04"/>
<path d="M525.986 203.449C525.986 204.745 524.937 205.795 523.643 205.795C522.349 205.795 521.299 204.745 521.299 203.449C521.299 202.154 522.349 201.104 523.643 201.104C524.937 201.104 525.986 202.154 525.986 203.449Z" fill="white"/>
<path d="M533.581 203.449C533.581 204.745 532.533 205.795 531.238 205.795C529.944 205.795 528.895 204.745 528.895 203.449C528.895 202.154 529.944 201.104 531.238 201.104C532.533 201.104 533.581 202.154 533.581 203.449Z" fill="#8A519D"/>
<path d="M540.855 203.449C540.855 204.745 539.806 205.795 538.511 205.795C537.217 205.795 536.168 204.745 536.168 203.449C536.168 202.154 537.217 201.104 538.511 201.104C539.806 201.104 540.855 202.154 540.855 203.449Z" fill="#C78FE8"/>
<path d="M495.632 275.019H488.624L488.641 274.955H495.649L495.632 275.019Z" fill="#C78FE8"/>
<path d="M505.969 275.018H498.961L498.969 254.047H505.977L505.969 275.018Z" fill="#8A519D"/>
<path d="M517.416 275.019H510.408L510.397 246.382H517.406L517.416 275.019Z" fill="#4E1E61"/>
<path d="M528.63 275.018H521.621L521.673 275.199H528.681L528.63 275.018Z" fill="#8A519D"/>
<path d="M515.711 219.296L520.57 221.08L520.01 215.388L515.711 219.296Z" fill="#C78FE8"/>
<path d="M486.697 249.837C486.484 249.837 486.284 249.707 486.205 249.495C486.104 249.223 486.242 248.92 486.513 248.819C486.725 248.74 507.814 240.651 518.102 218.91C518.226 218.647 518.539 218.534 518.803 218.659C519.065 218.784 519.177 219.098 519.052 219.36C508.576 241.498 487.096 249.724 486.881 249.805C486.821 249.827 486.758 249.837 486.697 249.837Z" fill="#C78FE8"/>
<path d="M307.205 182.036H281.938C280.312 182.036 278.994 180.717 278.994 179.09V153.799C278.994 152.171 280.312 150.853 281.938 150.853H307.205C308.831 150.853 310.149 152.171 310.149 153.799V179.09C310.149 180.717 308.831 182.036 307.205 182.036Z" fill="#C78FE8"/>
<path d="M303.385 160.025C303.334 159.809 303.283 159.594 303.23 159.379C303.042 158.622 302.682 157.955 302.172 157.364C301.806 156.941 301.383 156.582 300.906 156.307C300.246 155.928 299.5 156.089 299.014 156.677C298.145 157.726 297.281 158.778 296.424 159.836C295.897 160.487 295.984 161.375 296.636 161.954C297.103 162.368 297.596 162.753 298.079 163.149C298.141 163.2 298.214 163.238 298.267 163.273C297.115 166.374 295.162 168.768 292.358 170.493C292.018 170.21 291.662 169.913 291.305 169.617C291.123 169.466 290.942 169.313 290.753 169.169C290.19 168.737 289.537 168.693 288.951 169.077C288.766 169.197 288.613 169.378 288.47 169.55C287.685 170.499 286.912 171.457 286.125 172.404C285.876 172.704 285.718 173.036 285.663 173.42C285.677 173.56 285.692 173.701 285.705 173.842C285.842 174.08 285.936 174.36 286.123 174.547C286.583 175.005 287.089 175.414 287.691 175.686C288.396 176.004 289.134 176.199 289.906 176.131C290.415 176.087 290.924 175.979 291.417 175.841C292.687 175.487 293.842 174.881 294.93 174.146C296.007 173.419 296.987 172.574 297.889 171.638C299.106 170.375 300.185 168.999 301.164 167.544C301.936 166.397 302.602 165.197 303.034 163.876C303.252 163.212 303.398 162.533 303.444 161.834C303.462 161.553 303.469 161.271 303.48 160.99C303.449 160.668 303.417 160.347 303.385 160.025Z" fill="white"/>
<path d="M307.205 186.095H305.982C305.702 186.095 305.475 185.867 305.475 185.587C305.475 185.307 305.702 185.08 305.982 185.08H307.205C307.373 185.08 307.543 185.072 307.709 185.059C307.988 185.037 308.233 185.243 308.257 185.522C308.28 185.801 308.072 186.046 307.794 186.07C307.599 186.086 307.401 186.095 307.205 186.095ZM303.454 186.095H301.684C301.405 186.095 301.178 185.867 301.178 185.587C301.178 185.307 301.405 185.08 301.684 185.08H303.454C303.733 185.08 303.961 185.307 303.961 185.587C303.961 185.867 303.733 186.095 303.454 186.095ZM299.156 186.095H297.387C297.107 186.095 296.88 185.867 296.88 185.587C296.88 185.307 297.107 185.08 297.387 185.08H299.156C299.436 185.08 299.663 185.307 299.663 185.587C299.663 185.867 299.436 186.095 299.156 186.095ZM294.858 186.095H293.088C292.808 186.095 292.581 185.867 292.581 185.587C292.581 185.307 292.808 185.08 293.088 185.08H294.858C295.138 185.08 295.365 185.307 295.365 185.587C295.365 185.867 295.138 186.095 294.858 186.095ZM290.56 186.095H288.79C288.511 186.095 288.284 185.867 288.284 185.587C288.284 185.307 288.511 185.08 288.79 185.08H290.56C290.84 185.08 291.067 185.307 291.067 185.587C291.067 185.867 290.84 186.095 290.56 186.095ZM286.262 186.095H284.493C284.213 186.095 283.986 185.867 283.986 185.587C283.986 185.307 284.213 185.08 284.493 185.08H286.262C286.542 185.08 286.769 185.307 286.769 185.587C286.769 185.867 286.542 186.095 286.262 186.095ZM281.964 186.095H281.938C281.299 186.095 280.665 186.007 280.054 185.836C279.784 185.761 279.627 185.482 279.703 185.212C279.778 184.942 280.057 184.784 280.327 184.859C280.849 185.006 281.391 185.08 281.938 185.08H281.964C282.243 185.08 282.471 185.307 282.471 185.587C282.471 185.867 282.243 186.095 281.964 186.095ZM310.165 185.378C309.981 185.378 309.805 185.278 309.715 185.103C309.587 184.855 309.685 184.548 309.933 184.42C310.417 184.172 310.865 183.857 311.265 183.486C311.47 183.296 311.791 183.308 311.982 183.514C312.172 183.72 312.159 184.04 311.954 184.23C311.486 184.664 310.963 185.031 310.397 185.322C310.323 185.36 310.243 185.378 310.165 185.378ZM277.949 184.72C277.84 184.72 277.73 184.685 277.638 184.613C277.136 184.22 276.689 183.761 276.311 183.25C276.145 183.025 276.192 182.706 276.417 182.54C276.642 182.373 276.959 182.422 277.126 182.647C277.449 183.085 277.832 183.477 278.262 183.813C278.483 183.986 278.522 184.304 278.349 184.525C278.249 184.653 278.099 184.72 277.949 184.72ZM313.091 182.335C313.02 182.335 312.946 182.32 312.877 182.288C312.623 182.169 312.514 181.867 312.632 181.613C312.863 181.12 313.023 180.597 313.111 180.059C313.156 179.782 313.415 179.595 313.693 179.64C313.97 179.685 314.157 179.945 314.112 180.222C314.009 180.852 313.82 181.465 313.55 182.043C313.465 182.227 313.282 182.335 313.091 182.335ZM275.642 181.184C275.415 181.184 275.209 181.031 275.151 180.801C275.011 180.244 274.939 179.669 274.939 179.09V178.922C274.939 178.642 275.167 178.414 275.447 178.414C275.727 178.414 275.954 178.642 275.954 178.922V179.09C275.954 179.585 276.014 180.077 276.134 180.553C276.202 180.824 276.037 181.1 275.766 181.168C275.725 181.178 275.683 181.184 275.642 181.184ZM313.696 178.123C313.417 178.123 313.19 177.894 313.19 177.615V175.843C313.19 175.563 313.417 175.336 313.696 175.336C313.976 175.336 314.203 175.563 314.203 175.843V177.615C314.203 177.894 313.976 178.123 313.696 178.123ZM275.447 176.898C275.167 176.898 274.939 176.671 274.939 176.391V174.62C274.939 174.34 275.167 174.113 275.447 174.113C275.727 174.113 275.954 174.34 275.954 174.62V176.391C275.954 176.671 275.727 176.898 275.447 176.898ZM313.696 173.82C313.417 173.82 313.19 173.593 313.19 173.313V171.542C313.19 171.262 313.417 171.034 313.696 171.034C313.976 171.034 314.203 171.262 314.203 171.542V173.313C314.203 173.593 313.976 173.82 313.696 173.82ZM275.447 172.596C275.167 172.596 274.939 172.369 274.939 172.089V170.318C274.939 170.038 275.167 169.811 275.447 169.811C275.727 169.811 275.954 170.038 275.954 170.318V172.089C275.954 172.369 275.727 172.596 275.447 172.596ZM313.696 169.518C313.417 169.518 313.19 169.291 313.19 169.011V167.24C313.19 166.96 313.417 166.732 313.696 166.732C313.976 166.732 314.203 166.96 314.203 167.24V169.011C314.203 169.291 313.976 169.518 313.696 169.518ZM275.447 168.295C275.167 168.295 274.939 168.067 274.939 167.788V166.015C274.939 165.736 275.167 165.508 275.447 165.508C275.727 165.508 275.954 165.736 275.954 166.015V167.788C275.954 168.067 275.727 168.295 275.447 168.295ZM313.696 165.216C313.417 165.216 313.19 164.988 313.19 164.708V162.937C313.19 162.657 313.417 162.43 313.696 162.43C313.976 162.43 314.203 162.657 314.203 162.937V164.708C314.203 164.988 313.976 165.216 313.696 165.216ZM275.447 163.992C275.167 163.992 274.939 163.765 274.939 163.485V161.714C274.939 161.434 275.167 161.207 275.447 161.207C275.727 161.207 275.954 161.434 275.954 161.714V163.485C275.954 163.765 275.727 163.992 275.447 163.992ZM313.696 160.914C313.417 160.914 313.19 160.687 313.19 160.407V158.635C313.19 158.356 313.417 158.128 313.696 158.128C313.976 158.128 314.203 158.356 314.203 158.635V160.407C314.203 160.687 313.976 160.914 313.696 160.914ZM275.447 159.69C275.167 159.69 274.939 159.463 274.939 159.183V157.411C274.939 157.131 275.167 156.905 275.447 156.905C275.727 156.905 275.954 157.131 275.954 157.411V159.183C275.954 159.463 275.727 159.69 275.447 159.69ZM313.696 156.611C313.417 156.611 313.19 156.385 313.19 156.105V154.333C313.19 154.053 313.417 153.826 313.696 153.826C313.976 153.826 314.203 154.053 314.203 154.333V156.105C314.203 156.385 313.976 156.611 313.696 156.611ZM275.447 155.388C275.167 155.388 274.939 155.161 274.939 154.881V153.799C274.939 153.551 274.953 153.301 274.978 153.058C275.008 152.779 275.257 152.577 275.536 152.607C275.815 152.636 276.016 152.886 275.987 153.165C275.965 153.373 275.954 153.586 275.954 153.799V154.881C275.954 155.161 275.727 155.388 275.447 155.388ZM313.393 152.342C313.178 152.342 312.978 152.205 312.91 151.988C312.746 151.47 312.511 150.976 312.211 150.519C312.057 150.286 312.123 149.972 312.357 149.817C312.591 149.663 312.904 149.729 313.058 149.963C313.408 150.496 313.684 151.074 313.876 151.681C313.961 151.948 313.813 152.233 313.546 152.318C313.496 152.334 313.444 152.342 313.393 152.342ZM276.227 151.218C276.145 151.218 276.063 151.197 275.986 151.156C275.74 151.023 275.649 150.715 275.782 150.468C276.086 149.909 276.464 149.393 276.907 148.934C277.102 148.732 277.421 148.727 277.623 148.922C277.824 149.117 277.83 149.438 277.635 149.639C277.256 150.032 276.933 150.474 276.673 150.953C276.581 151.122 276.407 151.218 276.227 151.218ZM310.877 148.952C310.778 148.952 310.678 148.922 310.59 148.862C310.141 148.552 309.652 148.306 309.138 148.13C308.874 148.039 308.732 147.75 308.823 147.485C308.914 147.219 309.201 147.078 309.466 147.169C310.068 147.375 310.639 147.664 311.165 148.026C311.396 148.185 311.454 148.501 311.295 148.731C311.197 148.874 311.038 148.952 310.877 148.952ZM279.332 148.355C279.137 148.355 278.951 148.242 278.868 148.052C278.755 147.796 278.872 147.497 279.128 147.384C279.711 147.127 280.326 146.952 280.957 146.863C281.234 146.825 281.49 147.017 281.529 147.294C281.568 147.571 281.376 147.828 281.099 147.867C280.56 147.943 280.034 148.093 279.536 148.312C279.47 148.342 279.4 148.355 279.332 148.355ZM306.813 147.808H305.042C304.763 147.808 304.536 147.581 304.536 147.301C304.536 147.021 304.763 146.794 305.042 146.794H306.813C307.092 146.794 307.319 147.021 307.319 147.301C307.319 147.581 307.092 147.808 306.813 147.808ZM302.515 147.808H300.745C300.465 147.808 300.238 147.581 300.238 147.301C300.238 147.021 300.465 146.794 300.745 146.794H302.515C302.795 146.794 303.021 147.021 303.021 147.301C303.021 147.581 302.795 147.808 302.515 147.808ZM298.217 147.808H296.447C296.167 147.808 295.94 147.581 295.94 147.301C295.94 147.021 296.167 146.794 296.447 146.794H298.217C298.496 146.794 298.723 147.021 298.723 147.301C298.723 147.581 298.496 147.808 298.217 147.808ZM293.919 147.808H292.149C291.87 147.808 291.642 147.581 291.642 147.301C291.642 147.021 291.87 146.794 292.149 146.794H293.919C294.198 146.794 294.426 147.021 294.426 147.301C294.426 147.581 294.198 147.808 293.919 147.808ZM289.62 147.808H287.851C287.571 147.808 287.344 147.581 287.344 147.301C287.344 147.021 287.571 146.794 287.851 146.794H289.62C289.9 146.794 290.127 147.021 290.127 147.301C290.127 147.581 289.9 147.808 289.62 147.808ZM285.323 147.808H283.553C283.274 147.808 283.046 147.581 283.046 147.301C283.046 147.021 283.274 146.794 283.553 146.794H285.323C285.602 146.794 285.829 147.021 285.829 147.301C285.829 147.581 285.602 147.808 285.323 147.808Z" fill="#C78FE8"/>
<path d="M282.419 248.791C282.26 248.791 282.101 248.775 281.947 248.745C281.714 248.7 281.563 248.475 281.608 248.242C281.653 248.009 281.879 247.857 282.111 247.902C282.211 247.922 282.315 247.932 282.418 247.932L283.524 247.93H283.525C283.762 247.93 283.953 248.122 283.954 248.359C283.955 248.596 283.763 248.79 283.526 248.79L282.419 248.791ZM285.666 248.786C285.43 248.786 285.238 248.594 285.238 248.357C285.237 248.119 285.429 247.928 285.666 247.927L287.164 247.925H287.165C287.402 247.925 287.594 248.117 287.595 248.354C287.596 248.592 287.403 248.784 287.166 248.784L285.667 248.786H285.666ZM289.306 248.781C289.07 248.781 288.878 248.588 288.878 248.352C288.877 248.114 289.069 247.921 289.306 247.921L290.805 247.92C291.042 247.92 291.234 248.111 291.235 248.348C291.236 248.586 291.043 248.778 290.806 248.778L289.307 248.781H289.306ZM292.947 248.775C292.71 248.775 292.518 248.584 292.518 248.347C292.517 248.109 292.71 247.917 292.947 247.917L294.445 247.914H294.446C294.683 247.914 294.874 248.107 294.875 248.344C294.876 248.581 294.683 248.774 294.446 248.774L292.947 248.775H292.947ZM296.587 248.77C296.351 248.77 296.158 248.578 296.158 248.341C296.157 248.104 296.349 247.911 296.587 247.911L298.085 247.909H298.086C298.323 247.909 298.514 248.101 298.515 248.338C298.516 248.576 298.324 248.768 298.087 248.768L296.587 248.77ZM300.227 248.765C299.991 248.765 299.799 248.573 299.798 248.336C299.797 248.099 299.99 247.906 300.227 247.906L301.725 247.904H301.726C301.963 247.904 302.154 248.096 302.155 248.332C302.156 248.57 301.964 248.763 301.727 248.763L300.227 248.765ZM303.867 248.76C303.631 248.76 303.439 248.568 303.439 248.331C303.438 248.093 303.629 247.901 303.867 247.901L305.365 247.898H305.366C305.603 247.898 305.795 248.091 305.796 248.328C305.797 248.565 305.604 248.758 305.367 248.758L303.868 248.76H303.867ZM307.508 248.755C307.271 248.755 307.079 248.563 307.079 248.326C307.078 248.088 307.269 247.895 307.507 247.895L309.005 247.894H309.006C309.243 247.894 309.435 248.085 309.436 248.322C309.437 248.56 309.244 248.752 309.007 248.752L307.508 248.755H307.508ZM311.148 248.75C310.911 248.75 310.719 248.557 310.719 248.321C310.718 248.083 310.91 247.89 311.148 247.89L312.646 247.888H312.647C312.884 247.888 313.075 248.08 313.076 248.317C313.077 248.555 312.885 248.747 312.647 248.747L311.148 248.75H311.148ZM314.788 248.744C314.552 248.744 314.36 248.552 314.359 248.315C314.358 248.077 314.551 247.885 314.788 247.885L316.286 247.882H316.287C316.524 247.882 316.715 248.075 316.716 248.312C316.717 248.549 316.524 248.741 316.287 248.742L314.788 248.744ZM318.428 248.739C318.192 248.739 318 248.547 317.999 248.31C317.998 248.072 318.19 247.881 318.428 247.88L319.926 247.878H319.927C320.164 247.878 320.355 248.069 320.356 248.306C320.357 248.543 320.165 248.736 319.928 248.737L318.428 248.739ZM322.069 248.734C321.832 248.734 321.64 248.542 321.639 248.305C321.638 248.067 321.831 247.875 322.068 247.875L323.566 247.872H323.567C323.804 247.872 323.995 248.065 323.996 248.301C323.997 248.538 323.805 248.731 323.568 248.732L322.069 248.734H322.069ZM325.709 248.728C325.472 248.728 325.28 248.537 325.28 248.3C325.279 248.063 325.47 247.87 325.708 247.869L327.207 247.867C327.444 247.867 327.636 248.059 327.637 248.296C327.638 248.533 327.445 248.726 327.208 248.727L325.709 248.728H325.709ZM329.135 248.008C329.037 248.008 328.939 247.975 328.858 247.907C328.677 247.754 328.654 247.483 328.807 247.301C329.048 247.015 329.182 246.65 329.182 246.273L329.181 246.193C329.18 245.955 329.372 245.763 329.609 245.762C329.61 245.762 329.61 245.762 329.611 245.762C329.847 245.762 330.039 245.954 330.04 246.191V246.272C330.04 246.852 329.835 247.414 329.463 247.855C329.378 247.956 329.257 248.008 329.135 248.008ZM280.497 247.402C280.317 247.402 280.149 247.287 280.089 247.106C280.009 246.86 279.968 246.604 279.968 246.344L279.967 245.482C279.966 245.245 280.158 245.053 280.395 245.052H280.396C280.632 245.052 280.824 245.245 280.825 245.482L280.826 246.343C280.826 246.513 280.852 246.679 280.905 246.838C280.979 247.063 280.856 247.306 280.631 247.38C280.586 247.394 280.542 247.402 280.497 247.402ZM329.608 244.478C329.371 244.478 329.179 244.286 329.179 244.049L329.176 242.549C329.175 242.312 329.367 242.119 329.604 242.119H329.605C329.842 242.119 330.034 242.31 330.035 242.547L330.036 244.048C330.037 244.285 329.845 244.477 329.608 244.478H329.608ZM280.393 243.768C280.156 243.768 279.965 243.576 279.964 243.339L279.961 241.839C279.961 241.601 280.154 241.409 280.39 241.409H280.391C280.628 241.409 280.819 241.601 280.82 241.838L280.822 243.338C280.822 243.575 280.631 243.768 280.393 243.768H280.393ZM329.602 240.835C329.365 240.835 329.174 240.642 329.173 240.406L329.171 238.905C329.17 238.668 329.362 238.475 329.6 238.475H329.6C329.837 238.475 330.028 238.667 330.029 238.904L330.032 240.404C330.032 240.641 329.839 240.834 329.603 240.835H329.602ZM280.387 240.125C280.15 240.125 279.959 239.932 279.958 239.696L279.957 238.195C279.956 237.958 280.148 237.766 280.385 237.765H280.385C280.622 237.765 280.814 237.958 280.814 238.195L280.817 239.695C280.818 239.932 280.625 240.125 280.388 240.125H280.387ZM329.597 237.191C329.361 237.191 329.168 236.999 329.168 236.762L329.166 235.262C329.165 235.025 329.357 234.832 329.594 234.832H329.595C329.832 234.832 330.023 235.023 330.024 235.26L330.026 236.76C330.027 236.997 329.835 237.191 329.598 237.191H329.597ZM280.382 236.481C280.146 236.481 279.953 236.289 279.953 236.052L279.951 234.552C279.95 234.315 280.142 234.123 280.379 234.122H280.38C280.617 234.122 280.809 234.313 280.81 234.55L280.811 236.051C280.812 236.288 280.621 236.481 280.383 236.481H280.382ZM329.592 233.547C329.355 233.547 329.164 233.355 329.163 233.119L329.16 231.618C329.16 231.381 329.352 231.187 329.589 231.187C329.826 231.187 330.018 231.38 330.019 231.617L330.021 233.117C330.022 233.354 329.829 233.546 329.592 233.547H329.592ZM280.377 232.838C280.14 232.838 279.949 232.646 279.948 232.409L279.945 230.908C279.945 230.671 280.137 230.478 280.374 230.478H280.375C280.612 230.478 280.803 230.67 280.804 230.907L280.806 232.407C280.807 232.644 280.615 232.837 280.378 232.838H280.377ZM329.586 229.904C329.349 229.904 329.158 229.712 329.157 229.475L329.155 227.974C329.154 227.737 329.346 227.544 329.584 227.544H329.585C329.821 227.544 330.013 227.736 330.013 227.973L330.016 229.473C330.017 229.71 329.824 229.903 329.587 229.904H329.586ZM280.372 229.194C280.135 229.194 279.943 229.002 279.942 228.765L279.941 227.265C279.94 227.028 280.131 226.834 280.369 226.834H280.37C280.606 226.834 280.798 227.026 280.798 227.263L280.801 228.764C280.802 229.001 280.609 229.194 280.372 229.194ZM329.581 226.26C329.345 226.26 329.152 226.068 329.152 225.831L329.15 224.331C329.149 224.094 329.341 223.901 329.578 223.901H329.579C329.816 223.901 330.008 224.093 330.009 224.33L330.01 225.83C330.011 226.067 329.819 226.26 329.582 226.26H329.581ZM280.366 225.55C280.13 225.55 279.938 225.359 279.938 225.122L279.935 223.621C279.934 223.384 280.127 223.191 280.364 223.191C280.601 223.191 280.793 223.383 280.794 223.62L280.796 225.12C280.797 225.357 280.605 225.549 280.367 225.55H280.366ZM329.576 222.617C329.339 222.617 329.148 222.424 329.147 222.187L329.144 220.687C329.144 220.45 329.336 220.257 329.573 220.257H329.574C329.811 220.257 330.002 220.449 330.003 220.686L330.005 222.186C330.006 222.423 329.813 222.617 329.577 222.617H329.576ZM280.362 221.907C280.125 221.907 279.933 221.714 279.932 221.477L279.93 219.977C279.929 219.74 280.122 219.547 280.358 219.547H280.359C280.596 219.547 280.787 219.739 280.788 219.976L280.791 221.477C280.791 221.713 280.598 221.906 280.362 221.907ZM329.571 218.973C329.334 218.973 329.142 218.781 329.141 218.544L329.14 217.044C329.139 216.807 329.331 216.614 329.568 216.614H329.569C329.805 216.614 329.997 216.805 329.998 217.042L330 218.542C330.001 218.779 329.808 218.972 329.571 218.973ZM280.356 218.263C280.119 218.263 279.928 218.071 279.927 217.834L279.925 216.334C279.924 216.097 280.116 215.904 280.353 215.904H280.354C280.59 215.904 280.783 216.096 280.783 216.333L280.785 217.833C280.786 218.071 280.594 218.263 280.357 218.263H280.356ZM329.565 215.329C329.329 215.329 329.137 215.137 329.137 214.9L329.136 214.427C329.135 214.155 329.065 213.888 328.934 213.654C328.818 213.446 328.893 213.185 329.099 213.069C329.307 212.953 329.567 213.027 329.683 213.233C329.886 213.596 329.994 214.008 329.994 214.426V214.899C329.995 215.136 329.803 215.329 329.566 215.329H329.565ZM280.374 214.62C280.353 214.62 280.331 214.619 280.31 214.616C280.076 214.58 279.914 214.361 279.949 214.127C280.041 213.52 280.355 212.973 280.834 212.586C281.018 212.437 281.289 212.466 281.438 212.65C281.586 212.835 281.558 213.106 281.374 213.255C281.062 213.506 280.858 213.862 280.798 214.256C280.767 214.469 280.583 214.62 280.374 214.62ZM282.366 212.904C282.13 212.904 281.938 212.712 281.937 212.475C281.937 212.238 282.128 212.045 282.366 212.045L283.865 212.042C284.102 212.042 284.294 212.235 284.295 212.472C284.296 212.709 284.103 212.902 283.866 212.902L282.367 212.904H282.366ZM286.006 212.899C285.77 212.899 285.578 212.706 285.577 212.469C285.577 212.232 285.769 212.039 286.006 212.039L287.505 212.037H287.506C287.743 212.037 287.935 212.229 287.935 212.466C287.936 212.703 287.743 212.896 287.506 212.896L286.007 212.899H286.006ZM289.647 212.893C289.411 212.893 289.218 212.701 289.218 212.464C289.217 212.227 289.41 212.034 289.646 212.034L291.145 212.032H291.146C291.383 212.032 291.574 212.224 291.575 212.46C291.576 212.698 291.383 212.891 291.146 212.891L289.647 212.893ZM293.287 212.888C293.051 212.888 292.858 212.696 292.858 212.459C292.857 212.221 293.05 212.029 293.286 212.029L294.785 212.026H294.786C295.023 212.026 295.214 212.219 295.215 212.456C295.216 212.693 295.024 212.886 294.787 212.886L293.287 212.888ZM296.927 212.883C296.691 212.883 296.498 212.691 296.498 212.454C296.497 212.216 296.69 212.023 296.927 212.023L298.425 212.022H298.426C298.663 212.022 298.854 212.213 298.855 212.45C298.856 212.688 298.664 212.88 298.427 212.88L296.928 212.883H296.927ZM300.567 212.878C300.331 212.878 300.139 212.685 300.138 212.449C300.138 212.212 300.33 212.018 300.567 212.018L302.066 212.016C302.303 212.016 302.496 212.208 302.496 212.445C302.497 212.682 302.304 212.875 302.067 212.875L300.568 212.878H300.567ZM304.207 212.872C303.971 212.872 303.779 212.68 303.779 212.443C303.778 212.206 303.97 212.013 304.207 212.013L305.706 212.01C305.943 212.01 306.135 212.203 306.136 212.44C306.137 212.677 305.944 212.87 305.707 212.87L304.208 212.872H304.207ZM307.847 212.867C307.611 212.867 307.419 212.675 307.419 212.438C307.418 212.201 307.611 212.008 307.847 212.008L309.346 212.006H309.347C309.584 212.006 309.775 212.197 309.776 212.434C309.777 212.671 309.584 212.865 309.347 212.865L307.848 212.867H307.847ZM311.488 212.862C311.252 212.862 311.059 212.67 311.059 212.433C311.058 212.196 311.251 212.003 311.488 212.003L312.986 212H312.987C313.224 212 313.415 212.193 313.416 212.429C313.417 212.666 313.225 212.86 312.988 212.86L311.488 212.862ZM315.128 212.856C314.892 212.856 314.699 212.665 314.699 212.428C314.698 212.191 314.891 211.997 315.128 211.997L316.626 211.995H316.627C316.864 211.995 317.056 212.187 317.057 212.424C317.057 212.661 316.865 212.853 316.628 212.854L315.128 212.856ZM318.768 212.851C318.532 212.851 318.34 212.659 318.34 212.422C318.339 212.185 318.531 211.992 318.768 211.992L320.266 211.99H320.267C320.504 211.99 320.696 212.181 320.697 212.418C320.698 212.656 320.505 212.848 320.268 212.849L318.769 212.851H318.768ZM322.408 212.846C322.172 212.846 321.98 212.654 321.98 212.417C321.979 212.179 322.171 211.987 322.408 211.987L323.907 211.984C324.144 211.984 324.336 212.177 324.337 212.414C324.337 212.651 324.145 212.843 323.908 212.844L322.409 212.846H322.408ZM326.049 212.84C325.812 212.84 325.62 212.649 325.62 212.412C325.619 212.174 325.812 211.982 326.049 211.981L327.543 211.979L327.547 212.839L326.049 212.84H326.049Z" fill="#4E1E61"/>
<path d="M283.357 215.479L283.4 245.352L326.606 245.29L326.562 215.417L283.357 215.479Z" fill="#8A519D"/>
<path d="M283.359 215.48L283.362 217.395L304.991 236.528L326.566 217.333L326.563 215.418L304.989 234.678L283.359 215.48Z" fill="#4E1E61"/>
<path d="M309.145 230.902L325.354 245.292L326.606 245.29L326.605 244.528L310.074 229.854L309.145 230.902Z" fill="#4E1E61"/>
<path d="M283.399 244.692L283.4 245.353L284.766 245.35L300.933 230.914L300.001 229.869L283.399 244.692Z" fill="#4E1E61"/>
<path d="M326.564 215.417L304.989 234.679L283.359 215.479L326.564 215.417Z" fill="#8A519D"/>
<path d="M334.324 215.817C334.324 220.815 330.275 224.868 325.281 224.868C320.286 224.868 316.237 220.815 316.237 215.817C316.237 210.818 320.286 206.765 325.281 206.765C330.275 206.765 334.324 210.818 334.324 215.817Z" fill="#C78FE8"/>
<path d="M323.427 220.118C323.194 220.118 322.971 220.025 322.807 219.86L320.591 217.642C320.248 217.3 320.248 216.743 320.591 216.4C320.933 216.058 321.489 216.058 321.831 216.4L323.427 217.998L329.646 211.774C329.988 211.431 330.544 211.431 330.887 211.774C331.229 212.116 331.229 212.673 330.887 213.015L324.047 219.861C323.883 220.026 323.66 220.118 323.427 220.118Z" fill="white"/>
<path d="M614.591 477.58C614.591 480.259 629.053 482.431 646.891 482.431C664.73 482.431 679.191 480.259 679.191 477.58C679.191 474.901 664.73 472.73 646.891 472.73C629.053 472.73 614.591 474.901 614.591 477.58Z" fill="#E5BF9E"/>
<path d="M682.055 404.302L680.278 414.089L680.094 415.1L679.745 417.025L679.738 417.07L678.911 421.618L678.737 422.582L678.563 423.543L678.196 425.563L672.384 457.578L672.153 458.849L671.841 460.559L671.803 460.774L670.969 465.366L670.84 466.07L670.619 467.291L670.3 469.051L668.651 478.138H626.035L624.386 469.051L624.067 467.291L623.845 466.07L623.717 465.366L622.883 460.774L622.845 460.559L622.533 458.849L622.301 457.578L616.49 425.563L616.123 423.543L615.949 422.582L615.775 421.618L614.948 417.07L614.941 417.025L614.591 415.1L614.407 414.089L612.63 404.302H682.055Z" fill="#FF4F3F"/>
<path d="M678.911 421.618L678.737 422.582L678.563 423.543H616.123L615.949 422.582L615.775 421.618H678.911Z" fill="#CE101D"/>
<path d="M680.094 415.1L679.745 417.025H614.941L614.591 415.1H680.094Z" fill="#CE101D"/>
<path d="M627.25 404.463C627.25 404.463 597.424 368.924 604.396 336.714C604.396 336.714 637.073 342.865 636.651 404.128L627.25 404.463Z" fill="#00433B"/>
<path d="M645.994 403.913L632.731 404.789C632.731 404.789 612.13 374.972 638.795 315.536C638.795 315.536 643.461 327.882 647.297 343.74C652.276 364.329 655.854 390.834 645.994 403.913Z" fill="#006C60"/>
<path d="M645.995 403.915L636.842 404.519C631.006 378.787 643.282 351.649 647.292 343.741C652.273 364.331 655.853 390.837 645.995 403.915Z" fill="#00433B"/>
<path d="M638.905 403.629C638.89 403.63 638.875 403.631 638.861 403.631C638.466 403.633 638.144 403.315 638.141 402.92L637.743 341.459C637.74 341.064 638.056 340.746 638.454 340.739C638.849 340.737 639.171 341.055 639.174 341.45L639.572 402.91C639.575 403.291 639.28 403.604 638.905 403.629Z" fill="#00433B"/>
<path d="M670.325 404.006C670.325 404.006 688.194 397.376 690.036 334.454C690.036 334.454 646.739 366.12 656.716 404.666L670.325 404.006Z" fill="#00433B"/>
<path d="M656.781 404.04C656.781 404.04 683.815 389.918 679.937 293.28C679.937 293.28 629.745 367.064 644.743 404.527L656.781 404.04Z" fill="#006C60"/>
<path d="M650.274 404.275C650.202 404.278 650.128 404.27 650.055 404.249C649.675 404.145 649.451 403.75 649.556 403.37L672.533 320.002C672.637 319.622 673.031 319.398 673.412 319.503C673.792 319.608 674.015 320.002 673.911 320.383L650.934 403.75C650.85 404.057 650.576 404.263 650.274 404.275Z" fill="#00433B"/>
<path d="M236.914 82.5796V252.662H166.893V82.5796H236.914Z" fill="#E5BF9E"/>
<path d="M236.914 79.0664V249.149H166.893V79.0664H236.914Z" fill="#3D2027"/>
<path d="M172.151 243.885V84.3291H231.656V243.885H172.151Z" fill="#F1D6BE"/>
<path d="M174.781 241.254V86.9609H229.027V241.254H174.781Z" fill="white"/>
<path d="M221.331 231.655H182.727V96.5596H221.331V231.655Z" fill="#FFAE41"/>
<path d="M213.126 161.515C213.126 169.514 206.648 175.999 198.655 175.999C190.663 175.999 184.185 169.514 184.185 161.515C184.185 153.516 190.663 147.03 198.655 147.03C206.648 147.03 213.126 153.516 213.126 161.515Z" fill="white"/>
<path d="M193.474 164.107C193.474 164.107 205.749 145.885 221.331 144.635V213.162C221.331 213.162 189.105 178.266 193.474 164.107Z" fill="#00433B"/>
<path d="M182.727 159.929C182.727 159.929 190.223 157.823 204.579 174.934C218.041 190.982 221.331 211.615 221.331 211.615V231.655H182.727V159.929Z" fill="#006C60"/>
<path d="M152.605 475.869C152.605 483.539 235.43 489.757 337.6 489.757C439.77 489.757 522.595 483.539 522.595 475.869C522.595 468.199 439.77 461.981 337.6 461.981C235.43 461.981 152.605 468.199 152.605 475.869Z" fill="#E5BF9E"/>
<path d="M480.089 479.357C480.339 479.357 480.594 479.311 480.841 479.214C481.897 478.798 482.416 477.604 482 476.548L440.92 372.077C440.505 371.02 439.312 370.499 438.257 370.916C437.201 371.332 436.682 372.526 437.097 373.583L478.177 478.054C478.496 478.864 479.27 479.357 480.089 479.357Z" fill="#00433B"/>
<path d="M371.242 479.358C372.061 479.358 372.835 478.864 373.153 478.055L414.233 373.583C414.648 372.526 414.13 371.332 413.074 370.916C412.019 370.501 410.826 371.021 410.41 372.077L369.331 476.548C368.915 477.605 369.434 478.799 370.49 479.214C370.737 479.311 370.992 479.358 371.242 479.358Z" fill="#00433B"/>
<path d="M390.249 431.021C390.475 431.021 390.704 430.983 390.928 430.904L453.175 409.067C454.245 408.691 454.809 407.519 454.434 406.447C454.059 405.375 452.887 404.812 451.816 405.187L389.57 427.023C388.5 427.398 387.936 428.573 388.311 429.644C388.608 430.491 389.401 431.021 390.249 431.021Z" fill="#00433B"/>
<path d="M461.085 431.02C461.934 431.02 462.728 430.491 463.024 429.644C463.399 428.573 462.836 427.398 461.765 427.023L399.519 405.187C398.448 404.812 397.276 405.376 396.901 406.447C396.526 407.519 397.089 408.691 398.16 409.067L460.406 430.904C460.631 430.983 460.86 431.02 461.085 431.02Z" fill="#00433B"/>
<path d="M403.313 479.357C403.563 479.357 403.817 479.311 404.064 479.214C405.12 478.798 405.638 477.604 405.223 476.548L364.144 372.077C363.728 371.02 362.535 370.499 361.48 370.916C360.424 371.332 359.906 372.526 360.321 373.583L401.401 478.054C401.72 478.864 402.493 479.357 403.313 479.357Z" fill="#00433B"/>
<path d="M294.465 479.357C295.285 479.357 296.059 478.864 296.377 478.054L337.457 373.583C337.873 372.526 337.354 371.332 336.298 370.916C335.243 370.5 334.05 371.02 333.634 372.077L292.554 476.548C292.139 477.604 292.658 478.799 293.714 479.214C293.961 479.311 294.215 479.357 294.465 479.357Z" fill="#00433B"/>
<path d="M313.473 431.021C313.698 431.021 313.927 430.983 314.152 430.904L376.398 409.067C377.469 408.691 378.032 407.519 377.657 406.447C377.281 405.375 376.11 404.812 375.039 405.187L312.793 427.023C311.722 427.399 311.159 428.573 311.534 429.644C311.83 430.491 312.625 431.021 313.473 431.021Z" fill="#00433B"/>
<path d="M384.309 431.021C385.157 431.021 385.95 430.491 386.247 429.644C386.622 428.573 386.058 427.398 384.988 427.023L322.742 405.187C321.67 404.812 320.5 405.375 320.124 406.447C319.749 407.519 320.312 408.691 321.383 409.067L383.629 430.904C383.854 430.983 384.083 431.021 384.309 431.021Z" fill="#00433B"/>
<path d="M300.54 375.37C300.54 375.37 387.155 424.982 442.125 384.853C444.312 383.257 446.452 381.52 448.531 379.626C449.247 378.978 449.955 378.31 450.656 377.624C497.521 331.779 437.763 258.246 437.763 258.246C436.202 258.901 434.655 259.57 433.12 260.253C432.576 260.493 432.032 260.734 431.49 260.978C345.908 299.606 300.54 375.37 300.54 375.37Z" fill="#006C60"/>
<path d="M448.17 287.79C455.318 302.124 463.167 323.574 459.967 344.333C457.182 362.421 450.662 375.488 442.125 384.853C444.313 383.257 446.452 381.52 448.532 379.626C455.195 370.12 459.619 358.417 461.744 344.606C463.192 335.213 462.576 324.923 459.918 314.018C457.798 305.32 454.381 296.214 449.759 286.952C442.259 271.92 433.945 261.294 433.121 260.253C432.577 260.493 432.033 260.734 431.491 260.978C431.522 261.091 431.579 261.201 431.658 261.299C431.743 261.407 440.396 272.201 448.17 287.79Z" fill="#00433B"/>
<path d="M421.086 302.519C421.086 302.519 437.805 348.065 421.892 368.625C405.979 389.184 369.188 398.949 315.89 367.816L421.086 302.519Z" fill="#00433B"/>
<path d="M365.813 230.536L365.737 231.292L365.623 232.272C365.539 232.946 365.447 233.632 365.346 234.327C365.154 235.716 364.924 237.131 364.676 238.546C364.177 241.38 363.582 244.227 362.914 247.063C361.605 252.746 359.958 258.377 358.039 263.901C357.058 266.657 356.038 269.396 354.942 272.105C353.824 274.802 352.661 277.479 351.407 280.111C351.106 280.776 350.775 281.424 350.456 282.078C350.132 282.729 349.822 283.391 349.485 284.036C348.81 285.325 348.156 286.627 347.442 287.892C347.089 288.528 346.75 289.173 346.387 289.802L345.292 291.685L345.018 292.157L344.882 292.393L344.847 292.452C344.838 292.469 344.817 292.505 344.835 292.475L344.893 292.387C344.984 292.264 345.036 292.188 345.109 292.108C345.154 292.047 345.22 291.985 345.246 291.957C345.401 291.816 345.335 291.915 345.176 292.06C344.826 292.379 344.038 292.927 343.099 293.454C342.153 293.991 341.04 294.538 339.858 295.066C337.479 296.124 334.822 297.115 332.082 298.042C329.337 298.967 326.492 299.823 323.6 300.628C320.707 301.43 317.772 302.204 314.806 302.927C308.874 304.371 302.843 305.691 296.774 306.909C293.741 307.525 290.697 308.114 287.649 308.675L283.077 309.495L280.799 309.898L278.573 310.278L281.097 331.037L283.579 330.808L286.003 330.569C287.615 330.402 289.221 330.219 290.828 330.033C294.039 329.659 297.246 329.257 300.454 328.823C306.867 327.937 313.282 326.925 319.721 325.694C326.169 324.466 332.624 323.047 339.223 321.164C342.528 320.217 345.863 319.147 349.328 317.769C351.065 317.075 352.833 316.306 354.686 315.362C356.541 314.405 358.474 313.312 360.617 311.678C361.695 310.838 362.82 309.883 364.019 308.55C364.312 308.23 364.621 307.856 364.917 307.488C365.224 307.09 365.519 306.7 365.823 306.242L366.154 305.737L366.327 305.466L366.673 304.924L368.053 302.755C368.51 302.03 368.943 301.292 369.388 300.561C370.288 299.102 371.123 297.608 371.975 296.123C372.403 295.381 372.798 294.624 373.21 293.874C373.616 293.122 374.034 292.374 374.418 291.611L375.589 289.331C375.975 288.569 376.339 287.796 376.715 287.029C377.474 285.498 378.164 283.938 378.882 282.388C380.266 279.27 381.581 276.121 382.785 272.931C385.179 266.547 387.248 260.05 388.944 253.427C389.778 250.111 390.508 246.762 391.148 243.365C391.466 241.664 391.762 239.956 392.024 238.211C392.152 237.339 392.269 236.456 392.381 235.56L392.541 234.18L392.616 233.456L392.695 232.573L365.813 230.536Z" fill="#FFAE41"/>
<path d="M352.697 299.386C352.931 299.423 353.18 299.353 353.362 299.174C353.667 298.874 353.672 298.383 353.372 298.077C349.668 294.305 346.117 291.717 345.968 291.609C345.621 291.358 345.137 291.435 344.886 291.782C344.635 292.129 344.712 292.613 345.059 292.864C345.095 292.89 348.658 295.489 352.267 299.164C352.387 299.287 352.539 299.361 352.697 299.386Z" fill="#EF772C"/>
<path d="M351.253 293.891C351.649 293.955 352.033 293.702 352.127 293.304C352.225 292.887 351.969 292.47 351.552 292.372C351.522 292.365 348.56 291.665 346.033 291.264C345.611 291.197 345.214 291.486 345.147 291.909C345.079 292.332 345.368 292.729 345.79 292.796C348.26 293.187 351.166 293.874 351.195 293.881C351.214 293.886 351.233 293.888 351.253 293.891Z" fill="#EF772C"/>
<path d="M293.544 331.922C293.616 331.934 293.692 331.936 293.768 331.926C294.192 331.87 294.491 331.479 294.435 331.054L291.204 306.659C291.148 306.235 290.759 305.936 290.334 305.992C289.91 306.048 289.612 306.438 289.668 306.862L292.898 331.259C292.944 331.606 293.214 331.87 293.544 331.922Z" fill="#EF772C"/>
<path d="M281.094 326.722C281.17 326.734 281.25 326.735 281.33 326.722L292.503 325.045C292.926 324.982 293.218 324.587 293.154 324.164C293.091 323.741 292.696 323.448 292.273 323.512L281.101 325.189C280.678 325.253 280.387 325.648 280.45 326.071C280.502 326.413 280.769 326.671 281.094 326.722Z" fill="#EF772C"/>
<path d="M284.215 318.7C283.866 319.626 284.334 320.659 285.259 321.008C286.185 321.356 287.217 320.888 287.565 319.962C287.914 319.036 287.446 318.003 286.521 317.655C285.596 317.306 284.563 317.774 284.215 318.7Z" fill="#EF772C"/>
<path d="M209.249 424.186L201.227 435.252C201.227 435.252 190.036 437.635 181.231 435.422C173.607 433.506 158.874 423.721 154.513 426.83C151.762 428.791 162.236 440.146 167.604 443.995C172.973 447.844 184.098 460.091 191.976 465.003C199.854 469.914 207.02 457.253 210 453.688C215.203 447.462 222.361 437.61 222.361 437.61L209.249 424.186Z" fill="#FF9D83"/>
<path d="M193.857 435.44C193.857 435.44 184.554 445.436 183.623 458.472C183.623 458.472 153.761 437.412 152.384 426.991C151.875 423.146 154.702 421.811 159.462 422.2C160.066 422.249 160.699 422.325 161.366 422.427C162.975 422.681 164.749 423.085 166.649 423.623C167.16 423.765 167.676 423.919 168.202 424.082C169.76 424.56 171.386 425.119 173.065 425.744C173.564 425.928 174.066 426.118 174.574 426.313C176.054 426.891 177.567 427.515 179.101 428.177C179.59 428.388 180.079 428.602 180.568 428.819C182.003 429.457 183.451 430.129 184.903 430.825C185.367 431.048 185.832 431.276 186.298 431.504C187.716 432.199 189.132 432.92 190.538 433.659C190.987 433.894 191.431 434.128 191.875 434.366C192.538 434.72 193.198 435.079 193.857 435.44Z" fill="#006C60"/>
<path d="M161.366 422.427C157.575 425.468 156.595 429.645 156.588 429.687C156.55 429.858 156.452 429.998 156.326 430.096C156.163 430.222 155.95 430.278 155.735 430.228C155.351 430.142 155.108 429.763 155.192 429.377C155.231 429.199 156.107 425.417 159.462 422.2C160.066 422.249 160.699 422.325 161.366 422.427Z" fill="#00433B"/>
<path d="M168.203 424.082C168.159 424.203 168.081 424.309 167.973 424.393C167.966 424.402 167.955 424.407 167.946 424.414C163.023 428.227 161.794 433.978 161.784 434.036C161.748 434.208 161.652 434.355 161.521 434.457C161.363 434.579 161.152 434.634 160.94 434.592C160.553 434.512 160.304 434.135 160.384 433.747C160.438 433.499 161.669 427.74 166.649 423.623C167.161 423.765 167.676 423.919 168.203 424.082Z" fill="#00433B"/>
<path d="M174.574 426.313C174.532 426.386 174.475 426.448 174.405 426.502L174.353 426.542C168.476 431.094 166.993 438.318 166.977 438.391C166.943 438.566 166.844 438.714 166.713 438.816C166.555 438.938 166.348 438.993 166.138 438.954C165.753 438.876 165.499 438.502 165.575 438.114C165.638 437.804 167.089 430.629 173.065 425.744C173.564 425.928 174.065 426.118 174.574 426.313Z" fill="#00433B"/>
<path d="M180.568 428.819C173.881 434.132 172.19 442.658 172.171 442.746C172.138 442.923 172.041 443.073 171.908 443.177C171.752 443.298 171.546 443.352 171.337 443.316C170.949 443.24 170.696 442.864 170.77 442.479C170.839 442.115 172.475 433.826 179.101 428.177C179.59 428.387 180.079 428.602 180.568 428.819Z" fill="#00433B"/>
<path d="M186.298 431.504C179.201 437.611 177.383 447.005 177.365 447.103C177.33 447.282 177.234 447.433 177.1 447.536C176.945 447.657 176.74 447.714 176.533 447.675C176.146 447.604 175.889 447.23 175.961 446.842C176.036 446.429 177.806 437.239 184.903 430.825C185.367 431.048 185.832 431.276 186.298 431.504Z" fill="#00433B"/>
<path d="M191.875 434.366C184.481 441.259 182.579 451.35 182.56 451.46C182.526 451.641 182.428 451.793 182.292 451.898C182.139 452.017 181.936 452.073 181.73 452.034C181.341 451.966 181.083 451.595 181.153 451.205C181.236 450.747 183.11 440.821 190.538 433.659C190.987 433.894 191.431 434.128 191.875 434.366Z" fill="#00433B"/>
<path d="M184.602 452.623C184.602 452.623 193.766 461.24 202.082 463.5C202.082 463.5 200.604 468.063 196.034 468.689C196.034 468.689 171.757 452.795 163.437 444.548C155.116 436.302 149.752 429.907 152.327 426.235L184.602 452.623Z" fill="#006C60"/>
<path d="M183.926 453.232C183.691 453.414 183.357 453.437 183.096 453.263C166.609 442.371 152.897 427.65 152.761 427.503C152.492 427.214 152.51 426.76 152.799 426.492C153.085 426.224 153.539 426.241 153.808 426.531C153.943 426.677 167.543 441.276 183.883 452.071C184.212 452.289 184.302 452.731 184.085 453.061C184.041 453.128 183.987 453.185 183.926 453.232Z" fill="#00433B"/>
<path d="M272.073 323.655C278.351 319.49 366.398 314.605 392.501 327.699C394.479 334.408 351.285 352.01 338.619 364.362C301.179 363.228 278.553 371.499 278.553 371.499C278.553 371.499 259.899 398.753 250.13 408.186C240.361 417.62 219.897 445.096 219.897 445.096L201.703 431.656C201.703 431.656 254.978 334.995 272.073 323.655Z" fill="#CE101D"/>
<path d="M227.49 434.564C227.784 434.621 228.097 434.503 228.277 434.24C228.518 433.886 228.429 433.405 228.076 433.163L209.247 420.251C208.894 420.009 208.411 420.099 208.17 420.452C207.928 420.805 208.019 421.289 208.372 421.53L227.201 434.442C227.291 434.504 227.389 434.544 227.49 434.564Z" fill="#9E001B"/>
<path d="M222.605 431.169C222.896 431.227 223.207 431.112 223.388 430.852C223.477 430.727 225.773 427.528 241.341 410.476C258.301 391.898 277.108 364.033 277.296 363.753C277.535 363.398 277.441 362.917 277.086 362.678C276.732 362.439 276.25 362.532 276.011 362.888C275.823 363.166 257.079 390.938 240.197 409.429C224.458 426.671 222.207 429.838 222.118 429.964C221.873 430.316 221.959 430.799 222.31 431.044C222.401 431.107 222.501 431.15 222.605 431.169Z" fill="#9E001B"/>
<path d="M266.668 433.044L262.846 452.459C262.846 452.459 253.744 455.601 245.161 458.565C237.73 461.132 220.05 461 218.096 465.99C216.864 469.138 231.835 472.915 238.433 473.2C245.031 473.486 261.035 477.653 270.314 477.455C279.593 477.257 277.7 462.507 279.227 458.117C280.754 453.727 284.268 434.959 284.268 434.959L266.668 433.044Z" fill="#FF9D83"/>
<path d="M255.744 451.671C255.744 451.671 253.413 465.131 259.753 476.557C259.753 476.557 223.247 475.263 216.402 467.289C213.876 464.349 215.513 461.684 219.712 459.405C220.245 459.115 220.817 458.833 221.431 458.553C222.916 457.886 224.622 457.253 226.507 456.664C227.013 456.504 227.529 456.35 228.059 456.198C229.623 455.747 231.29 455.324 233.038 454.93C233.556 454.81 234.081 454.695 234.613 454.581C236.167 454.255 237.775 453.949 239.421 453.664C239.945 453.573 240.472 453.484 241 453.398C242.55 453.147 244.129 452.918 245.726 452.707C246.236 452.639 246.75 452.576 247.265 452.512C248.831 452.318 250.411 452.146 251.992 451.996C252.496 451.947 252.996 451.9 253.498 451.856C254.247 451.789 254.996 451.729 255.744 451.671Z" fill="#006C60"/>
<path d="M221.431 458.553C219.917 463.174 221.379 467.208 221.395 467.247C221.456 467.411 221.452 467.581 221.399 467.732C221.332 467.927 221.185 468.09 220.977 468.166C220.608 468.305 220.197 468.12 220.057 467.751C219.993 467.58 218.659 463.935 219.712 459.405C220.245 459.115 220.817 458.833 221.431 458.553Z" fill="#00433B"/>
<path d="M228.059 456.198C228.088 456.323 228.082 456.454 228.037 456.584C228.036 456.596 228.029 456.605 228.025 456.616C225.986 462.503 228.097 467.992 228.121 468.045C228.185 468.21 228.184 468.386 228.13 468.542C228.065 468.731 227.919 468.891 227.718 468.973C227.35 469.118 226.935 468.938 226.79 468.57C226.701 468.333 224.586 462.836 226.507 456.664C227.013 456.504 227.529 456.35 228.059 456.198Z" fill="#00433B"/>
<path d="M234.613 454.581C234.618 454.664 234.604 454.747 234.575 454.83L234.553 454.893C232.118 461.919 234.821 468.781 234.848 468.851C234.915 469.016 234.913 469.194 234.859 469.351C234.794 469.54 234.65 469.698 234.453 469.781C234.088 469.926 233.672 469.752 233.523 469.386C233.407 469.092 230.702 462.29 233.038 454.93C233.557 454.81 234.081 454.695 234.613 454.581Z" fill="#00433B"/>
<path d="M241 453.398C238.302 461.507 241.543 469.572 241.575 469.655C241.644 469.822 241.646 470.001 241.591 470.16C241.526 470.346 241.383 470.505 241.188 470.589C240.823 470.737 240.406 470.562 240.256 470.199C240.115 469.857 236.958 462.02 239.421 453.664C239.946 453.573 240.472 453.484 241 453.398Z" fill="#00433B"/>
<path d="M247.265 452.512C244.659 461.508 248.266 470.37 248.304 470.461C248.373 470.631 248.374 470.809 248.319 470.968C248.254 471.154 248.115 471.314 247.92 471.395C247.556 471.547 247.138 471.375 246.987 471.011C246.825 470.624 243.287 461.961 245.726 452.706C246.236 452.639 246.751 452.575 247.265 452.512Z" fill="#00433B"/>
<path d="M253.498 451.856C251.071 461.674 254.991 471.164 255.034 471.267C255.105 471.437 255.105 471.618 255.049 471.78C254.985 471.964 254.846 472.121 254.652 472.202C254.289 472.358 253.872 472.188 253.717 471.823C253.536 471.395 249.684 462.058 251.993 451.996C252.496 451.947 252.996 451.9 253.498 451.856Z" fill="#00433B"/>
<path d="M257.379 471.123C257.379 471.123 269.759 473.325 277.956 470.666C277.956 470.666 279.211 475.296 275.727 478.321C275.727 478.321 246.717 478.295 235.246 475.943C223.775 473.59 215.792 471.171 215.943 466.687L257.379 471.123Z" fill="#006C60"/>
<path d="M257.144 472.004C257.047 472.285 256.78 472.486 256.466 472.484C236.712 472.385 217.191 467.561 216.997 467.512C216.614 467.417 216.381 467.029 216.476 466.646C216.569 466.265 216.959 466.03 217.342 466.126C217.536 466.174 236.896 470.956 256.473 471.055C256.867 471.057 257.186 471.379 257.184 471.773C257.183 471.855 257.17 471.932 257.144 472.004Z" fill="#00433B"/>
<path d="M423.234 326.59C423.234 326.59 439.585 395.066 360.178 384.361C324.34 379.529 308.479 370.729 308.479 370.729C308.479 370.729 301.525 401.934 297.301 414.846C293.077 427.759 283.572 450.401 283.572 450.401L262.33 446.262C262.33 446.262 272.627 347.893 291.817 340.655C311.008 333.416 342.26 331.264 385.347 335.443C385.347 335.443 416.416 328.401 423.234 326.59Z" fill="#FF4F3F"/>
<path d="M351.704 277.972C351.729 278.046 351.741 278.109 351.766 278.184C351.999 278.995 352.283 279.78 352.617 280.554C354.567 285.184 357.952 289.108 359.304 290.571C359.676 290.983 359.899 291.196 359.899 291.196C359.899 291.221 359.886 291.246 359.886 291.283C359.861 291.52 359.836 291.757 359.809 292.018C359.706 293.015 359.553 294.21 359.274 295.53C355.984 310.683 355.173 313.22 353.844 319.657C373.698 348.296 420.747 330.142 423.233 326.591C425.385 311.238 425.385 311.238 427.665 296.381C428.761 289.207 431.687 278.452 435.583 267.737C435.734 267.314 435.885 266.89 436.049 266.467C437.217 263.319 438.461 260.183 439.766 257.173C445.476 243.985 444.14 232.128 436.442 226.729C433.827 224.895 425.795 222.495 422.237 221.748C421.28 221.545 420.334 221.354 419.438 221.177C414.425 220.212 410.506 219.663 410.506 219.663L386.454 219.878C384.088 220.143 381.958 220.435 380.04 220.79C378.358 221.083 376.838 221.426 375.467 221.808C363.206 225.179 362.735 231.632 360.49 243.262C359.843 246.574 358.936 249.837 357.942 252.973C357.615 253.956 357.288 254.927 356.96 255.898C353.816 265.132 350.364 273.07 351.704 277.972Z" fill="#FFAE41"/>
<path d="M411.824 219.877C411.824 219.877 424.35 221.88 424.282 229.062C424.215 236.244 398.666 235.667 398.666 235.667C398.666 235.667 410.516 227.803 411.824 219.877Z" fill="white"/>
<path d="M387.012 219.877C387.012 219.877 374.485 221.88 374.553 229.062C374.621 236.244 392.232 236.354 392.232 236.354C392.232 236.354 388.32 227.803 387.012 219.877Z" fill="white"/>
<path d="M387.112 218.893L386.243 227.412C385.534 234.362 393.08 239.092 399.039 235.452C405.98 231.212 412.21 225.416 412.29 219.929L387.112 218.893Z" fill="#FF9D83"/>
<path d="M359.899 291.196C359.899 291.221 359.886 291.246 359.886 291.283C359.86 291.52 359.835 291.757 359.809 292.018C364.199 293.03 369.851 293.175 376.503 291.902C389.621 289.381 400.318 295.475 400.417 295.538C400.517 295.601 400.641 295.626 400.753 295.626C400.977 295.627 401.201 295.503 401.314 295.291C401.501 294.98 401.391 294.582 401.08 294.394C400.633 294.131 389.862 288 376.246 290.606C369.345 291.927 363.595 291.695 359.304 290.571C359.675 290.983 359.899 291.196 359.899 291.196Z" fill="#EF772C"/>
<path d="M381.598 258.5C389.625 258.528 406.042 247.08 406.737 246.593C407.035 246.383 407.107 245.972 406.898 245.674C406.689 245.375 406.279 245.302 405.98 245.511C405.813 245.628 389.212 257.207 381.602 257.18C374.321 257.155 372.736 249.188 372.721 249.108C372.654 248.75 372.31 248.512 371.951 248.582C371.594 248.649 371.358 248.995 371.426 249.353C371.443 249.443 373.241 258.471 381.598 258.5Z" fill="#EF772C"/>
<path d="M384.935 207.531L387.508 223.745C387.508 223.745 396.068 235.455 412.29 219.929C409.144 215.283 406.864 202.354 407.474 197.614C407.474 197.614 404.915 200.921 402.951 202.619C402.566 202.951 402.078 203.205 401.597 203.517C397.342 206.269 390.837 206.945 384.935 207.531Z" fill="#FF9D83"/>
<path d="M384.935 207.531L386.676 217.622C391.48 215.615 398.998 209.591 402.951 202.619C402.53 202.905 402.078 203.205 401.597 203.517C397.342 206.269 390.837 206.945 384.935 207.531Z" fill="#270A04"/>
<path d="M326.239 300.532C326.239 300.532 312.898 290.744 305.43 292.713L305.709 304.562C305.709 304.562 311.04 308.597 313.373 310.359C315.706 312.121 314.922 317.119 324.789 319.269L326.239 300.532Z" fill="#FF9D83"/>
<path d="M441.388 258.391C442.067 254.839 442.603 251.267 442.98 247.648C443.168 245.838 443.318 244.018 443.422 242.167C443.47 241.241 443.506 240.307 443.529 239.35C443.54 238.871 443.548 238.386 443.549 237.885L443.547 237.113L443.542 236.7L443.529 236.147L416.583 237.06L416.586 237.75L416.571 238.714C416.556 239.377 416.53 240.061 416.494 240.753C416.429 242.136 416.331 243.546 416.196 244.958C415.934 247.785 415.538 250.629 415.031 253.446C414.053 259.09 412.605 264.642 410.681 269.954C410.204 271.282 409.686 272.595 409.149 273.893C408.618 275.195 408.052 276.476 407.455 277.741C406.865 279.007 406.236 280.252 405.58 281.478C404.928 282.707 404.234 283.908 403.52 285.094C402.813 286.283 402.055 287.439 401.29 288.586C400.509 289.721 399.71 290.842 398.872 291.932C398.033 293.019 397.172 294.092 396.271 295.127C395.829 295.65 395.366 296.156 394.903 296.664L394.856 296.716C394.583 296.854 394.206 297.017 393.768 297.181C392.855 297.522 391.701 297.857 390.462 298.154C387.967 298.752 385.132 299.2 382.222 299.571C376.376 300.299 370.19 300.648 363.963 300.865C357.725 301.063 351.412 301.105 345.083 301.032C341.915 301.006 338.743 300.948 335.576 300.859L330.825 300.706L328.458 300.624L326.148 300.528L324.318 321.359L326.849 321.657L329.326 321.935C330.973 322.109 332.622 322.269 334.269 322.424C337.561 322.735 340.857 323.012 344.16 323.261C350.77 323.735 357.406 324.078 364.119 324.201C370.842 324.329 377.612 324.254 384.656 323.711C388.187 323.432 391.778 323.018 395.618 322.275C396.026 322.194 396.437 322.11 396.853 322.018C398.397 321.685 399.992 321.285 401.691 320.741C402.771 320.392 403.899 319.987 405.1 319.466C406.294 318.948 407.589 318.304 408.986 317.415C409.695 316.957 410.428 316.438 411.192 315.806C411.584 315.476 411.962 315.147 412.362 314.753L412.656 314.467L412.795 314.324L413.04 314.075C413.695 313.409 414.349 312.743 414.98 312.057C416.125 310.842 417.226 309.59 418.299 308.316C418.426 308.166 418.554 308.015 418.681 307.862C419.875 306.431 421.018 304.962 422.129 303.47C423.223 301.969 424.301 300.454 425.31 298.899C429.354 292.684 432.72 286.088 435.355 279.279C438.001 272.47 439.988 265.479 441.388 258.391ZM394.972 296.658C394.985 296.645 394.999 296.636 395.015 296.624C395.157 296.513 395.233 296.469 395.268 296.459C395.303 296.451 395.195 296.538 394.972 296.658Z" fill="#FFAE41"/>
<path d="M418.279 308.314C417.206 309.588 416.105 310.841 414.96 312.055C414.329 312.742 413.675 313.408 413.02 314.073L412.774 314.323L412.636 314.465L412.341 314.752C411.942 315.146 411.563 315.475 411.172 315.806C410.407 316.437 409.675 316.956 408.966 317.414C407.568 318.303 406.274 318.948 405.079 319.466C403.879 319.987 402.751 320.393 401.671 320.741C399.972 321.285 398.377 321.686 396.833 322.019C401.143 305.231 412.491 306.446 418.279 308.314Z" fill="#EF772C"/>
<path d="M400.892 305.31C401.119 305.407 401.388 305.393 401.612 305.251C401.973 305.022 402.079 304.542 401.849 304.181C399.004 299.716 394.597 294.945 394.41 294.744C394.119 294.431 393.629 294.412 393.315 294.703C393.002 294.993 392.984 295.484 393.275 295.797C393.32 295.846 397.775 300.669 400.542 305.013C400.63 305.151 400.753 305.252 400.892 305.31Z" fill="#EF772C"/>
<path d="M400.618 299.636C400.98 299.791 401.407 299.648 401.6 299.295C401.805 298.919 401.666 298.449 401.291 298.243C401.135 298.158 397.436 296.139 394.447 294.893C394.052 294.729 393.598 294.916 393.434 295.311C393.27 295.706 393.466 296.153 393.853 296.324C396.762 297.537 400.511 299.582 400.549 299.602C400.571 299.615 400.594 299.626 400.618 299.636Z" fill="#EF772C"/>
<path d="M342.031 301.345C342.131 301.388 342.243 301.41 342.36 301.406C371.965 300.405 392.554 296.398 393.697 295.687C393.789 295.629 393.868 295.553 393.929 295.462C394.911 294.008 418.001 259.689 419.035 244.098C419.063 243.671 418.741 243.3 418.314 243.272C417.887 243.243 417.518 243.566 417.49 243.993C416.523 258.582 394.671 291.564 392.775 294.401C390.568 295.123 370.565 298.901 342.307 299.857C341.879 299.871 341.544 300.23 341.558 300.658C341.569 300.969 341.762 301.231 342.031 301.345Z" fill="#EF772C"/>
<path d="M416.269 251.129C416.449 251.205 416.658 251.214 416.855 251.137C417.254 250.98 417.45 250.53 417.293 250.132L415.544 245.678C415.388 245.279 414.937 245.083 414.539 245.239C414.141 245.396 413.945 245.846 414.102 246.244L415.85 250.698C415.929 250.9 416.084 251.05 416.269 251.129Z" fill="#EF772C"/>
<path d="M336.425 322.907C336.501 322.939 336.583 322.959 336.669 322.966C337.096 322.999 337.469 322.68 337.502 322.253L339.08 301.867C339.112 301.44 338.793 301.067 338.367 301.034C337.94 301.001 337.566 301.319 337.534 301.746L335.956 322.133C335.929 322.473 336.127 322.78 336.425 322.907Z" fill="#EF772C"/>
<path d="M325.176 317.155C325.255 317.189 325.341 317.21 325.432 317.216L336.708 317.903C337.136 317.929 337.503 317.603 337.528 317.176C337.554 316.749 337.228 316.381 336.802 316.356L325.524 315.669C325.097 315.643 324.73 315.967 324.704 316.395C324.684 316.731 324.882 317.03 325.176 317.155Z" fill="#EF772C"/>
<path d="M329.917 309.968C329.384 310.802 329.627 311.909 330.46 312.443C331.293 312.976 332.4 312.734 332.933 311.901C333.465 311.068 333.223 309.961 332.39 309.427C331.557 308.894 330.449 309.135 329.917 309.968Z" fill="#EF772C"/>
<path d="M366.655 338.859L282.537 335.389C282.033 335.369 281.641 334.943 281.662 334.439L282.049 325.055C282.069 324.55 282.494 324.158 282.999 324.179L367.117 327.648C367.621 327.669 368.013 328.095 367.992 328.6L367.606 337.983C367.585 338.487 367.16 338.879 366.655 338.859Z" fill="#270A04"/>
<path d="M272.654 334.982C269.419 334.849 266.679 332.556 265.973 329.394L252.38 268.483C251.55 264.761 254.471 261.261 258.279 261.419L296.758 263.006C299.354 263.113 301.563 264.935 302.162 267.466L318.593 336.877L272.654 334.982Z" fill="#270A04"/>
<path d="M276.64 299.037C277.53 303.03 281.151 306.52 284.727 306.832C288.304 307.145 290.481 304.162 289.591 300.169C288.701 296.177 285.081 292.687 281.504 292.375C277.928 292.062 275.749 295.045 276.64 299.037Z" fill="#FFAE41"/>
<path d="M283.878 298.314C284.056 299.112 284.453 299.782 284.763 299.809C285.075 299.836 285.182 299.211 285.004 298.412C284.826 297.614 284.429 296.945 284.119 296.918C283.807 296.891 283.7 297.516 283.878 298.314Z" fill="#270A04"/>
<path d="M280.499 298.019C280.677 298.817 281.073 299.486 281.385 299.513C281.696 299.54 281.803 298.916 281.625 298.117C281.447 297.319 281.05 296.649 280.74 296.622C280.428 296.595 280.321 297.221 280.499 298.019Z" fill="#270A04"/>
<path d="M283.844 303.119C286.628 303.362 286.574 300.311 286.573 300.28C286.568 300.113 286.435 299.937 286.274 299.887C286.114 299.836 285.987 299.932 285.992 300.098C285.995 300.209 286.028 302.694 283.704 302.49C281.378 302.287 280.281 299.704 280.236 299.594C280.164 299.421 279.99 299.301 279.847 299.325C279.704 299.349 279.645 299.507 279.715 299.68C279.729 299.712 281.059 302.876 283.844 303.119Z" fill="#270A04"/>
<path d="M302.163 267.468L318.458 336.306L322.855 336.487L306.56 267.649C305.956 265.117 303.753 263.292 301.156 263.184L296.758 263.003C299.355 263.11 301.559 264.936 302.163 267.468Z" fill="#270A04"/>
<path d="M317.294 332.019C317.008 332.019 316.75 331.825 316.682 331.535L301.552 267.612C301.472 267.275 301.682 266.936 302.019 266.856C302.357 266.775 302.696 266.984 302.776 267.322L317.906 331.245C317.986 331.583 317.776 331.922 317.439 332.003C317.39 332.015 317.341 332.019 317.294 332.019Z" fill="#594B54"/>
<path d="M391.817 155.609C392.449 165.611 395.913 179.884 401.03 193.464C407.867 211.607 417.652 228.509 427.563 232.315C444.888 238.969 453.748 226.646 453.748 226.646C428.153 231.768 426.972 203.98 428.744 183.189C430.515 162.398 424.805 146.038 409.605 144.658C399.115 143.705 394.632 149.284 392.86 152.83C392.067 154.423 391.817 155.609 391.817 155.609Z" fill="#270A04"/>
<path d="M391.817 155.609C392.449 165.61 395.913 179.884 401.03 193.463L417.148 195.863C417.148 195.863 424.391 178.997 416.817 165.626C411.153 155.626 399.015 152.956 392.86 152.83C392.067 154.423 391.817 155.609 391.817 155.609Z" fill="#FFAE41"/>
<path d="M374.034 161.4C374.034 161.4 388.89 146.742 406.533 158.84C424.483 171.148 422.475 202.576 406.365 206.396C406.365 206.396 379.549 183.018 374.034 161.4Z" fill="#270A04"/>
<path d="M374.143 192.199C374.143 192.199 369.798 188.594 368.525 193.2C367.252 197.806 370.342 206.118 375.553 203.738L374.143 192.199Z" fill="#FF7D65"/>
<path d="M375.552 209.916C385.915 219.864 406.927 202.845 407.558 202.327C407.567 202.318 407.573 202.313 407.573 202.313C407.613 201.367 407.632 200.431 407.637 199.508C407.679 191.694 406.515 184.651 404.559 178.109C403.673 171.003 398.318 165.192 391.271 163.958C383.968 162.68 378.356 166.793 374.863 168.593C369.592 171.308 367.367 179.15 369.165 189.436C371.371 202.06 372.686 207.165 375.552 209.916Z" fill="#FF9D83"/>
<path d="M383.226 177.283C383.226 177.283 381.223 177.848 382.272 179.591C383.321 181.334 387.044 178.543 390.584 181.467C390.584 181.467 391.031 176.758 383.226 177.283Z" fill="#270A04"/>
<path d="M373.987 178.93C373.987 178.93 376.062 178.769 375.678 180.767C375.294 182.765 370.838 181.433 368.524 185.401C368.524 185.401 366.481 181.136 373.987 178.93Z" fill="#270A04"/>
<path d="M386.478 191.755C386.647 192.708 388.744 193.13 391.161 192.699C393.578 192.268 395.399 191.146 395.23 190.195C395.06 189.242 392.964 188.82 390.547 189.251C388.13 189.682 386.309 190.804 386.478 191.755Z" fill="#FF7D65"/>
<g opacity="0.8">
<path d="M368.947 196.607C369.291 196.581 369.648 196.535 370.011 196.47C372.425 196.04 374.246 194.918 374.077 193.966C373.908 193.014 371.811 192.591 369.397 193.021C369.069 193.079 368.754 193.15 368.453 193.232L368.947 196.607Z" fill="#FF7D65"/>
</g>
<path d="M402.363 197.78C402.451 197.915 404.879 201.596 407.558 202.327C407.56 202.326 407.56 202.329 407.562 202.328C407.57 202.318 407.573 202.313 407.573 202.313C407.612 201.367 407.632 200.431 407.637 199.509C407.542 199.51 404.971 199.52 402.363 197.78Z" fill="#270A04"/>
<path d="M403.14 188.272C403.14 188.272 407.113 180.317 411.922 185.154C415.885 189.14 412.032 202.055 405.068 199.107L403.14 188.272Z" fill="#FF9D83"/>
<path d="M408.786 195.898C408.786 195.898 405.652 204.635 408.329 205.289C413.251 206.493 408.786 195.898 408.786 195.898Z" fill="white"/>
<path d="M405.406 196.865C405.677 196.816 405.873 196.57 405.854 196.29C405.488 190.871 409.607 188.225 409.783 188.116C410.038 187.956 410.116 187.619 409.957 187.363C409.798 187.107 409.463 187.028 409.206 187.187C409.008 187.31 404.355 190.275 404.765 196.364C404.785 196.665 405.045 196.892 405.346 196.872C405.367 196.871 405.386 196.868 405.406 196.865Z" fill="#270A04"/>
<path d="M409.841 192.709C409.997 192.681 410.14 192.585 410.223 192.435C410.369 192.172 410.275 191.839 410.011 191.693C409.766 191.556 407.567 190.381 406.027 191.082C405.752 191.207 405.631 191.531 405.756 191.806C405.881 192.081 406.205 192.202 406.479 192.077C407.365 191.673 408.946 192.354 409.481 192.649C409.595 192.712 409.722 192.73 409.841 192.709Z" fill="#270A04"/>
<path d="M384.747 186.939C384.98 188.247 385.762 189.201 386.492 189.07C387.223 188.94 387.627 187.774 387.395 186.467C387.162 185.159 386.38 184.205 385.65 184.335C384.919 184.466 384.515 185.631 384.747 186.939Z" fill="#270A04"/>
<path d="M371.823 188.961C372.055 190.269 372.837 191.223 373.568 191.093C374.298 190.962 374.703 189.797 374.47 188.489C374.237 187.181 373.456 186.227 372.725 186.358C371.994 186.488 371.59 187.653 371.823 188.961Z" fill="#270A04"/>
<path d="M380.34 200.314C383.661 199.722 386.158 196.841 386.193 196.799C386.389 196.569 386.362 196.224 386.132 196.028C385.903 195.833 385.558 195.86 385.363 196.09C385.169 196.317 380.686 201.464 376.075 198.322C375.825 198.152 375.485 198.216 375.315 198.466C375.145 198.715 375.211 199.056 375.46 199.225C377.154 200.379 378.832 200.583 380.34 200.314Z" fill="#270A04"/>
<path d="M398.093 173.782C398.093 173.782 397.181 189.252 401.779 190.173C407.222 191.262 407.638 179.031 403.986 169.321L398.093 173.782Z" fill="#270A04"/>
<path d="M400.38 176.924C400.38 176.924 378.517 180.028 374.164 171.547C374.164 171.547 372.194 179.089 367.391 179.571C367.391 179.571 364.304 171.284 374.034 161.4C374.034 161.4 397.332 155.056 403.003 164.865C408.674 174.674 400.38 176.924 400.38 176.924Z" fill="#270A04"/>
<path d="M384.789 192.884C382.757 192.884 380.973 191.386 380.674 189.315L380.258 186.432C380.094 185.299 380.883 184.243 382.015 184.079L393.72 182.387C394.853 182.223 395.907 183.012 396.071 184.145L396.486 187.029C396.645 188.13 396.367 189.227 395.701 190.117C395.036 191.009 394.064 191.586 392.964 191.745L385.386 192.841C385.185 192.87 384.986 192.884 384.789 192.884ZM394.017 183.373C393.967 183.373 393.916 183.377 393.864 183.384L382.158 185.076C381.575 185.16 381.17 185.704 381.254 186.288L381.67 189.171C381.791 190.006 382.229 190.744 382.903 191.249C383.578 191.753 384.409 191.964 385.243 191.844L392.82 190.749C393.654 190.628 394.391 190.189 394.895 189.514C395.399 188.838 395.611 188.007 395.491 187.173L395.075 184.289C394.998 183.757 394.539 183.373 394.017 183.373Z" fill="white"/>
<path d="M369.562 195.085C368.671 195.085 367.807 194.799 367.08 194.255C366.191 193.589 365.613 192.616 365.454 191.516L365.038 188.632C364.874 187.499 365.662 186.444 366.794 186.28L374.687 185.139C375.822 184.974 376.872 185.765 377.036 186.897L377.452 189.781C377.779 192.053 376.2 194.168 373.931 194.497L370.166 195.041C369.964 195.071 369.762 195.085 369.562 195.085ZM374.984 186.125C374.933 186.125 374.882 186.129 374.83 186.136L366.938 187.277C366.355 187.361 365.949 187.905 366.033 188.488L366.449 191.372C366.569 192.206 367.008 192.944 367.683 193.449C368.357 193.954 369.188 194.165 370.022 194.044L373.786 193.501C375.507 193.252 376.706 191.648 376.457 189.925L376.041 187.041C375.964 186.509 375.506 186.125 374.984 186.125Z" fill="white"/>
<path d="M378.532 192.91C379.203 192.79 380.087 192.509 380.908 191.858C381.145 191.67 381.184 191.327 380.997 191.091C380.809 190.854 380.466 190.815 380.23 191.001C379.484 191.593 378.659 191.798 378.113 191.868L378.98 186.475C379.027 186.177 378.825 185.896 378.528 185.848C378.23 185.801 377.949 186.003 377.902 186.301L376.928 192.359C376.903 192.51 376.944 192.664 377.038 192.784C377.133 192.904 377.273 192.979 377.426 192.991C377.463 192.993 377.906 193.022 378.532 192.91Z" fill="#270A04"/>
<path d="M376.557 186.777L376.038 185.914C377.637 184.95 379.264 184.787 380.875 185.43L380.503 186.365C379.181 185.838 377.89 185.972 376.557 186.777Z" fill="white"/>
<path d="M395.573 184.721C395.363 184.721 395.167 184.589 395.096 184.379C395.007 184.116 395.148 183.83 395.411 183.741C395.665 183.655 401.678 181.65 406.459 183.463C406.719 183.561 406.85 183.851 406.752 184.111C406.653 184.371 406.363 184.503 406.104 184.404C401.663 182.721 395.793 184.674 395.734 184.694C395.681 184.712 395.626 184.721 395.573 184.721Z" fill="white"/>
</svg>
