<svg width="437" height="347" viewBox="0 0 437 347" fill="none" xmlns="http://www.w3.org/2000/svg">
<path d="M351.856 344.708H322.66V344.565C322.66 336.503 329.195 329.968 337.257 329.968C345.319 329.968 351.856 336.503 351.856 344.565V344.708Z" fill="#CFD1D0"/>
<path d="M351.856 344.708H322.66V344.565C322.66 336.503 329.195 329.968 337.257 329.968C345.319 329.968 351.856 336.503 351.856 344.565V344.708Z" stroke="#333333" stroke-width="2" stroke-miterlimit="10"/>
<path d="M401.473 343.707H365.381C362.1 343.707 359.44 341.047 359.44 337.767V285.022C359.44 281.741 362.1 279.081 365.381 279.081H401.473C404.753 279.081 407.412 281.741 407.412 285.022V337.767C407.412 341.047 404.753 343.707 401.473 343.707Z" fill="#E4E4E4"/>
<path d="M401.473 343.707H365.381C362.1 343.707 359.44 341.047 359.44 337.767V285.022C359.44 281.741 362.1 279.081 365.381 279.081H401.473C404.753 279.081 407.412 281.741 407.412 285.022V337.767C407.412 341.047 404.753 343.707 401.473 343.707Z" stroke="#333333" stroke-width="2" stroke-miterlimit="10"/>
<path d="M387.444 293.496C387.444 295.847 385.54 297.752 383.189 297.752C380.839 297.752 378.932 295.847 378.932 293.496C378.932 291.146 380.839 289.242 383.189 289.242C385.54 289.242 387.444 291.146 387.444 293.496Z" stroke="#333333" stroke-width="2" stroke-miterlimit="10"/>
<path d="M395.152 279.285C395.152 280.395 394.702 281.394 393.972 282.124C393.242 282.845 392.242 283.296 391.132 283.296H375.722C373.503 283.296 371.702 281.506 371.702 279.285C371.702 278.176 372.152 277.176 372.882 276.445C373.602 275.725 374.612 275.275 375.722 275.275H379.332C379.253 274.935 379.213 274.575 379.213 274.205C379.213 271.515 381.402 269.324 384.092 269.324C386.782 269.324 388.972 271.515 388.972 274.205C388.972 274.575 388.932 274.935 388.852 275.275H391.132C393.352 275.275 395.152 277.065 395.152 279.285Z" fill="#F7B66E"/>
<path d="M395.152 279.285C395.152 280.395 394.702 281.394 393.972 282.124C393.242 282.845 392.242 283.296 391.132 283.296H375.722C373.503 283.296 371.702 281.506 371.702 279.285C371.702 278.176 372.152 277.176 372.882 276.445C373.602 275.725 374.612 275.275 375.722 275.275H379.332C379.253 274.935 379.213 274.575 379.213 274.205C379.213 271.515 381.402 269.324 384.092 269.324C386.782 269.324 388.972 271.515 388.972 274.205C388.972 274.575 388.932 274.935 388.852 275.275H391.132C393.352 275.275 395.152 277.065 395.152 279.285Z" stroke="#333333" stroke-width="2" stroke-miterlimit="10"/>
<path d="M365.694 307.008H378.437" stroke="#333333" stroke-width="2" stroke-miterlimit="10" stroke-linecap="round"/>
<path d="M365.694 320.566H378.437" stroke="#333333" stroke-width="2" stroke-miterlimit="10" stroke-linecap="round"/>
<path d="M365.414 333.589H378.436" stroke="#333333" stroke-width="2" stroke-miterlimit="10" stroke-linecap="round"/>
<path d="M383.188 320.075L386.138 323.646L394.19 317.484" stroke="#8EB0C2" stroke-width="2" stroke-miterlimit="10" stroke-linecap="round"/>
<path d="M383.188 306.517L386.138 310.088L394.19 303.926" stroke="#8EB0C2" stroke-width="2" stroke-miterlimit="10" stroke-linecap="round"/>
<path d="M47.6221 295.42L58.4451 252.998L76.7541 246.914" stroke="#333333" stroke-width="3" stroke-linecap="round" stroke-linejoin="round"/>
<path d="M76.5404 288.178H25.8394C22.8344 288.178 20.3994 285.742 20.3994 282.739C20.3994 279.734 22.8344 277.298 25.8394 277.298H76.5404C79.5454 277.298 81.9794 279.734 81.9794 282.739C81.9794 285.742 79.5454 288.178 76.5404 288.178Z" fill="#5CBE84"/>
<path d="M76.5404 288.178H25.8394C22.8344 288.178 20.3994 285.742 20.3994 282.739C20.3994 279.734 22.8344 277.298 25.8394 277.298H76.5404C79.5454 277.298 81.9794 279.734 81.9794 282.739C81.9794 285.742 79.5454 288.178 76.5404 288.178Z" stroke="#333333" stroke-width="2" stroke-miterlimit="10"/>
<path d="M71.9182 277.298H31.5342V270.812H71.9182V277.298Z" fill="#53AE79"/>
<path d="M71.9182 277.298H31.5342V270.812H71.9182V277.298Z" stroke="#333333" stroke-width="2" stroke-miterlimit="10"/>
<path d="M28.8613 288.178H73.6393L66.5253 343.156H34.9293L28.8613 288.178Z" fill="#EAD47C"/>
<path d="M28.8613 288.178H73.6393L66.5253 343.156H34.9293L28.8613 288.178Z" stroke="#333333" stroke-width="2" stroke-miterlimit="10"/>
<path d="M71.9195 327.968H30.1175L26.9795 302.616H75.1035L71.9195 327.968Z" fill="#5CBE84"/>
<path d="M71.9195 327.968H30.1175L26.9795 302.616H75.1035L71.9195 327.968Z" stroke="#333333" stroke-width="2" stroke-miterlimit="10"/>
<path d="M54.2323 312.941C54.2323 312.941 53.8333 310.328 56.3333 310.286C58.2143 310.253 58.5353 312.405 58.4263 315.065" stroke="#333333" stroke-width="2" stroke-miterlimit="10" stroke-linecap="round"/>
<path d="M47.5996 312.941C47.5996 312.941 47.9986 310.328 45.4986 310.286C43.6176 310.253 43.2966 312.405 43.4056 315.065" stroke="#333333" stroke-width="2" stroke-miterlimit="10" stroke-linecap="round"/>
<path d="M36.0752 317.771C36.0752 317.771 37.0312 316.125 37.8802 316.975C38.7292 317.825 50.4092 326.744 63.7882 316.975C64.3722 316.497 65.0642 317.134 65.4352 317.93" stroke="#333333" stroke-width="2" stroke-miterlimit="10" stroke-linecap="round"/>
<path d="M1 345.034H435.937" stroke="#333333" stroke-width="2" stroke-miterlimit="10" stroke-linecap="round"/>
<path d="M295.006 329.968H108.948V218.166C108.948 213.521 112.715 209.754 117.362 209.754H286.592C291.238 209.754 295.006 213.521 295.006 218.166V329.968Z" fill="#D2DCE6"/>
<path d="M295.006 329.968H108.948V218.166C108.948 213.521 112.715 209.754 117.362 209.754H286.592C291.238 209.754 295.006 213.521 295.006 218.166V329.968Z" stroke="#333333" stroke-width="2" stroke-miterlimit="10"/>
<path d="M280.936 316.073H123.497C123.165 316.073 122.896 315.804 122.896 315.472V224.201C122.896 223.87 123.165 223.6 123.497 223.6H280.936C281.268 223.6 281.536 223.87 281.536 224.201V315.472C281.536 315.804 281.268 316.073 280.936 316.073Z" fill="#FF5D5D"/>
<path d="M280.936 316.073H123.497C123.165 316.073 122.896 315.804 122.896 315.472V224.201C122.896 223.87 123.165 223.6 123.497 223.6H280.936C281.268 223.6 281.536 223.87 281.536 224.201V315.472C281.536 315.804 281.268 316.073 280.936 316.073Z" stroke="#333333" stroke-width="2" stroke-miterlimit="10"/>
<path d="M317.449 329.968H86.0469V334.308C86.0469 339.746 90.4559 344.156 95.8949 344.156H307.601C313.04 344.156 317.449 339.746 317.449 334.308V329.968Z" fill="#E4E4E4"/>
<path d="M317.449 329.968H86.0469V334.308C86.0469 339.746 90.4559 344.156 95.8949 344.156H307.601C313.04 344.156 317.449 339.746 317.449 334.308V329.968Z" stroke="#333333" stroke-width="2" stroke-miterlimit="10"/>
<path d="M223.084 329.968H181.176C181.176 332.22 183.002 334.044 185.254 334.044H219.007C221.259 334.044 223.084 332.22 223.084 329.968Z" fill="#686B6C"/>
<path d="M223.084 329.968H181.176C181.176 332.22 183.002 334.044 185.254 334.044H219.007C221.259 334.044 223.084 332.22 223.084 329.968Z" stroke="#333333" stroke-width="2" stroke-miterlimit="10"/>
<path d="M205.283 216.436C205.283 218.344 203.736 219.892 201.828 219.892C199.919 219.892 198.371 218.344 198.371 216.436C198.371 214.528 199.919 212.982 201.828 212.982C203.736 212.982 205.283 214.528 205.283 216.436Z" fill="#6A6C6E"/>
<path d="M205.283 216.436C205.283 218.344 203.736 219.892 201.828 219.892C199.919 219.892 198.371 218.344 198.371 216.436C198.371 214.528 199.919 212.982 201.828 212.982C203.736 212.982 205.283 214.528 205.283 216.436Z" stroke="#333333" stroke-width="2" stroke-miterlimit="10"/>
<path d="M220.934 305.678H145.792C143.208 305.678 141.114 303.582 141.114 300.999V242.795C141.114 240.211 143.208 238.116 145.792 238.116H220.934C223.518 238.116 225.612 240.211 225.612 242.795V300.999C225.612 303.582 223.518 305.678 220.934 305.678Z" fill="#2F3840"/>
<path d="M220.934 305.678H145.792C143.208 305.678 141.114 303.582 141.114 300.999V242.795C141.114 240.211 143.208 238.116 145.792 238.116H220.934C223.518 238.116 225.612 240.211 225.612 242.795V300.999C225.612 303.582 223.518 305.678 220.934 305.678Z" stroke="#333333" stroke-width="2" stroke-miterlimit="10"/>
<path d="M225.612 247.946H141.114V242.796C141.114 240.212 143.209 238.118 145.792 238.118H220.934C223.518 238.118 225.612 240.212 225.612 242.796V247.946Z" fill="#EAEDEE"/>
<path d="M225.612 247.946H141.114V242.796C141.114 240.212 143.209 238.118 145.792 238.118H220.934C223.518 238.118 225.612 240.212 225.612 242.796V247.946Z" stroke="#333333" stroke-width="2" stroke-miterlimit="10"/>
<path d="M149.76 243.335C149.76 244.136 149.111 244.785 148.31 244.785C147.509 244.785 146.86 244.136 146.86 243.335C146.86 242.534 147.509 241.885 148.31 241.885C149.111 241.885 149.76 242.534 149.76 243.335Z" fill="#A3A4A4"/>
<path d="M154.868 243.335C154.868 244.136 154.219 244.785 153.418 244.785C152.617 244.785 151.968 244.136 151.968 243.335C151.968 242.534 152.617 241.885 153.418 241.885C154.219 241.885 154.868 242.534 154.868 243.335Z" fill="#A3A4A4"/>
<path d="M159.976 243.335C159.976 244.136 159.327 244.785 158.526 244.785C157.725 244.785 157.076 244.136 157.076 243.335C157.076 242.534 157.725 241.885 158.526 241.885C159.327 241.885 159.976 242.534 159.976 243.335Z" fill="#A3A4A4"/>
<path d="M145.255 251.416H158.425" stroke="#399BBD" stroke-miterlimit="10"/>
<path d="M149.76 255.392H175.573" stroke="#F0F3F4" stroke-miterlimit="10"/>
<path d="M155.969 259.368H172.544" stroke="#FFA39F" stroke-miterlimit="10"/>
<path d="M155.97 263.344H179.128" stroke="#F0F3F4" stroke-miterlimit="10"/>
<path d="M145.255 271.296H167.815" stroke="#399BBD" stroke-miterlimit="10"/>
<path d="M145.255 275.272H167.815" stroke="#46BA85" stroke-miterlimit="10"/>
<path d="M149.76 267.32H161.092" stroke="#E3C588" stroke-miterlimit="10"/>
<path d="M163.043 267.32H175.573" stroke="#F0F3F4" stroke-miterlimit="10"/>
<path d="M217.468 46.948V0" stroke="#333333" stroke-width="2" stroke-miterlimit="10"/>
<path d="M140.585 166.701L182.845 74.3408L251.814 74.4684L296.18 166.428L140.585 166.701ZM140.378 166.86L182.86 74.0386L252.307 74.3916L296.076 166.463L140.378 166.86Z" fill="url(#paint0_linear)"/>
<path d="M229.26 85.4509C229.26 91.9639 223.98 97.2429 217.467 97.2429C210.955 97.2429 205.676 91.9639 205.676 85.4509C205.676 78.9389 210.955 73.6589 217.467 73.6589C223.98 73.6589 229.26 78.9389 229.26 85.4509Z" fill="#FFEA92"/>
<path d="M256.479 82.918C255.968 85.288 253.848 87.078 251.319 87.078H183.618C181.087 87.078 178.968 85.288 178.457 82.918C180.078 62.788 196.917 46.948 217.467 46.948C238.018 46.948 254.859 62.788 256.479 82.918Z" fill="#EEAA64"/>
<path d="M256.479 82.918C255.968 85.288 253.848 87.078 251.319 87.078H183.618C181.087 87.078 178.968 85.288 178.457 82.918C180.078 62.788 196.917 46.948 217.467 46.948C238.018 46.948 254.859 62.788 256.479 82.918Z" stroke="#033333" stroke-width="2" stroke-miterlimit="10"/>
<path d="M256.479 82.918C255.968 85.288 253.848 87.078 251.319 87.078H183.618C181.087 87.078 178.968 85.288 178.457 82.918C180.078 62.788 196.917 46.948 217.467 46.948C238.018 46.948 254.859 62.788 256.479 82.918Z" fill="#EEAA64"/>
<path d="M256.479 82.918C255.968 85.288 253.848 87.078 251.319 87.078H183.618C181.087 87.078 178.968 85.288 178.457 82.918C180.078 62.788 196.917 46.948 217.467 46.948C238.018 46.948 254.859 62.788 256.479 82.918Z" stroke="#033333" stroke-width="2" stroke-miterlimit="10"/>
<path d="M244.395 80.218C244.042 82.257 242.58 83.796 240.833 83.796H194.103C192.357 83.796 190.894 82.257 190.541 80.218C191.66 62.904 203.284 49.28 217.467 49.28C231.652 49.28 243.277 62.904 244.395 80.218Z" fill="#F7B66E"/>
<defs>
<linearGradient id="paint0_linear" x1="212.75" y1="164.14" x2="212.557" y2="36.243" gradientUnits="userSpaceOnUse">
<stop stop-color="white"/>
<stop offset="0.47" stop-color="#FFF5C8"/>
<stop offset="1" stop-color="#FFEA92"/>
</linearGradient>
</defs>
</svg>
