<svg width="57" height="40" viewBox="0 0 57 40" fill="none" xmlns="http://www.w3.org/2000/svg">
<g clip-path="url(#clip0_1_1886)">
<path d="M55.7411 6.23889C55.4142 5.03301 54.7764 3.93365 53.8914 3.05028C53.0063 2.16692 51.9049 1.53036 50.6966 1.204C46.2734 0 28.4711 0 28.4711 0C28.4711 0 10.6679 0.0364443 6.24466 1.24044C5.03642 1.56682 3.93492 2.20341 3.04986 3.08682C2.16481 3.97023 1.52707 5.06964 1.20016 6.27556C-0.137781 14.1196 -0.656793 26.072 1.2369 33.6022C1.56384 34.8081 2.20159 35.9075 3.08665 36.7908C3.9717 37.6742 5.07318 38.3108 6.2814 38.6371C10.7047 39.8411 28.5074 39.8411 28.5074 39.8411C28.5074 39.8411 46.3099 39.8411 50.7329 38.6371C51.9412 38.3108 53.0427 37.6742 53.9278 36.7909C54.8129 35.9075 55.4507 34.8081 55.7777 33.6022C57.1889 25.7471 57.6237 13.8022 55.7411 6.23911V6.23889Z" fill="#FF0000"/>
<path d="M22.8047 28.4577L37.5733 19.9203L22.8049 11.383L22.8047 28.4577Z" fill="white"/>
</g>
<defs>
<clipPath id="clip0_1_1886">
<rect width="57" height="40" fill="white"/>
</clipPath>
</defs>
</svg>
