<svg width="32" height="32" viewBox="0 0 32 32" fill="none" xmlns="http://www.w3.org/2000/svg">
<circle cx="15.8917" cy="15.8917" r="15.8917" fill="white"/>
<g clip-path="url(#clip0_7294_4153)">
<path d="M23.6879 13.067C23.603 12.7641 23.4375 12.4898 23.2091 12.2733C22.9743 12.0502 22.6865 11.8906 22.3729 11.8095C21.1991 11.5002 16.4966 11.5002 16.4966 11.5002C14.5362 11.4779 12.5763 11.576 10.6279 11.7939C10.3143 11.8809 10.027 12.0441 9.79164 12.2689C9.56039 12.4914 9.39289 12.7658 9.30539 13.0664C9.09519 14.1988 8.99307 15.3485 9.00039 16.5002C8.99289 17.6508 9.09476 18.8002 9.30539 19.9339C9.39101 20.2333 9.55789 20.5064 9.78976 20.727C10.0216 20.9477 10.3104 21.107 10.6279 21.1914C11.8173 21.5002 16.4966 21.5002 16.4966 21.5002C18.4596 21.5225 20.422 21.4244 22.3729 21.2064C22.6865 21.1254 22.9743 20.9658 23.2091 20.7427C23.4404 20.522 23.6048 20.2477 23.6873 19.9489C23.9029 18.817 24.0078 17.6668 24.0004 16.5145C24.0166 15.3574 23.9119 14.2018 23.6879 13.0664V13.067ZM15.0016 18.6402V14.3608L18.9141 16.5008L15.0016 18.6402Z" fill="#33658A"/>
</g>
<defs>
<clipPath id="clip0_7294_4153">
<rect width="15" height="15" fill="white" transform="translate(9 9)"/>
</clipPath>
</defs>
</svg>
